%TF.GenerationSoftware,KiCad,Pcbnew,7.0.7*%
%TF.CreationDate,2024-01-28T17:31:32-05:00*%
%TF.ProjectId,keybear-chocolate,6b657962-6561-4722-9d63-686f636f6c61,v1.0.0*%
%TF.SameCoordinates,Original*%
%TF.FileFunction,Drillmap*%
%TF.FilePolarity,Positive*%
%FSLAX45Y45*%
G04 Gerber Fmt 4.5, Leading zero omitted, Abs format (unit mm)*
G04 Created by KiCad (PCBNEW 7.0.7) date 2024-01-28 17:31:32*
%MOMM*%
%LPD*%
G01*
G04 APERTURE LIST*
%ADD10C,0.150000*%
%ADD11C,0.200000*%
%ADD12C,0.040000*%
%ADD13C,0.060000*%
%ADD14C,0.081280*%
%ADD15C,0.100000*%
%ADD16C,0.130000*%
%ADD17C,0.410000*%
G04 APERTURE END LIST*
D10*
X22609632Y-17445075D02*
X20883058Y-17294019D01*
X24331223Y-17777144D02*
X23926170Y-17698490D01*
X26239029Y-19028326D02*
X24768308Y-18475068D01*
X26239030Y-19028324D02*
G75*
G03*
X26626564Y-18850143I105630J280784D01*
G01*
X17740575Y-9534909D02*
X19636248Y-9228837D01*
X26626564Y-18850143D02*
X27491435Y-16473932D01*
X18603247Y-17255022D02*
X14231398Y-16068107D01*
X27700007Y-9894683D02*
G75*
G03*
X27419942Y-9595346I-299997J3D01*
G01*
X21869962Y-9225664D02*
G75*
G03*
X21850023Y-9225001I-19932J-299216D01*
G01*
X14261044Y-10110475D02*
X17739434Y-9535095D01*
X24573978Y-18071741D02*
G75*
G03*
X24331223Y-17777144I-299998J111D01*
G01*
X14010002Y-15778588D02*
G75*
G03*
X14231398Y-16068107I299998J-2D01*
G01*
X24573940Y-18194169D02*
G75*
G03*
X24768308Y-18475068I300000J-111D01*
G01*
X19684067Y-9225001D02*
G75*
G03*
X19636248Y-9228837I4J-299999D01*
G01*
X24573936Y-18194169D02*
X24573981Y-18071741D01*
X20860681Y-17292901D02*
X18678080Y-17265479D01*
X18603247Y-17255021D02*
G75*
G03*
X18678080Y-17265478I78603J289511D01*
G01*
X27484581Y-15372301D02*
X27229613Y-15447222D01*
X27491437Y-16473932D02*
G75*
G03*
X27363275Y-16113718I-281917J102602D01*
G01*
X14261044Y-10110475D02*
G75*
G03*
X14010004Y-10406453I48956J-295975D01*
G01*
X27700004Y-15084470D02*
X27700004Y-9894683D01*
X23926170Y-17698490D02*
X22640529Y-17449406D01*
X27160438Y-15992659D02*
X27363275Y-16113718D01*
X19684067Y-9225001D02*
X21850023Y-9225001D01*
X21869962Y-9225664D02*
X27419942Y-9595346D01*
X22640529Y-17449406D02*
G75*
G03*
X22609632Y-17445075I-57039J-294504D01*
G01*
X14010004Y-15778589D02*
X14010004Y-10406453D01*
X17740575Y-9534909D02*
G75*
G03*
X17739434Y-9535096I48365J-299481D01*
G01*
X27484581Y-15372304D02*
G75*
G03*
X27700004Y-15084470I-84581J287834D01*
G01*
X27229608Y-15447217D02*
G75*
G03*
X27160438Y-15992659I84582J-287833D01*
G01*
X20883058Y-17294019D02*
G75*
G03*
X20860681Y-17292901I-26148J-298901D01*
G01*
D11*
D12*
X14170000Y-12544400D02*
X14210000Y-12584400D01*
X14210000Y-12544400D02*
X14170000Y-12584400D01*
X14170000Y-14458000D02*
X14210000Y-14498000D01*
X14210000Y-14458000D02*
X14170000Y-14498000D01*
X14178600Y-10800400D02*
X14218600Y-10840400D01*
X14218600Y-10800400D02*
X14178600Y-10840400D01*
X14178600Y-11168700D02*
X14218600Y-11208700D01*
X14218600Y-11168700D02*
X14178600Y-11208700D01*
X14178600Y-13238800D02*
X14218600Y-13278800D01*
X14218600Y-13238800D02*
X14178600Y-13278800D01*
X14178600Y-15143800D02*
X14218600Y-15183800D01*
X14218600Y-15143800D02*
X14178600Y-15183800D01*
X14204000Y-11740200D02*
X14244000Y-11780200D01*
X14244000Y-11740200D02*
X14204000Y-11780200D01*
X14204000Y-13670600D02*
X14244000Y-13710600D01*
X14244000Y-13670600D02*
X14204000Y-13710600D01*
X14254800Y-15575600D02*
X14294800Y-15615600D01*
X14294800Y-15575600D02*
X14254800Y-15615600D01*
X14432600Y-14207750D02*
X14472600Y-14247750D01*
X14472600Y-14207750D02*
X14432600Y-14247750D01*
X14432600Y-14407200D02*
X14472600Y-14447200D01*
X14472600Y-14407200D02*
X14432600Y-14447200D01*
X14483400Y-10334250D02*
X14523400Y-10374250D01*
X14523400Y-10334250D02*
X14483400Y-10374250D01*
X14483400Y-10571800D02*
X14523400Y-10611800D01*
X14523400Y-10571800D02*
X14483400Y-10611800D01*
X14483400Y-12045000D02*
X14523400Y-12085000D01*
X14523400Y-12045000D02*
X14483400Y-12085000D01*
X14483400Y-12502200D02*
X14523400Y-12542200D01*
X14523400Y-12502200D02*
X14483400Y-12542200D01*
X14585000Y-12476800D02*
X14625000Y-12516800D01*
X14625000Y-12476800D02*
X14585000Y-12516800D01*
X14585000Y-14407200D02*
X14625000Y-14447200D01*
X14625000Y-14407200D02*
X14585000Y-14447200D01*
X14591315Y-10578185D02*
X14631315Y-10618185D01*
X14631315Y-10578185D02*
X14591315Y-10618185D01*
X15093000Y-15347000D02*
X15133000Y-15387000D01*
X15133000Y-15347000D02*
X15093000Y-15387000D01*
X15169200Y-13442000D02*
X15209200Y-13482000D01*
X15209200Y-13442000D02*
X15169200Y-13482000D01*
X15245400Y-11537000D02*
X15285400Y-11577000D01*
X15285400Y-11537000D02*
X15245400Y-11577000D01*
X15372400Y-10778950D02*
X15412400Y-10818950D01*
X15412400Y-10778950D02*
X15372400Y-10818950D01*
X15372400Y-12603800D02*
X15412400Y-12643800D01*
X15412400Y-12603800D02*
X15372400Y-12643800D01*
X15372400Y-14508800D02*
X15412400Y-14548800D01*
X15412400Y-14508800D02*
X15372400Y-14548800D01*
X15651800Y-10965500D02*
X15691800Y-11005500D01*
X15691800Y-10965500D02*
X15651800Y-11005500D01*
X15651800Y-12857800D02*
X15691800Y-12897800D01*
X15691800Y-12857800D02*
X15651800Y-12897800D01*
X15651800Y-14813600D02*
X15691800Y-14853600D01*
X15691800Y-14813600D02*
X15651800Y-14853600D01*
X15753400Y-13950000D02*
X15793400Y-13990000D01*
X15793400Y-13950000D02*
X15753400Y-13990000D01*
X15753400Y-14508800D02*
X15793400Y-14548800D01*
X15793400Y-14508800D02*
X15753400Y-14548800D01*
X15770000Y-11740200D02*
X15810000Y-11780200D01*
X15810000Y-11740200D02*
X15770000Y-11780200D01*
X15778800Y-12375200D02*
X15818800Y-12415200D01*
X15818800Y-12375200D02*
X15778800Y-12415200D01*
X15857110Y-10746630D02*
X15897110Y-10786630D01*
X15897110Y-10746630D02*
X15857110Y-10786630D01*
X15878290Y-10960850D02*
X15918290Y-11000850D01*
X15918290Y-10960850D02*
X15878290Y-11000850D01*
X15987080Y-10998520D02*
X16027080Y-11038520D01*
X16027080Y-10998520D02*
X15987080Y-11038520D01*
X16007400Y-12273600D02*
X16047400Y-12313600D01*
X16047400Y-12273600D02*
X16007400Y-12313600D01*
X16063280Y-12578400D02*
X16103280Y-12618400D01*
X16103280Y-12578400D02*
X16063280Y-12618400D01*
X16088680Y-10802940D02*
X16128680Y-10842940D01*
X16128680Y-10802940D02*
X16088680Y-10842940D01*
X16088680Y-13218480D02*
X16128680Y-13258480D01*
X16128680Y-13218480D02*
X16088680Y-13258480D01*
X16088680Y-14503720D02*
X16128680Y-14543720D01*
X16128680Y-14503720D02*
X16088680Y-14543720D01*
X16093760Y-15143800D02*
X16133760Y-15183800D01*
X16133760Y-15143800D02*
X16093760Y-15183800D01*
X16096300Y-11321100D02*
X16136300Y-11361100D01*
X16136300Y-11321100D02*
X16096300Y-11361100D01*
X16106050Y-10500980D02*
X16146050Y-10540980D01*
X16146050Y-10500980D02*
X16106050Y-10540980D01*
X16106050Y-10609900D02*
X16146050Y-10649900D01*
X16146050Y-10609900D02*
X16106050Y-10649900D01*
X16172070Y-15550630D02*
X16212070Y-15590630D01*
X16212070Y-15550630D02*
X16172070Y-15590630D01*
X16214350Y-12273600D02*
X16254350Y-12313600D01*
X16254350Y-12273600D02*
X16214350Y-12313600D01*
X16276640Y-10025700D02*
X16316640Y-10065700D01*
X16316640Y-10025700D02*
X16276640Y-10065700D01*
X16287640Y-10143380D02*
X16327640Y-10183380D01*
X16327640Y-10143380D02*
X16287640Y-10183380D01*
X16363000Y-10582500D02*
X16403000Y-10622500D01*
X16403000Y-10582500D02*
X16363000Y-10622500D01*
X16363000Y-12045000D02*
X16403000Y-12085000D01*
X16403000Y-12045000D02*
X16363000Y-12085000D01*
X16363000Y-12197400D02*
X16403000Y-12237400D01*
X16403000Y-12197400D02*
X16363000Y-12237400D01*
X16363000Y-12349800D02*
X16403000Y-12389800D01*
X16403000Y-12349800D02*
X16363000Y-12389800D01*
X16446820Y-10325420D02*
X16486820Y-10365420D01*
X16486820Y-10325420D02*
X16446820Y-10365420D01*
X16475942Y-16216862D02*
X16515942Y-16256862D01*
X16515942Y-16216862D02*
X16475942Y-16256862D01*
X16490000Y-14381800D02*
X16530000Y-14421800D01*
X16530000Y-14381800D02*
X16490000Y-14421800D01*
X16505240Y-16352840D02*
X16545240Y-16392840D01*
X16545240Y-16352840D02*
X16505240Y-16392840D01*
X16507780Y-12434750D02*
X16547780Y-12474750D01*
X16547780Y-12434750D02*
X16507780Y-12474750D01*
X16515400Y-10165400D02*
X16555400Y-10205400D01*
X16555400Y-10165400D02*
X16515400Y-10205400D01*
X16515400Y-10571800D02*
X16555400Y-10611800D01*
X16555400Y-10571800D02*
X16515400Y-10611800D01*
X16546105Y-15999145D02*
X16586105Y-16039145D01*
X16586105Y-15999145D02*
X16546105Y-16039145D01*
X16550960Y-15829195D02*
X16590960Y-15869195D01*
X16590960Y-15829195D02*
X16550960Y-15869195D01*
X16642400Y-14280200D02*
X16682400Y-14320200D01*
X16682400Y-14280200D02*
X16642400Y-14320200D01*
X16769400Y-11486200D02*
X16809400Y-11526200D01*
X16809400Y-11486200D02*
X16769400Y-11526200D01*
X16998000Y-15321600D02*
X17038000Y-15361600D01*
X17038000Y-15321600D02*
X16998000Y-15361600D01*
X17074200Y-13467400D02*
X17114200Y-13507400D01*
X17114200Y-13467400D02*
X17074200Y-13507400D01*
X17282480Y-16337600D02*
X17322480Y-16377600D01*
X17322480Y-16337600D02*
X17282480Y-16377600D01*
X17302800Y-10127300D02*
X17342800Y-10167300D01*
X17342800Y-10127300D02*
X17302800Y-10167300D01*
X17302800Y-10597200D02*
X17342800Y-10637200D01*
X17342800Y-10597200D02*
X17302800Y-10637200D01*
X17302800Y-12603800D02*
X17342800Y-12643800D01*
X17342800Y-12603800D02*
X17302800Y-12643800D01*
X17328200Y-14661200D02*
X17368200Y-14701200D01*
X17368200Y-14661200D02*
X17328200Y-14701200D01*
X17353600Y-15838550D02*
X17393600Y-15878550D01*
X17393600Y-15838550D02*
X17353600Y-15878550D01*
X17379000Y-14356400D02*
X17419000Y-14396400D01*
X17419000Y-14356400D02*
X17379000Y-14396400D01*
X17404400Y-10216200D02*
X17444400Y-10256200D01*
X17444400Y-10216200D02*
X17404400Y-10256200D01*
X17409480Y-16324900D02*
X17449480Y-16364900D01*
X17449480Y-16324900D02*
X17409480Y-16364900D01*
X17465425Y-16579696D02*
X17505425Y-16619696D01*
X17505425Y-16579696D02*
X17465425Y-16619696D01*
X17480600Y-16070900D02*
X17520600Y-16110900D01*
X17520600Y-16070900D02*
X17480600Y-16110900D01*
X17484350Y-14331000D02*
X17524350Y-14371000D01*
X17524350Y-14331000D02*
X17484350Y-14371000D01*
X17531400Y-15855000D02*
X17571400Y-15895000D01*
X17571400Y-15855000D02*
X17531400Y-15895000D01*
X17544100Y-10089200D02*
X17584100Y-10129200D01*
X17584100Y-10089200D02*
X17544100Y-10129200D01*
X17582200Y-10851200D02*
X17622200Y-10891200D01*
X17622200Y-10851200D02*
X17582200Y-10891200D01*
X17594900Y-13213400D02*
X17634900Y-13253400D01*
X17634900Y-13213400D02*
X17594900Y-13253400D01*
X17607600Y-12756200D02*
X17647600Y-12796200D01*
X17647600Y-12756200D02*
X17607600Y-12796200D01*
X17683800Y-12273600D02*
X17723800Y-12313600D01*
X17723800Y-12273600D02*
X17683800Y-12313600D01*
X17683800Y-13645200D02*
X17723800Y-13685200D01*
X17723800Y-13645200D02*
X17683800Y-13685200D01*
X17683800Y-16121700D02*
X17723800Y-16161700D01*
X17723800Y-16121700D02*
X17683800Y-16161700D01*
X17690000Y-11740200D02*
X17730000Y-11780200D01*
X17730000Y-11740200D02*
X17690000Y-11780200D01*
X17690000Y-14280200D02*
X17730000Y-14320200D01*
X17730000Y-14280200D02*
X17690000Y-14320200D01*
X17709200Y-16642400D02*
X17749200Y-16682400D01*
X17749200Y-16642400D02*
X17709200Y-16682400D01*
X17785400Y-16086511D02*
X17825400Y-16126511D01*
X17825400Y-16086511D02*
X17785400Y-16126511D01*
X17810800Y-15715300D02*
X17850800Y-15755300D01*
X17850800Y-15715300D02*
X17810800Y-15755300D01*
X17897160Y-11953560D02*
X17937160Y-11993560D01*
X17937160Y-11953560D02*
X17897160Y-11993560D01*
X17909911Y-14969349D02*
X17949911Y-15009349D01*
X17949911Y-14969349D02*
X17909911Y-15009349D01*
X17912400Y-16098950D02*
X17952400Y-16138950D01*
X17952400Y-16098950D02*
X17912400Y-16138950D01*
X17913286Y-15069242D02*
X17953286Y-15109242D01*
X17953286Y-15069242D02*
X17913286Y-15109242D01*
X17937800Y-16343950D02*
X17977800Y-16383950D01*
X17977800Y-16343950D02*
X17937800Y-16383950D01*
X17948388Y-16684250D02*
X17988388Y-16724250D01*
X17988388Y-16684250D02*
X17948388Y-16724250D01*
X17963200Y-11676700D02*
X18003200Y-11716700D01*
X18003200Y-11676700D02*
X17963200Y-11716700D01*
X18008920Y-10622600D02*
X18048920Y-10662600D01*
X18048920Y-10622600D02*
X18008920Y-10662600D01*
X18008920Y-12547920D02*
X18048920Y-12587920D01*
X18048920Y-12547920D02*
X18008920Y-12587920D01*
X18010000Y-10122500D02*
X18050000Y-10162500D01*
X18050000Y-10122500D02*
X18010000Y-10162500D01*
X18012457Y-15089250D02*
X18052457Y-15129250D01*
X18052457Y-15089250D02*
X18012457Y-15129250D01*
X18014000Y-14463080D02*
X18054000Y-14503080D01*
X18054000Y-14463080D02*
X18014000Y-14503080D01*
X18055019Y-14874181D02*
X18095019Y-14914181D01*
X18095019Y-14874181D02*
X18055019Y-14914181D01*
X18090630Y-15156070D02*
X18130630Y-15196070D01*
X18130630Y-15156070D02*
X18090630Y-15196070D01*
X18095280Y-13833160D02*
X18135280Y-13873160D01*
X18135280Y-13833160D02*
X18095280Y-13873160D01*
X18141000Y-11740200D02*
X18181000Y-11780200D01*
X18181000Y-11740200D02*
X18141000Y-11780200D01*
X18153700Y-10025700D02*
X18193700Y-10065700D01*
X18193700Y-10025700D02*
X18153700Y-10065700D01*
X18229900Y-15178150D02*
X18269900Y-15218150D01*
X18269900Y-15178150D02*
X18229900Y-15218150D01*
X18255300Y-16540800D02*
X18295300Y-16580800D01*
X18295300Y-16540800D02*
X18255300Y-16580800D01*
X18331500Y-11778300D02*
X18371500Y-11818300D01*
X18371500Y-11778300D02*
X18331500Y-11818300D01*
X18420400Y-13416600D02*
X18460400Y-13456600D01*
X18460400Y-13416600D02*
X18420400Y-13456600D01*
X18420400Y-13721400D02*
X18460400Y-13761400D01*
X18460400Y-13721400D02*
X18420400Y-13761400D01*
X18427180Y-9905480D02*
X18467180Y-9945480D01*
X18467180Y-9905480D02*
X18427180Y-9945480D01*
X18433100Y-11816400D02*
X18473100Y-11856400D01*
X18473100Y-11816400D02*
X18433100Y-11856400D01*
X18433100Y-13924600D02*
X18473100Y-13964600D01*
X18473100Y-13924600D02*
X18433100Y-13964600D01*
X18445800Y-16341550D02*
X18485800Y-16381550D01*
X18485800Y-16341550D02*
X18445800Y-16381550D01*
X18525431Y-16562769D02*
X18565431Y-16602769D01*
X18565431Y-16562769D02*
X18525431Y-16602769D01*
X18598200Y-16642400D02*
X18638200Y-16682400D01*
X18638200Y-16642400D02*
X18598200Y-16682400D01*
X18623600Y-14686600D02*
X18663600Y-14726600D01*
X18663600Y-14686600D02*
X18623600Y-14726600D01*
X18626519Y-16423581D02*
X18666519Y-16463581D01*
X18666519Y-16423581D02*
X18626519Y-16463581D01*
X18636300Y-15347000D02*
X18676300Y-15387000D01*
X18676300Y-15347000D02*
X18636300Y-15387000D01*
X18672832Y-16903220D02*
X18712832Y-16943220D01*
X18712832Y-16903220D02*
X18672832Y-16943220D01*
X18687100Y-16011350D02*
X18727100Y-16051350D01*
X18727100Y-16011350D02*
X18687100Y-16051350D01*
X18693450Y-15556550D02*
X18733450Y-15596550D01*
X18733450Y-15556550D02*
X18693450Y-15596550D01*
X18699800Y-12718100D02*
X18739800Y-12758100D01*
X18739800Y-12718100D02*
X18699800Y-12758100D01*
X18737400Y-16515900D02*
X18777400Y-16555900D01*
X18777400Y-16515900D02*
X18737400Y-16555900D01*
X18750600Y-11422700D02*
X18790600Y-11462700D01*
X18790600Y-11422700D02*
X18750600Y-11462700D01*
X18814100Y-10813100D02*
X18854100Y-10853100D01*
X18854100Y-10813100D02*
X18814100Y-10853100D01*
X18833150Y-16305850D02*
X18873150Y-16345850D01*
X18873150Y-16305850D02*
X18833150Y-16345850D01*
X18841116Y-16199516D02*
X18881116Y-16239516D01*
X18881116Y-16199516D02*
X18841116Y-16239516D01*
X18903000Y-16464600D02*
X18943000Y-16504600D01*
X18943000Y-16464600D02*
X18903000Y-16504600D01*
X18905317Y-15298936D02*
X18945317Y-15338936D01*
X18945317Y-15298936D02*
X18905317Y-15338936D01*
X18919450Y-16670000D02*
X18959450Y-16710000D01*
X18959450Y-16670000D02*
X18919450Y-16710000D01*
X18944441Y-15397800D02*
X18984441Y-15437800D01*
X18984441Y-15397800D02*
X18944441Y-15437800D01*
X18953800Y-15537927D02*
X18993800Y-15577927D01*
X18993800Y-15537927D02*
X18953800Y-15577927D01*
X18966500Y-15762150D02*
X19006500Y-15802150D01*
X19006500Y-15762150D02*
X18966500Y-15802150D01*
X18966500Y-15943900D02*
X19006500Y-15983900D01*
X19006500Y-15943900D02*
X18966500Y-15983900D01*
X18966500Y-16299500D02*
X19006500Y-16339500D01*
X19006500Y-16299500D02*
X18966500Y-16339500D01*
X19080800Y-15537500D02*
X19120800Y-15577500D01*
X19120800Y-15537500D02*
X19080800Y-15577500D01*
X19173450Y-15451750D02*
X19213450Y-15491750D01*
X19213450Y-15451750D02*
X19173450Y-15491750D01*
X19220500Y-9949500D02*
X19260500Y-9989500D01*
X19260500Y-9949500D02*
X19220500Y-9989500D01*
X19220500Y-11930700D02*
X19260500Y-11970700D01*
X19260500Y-11930700D02*
X19220500Y-11970700D01*
X19220500Y-13810300D02*
X19260500Y-13850300D01*
X19260500Y-13810300D02*
X19220500Y-13850300D01*
X19296700Y-15994700D02*
X19336700Y-16034700D01*
X19336700Y-15994700D02*
X19296700Y-16034700D01*
X19309400Y-15778800D02*
X19349400Y-15818800D01*
X19349400Y-15778800D02*
X19309400Y-15818800D01*
X19322100Y-15677200D02*
X19362100Y-15717200D01*
X19362100Y-15677200D02*
X19322100Y-15717200D01*
X19372900Y-15461300D02*
X19412900Y-15501300D01*
X19412900Y-15461300D02*
X19372900Y-15501300D01*
X19461800Y-14000800D02*
X19501800Y-14040800D01*
X19501800Y-14000800D02*
X19461800Y-14040800D01*
X19461800Y-15515850D02*
X19501800Y-15555850D01*
X19501800Y-15515850D02*
X19461800Y-15555850D01*
X19474500Y-12070400D02*
X19514500Y-12110400D01*
X19514500Y-12070400D02*
X19474500Y-12110400D01*
X19512600Y-10165400D02*
X19552600Y-10205400D01*
X19552600Y-10165400D02*
X19512600Y-10205400D01*
X19525300Y-14864400D02*
X19565300Y-14904400D01*
X19565300Y-14864400D02*
X19525300Y-14904400D01*
X19563400Y-11105200D02*
X19603400Y-11145200D01*
X19603400Y-11105200D02*
X19563400Y-11145200D01*
X19563400Y-11816400D02*
X19603400Y-11856400D01*
X19603400Y-11816400D02*
X19563400Y-11856400D01*
X19588800Y-9873300D02*
X19628800Y-9913300D01*
X19628800Y-9873300D02*
X19588800Y-9913300D01*
X19588800Y-13010200D02*
X19628800Y-13050200D01*
X19628800Y-13010200D02*
X19588800Y-13050200D01*
X19588800Y-13730150D02*
X19628800Y-13770150D01*
X19628800Y-13730150D02*
X19588800Y-13770150D01*
X19593067Y-9973159D02*
X19633067Y-10013159D01*
X19633067Y-9973159D02*
X19593067Y-10013159D01*
X19665000Y-14085750D02*
X19705000Y-14125750D01*
X19705000Y-14085750D02*
X19665000Y-14125750D01*
X19703100Y-14851700D02*
X19743100Y-14891700D01*
X19743100Y-14851700D02*
X19703100Y-14891700D01*
X19779300Y-11956100D02*
X19819300Y-11996100D01*
X19819300Y-11956100D02*
X19779300Y-11996100D01*
X19789978Y-10009250D02*
X19829978Y-10049250D01*
X19829978Y-10009250D02*
X19789978Y-10049250D01*
X19842800Y-9644700D02*
X19882800Y-9684700D01*
X19882800Y-9644700D02*
X19842800Y-9684700D01*
X19842800Y-11460800D02*
X19882800Y-11500800D01*
X19882800Y-11460800D02*
X19842800Y-11500800D01*
X19901220Y-16670340D02*
X19941220Y-16710340D01*
X19941220Y-16670340D02*
X19901220Y-16710340D01*
X19906300Y-14742450D02*
X19946300Y-14782450D01*
X19946300Y-14742450D02*
X19906300Y-14782450D01*
X19919000Y-13502960D02*
X19959000Y-13542960D01*
X19959000Y-13502960D02*
X19919000Y-13542960D01*
X19929160Y-10333040D02*
X19969160Y-10373040D01*
X19969160Y-10333040D02*
X19929160Y-10373040D01*
X19929160Y-12243120D02*
X19969160Y-12283120D01*
X19969160Y-12243120D02*
X19929160Y-12283120D01*
X19929160Y-14173520D02*
X19969160Y-14213520D01*
X19969160Y-14173520D02*
X19929160Y-14213520D01*
X19930000Y-9833500D02*
X19970000Y-9873500D01*
X19970000Y-9833500D02*
X19930000Y-9873500D01*
X19969370Y-14585430D02*
X20009370Y-14625430D01*
X20009370Y-14585430D02*
X19969370Y-14625430D01*
X19969800Y-15461300D02*
X20009800Y-15501300D01*
X20009800Y-15461300D02*
X19969800Y-15501300D01*
X19995200Y-10838500D02*
X20035200Y-10878500D01*
X20035200Y-10838500D02*
X19995200Y-10878500D01*
X19995200Y-11041700D02*
X20035200Y-11081700D01*
X20035200Y-11041700D02*
X19995200Y-11081700D01*
X19995200Y-11537000D02*
X20035200Y-11577000D01*
X20035200Y-11537000D02*
X19995200Y-11577000D01*
X20020600Y-14788200D02*
X20060600Y-14828200D01*
X20060600Y-14788200D02*
X20020600Y-14828200D01*
X20051080Y-11679240D02*
X20091080Y-11719240D01*
X20091080Y-11679240D02*
X20051080Y-11719240D01*
X20058700Y-14902500D02*
X20098700Y-14942500D01*
X20098700Y-14902500D02*
X20058700Y-14942500D01*
X20112040Y-15834680D02*
X20152040Y-15874680D01*
X20152040Y-15834680D02*
X20112040Y-15874680D01*
X20134900Y-15651800D02*
X20174900Y-15691800D01*
X20174900Y-15651800D02*
X20134900Y-15691800D01*
X20147170Y-14763230D02*
X20187170Y-14803230D01*
X20187170Y-14763230D02*
X20147170Y-14803230D01*
X20173000Y-11482450D02*
X20213000Y-11522450D01*
X20213000Y-11482450D02*
X20173000Y-11522450D01*
X20211100Y-13162600D02*
X20251100Y-13202600D01*
X20251100Y-13162600D02*
X20211100Y-13202600D01*
X20211100Y-13429300D02*
X20251100Y-13469300D01*
X20251100Y-13429300D02*
X20211100Y-13469300D01*
X20223800Y-11105200D02*
X20263800Y-11145200D01*
X20263800Y-11105200D02*
X20223800Y-11145200D01*
X20249200Y-9606600D02*
X20289200Y-9646600D01*
X20289200Y-9606600D02*
X20249200Y-9646600D01*
X20249200Y-15080300D02*
X20289200Y-15120300D01*
X20289200Y-15080300D02*
X20249200Y-15120300D01*
X20274600Y-15728000D02*
X20314600Y-15768000D01*
X20314600Y-15728000D02*
X20274600Y-15768000D01*
X20312700Y-9911400D02*
X20352700Y-9951400D01*
X20352700Y-9911400D02*
X20312700Y-9951400D01*
X20338100Y-11498900D02*
X20378100Y-11538900D01*
X20378100Y-11498900D02*
X20338100Y-11538900D01*
X20338100Y-15156500D02*
X20378100Y-15196500D01*
X20378100Y-15156500D02*
X20338100Y-15196500D01*
X20338100Y-15359700D02*
X20378100Y-15399700D01*
X20378100Y-15359700D02*
X20338100Y-15399700D01*
X20350800Y-9581200D02*
X20390800Y-9621200D01*
X20390800Y-9581200D02*
X20350800Y-9621200D01*
X20350800Y-11181400D02*
X20390800Y-11221400D01*
X20390800Y-11181400D02*
X20350800Y-11221400D01*
X20350800Y-13442000D02*
X20390800Y-13482000D01*
X20390800Y-13442000D02*
X20350800Y-13482000D01*
X20477800Y-10330500D02*
X20517800Y-10370500D01*
X20517800Y-10330500D02*
X20477800Y-10370500D01*
X20487960Y-16454440D02*
X20527960Y-16494440D01*
X20527960Y-16454440D02*
X20487960Y-16494440D01*
X20604800Y-15651800D02*
X20644800Y-15691800D01*
X20644800Y-15651800D02*
X20604800Y-15691800D01*
X20681000Y-15465250D02*
X20721000Y-15505250D01*
X20721000Y-15465250D02*
X20681000Y-15505250D01*
X20706400Y-10533700D02*
X20746400Y-10573700D01*
X20746400Y-10533700D02*
X20706400Y-10573700D01*
X20719100Y-16007400D02*
X20759100Y-16047400D01*
X20759100Y-16007400D02*
X20719100Y-16047400D01*
X20719100Y-16794800D02*
X20759100Y-16834800D01*
X20759100Y-16794800D02*
X20719100Y-16834800D01*
X20757200Y-12451400D02*
X20797200Y-12491400D01*
X20797200Y-12451400D02*
X20757200Y-12491400D01*
X20820700Y-14343700D02*
X20860700Y-14383700D01*
X20860700Y-14343700D02*
X20820700Y-14383700D01*
X21001040Y-16352840D02*
X21041040Y-16392840D01*
X21041040Y-16352840D02*
X21001040Y-16392840D01*
X21036600Y-16002320D02*
X21076600Y-16042320D01*
X21076600Y-16002320D02*
X21036600Y-16042320D01*
X21125500Y-11625900D02*
X21165500Y-11665900D01*
X21165500Y-11625900D02*
X21125500Y-11665900D01*
X21125500Y-15207300D02*
X21165500Y-15247300D01*
X21165500Y-15207300D02*
X21125500Y-15247300D01*
X21138200Y-9698450D02*
X21178200Y-9738450D01*
X21178200Y-9698450D02*
X21138200Y-9738450D01*
X21138200Y-11156000D02*
X21178200Y-11196000D01*
X21178200Y-11156000D02*
X21138200Y-11196000D01*
X21138200Y-13581700D02*
X21178200Y-13621700D01*
X21178200Y-13581700D02*
X21138200Y-13621700D01*
X21163600Y-11283000D02*
X21203600Y-11323000D01*
X21203600Y-11283000D02*
X21163600Y-11323000D01*
X21201700Y-15298500D02*
X21241700Y-15338500D01*
X21241700Y-15298500D02*
X21201700Y-15338500D01*
X21316000Y-11181400D02*
X21356000Y-11221400D01*
X21356000Y-11181400D02*
X21316000Y-11221400D01*
X21316000Y-13353100D02*
X21356000Y-13393100D01*
X21356000Y-13353100D02*
X21316000Y-13393100D01*
X21373812Y-15803657D02*
X21413812Y-15843657D01*
X21413812Y-15803657D02*
X21373812Y-15843657D01*
X21385850Y-11505250D02*
X21425850Y-11545250D01*
X21425850Y-11505250D02*
X21385850Y-11545250D01*
X21404900Y-13708700D02*
X21444900Y-13748700D01*
X21444900Y-13708700D02*
X21404900Y-13748700D01*
X21404900Y-14673900D02*
X21444900Y-14713900D01*
X21444900Y-14673900D02*
X21404900Y-14713900D01*
X21448080Y-9601520D02*
X21488080Y-9641520D01*
X21488080Y-9601520D02*
X21448080Y-9641520D01*
X21457550Y-11130600D02*
X21497550Y-11170600D01*
X21497550Y-11130600D02*
X21457550Y-11170600D01*
X21473311Y-15813150D02*
X21513311Y-15853150D01*
X21513311Y-15813150D02*
X21473311Y-15853150D01*
X21493800Y-12743500D02*
X21533800Y-12783500D01*
X21533800Y-12743500D02*
X21493800Y-12783500D01*
X21493800Y-13607100D02*
X21533800Y-13647100D01*
X21533800Y-13607100D02*
X21493800Y-13647100D01*
X21498180Y-15126720D02*
X21538180Y-15166720D01*
X21538180Y-15126720D02*
X21498180Y-15166720D01*
X21510450Y-15010450D02*
X21550450Y-15050450D01*
X21550450Y-15010450D02*
X21510450Y-15050450D01*
X21544600Y-9708200D02*
X21584600Y-9748200D01*
X21584600Y-9708200D02*
X21544600Y-9748200D01*
X21595400Y-11308400D02*
X21635400Y-11348400D01*
X21635400Y-11308400D02*
X21595400Y-11348400D01*
X21595400Y-11765600D02*
X21635400Y-11805600D01*
X21635400Y-11765600D02*
X21595400Y-11805600D01*
X21680350Y-13759500D02*
X21720350Y-13799500D01*
X21720350Y-13759500D02*
X21680350Y-13799500D01*
X21697000Y-9718360D02*
X21737000Y-9758360D01*
X21737000Y-9718360D02*
X21697000Y-9758360D01*
X21798600Y-15445950D02*
X21838600Y-15485950D01*
X21838600Y-15445950D02*
X21798600Y-15485950D01*
X21849400Y-9967280D02*
X21889400Y-10007280D01*
X21889400Y-9967280D02*
X21849400Y-10007280D01*
X21849400Y-11882440D02*
X21889400Y-11922440D01*
X21889400Y-11882440D02*
X21849400Y-11922440D01*
X21849400Y-12547920D02*
X21889400Y-12587920D01*
X21889400Y-12547920D02*
X21849400Y-12587920D01*
X21849400Y-14458000D02*
X21889400Y-14498000D01*
X21889400Y-14458000D02*
X21849400Y-14498000D01*
X21854480Y-10627680D02*
X21894480Y-10667680D01*
X21894480Y-10627680D02*
X21854480Y-10667680D01*
X21854480Y-13797600D02*
X21894480Y-13837600D01*
X21894480Y-13797600D02*
X21854480Y-13837600D01*
X21872260Y-9543100D02*
X21912260Y-9583100D01*
X21912260Y-9543100D02*
X21872260Y-9583100D01*
X21912900Y-16777020D02*
X21952900Y-16817020D01*
X21952900Y-16777020D02*
X21912900Y-16817020D01*
X21925600Y-15651800D02*
X21965600Y-15691800D01*
X21965600Y-15651800D02*
X21925600Y-15691800D01*
X22052600Y-9530400D02*
X22092600Y-9570400D01*
X22092600Y-9530400D02*
X22052600Y-9570400D01*
X22078000Y-13721400D02*
X22118000Y-13761400D01*
X22118000Y-13721400D02*
X22078000Y-13761400D01*
X22103400Y-11778300D02*
X22143400Y-11818300D01*
X22143400Y-11778300D02*
X22103400Y-11818300D01*
X22141500Y-9886000D02*
X22181500Y-9926000D01*
X22181500Y-9886000D02*
X22141500Y-9926000D01*
X22154200Y-9632000D02*
X22194200Y-9672000D01*
X22194200Y-9632000D02*
X22154200Y-9672000D01*
X22243100Y-15982000D02*
X22283100Y-16022000D01*
X22283100Y-15982000D02*
X22243100Y-16022000D01*
X22255800Y-11791000D02*
X22295800Y-11831000D01*
X22295800Y-11791000D02*
X22255800Y-11831000D01*
X22255800Y-13442000D02*
X22295800Y-13482000D01*
X22295800Y-13442000D02*
X22255800Y-13482000D01*
X22255800Y-13759500D02*
X22295800Y-13799500D01*
X22295800Y-13759500D02*
X22255800Y-13799500D01*
X22268500Y-9886000D02*
X22308500Y-9926000D01*
X22308500Y-9886000D02*
X22268500Y-9926000D01*
X22268500Y-10190800D02*
X22308500Y-10230800D01*
X22308500Y-10190800D02*
X22268500Y-10230800D01*
X22268500Y-12172000D02*
X22308500Y-12212000D01*
X22308500Y-12172000D02*
X22268500Y-12212000D01*
X22323986Y-15741762D02*
X22363986Y-15781762D01*
X22363986Y-15741762D02*
X22323986Y-15781762D01*
X22408200Y-15651800D02*
X22448200Y-15691800D01*
X22448200Y-15651800D02*
X22408200Y-15691800D01*
X22565650Y-16845780D02*
X22605650Y-16885780D01*
X22605650Y-16845780D02*
X22565650Y-16885780D01*
X22636800Y-15740700D02*
X22676800Y-15780700D01*
X22676800Y-15740700D02*
X22636800Y-15780700D01*
X22700730Y-15396862D02*
X22740730Y-15436862D01*
X22740730Y-15396862D02*
X22700730Y-15436862D01*
X22776500Y-14673900D02*
X22816500Y-14713900D01*
X22816500Y-14673900D02*
X22776500Y-14713900D01*
X22789200Y-12718100D02*
X22829200Y-12758100D01*
X22829200Y-12718100D02*
X22789200Y-12758100D01*
X22789200Y-15550200D02*
X22829200Y-15590200D01*
X22829200Y-15550200D02*
X22789200Y-15590200D01*
X22865400Y-10838500D02*
X22905400Y-10878500D01*
X22905400Y-10838500D02*
X22865400Y-10878500D01*
X22996150Y-16923170D02*
X23036150Y-16963170D01*
X23036150Y-16923170D02*
X22996150Y-16963170D01*
X23030500Y-15486700D02*
X23070500Y-15526700D01*
X23070500Y-15486700D02*
X23030500Y-15526700D01*
X23043200Y-9987600D02*
X23083200Y-10027600D01*
X23083200Y-9987600D02*
X23043200Y-10027600D01*
X23043200Y-15347000D02*
X23083200Y-15387000D01*
X23083200Y-15347000D02*
X23043200Y-15387000D01*
X23055900Y-9873300D02*
X23095900Y-9913300D01*
X23095900Y-9873300D02*
X23055900Y-9913300D01*
X23055900Y-11905300D02*
X23095900Y-11945300D01*
X23095900Y-11905300D02*
X23055900Y-11945300D01*
X23055900Y-13861100D02*
X23095900Y-13901100D01*
X23095900Y-13861100D02*
X23055900Y-13901100D01*
X23068600Y-16566200D02*
X23108600Y-16606200D01*
X23108600Y-16566200D02*
X23068600Y-16606200D01*
X23144800Y-16223300D02*
X23184800Y-16263300D01*
X23184800Y-16223300D02*
X23144800Y-16263300D01*
X23271800Y-15880400D02*
X23311800Y-15920400D01*
X23311800Y-15880400D02*
X23271800Y-15920400D01*
X23271800Y-16096300D02*
X23311800Y-16136300D01*
X23311800Y-16096300D02*
X23271800Y-16136300D01*
X23284500Y-11067100D02*
X23324500Y-11107100D01*
X23324500Y-11067100D02*
X23284500Y-11107100D01*
X23297200Y-12095800D02*
X23337200Y-12135800D01*
X23337200Y-12095800D02*
X23297200Y-12135800D01*
X23322600Y-14026200D02*
X23362600Y-14066200D01*
X23362600Y-14026200D02*
X23322600Y-14066200D01*
X23322600Y-15004100D02*
X23362600Y-15044100D01*
X23362600Y-15004100D02*
X23322600Y-15044100D01*
X23348000Y-11629050D02*
X23388000Y-11669050D01*
X23388000Y-11629050D02*
X23348000Y-11669050D01*
X23386100Y-11346500D02*
X23426100Y-11386500D01*
X23426100Y-11346500D02*
X23386100Y-11386500D01*
X23398800Y-15889150D02*
X23438800Y-15929150D01*
X23438800Y-15889150D02*
X23398800Y-15929150D01*
X23436900Y-13010200D02*
X23476900Y-13050200D01*
X23476900Y-13010200D02*
X23436900Y-13050200D01*
X23449600Y-11633520D02*
X23489600Y-11673520D01*
X23489600Y-11633520D02*
X23449600Y-11673520D01*
X23462300Y-13924600D02*
X23502300Y-13964600D01*
X23502300Y-13924600D02*
X23462300Y-13964600D01*
X23512670Y-11346930D02*
X23552670Y-11386930D01*
X23552670Y-11346930D02*
X23512670Y-11386930D01*
X23522450Y-15232700D02*
X23562450Y-15272700D01*
X23562450Y-15232700D02*
X23522450Y-15272700D01*
X23523634Y-11746566D02*
X23563634Y-11786566D01*
X23563634Y-11746566D02*
X23523634Y-11786566D01*
X23525800Y-11460800D02*
X23565800Y-11500800D01*
X23565800Y-11460800D02*
X23525800Y-11500800D01*
X23554350Y-15385100D02*
X23594350Y-15425100D01*
X23594350Y-15385100D02*
X23554350Y-15425100D01*
X23554350Y-15512100D02*
X23594350Y-15552100D01*
X23594350Y-15512100D02*
X23554350Y-15552100D01*
X23573801Y-16175480D02*
X23613801Y-16215480D01*
X23613801Y-16175480D02*
X23573801Y-16215480D01*
X23624860Y-9484680D02*
X23664860Y-9524680D01*
X23664860Y-9484680D02*
X23624860Y-9524680D01*
X23716300Y-11625900D02*
X23756300Y-11665900D01*
X23756300Y-11625900D02*
X23716300Y-11665900D01*
X23716300Y-13391200D02*
X23756300Y-13431200D01*
X23756300Y-13391200D02*
X23716300Y-13431200D01*
X23756940Y-10830880D02*
X23796940Y-10870880D01*
X23796940Y-10830880D02*
X23756940Y-10870880D01*
X23759480Y-10475280D02*
X23799480Y-10515280D01*
X23799480Y-10475280D02*
X23759480Y-10515280D01*
X23759480Y-12573320D02*
X23799480Y-12613320D01*
X23799480Y-12573320D02*
X23759480Y-12613320D01*
X23759480Y-13787440D02*
X23799480Y-13827440D01*
X23799480Y-13787440D02*
X23759480Y-13827440D01*
X23759480Y-14468160D02*
X23799480Y-14508160D01*
X23799480Y-14468160D02*
X23759480Y-14508160D01*
X23760000Y-10173020D02*
X23800000Y-10213020D01*
X23800000Y-10173020D02*
X23760000Y-10213020D01*
X23823820Y-11658080D02*
X23863820Y-11698080D01*
X23863820Y-11658080D02*
X23823820Y-11698080D01*
X23878860Y-9851650D02*
X23918860Y-9891650D01*
X23918860Y-9851650D02*
X23878860Y-9891650D01*
X23916960Y-11948480D02*
X23956960Y-11988480D01*
X23956960Y-11948480D02*
X23916960Y-11988480D01*
X23919500Y-9505000D02*
X23959500Y-9545000D01*
X23959500Y-9505000D02*
X23919500Y-9545000D01*
X24008400Y-9873300D02*
X24048400Y-9913300D01*
X24048400Y-9873300D02*
X24008400Y-9913300D01*
X24008400Y-17125000D02*
X24048400Y-17165000D01*
X24048400Y-17125000D02*
X24008400Y-17165000D01*
X24046500Y-10181250D02*
X24086500Y-10221250D01*
X24086500Y-10181250D02*
X24046500Y-10221250D01*
X24046500Y-13543600D02*
X24086500Y-13583600D01*
X24086500Y-13543600D02*
X24046500Y-13583600D01*
X24046500Y-13886500D02*
X24086500Y-13926500D01*
X24086500Y-13886500D02*
X24046500Y-13926500D01*
X24097300Y-12079350D02*
X24137300Y-12119350D01*
X24137300Y-12079350D02*
X24097300Y-12119350D01*
X24110000Y-9946350D02*
X24150000Y-9986350D01*
X24150000Y-9946350D02*
X24110000Y-9986350D01*
X24173500Y-13975400D02*
X24213500Y-14015400D01*
X24213500Y-13975400D02*
X24173500Y-14015400D01*
X24186200Y-9797100D02*
X24226200Y-9837100D01*
X24226200Y-9797100D02*
X24186200Y-9837100D01*
X24188530Y-10186850D02*
X24228530Y-10226850D01*
X24228530Y-10186850D02*
X24188530Y-10226850D01*
X24198900Y-12083100D02*
X24238900Y-12123100D01*
X24238900Y-12083100D02*
X24198900Y-12123100D01*
X24389400Y-16210600D02*
X24429400Y-16250600D01*
X24429400Y-16210600D02*
X24389400Y-16250600D01*
X24588872Y-16332466D02*
X24628872Y-16372466D01*
X24628872Y-16332466D02*
X24588872Y-16372466D01*
X24630700Y-17023400D02*
X24670700Y-17063400D01*
X24670700Y-17023400D02*
X24630700Y-17063400D01*
X24643400Y-16248700D02*
X24683400Y-16288700D01*
X24683400Y-16248700D02*
X24643400Y-16288700D01*
X24706900Y-13048300D02*
X24746900Y-13088300D01*
X24746900Y-13048300D02*
X24706900Y-13088300D01*
X24728350Y-16185200D02*
X24768350Y-16225200D01*
X24768350Y-16185200D02*
X24728350Y-16225200D01*
X24732300Y-11105200D02*
X24772300Y-11145200D01*
X24772300Y-11105200D02*
X24732300Y-11145200D01*
X24732300Y-15766100D02*
X24772300Y-15806100D01*
X24772300Y-15766100D02*
X24732300Y-15806100D01*
X24757700Y-14953300D02*
X24797700Y-14993300D01*
X24797700Y-14953300D02*
X24757700Y-14993300D01*
X24783100Y-16032800D02*
X24823100Y-16072800D01*
X24823100Y-16032800D02*
X24783100Y-16072800D01*
X24821200Y-17340900D02*
X24861200Y-17380900D01*
X24861200Y-17340900D02*
X24821200Y-17380900D01*
X24836869Y-15805472D02*
X24876869Y-15845472D01*
X24876869Y-15805472D02*
X24836869Y-15845472D01*
X24922800Y-16540800D02*
X24962800Y-16580800D01*
X24962800Y-16540800D02*
X24922800Y-16580800D01*
X24922800Y-17302800D02*
X24962800Y-17342800D01*
X24962800Y-17302800D02*
X24922800Y-17342800D01*
X24960900Y-16109000D02*
X25000900Y-16149000D01*
X25000900Y-16109000D02*
X24960900Y-16149000D01*
X24973600Y-10305100D02*
X25013600Y-10345100D01*
X25013600Y-10305100D02*
X24973600Y-10345100D01*
X24973600Y-12222800D02*
X25013600Y-12262800D01*
X25013600Y-12222800D02*
X24973600Y-12262800D01*
X24973600Y-14140500D02*
X25013600Y-14180500D01*
X25013600Y-14140500D02*
X24973600Y-14180500D01*
X24999000Y-9720900D02*
X25039000Y-9760900D01*
X25039000Y-9720900D02*
X24999000Y-9760900D01*
X24999000Y-16007400D02*
X25039000Y-16047400D01*
X25039000Y-16007400D02*
X24999000Y-16047400D01*
X25007470Y-9598130D02*
X25047470Y-9638130D01*
X25047470Y-9598130D02*
X25007470Y-9638130D01*
X25011700Y-10191500D02*
X25051700Y-10231500D01*
X25051700Y-10191500D02*
X25011700Y-10231500D01*
X25024400Y-15689900D02*
X25064400Y-15729900D01*
X25064400Y-15689900D02*
X25024400Y-15729900D01*
X25033950Y-15816900D02*
X25073950Y-15856900D01*
X25073950Y-15816900D02*
X25033950Y-15856900D01*
X25202200Y-13289600D02*
X25242200Y-13329600D01*
X25242200Y-13289600D02*
X25202200Y-13329600D01*
X25214900Y-12400600D02*
X25254900Y-12440600D01*
X25254900Y-12400600D02*
X25214900Y-12440600D01*
X25227600Y-16591600D02*
X25267600Y-16631600D01*
X25267600Y-16591600D02*
X25227600Y-16631600D01*
X25227600Y-17747300D02*
X25267600Y-17787300D01*
X25267600Y-17747300D02*
X25227600Y-17787300D01*
X25240300Y-14356400D02*
X25280300Y-14396400D01*
X25280300Y-14356400D02*
X25240300Y-14396400D01*
X25253000Y-14750100D02*
X25293000Y-14790100D01*
X25293000Y-14750100D02*
X25253000Y-14790100D01*
X25278400Y-10533700D02*
X25318400Y-10573700D01*
X25318400Y-10533700D02*
X25278400Y-10573700D01*
X25278400Y-11308400D02*
X25318400Y-11348400D01*
X25318400Y-11308400D02*
X25278400Y-11348400D01*
X25359046Y-17548546D02*
X25399046Y-17588546D01*
X25399046Y-17548546D02*
X25359046Y-17588546D01*
X25380000Y-11562400D02*
X25420000Y-11602400D01*
X25420000Y-11562400D02*
X25380000Y-11602400D01*
X25380000Y-11968800D02*
X25420000Y-12008800D01*
X25420000Y-11968800D02*
X25380000Y-12008800D01*
X25418100Y-14267500D02*
X25458100Y-14307500D01*
X25458100Y-14267500D02*
X25418100Y-14307500D01*
X25456200Y-11664000D02*
X25496200Y-11704000D01*
X25496200Y-11664000D02*
X25456200Y-11704000D01*
X25462550Y-17512350D02*
X25502550Y-17552350D01*
X25502550Y-17512350D02*
X25462550Y-17552350D01*
X25468900Y-10495600D02*
X25508900Y-10535600D01*
X25508900Y-10495600D02*
X25468900Y-10535600D01*
X25481600Y-12248200D02*
X25521600Y-12288200D01*
X25521600Y-12248200D02*
X25481600Y-12288200D01*
X25481600Y-16604300D02*
X25521600Y-16644300D01*
X25521600Y-16604300D02*
X25481600Y-16644300D01*
X25507000Y-13264200D02*
X25547000Y-13304200D01*
X25547000Y-13264200D02*
X25507000Y-13304200D01*
X25519700Y-11743950D02*
X25559700Y-11783950D01*
X25559700Y-11743950D02*
X25519700Y-11783950D01*
X25519700Y-12146600D02*
X25559700Y-12186600D01*
X25559700Y-12146600D02*
X25519700Y-12186600D01*
X25532400Y-13861100D02*
X25572400Y-13901100D01*
X25572400Y-13861100D02*
X25532400Y-13901100D01*
X25547640Y-13604560D02*
X25587640Y-13644560D01*
X25587640Y-13604560D02*
X25547640Y-13644560D01*
X25570500Y-17874300D02*
X25610500Y-17914300D01*
X25610500Y-17874300D02*
X25570500Y-17914300D01*
X25595900Y-15689900D02*
X25635900Y-15729900D01*
X25635900Y-15689900D02*
X25595900Y-15729900D01*
X25621300Y-16350300D02*
X25661300Y-16390300D01*
X25661300Y-16350300D02*
X25621300Y-16390300D01*
X25634000Y-11743950D02*
X25674000Y-11783950D01*
X25674000Y-11743950D02*
X25634000Y-11783950D01*
X25646700Y-15816900D02*
X25686700Y-15856900D01*
X25686700Y-15816900D02*
X25646700Y-15856900D01*
X25659400Y-10800400D02*
X25699400Y-10840400D01*
X25699400Y-10800400D02*
X25659400Y-10840400D01*
X25659400Y-10981950D02*
X25699400Y-11021950D01*
X25699400Y-10981950D02*
X25659400Y-11021950D01*
X25694960Y-12588560D02*
X25734960Y-12628560D01*
X25734960Y-12588560D02*
X25694960Y-12628560D01*
X25735600Y-12273600D02*
X25775600Y-12313600D01*
X25775600Y-12273600D02*
X25735600Y-12313600D01*
X25735600Y-16782100D02*
X25775600Y-16822100D01*
X25775600Y-16782100D02*
X25735600Y-16822100D01*
X25761000Y-16007400D02*
X25801000Y-16047400D01*
X25801000Y-16007400D02*
X25761000Y-16047400D01*
X25773700Y-11820150D02*
X25813700Y-11860150D01*
X25813700Y-11820150D02*
X25773700Y-11860150D01*
X26065800Y-10394000D02*
X26105800Y-10434000D01*
X26105800Y-10394000D02*
X26065800Y-10434000D01*
X26065800Y-10749600D02*
X26105800Y-10789600D01*
X26105800Y-10749600D02*
X26065800Y-10789600D01*
X26065800Y-12308030D02*
X26105800Y-12348030D01*
X26105800Y-12308030D02*
X26065800Y-12348030D01*
X26116600Y-11346500D02*
X26156600Y-11386500D01*
X26156600Y-11346500D02*
X26116600Y-11386500D01*
X26192800Y-11613200D02*
X26232800Y-11653200D01*
X26232800Y-11613200D02*
X26192800Y-11653200D01*
X26192800Y-12565700D02*
X26232800Y-12605700D01*
X26232800Y-12565700D02*
X26192800Y-12605700D01*
X26240150Y-12074350D02*
X26280150Y-12114350D01*
X26280150Y-12074350D02*
X26240150Y-12114350D01*
X26240150Y-12248200D02*
X26280150Y-12288200D01*
X26280150Y-12248200D02*
X26240150Y-12288200D01*
X26248680Y-13645200D02*
X26288680Y-13685200D01*
X26288680Y-13645200D02*
X26248680Y-13685200D01*
X26345200Y-10457500D02*
X26385200Y-10497500D01*
X26385200Y-10457500D02*
X26345200Y-10497500D01*
X26345200Y-11905300D02*
X26385200Y-11945300D01*
X26385200Y-11905300D02*
X26345200Y-11945300D01*
X26370600Y-11295700D02*
X26410600Y-11335700D01*
X26410600Y-11295700D02*
X26370600Y-11335700D01*
X26370600Y-11638600D02*
X26410600Y-11678600D01*
X26410600Y-11638600D02*
X26370600Y-11678600D01*
X26421400Y-17302800D02*
X26461400Y-17342800D01*
X26461400Y-17302800D02*
X26421400Y-17342800D01*
X26535700Y-12730800D02*
X26575700Y-12770800D01*
X26575700Y-12730800D02*
X26535700Y-12770800D01*
X26548400Y-10546400D02*
X26588400Y-10586400D01*
X26588400Y-10546400D02*
X26548400Y-10586400D01*
X26548400Y-11143300D02*
X26588400Y-11183300D01*
X26588400Y-11143300D02*
X26548400Y-11183300D01*
X26573370Y-11638170D02*
X26613370Y-11678170D01*
X26613370Y-11638170D02*
X26573370Y-11678170D01*
X26650000Y-12427750D02*
X26690000Y-12467750D01*
X26690000Y-12427750D02*
X26650000Y-12467750D01*
X26650000Y-12781600D02*
X26690000Y-12821600D01*
X26690000Y-12781600D02*
X26650000Y-12821600D01*
X26700800Y-15245400D02*
X26740800Y-15285400D01*
X26740800Y-15245400D02*
X26700800Y-15285400D01*
X26776700Y-13643400D02*
X26816700Y-13683400D01*
X26816700Y-13643400D02*
X26776700Y-13683400D01*
X26802400Y-12232350D02*
X26842400Y-12272350D01*
X26842400Y-12232350D02*
X26802400Y-12272350D01*
X26815100Y-11295700D02*
X26855100Y-11335700D01*
X26855100Y-11295700D02*
X26815100Y-11335700D01*
X26815100Y-11628750D02*
X26855100Y-11668750D01*
X26855100Y-11628750D02*
X26815100Y-11668750D01*
X26853200Y-12743500D02*
X26893200Y-12783500D01*
X26893200Y-12743500D02*
X26853200Y-12783500D01*
X26853200Y-16820200D02*
X26893200Y-16860200D01*
X26893200Y-16820200D02*
X26853200Y-16860200D01*
X26967500Y-12692700D02*
X27007500Y-12732700D01*
X27007500Y-12692700D02*
X26967500Y-12732700D01*
X26995440Y-10460040D02*
X27035440Y-10500040D01*
X27035440Y-10460040D02*
X26995440Y-10500040D01*
X26999250Y-14667550D02*
X27039250Y-14707550D01*
X27039250Y-14667550D02*
X26999250Y-14707550D01*
X27056400Y-12743500D02*
X27096400Y-12783500D01*
X27096400Y-12743500D02*
X27056400Y-12783500D01*
X27069100Y-11283000D02*
X27109100Y-11323000D01*
X27109100Y-11283000D02*
X27069100Y-11323000D01*
X27113120Y-14565520D02*
X27153120Y-14605520D01*
X27153120Y-14565520D02*
X27113120Y-14605520D01*
X27183400Y-14466950D02*
X27223400Y-14506950D01*
X27223400Y-14466950D02*
X27183400Y-14506950D01*
X27208800Y-12934000D02*
X27248800Y-12974000D01*
X27248800Y-12934000D02*
X27208800Y-12974000D01*
X27320560Y-10617520D02*
X27360560Y-10657520D01*
X27360560Y-10617520D02*
X27320560Y-10657520D01*
X27340880Y-10871520D02*
X27380880Y-10911520D01*
X27380880Y-10871520D02*
X27340880Y-10911520D01*
D13*
X26290860Y-9787860D02*
G75*
G03*
X26290860Y-9787860I-30000J0D01*
G01*
D11*
X26290860Y-9827860D02*
X26290860Y-9747860D01*
X26290860Y-9747860D02*
G75*
G03*
X26230860Y-9747860I-30000J0D01*
G01*
X26230860Y-9747860D02*
X26230860Y-9827860D01*
X26230860Y-9827860D02*
G75*
G03*
X26290860Y-9827860I30000J0D01*
G01*
D13*
X26290860Y-10207860D02*
G75*
G03*
X26290860Y-10207860I-30000J0D01*
G01*
D11*
X26290860Y-10262860D02*
X26290860Y-10152860D01*
X26290860Y-10152860D02*
G75*
G03*
X26230860Y-10152860I-30000J0D01*
G01*
X26230860Y-10152860D02*
X26230860Y-10262860D01*
X26230860Y-10262860D02*
G75*
G03*
X26290860Y-10262860I30000J0D01*
G01*
D13*
X27154860Y-9787860D02*
G75*
G03*
X27154860Y-9787860I-30000J0D01*
G01*
D11*
X27154860Y-9827860D02*
X27154860Y-9747860D01*
X27154860Y-9747860D02*
G75*
G03*
X27094860Y-9747860I-30000J0D01*
G01*
X27094860Y-9747860D02*
X27094860Y-9827860D01*
X27094860Y-9827860D02*
G75*
G03*
X27154860Y-9827860I30000J0D01*
G01*
D13*
X27154860Y-10207860D02*
G75*
G03*
X27154860Y-10207860I-30000J0D01*
G01*
D11*
X27154860Y-10262860D02*
X27154860Y-10152860D01*
X27154860Y-10152860D02*
G75*
G03*
X27094860Y-10152860I-30000J0D01*
G01*
X27094860Y-10152860D02*
X27094860Y-10262860D01*
X27094860Y-10262860D02*
G75*
G03*
X27154860Y-10262860I30000J0D01*
G01*
D14*
X25933640Y-9960560D02*
X25933640Y-10041840D01*
X25893000Y-10001200D02*
X25974280Y-10001200D01*
X25933640Y-10214560D02*
X25933640Y-10295840D01*
X25893000Y-10255200D02*
X25974280Y-10255200D01*
X25933640Y-10468560D02*
X25933640Y-10549840D01*
X25893000Y-10509200D02*
X25974280Y-10509200D01*
X25933640Y-10722560D02*
X25933640Y-10803840D01*
X25893000Y-10763200D02*
X25974280Y-10763200D01*
X25933640Y-10976560D02*
X25933640Y-11057840D01*
X25893000Y-11017200D02*
X25974280Y-11017200D01*
X25933640Y-11230560D02*
X25933640Y-11311840D01*
X25893000Y-11271200D02*
X25974280Y-11271200D01*
X25933640Y-11484560D02*
X25933640Y-11565840D01*
X25893000Y-11525200D02*
X25974280Y-11525200D01*
X25933640Y-11738560D02*
X25933640Y-11819840D01*
X25893000Y-11779200D02*
X25974280Y-11779200D01*
X25933640Y-11992560D02*
X25933640Y-12073840D01*
X25893000Y-12033200D02*
X25974280Y-12033200D01*
X25933640Y-12246560D02*
X25933640Y-12327840D01*
X25893000Y-12287200D02*
X25974280Y-12287200D01*
X25933640Y-12500560D02*
X25933640Y-12581840D01*
X25893000Y-12541200D02*
X25974280Y-12541200D01*
X25933640Y-12754560D02*
X25933640Y-12835840D01*
X25893000Y-12795200D02*
X25974280Y-12795200D01*
X26172160Y-13192760D02*
X26172160Y-13274040D01*
X26131520Y-13233400D02*
X26212800Y-13233400D01*
X26426160Y-13192760D02*
X26426160Y-13274040D01*
X26385520Y-13233400D02*
X26466800Y-13233400D01*
X26680160Y-13192760D02*
X26680160Y-13274040D01*
X26639520Y-13233400D02*
X26720800Y-13233400D01*
X26934160Y-13192760D02*
X26934160Y-13274040D01*
X26893520Y-13233400D02*
X26974800Y-13233400D01*
X27188160Y-13192760D02*
X27188160Y-13274040D01*
X27147520Y-13233400D02*
X27228800Y-13233400D01*
X27455640Y-9960560D02*
X27455640Y-10041840D01*
X27415000Y-10001200D02*
X27496280Y-10001200D01*
X27455640Y-10214560D02*
X27455640Y-10295840D01*
X27415000Y-10255200D02*
X27496280Y-10255200D01*
X27455640Y-10468560D02*
X27455640Y-10549840D01*
X27415000Y-10509200D02*
X27496280Y-10509200D01*
X27455640Y-10722560D02*
X27455640Y-10803840D01*
X27415000Y-10763200D02*
X27496280Y-10763200D01*
X27455640Y-10976560D02*
X27455640Y-11057840D01*
X27415000Y-11017200D02*
X27496280Y-11017200D01*
X27455640Y-11230560D02*
X27455640Y-11311840D01*
X27415000Y-11271200D02*
X27496280Y-11271200D01*
X27455640Y-11484560D02*
X27455640Y-11565840D01*
X27415000Y-11525200D02*
X27496280Y-11525200D01*
X27455640Y-11738560D02*
X27455640Y-11819840D01*
X27415000Y-11779200D02*
X27496280Y-11779200D01*
X27455640Y-11992560D02*
X27455640Y-12073840D01*
X27415000Y-12033200D02*
X27496280Y-12033200D01*
X27455640Y-12246560D02*
X27455640Y-12327840D01*
X27415000Y-12287200D02*
X27496280Y-12287200D01*
X27455640Y-12500560D02*
X27455640Y-12581840D01*
X27415000Y-12541200D02*
X27496280Y-12541200D01*
X27455640Y-12754560D02*
X27455640Y-12835840D01*
X27415000Y-12795200D02*
X27496280Y-12795200D01*
D15*
X25904556Y-14288756D02*
X25904556Y-14218044D01*
X25833844Y-14218044D01*
X25833844Y-14288756D01*
X25904556Y-14288756D01*
X25904556Y-14538756D02*
X25904556Y-14468044D01*
X25833844Y-14468044D01*
X25833844Y-14538756D01*
X25904556Y-14538756D01*
X25904556Y-14788756D02*
X25904556Y-14718044D01*
X25833844Y-14718044D01*
X25833844Y-14788756D01*
X25904556Y-14788756D01*
X27354556Y-14288756D02*
X27354556Y-14218044D01*
X27283844Y-14218044D01*
X27283844Y-14288756D01*
X27354556Y-14288756D01*
X27354556Y-14788756D02*
X27354556Y-14718044D01*
X27283844Y-14718044D01*
X27283844Y-14788756D01*
X27354556Y-14788756D01*
D16*
X26517000Y-16235243D02*
X26582000Y-16170243D01*
X26517000Y-16105243D01*
X26452000Y-16170243D01*
X26517000Y-16235243D01*
X27127800Y-16457556D02*
X27192800Y-16392556D01*
X27127800Y-16327556D01*
X27062800Y-16392556D01*
X27127800Y-16457556D01*
D10*
X26544200Y-13868400D02*
X26694200Y-14018400D01*
X26694200Y-13868400D02*
X26544200Y-14018400D01*
X26694200Y-13943400D02*
G75*
G03*
X26694200Y-13943400I-75000J0D01*
G01*
D11*
X26554200Y-14018400D02*
X26684200Y-14018400D01*
X26684200Y-14018400D02*
G75*
G03*
X26684200Y-13868400I0J75000D01*
G01*
X26684200Y-13868400D02*
X26554200Y-13868400D01*
X26554200Y-13868400D02*
G75*
G03*
X26554200Y-14018400I0J-75000D01*
G01*
D10*
X26544200Y-14988400D02*
X26694200Y-15138400D01*
X26694200Y-14988400D02*
X26544200Y-15138400D01*
X26694200Y-15063400D02*
G75*
G03*
X26694200Y-15063400I-75000J0D01*
G01*
D11*
X26554200Y-15138400D02*
X26684200Y-15138400D01*
X26684200Y-15138400D02*
G75*
G03*
X26684200Y-14988400I0J75000D01*
G01*
X26684200Y-14988400D02*
X26554200Y-14988400D01*
X26554200Y-14988400D02*
G75*
G03*
X26554200Y-15138400I0J-75000D01*
G01*
D17*
X15570940Y-10066760D02*
X15980940Y-10476760D01*
X15980940Y-10066760D02*
X15570940Y-10476760D01*
X15775940Y-10066760D02*
X15775940Y-10476760D01*
X15570940Y-10271760D02*
X15980940Y-10271760D01*
X15657300Y-15720800D02*
X16067300Y-16130800D01*
X16067300Y-15720800D02*
X15657300Y-16130800D01*
X15862300Y-15720800D02*
X15862300Y-16130800D01*
X15657300Y-15925800D02*
X16067300Y-15925800D01*
X25283900Y-9713700D02*
X25693900Y-10123700D01*
X25693900Y-9713700D02*
X25283900Y-10123700D01*
X25488900Y-9713700D02*
X25488900Y-10123700D01*
X25283900Y-9918700D02*
X25693900Y-9918700D01*
X25471860Y-18136340D02*
X25881860Y-18546340D01*
X25881860Y-18136340D02*
X25471860Y-18546340D01*
X25676860Y-18136340D02*
X25676860Y-18546340D01*
X25471860Y-18341340D02*
X25881860Y-18341340D01*
X26274500Y-15403300D02*
X26684500Y-15813300D01*
X26684500Y-15403300D02*
X26274500Y-15813300D01*
X26479500Y-15403300D02*
X26479500Y-15813300D01*
X26274500Y-15608300D02*
X26684500Y-15608300D01*
D11*
X14263277Y-19366520D02*
X14263277Y-19166520D01*
X14263277Y-19166520D02*
X14310896Y-19166520D01*
X14310896Y-19166520D02*
X14339467Y-19176043D01*
X14339467Y-19176043D02*
X14358515Y-19195091D01*
X14358515Y-19195091D02*
X14368039Y-19214139D01*
X14368039Y-19214139D02*
X14377562Y-19252234D01*
X14377562Y-19252234D02*
X14377562Y-19280805D01*
X14377562Y-19280805D02*
X14368039Y-19318900D01*
X14368039Y-19318900D02*
X14358515Y-19337948D01*
X14358515Y-19337948D02*
X14339467Y-19356996D01*
X14339467Y-19356996D02*
X14310896Y-19366520D01*
X14310896Y-19366520D02*
X14263277Y-19366520D01*
X14463277Y-19366520D02*
X14463277Y-19233186D01*
X14463277Y-19271281D02*
X14472801Y-19252234D01*
X14472801Y-19252234D02*
X14482324Y-19242710D01*
X14482324Y-19242710D02*
X14501372Y-19233186D01*
X14501372Y-19233186D02*
X14520420Y-19233186D01*
X14587086Y-19366520D02*
X14587086Y-19233186D01*
X14587086Y-19166520D02*
X14577562Y-19176043D01*
X14577562Y-19176043D02*
X14587086Y-19185567D01*
X14587086Y-19185567D02*
X14596610Y-19176043D01*
X14596610Y-19176043D02*
X14587086Y-19166520D01*
X14587086Y-19166520D02*
X14587086Y-19185567D01*
X14710896Y-19366520D02*
X14691848Y-19356996D01*
X14691848Y-19356996D02*
X14682324Y-19337948D01*
X14682324Y-19337948D02*
X14682324Y-19166520D01*
X14815658Y-19366520D02*
X14796610Y-19356996D01*
X14796610Y-19356996D02*
X14787086Y-19337948D01*
X14787086Y-19337948D02*
X14787086Y-19166520D01*
X15044229Y-19366520D02*
X15044229Y-19166520D01*
X15044229Y-19166520D02*
X15110896Y-19309377D01*
X15110896Y-19309377D02*
X15177562Y-19166520D01*
X15177562Y-19166520D02*
X15177562Y-19366520D01*
X15358515Y-19366520D02*
X15358515Y-19261758D01*
X15358515Y-19261758D02*
X15348991Y-19242710D01*
X15348991Y-19242710D02*
X15329943Y-19233186D01*
X15329943Y-19233186D02*
X15291848Y-19233186D01*
X15291848Y-19233186D02*
X15272801Y-19242710D01*
X15358515Y-19356996D02*
X15339467Y-19366520D01*
X15339467Y-19366520D02*
X15291848Y-19366520D01*
X15291848Y-19366520D02*
X15272801Y-19356996D01*
X15272801Y-19356996D02*
X15263277Y-19337948D01*
X15263277Y-19337948D02*
X15263277Y-19318900D01*
X15263277Y-19318900D02*
X15272801Y-19299853D01*
X15272801Y-19299853D02*
X15291848Y-19290329D01*
X15291848Y-19290329D02*
X15339467Y-19290329D01*
X15339467Y-19290329D02*
X15358515Y-19280805D01*
X15453753Y-19233186D02*
X15453753Y-19433186D01*
X15453753Y-19242710D02*
X15472801Y-19233186D01*
X15472801Y-19233186D02*
X15510896Y-19233186D01*
X15510896Y-19233186D02*
X15529943Y-19242710D01*
X15529943Y-19242710D02*
X15539467Y-19252234D01*
X15539467Y-19252234D02*
X15548991Y-19271281D01*
X15548991Y-19271281D02*
X15548991Y-19328424D01*
X15548991Y-19328424D02*
X15539467Y-19347472D01*
X15539467Y-19347472D02*
X15529943Y-19356996D01*
X15529943Y-19356996D02*
X15510896Y-19366520D01*
X15510896Y-19366520D02*
X15472801Y-19366520D01*
X15472801Y-19366520D02*
X15453753Y-19356996D01*
X15634705Y-19347472D02*
X15644229Y-19356996D01*
X15644229Y-19356996D02*
X15634705Y-19366520D01*
X15634705Y-19366520D02*
X15625182Y-19356996D01*
X15625182Y-19356996D02*
X15634705Y-19347472D01*
X15634705Y-19347472D02*
X15634705Y-19366520D01*
X15634705Y-19242710D02*
X15644229Y-19252234D01*
X15644229Y-19252234D02*
X15634705Y-19261758D01*
X15634705Y-19261758D02*
X15625182Y-19252234D01*
X15625182Y-19252234D02*
X15634705Y-19242710D01*
X15634705Y-19242710D02*
X15634705Y-19261758D01*
D12*
X13962500Y-19675036D02*
X14002500Y-19715036D01*
X14002500Y-19675036D02*
X13962500Y-19715036D01*
D11*
X14301372Y-19586520D02*
X14320420Y-19586520D01*
X14320420Y-19586520D02*
X14339467Y-19596043D01*
X14339467Y-19596043D02*
X14348991Y-19605567D01*
X14348991Y-19605567D02*
X14358515Y-19624615D01*
X14358515Y-19624615D02*
X14368039Y-19662710D01*
X14368039Y-19662710D02*
X14368039Y-19710329D01*
X14368039Y-19710329D02*
X14358515Y-19748424D01*
X14358515Y-19748424D02*
X14348991Y-19767472D01*
X14348991Y-19767472D02*
X14339467Y-19776996D01*
X14339467Y-19776996D02*
X14320420Y-19786520D01*
X14320420Y-19786520D02*
X14301372Y-19786520D01*
X14301372Y-19786520D02*
X14282324Y-19776996D01*
X14282324Y-19776996D02*
X14272801Y-19767472D01*
X14272801Y-19767472D02*
X14263277Y-19748424D01*
X14263277Y-19748424D02*
X14253753Y-19710329D01*
X14253753Y-19710329D02*
X14253753Y-19662710D01*
X14253753Y-19662710D02*
X14263277Y-19624615D01*
X14263277Y-19624615D02*
X14272801Y-19605567D01*
X14272801Y-19605567D02*
X14282324Y-19596043D01*
X14282324Y-19596043D02*
X14301372Y-19586520D01*
X14453753Y-19767472D02*
X14463277Y-19776996D01*
X14463277Y-19776996D02*
X14453753Y-19786520D01*
X14453753Y-19786520D02*
X14444229Y-19776996D01*
X14444229Y-19776996D02*
X14453753Y-19767472D01*
X14453753Y-19767472D02*
X14453753Y-19786520D01*
X14634705Y-19653186D02*
X14634705Y-19786520D01*
X14587086Y-19576996D02*
X14539467Y-19719853D01*
X14539467Y-19719853D02*
X14663277Y-19719853D01*
X14777562Y-19586520D02*
X14796610Y-19586520D01*
X14796610Y-19586520D02*
X14815658Y-19596043D01*
X14815658Y-19596043D02*
X14825182Y-19605567D01*
X14825182Y-19605567D02*
X14834705Y-19624615D01*
X14834705Y-19624615D02*
X14844229Y-19662710D01*
X14844229Y-19662710D02*
X14844229Y-19710329D01*
X14844229Y-19710329D02*
X14834705Y-19748424D01*
X14834705Y-19748424D02*
X14825182Y-19767472D01*
X14825182Y-19767472D02*
X14815658Y-19776996D01*
X14815658Y-19776996D02*
X14796610Y-19786520D01*
X14796610Y-19786520D02*
X14777562Y-19786520D01*
X14777562Y-19786520D02*
X14758515Y-19776996D01*
X14758515Y-19776996D02*
X14748991Y-19767472D01*
X14748991Y-19767472D02*
X14739467Y-19748424D01*
X14739467Y-19748424D02*
X14729943Y-19710329D01*
X14729943Y-19710329D02*
X14729943Y-19662710D01*
X14729943Y-19662710D02*
X14739467Y-19624615D01*
X14739467Y-19624615D02*
X14748991Y-19605567D01*
X14748991Y-19605567D02*
X14758515Y-19596043D01*
X14758515Y-19596043D02*
X14777562Y-19586520D01*
X14968039Y-19586520D02*
X14987086Y-19586520D01*
X14987086Y-19586520D02*
X15006134Y-19596043D01*
X15006134Y-19596043D02*
X15015658Y-19605567D01*
X15015658Y-19605567D02*
X15025182Y-19624615D01*
X15025182Y-19624615D02*
X15034705Y-19662710D01*
X15034705Y-19662710D02*
X15034705Y-19710329D01*
X15034705Y-19710329D02*
X15025182Y-19748424D01*
X15025182Y-19748424D02*
X15015658Y-19767472D01*
X15015658Y-19767472D02*
X15006134Y-19776996D01*
X15006134Y-19776996D02*
X14987086Y-19786520D01*
X14987086Y-19786520D02*
X14968039Y-19786520D01*
X14968039Y-19786520D02*
X14948991Y-19776996D01*
X14948991Y-19776996D02*
X14939467Y-19767472D01*
X14939467Y-19767472D02*
X14929943Y-19748424D01*
X14929943Y-19748424D02*
X14920420Y-19710329D01*
X14920420Y-19710329D02*
X14920420Y-19662710D01*
X14920420Y-19662710D02*
X14929943Y-19624615D01*
X14929943Y-19624615D02*
X14939467Y-19605567D01*
X14939467Y-19605567D02*
X14948991Y-19596043D01*
X14948991Y-19596043D02*
X14968039Y-19586520D01*
X15120420Y-19786520D02*
X15120420Y-19653186D01*
X15120420Y-19672234D02*
X15129943Y-19662710D01*
X15129943Y-19662710D02*
X15148991Y-19653186D01*
X15148991Y-19653186D02*
X15177563Y-19653186D01*
X15177563Y-19653186D02*
X15196610Y-19662710D01*
X15196610Y-19662710D02*
X15206134Y-19681758D01*
X15206134Y-19681758D02*
X15206134Y-19786520D01*
X15206134Y-19681758D02*
X15215658Y-19662710D01*
X15215658Y-19662710D02*
X15234705Y-19653186D01*
X15234705Y-19653186D02*
X15263277Y-19653186D01*
X15263277Y-19653186D02*
X15282324Y-19662710D01*
X15282324Y-19662710D02*
X15291848Y-19681758D01*
X15291848Y-19681758D02*
X15291848Y-19786520D01*
X15387086Y-19786520D02*
X15387086Y-19653186D01*
X15387086Y-19672234D02*
X15396610Y-19662710D01*
X15396610Y-19662710D02*
X15415658Y-19653186D01*
X15415658Y-19653186D02*
X15444229Y-19653186D01*
X15444229Y-19653186D02*
X15463277Y-19662710D01*
X15463277Y-19662710D02*
X15472801Y-19681758D01*
X15472801Y-19681758D02*
X15472801Y-19786520D01*
X15472801Y-19681758D02*
X15482324Y-19662710D01*
X15482324Y-19662710D02*
X15501372Y-19653186D01*
X15501372Y-19653186D02*
X15529943Y-19653186D01*
X15529943Y-19653186D02*
X15548991Y-19662710D01*
X15548991Y-19662710D02*
X15558515Y-19681758D01*
X15558515Y-19681758D02*
X15558515Y-19786520D01*
X15948991Y-19576996D02*
X15777563Y-19834139D01*
X16206134Y-19586520D02*
X16225182Y-19586520D01*
X16225182Y-19586520D02*
X16244229Y-19596043D01*
X16244229Y-19596043D02*
X16253753Y-19605567D01*
X16253753Y-19605567D02*
X16263277Y-19624615D01*
X16263277Y-19624615D02*
X16272801Y-19662710D01*
X16272801Y-19662710D02*
X16272801Y-19710329D01*
X16272801Y-19710329D02*
X16263277Y-19748424D01*
X16263277Y-19748424D02*
X16253753Y-19767472D01*
X16253753Y-19767472D02*
X16244229Y-19776996D01*
X16244229Y-19776996D02*
X16225182Y-19786520D01*
X16225182Y-19786520D02*
X16206134Y-19786520D01*
X16206134Y-19786520D02*
X16187086Y-19776996D01*
X16187086Y-19776996D02*
X16177563Y-19767472D01*
X16177563Y-19767472D02*
X16168039Y-19748424D01*
X16168039Y-19748424D02*
X16158515Y-19710329D01*
X16158515Y-19710329D02*
X16158515Y-19662710D01*
X16158515Y-19662710D02*
X16168039Y-19624615D01*
X16168039Y-19624615D02*
X16177563Y-19605567D01*
X16177563Y-19605567D02*
X16187086Y-19596043D01*
X16187086Y-19596043D02*
X16206134Y-19586520D01*
X16358515Y-19767472D02*
X16368039Y-19776996D01*
X16368039Y-19776996D02*
X16358515Y-19786520D01*
X16358515Y-19786520D02*
X16348991Y-19776996D01*
X16348991Y-19776996D02*
X16358515Y-19767472D01*
X16358515Y-19767472D02*
X16358515Y-19786520D01*
X16491848Y-19586520D02*
X16510896Y-19586520D01*
X16510896Y-19586520D02*
X16529944Y-19596043D01*
X16529944Y-19596043D02*
X16539467Y-19605567D01*
X16539467Y-19605567D02*
X16548991Y-19624615D01*
X16548991Y-19624615D02*
X16558515Y-19662710D01*
X16558515Y-19662710D02*
X16558515Y-19710329D01*
X16558515Y-19710329D02*
X16548991Y-19748424D01*
X16548991Y-19748424D02*
X16539467Y-19767472D01*
X16539467Y-19767472D02*
X16529944Y-19776996D01*
X16529944Y-19776996D02*
X16510896Y-19786520D01*
X16510896Y-19786520D02*
X16491848Y-19786520D01*
X16491848Y-19786520D02*
X16472801Y-19776996D01*
X16472801Y-19776996D02*
X16463277Y-19767472D01*
X16463277Y-19767472D02*
X16453753Y-19748424D01*
X16453753Y-19748424D02*
X16444229Y-19710329D01*
X16444229Y-19710329D02*
X16444229Y-19662710D01*
X16444229Y-19662710D02*
X16453753Y-19624615D01*
X16453753Y-19624615D02*
X16463277Y-19605567D01*
X16463277Y-19605567D02*
X16472801Y-19596043D01*
X16472801Y-19596043D02*
X16491848Y-19586520D01*
X16748991Y-19786520D02*
X16634706Y-19786520D01*
X16691848Y-19786520D02*
X16691848Y-19586520D01*
X16691848Y-19586520D02*
X16672801Y-19615091D01*
X16672801Y-19615091D02*
X16653753Y-19634139D01*
X16653753Y-19634139D02*
X16634706Y-19643662D01*
X16929944Y-19586520D02*
X16834706Y-19586520D01*
X16834706Y-19586520D02*
X16825182Y-19681758D01*
X16825182Y-19681758D02*
X16834706Y-19672234D01*
X16834706Y-19672234D02*
X16853753Y-19662710D01*
X16853753Y-19662710D02*
X16901372Y-19662710D01*
X16901372Y-19662710D02*
X16920420Y-19672234D01*
X16920420Y-19672234D02*
X16929944Y-19681758D01*
X16929944Y-19681758D02*
X16939468Y-19700805D01*
X16939468Y-19700805D02*
X16939468Y-19748424D01*
X16939468Y-19748424D02*
X16929944Y-19767472D01*
X16929944Y-19767472D02*
X16920420Y-19776996D01*
X16920420Y-19776996D02*
X16901372Y-19786520D01*
X16901372Y-19786520D02*
X16853753Y-19786520D01*
X16853753Y-19786520D02*
X16834706Y-19776996D01*
X16834706Y-19776996D02*
X16825182Y-19767472D01*
X17006134Y-19586520D02*
X17139468Y-19586520D01*
X17139468Y-19586520D02*
X17053753Y-19786520D01*
X17206134Y-19586520D02*
X17206134Y-19624615D01*
X17282325Y-19586520D02*
X17282325Y-19624615D01*
X17577563Y-19862710D02*
X17568039Y-19853186D01*
X17568039Y-19853186D02*
X17548991Y-19824615D01*
X17548991Y-19824615D02*
X17539468Y-19805567D01*
X17539468Y-19805567D02*
X17529944Y-19776996D01*
X17529944Y-19776996D02*
X17520420Y-19729377D01*
X17520420Y-19729377D02*
X17520420Y-19691281D01*
X17520420Y-19691281D02*
X17529944Y-19643662D01*
X17529944Y-19643662D02*
X17539468Y-19615091D01*
X17539468Y-19615091D02*
X17548991Y-19596043D01*
X17548991Y-19596043D02*
X17568039Y-19567472D01*
X17568039Y-19567472D02*
X17577563Y-19557948D01*
X17739468Y-19653186D02*
X17739468Y-19786520D01*
X17691849Y-19576996D02*
X17644230Y-19719853D01*
X17644230Y-19719853D02*
X17768039Y-19719853D01*
X17882325Y-19586520D02*
X17901372Y-19586520D01*
X17901372Y-19586520D02*
X17920420Y-19596043D01*
X17920420Y-19596043D02*
X17929944Y-19605567D01*
X17929944Y-19605567D02*
X17939468Y-19624615D01*
X17939468Y-19624615D02*
X17948991Y-19662710D01*
X17948991Y-19662710D02*
X17948991Y-19710329D01*
X17948991Y-19710329D02*
X17939468Y-19748424D01*
X17939468Y-19748424D02*
X17929944Y-19767472D01*
X17929944Y-19767472D02*
X17920420Y-19776996D01*
X17920420Y-19776996D02*
X17901372Y-19786520D01*
X17901372Y-19786520D02*
X17882325Y-19786520D01*
X17882325Y-19786520D02*
X17863277Y-19776996D01*
X17863277Y-19776996D02*
X17853753Y-19767472D01*
X17853753Y-19767472D02*
X17844230Y-19748424D01*
X17844230Y-19748424D02*
X17834706Y-19710329D01*
X17834706Y-19710329D02*
X17834706Y-19662710D01*
X17834706Y-19662710D02*
X17844230Y-19624615D01*
X17844230Y-19624615D02*
X17853753Y-19605567D01*
X17853753Y-19605567D02*
X17863277Y-19596043D01*
X17863277Y-19596043D02*
X17882325Y-19586520D01*
X18044230Y-19786520D02*
X18082325Y-19786520D01*
X18082325Y-19786520D02*
X18101372Y-19776996D01*
X18101372Y-19776996D02*
X18110896Y-19767472D01*
X18110896Y-19767472D02*
X18129944Y-19738900D01*
X18129944Y-19738900D02*
X18139468Y-19700805D01*
X18139468Y-19700805D02*
X18139468Y-19624615D01*
X18139468Y-19624615D02*
X18129944Y-19605567D01*
X18129944Y-19605567D02*
X18120420Y-19596043D01*
X18120420Y-19596043D02*
X18101372Y-19586520D01*
X18101372Y-19586520D02*
X18063277Y-19586520D01*
X18063277Y-19586520D02*
X18044230Y-19596043D01*
X18044230Y-19596043D02*
X18034706Y-19605567D01*
X18034706Y-19605567D02*
X18025182Y-19624615D01*
X18025182Y-19624615D02*
X18025182Y-19672234D01*
X18025182Y-19672234D02*
X18034706Y-19691281D01*
X18034706Y-19691281D02*
X18044230Y-19700805D01*
X18044230Y-19700805D02*
X18063277Y-19710329D01*
X18063277Y-19710329D02*
X18101372Y-19710329D01*
X18101372Y-19710329D02*
X18120420Y-19700805D01*
X18120420Y-19700805D02*
X18129944Y-19691281D01*
X18129944Y-19691281D02*
X18139468Y-19672234D01*
X18377563Y-19786520D02*
X18377563Y-19586520D01*
X18463277Y-19786520D02*
X18463277Y-19681758D01*
X18463277Y-19681758D02*
X18453753Y-19662710D01*
X18453753Y-19662710D02*
X18434706Y-19653186D01*
X18434706Y-19653186D02*
X18406134Y-19653186D01*
X18406134Y-19653186D02*
X18387087Y-19662710D01*
X18387087Y-19662710D02*
X18377563Y-19672234D01*
X18587087Y-19786520D02*
X18568039Y-19776996D01*
X18568039Y-19776996D02*
X18558515Y-19767472D01*
X18558515Y-19767472D02*
X18548992Y-19748424D01*
X18548992Y-19748424D02*
X18548992Y-19691281D01*
X18548992Y-19691281D02*
X18558515Y-19672234D01*
X18558515Y-19672234D02*
X18568039Y-19662710D01*
X18568039Y-19662710D02*
X18587087Y-19653186D01*
X18587087Y-19653186D02*
X18615658Y-19653186D01*
X18615658Y-19653186D02*
X18634706Y-19662710D01*
X18634706Y-19662710D02*
X18644230Y-19672234D01*
X18644230Y-19672234D02*
X18653753Y-19691281D01*
X18653753Y-19691281D02*
X18653753Y-19748424D01*
X18653753Y-19748424D02*
X18644230Y-19767472D01*
X18644230Y-19767472D02*
X18634706Y-19776996D01*
X18634706Y-19776996D02*
X18615658Y-19786520D01*
X18615658Y-19786520D02*
X18587087Y-19786520D01*
X18768039Y-19786520D02*
X18748992Y-19776996D01*
X18748992Y-19776996D02*
X18739468Y-19757948D01*
X18739468Y-19757948D02*
X18739468Y-19586520D01*
X18920420Y-19776996D02*
X18901373Y-19786520D01*
X18901373Y-19786520D02*
X18863277Y-19786520D01*
X18863277Y-19786520D02*
X18844230Y-19776996D01*
X18844230Y-19776996D02*
X18834706Y-19757948D01*
X18834706Y-19757948D02*
X18834706Y-19681758D01*
X18834706Y-19681758D02*
X18844230Y-19662710D01*
X18844230Y-19662710D02*
X18863277Y-19653186D01*
X18863277Y-19653186D02*
X18901373Y-19653186D01*
X18901373Y-19653186D02*
X18920420Y-19662710D01*
X18920420Y-19662710D02*
X18929944Y-19681758D01*
X18929944Y-19681758D02*
X18929944Y-19700805D01*
X18929944Y-19700805D02*
X18834706Y-19719853D01*
X19006134Y-19776996D02*
X19025182Y-19786520D01*
X19025182Y-19786520D02*
X19063277Y-19786520D01*
X19063277Y-19786520D02*
X19082325Y-19776996D01*
X19082325Y-19776996D02*
X19091849Y-19757948D01*
X19091849Y-19757948D02*
X19091849Y-19748424D01*
X19091849Y-19748424D02*
X19082325Y-19729377D01*
X19082325Y-19729377D02*
X19063277Y-19719853D01*
X19063277Y-19719853D02*
X19034706Y-19719853D01*
X19034706Y-19719853D02*
X19015658Y-19710329D01*
X19015658Y-19710329D02*
X19006134Y-19691281D01*
X19006134Y-19691281D02*
X19006134Y-19681758D01*
X19006134Y-19681758D02*
X19015658Y-19662710D01*
X19015658Y-19662710D02*
X19034706Y-19653186D01*
X19034706Y-19653186D02*
X19063277Y-19653186D01*
X19063277Y-19653186D02*
X19082325Y-19662710D01*
X19158515Y-19862710D02*
X19168039Y-19853186D01*
X19168039Y-19853186D02*
X19187087Y-19824615D01*
X19187087Y-19824615D02*
X19196611Y-19805567D01*
X19196611Y-19805567D02*
X19206134Y-19776996D01*
X19206134Y-19776996D02*
X19215658Y-19729377D01*
X19215658Y-19729377D02*
X19215658Y-19691281D01*
X19215658Y-19691281D02*
X19206134Y-19643662D01*
X19206134Y-19643662D02*
X19196611Y-19615091D01*
X19196611Y-19615091D02*
X19187087Y-19596043D01*
X19187087Y-19596043D02*
X19168039Y-19567472D01*
X19168039Y-19567472D02*
X19158515Y-19557948D01*
D13*
X14002500Y-19959036D02*
G75*
G03*
X14002500Y-19959036I-30000J0D01*
G01*
D11*
X14301372Y-19850520D02*
X14320420Y-19850520D01*
X14320420Y-19850520D02*
X14339467Y-19860043D01*
X14339467Y-19860043D02*
X14348991Y-19869567D01*
X14348991Y-19869567D02*
X14358515Y-19888615D01*
X14358515Y-19888615D02*
X14368039Y-19926710D01*
X14368039Y-19926710D02*
X14368039Y-19974329D01*
X14368039Y-19974329D02*
X14358515Y-20012424D01*
X14358515Y-20012424D02*
X14348991Y-20031472D01*
X14348991Y-20031472D02*
X14339467Y-20040996D01*
X14339467Y-20040996D02*
X14320420Y-20050520D01*
X14320420Y-20050520D02*
X14301372Y-20050520D01*
X14301372Y-20050520D02*
X14282324Y-20040996D01*
X14282324Y-20040996D02*
X14272801Y-20031472D01*
X14272801Y-20031472D02*
X14263277Y-20012424D01*
X14263277Y-20012424D02*
X14253753Y-19974329D01*
X14253753Y-19974329D02*
X14253753Y-19926710D01*
X14253753Y-19926710D02*
X14263277Y-19888615D01*
X14263277Y-19888615D02*
X14272801Y-19869567D01*
X14272801Y-19869567D02*
X14282324Y-19860043D01*
X14282324Y-19860043D02*
X14301372Y-19850520D01*
X14453753Y-20031472D02*
X14463277Y-20040996D01*
X14463277Y-20040996D02*
X14453753Y-20050520D01*
X14453753Y-20050520D02*
X14444229Y-20040996D01*
X14444229Y-20040996D02*
X14453753Y-20031472D01*
X14453753Y-20031472D02*
X14453753Y-20050520D01*
X14634705Y-19850520D02*
X14596610Y-19850520D01*
X14596610Y-19850520D02*
X14577562Y-19860043D01*
X14577562Y-19860043D02*
X14568039Y-19869567D01*
X14568039Y-19869567D02*
X14548991Y-19898139D01*
X14548991Y-19898139D02*
X14539467Y-19936234D01*
X14539467Y-19936234D02*
X14539467Y-20012424D01*
X14539467Y-20012424D02*
X14548991Y-20031472D01*
X14548991Y-20031472D02*
X14558515Y-20040996D01*
X14558515Y-20040996D02*
X14577562Y-20050520D01*
X14577562Y-20050520D02*
X14615658Y-20050520D01*
X14615658Y-20050520D02*
X14634705Y-20040996D01*
X14634705Y-20040996D02*
X14644229Y-20031472D01*
X14644229Y-20031472D02*
X14653753Y-20012424D01*
X14653753Y-20012424D02*
X14653753Y-19964805D01*
X14653753Y-19964805D02*
X14644229Y-19945758D01*
X14644229Y-19945758D02*
X14634705Y-19936234D01*
X14634705Y-19936234D02*
X14615658Y-19926710D01*
X14615658Y-19926710D02*
X14577562Y-19926710D01*
X14577562Y-19926710D02*
X14558515Y-19936234D01*
X14558515Y-19936234D02*
X14548991Y-19945758D01*
X14548991Y-19945758D02*
X14539467Y-19964805D01*
X14777562Y-19850520D02*
X14796610Y-19850520D01*
X14796610Y-19850520D02*
X14815658Y-19860043D01*
X14815658Y-19860043D02*
X14825182Y-19869567D01*
X14825182Y-19869567D02*
X14834705Y-19888615D01*
X14834705Y-19888615D02*
X14844229Y-19926710D01*
X14844229Y-19926710D02*
X14844229Y-19974329D01*
X14844229Y-19974329D02*
X14834705Y-20012424D01*
X14834705Y-20012424D02*
X14825182Y-20031472D01*
X14825182Y-20031472D02*
X14815658Y-20040996D01*
X14815658Y-20040996D02*
X14796610Y-20050520D01*
X14796610Y-20050520D02*
X14777562Y-20050520D01*
X14777562Y-20050520D02*
X14758515Y-20040996D01*
X14758515Y-20040996D02*
X14748991Y-20031472D01*
X14748991Y-20031472D02*
X14739467Y-20012424D01*
X14739467Y-20012424D02*
X14729943Y-19974329D01*
X14729943Y-19974329D02*
X14729943Y-19926710D01*
X14729943Y-19926710D02*
X14739467Y-19888615D01*
X14739467Y-19888615D02*
X14748991Y-19869567D01*
X14748991Y-19869567D02*
X14758515Y-19860043D01*
X14758515Y-19860043D02*
X14777562Y-19850520D01*
X14968039Y-19850520D02*
X14987086Y-19850520D01*
X14987086Y-19850520D02*
X15006134Y-19860043D01*
X15006134Y-19860043D02*
X15015658Y-19869567D01*
X15015658Y-19869567D02*
X15025182Y-19888615D01*
X15025182Y-19888615D02*
X15034705Y-19926710D01*
X15034705Y-19926710D02*
X15034705Y-19974329D01*
X15034705Y-19974329D02*
X15025182Y-20012424D01*
X15025182Y-20012424D02*
X15015658Y-20031472D01*
X15015658Y-20031472D02*
X15006134Y-20040996D01*
X15006134Y-20040996D02*
X14987086Y-20050520D01*
X14987086Y-20050520D02*
X14968039Y-20050520D01*
X14968039Y-20050520D02*
X14948991Y-20040996D01*
X14948991Y-20040996D02*
X14939467Y-20031472D01*
X14939467Y-20031472D02*
X14929943Y-20012424D01*
X14929943Y-20012424D02*
X14920420Y-19974329D01*
X14920420Y-19974329D02*
X14920420Y-19926710D01*
X14920420Y-19926710D02*
X14929943Y-19888615D01*
X14929943Y-19888615D02*
X14939467Y-19869567D01*
X14939467Y-19869567D02*
X14948991Y-19860043D01*
X14948991Y-19860043D02*
X14968039Y-19850520D01*
X15120420Y-20050520D02*
X15120420Y-19917186D01*
X15120420Y-19936234D02*
X15129943Y-19926710D01*
X15129943Y-19926710D02*
X15148991Y-19917186D01*
X15148991Y-19917186D02*
X15177563Y-19917186D01*
X15177563Y-19917186D02*
X15196610Y-19926710D01*
X15196610Y-19926710D02*
X15206134Y-19945758D01*
X15206134Y-19945758D02*
X15206134Y-20050520D01*
X15206134Y-19945758D02*
X15215658Y-19926710D01*
X15215658Y-19926710D02*
X15234705Y-19917186D01*
X15234705Y-19917186D02*
X15263277Y-19917186D01*
X15263277Y-19917186D02*
X15282324Y-19926710D01*
X15282324Y-19926710D02*
X15291848Y-19945758D01*
X15291848Y-19945758D02*
X15291848Y-20050520D01*
X15387086Y-20050520D02*
X15387086Y-19917186D01*
X15387086Y-19936234D02*
X15396610Y-19926710D01*
X15396610Y-19926710D02*
X15415658Y-19917186D01*
X15415658Y-19917186D02*
X15444229Y-19917186D01*
X15444229Y-19917186D02*
X15463277Y-19926710D01*
X15463277Y-19926710D02*
X15472801Y-19945758D01*
X15472801Y-19945758D02*
X15472801Y-20050520D01*
X15472801Y-19945758D02*
X15482324Y-19926710D01*
X15482324Y-19926710D02*
X15501372Y-19917186D01*
X15501372Y-19917186D02*
X15529943Y-19917186D01*
X15529943Y-19917186D02*
X15548991Y-19926710D01*
X15548991Y-19926710D02*
X15558515Y-19945758D01*
X15558515Y-19945758D02*
X15558515Y-20050520D01*
X15948991Y-19840996D02*
X15777563Y-20098139D01*
X16206134Y-19850520D02*
X16225182Y-19850520D01*
X16225182Y-19850520D02*
X16244229Y-19860043D01*
X16244229Y-19860043D02*
X16253753Y-19869567D01*
X16253753Y-19869567D02*
X16263277Y-19888615D01*
X16263277Y-19888615D02*
X16272801Y-19926710D01*
X16272801Y-19926710D02*
X16272801Y-19974329D01*
X16272801Y-19974329D02*
X16263277Y-20012424D01*
X16263277Y-20012424D02*
X16253753Y-20031472D01*
X16253753Y-20031472D02*
X16244229Y-20040996D01*
X16244229Y-20040996D02*
X16225182Y-20050520D01*
X16225182Y-20050520D02*
X16206134Y-20050520D01*
X16206134Y-20050520D02*
X16187086Y-20040996D01*
X16187086Y-20040996D02*
X16177563Y-20031472D01*
X16177563Y-20031472D02*
X16168039Y-20012424D01*
X16168039Y-20012424D02*
X16158515Y-19974329D01*
X16158515Y-19974329D02*
X16158515Y-19926710D01*
X16158515Y-19926710D02*
X16168039Y-19888615D01*
X16168039Y-19888615D02*
X16177563Y-19869567D01*
X16177563Y-19869567D02*
X16187086Y-19860043D01*
X16187086Y-19860043D02*
X16206134Y-19850520D01*
X16358515Y-20031472D02*
X16368039Y-20040996D01*
X16368039Y-20040996D02*
X16358515Y-20050520D01*
X16358515Y-20050520D02*
X16348991Y-20040996D01*
X16348991Y-20040996D02*
X16358515Y-20031472D01*
X16358515Y-20031472D02*
X16358515Y-20050520D01*
X16491848Y-19850520D02*
X16510896Y-19850520D01*
X16510896Y-19850520D02*
X16529944Y-19860043D01*
X16529944Y-19860043D02*
X16539467Y-19869567D01*
X16539467Y-19869567D02*
X16548991Y-19888615D01*
X16548991Y-19888615D02*
X16558515Y-19926710D01*
X16558515Y-19926710D02*
X16558515Y-19974329D01*
X16558515Y-19974329D02*
X16548991Y-20012424D01*
X16548991Y-20012424D02*
X16539467Y-20031472D01*
X16539467Y-20031472D02*
X16529944Y-20040996D01*
X16529944Y-20040996D02*
X16510896Y-20050520D01*
X16510896Y-20050520D02*
X16491848Y-20050520D01*
X16491848Y-20050520D02*
X16472801Y-20040996D01*
X16472801Y-20040996D02*
X16463277Y-20031472D01*
X16463277Y-20031472D02*
X16453753Y-20012424D01*
X16453753Y-20012424D02*
X16444229Y-19974329D01*
X16444229Y-19974329D02*
X16444229Y-19926710D01*
X16444229Y-19926710D02*
X16453753Y-19888615D01*
X16453753Y-19888615D02*
X16463277Y-19869567D01*
X16463277Y-19869567D02*
X16472801Y-19860043D01*
X16472801Y-19860043D02*
X16491848Y-19850520D01*
X16634706Y-19869567D02*
X16644229Y-19860043D01*
X16644229Y-19860043D02*
X16663277Y-19850520D01*
X16663277Y-19850520D02*
X16710896Y-19850520D01*
X16710896Y-19850520D02*
X16729944Y-19860043D01*
X16729944Y-19860043D02*
X16739467Y-19869567D01*
X16739467Y-19869567D02*
X16748991Y-19888615D01*
X16748991Y-19888615D02*
X16748991Y-19907662D01*
X16748991Y-19907662D02*
X16739467Y-19936234D01*
X16739467Y-19936234D02*
X16625182Y-20050520D01*
X16625182Y-20050520D02*
X16748991Y-20050520D01*
X16815658Y-19850520D02*
X16939468Y-19850520D01*
X16939468Y-19850520D02*
X16872801Y-19926710D01*
X16872801Y-19926710D02*
X16901372Y-19926710D01*
X16901372Y-19926710D02*
X16920420Y-19936234D01*
X16920420Y-19936234D02*
X16929944Y-19945758D01*
X16929944Y-19945758D02*
X16939468Y-19964805D01*
X16939468Y-19964805D02*
X16939468Y-20012424D01*
X16939468Y-20012424D02*
X16929944Y-20031472D01*
X16929944Y-20031472D02*
X16920420Y-20040996D01*
X16920420Y-20040996D02*
X16901372Y-20050520D01*
X16901372Y-20050520D02*
X16844229Y-20050520D01*
X16844229Y-20050520D02*
X16825182Y-20040996D01*
X16825182Y-20040996D02*
X16815658Y-20031472D01*
X17110896Y-19850520D02*
X17072801Y-19850520D01*
X17072801Y-19850520D02*
X17053753Y-19860043D01*
X17053753Y-19860043D02*
X17044229Y-19869567D01*
X17044229Y-19869567D02*
X17025182Y-19898139D01*
X17025182Y-19898139D02*
X17015658Y-19936234D01*
X17015658Y-19936234D02*
X17015658Y-20012424D01*
X17015658Y-20012424D02*
X17025182Y-20031472D01*
X17025182Y-20031472D02*
X17034706Y-20040996D01*
X17034706Y-20040996D02*
X17053753Y-20050520D01*
X17053753Y-20050520D02*
X17091849Y-20050520D01*
X17091849Y-20050520D02*
X17110896Y-20040996D01*
X17110896Y-20040996D02*
X17120420Y-20031472D01*
X17120420Y-20031472D02*
X17129944Y-20012424D01*
X17129944Y-20012424D02*
X17129944Y-19964805D01*
X17129944Y-19964805D02*
X17120420Y-19945758D01*
X17120420Y-19945758D02*
X17110896Y-19936234D01*
X17110896Y-19936234D02*
X17091849Y-19926710D01*
X17091849Y-19926710D02*
X17053753Y-19926710D01*
X17053753Y-19926710D02*
X17034706Y-19936234D01*
X17034706Y-19936234D02*
X17025182Y-19945758D01*
X17025182Y-19945758D02*
X17015658Y-19964805D01*
X17206134Y-19850520D02*
X17206134Y-19888615D01*
X17282325Y-19850520D02*
X17282325Y-19888615D01*
X17577563Y-20126710D02*
X17568039Y-20117186D01*
X17568039Y-20117186D02*
X17548991Y-20088615D01*
X17548991Y-20088615D02*
X17539468Y-20069567D01*
X17539468Y-20069567D02*
X17529944Y-20040996D01*
X17529944Y-20040996D02*
X17520420Y-19993377D01*
X17520420Y-19993377D02*
X17520420Y-19955281D01*
X17520420Y-19955281D02*
X17529944Y-19907662D01*
X17529944Y-19907662D02*
X17539468Y-19879091D01*
X17539468Y-19879091D02*
X17548991Y-19860043D01*
X17548991Y-19860043D02*
X17568039Y-19831472D01*
X17568039Y-19831472D02*
X17577563Y-19821948D01*
X17691849Y-19850520D02*
X17710896Y-19850520D01*
X17710896Y-19850520D02*
X17729944Y-19860043D01*
X17729944Y-19860043D02*
X17739468Y-19869567D01*
X17739468Y-19869567D02*
X17748991Y-19888615D01*
X17748991Y-19888615D02*
X17758515Y-19926710D01*
X17758515Y-19926710D02*
X17758515Y-19974329D01*
X17758515Y-19974329D02*
X17748991Y-20012424D01*
X17748991Y-20012424D02*
X17739468Y-20031472D01*
X17739468Y-20031472D02*
X17729944Y-20040996D01*
X17729944Y-20040996D02*
X17710896Y-20050520D01*
X17710896Y-20050520D02*
X17691849Y-20050520D01*
X17691849Y-20050520D02*
X17672801Y-20040996D01*
X17672801Y-20040996D02*
X17663277Y-20031472D01*
X17663277Y-20031472D02*
X17653753Y-20012424D01*
X17653753Y-20012424D02*
X17644230Y-19974329D01*
X17644230Y-19974329D02*
X17644230Y-19926710D01*
X17644230Y-19926710D02*
X17653753Y-19888615D01*
X17653753Y-19888615D02*
X17663277Y-19869567D01*
X17663277Y-19869567D02*
X17672801Y-19860043D01*
X17672801Y-19860043D02*
X17691849Y-19850520D01*
X17996611Y-20050520D02*
X17996611Y-19850520D01*
X18082325Y-20050520D02*
X18082325Y-19945758D01*
X18082325Y-19945758D02*
X18072801Y-19926710D01*
X18072801Y-19926710D02*
X18053753Y-19917186D01*
X18053753Y-19917186D02*
X18025182Y-19917186D01*
X18025182Y-19917186D02*
X18006134Y-19926710D01*
X18006134Y-19926710D02*
X17996611Y-19936234D01*
X18206134Y-20050520D02*
X18187087Y-20040996D01*
X18187087Y-20040996D02*
X18177563Y-20031472D01*
X18177563Y-20031472D02*
X18168039Y-20012424D01*
X18168039Y-20012424D02*
X18168039Y-19955281D01*
X18168039Y-19955281D02*
X18177563Y-19936234D01*
X18177563Y-19936234D02*
X18187087Y-19926710D01*
X18187087Y-19926710D02*
X18206134Y-19917186D01*
X18206134Y-19917186D02*
X18234706Y-19917186D01*
X18234706Y-19917186D02*
X18253753Y-19926710D01*
X18253753Y-19926710D02*
X18263277Y-19936234D01*
X18263277Y-19936234D02*
X18272801Y-19955281D01*
X18272801Y-19955281D02*
X18272801Y-20012424D01*
X18272801Y-20012424D02*
X18263277Y-20031472D01*
X18263277Y-20031472D02*
X18253753Y-20040996D01*
X18253753Y-20040996D02*
X18234706Y-20050520D01*
X18234706Y-20050520D02*
X18206134Y-20050520D01*
X18387087Y-20050520D02*
X18368039Y-20040996D01*
X18368039Y-20040996D02*
X18358515Y-20021948D01*
X18358515Y-20021948D02*
X18358515Y-19850520D01*
X18539468Y-20040996D02*
X18520420Y-20050520D01*
X18520420Y-20050520D02*
X18482325Y-20050520D01*
X18482325Y-20050520D02*
X18463277Y-20040996D01*
X18463277Y-20040996D02*
X18453753Y-20021948D01*
X18453753Y-20021948D02*
X18453753Y-19945758D01*
X18453753Y-19945758D02*
X18463277Y-19926710D01*
X18463277Y-19926710D02*
X18482325Y-19917186D01*
X18482325Y-19917186D02*
X18520420Y-19917186D01*
X18520420Y-19917186D02*
X18539468Y-19926710D01*
X18539468Y-19926710D02*
X18548992Y-19945758D01*
X18548992Y-19945758D02*
X18548992Y-19964805D01*
X18548992Y-19964805D02*
X18453753Y-19983853D01*
X18625182Y-20040996D02*
X18644230Y-20050520D01*
X18644230Y-20050520D02*
X18682325Y-20050520D01*
X18682325Y-20050520D02*
X18701373Y-20040996D01*
X18701373Y-20040996D02*
X18710896Y-20021948D01*
X18710896Y-20021948D02*
X18710896Y-20012424D01*
X18710896Y-20012424D02*
X18701373Y-19993377D01*
X18701373Y-19993377D02*
X18682325Y-19983853D01*
X18682325Y-19983853D02*
X18653753Y-19983853D01*
X18653753Y-19983853D02*
X18634706Y-19974329D01*
X18634706Y-19974329D02*
X18625182Y-19955281D01*
X18625182Y-19955281D02*
X18625182Y-19945758D01*
X18625182Y-19945758D02*
X18634706Y-19926710D01*
X18634706Y-19926710D02*
X18653753Y-19917186D01*
X18653753Y-19917186D02*
X18682325Y-19917186D01*
X18682325Y-19917186D02*
X18701373Y-19926710D01*
X18948992Y-19974329D02*
X19101373Y-19974329D01*
X19025182Y-20050520D02*
X19025182Y-19898139D01*
X19434706Y-19917186D02*
X19434706Y-20050520D01*
X19387087Y-19840996D02*
X19339468Y-19983853D01*
X19339468Y-19983853D02*
X19463277Y-19983853D01*
X19682325Y-20040996D02*
X19701373Y-20050520D01*
X19701373Y-20050520D02*
X19739468Y-20050520D01*
X19739468Y-20050520D02*
X19758516Y-20040996D01*
X19758516Y-20040996D02*
X19768039Y-20021948D01*
X19768039Y-20021948D02*
X19768039Y-20012424D01*
X19768039Y-20012424D02*
X19758516Y-19993377D01*
X19758516Y-19993377D02*
X19739468Y-19983853D01*
X19739468Y-19983853D02*
X19710896Y-19983853D01*
X19710896Y-19983853D02*
X19691849Y-19974329D01*
X19691849Y-19974329D02*
X19682325Y-19955281D01*
X19682325Y-19955281D02*
X19682325Y-19945758D01*
X19682325Y-19945758D02*
X19691849Y-19926710D01*
X19691849Y-19926710D02*
X19710896Y-19917186D01*
X19710896Y-19917186D02*
X19739468Y-19917186D01*
X19739468Y-19917186D02*
X19758516Y-19926710D01*
X19882325Y-20050520D02*
X19863277Y-20040996D01*
X19863277Y-20040996D02*
X19853754Y-20021948D01*
X19853754Y-20021948D02*
X19853754Y-19850520D01*
X19987087Y-20050520D02*
X19968039Y-20040996D01*
X19968039Y-20040996D02*
X19958516Y-20031472D01*
X19958516Y-20031472D02*
X19948992Y-20012424D01*
X19948992Y-20012424D02*
X19948992Y-19955281D01*
X19948992Y-19955281D02*
X19958516Y-19936234D01*
X19958516Y-19936234D02*
X19968039Y-19926710D01*
X19968039Y-19926710D02*
X19987087Y-19917186D01*
X19987087Y-19917186D02*
X20015658Y-19917186D01*
X20015658Y-19917186D02*
X20034706Y-19926710D01*
X20034706Y-19926710D02*
X20044230Y-19936234D01*
X20044230Y-19936234D02*
X20053754Y-19955281D01*
X20053754Y-19955281D02*
X20053754Y-20012424D01*
X20053754Y-20012424D02*
X20044230Y-20031472D01*
X20044230Y-20031472D02*
X20034706Y-20040996D01*
X20034706Y-20040996D02*
X20015658Y-20050520D01*
X20015658Y-20050520D02*
X19987087Y-20050520D01*
X20110897Y-19917186D02*
X20187087Y-19917186D01*
X20139468Y-19850520D02*
X20139468Y-20021948D01*
X20139468Y-20021948D02*
X20148992Y-20040996D01*
X20148992Y-20040996D02*
X20168039Y-20050520D01*
X20168039Y-20050520D02*
X20187087Y-20050520D01*
X20244230Y-20040996D02*
X20263277Y-20050520D01*
X20263277Y-20050520D02*
X20301373Y-20050520D01*
X20301373Y-20050520D02*
X20320420Y-20040996D01*
X20320420Y-20040996D02*
X20329944Y-20021948D01*
X20329944Y-20021948D02*
X20329944Y-20012424D01*
X20329944Y-20012424D02*
X20320420Y-19993377D01*
X20320420Y-19993377D02*
X20301373Y-19983853D01*
X20301373Y-19983853D02*
X20272801Y-19983853D01*
X20272801Y-19983853D02*
X20253754Y-19974329D01*
X20253754Y-19974329D02*
X20244230Y-19955281D01*
X20244230Y-19955281D02*
X20244230Y-19945758D01*
X20244230Y-19945758D02*
X20253754Y-19926710D01*
X20253754Y-19926710D02*
X20272801Y-19917186D01*
X20272801Y-19917186D02*
X20301373Y-19917186D01*
X20301373Y-19917186D02*
X20320420Y-19926710D01*
X20396611Y-20126710D02*
X20406135Y-20117186D01*
X20406135Y-20117186D02*
X20425182Y-20088615D01*
X20425182Y-20088615D02*
X20434706Y-20069567D01*
X20434706Y-20069567D02*
X20444230Y-20040996D01*
X20444230Y-20040996D02*
X20453754Y-19993377D01*
X20453754Y-19993377D02*
X20453754Y-19955281D01*
X20453754Y-19955281D02*
X20444230Y-19907662D01*
X20444230Y-19907662D02*
X20434706Y-19879091D01*
X20434706Y-19879091D02*
X20425182Y-19860043D01*
X20425182Y-19860043D02*
X20406135Y-19831472D01*
X20406135Y-19831472D02*
X20396611Y-19821948D01*
D14*
X13961860Y-20182396D02*
X13961860Y-20263676D01*
X13921220Y-20223036D02*
X14002500Y-20223036D01*
D11*
X14301372Y-20114520D02*
X14320420Y-20114520D01*
X14320420Y-20114520D02*
X14339467Y-20124043D01*
X14339467Y-20124043D02*
X14348991Y-20133567D01*
X14348991Y-20133567D02*
X14358515Y-20152615D01*
X14358515Y-20152615D02*
X14368039Y-20190710D01*
X14368039Y-20190710D02*
X14368039Y-20238329D01*
X14368039Y-20238329D02*
X14358515Y-20276424D01*
X14358515Y-20276424D02*
X14348991Y-20295472D01*
X14348991Y-20295472D02*
X14339467Y-20304996D01*
X14339467Y-20304996D02*
X14320420Y-20314520D01*
X14320420Y-20314520D02*
X14301372Y-20314520D01*
X14301372Y-20314520D02*
X14282324Y-20304996D01*
X14282324Y-20304996D02*
X14272801Y-20295472D01*
X14272801Y-20295472D02*
X14263277Y-20276424D01*
X14263277Y-20276424D02*
X14253753Y-20238329D01*
X14253753Y-20238329D02*
X14253753Y-20190710D01*
X14253753Y-20190710D02*
X14263277Y-20152615D01*
X14263277Y-20152615D02*
X14272801Y-20133567D01*
X14272801Y-20133567D02*
X14282324Y-20124043D01*
X14282324Y-20124043D02*
X14301372Y-20114520D01*
X14453753Y-20295472D02*
X14463277Y-20304996D01*
X14463277Y-20304996D02*
X14453753Y-20314520D01*
X14453753Y-20314520D02*
X14444229Y-20304996D01*
X14444229Y-20304996D02*
X14453753Y-20295472D01*
X14453753Y-20295472D02*
X14453753Y-20314520D01*
X14577562Y-20200234D02*
X14558515Y-20190710D01*
X14558515Y-20190710D02*
X14548991Y-20181186D01*
X14548991Y-20181186D02*
X14539467Y-20162139D01*
X14539467Y-20162139D02*
X14539467Y-20152615D01*
X14539467Y-20152615D02*
X14548991Y-20133567D01*
X14548991Y-20133567D02*
X14558515Y-20124043D01*
X14558515Y-20124043D02*
X14577562Y-20114520D01*
X14577562Y-20114520D02*
X14615658Y-20114520D01*
X14615658Y-20114520D02*
X14634705Y-20124043D01*
X14634705Y-20124043D02*
X14644229Y-20133567D01*
X14644229Y-20133567D02*
X14653753Y-20152615D01*
X14653753Y-20152615D02*
X14653753Y-20162139D01*
X14653753Y-20162139D02*
X14644229Y-20181186D01*
X14644229Y-20181186D02*
X14634705Y-20190710D01*
X14634705Y-20190710D02*
X14615658Y-20200234D01*
X14615658Y-20200234D02*
X14577562Y-20200234D01*
X14577562Y-20200234D02*
X14558515Y-20209758D01*
X14558515Y-20209758D02*
X14548991Y-20219281D01*
X14548991Y-20219281D02*
X14539467Y-20238329D01*
X14539467Y-20238329D02*
X14539467Y-20276424D01*
X14539467Y-20276424D02*
X14548991Y-20295472D01*
X14548991Y-20295472D02*
X14558515Y-20304996D01*
X14558515Y-20304996D02*
X14577562Y-20314520D01*
X14577562Y-20314520D02*
X14615658Y-20314520D01*
X14615658Y-20314520D02*
X14634705Y-20304996D01*
X14634705Y-20304996D02*
X14644229Y-20295472D01*
X14644229Y-20295472D02*
X14653753Y-20276424D01*
X14653753Y-20276424D02*
X14653753Y-20238329D01*
X14653753Y-20238329D02*
X14644229Y-20219281D01*
X14644229Y-20219281D02*
X14634705Y-20209758D01*
X14634705Y-20209758D02*
X14615658Y-20200234D01*
X14844229Y-20314520D02*
X14729943Y-20314520D01*
X14787086Y-20314520D02*
X14787086Y-20114520D01*
X14787086Y-20114520D02*
X14768039Y-20143091D01*
X14768039Y-20143091D02*
X14748991Y-20162139D01*
X14748991Y-20162139D02*
X14729943Y-20171662D01*
X14910896Y-20114520D02*
X15034705Y-20114520D01*
X15034705Y-20114520D02*
X14968039Y-20190710D01*
X14968039Y-20190710D02*
X14996610Y-20190710D01*
X14996610Y-20190710D02*
X15015658Y-20200234D01*
X15015658Y-20200234D02*
X15025182Y-20209758D01*
X15025182Y-20209758D02*
X15034705Y-20228805D01*
X15034705Y-20228805D02*
X15034705Y-20276424D01*
X15034705Y-20276424D02*
X15025182Y-20295472D01*
X15025182Y-20295472D02*
X15015658Y-20304996D01*
X15015658Y-20304996D02*
X14996610Y-20314520D01*
X14996610Y-20314520D02*
X14939467Y-20314520D01*
X14939467Y-20314520D02*
X14920420Y-20304996D01*
X14920420Y-20304996D02*
X14910896Y-20295472D01*
X15120420Y-20314520D02*
X15120420Y-20181186D01*
X15120420Y-20200234D02*
X15129943Y-20190710D01*
X15129943Y-20190710D02*
X15148991Y-20181186D01*
X15148991Y-20181186D02*
X15177563Y-20181186D01*
X15177563Y-20181186D02*
X15196610Y-20190710D01*
X15196610Y-20190710D02*
X15206134Y-20209758D01*
X15206134Y-20209758D02*
X15206134Y-20314520D01*
X15206134Y-20209758D02*
X15215658Y-20190710D01*
X15215658Y-20190710D02*
X15234705Y-20181186D01*
X15234705Y-20181186D02*
X15263277Y-20181186D01*
X15263277Y-20181186D02*
X15282324Y-20190710D01*
X15282324Y-20190710D02*
X15291848Y-20209758D01*
X15291848Y-20209758D02*
X15291848Y-20314520D01*
X15387086Y-20314520D02*
X15387086Y-20181186D01*
X15387086Y-20200234D02*
X15396610Y-20190710D01*
X15396610Y-20190710D02*
X15415658Y-20181186D01*
X15415658Y-20181186D02*
X15444229Y-20181186D01*
X15444229Y-20181186D02*
X15463277Y-20190710D01*
X15463277Y-20190710D02*
X15472801Y-20209758D01*
X15472801Y-20209758D02*
X15472801Y-20314520D01*
X15472801Y-20209758D02*
X15482324Y-20190710D01*
X15482324Y-20190710D02*
X15501372Y-20181186D01*
X15501372Y-20181186D02*
X15529943Y-20181186D01*
X15529943Y-20181186D02*
X15548991Y-20190710D01*
X15548991Y-20190710D02*
X15558515Y-20209758D01*
X15558515Y-20209758D02*
X15558515Y-20314520D01*
X15948991Y-20104996D02*
X15777563Y-20362139D01*
X16206134Y-20114520D02*
X16225182Y-20114520D01*
X16225182Y-20114520D02*
X16244229Y-20124043D01*
X16244229Y-20124043D02*
X16253753Y-20133567D01*
X16253753Y-20133567D02*
X16263277Y-20152615D01*
X16263277Y-20152615D02*
X16272801Y-20190710D01*
X16272801Y-20190710D02*
X16272801Y-20238329D01*
X16272801Y-20238329D02*
X16263277Y-20276424D01*
X16263277Y-20276424D02*
X16253753Y-20295472D01*
X16253753Y-20295472D02*
X16244229Y-20304996D01*
X16244229Y-20304996D02*
X16225182Y-20314520D01*
X16225182Y-20314520D02*
X16206134Y-20314520D01*
X16206134Y-20314520D02*
X16187086Y-20304996D01*
X16187086Y-20304996D02*
X16177563Y-20295472D01*
X16177563Y-20295472D02*
X16168039Y-20276424D01*
X16168039Y-20276424D02*
X16158515Y-20238329D01*
X16158515Y-20238329D02*
X16158515Y-20190710D01*
X16158515Y-20190710D02*
X16168039Y-20152615D01*
X16168039Y-20152615D02*
X16177563Y-20133567D01*
X16177563Y-20133567D02*
X16187086Y-20124043D01*
X16187086Y-20124043D02*
X16206134Y-20114520D01*
X16358515Y-20295472D02*
X16368039Y-20304996D01*
X16368039Y-20304996D02*
X16358515Y-20314520D01*
X16358515Y-20314520D02*
X16348991Y-20304996D01*
X16348991Y-20304996D02*
X16358515Y-20295472D01*
X16358515Y-20295472D02*
X16358515Y-20314520D01*
X16491848Y-20114520D02*
X16510896Y-20114520D01*
X16510896Y-20114520D02*
X16529944Y-20124043D01*
X16529944Y-20124043D02*
X16539467Y-20133567D01*
X16539467Y-20133567D02*
X16548991Y-20152615D01*
X16548991Y-20152615D02*
X16558515Y-20190710D01*
X16558515Y-20190710D02*
X16558515Y-20238329D01*
X16558515Y-20238329D02*
X16548991Y-20276424D01*
X16548991Y-20276424D02*
X16539467Y-20295472D01*
X16539467Y-20295472D02*
X16529944Y-20304996D01*
X16529944Y-20304996D02*
X16510896Y-20314520D01*
X16510896Y-20314520D02*
X16491848Y-20314520D01*
X16491848Y-20314520D02*
X16472801Y-20304996D01*
X16472801Y-20304996D02*
X16463277Y-20295472D01*
X16463277Y-20295472D02*
X16453753Y-20276424D01*
X16453753Y-20276424D02*
X16444229Y-20238329D01*
X16444229Y-20238329D02*
X16444229Y-20190710D01*
X16444229Y-20190710D02*
X16453753Y-20152615D01*
X16453753Y-20152615D02*
X16463277Y-20133567D01*
X16463277Y-20133567D02*
X16472801Y-20124043D01*
X16472801Y-20124043D02*
X16491848Y-20114520D01*
X16625182Y-20114520D02*
X16748991Y-20114520D01*
X16748991Y-20114520D02*
X16682325Y-20190710D01*
X16682325Y-20190710D02*
X16710896Y-20190710D01*
X16710896Y-20190710D02*
X16729944Y-20200234D01*
X16729944Y-20200234D02*
X16739467Y-20209758D01*
X16739467Y-20209758D02*
X16748991Y-20228805D01*
X16748991Y-20228805D02*
X16748991Y-20276424D01*
X16748991Y-20276424D02*
X16739467Y-20295472D01*
X16739467Y-20295472D02*
X16729944Y-20304996D01*
X16729944Y-20304996D02*
X16710896Y-20314520D01*
X16710896Y-20314520D02*
X16653753Y-20314520D01*
X16653753Y-20314520D02*
X16634706Y-20304996D01*
X16634706Y-20304996D02*
X16625182Y-20295472D01*
X16825182Y-20133567D02*
X16834706Y-20124043D01*
X16834706Y-20124043D02*
X16853753Y-20114520D01*
X16853753Y-20114520D02*
X16901372Y-20114520D01*
X16901372Y-20114520D02*
X16920420Y-20124043D01*
X16920420Y-20124043D02*
X16929944Y-20133567D01*
X16929944Y-20133567D02*
X16939468Y-20152615D01*
X16939468Y-20152615D02*
X16939468Y-20171662D01*
X16939468Y-20171662D02*
X16929944Y-20200234D01*
X16929944Y-20200234D02*
X16815658Y-20314520D01*
X16815658Y-20314520D02*
X16939468Y-20314520D01*
X17063277Y-20114520D02*
X17082325Y-20114520D01*
X17082325Y-20114520D02*
X17101372Y-20124043D01*
X17101372Y-20124043D02*
X17110896Y-20133567D01*
X17110896Y-20133567D02*
X17120420Y-20152615D01*
X17120420Y-20152615D02*
X17129944Y-20190710D01*
X17129944Y-20190710D02*
X17129944Y-20238329D01*
X17129944Y-20238329D02*
X17120420Y-20276424D01*
X17120420Y-20276424D02*
X17110896Y-20295472D01*
X17110896Y-20295472D02*
X17101372Y-20304996D01*
X17101372Y-20304996D02*
X17082325Y-20314520D01*
X17082325Y-20314520D02*
X17063277Y-20314520D01*
X17063277Y-20314520D02*
X17044229Y-20304996D01*
X17044229Y-20304996D02*
X17034706Y-20295472D01*
X17034706Y-20295472D02*
X17025182Y-20276424D01*
X17025182Y-20276424D02*
X17015658Y-20238329D01*
X17015658Y-20238329D02*
X17015658Y-20190710D01*
X17015658Y-20190710D02*
X17025182Y-20152615D01*
X17025182Y-20152615D02*
X17034706Y-20133567D01*
X17034706Y-20133567D02*
X17044229Y-20124043D01*
X17044229Y-20124043D02*
X17063277Y-20114520D01*
X17206134Y-20114520D02*
X17206134Y-20152615D01*
X17282325Y-20114520D02*
X17282325Y-20152615D01*
X17577563Y-20390710D02*
X17568039Y-20381186D01*
X17568039Y-20381186D02*
X17548991Y-20352615D01*
X17548991Y-20352615D02*
X17539468Y-20333567D01*
X17539468Y-20333567D02*
X17529944Y-20304996D01*
X17529944Y-20304996D02*
X17520420Y-20257377D01*
X17520420Y-20257377D02*
X17520420Y-20219281D01*
X17520420Y-20219281D02*
X17529944Y-20171662D01*
X17529944Y-20171662D02*
X17539468Y-20143091D01*
X17539468Y-20143091D02*
X17548991Y-20124043D01*
X17548991Y-20124043D02*
X17568039Y-20095472D01*
X17568039Y-20095472D02*
X17577563Y-20085948D01*
X17644230Y-20133567D02*
X17653753Y-20124043D01*
X17653753Y-20124043D02*
X17672801Y-20114520D01*
X17672801Y-20114520D02*
X17720420Y-20114520D01*
X17720420Y-20114520D02*
X17739468Y-20124043D01*
X17739468Y-20124043D02*
X17748991Y-20133567D01*
X17748991Y-20133567D02*
X17758515Y-20152615D01*
X17758515Y-20152615D02*
X17758515Y-20171662D01*
X17758515Y-20171662D02*
X17748991Y-20200234D01*
X17748991Y-20200234D02*
X17634706Y-20314520D01*
X17634706Y-20314520D02*
X17758515Y-20314520D01*
X17853753Y-20314520D02*
X17891849Y-20314520D01*
X17891849Y-20314520D02*
X17910896Y-20304996D01*
X17910896Y-20304996D02*
X17920420Y-20295472D01*
X17920420Y-20295472D02*
X17939468Y-20266900D01*
X17939468Y-20266900D02*
X17948991Y-20228805D01*
X17948991Y-20228805D02*
X17948991Y-20152615D01*
X17948991Y-20152615D02*
X17939468Y-20133567D01*
X17939468Y-20133567D02*
X17929944Y-20124043D01*
X17929944Y-20124043D02*
X17910896Y-20114520D01*
X17910896Y-20114520D02*
X17872801Y-20114520D01*
X17872801Y-20114520D02*
X17853753Y-20124043D01*
X17853753Y-20124043D02*
X17844230Y-20133567D01*
X17844230Y-20133567D02*
X17834706Y-20152615D01*
X17834706Y-20152615D02*
X17834706Y-20200234D01*
X17834706Y-20200234D02*
X17844230Y-20219281D01*
X17844230Y-20219281D02*
X17853753Y-20228805D01*
X17853753Y-20228805D02*
X17872801Y-20238329D01*
X17872801Y-20238329D02*
X17910896Y-20238329D01*
X17910896Y-20238329D02*
X17929944Y-20228805D01*
X17929944Y-20228805D02*
X17939468Y-20219281D01*
X17939468Y-20219281D02*
X17948991Y-20200234D01*
X18187087Y-20314520D02*
X18187087Y-20114520D01*
X18272801Y-20314520D02*
X18272801Y-20209758D01*
X18272801Y-20209758D02*
X18263277Y-20190710D01*
X18263277Y-20190710D02*
X18244230Y-20181186D01*
X18244230Y-20181186D02*
X18215658Y-20181186D01*
X18215658Y-20181186D02*
X18196611Y-20190710D01*
X18196611Y-20190710D02*
X18187087Y-20200234D01*
X18396611Y-20314520D02*
X18377563Y-20304996D01*
X18377563Y-20304996D02*
X18368039Y-20295472D01*
X18368039Y-20295472D02*
X18358515Y-20276424D01*
X18358515Y-20276424D02*
X18358515Y-20219281D01*
X18358515Y-20219281D02*
X18368039Y-20200234D01*
X18368039Y-20200234D02*
X18377563Y-20190710D01*
X18377563Y-20190710D02*
X18396611Y-20181186D01*
X18396611Y-20181186D02*
X18425182Y-20181186D01*
X18425182Y-20181186D02*
X18444230Y-20190710D01*
X18444230Y-20190710D02*
X18453753Y-20200234D01*
X18453753Y-20200234D02*
X18463277Y-20219281D01*
X18463277Y-20219281D02*
X18463277Y-20276424D01*
X18463277Y-20276424D02*
X18453753Y-20295472D01*
X18453753Y-20295472D02*
X18444230Y-20304996D01*
X18444230Y-20304996D02*
X18425182Y-20314520D01*
X18425182Y-20314520D02*
X18396611Y-20314520D01*
X18577563Y-20314520D02*
X18558515Y-20304996D01*
X18558515Y-20304996D02*
X18548992Y-20285948D01*
X18548992Y-20285948D02*
X18548992Y-20114520D01*
X18729944Y-20304996D02*
X18710896Y-20314520D01*
X18710896Y-20314520D02*
X18672801Y-20314520D01*
X18672801Y-20314520D02*
X18653753Y-20304996D01*
X18653753Y-20304996D02*
X18644230Y-20285948D01*
X18644230Y-20285948D02*
X18644230Y-20209758D01*
X18644230Y-20209758D02*
X18653753Y-20190710D01*
X18653753Y-20190710D02*
X18672801Y-20181186D01*
X18672801Y-20181186D02*
X18710896Y-20181186D01*
X18710896Y-20181186D02*
X18729944Y-20190710D01*
X18729944Y-20190710D02*
X18739468Y-20209758D01*
X18739468Y-20209758D02*
X18739468Y-20228805D01*
X18739468Y-20228805D02*
X18644230Y-20247853D01*
X18815658Y-20304996D02*
X18834706Y-20314520D01*
X18834706Y-20314520D02*
X18872801Y-20314520D01*
X18872801Y-20314520D02*
X18891849Y-20304996D01*
X18891849Y-20304996D02*
X18901373Y-20285948D01*
X18901373Y-20285948D02*
X18901373Y-20276424D01*
X18901373Y-20276424D02*
X18891849Y-20257377D01*
X18891849Y-20257377D02*
X18872801Y-20247853D01*
X18872801Y-20247853D02*
X18844230Y-20247853D01*
X18844230Y-20247853D02*
X18825182Y-20238329D01*
X18825182Y-20238329D02*
X18815658Y-20219281D01*
X18815658Y-20219281D02*
X18815658Y-20209758D01*
X18815658Y-20209758D02*
X18825182Y-20190710D01*
X18825182Y-20190710D02*
X18844230Y-20181186D01*
X18844230Y-20181186D02*
X18872801Y-20181186D01*
X18872801Y-20181186D02*
X18891849Y-20190710D01*
X18968039Y-20390710D02*
X18977563Y-20381186D01*
X18977563Y-20381186D02*
X18996611Y-20352615D01*
X18996611Y-20352615D02*
X19006134Y-20333567D01*
X19006134Y-20333567D02*
X19015658Y-20304996D01*
X19015658Y-20304996D02*
X19025182Y-20257377D01*
X19025182Y-20257377D02*
X19025182Y-20219281D01*
X19025182Y-20219281D02*
X19015658Y-20171662D01*
X19015658Y-20171662D02*
X19006134Y-20143091D01*
X19006134Y-20143091D02*
X18996611Y-20124043D01*
X18996611Y-20124043D02*
X18977563Y-20095472D01*
X18977563Y-20095472D02*
X18968039Y-20085948D01*
D15*
X13987856Y-20522391D02*
X13987856Y-20451680D01*
X13917144Y-20451680D01*
X13917144Y-20522391D01*
X13987856Y-20522391D01*
D11*
X14368039Y-20578520D02*
X14253753Y-20578520D01*
X14310896Y-20578520D02*
X14310896Y-20378520D01*
X14310896Y-20378520D02*
X14291848Y-20407091D01*
X14291848Y-20407091D02*
X14272801Y-20426139D01*
X14272801Y-20426139D02*
X14253753Y-20435662D01*
X14453753Y-20559472D02*
X14463277Y-20568996D01*
X14463277Y-20568996D02*
X14453753Y-20578520D01*
X14453753Y-20578520D02*
X14444229Y-20568996D01*
X14444229Y-20568996D02*
X14453753Y-20559472D01*
X14453753Y-20559472D02*
X14453753Y-20578520D01*
X14587086Y-20378520D02*
X14606134Y-20378520D01*
X14606134Y-20378520D02*
X14625182Y-20388043D01*
X14625182Y-20388043D02*
X14634705Y-20397567D01*
X14634705Y-20397567D02*
X14644229Y-20416615D01*
X14644229Y-20416615D02*
X14653753Y-20454710D01*
X14653753Y-20454710D02*
X14653753Y-20502329D01*
X14653753Y-20502329D02*
X14644229Y-20540424D01*
X14644229Y-20540424D02*
X14634705Y-20559472D01*
X14634705Y-20559472D02*
X14625182Y-20568996D01*
X14625182Y-20568996D02*
X14606134Y-20578520D01*
X14606134Y-20578520D02*
X14587086Y-20578520D01*
X14587086Y-20578520D02*
X14568039Y-20568996D01*
X14568039Y-20568996D02*
X14558515Y-20559472D01*
X14558515Y-20559472D02*
X14548991Y-20540424D01*
X14548991Y-20540424D02*
X14539467Y-20502329D01*
X14539467Y-20502329D02*
X14539467Y-20454710D01*
X14539467Y-20454710D02*
X14548991Y-20416615D01*
X14548991Y-20416615D02*
X14558515Y-20397567D01*
X14558515Y-20397567D02*
X14568039Y-20388043D01*
X14568039Y-20388043D02*
X14587086Y-20378520D01*
X14777562Y-20378520D02*
X14796610Y-20378520D01*
X14796610Y-20378520D02*
X14815658Y-20388043D01*
X14815658Y-20388043D02*
X14825182Y-20397567D01*
X14825182Y-20397567D02*
X14834705Y-20416615D01*
X14834705Y-20416615D02*
X14844229Y-20454710D01*
X14844229Y-20454710D02*
X14844229Y-20502329D01*
X14844229Y-20502329D02*
X14834705Y-20540424D01*
X14834705Y-20540424D02*
X14825182Y-20559472D01*
X14825182Y-20559472D02*
X14815658Y-20568996D01*
X14815658Y-20568996D02*
X14796610Y-20578520D01*
X14796610Y-20578520D02*
X14777562Y-20578520D01*
X14777562Y-20578520D02*
X14758515Y-20568996D01*
X14758515Y-20568996D02*
X14748991Y-20559472D01*
X14748991Y-20559472D02*
X14739467Y-20540424D01*
X14739467Y-20540424D02*
X14729943Y-20502329D01*
X14729943Y-20502329D02*
X14729943Y-20454710D01*
X14729943Y-20454710D02*
X14739467Y-20416615D01*
X14739467Y-20416615D02*
X14748991Y-20397567D01*
X14748991Y-20397567D02*
X14758515Y-20388043D01*
X14758515Y-20388043D02*
X14777562Y-20378520D01*
X14968039Y-20378520D02*
X14987086Y-20378520D01*
X14987086Y-20378520D02*
X15006134Y-20388043D01*
X15006134Y-20388043D02*
X15015658Y-20397567D01*
X15015658Y-20397567D02*
X15025182Y-20416615D01*
X15025182Y-20416615D02*
X15034705Y-20454710D01*
X15034705Y-20454710D02*
X15034705Y-20502329D01*
X15034705Y-20502329D02*
X15025182Y-20540424D01*
X15025182Y-20540424D02*
X15015658Y-20559472D01*
X15015658Y-20559472D02*
X15006134Y-20568996D01*
X15006134Y-20568996D02*
X14987086Y-20578520D01*
X14987086Y-20578520D02*
X14968039Y-20578520D01*
X14968039Y-20578520D02*
X14948991Y-20568996D01*
X14948991Y-20568996D02*
X14939467Y-20559472D01*
X14939467Y-20559472D02*
X14929943Y-20540424D01*
X14929943Y-20540424D02*
X14920420Y-20502329D01*
X14920420Y-20502329D02*
X14920420Y-20454710D01*
X14920420Y-20454710D02*
X14929943Y-20416615D01*
X14929943Y-20416615D02*
X14939467Y-20397567D01*
X14939467Y-20397567D02*
X14948991Y-20388043D01*
X14948991Y-20388043D02*
X14968039Y-20378520D01*
X15120420Y-20578520D02*
X15120420Y-20445186D01*
X15120420Y-20464234D02*
X15129943Y-20454710D01*
X15129943Y-20454710D02*
X15148991Y-20445186D01*
X15148991Y-20445186D02*
X15177563Y-20445186D01*
X15177563Y-20445186D02*
X15196610Y-20454710D01*
X15196610Y-20454710D02*
X15206134Y-20473758D01*
X15206134Y-20473758D02*
X15206134Y-20578520D01*
X15206134Y-20473758D02*
X15215658Y-20454710D01*
X15215658Y-20454710D02*
X15234705Y-20445186D01*
X15234705Y-20445186D02*
X15263277Y-20445186D01*
X15263277Y-20445186D02*
X15282324Y-20454710D01*
X15282324Y-20454710D02*
X15291848Y-20473758D01*
X15291848Y-20473758D02*
X15291848Y-20578520D01*
X15387086Y-20578520D02*
X15387086Y-20445186D01*
X15387086Y-20464234D02*
X15396610Y-20454710D01*
X15396610Y-20454710D02*
X15415658Y-20445186D01*
X15415658Y-20445186D02*
X15444229Y-20445186D01*
X15444229Y-20445186D02*
X15463277Y-20454710D01*
X15463277Y-20454710D02*
X15472801Y-20473758D01*
X15472801Y-20473758D02*
X15472801Y-20578520D01*
X15472801Y-20473758D02*
X15482324Y-20454710D01*
X15482324Y-20454710D02*
X15501372Y-20445186D01*
X15501372Y-20445186D02*
X15529943Y-20445186D01*
X15529943Y-20445186D02*
X15548991Y-20454710D01*
X15548991Y-20454710D02*
X15558515Y-20473758D01*
X15558515Y-20473758D02*
X15558515Y-20578520D01*
X15948991Y-20368996D02*
X15777563Y-20626139D01*
X16206134Y-20378520D02*
X16225182Y-20378520D01*
X16225182Y-20378520D02*
X16244229Y-20388043D01*
X16244229Y-20388043D02*
X16253753Y-20397567D01*
X16253753Y-20397567D02*
X16263277Y-20416615D01*
X16263277Y-20416615D02*
X16272801Y-20454710D01*
X16272801Y-20454710D02*
X16272801Y-20502329D01*
X16272801Y-20502329D02*
X16263277Y-20540424D01*
X16263277Y-20540424D02*
X16253753Y-20559472D01*
X16253753Y-20559472D02*
X16244229Y-20568996D01*
X16244229Y-20568996D02*
X16225182Y-20578520D01*
X16225182Y-20578520D02*
X16206134Y-20578520D01*
X16206134Y-20578520D02*
X16187086Y-20568996D01*
X16187086Y-20568996D02*
X16177563Y-20559472D01*
X16177563Y-20559472D02*
X16168039Y-20540424D01*
X16168039Y-20540424D02*
X16158515Y-20502329D01*
X16158515Y-20502329D02*
X16158515Y-20454710D01*
X16158515Y-20454710D02*
X16168039Y-20416615D01*
X16168039Y-20416615D02*
X16177563Y-20397567D01*
X16177563Y-20397567D02*
X16187086Y-20388043D01*
X16187086Y-20388043D02*
X16206134Y-20378520D01*
X16358515Y-20559472D02*
X16368039Y-20568996D01*
X16368039Y-20568996D02*
X16358515Y-20578520D01*
X16358515Y-20578520D02*
X16348991Y-20568996D01*
X16348991Y-20568996D02*
X16358515Y-20559472D01*
X16358515Y-20559472D02*
X16358515Y-20578520D01*
X16491848Y-20378520D02*
X16510896Y-20378520D01*
X16510896Y-20378520D02*
X16529944Y-20388043D01*
X16529944Y-20388043D02*
X16539467Y-20397567D01*
X16539467Y-20397567D02*
X16548991Y-20416615D01*
X16548991Y-20416615D02*
X16558515Y-20454710D01*
X16558515Y-20454710D02*
X16558515Y-20502329D01*
X16558515Y-20502329D02*
X16548991Y-20540424D01*
X16548991Y-20540424D02*
X16539467Y-20559472D01*
X16539467Y-20559472D02*
X16529944Y-20568996D01*
X16529944Y-20568996D02*
X16510896Y-20578520D01*
X16510896Y-20578520D02*
X16491848Y-20578520D01*
X16491848Y-20578520D02*
X16472801Y-20568996D01*
X16472801Y-20568996D02*
X16463277Y-20559472D01*
X16463277Y-20559472D02*
X16453753Y-20540424D01*
X16453753Y-20540424D02*
X16444229Y-20502329D01*
X16444229Y-20502329D02*
X16444229Y-20454710D01*
X16444229Y-20454710D02*
X16453753Y-20416615D01*
X16453753Y-20416615D02*
X16463277Y-20397567D01*
X16463277Y-20397567D02*
X16472801Y-20388043D01*
X16472801Y-20388043D02*
X16491848Y-20378520D01*
X16625182Y-20378520D02*
X16748991Y-20378520D01*
X16748991Y-20378520D02*
X16682325Y-20454710D01*
X16682325Y-20454710D02*
X16710896Y-20454710D01*
X16710896Y-20454710D02*
X16729944Y-20464234D01*
X16729944Y-20464234D02*
X16739467Y-20473758D01*
X16739467Y-20473758D02*
X16748991Y-20492805D01*
X16748991Y-20492805D02*
X16748991Y-20540424D01*
X16748991Y-20540424D02*
X16739467Y-20559472D01*
X16739467Y-20559472D02*
X16729944Y-20568996D01*
X16729944Y-20568996D02*
X16710896Y-20578520D01*
X16710896Y-20578520D02*
X16653753Y-20578520D01*
X16653753Y-20578520D02*
X16634706Y-20568996D01*
X16634706Y-20568996D02*
X16625182Y-20559472D01*
X16844229Y-20578520D02*
X16882325Y-20578520D01*
X16882325Y-20578520D02*
X16901372Y-20568996D01*
X16901372Y-20568996D02*
X16910896Y-20559472D01*
X16910896Y-20559472D02*
X16929944Y-20530900D01*
X16929944Y-20530900D02*
X16939468Y-20492805D01*
X16939468Y-20492805D02*
X16939468Y-20416615D01*
X16939468Y-20416615D02*
X16929944Y-20397567D01*
X16929944Y-20397567D02*
X16920420Y-20388043D01*
X16920420Y-20388043D02*
X16901372Y-20378520D01*
X16901372Y-20378520D02*
X16863277Y-20378520D01*
X16863277Y-20378520D02*
X16844229Y-20388043D01*
X16844229Y-20388043D02*
X16834706Y-20397567D01*
X16834706Y-20397567D02*
X16825182Y-20416615D01*
X16825182Y-20416615D02*
X16825182Y-20464234D01*
X16825182Y-20464234D02*
X16834706Y-20483281D01*
X16834706Y-20483281D02*
X16844229Y-20492805D01*
X16844229Y-20492805D02*
X16863277Y-20502329D01*
X16863277Y-20502329D02*
X16901372Y-20502329D01*
X16901372Y-20502329D02*
X16920420Y-20492805D01*
X16920420Y-20492805D02*
X16929944Y-20483281D01*
X16929944Y-20483281D02*
X16939468Y-20464234D01*
X17110896Y-20445186D02*
X17110896Y-20578520D01*
X17063277Y-20368996D02*
X17015658Y-20511853D01*
X17015658Y-20511853D02*
X17139468Y-20511853D01*
X17206134Y-20378520D02*
X17206134Y-20416615D01*
X17282325Y-20378520D02*
X17282325Y-20416615D01*
X17577563Y-20654710D02*
X17568039Y-20645186D01*
X17568039Y-20645186D02*
X17548991Y-20616615D01*
X17548991Y-20616615D02*
X17539468Y-20597567D01*
X17539468Y-20597567D02*
X17529944Y-20568996D01*
X17529944Y-20568996D02*
X17520420Y-20521377D01*
X17520420Y-20521377D02*
X17520420Y-20483281D01*
X17520420Y-20483281D02*
X17529944Y-20435662D01*
X17529944Y-20435662D02*
X17539468Y-20407091D01*
X17539468Y-20407091D02*
X17548991Y-20388043D01*
X17548991Y-20388043D02*
X17568039Y-20359472D01*
X17568039Y-20359472D02*
X17577563Y-20349948D01*
X17748991Y-20378520D02*
X17653753Y-20378520D01*
X17653753Y-20378520D02*
X17644230Y-20473758D01*
X17644230Y-20473758D02*
X17653753Y-20464234D01*
X17653753Y-20464234D02*
X17672801Y-20454710D01*
X17672801Y-20454710D02*
X17720420Y-20454710D01*
X17720420Y-20454710D02*
X17739468Y-20464234D01*
X17739468Y-20464234D02*
X17748991Y-20473758D01*
X17748991Y-20473758D02*
X17758515Y-20492805D01*
X17758515Y-20492805D02*
X17758515Y-20540424D01*
X17758515Y-20540424D02*
X17748991Y-20559472D01*
X17748991Y-20559472D02*
X17739468Y-20568996D01*
X17739468Y-20568996D02*
X17720420Y-20578520D01*
X17720420Y-20578520D02*
X17672801Y-20578520D01*
X17672801Y-20578520D02*
X17653753Y-20568996D01*
X17653753Y-20568996D02*
X17644230Y-20559472D01*
X17996611Y-20578520D02*
X17996611Y-20378520D01*
X18082325Y-20578520D02*
X18082325Y-20473758D01*
X18082325Y-20473758D02*
X18072801Y-20454710D01*
X18072801Y-20454710D02*
X18053753Y-20445186D01*
X18053753Y-20445186D02*
X18025182Y-20445186D01*
X18025182Y-20445186D02*
X18006134Y-20454710D01*
X18006134Y-20454710D02*
X17996611Y-20464234D01*
X18206134Y-20578520D02*
X18187087Y-20568996D01*
X18187087Y-20568996D02*
X18177563Y-20559472D01*
X18177563Y-20559472D02*
X18168039Y-20540424D01*
X18168039Y-20540424D02*
X18168039Y-20483281D01*
X18168039Y-20483281D02*
X18177563Y-20464234D01*
X18177563Y-20464234D02*
X18187087Y-20454710D01*
X18187087Y-20454710D02*
X18206134Y-20445186D01*
X18206134Y-20445186D02*
X18234706Y-20445186D01*
X18234706Y-20445186D02*
X18253753Y-20454710D01*
X18253753Y-20454710D02*
X18263277Y-20464234D01*
X18263277Y-20464234D02*
X18272801Y-20483281D01*
X18272801Y-20483281D02*
X18272801Y-20540424D01*
X18272801Y-20540424D02*
X18263277Y-20559472D01*
X18263277Y-20559472D02*
X18253753Y-20568996D01*
X18253753Y-20568996D02*
X18234706Y-20578520D01*
X18234706Y-20578520D02*
X18206134Y-20578520D01*
X18387087Y-20578520D02*
X18368039Y-20568996D01*
X18368039Y-20568996D02*
X18358515Y-20549948D01*
X18358515Y-20549948D02*
X18358515Y-20378520D01*
X18539468Y-20568996D02*
X18520420Y-20578520D01*
X18520420Y-20578520D02*
X18482325Y-20578520D01*
X18482325Y-20578520D02*
X18463277Y-20568996D01*
X18463277Y-20568996D02*
X18453753Y-20549948D01*
X18453753Y-20549948D02*
X18453753Y-20473758D01*
X18453753Y-20473758D02*
X18463277Y-20454710D01*
X18463277Y-20454710D02*
X18482325Y-20445186D01*
X18482325Y-20445186D02*
X18520420Y-20445186D01*
X18520420Y-20445186D02*
X18539468Y-20454710D01*
X18539468Y-20454710D02*
X18548992Y-20473758D01*
X18548992Y-20473758D02*
X18548992Y-20492805D01*
X18548992Y-20492805D02*
X18453753Y-20511853D01*
X18625182Y-20568996D02*
X18644230Y-20578520D01*
X18644230Y-20578520D02*
X18682325Y-20578520D01*
X18682325Y-20578520D02*
X18701373Y-20568996D01*
X18701373Y-20568996D02*
X18710896Y-20549948D01*
X18710896Y-20549948D02*
X18710896Y-20540424D01*
X18710896Y-20540424D02*
X18701373Y-20521377D01*
X18701373Y-20521377D02*
X18682325Y-20511853D01*
X18682325Y-20511853D02*
X18653753Y-20511853D01*
X18653753Y-20511853D02*
X18634706Y-20502329D01*
X18634706Y-20502329D02*
X18625182Y-20483281D01*
X18625182Y-20483281D02*
X18625182Y-20473758D01*
X18625182Y-20473758D02*
X18634706Y-20454710D01*
X18634706Y-20454710D02*
X18653753Y-20445186D01*
X18653753Y-20445186D02*
X18682325Y-20445186D01*
X18682325Y-20445186D02*
X18701373Y-20454710D01*
X18777563Y-20654710D02*
X18787087Y-20645186D01*
X18787087Y-20645186D02*
X18806134Y-20616615D01*
X18806134Y-20616615D02*
X18815658Y-20597567D01*
X18815658Y-20597567D02*
X18825182Y-20568996D01*
X18825182Y-20568996D02*
X18834706Y-20521377D01*
X18834706Y-20521377D02*
X18834706Y-20483281D01*
X18834706Y-20483281D02*
X18825182Y-20435662D01*
X18825182Y-20435662D02*
X18815658Y-20407091D01*
X18815658Y-20407091D02*
X18806134Y-20388043D01*
X18806134Y-20388043D02*
X18787087Y-20359472D01*
X18787087Y-20359472D02*
X18777563Y-20349948D01*
D16*
X13937500Y-20816036D02*
X14002500Y-20751036D01*
X13937500Y-20686036D01*
X13872500Y-20751036D01*
X13937500Y-20816036D01*
D11*
X14368039Y-20842520D02*
X14253753Y-20842520D01*
X14310896Y-20842520D02*
X14310896Y-20642520D01*
X14310896Y-20642520D02*
X14291848Y-20671091D01*
X14291848Y-20671091D02*
X14272801Y-20690139D01*
X14272801Y-20690139D02*
X14253753Y-20699662D01*
X14453753Y-20823472D02*
X14463277Y-20832996D01*
X14463277Y-20832996D02*
X14453753Y-20842520D01*
X14453753Y-20842520D02*
X14444229Y-20832996D01*
X14444229Y-20832996D02*
X14453753Y-20823472D01*
X14453753Y-20823472D02*
X14453753Y-20842520D01*
X14529943Y-20642520D02*
X14653753Y-20642520D01*
X14653753Y-20642520D02*
X14587086Y-20718710D01*
X14587086Y-20718710D02*
X14615658Y-20718710D01*
X14615658Y-20718710D02*
X14634705Y-20728234D01*
X14634705Y-20728234D02*
X14644229Y-20737758D01*
X14644229Y-20737758D02*
X14653753Y-20756805D01*
X14653753Y-20756805D02*
X14653753Y-20804424D01*
X14653753Y-20804424D02*
X14644229Y-20823472D01*
X14644229Y-20823472D02*
X14634705Y-20832996D01*
X14634705Y-20832996D02*
X14615658Y-20842520D01*
X14615658Y-20842520D02*
X14558515Y-20842520D01*
X14558515Y-20842520D02*
X14539467Y-20832996D01*
X14539467Y-20832996D02*
X14529943Y-20823472D01*
X14777562Y-20642520D02*
X14796610Y-20642520D01*
X14796610Y-20642520D02*
X14815658Y-20652043D01*
X14815658Y-20652043D02*
X14825182Y-20661567D01*
X14825182Y-20661567D02*
X14834705Y-20680615D01*
X14834705Y-20680615D02*
X14844229Y-20718710D01*
X14844229Y-20718710D02*
X14844229Y-20766329D01*
X14844229Y-20766329D02*
X14834705Y-20804424D01*
X14834705Y-20804424D02*
X14825182Y-20823472D01*
X14825182Y-20823472D02*
X14815658Y-20832996D01*
X14815658Y-20832996D02*
X14796610Y-20842520D01*
X14796610Y-20842520D02*
X14777562Y-20842520D01*
X14777562Y-20842520D02*
X14758515Y-20832996D01*
X14758515Y-20832996D02*
X14748991Y-20823472D01*
X14748991Y-20823472D02*
X14739467Y-20804424D01*
X14739467Y-20804424D02*
X14729943Y-20766329D01*
X14729943Y-20766329D02*
X14729943Y-20718710D01*
X14729943Y-20718710D02*
X14739467Y-20680615D01*
X14739467Y-20680615D02*
X14748991Y-20661567D01*
X14748991Y-20661567D02*
X14758515Y-20652043D01*
X14758515Y-20652043D02*
X14777562Y-20642520D01*
X14968039Y-20642520D02*
X14987086Y-20642520D01*
X14987086Y-20642520D02*
X15006134Y-20652043D01*
X15006134Y-20652043D02*
X15015658Y-20661567D01*
X15015658Y-20661567D02*
X15025182Y-20680615D01*
X15025182Y-20680615D02*
X15034705Y-20718710D01*
X15034705Y-20718710D02*
X15034705Y-20766329D01*
X15034705Y-20766329D02*
X15025182Y-20804424D01*
X15025182Y-20804424D02*
X15015658Y-20823472D01*
X15015658Y-20823472D02*
X15006134Y-20832996D01*
X15006134Y-20832996D02*
X14987086Y-20842520D01*
X14987086Y-20842520D02*
X14968039Y-20842520D01*
X14968039Y-20842520D02*
X14948991Y-20832996D01*
X14948991Y-20832996D02*
X14939467Y-20823472D01*
X14939467Y-20823472D02*
X14929943Y-20804424D01*
X14929943Y-20804424D02*
X14920420Y-20766329D01*
X14920420Y-20766329D02*
X14920420Y-20718710D01*
X14920420Y-20718710D02*
X14929943Y-20680615D01*
X14929943Y-20680615D02*
X14939467Y-20661567D01*
X14939467Y-20661567D02*
X14948991Y-20652043D01*
X14948991Y-20652043D02*
X14968039Y-20642520D01*
X15120420Y-20842520D02*
X15120420Y-20709186D01*
X15120420Y-20728234D02*
X15129943Y-20718710D01*
X15129943Y-20718710D02*
X15148991Y-20709186D01*
X15148991Y-20709186D02*
X15177563Y-20709186D01*
X15177563Y-20709186D02*
X15196610Y-20718710D01*
X15196610Y-20718710D02*
X15206134Y-20737758D01*
X15206134Y-20737758D02*
X15206134Y-20842520D01*
X15206134Y-20737758D02*
X15215658Y-20718710D01*
X15215658Y-20718710D02*
X15234705Y-20709186D01*
X15234705Y-20709186D02*
X15263277Y-20709186D01*
X15263277Y-20709186D02*
X15282324Y-20718710D01*
X15282324Y-20718710D02*
X15291848Y-20737758D01*
X15291848Y-20737758D02*
X15291848Y-20842520D01*
X15387086Y-20842520D02*
X15387086Y-20709186D01*
X15387086Y-20728234D02*
X15396610Y-20718710D01*
X15396610Y-20718710D02*
X15415658Y-20709186D01*
X15415658Y-20709186D02*
X15444229Y-20709186D01*
X15444229Y-20709186D02*
X15463277Y-20718710D01*
X15463277Y-20718710D02*
X15472801Y-20737758D01*
X15472801Y-20737758D02*
X15472801Y-20842520D01*
X15472801Y-20737758D02*
X15482324Y-20718710D01*
X15482324Y-20718710D02*
X15501372Y-20709186D01*
X15501372Y-20709186D02*
X15529943Y-20709186D01*
X15529943Y-20709186D02*
X15548991Y-20718710D01*
X15548991Y-20718710D02*
X15558515Y-20737758D01*
X15558515Y-20737758D02*
X15558515Y-20842520D01*
X15948991Y-20632996D02*
X15777563Y-20890139D01*
X16206134Y-20642520D02*
X16225182Y-20642520D01*
X16225182Y-20642520D02*
X16244229Y-20652043D01*
X16244229Y-20652043D02*
X16253753Y-20661567D01*
X16253753Y-20661567D02*
X16263277Y-20680615D01*
X16263277Y-20680615D02*
X16272801Y-20718710D01*
X16272801Y-20718710D02*
X16272801Y-20766329D01*
X16272801Y-20766329D02*
X16263277Y-20804424D01*
X16263277Y-20804424D02*
X16253753Y-20823472D01*
X16253753Y-20823472D02*
X16244229Y-20832996D01*
X16244229Y-20832996D02*
X16225182Y-20842520D01*
X16225182Y-20842520D02*
X16206134Y-20842520D01*
X16206134Y-20842520D02*
X16187086Y-20832996D01*
X16187086Y-20832996D02*
X16177563Y-20823472D01*
X16177563Y-20823472D02*
X16168039Y-20804424D01*
X16168039Y-20804424D02*
X16158515Y-20766329D01*
X16158515Y-20766329D02*
X16158515Y-20718710D01*
X16158515Y-20718710D02*
X16168039Y-20680615D01*
X16168039Y-20680615D02*
X16177563Y-20661567D01*
X16177563Y-20661567D02*
X16187086Y-20652043D01*
X16187086Y-20652043D02*
X16206134Y-20642520D01*
X16358515Y-20823472D02*
X16368039Y-20832996D01*
X16368039Y-20832996D02*
X16358515Y-20842520D01*
X16358515Y-20842520D02*
X16348991Y-20832996D01*
X16348991Y-20832996D02*
X16358515Y-20823472D01*
X16358515Y-20823472D02*
X16358515Y-20842520D01*
X16491848Y-20642520D02*
X16510896Y-20642520D01*
X16510896Y-20642520D02*
X16529944Y-20652043D01*
X16529944Y-20652043D02*
X16539467Y-20661567D01*
X16539467Y-20661567D02*
X16548991Y-20680615D01*
X16548991Y-20680615D02*
X16558515Y-20718710D01*
X16558515Y-20718710D02*
X16558515Y-20766329D01*
X16558515Y-20766329D02*
X16548991Y-20804424D01*
X16548991Y-20804424D02*
X16539467Y-20823472D01*
X16539467Y-20823472D02*
X16529944Y-20832996D01*
X16529944Y-20832996D02*
X16510896Y-20842520D01*
X16510896Y-20842520D02*
X16491848Y-20842520D01*
X16491848Y-20842520D02*
X16472801Y-20832996D01*
X16472801Y-20832996D02*
X16463277Y-20823472D01*
X16463277Y-20823472D02*
X16453753Y-20804424D01*
X16453753Y-20804424D02*
X16444229Y-20766329D01*
X16444229Y-20766329D02*
X16444229Y-20718710D01*
X16444229Y-20718710D02*
X16453753Y-20680615D01*
X16453753Y-20680615D02*
X16463277Y-20661567D01*
X16463277Y-20661567D02*
X16472801Y-20652043D01*
X16472801Y-20652043D02*
X16491848Y-20642520D01*
X16739467Y-20642520D02*
X16644229Y-20642520D01*
X16644229Y-20642520D02*
X16634706Y-20737758D01*
X16634706Y-20737758D02*
X16644229Y-20728234D01*
X16644229Y-20728234D02*
X16663277Y-20718710D01*
X16663277Y-20718710D02*
X16710896Y-20718710D01*
X16710896Y-20718710D02*
X16729944Y-20728234D01*
X16729944Y-20728234D02*
X16739467Y-20737758D01*
X16739467Y-20737758D02*
X16748991Y-20756805D01*
X16748991Y-20756805D02*
X16748991Y-20804424D01*
X16748991Y-20804424D02*
X16739467Y-20823472D01*
X16739467Y-20823472D02*
X16729944Y-20832996D01*
X16729944Y-20832996D02*
X16710896Y-20842520D01*
X16710896Y-20842520D02*
X16663277Y-20842520D01*
X16663277Y-20842520D02*
X16644229Y-20832996D01*
X16644229Y-20832996D02*
X16634706Y-20823472D01*
X16939468Y-20842520D02*
X16825182Y-20842520D01*
X16882325Y-20842520D02*
X16882325Y-20642520D01*
X16882325Y-20642520D02*
X16863277Y-20671091D01*
X16863277Y-20671091D02*
X16844229Y-20690139D01*
X16844229Y-20690139D02*
X16825182Y-20699662D01*
X17015658Y-20661567D02*
X17025182Y-20652043D01*
X17025182Y-20652043D02*
X17044229Y-20642520D01*
X17044229Y-20642520D02*
X17091849Y-20642520D01*
X17091849Y-20642520D02*
X17110896Y-20652043D01*
X17110896Y-20652043D02*
X17120420Y-20661567D01*
X17120420Y-20661567D02*
X17129944Y-20680615D01*
X17129944Y-20680615D02*
X17129944Y-20699662D01*
X17129944Y-20699662D02*
X17120420Y-20728234D01*
X17120420Y-20728234D02*
X17006134Y-20842520D01*
X17006134Y-20842520D02*
X17129944Y-20842520D01*
X17206134Y-20642520D02*
X17206134Y-20680615D01*
X17282325Y-20642520D02*
X17282325Y-20680615D01*
X17577563Y-20918710D02*
X17568039Y-20909186D01*
X17568039Y-20909186D02*
X17548991Y-20880615D01*
X17548991Y-20880615D02*
X17539468Y-20861567D01*
X17539468Y-20861567D02*
X17529944Y-20832996D01*
X17529944Y-20832996D02*
X17520420Y-20785377D01*
X17520420Y-20785377D02*
X17520420Y-20747281D01*
X17520420Y-20747281D02*
X17529944Y-20699662D01*
X17529944Y-20699662D02*
X17539468Y-20671091D01*
X17539468Y-20671091D02*
X17548991Y-20652043D01*
X17548991Y-20652043D02*
X17568039Y-20623472D01*
X17568039Y-20623472D02*
X17577563Y-20613948D01*
X17644230Y-20661567D02*
X17653753Y-20652043D01*
X17653753Y-20652043D02*
X17672801Y-20642520D01*
X17672801Y-20642520D02*
X17720420Y-20642520D01*
X17720420Y-20642520D02*
X17739468Y-20652043D01*
X17739468Y-20652043D02*
X17748991Y-20661567D01*
X17748991Y-20661567D02*
X17758515Y-20680615D01*
X17758515Y-20680615D02*
X17758515Y-20699662D01*
X17758515Y-20699662D02*
X17748991Y-20728234D01*
X17748991Y-20728234D02*
X17634706Y-20842520D01*
X17634706Y-20842520D02*
X17758515Y-20842520D01*
X17996611Y-20842520D02*
X17996611Y-20642520D01*
X18082325Y-20842520D02*
X18082325Y-20737758D01*
X18082325Y-20737758D02*
X18072801Y-20718710D01*
X18072801Y-20718710D02*
X18053753Y-20709186D01*
X18053753Y-20709186D02*
X18025182Y-20709186D01*
X18025182Y-20709186D02*
X18006134Y-20718710D01*
X18006134Y-20718710D02*
X17996611Y-20728234D01*
X18206134Y-20842520D02*
X18187087Y-20832996D01*
X18187087Y-20832996D02*
X18177563Y-20823472D01*
X18177563Y-20823472D02*
X18168039Y-20804424D01*
X18168039Y-20804424D02*
X18168039Y-20747281D01*
X18168039Y-20747281D02*
X18177563Y-20728234D01*
X18177563Y-20728234D02*
X18187087Y-20718710D01*
X18187087Y-20718710D02*
X18206134Y-20709186D01*
X18206134Y-20709186D02*
X18234706Y-20709186D01*
X18234706Y-20709186D02*
X18253753Y-20718710D01*
X18253753Y-20718710D02*
X18263277Y-20728234D01*
X18263277Y-20728234D02*
X18272801Y-20747281D01*
X18272801Y-20747281D02*
X18272801Y-20804424D01*
X18272801Y-20804424D02*
X18263277Y-20823472D01*
X18263277Y-20823472D02*
X18253753Y-20832996D01*
X18253753Y-20832996D02*
X18234706Y-20842520D01*
X18234706Y-20842520D02*
X18206134Y-20842520D01*
X18387087Y-20842520D02*
X18368039Y-20832996D01*
X18368039Y-20832996D02*
X18358515Y-20813948D01*
X18358515Y-20813948D02*
X18358515Y-20642520D01*
X18539468Y-20832996D02*
X18520420Y-20842520D01*
X18520420Y-20842520D02*
X18482325Y-20842520D01*
X18482325Y-20842520D02*
X18463277Y-20832996D01*
X18463277Y-20832996D02*
X18453753Y-20813948D01*
X18453753Y-20813948D02*
X18453753Y-20737758D01*
X18453753Y-20737758D02*
X18463277Y-20718710D01*
X18463277Y-20718710D02*
X18482325Y-20709186D01*
X18482325Y-20709186D02*
X18520420Y-20709186D01*
X18520420Y-20709186D02*
X18539468Y-20718710D01*
X18539468Y-20718710D02*
X18548992Y-20737758D01*
X18548992Y-20737758D02*
X18548992Y-20756805D01*
X18548992Y-20756805D02*
X18453753Y-20775853D01*
X18625182Y-20832996D02*
X18644230Y-20842520D01*
X18644230Y-20842520D02*
X18682325Y-20842520D01*
X18682325Y-20842520D02*
X18701373Y-20832996D01*
X18701373Y-20832996D02*
X18710896Y-20813948D01*
X18710896Y-20813948D02*
X18710896Y-20804424D01*
X18710896Y-20804424D02*
X18701373Y-20785377D01*
X18701373Y-20785377D02*
X18682325Y-20775853D01*
X18682325Y-20775853D02*
X18653753Y-20775853D01*
X18653753Y-20775853D02*
X18634706Y-20766329D01*
X18634706Y-20766329D02*
X18625182Y-20747281D01*
X18625182Y-20747281D02*
X18625182Y-20737758D01*
X18625182Y-20737758D02*
X18634706Y-20718710D01*
X18634706Y-20718710D02*
X18653753Y-20709186D01*
X18653753Y-20709186D02*
X18682325Y-20709186D01*
X18682325Y-20709186D02*
X18701373Y-20718710D01*
X18777563Y-20918710D02*
X18787087Y-20909186D01*
X18787087Y-20909186D02*
X18806134Y-20880615D01*
X18806134Y-20880615D02*
X18815658Y-20861567D01*
X18815658Y-20861567D02*
X18825182Y-20832996D01*
X18825182Y-20832996D02*
X18834706Y-20785377D01*
X18834706Y-20785377D02*
X18834706Y-20747281D01*
X18834706Y-20747281D02*
X18825182Y-20699662D01*
X18825182Y-20699662D02*
X18815658Y-20671091D01*
X18815658Y-20671091D02*
X18806134Y-20652043D01*
X18806134Y-20652043D02*
X18787087Y-20623472D01*
X18787087Y-20623472D02*
X18777563Y-20613948D01*
D10*
X13852500Y-20940036D02*
X14002500Y-21090036D01*
X14002500Y-20940036D02*
X13852500Y-21090036D01*
X14002500Y-21015036D02*
G75*
G03*
X14002500Y-21015036I-75000J0D01*
G01*
D11*
X14368039Y-21106520D02*
X14253753Y-21106520D01*
X14310896Y-21106520D02*
X14310896Y-20906520D01*
X14310896Y-20906520D02*
X14291848Y-20935091D01*
X14291848Y-20935091D02*
X14272801Y-20954139D01*
X14272801Y-20954139D02*
X14253753Y-20963662D01*
X14453753Y-21087472D02*
X14463277Y-21096996D01*
X14463277Y-21096996D02*
X14453753Y-21106520D01*
X14453753Y-21106520D02*
X14444229Y-21096996D01*
X14444229Y-21096996D02*
X14453753Y-21087472D01*
X14453753Y-21087472D02*
X14453753Y-21106520D01*
X14644229Y-20906520D02*
X14548991Y-20906520D01*
X14548991Y-20906520D02*
X14539467Y-21001758D01*
X14539467Y-21001758D02*
X14548991Y-20992234D01*
X14548991Y-20992234D02*
X14568039Y-20982710D01*
X14568039Y-20982710D02*
X14615658Y-20982710D01*
X14615658Y-20982710D02*
X14634705Y-20992234D01*
X14634705Y-20992234D02*
X14644229Y-21001758D01*
X14644229Y-21001758D02*
X14653753Y-21020805D01*
X14653753Y-21020805D02*
X14653753Y-21068424D01*
X14653753Y-21068424D02*
X14644229Y-21087472D01*
X14644229Y-21087472D02*
X14634705Y-21096996D01*
X14634705Y-21096996D02*
X14615658Y-21106520D01*
X14615658Y-21106520D02*
X14568039Y-21106520D01*
X14568039Y-21106520D02*
X14548991Y-21096996D01*
X14548991Y-21096996D02*
X14539467Y-21087472D01*
X14777562Y-20906520D02*
X14796610Y-20906520D01*
X14796610Y-20906520D02*
X14815658Y-20916043D01*
X14815658Y-20916043D02*
X14825182Y-20925567D01*
X14825182Y-20925567D02*
X14834705Y-20944615D01*
X14834705Y-20944615D02*
X14844229Y-20982710D01*
X14844229Y-20982710D02*
X14844229Y-21030329D01*
X14844229Y-21030329D02*
X14834705Y-21068424D01*
X14834705Y-21068424D02*
X14825182Y-21087472D01*
X14825182Y-21087472D02*
X14815658Y-21096996D01*
X14815658Y-21096996D02*
X14796610Y-21106520D01*
X14796610Y-21106520D02*
X14777562Y-21106520D01*
X14777562Y-21106520D02*
X14758515Y-21096996D01*
X14758515Y-21096996D02*
X14748991Y-21087472D01*
X14748991Y-21087472D02*
X14739467Y-21068424D01*
X14739467Y-21068424D02*
X14729943Y-21030329D01*
X14729943Y-21030329D02*
X14729943Y-20982710D01*
X14729943Y-20982710D02*
X14739467Y-20944615D01*
X14739467Y-20944615D02*
X14748991Y-20925567D01*
X14748991Y-20925567D02*
X14758515Y-20916043D01*
X14758515Y-20916043D02*
X14777562Y-20906520D01*
X14968039Y-20906520D02*
X14987086Y-20906520D01*
X14987086Y-20906520D02*
X15006134Y-20916043D01*
X15006134Y-20916043D02*
X15015658Y-20925567D01*
X15015658Y-20925567D02*
X15025182Y-20944615D01*
X15025182Y-20944615D02*
X15034705Y-20982710D01*
X15034705Y-20982710D02*
X15034705Y-21030329D01*
X15034705Y-21030329D02*
X15025182Y-21068424D01*
X15025182Y-21068424D02*
X15015658Y-21087472D01*
X15015658Y-21087472D02*
X15006134Y-21096996D01*
X15006134Y-21096996D02*
X14987086Y-21106520D01*
X14987086Y-21106520D02*
X14968039Y-21106520D01*
X14968039Y-21106520D02*
X14948991Y-21096996D01*
X14948991Y-21096996D02*
X14939467Y-21087472D01*
X14939467Y-21087472D02*
X14929943Y-21068424D01*
X14929943Y-21068424D02*
X14920420Y-21030329D01*
X14920420Y-21030329D02*
X14920420Y-20982710D01*
X14920420Y-20982710D02*
X14929943Y-20944615D01*
X14929943Y-20944615D02*
X14939467Y-20925567D01*
X14939467Y-20925567D02*
X14948991Y-20916043D01*
X14948991Y-20916043D02*
X14968039Y-20906520D01*
X15120420Y-21106520D02*
X15120420Y-20973186D01*
X15120420Y-20992234D02*
X15129943Y-20982710D01*
X15129943Y-20982710D02*
X15148991Y-20973186D01*
X15148991Y-20973186D02*
X15177563Y-20973186D01*
X15177563Y-20973186D02*
X15196610Y-20982710D01*
X15196610Y-20982710D02*
X15206134Y-21001758D01*
X15206134Y-21001758D02*
X15206134Y-21106520D01*
X15206134Y-21001758D02*
X15215658Y-20982710D01*
X15215658Y-20982710D02*
X15234705Y-20973186D01*
X15234705Y-20973186D02*
X15263277Y-20973186D01*
X15263277Y-20973186D02*
X15282324Y-20982710D01*
X15282324Y-20982710D02*
X15291848Y-21001758D01*
X15291848Y-21001758D02*
X15291848Y-21106520D01*
X15387086Y-21106520D02*
X15387086Y-20973186D01*
X15387086Y-20992234D02*
X15396610Y-20982710D01*
X15396610Y-20982710D02*
X15415658Y-20973186D01*
X15415658Y-20973186D02*
X15444229Y-20973186D01*
X15444229Y-20973186D02*
X15463277Y-20982710D01*
X15463277Y-20982710D02*
X15472801Y-21001758D01*
X15472801Y-21001758D02*
X15472801Y-21106520D01*
X15472801Y-21001758D02*
X15482324Y-20982710D01*
X15482324Y-20982710D02*
X15501372Y-20973186D01*
X15501372Y-20973186D02*
X15529943Y-20973186D01*
X15529943Y-20973186D02*
X15548991Y-20982710D01*
X15548991Y-20982710D02*
X15558515Y-21001758D01*
X15558515Y-21001758D02*
X15558515Y-21106520D01*
X15948991Y-20896996D02*
X15777563Y-21154139D01*
X16206134Y-20906520D02*
X16225182Y-20906520D01*
X16225182Y-20906520D02*
X16244229Y-20916043D01*
X16244229Y-20916043D02*
X16253753Y-20925567D01*
X16253753Y-20925567D02*
X16263277Y-20944615D01*
X16263277Y-20944615D02*
X16272801Y-20982710D01*
X16272801Y-20982710D02*
X16272801Y-21030329D01*
X16272801Y-21030329D02*
X16263277Y-21068424D01*
X16263277Y-21068424D02*
X16253753Y-21087472D01*
X16253753Y-21087472D02*
X16244229Y-21096996D01*
X16244229Y-21096996D02*
X16225182Y-21106520D01*
X16225182Y-21106520D02*
X16206134Y-21106520D01*
X16206134Y-21106520D02*
X16187086Y-21096996D01*
X16187086Y-21096996D02*
X16177563Y-21087472D01*
X16177563Y-21087472D02*
X16168039Y-21068424D01*
X16168039Y-21068424D02*
X16158515Y-21030329D01*
X16158515Y-21030329D02*
X16158515Y-20982710D01*
X16158515Y-20982710D02*
X16168039Y-20944615D01*
X16168039Y-20944615D02*
X16177563Y-20925567D01*
X16177563Y-20925567D02*
X16187086Y-20916043D01*
X16187086Y-20916043D02*
X16206134Y-20906520D01*
X16358515Y-21087472D02*
X16368039Y-21096996D01*
X16368039Y-21096996D02*
X16358515Y-21106520D01*
X16358515Y-21106520D02*
X16348991Y-21096996D01*
X16348991Y-21096996D02*
X16358515Y-21087472D01*
X16358515Y-21087472D02*
X16358515Y-21106520D01*
X16491848Y-20906520D02*
X16510896Y-20906520D01*
X16510896Y-20906520D02*
X16529944Y-20916043D01*
X16529944Y-20916043D02*
X16539467Y-20925567D01*
X16539467Y-20925567D02*
X16548991Y-20944615D01*
X16548991Y-20944615D02*
X16558515Y-20982710D01*
X16558515Y-20982710D02*
X16558515Y-21030329D01*
X16558515Y-21030329D02*
X16548991Y-21068424D01*
X16548991Y-21068424D02*
X16539467Y-21087472D01*
X16539467Y-21087472D02*
X16529944Y-21096996D01*
X16529944Y-21096996D02*
X16510896Y-21106520D01*
X16510896Y-21106520D02*
X16491848Y-21106520D01*
X16491848Y-21106520D02*
X16472801Y-21096996D01*
X16472801Y-21096996D02*
X16463277Y-21087472D01*
X16463277Y-21087472D02*
X16453753Y-21068424D01*
X16453753Y-21068424D02*
X16444229Y-21030329D01*
X16444229Y-21030329D02*
X16444229Y-20982710D01*
X16444229Y-20982710D02*
X16453753Y-20944615D01*
X16453753Y-20944615D02*
X16463277Y-20925567D01*
X16463277Y-20925567D02*
X16472801Y-20916043D01*
X16472801Y-20916043D02*
X16491848Y-20906520D01*
X16739467Y-20906520D02*
X16644229Y-20906520D01*
X16644229Y-20906520D02*
X16634706Y-21001758D01*
X16634706Y-21001758D02*
X16644229Y-20992234D01*
X16644229Y-20992234D02*
X16663277Y-20982710D01*
X16663277Y-20982710D02*
X16710896Y-20982710D01*
X16710896Y-20982710D02*
X16729944Y-20992234D01*
X16729944Y-20992234D02*
X16739467Y-21001758D01*
X16739467Y-21001758D02*
X16748991Y-21020805D01*
X16748991Y-21020805D02*
X16748991Y-21068424D01*
X16748991Y-21068424D02*
X16739467Y-21087472D01*
X16739467Y-21087472D02*
X16729944Y-21096996D01*
X16729944Y-21096996D02*
X16710896Y-21106520D01*
X16710896Y-21106520D02*
X16663277Y-21106520D01*
X16663277Y-21106520D02*
X16644229Y-21096996D01*
X16644229Y-21096996D02*
X16634706Y-21087472D01*
X16844229Y-21106520D02*
X16882325Y-21106520D01*
X16882325Y-21106520D02*
X16901372Y-21096996D01*
X16901372Y-21096996D02*
X16910896Y-21087472D01*
X16910896Y-21087472D02*
X16929944Y-21058900D01*
X16929944Y-21058900D02*
X16939468Y-21020805D01*
X16939468Y-21020805D02*
X16939468Y-20944615D01*
X16939468Y-20944615D02*
X16929944Y-20925567D01*
X16929944Y-20925567D02*
X16920420Y-20916043D01*
X16920420Y-20916043D02*
X16901372Y-20906520D01*
X16901372Y-20906520D02*
X16863277Y-20906520D01*
X16863277Y-20906520D02*
X16844229Y-20916043D01*
X16844229Y-20916043D02*
X16834706Y-20925567D01*
X16834706Y-20925567D02*
X16825182Y-20944615D01*
X16825182Y-20944615D02*
X16825182Y-20992234D01*
X16825182Y-20992234D02*
X16834706Y-21011281D01*
X16834706Y-21011281D02*
X16844229Y-21020805D01*
X16844229Y-21020805D02*
X16863277Y-21030329D01*
X16863277Y-21030329D02*
X16901372Y-21030329D01*
X16901372Y-21030329D02*
X16920420Y-21020805D01*
X16920420Y-21020805D02*
X16929944Y-21011281D01*
X16929944Y-21011281D02*
X16939468Y-20992234D01*
X17129944Y-21106520D02*
X17015658Y-21106520D01*
X17072801Y-21106520D02*
X17072801Y-20906520D01*
X17072801Y-20906520D02*
X17053753Y-20935091D01*
X17053753Y-20935091D02*
X17034706Y-20954139D01*
X17034706Y-20954139D02*
X17015658Y-20963662D01*
X17206134Y-20906520D02*
X17206134Y-20944615D01*
X17282325Y-20906520D02*
X17282325Y-20944615D01*
X17577563Y-21182710D02*
X17568039Y-21173186D01*
X17568039Y-21173186D02*
X17548991Y-21144615D01*
X17548991Y-21144615D02*
X17539468Y-21125567D01*
X17539468Y-21125567D02*
X17529944Y-21096996D01*
X17529944Y-21096996D02*
X17520420Y-21049377D01*
X17520420Y-21049377D02*
X17520420Y-21011281D01*
X17520420Y-21011281D02*
X17529944Y-20963662D01*
X17529944Y-20963662D02*
X17539468Y-20935091D01*
X17539468Y-20935091D02*
X17548991Y-20916043D01*
X17548991Y-20916043D02*
X17568039Y-20887472D01*
X17568039Y-20887472D02*
X17577563Y-20877948D01*
X17691849Y-20906520D02*
X17710896Y-20906520D01*
X17710896Y-20906520D02*
X17729944Y-20916043D01*
X17729944Y-20916043D02*
X17739468Y-20925567D01*
X17739468Y-20925567D02*
X17748991Y-20944615D01*
X17748991Y-20944615D02*
X17758515Y-20982710D01*
X17758515Y-20982710D02*
X17758515Y-21030329D01*
X17758515Y-21030329D02*
X17748991Y-21068424D01*
X17748991Y-21068424D02*
X17739468Y-21087472D01*
X17739468Y-21087472D02*
X17729944Y-21096996D01*
X17729944Y-21096996D02*
X17710896Y-21106520D01*
X17710896Y-21106520D02*
X17691849Y-21106520D01*
X17691849Y-21106520D02*
X17672801Y-21096996D01*
X17672801Y-21096996D02*
X17663277Y-21087472D01*
X17663277Y-21087472D02*
X17653753Y-21068424D01*
X17653753Y-21068424D02*
X17644230Y-21030329D01*
X17644230Y-21030329D02*
X17644230Y-20982710D01*
X17644230Y-20982710D02*
X17653753Y-20944615D01*
X17653753Y-20944615D02*
X17663277Y-20925567D01*
X17663277Y-20925567D02*
X17672801Y-20916043D01*
X17672801Y-20916043D02*
X17691849Y-20906520D01*
X17996611Y-21106520D02*
X17996611Y-20906520D01*
X18082325Y-21106520D02*
X18082325Y-21001758D01*
X18082325Y-21001758D02*
X18072801Y-20982710D01*
X18072801Y-20982710D02*
X18053753Y-20973186D01*
X18053753Y-20973186D02*
X18025182Y-20973186D01*
X18025182Y-20973186D02*
X18006134Y-20982710D01*
X18006134Y-20982710D02*
X17996611Y-20992234D01*
X18206134Y-21106520D02*
X18187087Y-21096996D01*
X18187087Y-21096996D02*
X18177563Y-21087472D01*
X18177563Y-21087472D02*
X18168039Y-21068424D01*
X18168039Y-21068424D02*
X18168039Y-21011281D01*
X18168039Y-21011281D02*
X18177563Y-20992234D01*
X18177563Y-20992234D02*
X18187087Y-20982710D01*
X18187087Y-20982710D02*
X18206134Y-20973186D01*
X18206134Y-20973186D02*
X18234706Y-20973186D01*
X18234706Y-20973186D02*
X18253753Y-20982710D01*
X18253753Y-20982710D02*
X18263277Y-20992234D01*
X18263277Y-20992234D02*
X18272801Y-21011281D01*
X18272801Y-21011281D02*
X18272801Y-21068424D01*
X18272801Y-21068424D02*
X18263277Y-21087472D01*
X18263277Y-21087472D02*
X18253753Y-21096996D01*
X18253753Y-21096996D02*
X18234706Y-21106520D01*
X18234706Y-21106520D02*
X18206134Y-21106520D01*
X18387087Y-21106520D02*
X18368039Y-21096996D01*
X18368039Y-21096996D02*
X18358515Y-21077948D01*
X18358515Y-21077948D02*
X18358515Y-20906520D01*
X18539468Y-21096996D02*
X18520420Y-21106520D01*
X18520420Y-21106520D02*
X18482325Y-21106520D01*
X18482325Y-21106520D02*
X18463277Y-21096996D01*
X18463277Y-21096996D02*
X18453753Y-21077948D01*
X18453753Y-21077948D02*
X18453753Y-21001758D01*
X18453753Y-21001758D02*
X18463277Y-20982710D01*
X18463277Y-20982710D02*
X18482325Y-20973186D01*
X18482325Y-20973186D02*
X18520420Y-20973186D01*
X18520420Y-20973186D02*
X18539468Y-20982710D01*
X18539468Y-20982710D02*
X18548992Y-21001758D01*
X18548992Y-21001758D02*
X18548992Y-21020805D01*
X18548992Y-21020805D02*
X18453753Y-21039853D01*
X18625182Y-21096996D02*
X18644230Y-21106520D01*
X18644230Y-21106520D02*
X18682325Y-21106520D01*
X18682325Y-21106520D02*
X18701373Y-21096996D01*
X18701373Y-21096996D02*
X18710896Y-21077948D01*
X18710896Y-21077948D02*
X18710896Y-21068424D01*
X18710896Y-21068424D02*
X18701373Y-21049377D01*
X18701373Y-21049377D02*
X18682325Y-21039853D01*
X18682325Y-21039853D02*
X18653753Y-21039853D01*
X18653753Y-21039853D02*
X18634706Y-21030329D01*
X18634706Y-21030329D02*
X18625182Y-21011281D01*
X18625182Y-21011281D02*
X18625182Y-21001758D01*
X18625182Y-21001758D02*
X18634706Y-20982710D01*
X18634706Y-20982710D02*
X18653753Y-20973186D01*
X18653753Y-20973186D02*
X18682325Y-20973186D01*
X18682325Y-20973186D02*
X18701373Y-20982710D01*
X18948992Y-21030329D02*
X19101373Y-21030329D01*
X19025182Y-21106520D02*
X19025182Y-20954139D01*
X19339468Y-20925567D02*
X19348992Y-20916043D01*
X19348992Y-20916043D02*
X19368039Y-20906520D01*
X19368039Y-20906520D02*
X19415658Y-20906520D01*
X19415658Y-20906520D02*
X19434706Y-20916043D01*
X19434706Y-20916043D02*
X19444230Y-20925567D01*
X19444230Y-20925567D02*
X19453754Y-20944615D01*
X19453754Y-20944615D02*
X19453754Y-20963662D01*
X19453754Y-20963662D02*
X19444230Y-20992234D01*
X19444230Y-20992234D02*
X19329944Y-21106520D01*
X19329944Y-21106520D02*
X19453754Y-21106520D01*
X19682325Y-21096996D02*
X19701373Y-21106520D01*
X19701373Y-21106520D02*
X19739468Y-21106520D01*
X19739468Y-21106520D02*
X19758516Y-21096996D01*
X19758516Y-21096996D02*
X19768039Y-21077948D01*
X19768039Y-21077948D02*
X19768039Y-21068424D01*
X19768039Y-21068424D02*
X19758516Y-21049377D01*
X19758516Y-21049377D02*
X19739468Y-21039853D01*
X19739468Y-21039853D02*
X19710896Y-21039853D01*
X19710896Y-21039853D02*
X19691849Y-21030329D01*
X19691849Y-21030329D02*
X19682325Y-21011281D01*
X19682325Y-21011281D02*
X19682325Y-21001758D01*
X19682325Y-21001758D02*
X19691849Y-20982710D01*
X19691849Y-20982710D02*
X19710896Y-20973186D01*
X19710896Y-20973186D02*
X19739468Y-20973186D01*
X19739468Y-20973186D02*
X19758516Y-20982710D01*
X19882325Y-21106520D02*
X19863277Y-21096996D01*
X19863277Y-21096996D02*
X19853754Y-21077948D01*
X19853754Y-21077948D02*
X19853754Y-20906520D01*
X19987087Y-21106520D02*
X19968039Y-21096996D01*
X19968039Y-21096996D02*
X19958516Y-21087472D01*
X19958516Y-21087472D02*
X19948992Y-21068424D01*
X19948992Y-21068424D02*
X19948992Y-21011281D01*
X19948992Y-21011281D02*
X19958516Y-20992234D01*
X19958516Y-20992234D02*
X19968039Y-20982710D01*
X19968039Y-20982710D02*
X19987087Y-20973186D01*
X19987087Y-20973186D02*
X20015658Y-20973186D01*
X20015658Y-20973186D02*
X20034706Y-20982710D01*
X20034706Y-20982710D02*
X20044230Y-20992234D01*
X20044230Y-20992234D02*
X20053754Y-21011281D01*
X20053754Y-21011281D02*
X20053754Y-21068424D01*
X20053754Y-21068424D02*
X20044230Y-21087472D01*
X20044230Y-21087472D02*
X20034706Y-21096996D01*
X20034706Y-21096996D02*
X20015658Y-21106520D01*
X20015658Y-21106520D02*
X19987087Y-21106520D01*
X20110897Y-20973186D02*
X20187087Y-20973186D01*
X20139468Y-20906520D02*
X20139468Y-21077948D01*
X20139468Y-21077948D02*
X20148992Y-21096996D01*
X20148992Y-21096996D02*
X20168039Y-21106520D01*
X20168039Y-21106520D02*
X20187087Y-21106520D01*
X20244230Y-21096996D02*
X20263277Y-21106520D01*
X20263277Y-21106520D02*
X20301373Y-21106520D01*
X20301373Y-21106520D02*
X20320420Y-21096996D01*
X20320420Y-21096996D02*
X20329944Y-21077948D01*
X20329944Y-21077948D02*
X20329944Y-21068424D01*
X20329944Y-21068424D02*
X20320420Y-21049377D01*
X20320420Y-21049377D02*
X20301373Y-21039853D01*
X20301373Y-21039853D02*
X20272801Y-21039853D01*
X20272801Y-21039853D02*
X20253754Y-21030329D01*
X20253754Y-21030329D02*
X20244230Y-21011281D01*
X20244230Y-21011281D02*
X20244230Y-21001758D01*
X20244230Y-21001758D02*
X20253754Y-20982710D01*
X20253754Y-20982710D02*
X20272801Y-20973186D01*
X20272801Y-20973186D02*
X20301373Y-20973186D01*
X20301373Y-20973186D02*
X20320420Y-20982710D01*
X20396611Y-21182710D02*
X20406135Y-21173186D01*
X20406135Y-21173186D02*
X20425182Y-21144615D01*
X20425182Y-21144615D02*
X20434706Y-21125567D01*
X20434706Y-21125567D02*
X20444230Y-21096996D01*
X20444230Y-21096996D02*
X20453754Y-21049377D01*
X20453754Y-21049377D02*
X20453754Y-21011281D01*
X20453754Y-21011281D02*
X20444230Y-20963662D01*
X20444230Y-20963662D02*
X20434706Y-20935091D01*
X20434706Y-20935091D02*
X20425182Y-20916043D01*
X20425182Y-20916043D02*
X20406135Y-20887472D01*
X20406135Y-20887472D02*
X20396611Y-20877948D01*
X13802500Y-21185036D02*
X14002500Y-21385036D01*
X14002500Y-21185036D02*
X13802500Y-21385036D01*
X13902500Y-21185036D02*
X13902500Y-21385036D01*
X13802500Y-21285036D02*
X14002500Y-21285036D01*
X14348991Y-21243186D02*
X14348991Y-21376520D01*
X14301372Y-21166996D02*
X14253753Y-21309853D01*
X14253753Y-21309853D02*
X14377562Y-21309853D01*
X14453753Y-21357472D02*
X14463277Y-21366996D01*
X14463277Y-21366996D02*
X14453753Y-21376520D01*
X14453753Y-21376520D02*
X14444229Y-21366996D01*
X14444229Y-21366996D02*
X14453753Y-21357472D01*
X14453753Y-21357472D02*
X14453753Y-21376520D01*
X14653753Y-21376520D02*
X14539467Y-21376520D01*
X14596610Y-21376520D02*
X14596610Y-21176520D01*
X14596610Y-21176520D02*
X14577562Y-21205091D01*
X14577562Y-21205091D02*
X14558515Y-21224139D01*
X14558515Y-21224139D02*
X14539467Y-21233662D01*
X14777562Y-21176520D02*
X14796610Y-21176520D01*
X14796610Y-21176520D02*
X14815658Y-21186043D01*
X14815658Y-21186043D02*
X14825182Y-21195567D01*
X14825182Y-21195567D02*
X14834705Y-21214615D01*
X14834705Y-21214615D02*
X14844229Y-21252710D01*
X14844229Y-21252710D02*
X14844229Y-21300329D01*
X14844229Y-21300329D02*
X14834705Y-21338424D01*
X14834705Y-21338424D02*
X14825182Y-21357472D01*
X14825182Y-21357472D02*
X14815658Y-21366996D01*
X14815658Y-21366996D02*
X14796610Y-21376520D01*
X14796610Y-21376520D02*
X14777562Y-21376520D01*
X14777562Y-21376520D02*
X14758515Y-21366996D01*
X14758515Y-21366996D02*
X14748991Y-21357472D01*
X14748991Y-21357472D02*
X14739467Y-21338424D01*
X14739467Y-21338424D02*
X14729943Y-21300329D01*
X14729943Y-21300329D02*
X14729943Y-21252710D01*
X14729943Y-21252710D02*
X14739467Y-21214615D01*
X14739467Y-21214615D02*
X14748991Y-21195567D01*
X14748991Y-21195567D02*
X14758515Y-21186043D01*
X14758515Y-21186043D02*
X14777562Y-21176520D01*
X14968039Y-21176520D02*
X14987086Y-21176520D01*
X14987086Y-21176520D02*
X15006134Y-21186043D01*
X15006134Y-21186043D02*
X15015658Y-21195567D01*
X15015658Y-21195567D02*
X15025182Y-21214615D01*
X15025182Y-21214615D02*
X15034705Y-21252710D01*
X15034705Y-21252710D02*
X15034705Y-21300329D01*
X15034705Y-21300329D02*
X15025182Y-21338424D01*
X15025182Y-21338424D02*
X15015658Y-21357472D01*
X15015658Y-21357472D02*
X15006134Y-21366996D01*
X15006134Y-21366996D02*
X14987086Y-21376520D01*
X14987086Y-21376520D02*
X14968039Y-21376520D01*
X14968039Y-21376520D02*
X14948991Y-21366996D01*
X14948991Y-21366996D02*
X14939467Y-21357472D01*
X14939467Y-21357472D02*
X14929943Y-21338424D01*
X14929943Y-21338424D02*
X14920420Y-21300329D01*
X14920420Y-21300329D02*
X14920420Y-21252710D01*
X14920420Y-21252710D02*
X14929943Y-21214615D01*
X14929943Y-21214615D02*
X14939467Y-21195567D01*
X14939467Y-21195567D02*
X14948991Y-21186043D01*
X14948991Y-21186043D02*
X14968039Y-21176520D01*
X15120420Y-21376520D02*
X15120420Y-21243186D01*
X15120420Y-21262234D02*
X15129943Y-21252710D01*
X15129943Y-21252710D02*
X15148991Y-21243186D01*
X15148991Y-21243186D02*
X15177563Y-21243186D01*
X15177563Y-21243186D02*
X15196610Y-21252710D01*
X15196610Y-21252710D02*
X15206134Y-21271758D01*
X15206134Y-21271758D02*
X15206134Y-21376520D01*
X15206134Y-21271758D02*
X15215658Y-21252710D01*
X15215658Y-21252710D02*
X15234705Y-21243186D01*
X15234705Y-21243186D02*
X15263277Y-21243186D01*
X15263277Y-21243186D02*
X15282324Y-21252710D01*
X15282324Y-21252710D02*
X15291848Y-21271758D01*
X15291848Y-21271758D02*
X15291848Y-21376520D01*
X15387086Y-21376520D02*
X15387086Y-21243186D01*
X15387086Y-21262234D02*
X15396610Y-21252710D01*
X15396610Y-21252710D02*
X15415658Y-21243186D01*
X15415658Y-21243186D02*
X15444229Y-21243186D01*
X15444229Y-21243186D02*
X15463277Y-21252710D01*
X15463277Y-21252710D02*
X15472801Y-21271758D01*
X15472801Y-21271758D02*
X15472801Y-21376520D01*
X15472801Y-21271758D02*
X15482324Y-21252710D01*
X15482324Y-21252710D02*
X15501372Y-21243186D01*
X15501372Y-21243186D02*
X15529943Y-21243186D01*
X15529943Y-21243186D02*
X15548991Y-21252710D01*
X15548991Y-21252710D02*
X15558515Y-21271758D01*
X15558515Y-21271758D02*
X15558515Y-21376520D01*
X15948991Y-21166996D02*
X15777563Y-21424139D01*
X16206134Y-21176520D02*
X16225182Y-21176520D01*
X16225182Y-21176520D02*
X16244229Y-21186043D01*
X16244229Y-21186043D02*
X16253753Y-21195567D01*
X16253753Y-21195567D02*
X16263277Y-21214615D01*
X16263277Y-21214615D02*
X16272801Y-21252710D01*
X16272801Y-21252710D02*
X16272801Y-21300329D01*
X16272801Y-21300329D02*
X16263277Y-21338424D01*
X16263277Y-21338424D02*
X16253753Y-21357472D01*
X16253753Y-21357472D02*
X16244229Y-21366996D01*
X16244229Y-21366996D02*
X16225182Y-21376520D01*
X16225182Y-21376520D02*
X16206134Y-21376520D01*
X16206134Y-21376520D02*
X16187086Y-21366996D01*
X16187086Y-21366996D02*
X16177563Y-21357472D01*
X16177563Y-21357472D02*
X16168039Y-21338424D01*
X16168039Y-21338424D02*
X16158515Y-21300329D01*
X16158515Y-21300329D02*
X16158515Y-21252710D01*
X16158515Y-21252710D02*
X16168039Y-21214615D01*
X16168039Y-21214615D02*
X16177563Y-21195567D01*
X16177563Y-21195567D02*
X16187086Y-21186043D01*
X16187086Y-21186043D02*
X16206134Y-21176520D01*
X16358515Y-21357472D02*
X16368039Y-21366996D01*
X16368039Y-21366996D02*
X16358515Y-21376520D01*
X16358515Y-21376520D02*
X16348991Y-21366996D01*
X16348991Y-21366996D02*
X16358515Y-21357472D01*
X16358515Y-21357472D02*
X16358515Y-21376520D01*
X16558515Y-21376520D02*
X16444229Y-21376520D01*
X16501372Y-21376520D02*
X16501372Y-21176520D01*
X16501372Y-21176520D02*
X16482325Y-21205091D01*
X16482325Y-21205091D02*
X16463277Y-21224139D01*
X16463277Y-21224139D02*
X16444229Y-21233662D01*
X16729944Y-21176520D02*
X16691848Y-21176520D01*
X16691848Y-21176520D02*
X16672801Y-21186043D01*
X16672801Y-21186043D02*
X16663277Y-21195567D01*
X16663277Y-21195567D02*
X16644229Y-21224139D01*
X16644229Y-21224139D02*
X16634706Y-21262234D01*
X16634706Y-21262234D02*
X16634706Y-21338424D01*
X16634706Y-21338424D02*
X16644229Y-21357472D01*
X16644229Y-21357472D02*
X16653753Y-21366996D01*
X16653753Y-21366996D02*
X16672801Y-21376520D01*
X16672801Y-21376520D02*
X16710896Y-21376520D01*
X16710896Y-21376520D02*
X16729944Y-21366996D01*
X16729944Y-21366996D02*
X16739467Y-21357472D01*
X16739467Y-21357472D02*
X16748991Y-21338424D01*
X16748991Y-21338424D02*
X16748991Y-21290805D01*
X16748991Y-21290805D02*
X16739467Y-21271758D01*
X16739467Y-21271758D02*
X16729944Y-21262234D01*
X16729944Y-21262234D02*
X16710896Y-21252710D01*
X16710896Y-21252710D02*
X16672801Y-21252710D01*
X16672801Y-21252710D02*
X16653753Y-21262234D01*
X16653753Y-21262234D02*
X16644229Y-21271758D01*
X16644229Y-21271758D02*
X16634706Y-21290805D01*
X16939468Y-21376520D02*
X16825182Y-21376520D01*
X16882325Y-21376520D02*
X16882325Y-21176520D01*
X16882325Y-21176520D02*
X16863277Y-21205091D01*
X16863277Y-21205091D02*
X16844229Y-21224139D01*
X16844229Y-21224139D02*
X16825182Y-21233662D01*
X17110896Y-21243186D02*
X17110896Y-21376520D01*
X17063277Y-21166996D02*
X17015658Y-21309853D01*
X17015658Y-21309853D02*
X17139468Y-21309853D01*
X17206134Y-21176520D02*
X17206134Y-21214615D01*
X17282325Y-21176520D02*
X17282325Y-21214615D01*
X17577563Y-21452710D02*
X17568039Y-21443186D01*
X17568039Y-21443186D02*
X17548991Y-21414615D01*
X17548991Y-21414615D02*
X17539468Y-21395567D01*
X17539468Y-21395567D02*
X17529944Y-21366996D01*
X17529944Y-21366996D02*
X17520420Y-21319377D01*
X17520420Y-21319377D02*
X17520420Y-21281281D01*
X17520420Y-21281281D02*
X17529944Y-21233662D01*
X17529944Y-21233662D02*
X17539468Y-21205091D01*
X17539468Y-21205091D02*
X17548991Y-21186043D01*
X17548991Y-21186043D02*
X17568039Y-21157472D01*
X17568039Y-21157472D02*
X17577563Y-21147948D01*
X17748991Y-21176520D02*
X17653753Y-21176520D01*
X17653753Y-21176520D02*
X17644230Y-21271758D01*
X17644230Y-21271758D02*
X17653753Y-21262234D01*
X17653753Y-21262234D02*
X17672801Y-21252710D01*
X17672801Y-21252710D02*
X17720420Y-21252710D01*
X17720420Y-21252710D02*
X17739468Y-21262234D01*
X17739468Y-21262234D02*
X17748991Y-21271758D01*
X17748991Y-21271758D02*
X17758515Y-21290805D01*
X17758515Y-21290805D02*
X17758515Y-21338424D01*
X17758515Y-21338424D02*
X17748991Y-21357472D01*
X17748991Y-21357472D02*
X17739468Y-21366996D01*
X17739468Y-21366996D02*
X17720420Y-21376520D01*
X17720420Y-21376520D02*
X17672801Y-21376520D01*
X17672801Y-21376520D02*
X17653753Y-21366996D01*
X17653753Y-21366996D02*
X17644230Y-21357472D01*
X17996611Y-21376520D02*
X17996611Y-21176520D01*
X18082325Y-21376520D02*
X18082325Y-21271758D01*
X18082325Y-21271758D02*
X18072801Y-21252710D01*
X18072801Y-21252710D02*
X18053753Y-21243186D01*
X18053753Y-21243186D02*
X18025182Y-21243186D01*
X18025182Y-21243186D02*
X18006134Y-21252710D01*
X18006134Y-21252710D02*
X17996611Y-21262234D01*
X18206134Y-21376520D02*
X18187087Y-21366996D01*
X18187087Y-21366996D02*
X18177563Y-21357472D01*
X18177563Y-21357472D02*
X18168039Y-21338424D01*
X18168039Y-21338424D02*
X18168039Y-21281281D01*
X18168039Y-21281281D02*
X18177563Y-21262234D01*
X18177563Y-21262234D02*
X18187087Y-21252710D01*
X18187087Y-21252710D02*
X18206134Y-21243186D01*
X18206134Y-21243186D02*
X18234706Y-21243186D01*
X18234706Y-21243186D02*
X18253753Y-21252710D01*
X18253753Y-21252710D02*
X18263277Y-21262234D01*
X18263277Y-21262234D02*
X18272801Y-21281281D01*
X18272801Y-21281281D02*
X18272801Y-21338424D01*
X18272801Y-21338424D02*
X18263277Y-21357472D01*
X18263277Y-21357472D02*
X18253753Y-21366996D01*
X18253753Y-21366996D02*
X18234706Y-21376520D01*
X18234706Y-21376520D02*
X18206134Y-21376520D01*
X18387087Y-21376520D02*
X18368039Y-21366996D01*
X18368039Y-21366996D02*
X18358515Y-21347948D01*
X18358515Y-21347948D02*
X18358515Y-21176520D01*
X18539468Y-21366996D02*
X18520420Y-21376520D01*
X18520420Y-21376520D02*
X18482325Y-21376520D01*
X18482325Y-21376520D02*
X18463277Y-21366996D01*
X18463277Y-21366996D02*
X18453753Y-21347948D01*
X18453753Y-21347948D02*
X18453753Y-21271758D01*
X18453753Y-21271758D02*
X18463277Y-21252710D01*
X18463277Y-21252710D02*
X18482325Y-21243186D01*
X18482325Y-21243186D02*
X18520420Y-21243186D01*
X18520420Y-21243186D02*
X18539468Y-21252710D01*
X18539468Y-21252710D02*
X18548992Y-21271758D01*
X18548992Y-21271758D02*
X18548992Y-21290805D01*
X18548992Y-21290805D02*
X18453753Y-21309853D01*
X18625182Y-21366996D02*
X18644230Y-21376520D01*
X18644230Y-21376520D02*
X18682325Y-21376520D01*
X18682325Y-21376520D02*
X18701373Y-21366996D01*
X18701373Y-21366996D02*
X18710896Y-21347948D01*
X18710896Y-21347948D02*
X18710896Y-21338424D01*
X18710896Y-21338424D02*
X18701373Y-21319377D01*
X18701373Y-21319377D02*
X18682325Y-21309853D01*
X18682325Y-21309853D02*
X18653753Y-21309853D01*
X18653753Y-21309853D02*
X18634706Y-21300329D01*
X18634706Y-21300329D02*
X18625182Y-21281281D01*
X18625182Y-21281281D02*
X18625182Y-21271758D01*
X18625182Y-21271758D02*
X18634706Y-21252710D01*
X18634706Y-21252710D02*
X18653753Y-21243186D01*
X18653753Y-21243186D02*
X18682325Y-21243186D01*
X18682325Y-21243186D02*
X18701373Y-21252710D01*
X18777563Y-21452710D02*
X18787087Y-21443186D01*
X18787087Y-21443186D02*
X18806134Y-21414615D01*
X18806134Y-21414615D02*
X18815658Y-21395567D01*
X18815658Y-21395567D02*
X18825182Y-21366996D01*
X18825182Y-21366996D02*
X18834706Y-21319377D01*
X18834706Y-21319377D02*
X18834706Y-21281281D01*
X18834706Y-21281281D02*
X18825182Y-21233662D01*
X18825182Y-21233662D02*
X18815658Y-21205091D01*
X18815658Y-21205091D02*
X18806134Y-21186043D01*
X18806134Y-21186043D02*
X18787087Y-21157472D01*
X18787087Y-21157472D02*
X18777563Y-21147948D01*
M02*
