G04 #@! TF.GenerationSoftware,KiCad,Pcbnew,7.0.7*
G04 #@! TF.CreationDate,2024-01-28T17:29:48-05:00*
G04 #@! TF.ProjectId,keybear-chocolate,6b657962-6561-4722-9d63-686f636f6c61,v1.0.0*
G04 #@! TF.SameCoordinates,Original*
G04 #@! TF.FileFunction,Profile,NP*
%FSLAX46Y46*%
G04 Gerber Fmt 4.6, Leading zero omitted, Abs format (unit mm)*
G04 Created by KiCad (PCBNEW 7.0.7) date 2024-01-28 17:29:48*
%MOMM*%
%LPD*%
G01*
G04 APERTURE LIST*
G04 #@! TA.AperFunction,Profile*
%ADD10C,0.150000*%
G04 #@! TD*
G04 #@! TA.AperFunction,Profile*
%ADD11C,0.050000*%
G04 #@! TD*
G04 APERTURE END LIST*
D10*
X226096317Y-174450746D02*
X208830583Y-172940190D01*
X243312234Y-177771437D02*
X239261700Y-176984900D01*
X262390286Y-190283264D02*
X247683082Y-184750676D01*
X262390296Y-190283238D02*
G75*
G03*
X266265642Y-188501430I1056304J2807838D01*
G01*
X177405749Y-95349089D02*
X196362483Y-92288366D01*
X266265643Y-188501430D02*
X274914346Y-164739316D01*
X186032473Y-172550220D02*
X142313982Y-160681075D01*
X277000066Y-98946830D02*
G75*
G03*
X274199423Y-95953463I-2999966J30D01*
G01*
X218699619Y-92256642D02*
G75*
G03*
X218500232Y-92250011I-199319J-2992158D01*
G01*
X142610442Y-101104751D02*
X177394337Y-95350954D01*
X245739783Y-180717407D02*
G75*
G03*
X243312234Y-177771437I-2999983J1107D01*
G01*
X140100023Y-157785876D02*
G75*
G03*
X142313982Y-160681075I2999977J-24D01*
G01*
X245739405Y-181941692D02*
G75*
G03*
X247683082Y-184750675I2999995J-1108D01*
G01*
X196840665Y-92250006D02*
G75*
G03*
X196362483Y-92288367I35J-2999994D01*
G01*
X245739362Y-181941692D02*
X245739806Y-180717407D01*
X208606806Y-172929011D02*
X186780802Y-172654785D01*
X186032474Y-172550214D02*
G75*
G03*
X186780802Y-172654783I786026J2895114D01*
G01*
X274845806Y-153723015D02*
X272296131Y-154472218D01*
X274914368Y-164739324D02*
G75*
G03*
X273632749Y-161137184I-2819168J1026024D01*
G01*
X142610442Y-101104751D02*
G75*
G03*
X140100036Y-104064531I489558J-2959749D01*
G01*
X277000036Y-150844704D02*
X277000036Y-98946830D01*
X239261700Y-176984900D02*
X226405289Y-174494063D01*
X271604384Y-159926591D02*
X273632749Y-161137183D01*
X196840665Y-92250011D02*
X218500232Y-92250011D01*
X218699619Y-92256644D02*
X274199423Y-95953463D01*
X226405289Y-174494061D02*
G75*
G03*
X226096317Y-174450746I-570389J-2945039D01*
G01*
X140100036Y-157785887D02*
X140100036Y-104064531D01*
X177405749Y-95349090D02*
G75*
G03*
X177394338Y-95350955I483651J-2994810D01*
G01*
X274845812Y-153723036D02*
G75*
G03*
X277000036Y-150844704I-845812J2878336D01*
G01*
X272296084Y-154472168D02*
G75*
G03*
X271604384Y-159926591I845816J-2878332D01*
G01*
X208830583Y-172940191D02*
G75*
G03*
X208606806Y-172929012I-261483J-2989009D01*
G01*
D11*
X167523600Y-105223600D02*
X170876400Y-105223600D01*
X170876400Y-105223600D02*
X170876400Y-108576400D01*
X170876400Y-108576400D02*
X167523600Y-108576400D01*
X167523600Y-108576400D02*
X167523600Y-105223600D01*
X244323600Y-101313600D02*
X247676400Y-101313600D01*
X247676400Y-101313600D02*
X247676400Y-104666400D01*
X247676400Y-104666400D02*
X244323600Y-104666400D01*
X244323600Y-104666400D02*
X244323600Y-101313600D01*
X225123600Y-136823600D02*
X228476400Y-136823600D01*
X228476400Y-136823600D02*
X228476400Y-140176400D01*
X228476400Y-140176400D02*
X225123600Y-140176400D01*
X225123600Y-140176400D02*
X225123600Y-136823600D01*
X254063622Y-172682916D02*
X255210347Y-169532315D01*
X255210347Y-169532315D02*
X258360948Y-170679040D01*
X258360948Y-170679040D02*
X257214223Y-173829641D01*
X257214223Y-173829641D02*
X254063622Y-172682916D01*
X244323600Y-96013600D02*
X247676400Y-96013600D01*
X247676400Y-96013600D02*
X247676400Y-99366400D01*
X247676400Y-99366400D02*
X244323600Y-99366400D01*
X244323600Y-99366400D02*
X244323600Y-96013600D01*
X167523600Y-161874200D02*
X170876400Y-161874200D01*
X170876400Y-161874200D02*
X170876400Y-165227000D01*
X170876400Y-165227000D02*
X167523600Y-165227000D01*
X167523600Y-165227000D02*
X167523600Y-161874200D01*
X217194758Y-157785106D02*
X220534800Y-158077322D01*
X220534800Y-158077322D02*
X220242584Y-161417364D01*
X220242584Y-161417364D02*
X216902542Y-161125148D01*
X216902542Y-161125148D02*
X217194758Y-157785106D01*
X238476604Y-160708867D02*
X241767804Y-161348611D01*
X241767804Y-161348611D02*
X241128060Y-164639811D01*
X241128060Y-164639811D02*
X237836860Y-164000067D01*
X237836860Y-164000067D02*
X238476604Y-160708867D01*
X244323600Y-139713600D02*
X247676400Y-139713600D01*
X247676400Y-139713600D02*
X247676400Y-143066400D01*
X247676400Y-143066400D02*
X244323600Y-143066400D01*
X244323600Y-143066400D02*
X244323600Y-139713600D01*
X148323600Y-105223600D02*
X151676400Y-105223600D01*
X151676400Y-105223600D02*
X151676400Y-108576400D01*
X151676400Y-108576400D02*
X148323600Y-108576400D01*
X148323600Y-108576400D02*
X148323600Y-105223600D01*
X248676337Y-170673938D02*
X249823062Y-167523337D01*
X249823062Y-167523337D02*
X252973663Y-168670062D01*
X252973663Y-168670062D02*
X251826938Y-171820663D01*
X251826938Y-171820663D02*
X248676337Y-170673938D01*
X225123600Y-98423600D02*
X228476400Y-98423600D01*
X228476400Y-98423600D02*
X228476400Y-101776400D01*
X228476400Y-101776400D02*
X225123600Y-101776400D01*
X225123600Y-101776400D02*
X225123600Y-98423600D01*
X195723600Y-156823600D02*
X199076400Y-156823600D01*
X199076400Y-156823600D02*
X199076400Y-160176400D01*
X199076400Y-160176400D02*
X195723600Y-160176400D01*
X195723600Y-160176400D02*
X195723600Y-156823600D01*
X225123600Y-117623600D02*
X228476400Y-117623600D01*
X228476400Y-117623600D02*
X228476400Y-120976400D01*
X228476400Y-120976400D02*
X225123600Y-120976400D01*
X225123600Y-120976400D02*
X225123600Y-117623600D01*
X186723600Y-136823600D02*
X190076400Y-136823600D01*
X190076400Y-136823600D02*
X190076400Y-140176400D01*
X190076400Y-140176400D02*
X186723600Y-140176400D01*
X186723600Y-140176400D02*
X186723600Y-136823600D01*
X148323600Y-124423600D02*
X151676400Y-124423600D01*
X151676400Y-124423600D02*
X151676400Y-127776400D01*
X151676400Y-127776400D02*
X148323600Y-127776400D01*
X148323600Y-127776400D02*
X148323600Y-124423600D01*
X186723600Y-98423600D02*
X190076400Y-98423600D01*
X190076400Y-98423600D02*
X190076400Y-101776400D01*
X190076400Y-101776400D02*
X186723600Y-101776400D01*
X186723600Y-101776400D02*
X186723600Y-98423600D01*
X205923600Y-114733600D02*
X209276400Y-114733600D01*
X209276400Y-114733600D02*
X209276400Y-118086400D01*
X209276400Y-118086400D02*
X205923600Y-118086400D01*
X205923600Y-118086400D02*
X205923600Y-114733600D01*
X205923600Y-133933600D02*
X209276400Y-133933600D01*
X209276400Y-133933600D02*
X209276400Y-137286400D01*
X209276400Y-137286400D02*
X205923600Y-137286400D01*
X205923600Y-137286400D02*
X205923600Y-133933600D01*
X167523600Y-124423600D02*
X170876400Y-124423600D01*
X170876400Y-124423600D02*
X170876400Y-127776400D01*
X170876400Y-127776400D02*
X167523600Y-127776400D01*
X167523600Y-127776400D02*
X167523600Y-124423600D01*
X244323600Y-120513600D02*
X247676400Y-120513600D01*
X247676400Y-120513600D02*
X247676400Y-123866400D01*
X247676400Y-123866400D02*
X244323600Y-123866400D01*
X244323600Y-123866400D02*
X244323600Y-120513600D01*
X205923600Y-95533600D02*
X209276400Y-95533600D01*
X209276400Y-95533600D02*
X209276400Y-98886400D01*
X209276400Y-98886400D02*
X205923600Y-98886400D01*
X205923600Y-98886400D02*
X205923600Y-95533600D01*
X167523600Y-99923600D02*
X170876400Y-99923600D01*
X170876400Y-99923600D02*
X170876400Y-103276400D01*
X170876400Y-103276400D02*
X167523600Y-103276400D01*
X167523600Y-103276400D02*
X167523600Y-99923600D01*
X186723600Y-117623600D02*
X190076400Y-117623600D01*
X190076400Y-117623600D02*
X190076400Y-120976400D01*
X190076400Y-120976400D02*
X186723600Y-120976400D01*
X186723600Y-120976400D02*
X186723600Y-117623600D01*
X148323600Y-143623600D02*
X151676400Y-143623600D01*
X151676400Y-143623600D02*
X151676400Y-146976400D01*
X151676400Y-146976400D02*
X148323600Y-146976400D01*
X148323600Y-146976400D02*
X148323600Y-143623600D01*
X205923600Y-150633600D02*
X209276400Y-150633600D01*
X209276400Y-150633600D02*
X209276400Y-153986400D01*
X209276400Y-153986400D02*
X205923600Y-153986400D01*
X205923600Y-153986400D02*
X205923600Y-150633600D01*
X205923600Y-110233600D02*
X209276400Y-110233600D01*
X209276400Y-110233600D02*
X209276400Y-113586400D01*
X209276400Y-113586400D02*
X205923600Y-113586400D01*
X205923600Y-113586400D02*
X205923600Y-110233600D01*
X167523600Y-143623600D02*
X170876400Y-143623600D01*
X170876400Y-143623600D02*
X170876400Y-146976400D01*
X170876400Y-146976400D02*
X167523600Y-146976400D01*
X167523600Y-146976400D02*
X167523600Y-143623600D01*
M02*
