G04 #@! TF.GenerationSoftware,KiCad,Pcbnew,7.0.7*
G04 #@! TF.CreationDate,2023-09-27T23:26:32-04:00*
G04 #@! TF.ProjectId,keybear-chocolate,6b657962-6561-4722-9d63-686f636f6c61,v1.0.0*
G04 #@! TF.SameCoordinates,Original*
G04 #@! TF.FileFunction,Profile,NP*
%FSLAX46Y46*%
G04 Gerber Fmt 4.6, Leading zero omitted, Abs format (unit mm)*
G04 Created by KiCad (PCBNEW 7.0.7) date 2023-09-27 23:26:32*
%MOMM*%
%LPD*%
G01*
G04 APERTURE LIST*
G04 #@! TA.AperFunction,Profile*
%ADD10C,0.150000*%
G04 #@! TD*
G04 #@! TA.AperFunction,Profile*
%ADD11C,0.050000*%
G04 #@! TD*
G04 APERTURE END LIST*
D10*
X278000043Y-98849857D02*
G75*
G03*
X274247337Y-94857511I-4000043J-43D01*
G01*
X274950027Y-152695762D02*
G75*
G03*
X275445320Y-159993942I1863373J-3539438D01*
G01*
X283464200Y-175682709D02*
X287753825Y-177244005D01*
X196899356Y-91409995D02*
G75*
G03*
X196303980Y-91454558I44J-4000105D01*
G01*
X290144519Y-182370857D02*
G75*
G03*
X287753825Y-177244005I-3758819J1368057D01*
G01*
X275445319Y-159993942D02*
X276822986Y-160495371D01*
X281036049Y-173184385D02*
G75*
G03*
X283464201Y-175682710I3796251J1260485D01*
G01*
X217523391Y-176821714D02*
G75*
G03*
X217079165Y-176781892I-578691J-3957786D01*
G01*
X276467141Y-208253916D02*
G75*
G03*
X281594011Y-205863171I1368059J3758816D01*
G01*
X177451160Y-94292299D02*
X196303979Y-91454557D01*
X276822986Y-160495371D02*
X281036061Y-173184381D01*
X245576094Y-184205808D02*
G75*
G03*
X246042486Y-184410052I1834606J3554708D01*
G01*
X290144516Y-182370856D02*
X281594012Y-205863172D01*
X253851171Y-187252181D02*
X246042485Y-184410052D01*
X217079165Y-176781891D02*
X186958578Y-175768788D01*
X259882608Y-200603031D02*
G75*
G03*
X262310764Y-203101355I3796192J1260431D01*
G01*
X276467161Y-208253862D02*
X262310763Y-203101354D01*
X237295867Y-179932427D02*
G75*
G03*
X236040078Y-179529048I-1834467J-3554573D01*
G01*
X218793241Y-91428808D02*
G75*
G03*
X218405845Y-91410000I-387441J-3981292D01*
G01*
X259882624Y-200603026D02*
X256279311Y-189750510D01*
X275863402Y-152214854D02*
G75*
G03*
X278000000Y-148675389I-1863402J3539454D01*
G01*
X185867964Y-175578828D02*
X141774923Y-161392776D01*
X142302518Y-100515179D02*
X177349055Y-94309021D01*
X275863397Y-152214845D02*
X274950002Y-152695715D01*
X236040079Y-179529047D02*
X217523391Y-176821712D01*
X177451160Y-94292299D02*
G75*
G03*
X177349055Y-94309021I595540J-3956401D01*
G01*
X185867961Y-175578836D02*
G75*
G03*
X186958577Y-175768788I1225039J3807736D01*
G01*
X278000000Y-148675389D02*
X278000000Y-98849857D01*
X139000004Y-157584996D02*
G75*
G03*
X141774923Y-161392776I3999996J-4D01*
G01*
X256279285Y-189750519D02*
G75*
G03*
X253851171Y-187252181I-3796185J-1260381D01*
G01*
X245576091Y-184205814D02*
X237295864Y-179932433D01*
X196899356Y-91410000D02*
X218405845Y-91410000D01*
X142302518Y-100515179D02*
G75*
G03*
X138999999Y-104453900I697482J-3938721D01*
G01*
X218793241Y-91428804D02*
X274247337Y-94857511D01*
X139000000Y-157584996D02*
X139000000Y-104453900D01*
D11*
X167523600Y-105223600D02*
X170876400Y-105223600D01*
X170876400Y-105223600D02*
X170876400Y-108576400D01*
X170876400Y-108576400D02*
X167523600Y-108576400D01*
X167523600Y-108576400D02*
X167523600Y-105223600D01*
X244323600Y-101313600D02*
X247676400Y-101313600D01*
X247676400Y-101313600D02*
X247676400Y-104666400D01*
X247676400Y-104666400D02*
X244323600Y-104666400D01*
X244323600Y-104666400D02*
X244323600Y-101313600D01*
X225123600Y-136823600D02*
X228476400Y-136823600D01*
X228476400Y-136823600D02*
X228476400Y-140176400D01*
X228476400Y-140176400D02*
X225123600Y-140176400D01*
X225123600Y-140176400D02*
X225123600Y-136823600D01*
X254747663Y-171803531D02*
X255894388Y-168652930D01*
X255894388Y-168652930D02*
X259044989Y-169799655D01*
X259044989Y-169799655D02*
X257898264Y-172950256D01*
X257898264Y-172950256D02*
X254747663Y-171803531D01*
X244323600Y-96013600D02*
X247676400Y-96013600D01*
X247676400Y-96013600D02*
X247676400Y-99366400D01*
X247676400Y-99366400D02*
X244323600Y-99366400D01*
X244323600Y-99366400D02*
X244323600Y-96013600D01*
X167523600Y-139123600D02*
X170876400Y-139123600D01*
X170876400Y-139123600D02*
X170876400Y-142476400D01*
X170876400Y-142476400D02*
X167523600Y-142476400D01*
X167523600Y-142476400D02*
X167523600Y-139123600D01*
X217194758Y-158785106D02*
X220534800Y-159077322D01*
X220534800Y-159077322D02*
X220242584Y-162417364D01*
X220242584Y-162417364D02*
X216902542Y-162125148D01*
X216902542Y-162125148D02*
X217194758Y-158785106D01*
X238476604Y-161708867D02*
X241767804Y-162348611D01*
X241767804Y-162348611D02*
X241128060Y-165639811D01*
X241128060Y-165639811D02*
X237836860Y-165000067D01*
X237836860Y-165000067D02*
X238476604Y-161708867D01*
X244323600Y-139713600D02*
X247676400Y-139713600D01*
X247676400Y-139713600D02*
X247676400Y-143066400D01*
X247676400Y-143066400D02*
X244323600Y-143066400D01*
X244323600Y-143066400D02*
X244323600Y-139713600D01*
X148323600Y-105223600D02*
X151676400Y-105223600D01*
X151676400Y-105223600D02*
X151676400Y-108576400D01*
X151676400Y-108576400D02*
X148323600Y-108576400D01*
X148323600Y-108576400D02*
X148323600Y-105223600D01*
X266514694Y-182464664D02*
X267661419Y-179314063D01*
X267661419Y-179314063D02*
X270812020Y-180460788D01*
X270812020Y-180460788D02*
X269665295Y-183611389D01*
X269665295Y-183611389D02*
X266514694Y-182464664D01*
X225123600Y-98423600D02*
X228476400Y-98423600D01*
X228476400Y-98423600D02*
X228476400Y-101776400D01*
X228476400Y-101776400D02*
X225123600Y-101776400D01*
X225123600Y-101776400D02*
X225123600Y-98423600D01*
X195723600Y-157823600D02*
X199076400Y-157823600D01*
X199076400Y-157823600D02*
X199076400Y-161176400D01*
X199076400Y-161176400D02*
X195723600Y-161176400D01*
X195723600Y-161176400D02*
X195723600Y-157823600D01*
X225123600Y-117623600D02*
X228476400Y-117623600D01*
X228476400Y-117623600D02*
X228476400Y-120976400D01*
X228476400Y-120976400D02*
X225123600Y-120976400D01*
X225123600Y-120976400D02*
X225123600Y-117623600D01*
X186723600Y-136823600D02*
X190076400Y-136823600D01*
X190076400Y-136823600D02*
X190076400Y-140176400D01*
X190076400Y-140176400D02*
X186723600Y-140176400D01*
X186723600Y-140176400D02*
X186723600Y-136823600D01*
X148323600Y-124423600D02*
X151676400Y-124423600D01*
X151676400Y-124423600D02*
X151676400Y-127776400D01*
X151676400Y-127776400D02*
X148323600Y-127776400D01*
X148323600Y-127776400D02*
X148323600Y-124423600D01*
X186723600Y-98423600D02*
X190076400Y-98423600D01*
X190076400Y-98423600D02*
X190076400Y-101776400D01*
X190076400Y-101776400D02*
X186723600Y-101776400D01*
X186723600Y-101776400D02*
X186723600Y-98423600D01*
X205923600Y-114733600D02*
X209276400Y-114733600D01*
X209276400Y-114733600D02*
X209276400Y-118086400D01*
X209276400Y-118086400D02*
X205923600Y-118086400D01*
X205923600Y-118086400D02*
X205923600Y-114733600D01*
X269437273Y-189920245D02*
X270583998Y-186769644D01*
X270583998Y-186769644D02*
X273734599Y-187916369D01*
X273734599Y-187916369D02*
X272587874Y-191066970D01*
X272587874Y-191066970D02*
X269437273Y-189920245D01*
X205923600Y-133933600D02*
X209276400Y-133933600D01*
X209276400Y-133933600D02*
X209276400Y-137286400D01*
X209276400Y-137286400D02*
X205923600Y-137286400D01*
X205923600Y-137286400D02*
X205923600Y-133933600D01*
X167523600Y-124423600D02*
X170876400Y-124423600D01*
X170876400Y-124423600D02*
X170876400Y-127776400D01*
X170876400Y-127776400D02*
X167523600Y-127776400D01*
X167523600Y-127776400D02*
X167523600Y-124423600D01*
X244323600Y-120513600D02*
X247676400Y-120513600D01*
X247676400Y-120513600D02*
X247676400Y-123866400D01*
X247676400Y-123866400D02*
X244323600Y-123866400D01*
X244323600Y-123866400D02*
X244323600Y-120513600D01*
X205923600Y-95533600D02*
X209276400Y-95533600D01*
X209276400Y-95533600D02*
X209276400Y-98886400D01*
X209276400Y-98886400D02*
X205923600Y-98886400D01*
X205923600Y-98886400D02*
X205923600Y-95533600D01*
X167523600Y-99923600D02*
X170876400Y-99923600D01*
X170876400Y-99923600D02*
X170876400Y-103276400D01*
X170876400Y-103276400D02*
X167523600Y-103276400D01*
X167523600Y-103276400D02*
X167523600Y-99923600D01*
X186723600Y-117623600D02*
X190076400Y-117623600D01*
X190076400Y-117623600D02*
X190076400Y-120976400D01*
X190076400Y-120976400D02*
X186723600Y-120976400D01*
X186723600Y-120976400D02*
X186723600Y-117623600D01*
X148323600Y-143623600D02*
X151676400Y-143623600D01*
X151676400Y-143623600D02*
X151676400Y-146976400D01*
X151676400Y-146976400D02*
X148323600Y-146976400D01*
X148323600Y-146976400D02*
X148323600Y-143623600D01*
X205923600Y-150633600D02*
X209276400Y-150633600D01*
X209276400Y-150633600D02*
X209276400Y-153986400D01*
X209276400Y-153986400D02*
X205923600Y-153986400D01*
X205923600Y-153986400D02*
X205923600Y-150633600D01*
X205923600Y-110233600D02*
X209276400Y-110233600D01*
X209276400Y-110233600D02*
X209276400Y-113586400D01*
X209276400Y-113586400D02*
X205923600Y-113586400D01*
X205923600Y-113586400D02*
X205923600Y-110233600D01*
X167523600Y-143623600D02*
X170876400Y-143623600D01*
X170876400Y-143623600D02*
X170876400Y-146976400D01*
X170876400Y-146976400D02*
X167523600Y-146976400D01*
X167523600Y-146976400D02*
X167523600Y-143623600D01*
M02*
