G04 #@! TF.GenerationSoftware,KiCad,Pcbnew,7.0.7*
G04 #@! TF.CreationDate,2024-01-28T17:29:48-05:00*
G04 #@! TF.ProjectId,keybear-chocolate,6b657962-6561-4722-9d63-686f636f6c61,v1.0.0*
G04 #@! TF.SameCoordinates,Original*
G04 #@! TF.FileFunction,Legend,Top*
G04 #@! TF.FilePolarity,Positive*
%FSLAX46Y46*%
G04 Gerber Fmt 4.6, Leading zero omitted, Abs format (unit mm)*
G04 Created by KiCad (PCBNEW 7.0.7) date 2024-01-28 17:29:48*
%MOMM*%
%LPD*%
G01*
G04 APERTURE LIST*
G04 Aperture macros list*
%AMRoundRect*
0 Rectangle with rounded corners*
0 $1 Rounding radius*
0 $2 $3 $4 $5 $6 $7 $8 $9 X,Y pos of 4 corners*
0 Add a 4 corners polygon primitive as box body*
4,1,4,$2,$3,$4,$5,$6,$7,$8,$9,$2,$3,0*
0 Add four circle primitives for the rounded corners*
1,1,$1+$1,$2,$3*
1,1,$1+$1,$4,$5*
1,1,$1+$1,$6,$7*
1,1,$1+$1,$8,$9*
0 Add four rect primitives between the rounded corners*
20,1,$1+$1,$2,$3,$4,$5,0*
20,1,$1+$1,$4,$5,$6,$7,0*
20,1,$1+$1,$6,$7,$8,$9,0*
20,1,$1+$1,$8,$9,$2,$3,0*%
G04 Aperture macros list end*
%ADD10C,0.120000*%
%ADD11C,0.200000*%
%ADD12C,0.500000*%
%ADD13C,0.300000*%
%ADD14C,0.150000*%
%ADD15C,0.100000*%
%ADD16C,0.125000*%
%ADD17C,2.000000*%
%ADD18C,1.397000*%
%ADD19C,1.524000*%
%ADD20C,1.900000*%
%ADD21C,1.100000*%
%ADD22C,3.100000*%
%ADD23C,3.500000*%
%ADD24RoundRect,0.050000X0.800000X1.100000X-0.800000X1.100000X-0.800000X-1.100000X0.800000X-1.100000X0*%
%ADD25RoundRect,0.050000X-0.475000X0.650000X-0.475000X-0.650000X0.475000X-0.650000X0.475000X0.650000X0*%
%ADD26RoundRect,0.050000X-0.690000X-0.500000X0.690000X-0.500000X0.690000X0.500000X-0.690000X0.500000X0*%
%ADD27C,4.800000*%
%ADD28C,2.100000*%
%ADD29C,1.497000*%
%ADD30RoundRect,0.050000X0.571500X-0.317500X0.571500X0.317500X-0.571500X0.317500X-0.571500X-0.317500X0*%
%ADD31RoundRect,0.050000X0.233852X-0.819398X0.705840X0.477378X-0.233852X0.819398X-0.705840X-0.477378X0*%
%ADD32RoundRect,0.050000X-1.600000X-1.000000X1.600000X-1.000000X1.600000X1.000000X-1.600000X1.000000X0*%
%ADD33RoundRect,0.050000X1.250000X-1.500000X1.250000X1.500000X-1.250000X1.500000X-1.250000X-1.500000X0*%
%ADD34C,1.624000*%
%ADD35RoundRect,0.050000X-0.760046X1.127976X-1.307278X-0.375532X0.760046X-1.127976X1.307278X0.375532X0*%
%ADD36RoundRect,0.050000X-0.730952X-0.437960X0.643796X-0.558235X0.730952X0.437960X-0.643796X0.558235X0*%
%ADD37RoundRect,0.050000X0.995192X0.927143X-0.575412X1.232437X-0.995192X-0.927143X0.575412X-1.232437X0*%
%ADD38RoundRect,0.050000X-0.571500X0.317500X-0.571500X-0.317500X0.571500X-0.317500X0.571500X0.317500X0*%
%ADD39RoundRect,0.050000X-0.773260X-0.224041X0.448341X-0.668667X0.773260X0.224041X-0.448341X0.668667X0*%
%ADD40RoundRect,0.050000X-0.772727X-0.359155X0.581918X-0.622472X0.772727X0.359155X-0.581918X0.622472X0*%
%ADD41RoundRect,0.050000X-0.650000X-0.475000X0.650000X-0.475000X0.650000X0.475000X-0.650000X0.475000X0*%
%ADD42RoundRect,0.050000X-1.116140X-1.460901X0.236156X-1.823247X1.116140X1.460901X-0.236156X1.823247X0*%
%ADD43RoundRect,0.050000X-0.342247X0.728692X-0.590299X-0.547423X0.342247X-0.728692X0.590299X0.547423X0*%
%ADD44RoundRect,0.050000X-0.762000X-0.762000X0.762000X-0.762000X0.762000X0.762000X-0.762000X0.762000X0*%
%ADD45RoundRect,0.300000X0.625000X-0.312500X0.625000X0.312500X-0.625000X0.312500X-0.625000X-0.312500X0*%
%ADD46RoundRect,0.050000X0.892827X1.026090X-0.701084X1.165539X-0.892827X-1.026090X0.701084X-1.165539X0*%
%ADD47C,0.750000*%
%ADD48RoundRect,0.050000X0.300000X0.620000X-0.300000X0.620000X-0.300000X-0.620000X0.300000X-0.620000X0*%
%ADD49RoundRect,0.050000X0.150000X0.620000X-0.150000X0.620000X-0.150000X-0.620000X0.150000X-0.620000X0*%
%ADD50O,1.100000X2.200000*%
%ADD51O,1.100000X1.900000*%
%ADD52RoundRect,0.050000X-0.416541X0.688926X-0.529844X-0.606128X0.416541X-0.688926X0.529844X0.606128X0*%
%ADD53RoundRect,0.050000X-0.523487X-0.368730X0.474648X-0.429778X0.523487X0.368730X-0.474648X0.429778X0*%
%ADD54C,1.000000*%
%ADD55RoundRect,0.050000X-0.395134X-0.727234X0.303561X-0.769968X0.395134X0.727234X-0.303561X0.769968X0*%
G04 APERTURE END LIST*
D10*
X262788400Y-110896400D02*
X262788400Y-95199200D01*
X261620000Y-109728000D02*
X272288000Y-109728000D01*
X271322800Y-110896400D02*
X271322800Y-95758000D01*
X272288000Y-95808800D02*
X272288000Y-110896400D01*
X261620000Y-110896400D01*
X261620000Y-108712000D01*
X261620000Y-95123000D01*
X272288000Y-95808800D01*
D11*
X261862673Y-134995219D02*
X261862673Y-133995219D01*
X262434101Y-134995219D02*
X262005530Y-134423790D01*
X262434101Y-133995219D02*
X261862673Y-134566647D01*
X263243625Y-134947600D02*
X263148387Y-134995219D01*
X263148387Y-134995219D02*
X262957911Y-134995219D01*
X262957911Y-134995219D02*
X262862673Y-134947600D01*
X262862673Y-134947600D02*
X262815054Y-134852361D01*
X262815054Y-134852361D02*
X262815054Y-134471409D01*
X262815054Y-134471409D02*
X262862673Y-134376171D01*
X262862673Y-134376171D02*
X262957911Y-134328552D01*
X262957911Y-134328552D02*
X263148387Y-134328552D01*
X263148387Y-134328552D02*
X263243625Y-134376171D01*
X263243625Y-134376171D02*
X263291244Y-134471409D01*
X263291244Y-134471409D02*
X263291244Y-134566647D01*
X263291244Y-134566647D02*
X262815054Y-134661885D01*
X263624578Y-134328552D02*
X263862673Y-134995219D01*
X264100768Y-134328552D02*
X263862673Y-134995219D01*
X263862673Y-134995219D02*
X263767435Y-135233314D01*
X263767435Y-135233314D02*
X263719816Y-135280933D01*
X263719816Y-135280933D02*
X263624578Y-135328552D01*
X264481721Y-134995219D02*
X264481721Y-133995219D01*
X264481721Y-134376171D02*
X264576959Y-134328552D01*
X264576959Y-134328552D02*
X264767435Y-134328552D01*
X264767435Y-134328552D02*
X264862673Y-134376171D01*
X264862673Y-134376171D02*
X264910292Y-134423790D01*
X264910292Y-134423790D02*
X264957911Y-134519028D01*
X264957911Y-134519028D02*
X264957911Y-134804742D01*
X264957911Y-134804742D02*
X264910292Y-134899980D01*
X264910292Y-134899980D02*
X264862673Y-134947600D01*
X264862673Y-134947600D02*
X264767435Y-134995219D01*
X264767435Y-134995219D02*
X264576959Y-134995219D01*
X264576959Y-134995219D02*
X264481721Y-134947600D01*
X265767435Y-134947600D02*
X265672197Y-134995219D01*
X265672197Y-134995219D02*
X265481721Y-134995219D01*
X265481721Y-134995219D02*
X265386483Y-134947600D01*
X265386483Y-134947600D02*
X265338864Y-134852361D01*
X265338864Y-134852361D02*
X265338864Y-134471409D01*
X265338864Y-134471409D02*
X265386483Y-134376171D01*
X265386483Y-134376171D02*
X265481721Y-134328552D01*
X265481721Y-134328552D02*
X265672197Y-134328552D01*
X265672197Y-134328552D02*
X265767435Y-134376171D01*
X265767435Y-134376171D02*
X265815054Y-134471409D01*
X265815054Y-134471409D02*
X265815054Y-134566647D01*
X265815054Y-134566647D02*
X265338864Y-134661885D01*
X266672197Y-134995219D02*
X266672197Y-134471409D01*
X266672197Y-134471409D02*
X266624578Y-134376171D01*
X266624578Y-134376171D02*
X266529340Y-134328552D01*
X266529340Y-134328552D02*
X266338864Y-134328552D01*
X266338864Y-134328552D02*
X266243626Y-134376171D01*
X266672197Y-134947600D02*
X266576959Y-134995219D01*
X266576959Y-134995219D02*
X266338864Y-134995219D01*
X266338864Y-134995219D02*
X266243626Y-134947600D01*
X266243626Y-134947600D02*
X266196007Y-134852361D01*
X266196007Y-134852361D02*
X266196007Y-134757123D01*
X266196007Y-134757123D02*
X266243626Y-134661885D01*
X266243626Y-134661885D02*
X266338864Y-134614266D01*
X266338864Y-134614266D02*
X266576959Y-134614266D01*
X266576959Y-134614266D02*
X266672197Y-134566647D01*
X267148388Y-134995219D02*
X267148388Y-134328552D01*
X267148388Y-134519028D02*
X267196007Y-134423790D01*
X267196007Y-134423790D02*
X267243626Y-134376171D01*
X267243626Y-134376171D02*
X267338864Y-134328552D01*
X267338864Y-134328552D02*
X267434102Y-134328552D01*
X268434103Y-134328552D02*
X268672198Y-134995219D01*
X268672198Y-134995219D02*
X268910293Y-134328552D01*
X269481722Y-133995219D02*
X269576960Y-133995219D01*
X269576960Y-133995219D02*
X269672198Y-134042838D01*
X269672198Y-134042838D02*
X269719817Y-134090457D01*
X269719817Y-134090457D02*
X269767436Y-134185695D01*
X269767436Y-134185695D02*
X269815055Y-134376171D01*
X269815055Y-134376171D02*
X269815055Y-134614266D01*
X269815055Y-134614266D02*
X269767436Y-134804742D01*
X269767436Y-134804742D02*
X269719817Y-134899980D01*
X269719817Y-134899980D02*
X269672198Y-134947600D01*
X269672198Y-134947600D02*
X269576960Y-134995219D01*
X269576960Y-134995219D02*
X269481722Y-134995219D01*
X269481722Y-134995219D02*
X269386484Y-134947600D01*
X269386484Y-134947600D02*
X269338865Y-134899980D01*
X269338865Y-134899980D02*
X269291246Y-134804742D01*
X269291246Y-134804742D02*
X269243627Y-134614266D01*
X269243627Y-134614266D02*
X269243627Y-134376171D01*
X269243627Y-134376171D02*
X269291246Y-134185695D01*
X269291246Y-134185695D02*
X269338865Y-134090457D01*
X269338865Y-134090457D02*
X269386484Y-134042838D01*
X269386484Y-134042838D02*
X269481722Y-133995219D01*
X270243627Y-134899980D02*
X270291246Y-134947600D01*
X270291246Y-134947600D02*
X270243627Y-134995219D01*
X270243627Y-134995219D02*
X270196008Y-134947600D01*
X270196008Y-134947600D02*
X270243627Y-134899980D01*
X270243627Y-134899980D02*
X270243627Y-134995219D01*
X271148388Y-133995219D02*
X270957912Y-133995219D01*
X270957912Y-133995219D02*
X270862674Y-134042838D01*
X270862674Y-134042838D02*
X270815055Y-134090457D01*
X270815055Y-134090457D02*
X270719817Y-134233314D01*
X270719817Y-134233314D02*
X270672198Y-134423790D01*
X270672198Y-134423790D02*
X270672198Y-134804742D01*
X270672198Y-134804742D02*
X270719817Y-134899980D01*
X270719817Y-134899980D02*
X270767436Y-134947600D01*
X270767436Y-134947600D02*
X270862674Y-134995219D01*
X270862674Y-134995219D02*
X271053150Y-134995219D01*
X271053150Y-134995219D02*
X271148388Y-134947600D01*
X271148388Y-134947600D02*
X271196007Y-134899980D01*
X271196007Y-134899980D02*
X271243626Y-134804742D01*
X271243626Y-134804742D02*
X271243626Y-134566647D01*
X271243626Y-134566647D02*
X271196007Y-134471409D01*
X271196007Y-134471409D02*
X271148388Y-134423790D01*
X271148388Y-134423790D02*
X271053150Y-134376171D01*
X271053150Y-134376171D02*
X270862674Y-134376171D01*
X270862674Y-134376171D02*
X270767436Y-134423790D01*
X270767436Y-134423790D02*
X270719817Y-134471409D01*
X270719817Y-134471409D02*
X270672198Y-134566647D01*
D12*
X251545916Y-159478535D02*
X252701311Y-162893951D01*
X253477768Y-159996173D02*
X250769459Y-162376313D01*
X254219194Y-163300667D02*
X253980190Y-163088729D01*
X253980190Y-163088729D02*
X253879174Y-162913765D01*
X253879174Y-162913765D02*
X253815133Y-162600812D01*
X253815133Y-162600812D02*
X254036978Y-161772876D01*
X254036978Y-161772876D02*
X254248916Y-161533871D01*
X254248916Y-161533871D02*
X254423879Y-161432856D01*
X254423879Y-161432856D02*
X254736832Y-161368815D01*
X254736832Y-161368815D02*
X255150801Y-161479737D01*
X255150801Y-161479737D02*
X255389805Y-161691675D01*
X255389805Y-161691675D02*
X255490820Y-161866639D01*
X255490820Y-161866639D02*
X255554862Y-162179592D01*
X255554862Y-162179592D02*
X255333017Y-163007528D01*
X255333017Y-163007528D02*
X255121079Y-163246533D01*
X255121079Y-163246533D02*
X254946115Y-163347548D01*
X254946115Y-163347548D02*
X254633162Y-163411589D01*
X254633162Y-163411589D02*
X254219194Y-163300667D01*
X256530695Y-161849479D02*
X257634610Y-162145272D01*
X256427025Y-163892253D02*
X257092560Y-161408444D01*
X257092560Y-161408444D02*
X257304497Y-161169439D01*
X257304497Y-161169439D02*
X257617450Y-161105398D01*
X257617450Y-161105398D02*
X257893429Y-161179346D01*
X258186568Y-162293169D02*
X259290483Y-162588962D01*
X258082898Y-164335943D02*
X258748433Y-161852134D01*
X258748433Y-161852134D02*
X258960370Y-161613129D01*
X258960370Y-161613129D02*
X259273323Y-161549088D01*
X259273323Y-161549088D02*
X259549302Y-161623036D01*
X259738771Y-164779633D02*
X260256409Y-162847781D01*
X260515228Y-161881855D02*
X260340265Y-161982871D01*
X260340265Y-161982871D02*
X260441280Y-162157834D01*
X260441280Y-162157834D02*
X260616244Y-162056819D01*
X260616244Y-162056819D02*
X260515228Y-161881855D01*
X260515228Y-161881855D02*
X260441280Y-162157834D01*
X261532633Y-165260297D02*
X261293628Y-165048359D01*
X261293628Y-165048359D02*
X261192613Y-164873395D01*
X261192613Y-164873395D02*
X261128572Y-164560442D01*
X261128572Y-164560442D02*
X261350417Y-163732506D01*
X261350417Y-163732506D02*
X261562355Y-163493501D01*
X261562355Y-163493501D02*
X261737318Y-163392486D01*
X261737318Y-163392486D02*
X262050271Y-163328445D01*
X262050271Y-163328445D02*
X262464239Y-163439367D01*
X262464239Y-163439367D02*
X262703244Y-163651305D01*
X262703244Y-163651305D02*
X262804259Y-163826269D01*
X262804259Y-163826269D02*
X262868300Y-164139222D01*
X262868300Y-164139222D02*
X262646455Y-164967158D01*
X262646455Y-164967158D02*
X262434518Y-165206163D01*
X262434518Y-165206163D02*
X262259554Y-165307178D01*
X262259554Y-165307178D02*
X261946601Y-165371219D01*
X261946601Y-165371219D02*
X261532633Y-165260297D01*
D13*
X251923994Y-158037839D02*
X252441632Y-156105987D01*
X252244436Y-156841931D02*
X252453072Y-156799237D01*
X252453072Y-156799237D02*
X252821043Y-156897834D01*
X252821043Y-156897834D02*
X252980380Y-157039126D01*
X252980380Y-157039126D02*
X253047723Y-157155769D01*
X253047723Y-157155769D02*
X253090417Y-157364404D01*
X253090417Y-157364404D02*
X252942521Y-157916362D01*
X252942521Y-157916362D02*
X252801229Y-158075698D01*
X252801229Y-158075698D02*
X252684587Y-158143042D01*
X252684587Y-158143042D02*
X252475951Y-158185736D01*
X252475951Y-158185736D02*
X252107980Y-158087138D01*
X252107980Y-158087138D02*
X251948643Y-157945846D01*
X253832966Y-157168978D02*
X253947838Y-158580127D01*
X254752895Y-157415473D02*
X253947838Y-158580127D01*
X253947838Y-158580127D02*
X253640605Y-158990792D01*
X253640605Y-158990792D02*
X253523963Y-159058136D01*
X253523963Y-159058136D02*
X253315328Y-159100830D01*
D14*
X266703650Y-162744646D02*
X266553286Y-162183167D01*
X266166683Y-162549206D02*
X266508703Y-161609513D01*
X266508703Y-161609513D02*
X266866681Y-161739807D01*
X266866681Y-161739807D02*
X266939889Y-161817127D01*
X266939889Y-161817127D02*
X266968350Y-161878161D01*
X266968350Y-161878161D02*
X266980524Y-161983942D01*
X266980524Y-161983942D02*
X266931664Y-162118184D01*
X266931664Y-162118184D02*
X266854343Y-162191392D01*
X266854343Y-162191392D02*
X266793309Y-162219853D01*
X266793309Y-162219853D02*
X266687528Y-162232027D01*
X266687528Y-162232027D02*
X266329550Y-162101733D01*
X267285529Y-162399006D02*
X267598760Y-162513013D01*
X267553848Y-163054093D02*
X267106376Y-162891226D01*
X267106376Y-162891226D02*
X267448396Y-161951533D01*
X267448396Y-161951533D02*
X267895869Y-162114400D01*
X267928113Y-163139639D02*
X268046068Y-163233246D01*
X268046068Y-163233246D02*
X268269805Y-163314680D01*
X268269805Y-163314680D02*
X268375586Y-163302506D01*
X268375586Y-163302506D02*
X268436620Y-163274045D01*
X268436620Y-163274045D02*
X268513941Y-163200837D01*
X268513941Y-163200837D02*
X268546514Y-163111343D01*
X268546514Y-163111343D02*
X268534340Y-163005561D01*
X268534340Y-163005561D02*
X268505879Y-162944528D01*
X268505879Y-162944528D02*
X268432672Y-162867207D01*
X268432672Y-162867207D02*
X268269969Y-162757313D01*
X268269969Y-162757313D02*
X268196761Y-162679992D01*
X268196761Y-162679992D02*
X268168301Y-162618958D01*
X268168301Y-162618958D02*
X268156127Y-162513177D01*
X268156127Y-162513177D02*
X268188700Y-162423683D01*
X268188700Y-162423683D02*
X268266021Y-162350475D01*
X268266021Y-162350475D02*
X268327055Y-162322014D01*
X268327055Y-162322014D02*
X268432836Y-162309840D01*
X268432836Y-162309840D02*
X268656572Y-162391274D01*
X268656572Y-162391274D02*
X268774527Y-162484881D01*
X269030673Y-163034186D02*
X269343904Y-163148193D01*
X269298992Y-163689273D02*
X268851519Y-163526406D01*
X268851519Y-163526406D02*
X269193539Y-162586714D01*
X269193539Y-162586714D02*
X269641012Y-162749580D01*
X269909496Y-162847301D02*
X270446463Y-163042741D01*
X269835959Y-163884713D02*
X270177979Y-162945021D01*
D15*
X184495619Y-118787172D02*
X185495619Y-118453839D01*
X185495619Y-118453839D02*
X184495619Y-118120506D01*
X185400380Y-117215744D02*
X185448000Y-117263363D01*
X185448000Y-117263363D02*
X185495619Y-117406220D01*
X185495619Y-117406220D02*
X185495619Y-117501458D01*
X185495619Y-117501458D02*
X185448000Y-117644315D01*
X185448000Y-117644315D02*
X185352761Y-117739553D01*
X185352761Y-117739553D02*
X185257523Y-117787172D01*
X185257523Y-117787172D02*
X185067047Y-117834791D01*
X185067047Y-117834791D02*
X184924190Y-117834791D01*
X184924190Y-117834791D02*
X184733714Y-117787172D01*
X184733714Y-117787172D02*
X184638476Y-117739553D01*
X184638476Y-117739553D02*
X184543238Y-117644315D01*
X184543238Y-117644315D02*
X184495619Y-117501458D01*
X184495619Y-117501458D02*
X184495619Y-117406220D01*
X184495619Y-117406220D02*
X184543238Y-117263363D01*
X184543238Y-117263363D02*
X184590857Y-117215744D01*
X185400380Y-116215744D02*
X185448000Y-116263363D01*
X185448000Y-116263363D02*
X185495619Y-116406220D01*
X185495619Y-116406220D02*
X185495619Y-116501458D01*
X185495619Y-116501458D02*
X185448000Y-116644315D01*
X185448000Y-116644315D02*
X185352761Y-116739553D01*
X185352761Y-116739553D02*
X185257523Y-116787172D01*
X185257523Y-116787172D02*
X185067047Y-116834791D01*
X185067047Y-116834791D02*
X184924190Y-116834791D01*
X184924190Y-116834791D02*
X184733714Y-116787172D01*
X184733714Y-116787172D02*
X184638476Y-116739553D01*
X184638476Y-116739553D02*
X184543238Y-116644315D01*
X184543238Y-116644315D02*
X184495619Y-116501458D01*
X184495619Y-116501458D02*
X184495619Y-116406220D01*
X184495619Y-116406220D02*
X184543238Y-116263363D01*
X184543238Y-116263363D02*
X184590857Y-116215744D01*
X179830836Y-118330438D02*
X179783217Y-118425676D01*
X179783217Y-118425676D02*
X179783217Y-118568533D01*
X179783217Y-118568533D02*
X179830836Y-118711390D01*
X179830836Y-118711390D02*
X179926074Y-118806628D01*
X179926074Y-118806628D02*
X180021312Y-118854247D01*
X180021312Y-118854247D02*
X180211788Y-118901866D01*
X180211788Y-118901866D02*
X180354645Y-118901866D01*
X180354645Y-118901866D02*
X180545121Y-118854247D01*
X180545121Y-118854247D02*
X180640359Y-118806628D01*
X180640359Y-118806628D02*
X180735598Y-118711390D01*
X180735598Y-118711390D02*
X180783217Y-118568533D01*
X180783217Y-118568533D02*
X180783217Y-118473295D01*
X180783217Y-118473295D02*
X180735598Y-118330438D01*
X180735598Y-118330438D02*
X180687978Y-118282819D01*
X180687978Y-118282819D02*
X180354645Y-118282819D01*
X180354645Y-118282819D02*
X180354645Y-118473295D01*
X180783217Y-117854247D02*
X179783217Y-117854247D01*
X179783217Y-117854247D02*
X180783217Y-117282819D01*
X180783217Y-117282819D02*
X179783217Y-117282819D01*
X180783217Y-116806628D02*
X179783217Y-116806628D01*
X179783217Y-116806628D02*
X179783217Y-116568533D01*
X179783217Y-116568533D02*
X179830836Y-116425676D01*
X179830836Y-116425676D02*
X179926074Y-116330438D01*
X179926074Y-116330438D02*
X180021312Y-116282819D01*
X180021312Y-116282819D02*
X180211788Y-116235200D01*
X180211788Y-116235200D02*
X180354645Y-116235200D01*
X180354645Y-116235200D02*
X180545121Y-116282819D01*
X180545121Y-116282819D02*
X180640359Y-116330438D01*
X180640359Y-116330438D02*
X180735598Y-116425676D01*
X180735598Y-116425676D02*
X180783217Y-116568533D01*
X180783217Y-116568533D02*
X180783217Y-116806628D01*
D16*
X261272380Y-118109035D02*
X261248571Y-118144750D01*
X261248571Y-118144750D02*
X261177142Y-118180464D01*
X261177142Y-118180464D02*
X261129523Y-118180464D01*
X261129523Y-118180464D02*
X261058095Y-118144750D01*
X261058095Y-118144750D02*
X261010476Y-118073321D01*
X261010476Y-118073321D02*
X260986666Y-118001892D01*
X260986666Y-118001892D02*
X260962857Y-117859035D01*
X260962857Y-117859035D02*
X260962857Y-117751892D01*
X260962857Y-117751892D02*
X260986666Y-117609035D01*
X260986666Y-117609035D02*
X261010476Y-117537607D01*
X261010476Y-117537607D02*
X261058095Y-117466178D01*
X261058095Y-117466178D02*
X261129523Y-117430464D01*
X261129523Y-117430464D02*
X261177142Y-117430464D01*
X261177142Y-117430464D02*
X261248571Y-117466178D01*
X261248571Y-117466178D02*
X261272380Y-117501892D01*
X261581904Y-117430464D02*
X261677142Y-117430464D01*
X261677142Y-117430464D02*
X261724761Y-117466178D01*
X261724761Y-117466178D02*
X261772380Y-117537607D01*
X261772380Y-117537607D02*
X261796190Y-117680464D01*
X261796190Y-117680464D02*
X261796190Y-117930464D01*
X261796190Y-117930464D02*
X261772380Y-118073321D01*
X261772380Y-118073321D02*
X261724761Y-118144750D01*
X261724761Y-118144750D02*
X261677142Y-118180464D01*
X261677142Y-118180464D02*
X261581904Y-118180464D01*
X261581904Y-118180464D02*
X261534285Y-118144750D01*
X261534285Y-118144750D02*
X261486666Y-118073321D01*
X261486666Y-118073321D02*
X261462857Y-117930464D01*
X261462857Y-117930464D02*
X261462857Y-117680464D01*
X261462857Y-117680464D02*
X261486666Y-117537607D01*
X261486666Y-117537607D02*
X261534285Y-117466178D01*
X261534285Y-117466178D02*
X261581904Y-117430464D01*
X262248571Y-118180464D02*
X262010476Y-118180464D01*
X262010476Y-118180464D02*
X262010476Y-117430464D01*
X262367619Y-117430464D02*
X262677143Y-117430464D01*
X262677143Y-117430464D02*
X262510476Y-117716178D01*
X262510476Y-117716178D02*
X262581905Y-117716178D01*
X262581905Y-117716178D02*
X262629524Y-117751892D01*
X262629524Y-117751892D02*
X262653333Y-117787607D01*
X262653333Y-117787607D02*
X262677143Y-117859035D01*
X262677143Y-117859035D02*
X262677143Y-118037607D01*
X262677143Y-118037607D02*
X262653333Y-118109035D01*
X262653333Y-118109035D02*
X262629524Y-118144750D01*
X262629524Y-118144750D02*
X262581905Y-118180464D01*
X262581905Y-118180464D02*
X262439048Y-118180464D01*
X262439048Y-118180464D02*
X262391429Y-118144750D01*
X262391429Y-118144750D02*
X262367619Y-118109035D01*
X261853066Y-125681035D02*
X261829257Y-125716750D01*
X261829257Y-125716750D02*
X261757828Y-125752464D01*
X261757828Y-125752464D02*
X261710209Y-125752464D01*
X261710209Y-125752464D02*
X261638781Y-125716750D01*
X261638781Y-125716750D02*
X261591162Y-125645321D01*
X261591162Y-125645321D02*
X261567352Y-125573892D01*
X261567352Y-125573892D02*
X261543543Y-125431035D01*
X261543543Y-125431035D02*
X261543543Y-125323892D01*
X261543543Y-125323892D02*
X261567352Y-125181035D01*
X261567352Y-125181035D02*
X261591162Y-125109607D01*
X261591162Y-125109607D02*
X261638781Y-125038178D01*
X261638781Y-125038178D02*
X261710209Y-125002464D01*
X261710209Y-125002464D02*
X261757828Y-125002464D01*
X261757828Y-125002464D02*
X261829257Y-125038178D01*
X261829257Y-125038178D02*
X261853066Y-125073892D01*
X262043543Y-125716750D02*
X262114971Y-125752464D01*
X262114971Y-125752464D02*
X262234019Y-125752464D01*
X262234019Y-125752464D02*
X262281638Y-125716750D01*
X262281638Y-125716750D02*
X262305447Y-125681035D01*
X262305447Y-125681035D02*
X262329257Y-125609607D01*
X262329257Y-125609607D02*
X262329257Y-125538178D01*
X262329257Y-125538178D02*
X262305447Y-125466750D01*
X262305447Y-125466750D02*
X262281638Y-125431035D01*
X262281638Y-125431035D02*
X262234019Y-125395321D01*
X262234019Y-125395321D02*
X262138781Y-125359607D01*
X262138781Y-125359607D02*
X262091162Y-125323892D01*
X262091162Y-125323892D02*
X262067352Y-125288178D01*
X262067352Y-125288178D02*
X262043543Y-125216750D01*
X262043543Y-125216750D02*
X262043543Y-125145321D01*
X262043543Y-125145321D02*
X262067352Y-125073892D01*
X262067352Y-125073892D02*
X262091162Y-125038178D01*
X262091162Y-125038178D02*
X262138781Y-125002464D01*
X262138781Y-125002464D02*
X262257828Y-125002464D01*
X262257828Y-125002464D02*
X262329257Y-125038178D01*
X261272380Y-112981035D02*
X261248571Y-113016750D01*
X261248571Y-113016750D02*
X261177142Y-113052464D01*
X261177142Y-113052464D02*
X261129523Y-113052464D01*
X261129523Y-113052464D02*
X261058095Y-113016750D01*
X261058095Y-113016750D02*
X261010476Y-112945321D01*
X261010476Y-112945321D02*
X260986666Y-112873892D01*
X260986666Y-112873892D02*
X260962857Y-112731035D01*
X260962857Y-112731035D02*
X260962857Y-112623892D01*
X260962857Y-112623892D02*
X260986666Y-112481035D01*
X260986666Y-112481035D02*
X261010476Y-112409607D01*
X261010476Y-112409607D02*
X261058095Y-112338178D01*
X261058095Y-112338178D02*
X261129523Y-112302464D01*
X261129523Y-112302464D02*
X261177142Y-112302464D01*
X261177142Y-112302464D02*
X261248571Y-112338178D01*
X261248571Y-112338178D02*
X261272380Y-112373892D01*
X261581904Y-112302464D02*
X261677142Y-112302464D01*
X261677142Y-112302464D02*
X261724761Y-112338178D01*
X261724761Y-112338178D02*
X261772380Y-112409607D01*
X261772380Y-112409607D02*
X261796190Y-112552464D01*
X261796190Y-112552464D02*
X261796190Y-112802464D01*
X261796190Y-112802464D02*
X261772380Y-112945321D01*
X261772380Y-112945321D02*
X261724761Y-113016750D01*
X261724761Y-113016750D02*
X261677142Y-113052464D01*
X261677142Y-113052464D02*
X261581904Y-113052464D01*
X261581904Y-113052464D02*
X261534285Y-113016750D01*
X261534285Y-113016750D02*
X261486666Y-112945321D01*
X261486666Y-112945321D02*
X261462857Y-112802464D01*
X261462857Y-112802464D02*
X261462857Y-112552464D01*
X261462857Y-112552464D02*
X261486666Y-112409607D01*
X261486666Y-112409607D02*
X261534285Y-112338178D01*
X261534285Y-112338178D02*
X261581904Y-112302464D01*
X262248571Y-113052464D02*
X262010476Y-113052464D01*
X262010476Y-113052464D02*
X262010476Y-112302464D01*
X262677143Y-113052464D02*
X262391429Y-113052464D01*
X262534286Y-113052464D02*
X262534286Y-112302464D01*
X262534286Y-112302464D02*
X262486667Y-112409607D01*
X262486667Y-112409607D02*
X262439048Y-112481035D01*
X262439048Y-112481035D02*
X262391429Y-112516750D01*
X271325447Y-118132464D02*
X271158781Y-117775321D01*
X271039733Y-118132464D02*
X271039733Y-117382464D01*
X271039733Y-117382464D02*
X271230209Y-117382464D01*
X271230209Y-117382464D02*
X271277828Y-117418178D01*
X271277828Y-117418178D02*
X271301638Y-117453892D01*
X271301638Y-117453892D02*
X271325447Y-117525321D01*
X271325447Y-117525321D02*
X271325447Y-117632464D01*
X271325447Y-117632464D02*
X271301638Y-117703892D01*
X271301638Y-117703892D02*
X271277828Y-117739607D01*
X271277828Y-117739607D02*
X271230209Y-117775321D01*
X271230209Y-117775321D02*
X271039733Y-117775321D01*
X271634971Y-117382464D02*
X271730209Y-117382464D01*
X271730209Y-117382464D02*
X271777828Y-117418178D01*
X271777828Y-117418178D02*
X271825447Y-117489607D01*
X271825447Y-117489607D02*
X271849257Y-117632464D01*
X271849257Y-117632464D02*
X271849257Y-117882464D01*
X271849257Y-117882464D02*
X271825447Y-118025321D01*
X271825447Y-118025321D02*
X271777828Y-118096750D01*
X271777828Y-118096750D02*
X271730209Y-118132464D01*
X271730209Y-118132464D02*
X271634971Y-118132464D01*
X271634971Y-118132464D02*
X271587352Y-118096750D01*
X271587352Y-118096750D02*
X271539733Y-118025321D01*
X271539733Y-118025321D02*
X271515924Y-117882464D01*
X271515924Y-117882464D02*
X271515924Y-117632464D01*
X271515924Y-117632464D02*
X271539733Y-117489607D01*
X271539733Y-117489607D02*
X271587352Y-117418178D01*
X271587352Y-117418178D02*
X271634971Y-117382464D01*
X272015924Y-117382464D02*
X272134972Y-118132464D01*
X272134972Y-118132464D02*
X272230210Y-117596750D01*
X272230210Y-117596750D02*
X272325448Y-118132464D01*
X272325448Y-118132464D02*
X272444496Y-117382464D01*
X272896877Y-118132464D02*
X272611163Y-118132464D01*
X272754020Y-118132464D02*
X272754020Y-117382464D01*
X272754020Y-117382464D02*
X272706401Y-117489607D01*
X272706401Y-117489607D02*
X272658782Y-117561035D01*
X272658782Y-117561035D02*
X272611163Y-117596750D01*
X261272380Y-110441035D02*
X261248571Y-110476750D01*
X261248571Y-110476750D02*
X261177142Y-110512464D01*
X261177142Y-110512464D02*
X261129523Y-110512464D01*
X261129523Y-110512464D02*
X261058095Y-110476750D01*
X261058095Y-110476750D02*
X261010476Y-110405321D01*
X261010476Y-110405321D02*
X260986666Y-110333892D01*
X260986666Y-110333892D02*
X260962857Y-110191035D01*
X260962857Y-110191035D02*
X260962857Y-110083892D01*
X260962857Y-110083892D02*
X260986666Y-109941035D01*
X260986666Y-109941035D02*
X261010476Y-109869607D01*
X261010476Y-109869607D02*
X261058095Y-109798178D01*
X261058095Y-109798178D02*
X261129523Y-109762464D01*
X261129523Y-109762464D02*
X261177142Y-109762464D01*
X261177142Y-109762464D02*
X261248571Y-109798178D01*
X261248571Y-109798178D02*
X261272380Y-109833892D01*
X261581904Y-109762464D02*
X261677142Y-109762464D01*
X261677142Y-109762464D02*
X261724761Y-109798178D01*
X261724761Y-109798178D02*
X261772380Y-109869607D01*
X261772380Y-109869607D02*
X261796190Y-110012464D01*
X261796190Y-110012464D02*
X261796190Y-110262464D01*
X261796190Y-110262464D02*
X261772380Y-110405321D01*
X261772380Y-110405321D02*
X261724761Y-110476750D01*
X261724761Y-110476750D02*
X261677142Y-110512464D01*
X261677142Y-110512464D02*
X261581904Y-110512464D01*
X261581904Y-110512464D02*
X261534285Y-110476750D01*
X261534285Y-110476750D02*
X261486666Y-110405321D01*
X261486666Y-110405321D02*
X261462857Y-110262464D01*
X261462857Y-110262464D02*
X261462857Y-110012464D01*
X261462857Y-110012464D02*
X261486666Y-109869607D01*
X261486666Y-109869607D02*
X261534285Y-109798178D01*
X261534285Y-109798178D02*
X261581904Y-109762464D01*
X262248571Y-110512464D02*
X262010476Y-110512464D01*
X262010476Y-110512464D02*
X262010476Y-109762464D01*
X262510476Y-109762464D02*
X262558095Y-109762464D01*
X262558095Y-109762464D02*
X262605714Y-109798178D01*
X262605714Y-109798178D02*
X262629524Y-109833892D01*
X262629524Y-109833892D02*
X262653333Y-109905321D01*
X262653333Y-109905321D02*
X262677143Y-110048178D01*
X262677143Y-110048178D02*
X262677143Y-110226750D01*
X262677143Y-110226750D02*
X262653333Y-110369607D01*
X262653333Y-110369607D02*
X262629524Y-110441035D01*
X262629524Y-110441035D02*
X262605714Y-110476750D01*
X262605714Y-110476750D02*
X262558095Y-110512464D01*
X262558095Y-110512464D02*
X262510476Y-110512464D01*
X262510476Y-110512464D02*
X262462857Y-110476750D01*
X262462857Y-110476750D02*
X262439048Y-110441035D01*
X262439048Y-110441035D02*
X262415238Y-110369607D01*
X262415238Y-110369607D02*
X262391429Y-110226750D01*
X262391429Y-110226750D02*
X262391429Y-110048178D01*
X262391429Y-110048178D02*
X262415238Y-109905321D01*
X262415238Y-109905321D02*
X262439048Y-109833892D01*
X262439048Y-109833892D02*
X262462857Y-109798178D01*
X262462857Y-109798178D02*
X262510476Y-109762464D01*
X271626858Y-110476750D02*
X271698286Y-110512464D01*
X271698286Y-110512464D02*
X271817334Y-110512464D01*
X271817334Y-110512464D02*
X271864953Y-110476750D01*
X271864953Y-110476750D02*
X271888762Y-110441035D01*
X271888762Y-110441035D02*
X271912572Y-110369607D01*
X271912572Y-110369607D02*
X271912572Y-110298178D01*
X271912572Y-110298178D02*
X271888762Y-110226750D01*
X271888762Y-110226750D02*
X271864953Y-110191035D01*
X271864953Y-110191035D02*
X271817334Y-110155321D01*
X271817334Y-110155321D02*
X271722096Y-110119607D01*
X271722096Y-110119607D02*
X271674477Y-110083892D01*
X271674477Y-110083892D02*
X271650667Y-110048178D01*
X271650667Y-110048178D02*
X271626858Y-109976750D01*
X271626858Y-109976750D02*
X271626858Y-109905321D01*
X271626858Y-109905321D02*
X271650667Y-109833892D01*
X271650667Y-109833892D02*
X271674477Y-109798178D01*
X271674477Y-109798178D02*
X271722096Y-109762464D01*
X271722096Y-109762464D02*
X271841143Y-109762464D01*
X271841143Y-109762464D02*
X271912572Y-109798178D01*
X272126857Y-110512464D02*
X272126857Y-109762464D01*
X272126857Y-109762464D02*
X272245905Y-109762464D01*
X272245905Y-109762464D02*
X272317333Y-109798178D01*
X272317333Y-109798178D02*
X272364952Y-109869607D01*
X272364952Y-109869607D02*
X272388762Y-109941035D01*
X272388762Y-109941035D02*
X272412571Y-110083892D01*
X272412571Y-110083892D02*
X272412571Y-110191035D01*
X272412571Y-110191035D02*
X272388762Y-110333892D01*
X272388762Y-110333892D02*
X272364952Y-110405321D01*
X272364952Y-110405321D02*
X272317333Y-110476750D01*
X272317333Y-110476750D02*
X272245905Y-110512464D01*
X272245905Y-110512464D02*
X272126857Y-110512464D01*
X272603048Y-110298178D02*
X272841143Y-110298178D01*
X272555429Y-110512464D02*
X272722095Y-109762464D01*
X272722095Y-109762464D02*
X272888762Y-110512464D01*
X271853047Y-107321678D02*
X271805428Y-107285964D01*
X271805428Y-107285964D02*
X271733999Y-107285964D01*
X271733999Y-107285964D02*
X271662571Y-107321678D01*
X271662571Y-107321678D02*
X271614952Y-107393107D01*
X271614952Y-107393107D02*
X271591142Y-107464535D01*
X271591142Y-107464535D02*
X271567333Y-107607392D01*
X271567333Y-107607392D02*
X271567333Y-107714535D01*
X271567333Y-107714535D02*
X271591142Y-107857392D01*
X271591142Y-107857392D02*
X271614952Y-107928821D01*
X271614952Y-107928821D02*
X271662571Y-108000250D01*
X271662571Y-108000250D02*
X271733999Y-108035964D01*
X271733999Y-108035964D02*
X271781618Y-108035964D01*
X271781618Y-108035964D02*
X271853047Y-108000250D01*
X271853047Y-108000250D02*
X271876856Y-107964535D01*
X271876856Y-107964535D02*
X271876856Y-107714535D01*
X271876856Y-107714535D02*
X271781618Y-107714535D01*
X272091142Y-108035964D02*
X272091142Y-107285964D01*
X272091142Y-107285964D02*
X272376856Y-108035964D01*
X272376856Y-108035964D02*
X272376856Y-107285964D01*
X272614952Y-108035964D02*
X272614952Y-107285964D01*
X272614952Y-107285964D02*
X272734000Y-107285964D01*
X272734000Y-107285964D02*
X272805428Y-107321678D01*
X272805428Y-107321678D02*
X272853047Y-107393107D01*
X272853047Y-107393107D02*
X272876857Y-107464535D01*
X272876857Y-107464535D02*
X272900666Y-107607392D01*
X272900666Y-107607392D02*
X272900666Y-107714535D01*
X272900666Y-107714535D02*
X272876857Y-107857392D01*
X272876857Y-107857392D02*
X272853047Y-107928821D01*
X272853047Y-107928821D02*
X272805428Y-108000250D01*
X272805428Y-108000250D02*
X272734000Y-108035964D01*
X272734000Y-108035964D02*
X272614952Y-108035964D01*
X271325447Y-115592464D02*
X271158781Y-115235321D01*
X271039733Y-115592464D02*
X271039733Y-114842464D01*
X271039733Y-114842464D02*
X271230209Y-114842464D01*
X271230209Y-114842464D02*
X271277828Y-114878178D01*
X271277828Y-114878178D02*
X271301638Y-114913892D01*
X271301638Y-114913892D02*
X271325447Y-114985321D01*
X271325447Y-114985321D02*
X271325447Y-115092464D01*
X271325447Y-115092464D02*
X271301638Y-115163892D01*
X271301638Y-115163892D02*
X271277828Y-115199607D01*
X271277828Y-115199607D02*
X271230209Y-115235321D01*
X271230209Y-115235321D02*
X271039733Y-115235321D01*
X271634971Y-114842464D02*
X271730209Y-114842464D01*
X271730209Y-114842464D02*
X271777828Y-114878178D01*
X271777828Y-114878178D02*
X271825447Y-114949607D01*
X271825447Y-114949607D02*
X271849257Y-115092464D01*
X271849257Y-115092464D02*
X271849257Y-115342464D01*
X271849257Y-115342464D02*
X271825447Y-115485321D01*
X271825447Y-115485321D02*
X271777828Y-115556750D01*
X271777828Y-115556750D02*
X271730209Y-115592464D01*
X271730209Y-115592464D02*
X271634971Y-115592464D01*
X271634971Y-115592464D02*
X271587352Y-115556750D01*
X271587352Y-115556750D02*
X271539733Y-115485321D01*
X271539733Y-115485321D02*
X271515924Y-115342464D01*
X271515924Y-115342464D02*
X271515924Y-115092464D01*
X271515924Y-115092464D02*
X271539733Y-114949607D01*
X271539733Y-114949607D02*
X271587352Y-114878178D01*
X271587352Y-114878178D02*
X271634971Y-114842464D01*
X272015924Y-114842464D02*
X272134972Y-115592464D01*
X272134972Y-115592464D02*
X272230210Y-115056750D01*
X272230210Y-115056750D02*
X272325448Y-115592464D01*
X272325448Y-115592464D02*
X272444496Y-114842464D01*
X272730210Y-114842464D02*
X272777829Y-114842464D01*
X272777829Y-114842464D02*
X272825448Y-114878178D01*
X272825448Y-114878178D02*
X272849258Y-114913892D01*
X272849258Y-114913892D02*
X272873067Y-114985321D01*
X272873067Y-114985321D02*
X272896877Y-115128178D01*
X272896877Y-115128178D02*
X272896877Y-115306750D01*
X272896877Y-115306750D02*
X272873067Y-115449607D01*
X272873067Y-115449607D02*
X272849258Y-115521035D01*
X272849258Y-115521035D02*
X272825448Y-115556750D01*
X272825448Y-115556750D02*
X272777829Y-115592464D01*
X272777829Y-115592464D02*
X272730210Y-115592464D01*
X272730210Y-115592464D02*
X272682591Y-115556750D01*
X272682591Y-115556750D02*
X272658782Y-115521035D01*
X272658782Y-115521035D02*
X272634972Y-115449607D01*
X272634972Y-115449607D02*
X272611163Y-115306750D01*
X272611163Y-115306750D02*
X272611163Y-115128178D01*
X272611163Y-115128178D02*
X272634972Y-114985321D01*
X272634972Y-114985321D02*
X272658782Y-114913892D01*
X272658782Y-114913892D02*
X272682591Y-114878178D01*
X272682591Y-114878178D02*
X272730210Y-114842464D01*
X261272380Y-115521035D02*
X261248571Y-115556750D01*
X261248571Y-115556750D02*
X261177142Y-115592464D01*
X261177142Y-115592464D02*
X261129523Y-115592464D01*
X261129523Y-115592464D02*
X261058095Y-115556750D01*
X261058095Y-115556750D02*
X261010476Y-115485321D01*
X261010476Y-115485321D02*
X260986666Y-115413892D01*
X260986666Y-115413892D02*
X260962857Y-115271035D01*
X260962857Y-115271035D02*
X260962857Y-115163892D01*
X260962857Y-115163892D02*
X260986666Y-115021035D01*
X260986666Y-115021035D02*
X261010476Y-114949607D01*
X261010476Y-114949607D02*
X261058095Y-114878178D01*
X261058095Y-114878178D02*
X261129523Y-114842464D01*
X261129523Y-114842464D02*
X261177142Y-114842464D01*
X261177142Y-114842464D02*
X261248571Y-114878178D01*
X261248571Y-114878178D02*
X261272380Y-114913892D01*
X261581904Y-114842464D02*
X261677142Y-114842464D01*
X261677142Y-114842464D02*
X261724761Y-114878178D01*
X261724761Y-114878178D02*
X261772380Y-114949607D01*
X261772380Y-114949607D02*
X261796190Y-115092464D01*
X261796190Y-115092464D02*
X261796190Y-115342464D01*
X261796190Y-115342464D02*
X261772380Y-115485321D01*
X261772380Y-115485321D02*
X261724761Y-115556750D01*
X261724761Y-115556750D02*
X261677142Y-115592464D01*
X261677142Y-115592464D02*
X261581904Y-115592464D01*
X261581904Y-115592464D02*
X261534285Y-115556750D01*
X261534285Y-115556750D02*
X261486666Y-115485321D01*
X261486666Y-115485321D02*
X261462857Y-115342464D01*
X261462857Y-115342464D02*
X261462857Y-115092464D01*
X261462857Y-115092464D02*
X261486666Y-114949607D01*
X261486666Y-114949607D02*
X261534285Y-114878178D01*
X261534285Y-114878178D02*
X261581904Y-114842464D01*
X262248571Y-115592464D02*
X262010476Y-115592464D01*
X262010476Y-115592464D02*
X262010476Y-114842464D01*
X262391429Y-114913892D02*
X262415238Y-114878178D01*
X262415238Y-114878178D02*
X262462857Y-114842464D01*
X262462857Y-114842464D02*
X262581905Y-114842464D01*
X262581905Y-114842464D02*
X262629524Y-114878178D01*
X262629524Y-114878178D02*
X262653333Y-114913892D01*
X262653333Y-114913892D02*
X262677143Y-114985321D01*
X262677143Y-114985321D02*
X262677143Y-115056750D01*
X262677143Y-115056750D02*
X262653333Y-115163892D01*
X262653333Y-115163892D02*
X262367619Y-115592464D01*
X262367619Y-115592464D02*
X262677143Y-115592464D01*
X271325447Y-120672464D02*
X271158781Y-120315321D01*
X271039733Y-120672464D02*
X271039733Y-119922464D01*
X271039733Y-119922464D02*
X271230209Y-119922464D01*
X271230209Y-119922464D02*
X271277828Y-119958178D01*
X271277828Y-119958178D02*
X271301638Y-119993892D01*
X271301638Y-119993892D02*
X271325447Y-120065321D01*
X271325447Y-120065321D02*
X271325447Y-120172464D01*
X271325447Y-120172464D02*
X271301638Y-120243892D01*
X271301638Y-120243892D02*
X271277828Y-120279607D01*
X271277828Y-120279607D02*
X271230209Y-120315321D01*
X271230209Y-120315321D02*
X271039733Y-120315321D01*
X271634971Y-119922464D02*
X271730209Y-119922464D01*
X271730209Y-119922464D02*
X271777828Y-119958178D01*
X271777828Y-119958178D02*
X271825447Y-120029607D01*
X271825447Y-120029607D02*
X271849257Y-120172464D01*
X271849257Y-120172464D02*
X271849257Y-120422464D01*
X271849257Y-120422464D02*
X271825447Y-120565321D01*
X271825447Y-120565321D02*
X271777828Y-120636750D01*
X271777828Y-120636750D02*
X271730209Y-120672464D01*
X271730209Y-120672464D02*
X271634971Y-120672464D01*
X271634971Y-120672464D02*
X271587352Y-120636750D01*
X271587352Y-120636750D02*
X271539733Y-120565321D01*
X271539733Y-120565321D02*
X271515924Y-120422464D01*
X271515924Y-120422464D02*
X271515924Y-120172464D01*
X271515924Y-120172464D02*
X271539733Y-120029607D01*
X271539733Y-120029607D02*
X271587352Y-119958178D01*
X271587352Y-119958178D02*
X271634971Y-119922464D01*
X272015924Y-119922464D02*
X272134972Y-120672464D01*
X272134972Y-120672464D02*
X272230210Y-120136750D01*
X272230210Y-120136750D02*
X272325448Y-120672464D01*
X272325448Y-120672464D02*
X272444496Y-119922464D01*
X272611163Y-119993892D02*
X272634972Y-119958178D01*
X272634972Y-119958178D02*
X272682591Y-119922464D01*
X272682591Y-119922464D02*
X272801639Y-119922464D01*
X272801639Y-119922464D02*
X272849258Y-119958178D01*
X272849258Y-119958178D02*
X272873067Y-119993892D01*
X272873067Y-119993892D02*
X272896877Y-120065321D01*
X272896877Y-120065321D02*
X272896877Y-120136750D01*
X272896877Y-120136750D02*
X272873067Y-120243892D01*
X272873067Y-120243892D02*
X272587353Y-120672464D01*
X272587353Y-120672464D02*
X272896877Y-120672464D01*
X271638762Y-113016750D02*
X271710190Y-113052464D01*
X271710190Y-113052464D02*
X271829238Y-113052464D01*
X271829238Y-113052464D02*
X271876857Y-113016750D01*
X271876857Y-113016750D02*
X271900666Y-112981035D01*
X271900666Y-112981035D02*
X271924476Y-112909607D01*
X271924476Y-112909607D02*
X271924476Y-112838178D01*
X271924476Y-112838178D02*
X271900666Y-112766750D01*
X271900666Y-112766750D02*
X271876857Y-112731035D01*
X271876857Y-112731035D02*
X271829238Y-112695321D01*
X271829238Y-112695321D02*
X271734000Y-112659607D01*
X271734000Y-112659607D02*
X271686381Y-112623892D01*
X271686381Y-112623892D02*
X271662571Y-112588178D01*
X271662571Y-112588178D02*
X271638762Y-112516750D01*
X271638762Y-112516750D02*
X271638762Y-112445321D01*
X271638762Y-112445321D02*
X271662571Y-112373892D01*
X271662571Y-112373892D02*
X271686381Y-112338178D01*
X271686381Y-112338178D02*
X271734000Y-112302464D01*
X271734000Y-112302464D02*
X271853047Y-112302464D01*
X271853047Y-112302464D02*
X271924476Y-112338178D01*
X272424475Y-112981035D02*
X272400666Y-113016750D01*
X272400666Y-113016750D02*
X272329237Y-113052464D01*
X272329237Y-113052464D02*
X272281618Y-113052464D01*
X272281618Y-113052464D02*
X272210190Y-113016750D01*
X272210190Y-113016750D02*
X272162571Y-112945321D01*
X272162571Y-112945321D02*
X272138761Y-112873892D01*
X272138761Y-112873892D02*
X272114952Y-112731035D01*
X272114952Y-112731035D02*
X272114952Y-112623892D01*
X272114952Y-112623892D02*
X272138761Y-112481035D01*
X272138761Y-112481035D02*
X272162571Y-112409607D01*
X272162571Y-112409607D02*
X272210190Y-112338178D01*
X272210190Y-112338178D02*
X272281618Y-112302464D01*
X272281618Y-112302464D02*
X272329237Y-112302464D01*
X272329237Y-112302464D02*
X272400666Y-112338178D01*
X272400666Y-112338178D02*
X272424475Y-112373892D01*
X272876856Y-113052464D02*
X272638761Y-113052464D01*
X272638761Y-113052464D02*
X272638761Y-112302464D01*
X271087352Y-127899607D02*
X271254019Y-127899607D01*
X271325447Y-128292464D02*
X271087352Y-128292464D01*
X271087352Y-128292464D02*
X271087352Y-127542464D01*
X271087352Y-127542464D02*
X271325447Y-127542464D01*
X271539733Y-128292464D02*
X271539733Y-127542464D01*
X271539733Y-127542464D02*
X271825447Y-128292464D01*
X271825447Y-128292464D02*
X271825447Y-127542464D01*
X272349257Y-128221035D02*
X272325448Y-128256750D01*
X272325448Y-128256750D02*
X272254019Y-128292464D01*
X272254019Y-128292464D02*
X272206400Y-128292464D01*
X272206400Y-128292464D02*
X272134972Y-128256750D01*
X272134972Y-128256750D02*
X272087353Y-128185321D01*
X272087353Y-128185321D02*
X272063543Y-128113892D01*
X272063543Y-128113892D02*
X272039734Y-127971035D01*
X272039734Y-127971035D02*
X272039734Y-127863892D01*
X272039734Y-127863892D02*
X272063543Y-127721035D01*
X272063543Y-127721035D02*
X272087353Y-127649607D01*
X272087353Y-127649607D02*
X272134972Y-127578178D01*
X272134972Y-127578178D02*
X272206400Y-127542464D01*
X272206400Y-127542464D02*
X272254019Y-127542464D01*
X272254019Y-127542464D02*
X272325448Y-127578178D01*
X272325448Y-127578178D02*
X272349257Y-127613892D01*
X272730210Y-127899607D02*
X272801638Y-127935321D01*
X272801638Y-127935321D02*
X272825448Y-127971035D01*
X272825448Y-127971035D02*
X272849257Y-128042464D01*
X272849257Y-128042464D02*
X272849257Y-128149607D01*
X272849257Y-128149607D02*
X272825448Y-128221035D01*
X272825448Y-128221035D02*
X272801638Y-128256750D01*
X272801638Y-128256750D02*
X272754019Y-128292464D01*
X272754019Y-128292464D02*
X272563543Y-128292464D01*
X272563543Y-128292464D02*
X272563543Y-127542464D01*
X272563543Y-127542464D02*
X272730210Y-127542464D01*
X272730210Y-127542464D02*
X272777829Y-127578178D01*
X272777829Y-127578178D02*
X272801638Y-127613892D01*
X272801638Y-127613892D02*
X272825448Y-127685321D01*
X272825448Y-127685321D02*
X272825448Y-127756750D01*
X272825448Y-127756750D02*
X272801638Y-127828178D01*
X272801638Y-127828178D02*
X272777829Y-127863892D01*
X272777829Y-127863892D02*
X272730210Y-127899607D01*
X272730210Y-127899607D02*
X272563543Y-127899607D01*
X261614971Y-128292464D02*
X261376876Y-128292464D01*
X261376876Y-128292464D02*
X261376876Y-127542464D01*
X261781638Y-127899607D02*
X261948305Y-127899607D01*
X262019733Y-128292464D02*
X261781638Y-128292464D01*
X261781638Y-128292464D02*
X261781638Y-127542464D01*
X261781638Y-127542464D02*
X262019733Y-127542464D01*
X262234019Y-128292464D02*
X262234019Y-127542464D01*
X262234019Y-127542464D02*
X262353067Y-127542464D01*
X262353067Y-127542464D02*
X262424495Y-127578178D01*
X262424495Y-127578178D02*
X262472114Y-127649607D01*
X262472114Y-127649607D02*
X262495924Y-127721035D01*
X262495924Y-127721035D02*
X262519733Y-127863892D01*
X262519733Y-127863892D02*
X262519733Y-127971035D01*
X262519733Y-127971035D02*
X262495924Y-128113892D01*
X262495924Y-128113892D02*
X262472114Y-128185321D01*
X262472114Y-128185321D02*
X262424495Y-128256750D01*
X262424495Y-128256750D02*
X262353067Y-128292464D01*
X262353067Y-128292464D02*
X262234019Y-128292464D01*
X261292190Y-105432464D02*
X261125524Y-105075321D01*
X261006476Y-105432464D02*
X261006476Y-104682464D01*
X261006476Y-104682464D02*
X261196952Y-104682464D01*
X261196952Y-104682464D02*
X261244571Y-104718178D01*
X261244571Y-104718178D02*
X261268381Y-104753892D01*
X261268381Y-104753892D02*
X261292190Y-104825321D01*
X261292190Y-104825321D02*
X261292190Y-104932464D01*
X261292190Y-104932464D02*
X261268381Y-105003892D01*
X261268381Y-105003892D02*
X261244571Y-105039607D01*
X261244571Y-105039607D02*
X261196952Y-105075321D01*
X261196952Y-105075321D02*
X261006476Y-105075321D01*
X261482667Y-105396750D02*
X261554095Y-105432464D01*
X261554095Y-105432464D02*
X261673143Y-105432464D01*
X261673143Y-105432464D02*
X261720762Y-105396750D01*
X261720762Y-105396750D02*
X261744571Y-105361035D01*
X261744571Y-105361035D02*
X261768381Y-105289607D01*
X261768381Y-105289607D02*
X261768381Y-105218178D01*
X261768381Y-105218178D02*
X261744571Y-105146750D01*
X261744571Y-105146750D02*
X261720762Y-105111035D01*
X261720762Y-105111035D02*
X261673143Y-105075321D01*
X261673143Y-105075321D02*
X261577905Y-105039607D01*
X261577905Y-105039607D02*
X261530286Y-105003892D01*
X261530286Y-105003892D02*
X261506476Y-104968178D01*
X261506476Y-104968178D02*
X261482667Y-104896750D01*
X261482667Y-104896750D02*
X261482667Y-104825321D01*
X261482667Y-104825321D02*
X261506476Y-104753892D01*
X261506476Y-104753892D02*
X261530286Y-104718178D01*
X261530286Y-104718178D02*
X261577905Y-104682464D01*
X261577905Y-104682464D02*
X261696952Y-104682464D01*
X261696952Y-104682464D02*
X261768381Y-104718178D01*
X261911238Y-104682464D02*
X262196952Y-104682464D01*
X262054095Y-105432464D02*
X262054095Y-104682464D01*
X271325447Y-123212464D02*
X271158781Y-122855321D01*
X271039733Y-123212464D02*
X271039733Y-122462464D01*
X271039733Y-122462464D02*
X271230209Y-122462464D01*
X271230209Y-122462464D02*
X271277828Y-122498178D01*
X271277828Y-122498178D02*
X271301638Y-122533892D01*
X271301638Y-122533892D02*
X271325447Y-122605321D01*
X271325447Y-122605321D02*
X271325447Y-122712464D01*
X271325447Y-122712464D02*
X271301638Y-122783892D01*
X271301638Y-122783892D02*
X271277828Y-122819607D01*
X271277828Y-122819607D02*
X271230209Y-122855321D01*
X271230209Y-122855321D02*
X271039733Y-122855321D01*
X271634971Y-122462464D02*
X271730209Y-122462464D01*
X271730209Y-122462464D02*
X271777828Y-122498178D01*
X271777828Y-122498178D02*
X271825447Y-122569607D01*
X271825447Y-122569607D02*
X271849257Y-122712464D01*
X271849257Y-122712464D02*
X271849257Y-122962464D01*
X271849257Y-122962464D02*
X271825447Y-123105321D01*
X271825447Y-123105321D02*
X271777828Y-123176750D01*
X271777828Y-123176750D02*
X271730209Y-123212464D01*
X271730209Y-123212464D02*
X271634971Y-123212464D01*
X271634971Y-123212464D02*
X271587352Y-123176750D01*
X271587352Y-123176750D02*
X271539733Y-123105321D01*
X271539733Y-123105321D02*
X271515924Y-122962464D01*
X271515924Y-122962464D02*
X271515924Y-122712464D01*
X271515924Y-122712464D02*
X271539733Y-122569607D01*
X271539733Y-122569607D02*
X271587352Y-122498178D01*
X271587352Y-122498178D02*
X271634971Y-122462464D01*
X272015924Y-122462464D02*
X272134972Y-123212464D01*
X272134972Y-123212464D02*
X272230210Y-122676750D01*
X272230210Y-122676750D02*
X272325448Y-123212464D01*
X272325448Y-123212464D02*
X272444496Y-122462464D01*
X272587353Y-122462464D02*
X272896877Y-122462464D01*
X272896877Y-122462464D02*
X272730210Y-122748178D01*
X272730210Y-122748178D02*
X272801639Y-122748178D01*
X272801639Y-122748178D02*
X272849258Y-122783892D01*
X272849258Y-122783892D02*
X272873067Y-122819607D01*
X272873067Y-122819607D02*
X272896877Y-122891035D01*
X272896877Y-122891035D02*
X272896877Y-123069607D01*
X272896877Y-123069607D02*
X272873067Y-123141035D01*
X272873067Y-123141035D02*
X272849258Y-123176750D01*
X272849258Y-123176750D02*
X272801639Y-123212464D01*
X272801639Y-123212464D02*
X272658782Y-123212464D01*
X272658782Y-123212464D02*
X272611163Y-123176750D01*
X272611163Y-123176750D02*
X272587353Y-123141035D01*
X271853048Y-99602464D02*
X272138762Y-99602464D01*
X271995905Y-100352464D02*
X271995905Y-99602464D01*
X272257809Y-99602464D02*
X272591142Y-100352464D01*
X272591142Y-99602464D02*
X272257809Y-100352464D01*
X261185047Y-102178178D02*
X261137428Y-102142464D01*
X261137428Y-102142464D02*
X261065999Y-102142464D01*
X261065999Y-102142464D02*
X260994571Y-102178178D01*
X260994571Y-102178178D02*
X260946952Y-102249607D01*
X260946952Y-102249607D02*
X260923142Y-102321035D01*
X260923142Y-102321035D02*
X260899333Y-102463892D01*
X260899333Y-102463892D02*
X260899333Y-102571035D01*
X260899333Y-102571035D02*
X260923142Y-102713892D01*
X260923142Y-102713892D02*
X260946952Y-102785321D01*
X260946952Y-102785321D02*
X260994571Y-102856750D01*
X260994571Y-102856750D02*
X261065999Y-102892464D01*
X261065999Y-102892464D02*
X261113618Y-102892464D01*
X261113618Y-102892464D02*
X261185047Y-102856750D01*
X261185047Y-102856750D02*
X261208856Y-102821035D01*
X261208856Y-102821035D02*
X261208856Y-102571035D01*
X261208856Y-102571035D02*
X261113618Y-102571035D01*
X261423142Y-102892464D02*
X261423142Y-102142464D01*
X261423142Y-102142464D02*
X261708856Y-102892464D01*
X261708856Y-102892464D02*
X261708856Y-102142464D01*
X261946952Y-102892464D02*
X261946952Y-102142464D01*
X261946952Y-102142464D02*
X262066000Y-102142464D01*
X262066000Y-102142464D02*
X262137428Y-102178178D01*
X262137428Y-102178178D02*
X262185047Y-102249607D01*
X262185047Y-102249607D02*
X262208857Y-102321035D01*
X262208857Y-102321035D02*
X262232666Y-102463892D01*
X262232666Y-102463892D02*
X262232666Y-102571035D01*
X262232666Y-102571035D02*
X262208857Y-102713892D01*
X262208857Y-102713892D02*
X262185047Y-102785321D01*
X262185047Y-102785321D02*
X262137428Y-102856750D01*
X262137428Y-102856750D02*
X262066000Y-102892464D01*
X262066000Y-102892464D02*
X261946952Y-102892464D01*
X271123066Y-125359607D02*
X271289733Y-125359607D01*
X271361161Y-125752464D02*
X271123066Y-125752464D01*
X271123066Y-125752464D02*
X271123066Y-125002464D01*
X271123066Y-125002464D02*
X271361161Y-125002464D01*
X271575447Y-125752464D02*
X271575447Y-125002464D01*
X271575447Y-125002464D02*
X271861161Y-125752464D01*
X271861161Y-125752464D02*
X271861161Y-125002464D01*
X272384971Y-125681035D02*
X272361162Y-125716750D01*
X272361162Y-125716750D02*
X272289733Y-125752464D01*
X272289733Y-125752464D02*
X272242114Y-125752464D01*
X272242114Y-125752464D02*
X272170686Y-125716750D01*
X272170686Y-125716750D02*
X272123067Y-125645321D01*
X272123067Y-125645321D02*
X272099257Y-125573892D01*
X272099257Y-125573892D02*
X272075448Y-125431035D01*
X272075448Y-125431035D02*
X272075448Y-125323892D01*
X272075448Y-125323892D02*
X272099257Y-125181035D01*
X272099257Y-125181035D02*
X272123067Y-125109607D01*
X272123067Y-125109607D02*
X272170686Y-125038178D01*
X272170686Y-125038178D02*
X272242114Y-125002464D01*
X272242114Y-125002464D02*
X272289733Y-125002464D01*
X272289733Y-125002464D02*
X272361162Y-125038178D01*
X272361162Y-125038178D02*
X272384971Y-125073892D01*
X272575448Y-125538178D02*
X272813543Y-125538178D01*
X272527829Y-125752464D02*
X272694495Y-125002464D01*
X272694495Y-125002464D02*
X272861162Y-125752464D01*
X272150666Y-102880464D02*
X271984000Y-102523321D01*
X271864952Y-102880464D02*
X271864952Y-102130464D01*
X271864952Y-102130464D02*
X272055428Y-102130464D01*
X272055428Y-102130464D02*
X272103047Y-102166178D01*
X272103047Y-102166178D02*
X272126857Y-102201892D01*
X272126857Y-102201892D02*
X272150666Y-102273321D01*
X272150666Y-102273321D02*
X272150666Y-102380464D01*
X272150666Y-102380464D02*
X272126857Y-102451892D01*
X272126857Y-102451892D02*
X272103047Y-102487607D01*
X272103047Y-102487607D02*
X272055428Y-102523321D01*
X272055428Y-102523321D02*
X271864952Y-102523321D01*
X272317333Y-102130464D02*
X272650666Y-102880464D01*
X272650666Y-102130464D02*
X272317333Y-102880464D01*
X271853047Y-104718178D02*
X271805428Y-104682464D01*
X271805428Y-104682464D02*
X271733999Y-104682464D01*
X271733999Y-104682464D02*
X271662571Y-104718178D01*
X271662571Y-104718178D02*
X271614952Y-104789607D01*
X271614952Y-104789607D02*
X271591142Y-104861035D01*
X271591142Y-104861035D02*
X271567333Y-105003892D01*
X271567333Y-105003892D02*
X271567333Y-105111035D01*
X271567333Y-105111035D02*
X271591142Y-105253892D01*
X271591142Y-105253892D02*
X271614952Y-105325321D01*
X271614952Y-105325321D02*
X271662571Y-105396750D01*
X271662571Y-105396750D02*
X271733999Y-105432464D01*
X271733999Y-105432464D02*
X271781618Y-105432464D01*
X271781618Y-105432464D02*
X271853047Y-105396750D01*
X271853047Y-105396750D02*
X271876856Y-105361035D01*
X271876856Y-105361035D02*
X271876856Y-105111035D01*
X271876856Y-105111035D02*
X271781618Y-105111035D01*
X272091142Y-105432464D02*
X272091142Y-104682464D01*
X272091142Y-104682464D02*
X272376856Y-105432464D01*
X272376856Y-105432464D02*
X272376856Y-104682464D01*
X272614952Y-105432464D02*
X272614952Y-104682464D01*
X272614952Y-104682464D02*
X272734000Y-104682464D01*
X272734000Y-104682464D02*
X272805428Y-104718178D01*
X272805428Y-104718178D02*
X272853047Y-104789607D01*
X272853047Y-104789607D02*
X272876857Y-104861035D01*
X272876857Y-104861035D02*
X272900666Y-105003892D01*
X272900666Y-105003892D02*
X272900666Y-105111035D01*
X272900666Y-105111035D02*
X272876857Y-105253892D01*
X272876857Y-105253892D02*
X272853047Y-105325321D01*
X272853047Y-105325321D02*
X272805428Y-105396750D01*
X272805428Y-105396750D02*
X272734000Y-105432464D01*
X272734000Y-105432464D02*
X272614952Y-105432464D01*
X261272380Y-123395035D02*
X261248571Y-123430750D01*
X261248571Y-123430750D02*
X261177142Y-123466464D01*
X261177142Y-123466464D02*
X261129523Y-123466464D01*
X261129523Y-123466464D02*
X261058095Y-123430750D01*
X261058095Y-123430750D02*
X261010476Y-123359321D01*
X261010476Y-123359321D02*
X260986666Y-123287892D01*
X260986666Y-123287892D02*
X260962857Y-123145035D01*
X260962857Y-123145035D02*
X260962857Y-123037892D01*
X260962857Y-123037892D02*
X260986666Y-122895035D01*
X260986666Y-122895035D02*
X261010476Y-122823607D01*
X261010476Y-122823607D02*
X261058095Y-122752178D01*
X261058095Y-122752178D02*
X261129523Y-122716464D01*
X261129523Y-122716464D02*
X261177142Y-122716464D01*
X261177142Y-122716464D02*
X261248571Y-122752178D01*
X261248571Y-122752178D02*
X261272380Y-122787892D01*
X261581904Y-122716464D02*
X261677142Y-122716464D01*
X261677142Y-122716464D02*
X261724761Y-122752178D01*
X261724761Y-122752178D02*
X261772380Y-122823607D01*
X261772380Y-122823607D02*
X261796190Y-122966464D01*
X261796190Y-122966464D02*
X261796190Y-123216464D01*
X261796190Y-123216464D02*
X261772380Y-123359321D01*
X261772380Y-123359321D02*
X261724761Y-123430750D01*
X261724761Y-123430750D02*
X261677142Y-123466464D01*
X261677142Y-123466464D02*
X261581904Y-123466464D01*
X261581904Y-123466464D02*
X261534285Y-123430750D01*
X261534285Y-123430750D02*
X261486666Y-123359321D01*
X261486666Y-123359321D02*
X261462857Y-123216464D01*
X261462857Y-123216464D02*
X261462857Y-122966464D01*
X261462857Y-122966464D02*
X261486666Y-122823607D01*
X261486666Y-122823607D02*
X261534285Y-122752178D01*
X261534285Y-122752178D02*
X261581904Y-122716464D01*
X262248571Y-123466464D02*
X262010476Y-123466464D01*
X262010476Y-123466464D02*
X262010476Y-122716464D01*
X262653333Y-122716464D02*
X262415238Y-122716464D01*
X262415238Y-122716464D02*
X262391429Y-123073607D01*
X262391429Y-123073607D02*
X262415238Y-123037892D01*
X262415238Y-123037892D02*
X262462857Y-123002178D01*
X262462857Y-123002178D02*
X262581905Y-123002178D01*
X262581905Y-123002178D02*
X262629524Y-123037892D01*
X262629524Y-123037892D02*
X262653333Y-123073607D01*
X262653333Y-123073607D02*
X262677143Y-123145035D01*
X262677143Y-123145035D02*
X262677143Y-123323607D01*
X262677143Y-123323607D02*
X262653333Y-123395035D01*
X262653333Y-123395035D02*
X262629524Y-123430750D01*
X262629524Y-123430750D02*
X262581905Y-123466464D01*
X262581905Y-123466464D02*
X262462857Y-123466464D01*
X262462857Y-123466464D02*
X262415238Y-123430750D01*
X262415238Y-123430750D02*
X262391429Y-123395035D01*
X260899334Y-107222464D02*
X261066000Y-107972464D01*
X261066000Y-107972464D02*
X261232667Y-107222464D01*
X261685047Y-107901035D02*
X261661238Y-107936750D01*
X261661238Y-107936750D02*
X261589809Y-107972464D01*
X261589809Y-107972464D02*
X261542190Y-107972464D01*
X261542190Y-107972464D02*
X261470762Y-107936750D01*
X261470762Y-107936750D02*
X261423143Y-107865321D01*
X261423143Y-107865321D02*
X261399333Y-107793892D01*
X261399333Y-107793892D02*
X261375524Y-107651035D01*
X261375524Y-107651035D02*
X261375524Y-107543892D01*
X261375524Y-107543892D02*
X261399333Y-107401035D01*
X261399333Y-107401035D02*
X261423143Y-107329607D01*
X261423143Y-107329607D02*
X261470762Y-107258178D01*
X261470762Y-107258178D02*
X261542190Y-107222464D01*
X261542190Y-107222464D02*
X261589809Y-107222464D01*
X261589809Y-107222464D02*
X261661238Y-107258178D01*
X261661238Y-107258178D02*
X261685047Y-107293892D01*
X262185047Y-107901035D02*
X262161238Y-107936750D01*
X262161238Y-107936750D02*
X262089809Y-107972464D01*
X262089809Y-107972464D02*
X262042190Y-107972464D01*
X262042190Y-107972464D02*
X261970762Y-107936750D01*
X261970762Y-107936750D02*
X261923143Y-107865321D01*
X261923143Y-107865321D02*
X261899333Y-107793892D01*
X261899333Y-107793892D02*
X261875524Y-107651035D01*
X261875524Y-107651035D02*
X261875524Y-107543892D01*
X261875524Y-107543892D02*
X261899333Y-107401035D01*
X261899333Y-107401035D02*
X261923143Y-107329607D01*
X261923143Y-107329607D02*
X261970762Y-107258178D01*
X261970762Y-107258178D02*
X262042190Y-107222464D01*
X262042190Y-107222464D02*
X262089809Y-107222464D01*
X262089809Y-107222464D02*
X262161238Y-107258178D01*
X262161238Y-107258178D02*
X262185047Y-107293892D01*
X261272380Y-120609035D02*
X261248571Y-120644750D01*
X261248571Y-120644750D02*
X261177142Y-120680464D01*
X261177142Y-120680464D02*
X261129523Y-120680464D01*
X261129523Y-120680464D02*
X261058095Y-120644750D01*
X261058095Y-120644750D02*
X261010476Y-120573321D01*
X261010476Y-120573321D02*
X260986666Y-120501892D01*
X260986666Y-120501892D02*
X260962857Y-120359035D01*
X260962857Y-120359035D02*
X260962857Y-120251892D01*
X260962857Y-120251892D02*
X260986666Y-120109035D01*
X260986666Y-120109035D02*
X261010476Y-120037607D01*
X261010476Y-120037607D02*
X261058095Y-119966178D01*
X261058095Y-119966178D02*
X261129523Y-119930464D01*
X261129523Y-119930464D02*
X261177142Y-119930464D01*
X261177142Y-119930464D02*
X261248571Y-119966178D01*
X261248571Y-119966178D02*
X261272380Y-120001892D01*
X261581904Y-119930464D02*
X261677142Y-119930464D01*
X261677142Y-119930464D02*
X261724761Y-119966178D01*
X261724761Y-119966178D02*
X261772380Y-120037607D01*
X261772380Y-120037607D02*
X261796190Y-120180464D01*
X261796190Y-120180464D02*
X261796190Y-120430464D01*
X261796190Y-120430464D02*
X261772380Y-120573321D01*
X261772380Y-120573321D02*
X261724761Y-120644750D01*
X261724761Y-120644750D02*
X261677142Y-120680464D01*
X261677142Y-120680464D02*
X261581904Y-120680464D01*
X261581904Y-120680464D02*
X261534285Y-120644750D01*
X261534285Y-120644750D02*
X261486666Y-120573321D01*
X261486666Y-120573321D02*
X261462857Y-120430464D01*
X261462857Y-120430464D02*
X261462857Y-120180464D01*
X261462857Y-120180464D02*
X261486666Y-120037607D01*
X261486666Y-120037607D02*
X261534285Y-119966178D01*
X261534285Y-119966178D02*
X261581904Y-119930464D01*
X262248571Y-120680464D02*
X262010476Y-120680464D01*
X262010476Y-120680464D02*
X262010476Y-119930464D01*
X262629524Y-120180464D02*
X262629524Y-120680464D01*
X262510476Y-119894750D02*
X262391429Y-120430464D01*
X262391429Y-120430464D02*
X262700952Y-120430464D01*
X261220761Y-100352464D02*
X261054095Y-99995321D01*
X260935047Y-100352464D02*
X260935047Y-99602464D01*
X260935047Y-99602464D02*
X261125523Y-99602464D01*
X261125523Y-99602464D02*
X261173142Y-99638178D01*
X261173142Y-99638178D02*
X261196952Y-99673892D01*
X261196952Y-99673892D02*
X261220761Y-99745321D01*
X261220761Y-99745321D02*
X261220761Y-99852464D01*
X261220761Y-99852464D02*
X261196952Y-99923892D01*
X261196952Y-99923892D02*
X261173142Y-99959607D01*
X261173142Y-99959607D02*
X261125523Y-99995321D01*
X261125523Y-99995321D02*
X260935047Y-99995321D01*
X261411238Y-100138178D02*
X261649333Y-100138178D01*
X261363619Y-100352464D02*
X261530285Y-99602464D01*
X261530285Y-99602464D02*
X261696952Y-100352464D01*
X261815999Y-99602464D02*
X261935047Y-100352464D01*
X261935047Y-100352464D02*
X262030285Y-99816750D01*
X262030285Y-99816750D02*
X262125523Y-100352464D01*
X262125523Y-100352464D02*
X262244571Y-99602464D01*
D14*
X182942692Y-164079899D02*
X182757822Y-164769846D01*
X182757822Y-164769846D02*
X182674851Y-164895511D01*
X182674851Y-164895511D02*
X182558209Y-164962854D01*
X182558209Y-164962854D02*
X182407894Y-164971877D01*
X182407894Y-164971877D02*
X182315902Y-164947227D01*
X183649799Y-165304644D02*
X183097842Y-165156747D01*
X183373821Y-165230696D02*
X183632640Y-164264770D01*
X183632640Y-164264770D02*
X183503672Y-164378110D01*
X183503672Y-164378110D02*
X183387030Y-164445453D01*
X183387030Y-164445453D02*
X183282712Y-164466800D01*
X250692095Y-139272438D02*
X250596857Y-139224819D01*
X250596857Y-139224819D02*
X250454000Y-139224819D01*
X250454000Y-139224819D02*
X250311143Y-139272438D01*
X250311143Y-139272438D02*
X250215905Y-139367676D01*
X250215905Y-139367676D02*
X250168286Y-139462914D01*
X250168286Y-139462914D02*
X250120667Y-139653390D01*
X250120667Y-139653390D02*
X250120667Y-139796247D01*
X250120667Y-139796247D02*
X250168286Y-139986723D01*
X250168286Y-139986723D02*
X250215905Y-140081961D01*
X250215905Y-140081961D02*
X250311143Y-140177200D01*
X250311143Y-140177200D02*
X250454000Y-140224819D01*
X250454000Y-140224819D02*
X250549238Y-140224819D01*
X250549238Y-140224819D02*
X250692095Y-140177200D01*
X250692095Y-140177200D02*
X250739714Y-140129580D01*
X250739714Y-140129580D02*
X250739714Y-139796247D01*
X250739714Y-139796247D02*
X250549238Y-139796247D01*
X251168286Y-140224819D02*
X251168286Y-139224819D01*
X251168286Y-139224819D02*
X251739714Y-140224819D01*
X251739714Y-140224819D02*
X251739714Y-139224819D01*
X252215905Y-140224819D02*
X252215905Y-139224819D01*
X252215905Y-139224819D02*
X252454000Y-139224819D01*
X252454000Y-139224819D02*
X252596857Y-139272438D01*
X252596857Y-139272438D02*
X252692095Y-139367676D01*
X252692095Y-139367676D02*
X252739714Y-139462914D01*
X252739714Y-139462914D02*
X252787333Y-139653390D01*
X252787333Y-139653390D02*
X252787333Y-139796247D01*
X252787333Y-139796247D02*
X252739714Y-139986723D01*
X252739714Y-139986723D02*
X252692095Y-140081961D01*
X252692095Y-140081961D02*
X252596857Y-140177200D01*
X252596857Y-140177200D02*
X252454000Y-140224819D01*
X252454000Y-140224819D02*
X252215905Y-140224819D01*
X250901142Y-137634819D02*
X250424952Y-137634819D01*
X250424952Y-137634819D02*
X250424952Y-136634819D01*
X251234476Y-137111009D02*
X251567809Y-137111009D01*
X251710666Y-137634819D02*
X251234476Y-137634819D01*
X251234476Y-137634819D02*
X251234476Y-136634819D01*
X251234476Y-136634819D02*
X251710666Y-136634819D01*
X252139238Y-137634819D02*
X252139238Y-136634819D01*
X252139238Y-136634819D02*
X252377333Y-136634819D01*
X252377333Y-136634819D02*
X252520190Y-136682438D01*
X252520190Y-136682438D02*
X252615428Y-136777676D01*
X252615428Y-136777676D02*
X252663047Y-136872914D01*
X252663047Y-136872914D02*
X252710666Y-137063390D01*
X252710666Y-137063390D02*
X252710666Y-137206247D01*
X252710666Y-137206247D02*
X252663047Y-137396723D01*
X252663047Y-137396723D02*
X252615428Y-137491961D01*
X252615428Y-137491961D02*
X252520190Y-137587200D01*
X252520190Y-137587200D02*
X252377333Y-137634819D01*
X252377333Y-137634819D02*
X252139238Y-137634819D01*
X250170667Y-134174819D02*
X250504000Y-135174819D01*
X250504000Y-135174819D02*
X250837333Y-134174819D01*
X251742095Y-135079580D02*
X251694476Y-135127200D01*
X251694476Y-135127200D02*
X251551619Y-135174819D01*
X251551619Y-135174819D02*
X251456381Y-135174819D01*
X251456381Y-135174819D02*
X251313524Y-135127200D01*
X251313524Y-135127200D02*
X251218286Y-135031961D01*
X251218286Y-135031961D02*
X251170667Y-134936723D01*
X251170667Y-134936723D02*
X251123048Y-134746247D01*
X251123048Y-134746247D02*
X251123048Y-134603390D01*
X251123048Y-134603390D02*
X251170667Y-134412914D01*
X251170667Y-134412914D02*
X251218286Y-134317676D01*
X251218286Y-134317676D02*
X251313524Y-134222438D01*
X251313524Y-134222438D02*
X251456381Y-134174819D01*
X251456381Y-134174819D02*
X251551619Y-134174819D01*
X251551619Y-134174819D02*
X251694476Y-134222438D01*
X251694476Y-134222438D02*
X251742095Y-134270057D01*
X252742095Y-135079580D02*
X252694476Y-135127200D01*
X252694476Y-135127200D02*
X252551619Y-135174819D01*
X252551619Y-135174819D02*
X252456381Y-135174819D01*
X252456381Y-135174819D02*
X252313524Y-135127200D01*
X252313524Y-135127200D02*
X252218286Y-135031961D01*
X252218286Y-135031961D02*
X252170667Y-134936723D01*
X252170667Y-134936723D02*
X252123048Y-134746247D01*
X252123048Y-134746247D02*
X252123048Y-134603390D01*
X252123048Y-134603390D02*
X252170667Y-134412914D01*
X252170667Y-134412914D02*
X252218286Y-134317676D01*
X252218286Y-134317676D02*
X252313524Y-134222438D01*
X252313524Y-134222438D02*
X252456381Y-134174819D01*
X252456381Y-134174819D02*
X252551619Y-134174819D01*
X252551619Y-134174819D02*
X252694476Y-134222438D01*
X252694476Y-134222438D02*
X252742095Y-134270057D01*
X264741819Y-120054666D02*
X264265628Y-120387999D01*
X264741819Y-120626094D02*
X263741819Y-120626094D01*
X263741819Y-120626094D02*
X263741819Y-120245142D01*
X263741819Y-120245142D02*
X263789438Y-120149904D01*
X263789438Y-120149904D02*
X263837057Y-120102285D01*
X263837057Y-120102285D02*
X263932295Y-120054666D01*
X263932295Y-120054666D02*
X264075152Y-120054666D01*
X264075152Y-120054666D02*
X264170390Y-120102285D01*
X264170390Y-120102285D02*
X264218009Y-120149904D01*
X264218009Y-120149904D02*
X264265628Y-120245142D01*
X264265628Y-120245142D02*
X264265628Y-120626094D01*
X264741819Y-119102285D02*
X264741819Y-119673713D01*
X264741819Y-119387999D02*
X263741819Y-119387999D01*
X263741819Y-119387999D02*
X263884676Y-119483237D01*
X263884676Y-119483237D02*
X263979914Y-119578475D01*
X263979914Y-119578475D02*
X264027533Y-119673713D01*
X266190505Y-104908419D02*
X266190505Y-103908419D01*
X266190505Y-103908419D02*
X266571457Y-103908419D01*
X266571457Y-103908419D02*
X266666695Y-103956038D01*
X266666695Y-103956038D02*
X266714314Y-104003657D01*
X266714314Y-104003657D02*
X266761933Y-104098895D01*
X266761933Y-104098895D02*
X266761933Y-104241752D01*
X266761933Y-104241752D02*
X266714314Y-104336990D01*
X266714314Y-104336990D02*
X266666695Y-104384609D01*
X266666695Y-104384609D02*
X266571457Y-104432228D01*
X266571457Y-104432228D02*
X266190505Y-104432228D01*
X267714314Y-104908419D02*
X267142886Y-104908419D01*
X267428600Y-104908419D02*
X267428600Y-103908419D01*
X267428600Y-103908419D02*
X267333362Y-104051276D01*
X267333362Y-104051276D02*
X267238124Y-104146514D01*
X267238124Y-104146514D02*
X267142886Y-104194133D01*
X270583819Y-120054666D02*
X270107628Y-120387999D01*
X270583819Y-120626094D02*
X269583819Y-120626094D01*
X269583819Y-120626094D02*
X269583819Y-120245142D01*
X269583819Y-120245142D02*
X269631438Y-120149904D01*
X269631438Y-120149904D02*
X269679057Y-120102285D01*
X269679057Y-120102285D02*
X269774295Y-120054666D01*
X269774295Y-120054666D02*
X269917152Y-120054666D01*
X269917152Y-120054666D02*
X270012390Y-120102285D01*
X270012390Y-120102285D02*
X270060009Y-120149904D01*
X270060009Y-120149904D02*
X270107628Y-120245142D01*
X270107628Y-120245142D02*
X270107628Y-120626094D01*
X269679057Y-119673713D02*
X269631438Y-119626094D01*
X269631438Y-119626094D02*
X269583819Y-119530856D01*
X269583819Y-119530856D02*
X269583819Y-119292761D01*
X269583819Y-119292761D02*
X269631438Y-119197523D01*
X269631438Y-119197523D02*
X269679057Y-119149904D01*
X269679057Y-119149904D02*
X269774295Y-119102285D01*
X269774295Y-119102285D02*
X269869533Y-119102285D01*
X269869533Y-119102285D02*
X270012390Y-119149904D01*
X270012390Y-119149904D02*
X270583819Y-119721332D01*
X270583819Y-119721332D02*
X270583819Y-119102285D01*
X176500000Y-135825000D02*
X176500000Y-133175000D01*
X176350000Y-132750000D02*
X176350000Y-136300000D01*
X176250000Y-132600000D02*
X176250000Y-136350000D01*
X176150000Y-132500000D02*
X176150000Y-136450000D01*
X176050000Y-132400000D02*
X176050000Y-136600000D01*
X175900000Y-132300000D02*
X175900000Y-136700000D01*
X175750000Y-132250000D02*
X175750000Y-136750000D01*
X175600000Y-132200000D02*
X175600000Y-136750000D01*
X175500000Y-136825000D02*
X172925000Y-136825000D01*
X175500000Y-132175000D02*
X172900000Y-132175000D01*
X175450000Y-132200000D02*
X175450000Y-136800000D01*
X175300000Y-132200000D02*
X175300000Y-136800000D01*
X175150000Y-132200000D02*
X175150000Y-136800000D01*
X175000000Y-132200000D02*
X175000000Y-136800000D01*
X174850000Y-132200000D02*
X174850000Y-136800000D01*
X174700000Y-132200000D02*
X174700000Y-136800000D01*
X174550000Y-132200000D02*
X174550000Y-136800000D01*
X174400000Y-132200000D02*
X174400000Y-136800000D01*
X174250000Y-132200000D02*
X174250000Y-136800000D01*
X174100000Y-132200000D02*
X174100000Y-136800000D01*
X173950000Y-132200000D02*
X173950000Y-136800000D01*
X173800000Y-132200000D02*
X173800000Y-136800000D01*
X173650000Y-132200000D02*
X173650000Y-136800000D01*
X173500000Y-132200000D02*
X173500000Y-136800000D01*
X173350000Y-132200000D02*
X173350000Y-136800000D01*
X173200000Y-132200000D02*
X173200000Y-136800000D01*
X173050000Y-132200000D02*
X173050000Y-136750000D01*
X172900000Y-132200000D02*
X172900000Y-136800000D01*
X172750000Y-132200000D02*
X172750000Y-136800000D01*
X172600000Y-132250000D02*
X172600000Y-136800000D01*
X172450000Y-132350000D02*
X172450000Y-136900000D01*
X172300000Y-132450000D02*
X172300000Y-136950000D01*
X172200000Y-132600000D02*
X172200000Y-137000000D01*
X172100000Y-132850000D02*
X172100000Y-137050000D01*
X172000000Y-133000000D02*
X172000000Y-137150000D01*
X171900000Y-133200000D02*
X171900000Y-137350000D01*
X171800000Y-133350000D02*
X171800000Y-137500000D01*
X171700000Y-133550000D02*
X171700000Y-138000000D01*
X171550000Y-133700000D02*
X171550000Y-138150000D01*
X171400000Y-133850000D02*
X171400000Y-138250000D01*
X171250000Y-133950000D02*
X171250000Y-138350000D01*
X171100000Y-134050000D02*
X171100000Y-138500000D01*
X170950000Y-134150000D02*
X170950000Y-138600000D01*
X170800000Y-134200000D02*
X170800000Y-138750000D01*
X170650000Y-134300000D02*
X170650000Y-138850000D01*
X170500000Y-134350000D02*
X170500000Y-138950000D01*
X170475000Y-139025000D02*
X171750000Y-138000000D01*
X170475000Y-139025000D02*
X167925000Y-139025000D01*
X170350000Y-134350000D02*
X170350000Y-139000000D01*
X170200000Y-134350000D02*
X170200000Y-139000000D01*
X170050000Y-134400000D02*
X170050000Y-138950000D01*
X169900000Y-134400000D02*
X169900000Y-139000000D01*
X169900000Y-134375000D02*
X167925000Y-134375000D01*
X169750000Y-134400000D02*
X169750000Y-139000000D01*
X169600000Y-134400000D02*
X169600000Y-139000000D01*
X169450000Y-134400000D02*
X169450000Y-139000000D01*
X169300000Y-134400000D02*
X169300000Y-139000000D01*
X169150000Y-134400000D02*
X169150000Y-139000000D01*
X169000000Y-134400000D02*
X169000000Y-139000000D01*
X168850000Y-134400000D02*
X168850000Y-139000000D01*
X168700000Y-134400000D02*
X168700000Y-139000000D01*
X168550000Y-134400000D02*
X168550000Y-139000000D01*
X168400000Y-134400000D02*
X168400000Y-139000000D01*
X168250000Y-134400000D02*
X168250000Y-139000000D01*
X168100000Y-134400000D02*
X168100000Y-139000000D01*
X167950000Y-134400000D02*
X167950000Y-139000000D01*
X167800000Y-134550000D02*
X167800000Y-138900000D01*
X167650000Y-134650000D02*
X167650000Y-138750000D01*
X167500000Y-134800000D02*
X167500000Y-138600000D01*
X167350000Y-134950000D02*
X167350000Y-138450000D01*
X167200000Y-135150000D02*
X167200000Y-138300000D01*
X167050000Y-135250000D02*
X167050000Y-138150000D01*
X166900000Y-138000000D02*
X167925000Y-139025000D01*
X166900000Y-138000000D02*
X166900000Y-135400000D01*
X166900000Y-135400000D02*
X167925000Y-134375000D01*
X175500000Y-136825000D02*
G75*
G03*
X176500000Y-135825000I1J999999D01*
G01*
X176500000Y-133175000D02*
G75*
G03*
X175500000Y-132175000I-999999J1D01*
G01*
X172899005Y-132176210D02*
G75*
G03*
X172037802Y-132878096I38796J-926886D01*
G01*
X169900000Y-134375000D02*
G75*
G03*
X172037801Y-132878096I1J2274999D01*
G01*
X172925000Y-136825000D02*
G75*
G03*
X171750000Y-138000000I2J-1175002D01*
G01*
X238550000Y-138900000D02*
X237050000Y-138900000D01*
X237050000Y-138900000D02*
X237050000Y-144300000D01*
X238300000Y-141100000D02*
X237300000Y-141100000D01*
X237800000Y-141200000D02*
X238300000Y-142100000D01*
X238300000Y-142100000D02*
X237300000Y-142100000D01*
X237300000Y-142100000D02*
X237800000Y-141200000D01*
X238550000Y-144300000D02*
X238550000Y-138900000D01*
X238550000Y-144300000D02*
X237050000Y-144300000D01*
D13*
X171105000Y-105300000D02*
X172600000Y-105300000D01*
X172630000Y-105300000D02*
X172630000Y-106750000D01*
X172630000Y-106750000D02*
X171105000Y-106750000D01*
X247905000Y-101390000D02*
X249400000Y-101390000D01*
X249430000Y-101390000D02*
X249430000Y-102840000D01*
X249430000Y-102840000D02*
X247905000Y-102840000D01*
D14*
X161850000Y-126500000D02*
X160350000Y-126500000D01*
X160350000Y-126500000D02*
X160350000Y-131900000D01*
X161600000Y-128700000D02*
X160600000Y-128700000D01*
X161100000Y-128800000D02*
X161600000Y-129700000D01*
X161600000Y-129700000D02*
X160600000Y-129700000D01*
X160600000Y-129700000D02*
X161100000Y-128800000D01*
X161850000Y-131900000D02*
X161850000Y-126500000D01*
X161850000Y-131900000D02*
X160350000Y-131900000D01*
X214900000Y-106935000D02*
X214900000Y-104285000D01*
X214750000Y-103860000D02*
X214750000Y-107410000D01*
X214650000Y-103710000D02*
X214650000Y-107460000D01*
X214550000Y-103610000D02*
X214550000Y-107560000D01*
X214450000Y-103510000D02*
X214450000Y-107710000D01*
X214300000Y-103410000D02*
X214300000Y-107810000D01*
X214150000Y-103360000D02*
X214150000Y-107860000D01*
X214000000Y-103310000D02*
X214000000Y-107860000D01*
X213900000Y-107935000D02*
X211325000Y-107935000D01*
X213900000Y-103285000D02*
X211300000Y-103285000D01*
X213850000Y-103310000D02*
X213850000Y-107910000D01*
X213700000Y-103310000D02*
X213700000Y-107910000D01*
X213550000Y-103310000D02*
X213550000Y-107910000D01*
X213400000Y-103310000D02*
X213400000Y-107910000D01*
X213250000Y-103310000D02*
X213250000Y-107910000D01*
X213100000Y-103310000D02*
X213100000Y-107910000D01*
X212950000Y-103310000D02*
X212950000Y-107910000D01*
X212800000Y-103310000D02*
X212800000Y-107910000D01*
X212650000Y-103310000D02*
X212650000Y-107910000D01*
X212500000Y-103310000D02*
X212500000Y-107910000D01*
X212350000Y-103310000D02*
X212350000Y-107910000D01*
X212200000Y-103310000D02*
X212200000Y-107910000D01*
X212050000Y-103310000D02*
X212050000Y-107910000D01*
X211900000Y-103310000D02*
X211900000Y-107910000D01*
X211750000Y-103310000D02*
X211750000Y-107910000D01*
X211600000Y-103310000D02*
X211600000Y-107910000D01*
X211450000Y-103310000D02*
X211450000Y-107860000D01*
X211300000Y-103310000D02*
X211300000Y-107910000D01*
X211150000Y-103310000D02*
X211150000Y-107910000D01*
X211000000Y-103360000D02*
X211000000Y-107910000D01*
X210850000Y-103460000D02*
X210850000Y-108010000D01*
X210700000Y-103560000D02*
X210700000Y-108060000D01*
X210600000Y-103710000D02*
X210600000Y-108110000D01*
X210500000Y-103960000D02*
X210500000Y-108160000D01*
X210400000Y-104110000D02*
X210400000Y-108260000D01*
X210300000Y-104310000D02*
X210300000Y-108460000D01*
X210200000Y-104460000D02*
X210200000Y-108610000D01*
X210100000Y-104660000D02*
X210100000Y-109110000D01*
X209950000Y-104810000D02*
X209950000Y-109260000D01*
X209800000Y-104960000D02*
X209800000Y-109360000D01*
X209650000Y-105060000D02*
X209650000Y-109460000D01*
X209500000Y-105160000D02*
X209500000Y-109610000D01*
X209350000Y-105260000D02*
X209350000Y-109710000D01*
X209200000Y-105310000D02*
X209200000Y-109860000D01*
X209050000Y-105410000D02*
X209050000Y-109960000D01*
X208900000Y-105460000D02*
X208900000Y-110060000D01*
X208875000Y-110135000D02*
X210150000Y-109110000D01*
X208875000Y-110135000D02*
X206325000Y-110135000D01*
X208750000Y-105460000D02*
X208750000Y-110110000D01*
X208600000Y-105460000D02*
X208600000Y-110110000D01*
X208450000Y-105510000D02*
X208450000Y-110060000D01*
X208300000Y-105510000D02*
X208300000Y-110110000D01*
X208300000Y-105485000D02*
X206325000Y-105485000D01*
X208150000Y-105510000D02*
X208150000Y-110110000D01*
X208000000Y-105510000D02*
X208000000Y-110110000D01*
X207850000Y-105510000D02*
X207850000Y-110110000D01*
X207700000Y-105510000D02*
X207700000Y-110110000D01*
X207550000Y-105510000D02*
X207550000Y-110110000D01*
X207400000Y-105510000D02*
X207400000Y-110110000D01*
X207250000Y-105510000D02*
X207250000Y-110110000D01*
X207100000Y-105510000D02*
X207100000Y-110110000D01*
X206950000Y-105510000D02*
X206950000Y-110110000D01*
X206800000Y-105510000D02*
X206800000Y-110110000D01*
X206650000Y-105510000D02*
X206650000Y-110110000D01*
X206500000Y-105510000D02*
X206500000Y-110110000D01*
X206350000Y-105510000D02*
X206350000Y-110110000D01*
X206200000Y-105660000D02*
X206200000Y-110010000D01*
X206050000Y-105760000D02*
X206050000Y-109860000D01*
X205900000Y-105910000D02*
X205900000Y-109710000D01*
X205750000Y-106060000D02*
X205750000Y-109560000D01*
X205600000Y-106260000D02*
X205600000Y-109410000D01*
X205450000Y-106360000D02*
X205450000Y-109260000D01*
X205300000Y-109110000D02*
X206325000Y-110135000D01*
X205300000Y-109110000D02*
X205300000Y-106510000D01*
X205300000Y-106510000D02*
X206325000Y-105485000D01*
X213900000Y-107935000D02*
G75*
G03*
X214900000Y-106935000I1J999999D01*
G01*
X214900000Y-104285000D02*
G75*
G03*
X213900000Y-103285000I-999999J1D01*
G01*
X211299005Y-103286210D02*
G75*
G03*
X210437802Y-103988096I38796J-926886D01*
G01*
X208300000Y-105485000D02*
G75*
G03*
X210437801Y-103988096I1J2274999D01*
G01*
X211325000Y-107935000D02*
G75*
G03*
X210150000Y-109110000I2J-1175002D01*
G01*
X266003457Y-160143477D02*
X265917952Y-160378401D01*
X266003457Y-160143477D02*
X271641613Y-162195598D01*
X264806387Y-163432402D02*
X264891892Y-163197479D01*
X264806387Y-163432402D02*
X270444543Y-165484523D01*
X271641613Y-162195598D02*
X271556108Y-162430521D01*
X270444543Y-165484523D02*
X270530048Y-165249599D01*
X181050000Y-119700000D02*
X179550000Y-119700000D01*
X179550000Y-119700000D02*
X179550000Y-125100000D01*
X180800000Y-121900000D02*
X179800000Y-121900000D01*
X180300000Y-122000000D02*
X180800000Y-122900000D01*
X180800000Y-122900000D02*
X179800000Y-122900000D01*
X179800000Y-122900000D02*
X180300000Y-122000000D01*
X181050000Y-125100000D02*
X181050000Y-119700000D01*
X181050000Y-125100000D02*
X179550000Y-125100000D01*
X260451600Y-131064000D02*
X270611600Y-131064000D01*
X260451600Y-133604000D02*
X260451600Y-131064000D01*
X260451600Y-133604000D02*
X270611600Y-133604000D01*
X270611600Y-131064000D02*
X273151600Y-131064000D01*
X270611600Y-133604000D02*
X273151600Y-133604000D01*
X273151600Y-131064000D02*
X273151600Y-133604000D01*
X181050000Y-100500000D02*
X179550000Y-100500000D01*
X179550000Y-100500000D02*
X179550000Y-105900000D01*
X180800000Y-102700000D02*
X179800000Y-102700000D01*
X180300000Y-102800000D02*
X180800000Y-103700000D01*
X180800000Y-103700000D02*
X179800000Y-103700000D01*
X179800000Y-103700000D02*
X180300000Y-102800000D01*
X181050000Y-105900000D02*
X181050000Y-100500000D01*
X181050000Y-105900000D02*
X179550000Y-105900000D01*
D13*
X228705000Y-136900000D02*
X230200000Y-136900000D01*
X230230000Y-136900000D02*
X230230000Y-138350000D01*
X230230000Y-138350000D02*
X228705000Y-138350000D01*
D14*
X234100000Y-129025000D02*
X234100000Y-126375000D01*
X233950000Y-125950000D02*
X233950000Y-129500000D01*
X233850000Y-125800000D02*
X233850000Y-129550000D01*
X233750000Y-125700000D02*
X233750000Y-129650000D01*
X233650000Y-125600000D02*
X233650000Y-129800000D01*
X233500000Y-125500000D02*
X233500000Y-129900000D01*
X233350000Y-125450000D02*
X233350000Y-129950000D01*
X233200000Y-125400000D02*
X233200000Y-129950000D01*
X233100000Y-130025000D02*
X230525000Y-130025000D01*
X233100000Y-125375000D02*
X230500000Y-125375000D01*
X233050000Y-125400000D02*
X233050000Y-130000000D01*
X232900000Y-125400000D02*
X232900000Y-130000000D01*
X232750000Y-125400000D02*
X232750000Y-130000000D01*
X232600000Y-125400000D02*
X232600000Y-130000000D01*
X232450000Y-125400000D02*
X232450000Y-130000000D01*
X232300000Y-125400000D02*
X232300000Y-130000000D01*
X232150000Y-125400000D02*
X232150000Y-130000000D01*
X232000000Y-125400000D02*
X232000000Y-130000000D01*
X231850000Y-125400000D02*
X231850000Y-130000000D01*
X231700000Y-125400000D02*
X231700000Y-130000000D01*
X231550000Y-125400000D02*
X231550000Y-130000000D01*
X231400000Y-125400000D02*
X231400000Y-130000000D01*
X231250000Y-125400000D02*
X231250000Y-130000000D01*
X231100000Y-125400000D02*
X231100000Y-130000000D01*
X230950000Y-125400000D02*
X230950000Y-130000000D01*
X230800000Y-125400000D02*
X230800000Y-130000000D01*
X230650000Y-125400000D02*
X230650000Y-129950000D01*
X230500000Y-125400000D02*
X230500000Y-130000000D01*
X230350000Y-125400000D02*
X230350000Y-130000000D01*
X230200000Y-125450000D02*
X230200000Y-130000000D01*
X230050000Y-125550000D02*
X230050000Y-130100000D01*
X229900000Y-125650000D02*
X229900000Y-130150000D01*
X229800000Y-125800000D02*
X229800000Y-130200000D01*
X229700000Y-126050000D02*
X229700000Y-130250000D01*
X229600000Y-126200000D02*
X229600000Y-130350000D01*
X229500000Y-126400000D02*
X229500000Y-130550000D01*
X229400000Y-126550000D02*
X229400000Y-130700000D01*
X229300000Y-126750000D02*
X229300000Y-131200000D01*
X229150000Y-126900000D02*
X229150000Y-131350000D01*
X229000000Y-127050000D02*
X229000000Y-131450000D01*
X228850000Y-127150000D02*
X228850000Y-131550000D01*
X228700000Y-127250000D02*
X228700000Y-131700000D01*
X228550000Y-127350000D02*
X228550000Y-131800000D01*
X228400000Y-127400000D02*
X228400000Y-131950000D01*
X228250000Y-127500000D02*
X228250000Y-132050000D01*
X228100000Y-127550000D02*
X228100000Y-132150000D01*
X228075000Y-132225000D02*
X229350000Y-131200000D01*
X228075000Y-132225000D02*
X225525000Y-132225000D01*
X227950000Y-127550000D02*
X227950000Y-132200000D01*
X227800000Y-127550000D02*
X227800000Y-132200000D01*
X227650000Y-127600000D02*
X227650000Y-132150000D01*
X227500000Y-127600000D02*
X227500000Y-132200000D01*
X227500000Y-127575000D02*
X225525000Y-127575000D01*
X227350000Y-127600000D02*
X227350000Y-132200000D01*
X227200000Y-127600000D02*
X227200000Y-132200000D01*
X227050000Y-127600000D02*
X227050000Y-132200000D01*
X226900000Y-127600000D02*
X226900000Y-132200000D01*
X226750000Y-127600000D02*
X226750000Y-132200000D01*
X226600000Y-127600000D02*
X226600000Y-132200000D01*
X226450000Y-127600000D02*
X226450000Y-132200000D01*
X226300000Y-127600000D02*
X226300000Y-132200000D01*
X226150000Y-127600000D02*
X226150000Y-132200000D01*
X226000000Y-127600000D02*
X226000000Y-132200000D01*
X225850000Y-127600000D02*
X225850000Y-132200000D01*
X225700000Y-127600000D02*
X225700000Y-132200000D01*
X225550000Y-127600000D02*
X225550000Y-132200000D01*
X225400000Y-127750000D02*
X225400000Y-132100000D01*
X225250000Y-127850000D02*
X225250000Y-131950000D01*
X225100000Y-128000000D02*
X225100000Y-131800000D01*
X224950000Y-128150000D02*
X224950000Y-131650000D01*
X224800000Y-128350000D02*
X224800000Y-131500000D01*
X224650000Y-128450000D02*
X224650000Y-131350000D01*
X224500000Y-131200000D02*
X225525000Y-132225000D01*
X224500000Y-131200000D02*
X224500000Y-128600000D01*
X224500000Y-128600000D02*
X225525000Y-127575000D01*
X233100000Y-130025000D02*
G75*
G03*
X234100000Y-129025000I1J999999D01*
G01*
X234100000Y-126375000D02*
G75*
G03*
X233100000Y-125375000I-999999J1D01*
G01*
X230499005Y-125376210D02*
G75*
G03*
X229637802Y-126078096I38796J-926886D01*
G01*
X227500000Y-127575000D02*
G75*
G03*
X229637801Y-126078096I1J2274999D01*
G01*
X230525000Y-130025000D02*
G75*
G03*
X229350000Y-131200000I2J-1175002D01*
G01*
X267462000Y-115943380D02*
X267462000Y-113657380D01*
X269240000Y-115943380D02*
X267462000Y-115943380D01*
X267462000Y-113657380D02*
X269240000Y-113657380D01*
X269240000Y-113657380D02*
X269240000Y-115943380D01*
X269494000Y-115943380D02*
X269494000Y-113657380D01*
X271272000Y-115943380D02*
X269494000Y-115943380D01*
X269494000Y-113657380D02*
X271272000Y-113657380D01*
X271272000Y-113657380D02*
X271272000Y-115943380D01*
X253300000Y-112715000D02*
X253300000Y-110065000D01*
X253150000Y-109640000D02*
X253150000Y-113190000D01*
X253050000Y-109490000D02*
X253050000Y-113240000D01*
X252950000Y-109390000D02*
X252950000Y-113340000D01*
X252850000Y-109290000D02*
X252850000Y-113490000D01*
X252700000Y-109190000D02*
X252700000Y-113590000D01*
X252550000Y-109140000D02*
X252550000Y-113640000D01*
X252400000Y-109090000D02*
X252400000Y-113640000D01*
X252300000Y-113715000D02*
X249725000Y-113715000D01*
X252300000Y-109065000D02*
X249700000Y-109065000D01*
X252250000Y-109090000D02*
X252250000Y-113690000D01*
X252100000Y-109090000D02*
X252100000Y-113690000D01*
X251950000Y-109090000D02*
X251950000Y-113690000D01*
X251800000Y-109090000D02*
X251800000Y-113690000D01*
X251650000Y-109090000D02*
X251650000Y-113690000D01*
X251500000Y-109090000D02*
X251500000Y-113690000D01*
X251350000Y-109090000D02*
X251350000Y-113690000D01*
X251200000Y-109090000D02*
X251200000Y-113690000D01*
X251050000Y-109090000D02*
X251050000Y-113690000D01*
X250900000Y-109090000D02*
X250900000Y-113690000D01*
X250750000Y-109090000D02*
X250750000Y-113690000D01*
X250600000Y-109090000D02*
X250600000Y-113690000D01*
X250450000Y-109090000D02*
X250450000Y-113690000D01*
X250300000Y-109090000D02*
X250300000Y-113690000D01*
X250150000Y-109090000D02*
X250150000Y-113690000D01*
X250000000Y-109090000D02*
X250000000Y-113690000D01*
X249850000Y-109090000D02*
X249850000Y-113640000D01*
X249700000Y-109090000D02*
X249700000Y-113690000D01*
X249550000Y-109090000D02*
X249550000Y-113690000D01*
X249400000Y-109140000D02*
X249400000Y-113690000D01*
X249250000Y-109240000D02*
X249250000Y-113790000D01*
X249100000Y-109340000D02*
X249100000Y-113840000D01*
X249000000Y-109490000D02*
X249000000Y-113890000D01*
X248900000Y-109740000D02*
X248900000Y-113940000D01*
X248800000Y-109890000D02*
X248800000Y-114040000D01*
X248700000Y-110090000D02*
X248700000Y-114240000D01*
X248600000Y-110240000D02*
X248600000Y-114390000D01*
X248500000Y-110440000D02*
X248500000Y-114890000D01*
X248350000Y-110590000D02*
X248350000Y-115040000D01*
X248200000Y-110740000D02*
X248200000Y-115140000D01*
X248050000Y-110840000D02*
X248050000Y-115240000D01*
X247900000Y-110940000D02*
X247900000Y-115390000D01*
X247750000Y-111040000D02*
X247750000Y-115490000D01*
X247600000Y-111090000D02*
X247600000Y-115640000D01*
X247450000Y-111190000D02*
X247450000Y-115740000D01*
X247300000Y-111240000D02*
X247300000Y-115840000D01*
X247275000Y-115915000D02*
X248550000Y-114890000D01*
X247275000Y-115915000D02*
X244725000Y-115915000D01*
X247150000Y-111240000D02*
X247150000Y-115890000D01*
X247000000Y-111240000D02*
X247000000Y-115890000D01*
X246850000Y-111290000D02*
X246850000Y-115840000D01*
X246700000Y-111290000D02*
X246700000Y-115890000D01*
X246700000Y-111265000D02*
X244725000Y-111265000D01*
X246550000Y-111290000D02*
X246550000Y-115890000D01*
X246400000Y-111290000D02*
X246400000Y-115890000D01*
X246250000Y-111290000D02*
X246250000Y-115890000D01*
X246100000Y-111290000D02*
X246100000Y-115890000D01*
X245950000Y-111290000D02*
X245950000Y-115890000D01*
X245800000Y-111290000D02*
X245800000Y-115890000D01*
X245650000Y-111290000D02*
X245650000Y-115890000D01*
X245500000Y-111290000D02*
X245500000Y-115890000D01*
X245350000Y-111290000D02*
X245350000Y-115890000D01*
X245200000Y-111290000D02*
X245200000Y-115890000D01*
X245050000Y-111290000D02*
X245050000Y-115890000D01*
X244900000Y-111290000D02*
X244900000Y-115890000D01*
X244750000Y-111290000D02*
X244750000Y-115890000D01*
X244600000Y-111440000D02*
X244600000Y-115790000D01*
X244450000Y-111540000D02*
X244450000Y-115640000D01*
X244300000Y-111690000D02*
X244300000Y-115490000D01*
X244150000Y-111840000D02*
X244150000Y-115340000D01*
X244000000Y-112040000D02*
X244000000Y-115190000D01*
X243850000Y-112140000D02*
X243850000Y-115040000D01*
X243700000Y-114890000D02*
X244725000Y-115915000D01*
X243700000Y-114890000D02*
X243700000Y-112290000D01*
X243700000Y-112290000D02*
X244725000Y-111265000D01*
X252300000Y-113715000D02*
G75*
G03*
X253300000Y-112715000I1J999999D01*
G01*
X253300000Y-110065000D02*
G75*
G03*
X252300000Y-109065000I-999999J1D01*
G01*
X249699005Y-109066210D02*
G75*
G03*
X248837802Y-109768096I38796J-926886D01*
G01*
X246700000Y-111265000D02*
G75*
G03*
X248837801Y-109768096I1J2274999D01*
G01*
X249725000Y-113715000D02*
G75*
G03*
X248550000Y-114890000I2J-1175002D01*
G01*
D13*
X255360325Y-169343631D02*
X255871645Y-167938791D01*
X255881906Y-167910600D02*
X257244460Y-168406529D01*
X257244460Y-168406529D02*
X256722879Y-169839561D01*
D14*
X176500000Y-155025000D02*
X176500000Y-152375000D01*
X176350000Y-151950000D02*
X176350000Y-155500000D01*
X176250000Y-151800000D02*
X176250000Y-155550000D01*
X176150000Y-151700000D02*
X176150000Y-155650000D01*
X176050000Y-151600000D02*
X176050000Y-155800000D01*
X175900000Y-151500000D02*
X175900000Y-155900000D01*
X175750000Y-151450000D02*
X175750000Y-155950000D01*
X175600000Y-151400000D02*
X175600000Y-155950000D01*
X175500000Y-156025000D02*
X172925000Y-156025000D01*
X175500000Y-151375000D02*
X172900000Y-151375000D01*
X175450000Y-151400000D02*
X175450000Y-156000000D01*
X175300000Y-151400000D02*
X175300000Y-156000000D01*
X175150000Y-151400000D02*
X175150000Y-156000000D01*
X175000000Y-151400000D02*
X175000000Y-156000000D01*
X174850000Y-151400000D02*
X174850000Y-156000000D01*
X174700000Y-151400000D02*
X174700000Y-156000000D01*
X174550000Y-151400000D02*
X174550000Y-156000000D01*
X174400000Y-151400000D02*
X174400000Y-156000000D01*
X174250000Y-151400000D02*
X174250000Y-156000000D01*
X174100000Y-151400000D02*
X174100000Y-156000000D01*
X173950000Y-151400000D02*
X173950000Y-156000000D01*
X173800000Y-151400000D02*
X173800000Y-156000000D01*
X173650000Y-151400000D02*
X173650000Y-156000000D01*
X173500000Y-151400000D02*
X173500000Y-156000000D01*
X173350000Y-151400000D02*
X173350000Y-156000000D01*
X173200000Y-151400000D02*
X173200000Y-156000000D01*
X173050000Y-151400000D02*
X173050000Y-155950000D01*
X172900000Y-151400000D02*
X172900000Y-156000000D01*
X172750000Y-151400000D02*
X172750000Y-156000000D01*
X172600000Y-151450000D02*
X172600000Y-156000000D01*
X172450000Y-151550000D02*
X172450000Y-156100000D01*
X172300000Y-151650000D02*
X172300000Y-156150000D01*
X172200000Y-151800000D02*
X172200000Y-156200000D01*
X172100000Y-152050000D02*
X172100000Y-156250000D01*
X172000000Y-152200000D02*
X172000000Y-156350000D01*
X171900000Y-152400000D02*
X171900000Y-156550000D01*
X171800000Y-152550000D02*
X171800000Y-156700000D01*
X171700000Y-152750000D02*
X171700000Y-157200000D01*
X171550000Y-152900000D02*
X171550000Y-157350000D01*
X171400000Y-153050000D02*
X171400000Y-157450000D01*
X171250000Y-153150000D02*
X171250000Y-157550000D01*
X171100000Y-153250000D02*
X171100000Y-157700000D01*
X170950000Y-153350000D02*
X170950000Y-157800000D01*
X170800000Y-153400000D02*
X170800000Y-157950000D01*
X170650000Y-153500000D02*
X170650000Y-158050000D01*
X170500000Y-153550000D02*
X170500000Y-158150000D01*
X170475000Y-158225000D02*
X171750000Y-157200000D01*
X170475000Y-158225000D02*
X167925000Y-158225000D01*
X170350000Y-153550000D02*
X170350000Y-158200000D01*
X170200000Y-153550000D02*
X170200000Y-158200000D01*
X170050000Y-153600000D02*
X170050000Y-158150000D01*
X169900000Y-153600000D02*
X169900000Y-158200000D01*
X169900000Y-153575000D02*
X167925000Y-153575000D01*
X169750000Y-153600000D02*
X169750000Y-158200000D01*
X169600000Y-153600000D02*
X169600000Y-158200000D01*
X169450000Y-153600000D02*
X169450000Y-158200000D01*
X169300000Y-153600000D02*
X169300000Y-158200000D01*
X169150000Y-153600000D02*
X169150000Y-158200000D01*
X169000000Y-153600000D02*
X169000000Y-158200000D01*
X168850000Y-153600000D02*
X168850000Y-158200000D01*
X168700000Y-153600000D02*
X168700000Y-158200000D01*
X168550000Y-153600000D02*
X168550000Y-158200000D01*
X168400000Y-153600000D02*
X168400000Y-158200000D01*
X168250000Y-153600000D02*
X168250000Y-158200000D01*
X168100000Y-153600000D02*
X168100000Y-158200000D01*
X167950000Y-153600000D02*
X167950000Y-158200000D01*
X167800000Y-153750000D02*
X167800000Y-158100000D01*
X167650000Y-153850000D02*
X167650000Y-157950000D01*
X167500000Y-154000000D02*
X167500000Y-157800000D01*
X167350000Y-154150000D02*
X167350000Y-157650000D01*
X167200000Y-154350000D02*
X167200000Y-157500000D01*
X167050000Y-154450000D02*
X167050000Y-157350000D01*
X166900000Y-157200000D02*
X167925000Y-158225000D01*
X166900000Y-157200000D02*
X166900000Y-154600000D01*
X166900000Y-154600000D02*
X167925000Y-153575000D01*
X175500000Y-156025000D02*
G75*
G03*
X176500000Y-155025000I1J999999D01*
G01*
X176500000Y-152375000D02*
G75*
G03*
X175500000Y-151375000I-999999J1D01*
G01*
X172899005Y-151376210D02*
G75*
G03*
X172037802Y-152078096I38796J-926886D01*
G01*
X169900000Y-153575000D02*
G75*
G03*
X172037801Y-152078096I1J2274999D01*
G01*
X172925000Y-156025000D02*
G75*
G03*
X171750000Y-157200000I2J-1175002D01*
G01*
D13*
X247905000Y-96090000D02*
X249400000Y-96090000D01*
X249430000Y-96090000D02*
X249430000Y-97540000D01*
X249430000Y-97540000D02*
X247905000Y-97540000D01*
D14*
X200250000Y-97610000D02*
X198750000Y-97610000D01*
X198750000Y-97610000D02*
X198750000Y-103010000D01*
X200000000Y-99810000D02*
X199000000Y-99810000D01*
X199500000Y-99910000D02*
X200000000Y-100810000D01*
X200000000Y-100810000D02*
X199000000Y-100810000D01*
X199000000Y-100810000D02*
X199500000Y-99910000D01*
X200250000Y-103010000D02*
X200250000Y-97610000D01*
X200250000Y-103010000D02*
X198750000Y-103010000D01*
D10*
X260092000Y-139134000D02*
X260092000Y-150934000D01*
X264192000Y-139134000D02*
X260092000Y-139134000D01*
X264192000Y-150934000D02*
X260092000Y-150934000D01*
X265692000Y-145034000D02*
X266692000Y-145034000D01*
X266192000Y-144534000D02*
X266192000Y-145534000D01*
X268192000Y-139134000D02*
X272292000Y-139134000D01*
X272292000Y-139134000D02*
X272292000Y-141534000D01*
X272292000Y-143734000D02*
X272292000Y-146334000D01*
X272292000Y-148534000D02*
X272292000Y-150934000D01*
X272292000Y-150934000D02*
X268192000Y-150934000D01*
X269192000Y-145034000D02*
G75*
G03*
X269192000Y-145034000I-3000000J0D01*
G01*
D14*
X253300000Y-131915000D02*
X253300000Y-129265000D01*
X253150000Y-128840000D02*
X253150000Y-132390000D01*
X253050000Y-128690000D02*
X253050000Y-132440000D01*
X252950000Y-128590000D02*
X252950000Y-132540000D01*
X252850000Y-128490000D02*
X252850000Y-132690000D01*
X252700000Y-128390000D02*
X252700000Y-132790000D01*
X252550000Y-128340000D02*
X252550000Y-132840000D01*
X252400000Y-128290000D02*
X252400000Y-132840000D01*
X252300000Y-132915000D02*
X249725000Y-132915000D01*
X252300000Y-128265000D02*
X249700000Y-128265000D01*
X252250000Y-128290000D02*
X252250000Y-132890000D01*
X252100000Y-128290000D02*
X252100000Y-132890000D01*
X251950000Y-128290000D02*
X251950000Y-132890000D01*
X251800000Y-128290000D02*
X251800000Y-132890000D01*
X251650000Y-128290000D02*
X251650000Y-132890000D01*
X251500000Y-128290000D02*
X251500000Y-132890000D01*
X251350000Y-128290000D02*
X251350000Y-132890000D01*
X251200000Y-128290000D02*
X251200000Y-132890000D01*
X251050000Y-128290000D02*
X251050000Y-132890000D01*
X250900000Y-128290000D02*
X250900000Y-132890000D01*
X250750000Y-128290000D02*
X250750000Y-132890000D01*
X250600000Y-128290000D02*
X250600000Y-132890000D01*
X250450000Y-128290000D02*
X250450000Y-132890000D01*
X250300000Y-128290000D02*
X250300000Y-132890000D01*
X250150000Y-128290000D02*
X250150000Y-132890000D01*
X250000000Y-128290000D02*
X250000000Y-132890000D01*
X249850000Y-128290000D02*
X249850000Y-132840000D01*
X249700000Y-128290000D02*
X249700000Y-132890000D01*
X249550000Y-128290000D02*
X249550000Y-132890000D01*
X249400000Y-128340000D02*
X249400000Y-132890000D01*
X249250000Y-128440000D02*
X249250000Y-132990000D01*
X249100000Y-128540000D02*
X249100000Y-133040000D01*
X249000000Y-128690000D02*
X249000000Y-133090000D01*
X248900000Y-128940000D02*
X248900000Y-133140000D01*
X248800000Y-129090000D02*
X248800000Y-133240000D01*
X248700000Y-129290000D02*
X248700000Y-133440000D01*
X248600000Y-129440000D02*
X248600000Y-133590000D01*
X248500000Y-129640000D02*
X248500000Y-134090000D01*
X248350000Y-129790000D02*
X248350000Y-134240000D01*
X248200000Y-129940000D02*
X248200000Y-134340000D01*
X248050000Y-130040000D02*
X248050000Y-134440000D01*
X247900000Y-130140000D02*
X247900000Y-134590000D01*
X247750000Y-130240000D02*
X247750000Y-134690000D01*
X247600000Y-130290000D02*
X247600000Y-134840000D01*
X247450000Y-130390000D02*
X247450000Y-134940000D01*
X247300000Y-130440000D02*
X247300000Y-135040000D01*
X247275000Y-135115000D02*
X248550000Y-134090000D01*
X247275000Y-135115000D02*
X244725000Y-135115000D01*
X247150000Y-130440000D02*
X247150000Y-135090000D01*
X247000000Y-130440000D02*
X247000000Y-135090000D01*
X246850000Y-130490000D02*
X246850000Y-135040000D01*
X246700000Y-130490000D02*
X246700000Y-135090000D01*
X246700000Y-130465000D02*
X244725000Y-130465000D01*
X246550000Y-130490000D02*
X246550000Y-135090000D01*
X246400000Y-130490000D02*
X246400000Y-135090000D01*
X246250000Y-130490000D02*
X246250000Y-135090000D01*
X246100000Y-130490000D02*
X246100000Y-135090000D01*
X245950000Y-130490000D02*
X245950000Y-135090000D01*
X245800000Y-130490000D02*
X245800000Y-135090000D01*
X245650000Y-130490000D02*
X245650000Y-135090000D01*
X245500000Y-130490000D02*
X245500000Y-135090000D01*
X245350000Y-130490000D02*
X245350000Y-135090000D01*
X245200000Y-130490000D02*
X245200000Y-135090000D01*
X245050000Y-130490000D02*
X245050000Y-135090000D01*
X244900000Y-130490000D02*
X244900000Y-135090000D01*
X244750000Y-130490000D02*
X244750000Y-135090000D01*
X244600000Y-130640000D02*
X244600000Y-134990000D01*
X244450000Y-130740000D02*
X244450000Y-134840000D01*
X244300000Y-130890000D02*
X244300000Y-134690000D01*
X244150000Y-131040000D02*
X244150000Y-134540000D01*
X244000000Y-131240000D02*
X244000000Y-134390000D01*
X243850000Y-131340000D02*
X243850000Y-134240000D01*
X243700000Y-134090000D02*
X244725000Y-135115000D01*
X243700000Y-134090000D02*
X243700000Y-131490000D01*
X243700000Y-131490000D02*
X244725000Y-130465000D01*
X252300000Y-132915000D02*
G75*
G03*
X253300000Y-131915000I1J999999D01*
G01*
X253300000Y-129265000D02*
G75*
G03*
X252300000Y-128265000I-999999J1D01*
G01*
X249699005Y-128266210D02*
G75*
G03*
X248837802Y-128968096I38796J-926886D01*
G01*
X246700000Y-130465000D02*
G75*
G03*
X248837801Y-128968096I1J2274999D01*
G01*
X249725000Y-132915000D02*
G75*
G03*
X248550000Y-134090000I2J-1175002D01*
G01*
D13*
X171105000Y-161950600D02*
X172600000Y-161950600D01*
X172630000Y-161950600D02*
X172630000Y-163400600D01*
X172630000Y-163400600D02*
X171105000Y-163400600D01*
D14*
X238550000Y-104000000D02*
X237050000Y-104000000D01*
X237050000Y-104000000D02*
X237050000Y-109400000D01*
X238300000Y-106200000D02*
X237300000Y-106200000D01*
X237800000Y-106300000D02*
X238300000Y-107200000D01*
X238300000Y-107200000D02*
X237300000Y-107200000D01*
X237300000Y-107200000D02*
X237800000Y-106300000D01*
X238550000Y-109400000D02*
X238550000Y-104000000D01*
X238550000Y-109400000D02*
X237050000Y-109400000D01*
X253300000Y-151115000D02*
X253300000Y-148465000D01*
X253150000Y-148040000D02*
X253150000Y-151590000D01*
X253050000Y-147890000D02*
X253050000Y-151640000D01*
X252950000Y-147790000D02*
X252950000Y-151740000D01*
X252850000Y-147690000D02*
X252850000Y-151890000D01*
X252700000Y-147590000D02*
X252700000Y-151990000D01*
X252550000Y-147540000D02*
X252550000Y-152040000D01*
X252400000Y-147490000D02*
X252400000Y-152040000D01*
X252300000Y-152115000D02*
X249725000Y-152115000D01*
X252300000Y-147465000D02*
X249700000Y-147465000D01*
X252250000Y-147490000D02*
X252250000Y-152090000D01*
X252100000Y-147490000D02*
X252100000Y-152090000D01*
X251950000Y-147490000D02*
X251950000Y-152090000D01*
X251800000Y-147490000D02*
X251800000Y-152090000D01*
X251650000Y-147490000D02*
X251650000Y-152090000D01*
X251500000Y-147490000D02*
X251500000Y-152090000D01*
X251350000Y-147490000D02*
X251350000Y-152090000D01*
X251200000Y-147490000D02*
X251200000Y-152090000D01*
X251050000Y-147490000D02*
X251050000Y-152090000D01*
X250900000Y-147490000D02*
X250900000Y-152090000D01*
X250750000Y-147490000D02*
X250750000Y-152090000D01*
X250600000Y-147490000D02*
X250600000Y-152090000D01*
X250450000Y-147490000D02*
X250450000Y-152090000D01*
X250300000Y-147490000D02*
X250300000Y-152090000D01*
X250150000Y-147490000D02*
X250150000Y-152090000D01*
X250000000Y-147490000D02*
X250000000Y-152090000D01*
X249850000Y-147490000D02*
X249850000Y-152040000D01*
X249700000Y-147490000D02*
X249700000Y-152090000D01*
X249550000Y-147490000D02*
X249550000Y-152090000D01*
X249400000Y-147540000D02*
X249400000Y-152090000D01*
X249250000Y-147640000D02*
X249250000Y-152190000D01*
X249100000Y-147740000D02*
X249100000Y-152240000D01*
X249000000Y-147890000D02*
X249000000Y-152290000D01*
X248900000Y-148140000D02*
X248900000Y-152340000D01*
X248800000Y-148290000D02*
X248800000Y-152440000D01*
X248700000Y-148490000D02*
X248700000Y-152640000D01*
X248600000Y-148640000D02*
X248600000Y-152790000D01*
X248500000Y-148840000D02*
X248500000Y-153290000D01*
X248350000Y-148990000D02*
X248350000Y-153440000D01*
X248200000Y-149140000D02*
X248200000Y-153540000D01*
X248050000Y-149240000D02*
X248050000Y-153640000D01*
X247900000Y-149340000D02*
X247900000Y-153790000D01*
X247750000Y-149440000D02*
X247750000Y-153890000D01*
X247600000Y-149490000D02*
X247600000Y-154040000D01*
X247450000Y-149590000D02*
X247450000Y-154140000D01*
X247300000Y-149640000D02*
X247300000Y-154240000D01*
X247275000Y-154315000D02*
X248550000Y-153290000D01*
X247275000Y-154315000D02*
X244725000Y-154315000D01*
X247150000Y-149640000D02*
X247150000Y-154290000D01*
X247000000Y-149640000D02*
X247000000Y-154290000D01*
X246850000Y-149690000D02*
X246850000Y-154240000D01*
X246700000Y-149690000D02*
X246700000Y-154290000D01*
X246700000Y-149665000D02*
X244725000Y-149665000D01*
X246550000Y-149690000D02*
X246550000Y-154290000D01*
X246400000Y-149690000D02*
X246400000Y-154290000D01*
X246250000Y-149690000D02*
X246250000Y-154290000D01*
X246100000Y-149690000D02*
X246100000Y-154290000D01*
X245950000Y-149690000D02*
X245950000Y-154290000D01*
X245800000Y-149690000D02*
X245800000Y-154290000D01*
X245650000Y-149690000D02*
X245650000Y-154290000D01*
X245500000Y-149690000D02*
X245500000Y-154290000D01*
X245350000Y-149690000D02*
X245350000Y-154290000D01*
X245200000Y-149690000D02*
X245200000Y-154290000D01*
X245050000Y-149690000D02*
X245050000Y-154290000D01*
X244900000Y-149690000D02*
X244900000Y-154290000D01*
X244750000Y-149690000D02*
X244750000Y-154290000D01*
X244600000Y-149840000D02*
X244600000Y-154190000D01*
X244450000Y-149940000D02*
X244450000Y-154040000D01*
X244300000Y-150090000D02*
X244300000Y-153890000D01*
X244150000Y-150240000D02*
X244150000Y-153740000D01*
X244000000Y-150440000D02*
X244000000Y-153590000D01*
X243850000Y-150540000D02*
X243850000Y-153440000D01*
X243700000Y-153290000D02*
X244725000Y-154315000D01*
X243700000Y-153290000D02*
X243700000Y-150690000D01*
X243700000Y-150690000D02*
X244725000Y-149665000D01*
X252300000Y-152115000D02*
G75*
G03*
X253300000Y-151115000I1J999999D01*
G01*
X253300000Y-148465000D02*
G75*
G03*
X252300000Y-147465000I-999999J1D01*
G01*
X249699005Y-147466210D02*
G75*
G03*
X248837802Y-148168096I38796J-926886D01*
G01*
X246700000Y-149665000D02*
G75*
G03*
X248837801Y-148168096I1J2274999D01*
G01*
X249725000Y-152115000D02*
G75*
G03*
X248550000Y-153290000I2J-1175002D01*
G01*
X142650000Y-126500000D02*
X141150000Y-126500000D01*
X141150000Y-126500000D02*
X141150000Y-131900000D01*
X142400000Y-128700000D02*
X141400000Y-128700000D01*
X141900000Y-128800000D02*
X142400000Y-129700000D01*
X142400000Y-129700000D02*
X141400000Y-129700000D01*
X141400000Y-129700000D02*
X141900000Y-128800000D01*
X142650000Y-131900000D02*
X142650000Y-126500000D01*
X142650000Y-131900000D02*
X141150000Y-131900000D01*
D15*
X178993800Y-116001800D02*
X186182000Y-116001800D01*
X186182000Y-116001800D02*
X186182000Y-112852200D01*
X186182000Y-112852200D02*
X178993800Y-112852200D01*
X178993800Y-112852200D02*
X178993800Y-116001800D01*
D14*
X157300000Y-135825000D02*
X157300000Y-133175000D01*
X157150000Y-132750000D02*
X157150000Y-136300000D01*
X157050000Y-132600000D02*
X157050000Y-136350000D01*
X156950000Y-132500000D02*
X156950000Y-136450000D01*
X156850000Y-132400000D02*
X156850000Y-136600000D01*
X156700000Y-132300000D02*
X156700000Y-136700000D01*
X156550000Y-132250000D02*
X156550000Y-136750000D01*
X156400000Y-132200000D02*
X156400000Y-136750000D01*
X156300000Y-136825000D02*
X153725000Y-136825000D01*
X156300000Y-132175000D02*
X153700000Y-132175000D01*
X156250000Y-132200000D02*
X156250000Y-136800000D01*
X156100000Y-132200000D02*
X156100000Y-136800000D01*
X155950000Y-132200000D02*
X155950000Y-136800000D01*
X155800000Y-132200000D02*
X155800000Y-136800000D01*
X155650000Y-132200000D02*
X155650000Y-136800000D01*
X155500000Y-132200000D02*
X155500000Y-136800000D01*
X155350000Y-132200000D02*
X155350000Y-136800000D01*
X155200000Y-132200000D02*
X155200000Y-136800000D01*
X155050000Y-132200000D02*
X155050000Y-136800000D01*
X154900000Y-132200000D02*
X154900000Y-136800000D01*
X154750000Y-132200000D02*
X154750000Y-136800000D01*
X154600000Y-132200000D02*
X154600000Y-136800000D01*
X154450000Y-132200000D02*
X154450000Y-136800000D01*
X154300000Y-132200000D02*
X154300000Y-136800000D01*
X154150000Y-132200000D02*
X154150000Y-136800000D01*
X154000000Y-132200000D02*
X154000000Y-136800000D01*
X153850000Y-132200000D02*
X153850000Y-136750000D01*
X153700000Y-132200000D02*
X153700000Y-136800000D01*
X153550000Y-132200000D02*
X153550000Y-136800000D01*
X153400000Y-132250000D02*
X153400000Y-136800000D01*
X153250000Y-132350000D02*
X153250000Y-136900000D01*
X153100000Y-132450000D02*
X153100000Y-136950000D01*
X153000000Y-132600000D02*
X153000000Y-137000000D01*
X152900000Y-132850000D02*
X152900000Y-137050000D01*
X152800000Y-133000000D02*
X152800000Y-137150000D01*
X152700000Y-133200000D02*
X152700000Y-137350000D01*
X152600000Y-133350000D02*
X152600000Y-137500000D01*
X152500000Y-133550000D02*
X152500000Y-138000000D01*
X152350000Y-133700000D02*
X152350000Y-138150000D01*
X152200000Y-133850000D02*
X152200000Y-138250000D01*
X152050000Y-133950000D02*
X152050000Y-138350000D01*
X151900000Y-134050000D02*
X151900000Y-138500000D01*
X151750000Y-134150000D02*
X151750000Y-138600000D01*
X151600000Y-134200000D02*
X151600000Y-138750000D01*
X151450000Y-134300000D02*
X151450000Y-138850000D01*
X151300000Y-134350000D02*
X151300000Y-138950000D01*
X151275000Y-139025000D02*
X152550000Y-138000000D01*
X151275000Y-139025000D02*
X148725000Y-139025000D01*
X151150000Y-134350000D02*
X151150000Y-139000000D01*
X151000000Y-134350000D02*
X151000000Y-139000000D01*
X150850000Y-134400000D02*
X150850000Y-138950000D01*
X150700000Y-134400000D02*
X150700000Y-139000000D01*
X150700000Y-134375000D02*
X148725000Y-134375000D01*
X150550000Y-134400000D02*
X150550000Y-139000000D01*
X150400000Y-134400000D02*
X150400000Y-139000000D01*
X150250000Y-134400000D02*
X150250000Y-139000000D01*
X150100000Y-134400000D02*
X150100000Y-139000000D01*
X149950000Y-134400000D02*
X149950000Y-139000000D01*
X149800000Y-134400000D02*
X149800000Y-139000000D01*
X149650000Y-134400000D02*
X149650000Y-139000000D01*
X149500000Y-134400000D02*
X149500000Y-139000000D01*
X149350000Y-134400000D02*
X149350000Y-139000000D01*
X149200000Y-134400000D02*
X149200000Y-139000000D01*
X149050000Y-134400000D02*
X149050000Y-139000000D01*
X148900000Y-134400000D02*
X148900000Y-139000000D01*
X148750000Y-134400000D02*
X148750000Y-139000000D01*
X148600000Y-134550000D02*
X148600000Y-138900000D01*
X148450000Y-134650000D02*
X148450000Y-138750000D01*
X148300000Y-134800000D02*
X148300000Y-138600000D01*
X148150000Y-134950000D02*
X148150000Y-138450000D01*
X148000000Y-135150000D02*
X148000000Y-138300000D01*
X147850000Y-135250000D02*
X147850000Y-138150000D01*
X147700000Y-138000000D02*
X148725000Y-139025000D01*
X147700000Y-138000000D02*
X147700000Y-135400000D01*
X147700000Y-135400000D02*
X148725000Y-134375000D01*
X156300000Y-136825000D02*
G75*
G03*
X157300000Y-135825000I1J999999D01*
G01*
X157300000Y-133175000D02*
G75*
G03*
X156300000Y-132175000I-999999J1D01*
G01*
X153699005Y-132176210D02*
G75*
G03*
X152837802Y-132878096I38796J-926886D01*
G01*
X150700000Y-134375000D02*
G75*
G03*
X152837801Y-132878096I1J2274999D01*
G01*
X153725000Y-136825000D02*
G75*
G03*
X152550000Y-138000000I2J-1175002D01*
G01*
X258066400Y-98742000D02*
X260606400Y-98742000D01*
X258066400Y-129222000D02*
X258066400Y-98742000D01*
X260606400Y-98742000D02*
X260606400Y-129222000D01*
X260606400Y-129222000D02*
X258066400Y-129222000D01*
X273286400Y-98742000D02*
X275826400Y-98742000D01*
X273286400Y-129222000D02*
X273286400Y-98742000D01*
X275826400Y-98742000D02*
X275826400Y-129222000D01*
X275826400Y-129222000D02*
X273286400Y-129222000D01*
X267847543Y-168147368D02*
X265357357Y-167241016D01*
X264906685Y-167236609D02*
X268242593Y-168450782D01*
X264731529Y-167279276D02*
X268255376Y-168561852D01*
X264603357Y-167339044D02*
X268315144Y-168690022D01*
X264475186Y-167398811D02*
X268421895Y-168835295D01*
X264329914Y-167505563D02*
X268464561Y-169010451D01*
X264231626Y-167629416D02*
X268460243Y-169168506D01*
X264133339Y-167753267D02*
X268408940Y-169309460D01*
X268445215Y-169429081D02*
X267564513Y-171848789D01*
X264075644Y-167838687D02*
X263186392Y-170281888D01*
X264082036Y-167894222D02*
X268404622Y-169467515D01*
X264030733Y-168035176D02*
X268353319Y-169608469D01*
X263979430Y-168176130D02*
X268302016Y-169749423D01*
X263928127Y-168317084D02*
X268250712Y-169890378D01*
X263876824Y-168458037D02*
X268199409Y-170031330D01*
X263825520Y-168598992D02*
X268148106Y-170172284D01*
X263774217Y-168739946D02*
X268096803Y-170313238D01*
X263722914Y-168880900D02*
X268045500Y-170454192D01*
X263671612Y-169021854D02*
X267994197Y-170595146D01*
X263620309Y-169162808D02*
X267942894Y-170736101D01*
X263569006Y-169303760D02*
X267891590Y-170877054D01*
X263517702Y-169444715D02*
X267840288Y-171018008D01*
X263466399Y-169585669D02*
X267788985Y-171158962D01*
X263415096Y-169726623D02*
X267737682Y-171299916D01*
X263363794Y-169867577D02*
X267686379Y-171440870D01*
X263312491Y-170008530D02*
X267635075Y-171581823D01*
X263261187Y-170149485D02*
X267536789Y-171705676D01*
X263209884Y-170290439D02*
X267532470Y-171863731D01*
X263158581Y-170431392D02*
X267481167Y-172004685D01*
X263154263Y-170589447D02*
X267429864Y-172145640D01*
X263196928Y-170764603D02*
X267472530Y-172320795D01*
X263239595Y-170939759D02*
X267468212Y-172478850D01*
X263346347Y-171085031D02*
X267480996Y-172589920D01*
X263547068Y-171264506D02*
X267493777Y-172700990D01*
X263653820Y-171409778D02*
X267553545Y-172829162D01*
X263807557Y-171572151D02*
X267707280Y-172991535D01*
X263914309Y-171717424D02*
X267814033Y-173136807D01*
X264068045Y-171879797D02*
X268249677Y-173401786D01*
X264157696Y-172072054D02*
X268339328Y-173594043D01*
X264247347Y-172264311D02*
X268381994Y-173769199D01*
X264290013Y-172439467D02*
X268424661Y-173944355D01*
X264332680Y-172614623D02*
X268514311Y-174136612D01*
X264375346Y-172789778D02*
X268556978Y-174311768D01*
X264371027Y-172947833D02*
X268646629Y-174504025D01*
X264413693Y-173122989D02*
X268689295Y-174679181D01*
X264409375Y-173281044D02*
X268731961Y-174854337D01*
X268793887Y-174903481D02*
X268266778Y-173354802D01*
X268793887Y-174903481D02*
X267921736Y-177299697D01*
X264358072Y-173421998D02*
X268727643Y-175012392D01*
X264306769Y-173562952D02*
X268676339Y-175153346D01*
X264302450Y-173721006D02*
X268578052Y-175277198D01*
X264251147Y-173861960D02*
X268573734Y-175435253D01*
X264227655Y-173853410D02*
X263552165Y-175709303D01*
X264199845Y-174002915D02*
X268522431Y-175576207D01*
X264148541Y-174143868D02*
X268471128Y-175717161D01*
X264097238Y-174284823D02*
X268419825Y-175858115D01*
X264045935Y-174425776D02*
X268368522Y-175999069D01*
X263994631Y-174566730D02*
X268317218Y-176140023D01*
X263943329Y-174707684D02*
X268265915Y-176280977D01*
X263892026Y-174848638D02*
X268214612Y-176421931D01*
X263840723Y-174989592D02*
X268163309Y-176562884D01*
X263789420Y-175130547D02*
X268112006Y-176703839D01*
X263738116Y-175271499D02*
X268060703Y-176844792D01*
X263686814Y-175412454D02*
X268009400Y-176985746D01*
X263635511Y-175553407D02*
X267958097Y-177126700D01*
X263584208Y-175694361D02*
X267906794Y-177267654D01*
X263673859Y-175886619D02*
X267761522Y-177374406D01*
X263716525Y-176061774D02*
X267569265Y-177464057D01*
X263806176Y-176254031D02*
X267377008Y-177553708D01*
X263895827Y-176446288D02*
X267184751Y-177643358D01*
X264032464Y-176655646D02*
X266992495Y-177733010D01*
X264075129Y-176830802D02*
X266800237Y-177822660D01*
X266607981Y-177912311D02*
X267921736Y-177299697D01*
X266607981Y-177912311D02*
X264164780Y-177023059D01*
X264164780Y-177023059D02*
X263552165Y-175709303D01*
X268445214Y-169429081D02*
G75*
G03*
X267847542Y-168147369I-939690J342021D01*
G01*
X265357357Y-167241015D02*
G75*
G03*
X264075644Y-167838687I-342021J-939691D01*
G01*
X263187189Y-170283236D02*
G75*
G03*
X263552198Y-171332562I884257J-280558D01*
G01*
X264227655Y-173853410D02*
G75*
G03*
X263552197Y-171332564I-2137803J778095D01*
G01*
X267564514Y-171848789D02*
G75*
G03*
X268266778Y-173354801I1104140J-401873D01*
G01*
X195700000Y-129025000D02*
X195700000Y-126375000D01*
X195550000Y-125950000D02*
X195550000Y-129500000D01*
X195450000Y-125800000D02*
X195450000Y-129550000D01*
X195350000Y-125700000D02*
X195350000Y-129650000D01*
X195250000Y-125600000D02*
X195250000Y-129800000D01*
X195100000Y-125500000D02*
X195100000Y-129900000D01*
X194950000Y-125450000D02*
X194950000Y-129950000D01*
X194800000Y-125400000D02*
X194800000Y-129950000D01*
X194700000Y-130025000D02*
X192125000Y-130025000D01*
X194700000Y-125375000D02*
X192100000Y-125375000D01*
X194650000Y-125400000D02*
X194650000Y-130000000D01*
X194500000Y-125400000D02*
X194500000Y-130000000D01*
X194350000Y-125400000D02*
X194350000Y-130000000D01*
X194200000Y-125400000D02*
X194200000Y-130000000D01*
X194050000Y-125400000D02*
X194050000Y-130000000D01*
X193900000Y-125400000D02*
X193900000Y-130000000D01*
X193750000Y-125400000D02*
X193750000Y-130000000D01*
X193600000Y-125400000D02*
X193600000Y-130000000D01*
X193450000Y-125400000D02*
X193450000Y-130000000D01*
X193300000Y-125400000D02*
X193300000Y-130000000D01*
X193150000Y-125400000D02*
X193150000Y-130000000D01*
X193000000Y-125400000D02*
X193000000Y-130000000D01*
X192850000Y-125400000D02*
X192850000Y-130000000D01*
X192700000Y-125400000D02*
X192700000Y-130000000D01*
X192550000Y-125400000D02*
X192550000Y-130000000D01*
X192400000Y-125400000D02*
X192400000Y-130000000D01*
X192250000Y-125400000D02*
X192250000Y-129950000D01*
X192100000Y-125400000D02*
X192100000Y-130000000D01*
X191950000Y-125400000D02*
X191950000Y-130000000D01*
X191800000Y-125450000D02*
X191800000Y-130000000D01*
X191650000Y-125550000D02*
X191650000Y-130100000D01*
X191500000Y-125650000D02*
X191500000Y-130150000D01*
X191400000Y-125800000D02*
X191400000Y-130200000D01*
X191300000Y-126050000D02*
X191300000Y-130250000D01*
X191200000Y-126200000D02*
X191200000Y-130350000D01*
X191100000Y-126400000D02*
X191100000Y-130550000D01*
X191000000Y-126550000D02*
X191000000Y-130700000D01*
X190900000Y-126750000D02*
X190900000Y-131200000D01*
X190750000Y-126900000D02*
X190750000Y-131350000D01*
X190600000Y-127050000D02*
X190600000Y-131450000D01*
X190450000Y-127150000D02*
X190450000Y-131550000D01*
X190300000Y-127250000D02*
X190300000Y-131700000D01*
X190150000Y-127350000D02*
X190150000Y-131800000D01*
X190000000Y-127400000D02*
X190000000Y-131950000D01*
X189850000Y-127500000D02*
X189850000Y-132050000D01*
X189700000Y-127550000D02*
X189700000Y-132150000D01*
X189675000Y-132225000D02*
X190950000Y-131200000D01*
X189675000Y-132225000D02*
X187125000Y-132225000D01*
X189550000Y-127550000D02*
X189550000Y-132200000D01*
X189400000Y-127550000D02*
X189400000Y-132200000D01*
X189250000Y-127600000D02*
X189250000Y-132150000D01*
X189100000Y-127600000D02*
X189100000Y-132200000D01*
X189100000Y-127575000D02*
X187125000Y-127575000D01*
X188950000Y-127600000D02*
X188950000Y-132200000D01*
X188800000Y-127600000D02*
X188800000Y-132200000D01*
X188650000Y-127600000D02*
X188650000Y-132200000D01*
X188500000Y-127600000D02*
X188500000Y-132200000D01*
X188350000Y-127600000D02*
X188350000Y-132200000D01*
X188200000Y-127600000D02*
X188200000Y-132200000D01*
X188050000Y-127600000D02*
X188050000Y-132200000D01*
X187900000Y-127600000D02*
X187900000Y-132200000D01*
X187750000Y-127600000D02*
X187750000Y-132200000D01*
X187600000Y-127600000D02*
X187600000Y-132200000D01*
X187450000Y-127600000D02*
X187450000Y-132200000D01*
X187300000Y-127600000D02*
X187300000Y-132200000D01*
X187150000Y-127600000D02*
X187150000Y-132200000D01*
X187000000Y-127750000D02*
X187000000Y-132100000D01*
X186850000Y-127850000D02*
X186850000Y-131950000D01*
X186700000Y-128000000D02*
X186700000Y-131800000D01*
X186550000Y-128150000D02*
X186550000Y-131650000D01*
X186400000Y-128350000D02*
X186400000Y-131500000D01*
X186250000Y-128450000D02*
X186250000Y-131350000D01*
X186100000Y-131200000D02*
X187125000Y-132225000D01*
X186100000Y-131200000D02*
X186100000Y-128600000D01*
X186100000Y-128600000D02*
X187125000Y-127575000D01*
X194700000Y-130025000D02*
G75*
G03*
X195700000Y-129025000I1J999999D01*
G01*
X195700000Y-126375000D02*
G75*
G03*
X194700000Y-125375000I-999999J1D01*
G01*
X192099005Y-125376210D02*
G75*
G03*
X191237802Y-126078096I38796J-926886D01*
G01*
X189100000Y-127575000D02*
G75*
G03*
X191237801Y-126078096I1J2274999D01*
G01*
X192125000Y-130025000D02*
G75*
G03*
X190950000Y-131200000I2J-1175002D01*
G01*
X238550000Y-119700000D02*
X237050000Y-119700000D01*
X237050000Y-119700000D02*
X237050000Y-125100000D01*
X238300000Y-121900000D02*
X237300000Y-121900000D01*
X237800000Y-122000000D02*
X238300000Y-122900000D01*
X238300000Y-122900000D02*
X237300000Y-122900000D01*
X237300000Y-122900000D02*
X237800000Y-122000000D01*
X238550000Y-125100000D02*
X238550000Y-119700000D01*
X238550000Y-125100000D02*
X237050000Y-125100000D01*
D13*
X220755871Y-158173355D02*
X222245182Y-158303653D01*
X222275068Y-158306268D02*
X222148692Y-159750750D01*
X222148692Y-159750750D02*
X220629495Y-159617837D01*
D14*
X195700000Y-109825000D02*
X195700000Y-107175000D01*
X195550000Y-106750000D02*
X195550000Y-110300000D01*
X195450000Y-106600000D02*
X195450000Y-110350000D01*
X195350000Y-106500000D02*
X195350000Y-110450000D01*
X195250000Y-106400000D02*
X195250000Y-110600000D01*
X195100000Y-106300000D02*
X195100000Y-110700000D01*
X194950000Y-106250000D02*
X194950000Y-110750000D01*
X194800000Y-106200000D02*
X194800000Y-110750000D01*
X194700000Y-110825000D02*
X192125000Y-110825000D01*
X194700000Y-106175000D02*
X192100000Y-106175000D01*
X194650000Y-106200000D02*
X194650000Y-110800000D01*
X194500000Y-106200000D02*
X194500000Y-110800000D01*
X194350000Y-106200000D02*
X194350000Y-110800000D01*
X194200000Y-106200000D02*
X194200000Y-110800000D01*
X194050000Y-106200000D02*
X194050000Y-110800000D01*
X193900000Y-106200000D02*
X193900000Y-110800000D01*
X193750000Y-106200000D02*
X193750000Y-110800000D01*
X193600000Y-106200000D02*
X193600000Y-110800000D01*
X193450000Y-106200000D02*
X193450000Y-110800000D01*
X193300000Y-106200000D02*
X193300000Y-110800000D01*
X193150000Y-106200000D02*
X193150000Y-110800000D01*
X193000000Y-106200000D02*
X193000000Y-110800000D01*
X192850000Y-106200000D02*
X192850000Y-110800000D01*
X192700000Y-106200000D02*
X192700000Y-110800000D01*
X192550000Y-106200000D02*
X192550000Y-110800000D01*
X192400000Y-106200000D02*
X192400000Y-110800000D01*
X192250000Y-106200000D02*
X192250000Y-110750000D01*
X192100000Y-106200000D02*
X192100000Y-110800000D01*
X191950000Y-106200000D02*
X191950000Y-110800000D01*
X191800000Y-106250000D02*
X191800000Y-110800000D01*
X191650000Y-106350000D02*
X191650000Y-110900000D01*
X191500000Y-106450000D02*
X191500000Y-110950000D01*
X191400000Y-106600000D02*
X191400000Y-111000000D01*
X191300000Y-106850000D02*
X191300000Y-111050000D01*
X191200000Y-107000000D02*
X191200000Y-111150000D01*
X191100000Y-107200000D02*
X191100000Y-111350000D01*
X191000000Y-107350000D02*
X191000000Y-111500000D01*
X190900000Y-107550000D02*
X190900000Y-112000000D01*
X190750000Y-107700000D02*
X190750000Y-112150000D01*
X190600000Y-107850000D02*
X190600000Y-112250000D01*
X190450000Y-107950000D02*
X190450000Y-112350000D01*
X190300000Y-108050000D02*
X190300000Y-112500000D01*
X190150000Y-108150000D02*
X190150000Y-112600000D01*
X190000000Y-108200000D02*
X190000000Y-112750000D01*
X189850000Y-108300000D02*
X189850000Y-112850000D01*
X189700000Y-108350000D02*
X189700000Y-112950000D01*
X189675000Y-113025000D02*
X190950000Y-112000000D01*
X189675000Y-113025000D02*
X187125000Y-113025000D01*
X189550000Y-108350000D02*
X189550000Y-113000000D01*
X189400000Y-108350000D02*
X189400000Y-113000000D01*
X189250000Y-108400000D02*
X189250000Y-112950000D01*
X189100000Y-108400000D02*
X189100000Y-113000000D01*
X189100000Y-108375000D02*
X187125000Y-108375000D01*
X188950000Y-108400000D02*
X188950000Y-113000000D01*
X188800000Y-108400000D02*
X188800000Y-113000000D01*
X188650000Y-108400000D02*
X188650000Y-113000000D01*
X188500000Y-108400000D02*
X188500000Y-113000000D01*
X188350000Y-108400000D02*
X188350000Y-113000000D01*
X188200000Y-108400000D02*
X188200000Y-113000000D01*
X188050000Y-108400000D02*
X188050000Y-113000000D01*
X187900000Y-108400000D02*
X187900000Y-113000000D01*
X187750000Y-108400000D02*
X187750000Y-113000000D01*
X187600000Y-108400000D02*
X187600000Y-113000000D01*
X187450000Y-108400000D02*
X187450000Y-113000000D01*
X187300000Y-108400000D02*
X187300000Y-113000000D01*
X187150000Y-108400000D02*
X187150000Y-113000000D01*
X187000000Y-108550000D02*
X187000000Y-112900000D01*
X186850000Y-108650000D02*
X186850000Y-112750000D01*
X186700000Y-108800000D02*
X186700000Y-112600000D01*
X186550000Y-108950000D02*
X186550000Y-112450000D01*
X186400000Y-109150000D02*
X186400000Y-112300000D01*
X186250000Y-109250000D02*
X186250000Y-112150000D01*
X186100000Y-112000000D02*
X187125000Y-113025000D01*
X186100000Y-112000000D02*
X186100000Y-109400000D01*
X186100000Y-109400000D02*
X187125000Y-108375000D01*
X194700000Y-110825000D02*
G75*
G03*
X195700000Y-109825000I1J999999D01*
G01*
X195700000Y-107175000D02*
G75*
G03*
X194700000Y-106175000I-999999J1D01*
G01*
X192099005Y-106176210D02*
G75*
G03*
X191237802Y-106878096I38796J-926886D01*
G01*
X189100000Y-108375000D02*
G75*
G03*
X191237801Y-106878096I1J2274999D01*
G01*
X192125000Y-110825000D02*
G75*
G03*
X190950000Y-112000000I2J-1175002D01*
G01*
X245112593Y-173613569D02*
X245618237Y-171012257D01*
X245552087Y-170566444D02*
X244874715Y-174051221D01*
X245482545Y-170400119D02*
X244767012Y-174081221D01*
X245403464Y-170282876D02*
X244649768Y-174160303D01*
X245324382Y-170165632D02*
X244522984Y-174288466D01*
X245196219Y-170038848D02*
X244356659Y-174358008D01*
X245058515Y-169961145D02*
X244199875Y-174378468D01*
X244920811Y-169883443D02*
X244052630Y-174349846D01*
X243940157Y-174404387D02*
X241412467Y-173913054D01*
X244827419Y-169839821D02*
X242275188Y-169343718D01*
X244773567Y-169854821D02*
X243895846Y-174370306D01*
X244626323Y-169826200D02*
X243748602Y-174341685D01*
X244479079Y-169797579D02*
X243601358Y-174313064D01*
X244331835Y-169768957D02*
X243454114Y-174284442D01*
X244184591Y-169740336D02*
X243306870Y-174255821D01*
X244037347Y-169711715D02*
X243159626Y-174227200D01*
X243890103Y-169683093D02*
X243012381Y-174198578D01*
X243742859Y-169654472D02*
X242865137Y-174169957D01*
X243595615Y-169625850D02*
X242717893Y-174141336D01*
X243448371Y-169597229D02*
X242570649Y-174112714D01*
X243301127Y-169568608D02*
X242423405Y-174084093D01*
X243153882Y-169539986D02*
X242276161Y-174055471D01*
X243006638Y-169511365D02*
X242128917Y-174026850D01*
X242859394Y-169482744D02*
X241981673Y-173998229D01*
X242712150Y-169454122D02*
X241834429Y-173969607D01*
X242564906Y-169425501D02*
X241687185Y-173940986D01*
X242417662Y-169396880D02*
X241549481Y-173863283D01*
X242270418Y-169368258D02*
X241392697Y-173883743D01*
X242123174Y-169339637D02*
X241245453Y-173855122D01*
X241966389Y-169360097D02*
X241098208Y-173826501D01*
X241800064Y-169429638D02*
X240931883Y-173896042D01*
X241633739Y-169499180D02*
X240775099Y-173916502D01*
X241506955Y-169627343D02*
X240667396Y-173946503D01*
X241361090Y-169853669D02*
X240559693Y-173976503D01*
X241234306Y-169981832D02*
X240442449Y-174055585D01*
X241097982Y-170159077D02*
X240306124Y-174232829D01*
X240971198Y-170287240D02*
X240179340Y-174360993D01*
X240834873Y-170464484D02*
X239985773Y-174832725D01*
X240659008Y-170583107D02*
X239809908Y-174951348D01*
X240483142Y-170701730D02*
X239643583Y-175020889D01*
X240316817Y-170771271D02*
X239477258Y-175090431D01*
X240150492Y-170840812D02*
X239301392Y-175209053D01*
X239984167Y-170910354D02*
X239135067Y-175278595D01*
X239827383Y-170930814D02*
X238959202Y-175397218D01*
X239661058Y-171000355D02*
X238792877Y-175466759D01*
X239504273Y-171020815D02*
X238626552Y-175536300D01*
X238587701Y-175605152D02*
X240034855Y-174842266D01*
X238587701Y-175605152D02*
X236084551Y-175118589D01*
X239357029Y-170992194D02*
X238469767Y-175556760D01*
X239209785Y-170963572D02*
X238322523Y-175528139D01*
X239053001Y-170984033D02*
X238184820Y-175450436D01*
X238905757Y-170955411D02*
X238028035Y-175470896D01*
X238910527Y-170930870D02*
X236971813Y-170554023D01*
X238758513Y-170926790D02*
X237880791Y-175442275D01*
X238611268Y-170898168D02*
X237733547Y-175413654D01*
X238464024Y-170869547D02*
X237586303Y-175385032D01*
X238316780Y-170840926D02*
X237439059Y-175356411D01*
X238169536Y-170812304D02*
X237291815Y-175327789D01*
X238022292Y-170783683D02*
X237144571Y-175299168D01*
X237875048Y-170755062D02*
X236997327Y-175270547D01*
X237727804Y-170726440D02*
X236850083Y-175241925D01*
X237580560Y-170697819D02*
X236702839Y-175213304D01*
X237433316Y-170669198D02*
X236555594Y-175184683D01*
X237286072Y-170640576D02*
X236408350Y-175156061D01*
X237138828Y-170611955D02*
X236261106Y-175127440D01*
X236991584Y-170583334D02*
X236113862Y-175098819D01*
X236815718Y-170701956D02*
X235985699Y-174972035D01*
X236649393Y-170771498D02*
X235867076Y-174796169D01*
X236473528Y-170890120D02*
X235748454Y-174620304D01*
X236297662Y-171008743D02*
X235629831Y-174444438D01*
X236112257Y-171176447D02*
X235511208Y-174268573D01*
X235945932Y-171245989D02*
X235392585Y-174092707D01*
X235273963Y-173916842D02*
X236084551Y-175118589D01*
X235273963Y-173916842D02*
X235770066Y-171364611D01*
X235770066Y-171364611D02*
X236971813Y-170554023D01*
X243940157Y-174404386D02*
G75*
G03*
X245112592Y-173613569I190810J981625D01*
G01*
X245618236Y-171012257D02*
G75*
G03*
X244827419Y-169839822I-981625J190810D01*
G01*
X242273981Y-169344714D02*
G75*
G03*
X241294674Y-169869380I-138775J-917261D01*
G01*
X238910527Y-170930869D02*
G75*
G03*
X241294673Y-169869380I434090J2233203D01*
G01*
X241412467Y-173913056D02*
G75*
G03*
X240034855Y-174842266I-224199J-1153413D01*
G01*
X234100000Y-109825000D02*
X234100000Y-107175000D01*
X233950000Y-106750000D02*
X233950000Y-110300000D01*
X233850000Y-106600000D02*
X233850000Y-110350000D01*
X233750000Y-106500000D02*
X233750000Y-110450000D01*
X233650000Y-106400000D02*
X233650000Y-110600000D01*
X233500000Y-106300000D02*
X233500000Y-110700000D01*
X233350000Y-106250000D02*
X233350000Y-110750000D01*
X233200000Y-106200000D02*
X233200000Y-110750000D01*
X233100000Y-110825000D02*
X230525000Y-110825000D01*
X233100000Y-106175000D02*
X230500000Y-106175000D01*
X233050000Y-106200000D02*
X233050000Y-110800000D01*
X232900000Y-106200000D02*
X232900000Y-110800000D01*
X232750000Y-106200000D02*
X232750000Y-110800000D01*
X232600000Y-106200000D02*
X232600000Y-110800000D01*
X232450000Y-106200000D02*
X232450000Y-110800000D01*
X232300000Y-106200000D02*
X232300000Y-110800000D01*
X232150000Y-106200000D02*
X232150000Y-110800000D01*
X232000000Y-106200000D02*
X232000000Y-110800000D01*
X231850000Y-106200000D02*
X231850000Y-110800000D01*
X231700000Y-106200000D02*
X231700000Y-110800000D01*
X231550000Y-106200000D02*
X231550000Y-110800000D01*
X231400000Y-106200000D02*
X231400000Y-110800000D01*
X231250000Y-106200000D02*
X231250000Y-110800000D01*
X231100000Y-106200000D02*
X231100000Y-110800000D01*
X230950000Y-106200000D02*
X230950000Y-110800000D01*
X230800000Y-106200000D02*
X230800000Y-110800000D01*
X230650000Y-106200000D02*
X230650000Y-110750000D01*
X230500000Y-106200000D02*
X230500000Y-110800000D01*
X230350000Y-106200000D02*
X230350000Y-110800000D01*
X230200000Y-106250000D02*
X230200000Y-110800000D01*
X230050000Y-106350000D02*
X230050000Y-110900000D01*
X229900000Y-106450000D02*
X229900000Y-110950000D01*
X229800000Y-106600000D02*
X229800000Y-111000000D01*
X229700000Y-106850000D02*
X229700000Y-111050000D01*
X229600000Y-107000000D02*
X229600000Y-111150000D01*
X229500000Y-107200000D02*
X229500000Y-111350000D01*
X229400000Y-107350000D02*
X229400000Y-111500000D01*
X229300000Y-107550000D02*
X229300000Y-112000000D01*
X229150000Y-107700000D02*
X229150000Y-112150000D01*
X229000000Y-107850000D02*
X229000000Y-112250000D01*
X228850000Y-107950000D02*
X228850000Y-112350000D01*
X228700000Y-108050000D02*
X228700000Y-112500000D01*
X228550000Y-108150000D02*
X228550000Y-112600000D01*
X228400000Y-108200000D02*
X228400000Y-112750000D01*
X228250000Y-108300000D02*
X228250000Y-112850000D01*
X228100000Y-108350000D02*
X228100000Y-112950000D01*
X228075000Y-113025000D02*
X229350000Y-112000000D01*
X228075000Y-113025000D02*
X225525000Y-113025000D01*
X227950000Y-108350000D02*
X227950000Y-113000000D01*
X227800000Y-108350000D02*
X227800000Y-113000000D01*
X227650000Y-108400000D02*
X227650000Y-112950000D01*
X227500000Y-108400000D02*
X227500000Y-113000000D01*
X227500000Y-108375000D02*
X225525000Y-108375000D01*
X227350000Y-108400000D02*
X227350000Y-113000000D01*
X227200000Y-108400000D02*
X227200000Y-113000000D01*
X227050000Y-108400000D02*
X227050000Y-113000000D01*
X226900000Y-108400000D02*
X226900000Y-113000000D01*
X226750000Y-108400000D02*
X226750000Y-113000000D01*
X226600000Y-108400000D02*
X226600000Y-113000000D01*
X226450000Y-108400000D02*
X226450000Y-113000000D01*
X226300000Y-108400000D02*
X226300000Y-113000000D01*
X226150000Y-108400000D02*
X226150000Y-113000000D01*
X226000000Y-108400000D02*
X226000000Y-113000000D01*
X225850000Y-108400000D02*
X225850000Y-113000000D01*
X225700000Y-108400000D02*
X225700000Y-113000000D01*
X225550000Y-108400000D02*
X225550000Y-113000000D01*
X225400000Y-108550000D02*
X225400000Y-112900000D01*
X225250000Y-108650000D02*
X225250000Y-112750000D01*
X225100000Y-108800000D02*
X225100000Y-112600000D01*
X224950000Y-108950000D02*
X224950000Y-112450000D01*
X224800000Y-109150000D02*
X224800000Y-112300000D01*
X224650000Y-109250000D02*
X224650000Y-112150000D01*
X224500000Y-112000000D02*
X225525000Y-113025000D01*
X224500000Y-112000000D02*
X224500000Y-109400000D01*
X224500000Y-109400000D02*
X225525000Y-108375000D01*
X233100000Y-110825000D02*
G75*
G03*
X234100000Y-109825000I1J999999D01*
G01*
X234100000Y-107175000D02*
G75*
G03*
X233100000Y-106175000I-999999J1D01*
G01*
X230499005Y-106176210D02*
G75*
G03*
X229637802Y-106878096I38796J-926886D01*
G01*
X227500000Y-108375000D02*
G75*
G03*
X229637801Y-106878096I1J2274999D01*
G01*
X230525000Y-110825000D02*
G75*
G03*
X229350000Y-112000000I2J-1175002D01*
G01*
X271653000Y-128389380D02*
X271653000Y-130675380D01*
X269875000Y-128389380D02*
X271653000Y-128389380D01*
X271653000Y-130675380D02*
X269875000Y-130675380D01*
X269875000Y-130675380D02*
X269875000Y-128389380D01*
X267589000Y-128397000D02*
X267589000Y-130683000D01*
X265811000Y-128397000D02*
X267589000Y-128397000D01*
X267589000Y-130683000D02*
X265811000Y-130683000D01*
X265811000Y-130683000D02*
X265811000Y-128397000D01*
X161850000Y-145700000D02*
X160350000Y-145700000D01*
X160350000Y-145700000D02*
X160350000Y-151100000D01*
X161600000Y-147900000D02*
X160600000Y-147900000D01*
X161100000Y-148000000D02*
X161600000Y-148900000D01*
X161600000Y-148900000D02*
X160600000Y-148900000D01*
X160600000Y-148900000D02*
X161100000Y-148000000D01*
X161850000Y-151100000D02*
X161850000Y-145700000D01*
X161850000Y-151100000D02*
X160350000Y-151100000D01*
X251922545Y-176654376D02*
X251409515Y-178063915D01*
X251409515Y-178063915D02*
X256483855Y-179910824D01*
X253904364Y-177641744D02*
X253562344Y-178581436D01*
X253827323Y-178145792D02*
X254844056Y-177983764D01*
X254844056Y-177983764D02*
X254502036Y-178923456D01*
X254502036Y-178923456D02*
X253827323Y-178145792D01*
X256996885Y-178501285D02*
X251922545Y-176654376D01*
X256996885Y-178501285D02*
X256483855Y-179910824D01*
D13*
X241977626Y-161467227D02*
X243445159Y-161752486D01*
X243474608Y-161758210D02*
X243197935Y-163181570D01*
X243197935Y-163181570D02*
X241700953Y-162890586D01*
X247905000Y-139790000D02*
X249400000Y-139790000D01*
X249430000Y-139790000D02*
X249430000Y-141240000D01*
X249430000Y-141240000D02*
X247905000Y-141240000D01*
D14*
X269621000Y-128397000D02*
X269621000Y-130683000D01*
X267843000Y-128397000D02*
X269621000Y-128397000D01*
X269621000Y-130683000D02*
X267843000Y-130683000D01*
X267843000Y-130683000D02*
X267843000Y-128397000D01*
D13*
X151905000Y-105300000D02*
X153400000Y-105300000D01*
X153430000Y-105300000D02*
X153430000Y-106750000D01*
X153430000Y-106750000D02*
X151905000Y-106750000D01*
D14*
X204700000Y-168225000D02*
X204700000Y-165575000D01*
X204550000Y-165150000D02*
X204550000Y-168700000D01*
X204450000Y-165000000D02*
X204450000Y-168750000D01*
X204350000Y-164900000D02*
X204350000Y-168850000D01*
X204250000Y-164800000D02*
X204250000Y-169000000D01*
X204100000Y-164700000D02*
X204100000Y-169100000D01*
X203950000Y-164650000D02*
X203950000Y-169150000D01*
X203800000Y-164600000D02*
X203800000Y-169150000D01*
X203700000Y-169225000D02*
X201125000Y-169225000D01*
X203700000Y-164575000D02*
X201100000Y-164575000D01*
X203650000Y-164600000D02*
X203650000Y-169200000D01*
X203500000Y-164600000D02*
X203500000Y-169200000D01*
X203350000Y-164600000D02*
X203350000Y-169200000D01*
X203200000Y-164600000D02*
X203200000Y-169200000D01*
X203050000Y-164600000D02*
X203050000Y-169200000D01*
X202900000Y-164600000D02*
X202900000Y-169200000D01*
X202750000Y-164600000D02*
X202750000Y-169200000D01*
X202600000Y-164600000D02*
X202600000Y-169200000D01*
X202450000Y-164600000D02*
X202450000Y-169200000D01*
X202300000Y-164600000D02*
X202300000Y-169200000D01*
X202150000Y-164600000D02*
X202150000Y-169200000D01*
X202000000Y-164600000D02*
X202000000Y-169200000D01*
X201850000Y-164600000D02*
X201850000Y-169200000D01*
X201700000Y-164600000D02*
X201700000Y-169200000D01*
X201550000Y-164600000D02*
X201550000Y-169200000D01*
X201400000Y-164600000D02*
X201400000Y-169200000D01*
X201250000Y-164600000D02*
X201250000Y-169150000D01*
X201100000Y-164600000D02*
X201100000Y-169200000D01*
X200950000Y-164600000D02*
X200950000Y-169200000D01*
X200800000Y-164650000D02*
X200800000Y-169200000D01*
X200650000Y-164750000D02*
X200650000Y-169300000D01*
X200500000Y-164850000D02*
X200500000Y-169350000D01*
X200400000Y-165000000D02*
X200400000Y-169400000D01*
X200300000Y-165250000D02*
X200300000Y-169450000D01*
X200200000Y-165400000D02*
X200200000Y-169550000D01*
X200100000Y-165600000D02*
X200100000Y-169750000D01*
X200000000Y-165750000D02*
X200000000Y-169900000D01*
X199900000Y-165950000D02*
X199900000Y-170400000D01*
X199750000Y-166100000D02*
X199750000Y-170550000D01*
X199600000Y-166250000D02*
X199600000Y-170650000D01*
X199450000Y-166350000D02*
X199450000Y-170750000D01*
X199300000Y-166450000D02*
X199300000Y-170900000D01*
X199150000Y-166550000D02*
X199150000Y-171000000D01*
X199000000Y-166600000D02*
X199000000Y-171150000D01*
X198850000Y-166700000D02*
X198850000Y-171250000D01*
X198700000Y-166750000D02*
X198700000Y-171350000D01*
X198675000Y-171425000D02*
X199950000Y-170400000D01*
X198675000Y-171425000D02*
X196125000Y-171425000D01*
X198550000Y-166750000D02*
X198550000Y-171400000D01*
X198400000Y-166750000D02*
X198400000Y-171400000D01*
X198250000Y-166800000D02*
X198250000Y-171350000D01*
X198100000Y-166800000D02*
X198100000Y-171400000D01*
X198100000Y-166775000D02*
X196125000Y-166775000D01*
X197950000Y-166800000D02*
X197950000Y-171400000D01*
X197800000Y-166800000D02*
X197800000Y-171400000D01*
X197650000Y-166800000D02*
X197650000Y-171400000D01*
X197500000Y-166800000D02*
X197500000Y-171400000D01*
X197350000Y-166800000D02*
X197350000Y-171400000D01*
X197200000Y-166800000D02*
X197200000Y-171400000D01*
X197050000Y-166800000D02*
X197050000Y-171400000D01*
X196900000Y-166800000D02*
X196900000Y-171400000D01*
X196750000Y-166800000D02*
X196750000Y-171400000D01*
X196600000Y-166800000D02*
X196600000Y-171400000D01*
X196450000Y-166800000D02*
X196450000Y-171400000D01*
X196300000Y-166800000D02*
X196300000Y-171400000D01*
X196150000Y-166800000D02*
X196150000Y-171400000D01*
X196000000Y-166950000D02*
X196000000Y-171300000D01*
X195850000Y-167050000D02*
X195850000Y-171150000D01*
X195700000Y-167200000D02*
X195700000Y-171000000D01*
X195550000Y-167350000D02*
X195550000Y-170850000D01*
X195400000Y-167550000D02*
X195400000Y-170700000D01*
X195250000Y-167650000D02*
X195250000Y-170550000D01*
X195100000Y-170400000D02*
X196125000Y-171425000D01*
X195100000Y-170400000D02*
X195100000Y-167800000D01*
X195100000Y-167800000D02*
X196125000Y-166775000D01*
X203700000Y-169225000D02*
G75*
G03*
X204700000Y-168225000I1J999999D01*
G01*
X204700000Y-165575000D02*
G75*
G03*
X203700000Y-164575000I-999999J1D01*
G01*
X201099005Y-164576210D02*
G75*
G03*
X200237802Y-165278096I38796J-926886D01*
G01*
X198100000Y-166775000D02*
G75*
G03*
X200237801Y-165278096I1J2274999D01*
G01*
X201125000Y-169225000D02*
G75*
G03*
X199950000Y-170400000I2J-1175002D01*
G01*
X265557000Y-128389380D02*
X265557000Y-130675380D01*
X263779000Y-128389380D02*
X265557000Y-128389380D01*
X265557000Y-130675380D02*
X263779000Y-130675380D01*
X263779000Y-130675380D02*
X263779000Y-128389380D01*
X263525000Y-128389380D02*
X263525000Y-130675380D01*
X261747000Y-128389380D02*
X263525000Y-128389380D01*
X263525000Y-130675380D02*
X261747000Y-130675380D01*
X261747000Y-130675380D02*
X261747000Y-128389380D01*
D13*
X249973040Y-167334653D02*
X250484360Y-165929813D01*
X250494621Y-165901622D02*
X251857175Y-166397551D01*
X251857175Y-166397551D02*
X251335594Y-167830583D01*
D14*
X234100000Y-148225000D02*
X234100000Y-145575000D01*
X233950000Y-145150000D02*
X233950000Y-148700000D01*
X233850000Y-145000000D02*
X233850000Y-148750000D01*
X233750000Y-144900000D02*
X233750000Y-148850000D01*
X233650000Y-144800000D02*
X233650000Y-149000000D01*
X233500000Y-144700000D02*
X233500000Y-149100000D01*
X233350000Y-144650000D02*
X233350000Y-149150000D01*
X233200000Y-144600000D02*
X233200000Y-149150000D01*
X233100000Y-149225000D02*
X230525000Y-149225000D01*
X233100000Y-144575000D02*
X230500000Y-144575000D01*
X233050000Y-144600000D02*
X233050000Y-149200000D01*
X232900000Y-144600000D02*
X232900000Y-149200000D01*
X232750000Y-144600000D02*
X232750000Y-149200000D01*
X232600000Y-144600000D02*
X232600000Y-149200000D01*
X232450000Y-144600000D02*
X232450000Y-149200000D01*
X232300000Y-144600000D02*
X232300000Y-149200000D01*
X232150000Y-144600000D02*
X232150000Y-149200000D01*
X232000000Y-144600000D02*
X232000000Y-149200000D01*
X231850000Y-144600000D02*
X231850000Y-149200000D01*
X231700000Y-144600000D02*
X231700000Y-149200000D01*
X231550000Y-144600000D02*
X231550000Y-149200000D01*
X231400000Y-144600000D02*
X231400000Y-149200000D01*
X231250000Y-144600000D02*
X231250000Y-149200000D01*
X231100000Y-144600000D02*
X231100000Y-149200000D01*
X230950000Y-144600000D02*
X230950000Y-149200000D01*
X230800000Y-144600000D02*
X230800000Y-149200000D01*
X230650000Y-144600000D02*
X230650000Y-149150000D01*
X230500000Y-144600000D02*
X230500000Y-149200000D01*
X230350000Y-144600000D02*
X230350000Y-149200000D01*
X230200000Y-144650000D02*
X230200000Y-149200000D01*
X230050000Y-144750000D02*
X230050000Y-149300000D01*
X229900000Y-144850000D02*
X229900000Y-149350000D01*
X229800000Y-145000000D02*
X229800000Y-149400000D01*
X229700000Y-145250000D02*
X229700000Y-149450000D01*
X229600000Y-145400000D02*
X229600000Y-149550000D01*
X229500000Y-145600000D02*
X229500000Y-149750000D01*
X229400000Y-145750000D02*
X229400000Y-149900000D01*
X229300000Y-145950000D02*
X229300000Y-150400000D01*
X229150000Y-146100000D02*
X229150000Y-150550000D01*
X229000000Y-146250000D02*
X229000000Y-150650000D01*
X228850000Y-146350000D02*
X228850000Y-150750000D01*
X228700000Y-146450000D02*
X228700000Y-150900000D01*
X228550000Y-146550000D02*
X228550000Y-151000000D01*
X228400000Y-146600000D02*
X228400000Y-151150000D01*
X228250000Y-146700000D02*
X228250000Y-151250000D01*
X228100000Y-146750000D02*
X228100000Y-151350000D01*
X228075000Y-151425000D02*
X229350000Y-150400000D01*
X228075000Y-151425000D02*
X225525000Y-151425000D01*
X227950000Y-146750000D02*
X227950000Y-151400000D01*
X227800000Y-146750000D02*
X227800000Y-151400000D01*
X227650000Y-146800000D02*
X227650000Y-151350000D01*
X227500000Y-146800000D02*
X227500000Y-151400000D01*
X227500000Y-146775000D02*
X225525000Y-146775000D01*
X227350000Y-146800000D02*
X227350000Y-151400000D01*
X227200000Y-146800000D02*
X227200000Y-151400000D01*
X227050000Y-146800000D02*
X227050000Y-151400000D01*
X226900000Y-146800000D02*
X226900000Y-151400000D01*
X226750000Y-146800000D02*
X226750000Y-151400000D01*
X226600000Y-146800000D02*
X226600000Y-151400000D01*
X226450000Y-146800000D02*
X226450000Y-151400000D01*
X226300000Y-146800000D02*
X226300000Y-151400000D01*
X226150000Y-146800000D02*
X226150000Y-151400000D01*
X226000000Y-146800000D02*
X226000000Y-151400000D01*
X225850000Y-146800000D02*
X225850000Y-151400000D01*
X225700000Y-146800000D02*
X225700000Y-151400000D01*
X225550000Y-146800000D02*
X225550000Y-151400000D01*
X225400000Y-146950000D02*
X225400000Y-151300000D01*
X225250000Y-147050000D02*
X225250000Y-151150000D01*
X225100000Y-147200000D02*
X225100000Y-151000000D01*
X224950000Y-147350000D02*
X224950000Y-150850000D01*
X224800000Y-147550000D02*
X224800000Y-150700000D01*
X224650000Y-147650000D02*
X224650000Y-150550000D01*
X224500000Y-150400000D02*
X225525000Y-151425000D01*
X224500000Y-150400000D02*
X224500000Y-147800000D01*
X224500000Y-147800000D02*
X225525000Y-146775000D01*
X233100000Y-149225000D02*
G75*
G03*
X234100000Y-148225000I1J999999D01*
G01*
X234100000Y-145575000D02*
G75*
G03*
X233100000Y-144575000I-999999J1D01*
G01*
X230499005Y-144576210D02*
G75*
G03*
X229637802Y-145278096I38796J-926886D01*
G01*
X227500000Y-146775000D02*
G75*
G03*
X229637801Y-145278096I1J2274999D01*
G01*
X230525000Y-149225000D02*
G75*
G03*
X229350000Y-150400000I2J-1175002D01*
G01*
X219450000Y-100500000D02*
X217950000Y-100500000D01*
X217950000Y-100500000D02*
X217950000Y-105900000D01*
X219200000Y-102700000D02*
X218200000Y-102700000D01*
X218700000Y-102800000D02*
X219200000Y-103700000D01*
X219200000Y-103700000D02*
X218200000Y-103700000D01*
X218200000Y-103700000D02*
X218700000Y-102800000D01*
X219450000Y-105900000D02*
X219450000Y-100500000D01*
X219450000Y-105900000D02*
X217950000Y-105900000D01*
X265049000Y-115943380D02*
X265049000Y-113657380D01*
X266827000Y-115943380D02*
X265049000Y-115943380D01*
X265049000Y-113657380D02*
X266827000Y-113657380D01*
X266827000Y-113657380D02*
X266827000Y-115943380D01*
X181050000Y-138900000D02*
X179550000Y-138900000D01*
X179550000Y-138900000D02*
X179550000Y-144300000D01*
X180800000Y-141100000D02*
X179800000Y-141100000D01*
X180300000Y-141200000D02*
X180800000Y-142100000D01*
X180800000Y-142100000D02*
X179800000Y-142100000D01*
X179800000Y-142100000D02*
X180300000Y-141200000D01*
X181050000Y-144300000D02*
X181050000Y-138900000D01*
X181050000Y-144300000D02*
X179550000Y-144300000D01*
D13*
X228705000Y-98500000D02*
X230200000Y-98500000D01*
X230230000Y-98500000D02*
X230230000Y-99950000D01*
X230230000Y-99950000D02*
X228705000Y-99950000D01*
X199305000Y-156900000D02*
X200800000Y-156900000D01*
X200830000Y-156900000D02*
X200830000Y-158350000D01*
X200830000Y-158350000D02*
X199305000Y-158350000D01*
X228705000Y-117700000D02*
X230200000Y-117700000D01*
X230230000Y-117700000D02*
X230230000Y-119150000D01*
X230230000Y-119150000D02*
X228705000Y-119150000D01*
X190305000Y-136900000D02*
X191800000Y-136900000D01*
X191830000Y-136900000D02*
X191830000Y-138350000D01*
X191830000Y-138350000D02*
X190305000Y-138350000D01*
X151905000Y-124500000D02*
X153400000Y-124500000D01*
X153430000Y-124500000D02*
X153430000Y-125950000D01*
X153430000Y-125950000D02*
X151905000Y-125950000D01*
D14*
X157300000Y-155025000D02*
X157300000Y-152375000D01*
X157150000Y-151950000D02*
X157150000Y-155500000D01*
X157050000Y-151800000D02*
X157050000Y-155550000D01*
X156950000Y-151700000D02*
X156950000Y-155650000D01*
X156850000Y-151600000D02*
X156850000Y-155800000D01*
X156700000Y-151500000D02*
X156700000Y-155900000D01*
X156550000Y-151450000D02*
X156550000Y-155950000D01*
X156400000Y-151400000D02*
X156400000Y-155950000D01*
X156300000Y-156025000D02*
X153725000Y-156025000D01*
X156300000Y-151375000D02*
X153700000Y-151375000D01*
X156250000Y-151400000D02*
X156250000Y-156000000D01*
X156100000Y-151400000D02*
X156100000Y-156000000D01*
X155950000Y-151400000D02*
X155950000Y-156000000D01*
X155800000Y-151400000D02*
X155800000Y-156000000D01*
X155650000Y-151400000D02*
X155650000Y-156000000D01*
X155500000Y-151400000D02*
X155500000Y-156000000D01*
X155350000Y-151400000D02*
X155350000Y-156000000D01*
X155200000Y-151400000D02*
X155200000Y-156000000D01*
X155050000Y-151400000D02*
X155050000Y-156000000D01*
X154900000Y-151400000D02*
X154900000Y-156000000D01*
X154750000Y-151400000D02*
X154750000Y-156000000D01*
X154600000Y-151400000D02*
X154600000Y-156000000D01*
X154450000Y-151400000D02*
X154450000Y-156000000D01*
X154300000Y-151400000D02*
X154300000Y-156000000D01*
X154150000Y-151400000D02*
X154150000Y-156000000D01*
X154000000Y-151400000D02*
X154000000Y-156000000D01*
X153850000Y-151400000D02*
X153850000Y-155950000D01*
X153700000Y-151400000D02*
X153700000Y-156000000D01*
X153550000Y-151400000D02*
X153550000Y-156000000D01*
X153400000Y-151450000D02*
X153400000Y-156000000D01*
X153250000Y-151550000D02*
X153250000Y-156100000D01*
X153100000Y-151650000D02*
X153100000Y-156150000D01*
X153000000Y-151800000D02*
X153000000Y-156200000D01*
X152900000Y-152050000D02*
X152900000Y-156250000D01*
X152800000Y-152200000D02*
X152800000Y-156350000D01*
X152700000Y-152400000D02*
X152700000Y-156550000D01*
X152600000Y-152550000D02*
X152600000Y-156700000D01*
X152500000Y-152750000D02*
X152500000Y-157200000D01*
X152350000Y-152900000D02*
X152350000Y-157350000D01*
X152200000Y-153050000D02*
X152200000Y-157450000D01*
X152050000Y-153150000D02*
X152050000Y-157550000D01*
X151900000Y-153250000D02*
X151900000Y-157700000D01*
X151750000Y-153350000D02*
X151750000Y-157800000D01*
X151600000Y-153400000D02*
X151600000Y-157950000D01*
X151450000Y-153500000D02*
X151450000Y-158050000D01*
X151300000Y-153550000D02*
X151300000Y-158150000D01*
X151275000Y-158225000D02*
X152550000Y-157200000D01*
X151275000Y-158225000D02*
X148725000Y-158225000D01*
X151150000Y-153550000D02*
X151150000Y-158200000D01*
X151000000Y-153550000D02*
X151000000Y-158200000D01*
X150850000Y-153600000D02*
X150850000Y-158150000D01*
X150700000Y-153600000D02*
X150700000Y-158200000D01*
X150700000Y-153575000D02*
X148725000Y-153575000D01*
X150550000Y-153600000D02*
X150550000Y-158200000D01*
X150400000Y-153600000D02*
X150400000Y-158200000D01*
X150250000Y-153600000D02*
X150250000Y-158200000D01*
X150100000Y-153600000D02*
X150100000Y-158200000D01*
X149950000Y-153600000D02*
X149950000Y-158200000D01*
X149800000Y-153600000D02*
X149800000Y-158200000D01*
X149650000Y-153600000D02*
X149650000Y-158200000D01*
X149500000Y-153600000D02*
X149500000Y-158200000D01*
X149350000Y-153600000D02*
X149350000Y-158200000D01*
X149200000Y-153600000D02*
X149200000Y-158200000D01*
X149050000Y-153600000D02*
X149050000Y-158200000D01*
X148900000Y-153600000D02*
X148900000Y-158200000D01*
X148750000Y-153600000D02*
X148750000Y-158200000D01*
X148600000Y-153750000D02*
X148600000Y-158100000D01*
X148450000Y-153850000D02*
X148450000Y-157950000D01*
X148300000Y-154000000D02*
X148300000Y-157800000D01*
X148150000Y-154150000D02*
X148150000Y-157650000D01*
X148000000Y-154350000D02*
X148000000Y-157500000D01*
X147850000Y-154450000D02*
X147850000Y-157350000D01*
X147700000Y-157200000D02*
X148725000Y-158225000D01*
X147700000Y-157200000D02*
X147700000Y-154600000D01*
X147700000Y-154600000D02*
X148725000Y-153575000D01*
X156300000Y-156025000D02*
G75*
G03*
X157300000Y-155025000I1J999999D01*
G01*
X157300000Y-152375000D02*
G75*
G03*
X156300000Y-151375000I-999999J1D01*
G01*
X153699005Y-151376210D02*
G75*
G03*
X152837802Y-152078096I38796J-926886D01*
G01*
X150700000Y-153575000D02*
G75*
G03*
X152837801Y-152078096I1J2274999D01*
G01*
X153725000Y-156025000D02*
G75*
G03*
X152550000Y-157200000I2J-1175002D01*
G01*
X263492000Y-135884000D02*
X263492000Y-137384000D01*
X263492000Y-137384000D02*
X268892000Y-137384000D01*
X265692000Y-136134000D02*
X265692000Y-137134000D01*
X265792000Y-136634000D02*
X266692000Y-136134000D01*
X266692000Y-136134000D02*
X266692000Y-137134000D01*
X266692000Y-137134000D02*
X265792000Y-136634000D01*
X268892000Y-135884000D02*
X263492000Y-135884000D01*
X268892000Y-135884000D02*
X268892000Y-137384000D01*
D13*
X190305000Y-98500000D02*
X191800000Y-98500000D01*
X191830000Y-98500000D02*
X191830000Y-99950000D01*
X191830000Y-99950000D02*
X190305000Y-99950000D01*
D14*
X176500000Y-116625000D02*
X176500000Y-113975000D01*
X176350000Y-113550000D02*
X176350000Y-117100000D01*
X176250000Y-113400000D02*
X176250000Y-117150000D01*
X176150000Y-113300000D02*
X176150000Y-117250000D01*
X176050000Y-113200000D02*
X176050000Y-117400000D01*
X175900000Y-113100000D02*
X175900000Y-117500000D01*
X175750000Y-113050000D02*
X175750000Y-117550000D01*
X175600000Y-113000000D02*
X175600000Y-117550000D01*
X175500000Y-117625000D02*
X172925000Y-117625000D01*
X175500000Y-112975000D02*
X172900000Y-112975000D01*
X175450000Y-113000000D02*
X175450000Y-117600000D01*
X175300000Y-113000000D02*
X175300000Y-117600000D01*
X175150000Y-113000000D02*
X175150000Y-117600000D01*
X175000000Y-113000000D02*
X175000000Y-117600000D01*
X174850000Y-113000000D02*
X174850000Y-117600000D01*
X174700000Y-113000000D02*
X174700000Y-117600000D01*
X174550000Y-113000000D02*
X174550000Y-117600000D01*
X174400000Y-113000000D02*
X174400000Y-117600000D01*
X174250000Y-113000000D02*
X174250000Y-117600000D01*
X174100000Y-113000000D02*
X174100000Y-117600000D01*
X173950000Y-113000000D02*
X173950000Y-117600000D01*
X173800000Y-113000000D02*
X173800000Y-117600000D01*
X173650000Y-113000000D02*
X173650000Y-117600000D01*
X173500000Y-113000000D02*
X173500000Y-117600000D01*
X173350000Y-113000000D02*
X173350000Y-117600000D01*
X173200000Y-113000000D02*
X173200000Y-117600000D01*
X173050000Y-113000000D02*
X173050000Y-117550000D01*
X172900000Y-113000000D02*
X172900000Y-117600000D01*
X172750000Y-113000000D02*
X172750000Y-117600000D01*
X172600000Y-113050000D02*
X172600000Y-117600000D01*
X172450000Y-113150000D02*
X172450000Y-117700000D01*
X172300000Y-113250000D02*
X172300000Y-117750000D01*
X172200000Y-113400000D02*
X172200000Y-117800000D01*
X172100000Y-113650000D02*
X172100000Y-117850000D01*
X172000000Y-113800000D02*
X172000000Y-117950000D01*
X171900000Y-114000000D02*
X171900000Y-118150000D01*
X171800000Y-114150000D02*
X171800000Y-118300000D01*
X171700000Y-114350000D02*
X171700000Y-118800000D01*
X171550000Y-114500000D02*
X171550000Y-118950000D01*
X171400000Y-114650000D02*
X171400000Y-119050000D01*
X171250000Y-114750000D02*
X171250000Y-119150000D01*
X171100000Y-114850000D02*
X171100000Y-119300000D01*
X170950000Y-114950000D02*
X170950000Y-119400000D01*
X170800000Y-115000000D02*
X170800000Y-119550000D01*
X170650000Y-115100000D02*
X170650000Y-119650000D01*
X170500000Y-115150000D02*
X170500000Y-119750000D01*
X170475000Y-119825000D02*
X171750000Y-118800000D01*
X170475000Y-119825000D02*
X167925000Y-119825000D01*
X170350000Y-115150000D02*
X170350000Y-119800000D01*
X170200000Y-115150000D02*
X170200000Y-119800000D01*
X170050000Y-115200000D02*
X170050000Y-119750000D01*
X169900000Y-115200000D02*
X169900000Y-119800000D01*
X169900000Y-115175000D02*
X167925000Y-115175000D01*
X169750000Y-115200000D02*
X169750000Y-119800000D01*
X169600000Y-115200000D02*
X169600000Y-119800000D01*
X169450000Y-115200000D02*
X169450000Y-119800000D01*
X169300000Y-115200000D02*
X169300000Y-119800000D01*
X169150000Y-115200000D02*
X169150000Y-119800000D01*
X169000000Y-115200000D02*
X169000000Y-119800000D01*
X168850000Y-115200000D02*
X168850000Y-119800000D01*
X168700000Y-115200000D02*
X168700000Y-119800000D01*
X168550000Y-115200000D02*
X168550000Y-119800000D01*
X168400000Y-115200000D02*
X168400000Y-119800000D01*
X168250000Y-115200000D02*
X168250000Y-119800000D01*
X168100000Y-115200000D02*
X168100000Y-119800000D01*
X167950000Y-115200000D02*
X167950000Y-119800000D01*
X167800000Y-115350000D02*
X167800000Y-119700000D01*
X167650000Y-115450000D02*
X167650000Y-119550000D01*
X167500000Y-115600000D02*
X167500000Y-119400000D01*
X167350000Y-115750000D02*
X167350000Y-119250000D01*
X167200000Y-115950000D02*
X167200000Y-119100000D01*
X167050000Y-116050000D02*
X167050000Y-118950000D01*
X166900000Y-118800000D02*
X167925000Y-119825000D01*
X166900000Y-118800000D02*
X166900000Y-116200000D01*
X166900000Y-116200000D02*
X167925000Y-115175000D01*
X175500000Y-117625000D02*
G75*
G03*
X176500000Y-116625000I1J999999D01*
G01*
X176500000Y-113975000D02*
G75*
G03*
X175500000Y-112975000I-999999J1D01*
G01*
X172899005Y-112976210D02*
G75*
G03*
X172037802Y-113678096I38796J-926886D01*
G01*
X169900000Y-115175000D02*
G75*
G03*
X172037801Y-113678096I1J2274999D01*
G01*
X172925000Y-117625000D02*
G75*
G03*
X171750000Y-118800000I2J-1175002D01*
G01*
D10*
X187787633Y-175684459D02*
X170883931Y-171155126D01*
X187597534Y-169825623D02*
X189239608Y-170265615D01*
X185182719Y-169178575D02*
X186052053Y-169411512D01*
X182767905Y-168531527D02*
X183637238Y-168764465D01*
X180353090Y-167884480D02*
X181222424Y-168117417D01*
X177938276Y-167237432D02*
X178807609Y-167470369D01*
X175523461Y-166590385D02*
X176392794Y-166823322D01*
X172335906Y-165736282D02*
X173977980Y-166176274D01*
D14*
X195700000Y-148225000D02*
X195700000Y-145575000D01*
X195550000Y-145150000D02*
X195550000Y-148700000D01*
X195450000Y-145000000D02*
X195450000Y-148750000D01*
X195350000Y-144900000D02*
X195350000Y-148850000D01*
X195250000Y-144800000D02*
X195250000Y-149000000D01*
X195100000Y-144700000D02*
X195100000Y-149100000D01*
X194950000Y-144650000D02*
X194950000Y-149150000D01*
X194800000Y-144600000D02*
X194800000Y-149150000D01*
X194700000Y-149225000D02*
X192125000Y-149225000D01*
X194700000Y-144575000D02*
X192100000Y-144575000D01*
X194650000Y-144600000D02*
X194650000Y-149200000D01*
X194500000Y-144600000D02*
X194500000Y-149200000D01*
X194350000Y-144600000D02*
X194350000Y-149200000D01*
X194200000Y-144600000D02*
X194200000Y-149200000D01*
X194050000Y-144600000D02*
X194050000Y-149200000D01*
X193900000Y-144600000D02*
X193900000Y-149200000D01*
X193750000Y-144600000D02*
X193750000Y-149200000D01*
X193600000Y-144600000D02*
X193600000Y-149200000D01*
X193450000Y-144600000D02*
X193450000Y-149200000D01*
X193300000Y-144600000D02*
X193300000Y-149200000D01*
X193150000Y-144600000D02*
X193150000Y-149200000D01*
X193000000Y-144600000D02*
X193000000Y-149200000D01*
X192850000Y-144600000D02*
X192850000Y-149200000D01*
X192700000Y-144600000D02*
X192700000Y-149200000D01*
X192550000Y-144600000D02*
X192550000Y-149200000D01*
X192400000Y-144600000D02*
X192400000Y-149200000D01*
X192250000Y-144600000D02*
X192250000Y-149150000D01*
X192100000Y-144600000D02*
X192100000Y-149200000D01*
X191950000Y-144600000D02*
X191950000Y-149200000D01*
X191800000Y-144650000D02*
X191800000Y-149200000D01*
X191650000Y-144750000D02*
X191650000Y-149300000D01*
X191500000Y-144850000D02*
X191500000Y-149350000D01*
X191400000Y-145000000D02*
X191400000Y-149400000D01*
X191300000Y-145250000D02*
X191300000Y-149450000D01*
X191200000Y-145400000D02*
X191200000Y-149550000D01*
X191100000Y-145600000D02*
X191100000Y-149750000D01*
X191000000Y-145750000D02*
X191000000Y-149900000D01*
X190900000Y-145950000D02*
X190900000Y-150400000D01*
X190750000Y-146100000D02*
X190750000Y-150550000D01*
X190600000Y-146250000D02*
X190600000Y-150650000D01*
X190450000Y-146350000D02*
X190450000Y-150750000D01*
X190300000Y-146450000D02*
X190300000Y-150900000D01*
X190150000Y-146550000D02*
X190150000Y-151000000D01*
X190000000Y-146600000D02*
X190000000Y-151150000D01*
X189850000Y-146700000D02*
X189850000Y-151250000D01*
X189700000Y-146750000D02*
X189700000Y-151350000D01*
X189675000Y-151425000D02*
X190950000Y-150400000D01*
X189675000Y-151425000D02*
X187125000Y-151425000D01*
X189550000Y-146750000D02*
X189550000Y-151400000D01*
X189400000Y-146750000D02*
X189400000Y-151400000D01*
X189250000Y-146800000D02*
X189250000Y-151350000D01*
X189100000Y-146800000D02*
X189100000Y-151400000D01*
X189100000Y-146775000D02*
X187125000Y-146775000D01*
X188950000Y-146800000D02*
X188950000Y-151400000D01*
X188800000Y-146800000D02*
X188800000Y-151400000D01*
X188650000Y-146800000D02*
X188650000Y-151400000D01*
X188500000Y-146800000D02*
X188500000Y-151400000D01*
X188350000Y-146800000D02*
X188350000Y-151400000D01*
X188200000Y-146800000D02*
X188200000Y-151400000D01*
X188050000Y-146800000D02*
X188050000Y-151400000D01*
X187900000Y-146800000D02*
X187900000Y-151400000D01*
X187750000Y-146800000D02*
X187750000Y-151400000D01*
X187600000Y-146800000D02*
X187600000Y-151400000D01*
X187450000Y-146800000D02*
X187450000Y-151400000D01*
X187300000Y-146800000D02*
X187300000Y-151400000D01*
X187150000Y-146800000D02*
X187150000Y-151400000D01*
X187000000Y-146950000D02*
X187000000Y-151300000D01*
X186850000Y-147050000D02*
X186850000Y-151150000D01*
X186700000Y-147200000D02*
X186700000Y-151000000D01*
X186550000Y-147350000D02*
X186550000Y-150850000D01*
X186400000Y-147550000D02*
X186400000Y-150700000D01*
X186250000Y-147650000D02*
X186250000Y-150550000D01*
X186100000Y-150400000D02*
X187125000Y-151425000D01*
X186100000Y-150400000D02*
X186100000Y-147800000D01*
X186100000Y-147800000D02*
X187125000Y-146775000D01*
X194700000Y-149225000D02*
G75*
G03*
X195700000Y-148225000I1J999999D01*
G01*
X195700000Y-145575000D02*
G75*
G03*
X194700000Y-144575000I-999999J1D01*
G01*
X192099005Y-144576210D02*
G75*
G03*
X191237802Y-145278096I38796J-926886D01*
G01*
X189100000Y-146775000D02*
G75*
G03*
X191237801Y-145278096I1J2274999D01*
G01*
X192125000Y-149225000D02*
G75*
G03*
X190950000Y-150400000I2J-1175002D01*
G01*
X200250000Y-136010000D02*
X198750000Y-136010000D01*
X198750000Y-136010000D02*
X198750000Y-141410000D01*
X200000000Y-138210000D02*
X199000000Y-138210000D01*
X199500000Y-138310000D02*
X200000000Y-139210000D01*
X200000000Y-139210000D02*
X199000000Y-139210000D01*
X199000000Y-139210000D02*
X199500000Y-138310000D01*
X200250000Y-141410000D02*
X200250000Y-136010000D01*
X200250000Y-141410000D02*
X198750000Y-141410000D01*
D13*
X209505000Y-114810000D02*
X211000000Y-114810000D01*
X211030000Y-114810000D02*
X211030000Y-116260000D01*
X211030000Y-116260000D02*
X209505000Y-116260000D01*
D14*
X142650000Y-107300000D02*
X141150000Y-107300000D01*
X141150000Y-107300000D02*
X141150000Y-112700000D01*
X142400000Y-109500000D02*
X141400000Y-109500000D01*
X141900000Y-109600000D02*
X142400000Y-110500000D01*
X142400000Y-110500000D02*
X141400000Y-110500000D01*
X141400000Y-110500000D02*
X141900000Y-109600000D01*
X142650000Y-112700000D02*
X142650000Y-107300000D01*
X142650000Y-112700000D02*
X141150000Y-112700000D01*
D13*
X209505000Y-134010000D02*
X211000000Y-134010000D01*
X211030000Y-134010000D02*
X211030000Y-135460000D01*
X211030000Y-135460000D02*
X209505000Y-135460000D01*
D14*
X232511049Y-161664544D02*
X231038608Y-161378331D01*
X231038608Y-161378331D02*
X230008239Y-166679118D01*
X231845862Y-163776422D02*
X230864235Y-163585613D01*
X231335968Y-163779180D02*
X231655053Y-164758049D01*
X231655053Y-164758049D02*
X230673426Y-164567240D01*
X230673426Y-164567240D02*
X231335968Y-163779180D01*
X231480680Y-166965331D02*
X232511049Y-161664544D01*
X231480680Y-166965331D02*
X230008239Y-166679118D01*
X219450000Y-119700000D02*
X217950000Y-119700000D01*
X217950000Y-119700000D02*
X217950000Y-125100000D01*
X219200000Y-121900000D02*
X218200000Y-121900000D01*
X218700000Y-122000000D02*
X219200000Y-122900000D01*
X219200000Y-122900000D02*
X218200000Y-122900000D01*
X218200000Y-122900000D02*
X218700000Y-122000000D01*
X219450000Y-125100000D02*
X219450000Y-119700000D01*
X219450000Y-125100000D02*
X217950000Y-125100000D01*
X263017000Y-115943380D02*
X263017000Y-113657380D01*
X264795000Y-115943380D02*
X263017000Y-115943380D01*
X263017000Y-113657380D02*
X264795000Y-113657380D01*
X264795000Y-113657380D02*
X264795000Y-115943380D01*
X142650000Y-145700000D02*
X141150000Y-145700000D01*
X141150000Y-145700000D02*
X141150000Y-151100000D01*
X142400000Y-147900000D02*
X141400000Y-147900000D01*
X141900000Y-148000000D02*
X142400000Y-148900000D01*
X142400000Y-148900000D02*
X141400000Y-148900000D01*
X141400000Y-148900000D02*
X141900000Y-148000000D01*
X142650000Y-151100000D02*
X142650000Y-145700000D01*
X142650000Y-151100000D02*
X141150000Y-151100000D01*
D13*
X171105000Y-124500000D02*
X172600000Y-124500000D01*
X172630000Y-124500000D02*
X172630000Y-125950000D01*
X172630000Y-125950000D02*
X171105000Y-125950000D01*
D14*
X200250000Y-116810000D02*
X198750000Y-116810000D01*
X198750000Y-116810000D02*
X198750000Y-122210000D01*
X200000000Y-119010000D02*
X199000000Y-119010000D01*
X199500000Y-119110000D02*
X200000000Y-120010000D01*
X200000000Y-120010000D02*
X199000000Y-120010000D01*
X199000000Y-120010000D02*
X199500000Y-119110000D01*
X200250000Y-122210000D02*
X200250000Y-116810000D01*
X200250000Y-122210000D02*
X198750000Y-122210000D01*
D13*
X247905000Y-120590000D02*
X249400000Y-120590000D01*
X249430000Y-120590000D02*
X249430000Y-122040000D01*
X249430000Y-122040000D02*
X247905000Y-122040000D01*
D10*
X265028000Y-120615064D02*
X265028000Y-119160936D01*
X266848000Y-120615064D02*
X266848000Y-119160936D01*
D14*
X225143303Y-169925465D02*
X225374265Y-167285549D01*
X225261877Y-166849093D02*
X224952475Y-170385584D01*
X225175331Y-166690948D02*
X224848497Y-170426679D01*
X225084427Y-166582613D02*
X224740162Y-170517582D01*
X224993523Y-166474278D02*
X224627469Y-170658296D01*
X224852810Y-166361586D02*
X224469325Y-170744842D01*
X224707738Y-166298702D02*
X224315538Y-170781579D01*
X224562667Y-166235819D02*
X224166108Y-170768505D01*
X224059952Y-170834504D02*
X221494751Y-170610078D01*
X224465226Y-166202199D02*
X221875120Y-165975594D01*
X224413238Y-166222746D02*
X224012321Y-170805242D01*
X224263809Y-166209673D02*
X223862892Y-170792168D01*
X224114379Y-166196599D02*
X223713463Y-170779095D01*
X223964950Y-166183526D02*
X223564034Y-170766021D01*
X223815521Y-166170453D02*
X223414605Y-170752948D01*
X223666092Y-166157379D02*
X223265175Y-170739875D01*
X223516663Y-166144306D02*
X223115746Y-170726801D01*
X223367233Y-166131232D02*
X222966317Y-170713728D01*
X223217804Y-166118159D02*
X222816888Y-170700655D01*
X223068375Y-166105086D02*
X222667459Y-170687581D01*
X222918946Y-166092012D02*
X222518029Y-170674508D01*
X222769517Y-166078939D02*
X222368600Y-170661435D01*
X222620087Y-166065866D02*
X222219171Y-170648361D01*
X222470658Y-166052792D02*
X222069742Y-170635288D01*
X222321229Y-166039719D02*
X221920313Y-170622215D01*
X222171800Y-166026646D02*
X221770883Y-170609141D01*
X222022371Y-166013572D02*
X221625812Y-170546258D01*
X221872941Y-166000499D02*
X221472025Y-170582994D01*
X221723512Y-165987425D02*
X221322596Y-170569921D01*
X221569725Y-166024162D02*
X221173167Y-170556848D01*
X221411580Y-166110708D02*
X221015022Y-170643394D01*
X221253436Y-166197254D02*
X220861235Y-170680130D01*
X221140743Y-166337968D02*
X220757257Y-170721224D01*
X221019334Y-166578301D02*
X220653280Y-170762319D01*
X220906642Y-166719014D02*
X220544945Y-170853222D01*
X220789591Y-166909538D02*
X220427895Y-171043746D01*
X220676898Y-167050251D02*
X220315202Y-171184459D01*
X220559847Y-167240775D02*
X220172004Y-171673841D01*
X220397345Y-167377131D02*
X220009502Y-171810197D01*
X220234842Y-167513486D02*
X219851357Y-171896743D01*
X220076698Y-167600033D02*
X219693212Y-171983289D01*
X219918553Y-167686579D02*
X219530710Y-172119645D01*
X219760408Y-167773125D02*
X219372565Y-172206191D01*
X219606621Y-167809861D02*
X219210062Y-172342547D01*
X219448476Y-167896407D02*
X219051918Y-172429093D01*
X219294689Y-167933144D02*
X218893773Y-172515639D01*
X218862331Y-172588175D02*
X220221814Y-171678199D01*
X218862331Y-172588175D02*
X216322035Y-172365928D01*
X219145260Y-167920070D02*
X218739986Y-172552376D01*
X218995831Y-167906997D02*
X218590557Y-172539302D01*
X218842044Y-167943733D02*
X218445485Y-172476419D01*
X218692615Y-167930660D02*
X218291698Y-172513156D01*
X218694794Y-167905755D02*
X216727309Y-167733622D01*
X218543185Y-167917587D02*
X218142269Y-172500082D01*
X218393756Y-167904513D02*
X217992840Y-172487009D01*
X218244327Y-167891440D02*
X217843411Y-172473935D01*
X218094898Y-167878366D02*
X217693981Y-172460862D01*
X217945469Y-167865293D02*
X217544552Y-172447789D01*
X217796039Y-167852220D02*
X217395123Y-172434715D01*
X217646610Y-167839146D02*
X217245694Y-172421642D01*
X217497181Y-167826073D02*
X217096265Y-172408569D01*
X217347752Y-167813000D02*
X216946835Y-172395495D01*
X217198323Y-167799926D02*
X216797406Y-172382422D01*
X217048893Y-167786853D02*
X216647977Y-172369349D01*
X216899464Y-167773780D02*
X216498548Y-172356275D01*
X216750035Y-167760706D02*
X216349119Y-172343202D01*
X216587532Y-167897062D02*
X216208405Y-172230509D01*
X216429388Y-167983608D02*
X216072049Y-172068006D01*
X216266885Y-168119964D02*
X215935693Y-171905504D01*
X216104382Y-168256320D02*
X215799337Y-171743001D01*
X215937522Y-168442485D02*
X215662982Y-171580499D01*
X215779377Y-168529032D02*
X215526626Y-171417996D01*
X215390270Y-171255494D02*
X216322035Y-172365928D01*
X215390270Y-171255494D02*
X215616875Y-168665387D01*
X215616875Y-168665387D02*
X216727309Y-167733622D01*
X224059952Y-170834505D02*
G75*
G03*
X225143303Y-169925465I87157J996194D01*
G01*
X225374266Y-167285549D02*
G75*
G03*
X224465226Y-166202199I-996194J87156D01*
G01*
X221874024Y-165976712D02*
G75*
G03*
X220954924Y-166600869I-42136J-926741D01*
G01*
X218694794Y-167905754D02*
G75*
G03*
X220954922Y-166600869I198280J2266341D01*
G01*
X221494751Y-170610078D02*
G75*
G03*
X220221814Y-171678199I-102406J-1170531D01*
G01*
D13*
X209505000Y-95610000D02*
X211000000Y-95610000D01*
X211030000Y-95610000D02*
X211030000Y-97060000D01*
X211030000Y-97060000D02*
X209505000Y-97060000D01*
D10*
X271508600Y-100803600D02*
X271508600Y-98883600D01*
X271508600Y-95168600D02*
X271508600Y-96873600D01*
X262348600Y-98883600D02*
X262348600Y-100803600D01*
X262348600Y-96873600D02*
X262348600Y-95168600D01*
X262348600Y-95168600D02*
X271508600Y-95168600D01*
D13*
X171105000Y-100000000D02*
X172600000Y-100000000D01*
X172630000Y-100000000D02*
X172630000Y-101450000D01*
X172630000Y-101450000D02*
X171105000Y-101450000D01*
X190305000Y-117700000D02*
X191800000Y-117700000D01*
X191830000Y-117700000D02*
X191830000Y-119150000D01*
X191830000Y-119150000D02*
X190305000Y-119150000D01*
D14*
X157300000Y-116625000D02*
X157300000Y-113975000D01*
X157150000Y-113550000D02*
X157150000Y-117100000D01*
X157050000Y-113400000D02*
X157050000Y-117150000D01*
X156950000Y-113300000D02*
X156950000Y-117250000D01*
X156850000Y-113200000D02*
X156850000Y-117400000D01*
X156700000Y-113100000D02*
X156700000Y-117500000D01*
X156550000Y-113050000D02*
X156550000Y-117550000D01*
X156400000Y-113000000D02*
X156400000Y-117550000D01*
X156300000Y-117625000D02*
X153725000Y-117625000D01*
X156300000Y-112975000D02*
X153700000Y-112975000D01*
X156250000Y-113000000D02*
X156250000Y-117600000D01*
X156100000Y-113000000D02*
X156100000Y-117600000D01*
X155950000Y-113000000D02*
X155950000Y-117600000D01*
X155800000Y-113000000D02*
X155800000Y-117600000D01*
X155650000Y-113000000D02*
X155650000Y-117600000D01*
X155500000Y-113000000D02*
X155500000Y-117600000D01*
X155350000Y-113000000D02*
X155350000Y-117600000D01*
X155200000Y-113000000D02*
X155200000Y-117600000D01*
X155050000Y-113000000D02*
X155050000Y-117600000D01*
X154900000Y-113000000D02*
X154900000Y-117600000D01*
X154750000Y-113000000D02*
X154750000Y-117600000D01*
X154600000Y-113000000D02*
X154600000Y-117600000D01*
X154450000Y-113000000D02*
X154450000Y-117600000D01*
X154300000Y-113000000D02*
X154300000Y-117600000D01*
X154150000Y-113000000D02*
X154150000Y-117600000D01*
X154000000Y-113000000D02*
X154000000Y-117600000D01*
X153850000Y-113000000D02*
X153850000Y-117550000D01*
X153700000Y-113000000D02*
X153700000Y-117600000D01*
X153550000Y-113000000D02*
X153550000Y-117600000D01*
X153400000Y-113050000D02*
X153400000Y-117600000D01*
X153250000Y-113150000D02*
X153250000Y-117700000D01*
X153100000Y-113250000D02*
X153100000Y-117750000D01*
X153000000Y-113400000D02*
X153000000Y-117800000D01*
X152900000Y-113650000D02*
X152900000Y-117850000D01*
X152800000Y-113800000D02*
X152800000Y-117950000D01*
X152700000Y-114000000D02*
X152700000Y-118150000D01*
X152600000Y-114150000D02*
X152600000Y-118300000D01*
X152500000Y-114350000D02*
X152500000Y-118800000D01*
X152350000Y-114500000D02*
X152350000Y-118950000D01*
X152200000Y-114650000D02*
X152200000Y-119050000D01*
X152050000Y-114750000D02*
X152050000Y-119150000D01*
X151900000Y-114850000D02*
X151900000Y-119300000D01*
X151750000Y-114950000D02*
X151750000Y-119400000D01*
X151600000Y-115000000D02*
X151600000Y-119550000D01*
X151450000Y-115100000D02*
X151450000Y-119650000D01*
X151300000Y-115150000D02*
X151300000Y-119750000D01*
X151275000Y-119825000D02*
X152550000Y-118800000D01*
X151275000Y-119825000D02*
X148725000Y-119825000D01*
X151150000Y-115150000D02*
X151150000Y-119800000D01*
X151000000Y-115150000D02*
X151000000Y-119800000D01*
X150850000Y-115200000D02*
X150850000Y-119750000D01*
X150700000Y-115200000D02*
X150700000Y-119800000D01*
X150700000Y-115175000D02*
X148725000Y-115175000D01*
X150550000Y-115200000D02*
X150550000Y-119800000D01*
X150400000Y-115200000D02*
X150400000Y-119800000D01*
X150250000Y-115200000D02*
X150250000Y-119800000D01*
X150100000Y-115200000D02*
X150100000Y-119800000D01*
X149950000Y-115200000D02*
X149950000Y-119800000D01*
X149800000Y-115200000D02*
X149800000Y-119800000D01*
X149650000Y-115200000D02*
X149650000Y-119800000D01*
X149500000Y-115200000D02*
X149500000Y-119800000D01*
X149350000Y-115200000D02*
X149350000Y-119800000D01*
X149200000Y-115200000D02*
X149200000Y-119800000D01*
X149050000Y-115200000D02*
X149050000Y-119800000D01*
X148900000Y-115200000D02*
X148900000Y-119800000D01*
X148750000Y-115200000D02*
X148750000Y-119800000D01*
X148600000Y-115350000D02*
X148600000Y-119700000D01*
X148450000Y-115450000D02*
X148450000Y-119550000D01*
X148300000Y-115600000D02*
X148300000Y-119400000D01*
X148150000Y-115750000D02*
X148150000Y-119250000D01*
X148000000Y-115950000D02*
X148000000Y-119100000D01*
X147850000Y-116050000D02*
X147850000Y-118950000D01*
X147700000Y-118800000D02*
X148725000Y-119825000D01*
X147700000Y-118800000D02*
X147700000Y-116200000D01*
X147700000Y-116200000D02*
X148725000Y-115175000D01*
X156300000Y-117625000D02*
G75*
G03*
X157300000Y-116625000I1J999999D01*
G01*
X157300000Y-113975000D02*
G75*
G03*
X156300000Y-112975000I-999999J1D01*
G01*
X153699005Y-112976210D02*
G75*
G03*
X152837802Y-113678096I38796J-926886D01*
G01*
X150700000Y-115175000D02*
G75*
G03*
X152837801Y-113678096I1J2274999D01*
G01*
X153725000Y-117625000D02*
G75*
G03*
X152550000Y-118800000I2J-1175002D01*
G01*
D13*
X151905000Y-143700000D02*
X153400000Y-143700000D01*
X153430000Y-143700000D02*
X153430000Y-145150000D01*
X153430000Y-145150000D02*
X151905000Y-145150000D01*
D14*
X214900000Y-145335000D02*
X214900000Y-142685000D01*
X214750000Y-142260000D02*
X214750000Y-145810000D01*
X214650000Y-142110000D02*
X214650000Y-145860000D01*
X214550000Y-142010000D02*
X214550000Y-145960000D01*
X214450000Y-141910000D02*
X214450000Y-146110000D01*
X214300000Y-141810000D02*
X214300000Y-146210000D01*
X214150000Y-141760000D02*
X214150000Y-146260000D01*
X214000000Y-141710000D02*
X214000000Y-146260000D01*
X213900000Y-146335000D02*
X211325000Y-146335000D01*
X213900000Y-141685000D02*
X211300000Y-141685000D01*
X213850000Y-141710000D02*
X213850000Y-146310000D01*
X213700000Y-141710000D02*
X213700000Y-146310000D01*
X213550000Y-141710000D02*
X213550000Y-146310000D01*
X213400000Y-141710000D02*
X213400000Y-146310000D01*
X213250000Y-141710000D02*
X213250000Y-146310000D01*
X213100000Y-141710000D02*
X213100000Y-146310000D01*
X212950000Y-141710000D02*
X212950000Y-146310000D01*
X212800000Y-141710000D02*
X212800000Y-146310000D01*
X212650000Y-141710000D02*
X212650000Y-146310000D01*
X212500000Y-141710000D02*
X212500000Y-146310000D01*
X212350000Y-141710000D02*
X212350000Y-146310000D01*
X212200000Y-141710000D02*
X212200000Y-146310000D01*
X212050000Y-141710000D02*
X212050000Y-146310000D01*
X211900000Y-141710000D02*
X211900000Y-146310000D01*
X211750000Y-141710000D02*
X211750000Y-146310000D01*
X211600000Y-141710000D02*
X211600000Y-146310000D01*
X211450000Y-141710000D02*
X211450000Y-146260000D01*
X211300000Y-141710000D02*
X211300000Y-146310000D01*
X211150000Y-141710000D02*
X211150000Y-146310000D01*
X211000000Y-141760000D02*
X211000000Y-146310000D01*
X210850000Y-141860000D02*
X210850000Y-146410000D01*
X210700000Y-141960000D02*
X210700000Y-146460000D01*
X210600000Y-142110000D02*
X210600000Y-146510000D01*
X210500000Y-142360000D02*
X210500000Y-146560000D01*
X210400000Y-142510000D02*
X210400000Y-146660000D01*
X210300000Y-142710000D02*
X210300000Y-146860000D01*
X210200000Y-142860000D02*
X210200000Y-147010000D01*
X210100000Y-143060000D02*
X210100000Y-147510000D01*
X209950000Y-143210000D02*
X209950000Y-147660000D01*
X209800000Y-143360000D02*
X209800000Y-147760000D01*
X209650000Y-143460000D02*
X209650000Y-147860000D01*
X209500000Y-143560000D02*
X209500000Y-148010000D01*
X209350000Y-143660000D02*
X209350000Y-148110000D01*
X209200000Y-143710000D02*
X209200000Y-148260000D01*
X209050000Y-143810000D02*
X209050000Y-148360000D01*
X208900000Y-143860000D02*
X208900000Y-148460000D01*
X208875000Y-148535000D02*
X210150000Y-147510000D01*
X208875000Y-148535000D02*
X206325000Y-148535000D01*
X208750000Y-143860000D02*
X208750000Y-148510000D01*
X208600000Y-143860000D02*
X208600000Y-148510000D01*
X208450000Y-143910000D02*
X208450000Y-148460000D01*
X208300000Y-143910000D02*
X208300000Y-148510000D01*
X208300000Y-143885000D02*
X206325000Y-143885000D01*
X208150000Y-143910000D02*
X208150000Y-148510000D01*
X208000000Y-143910000D02*
X208000000Y-148510000D01*
X207850000Y-143910000D02*
X207850000Y-148510000D01*
X207700000Y-143910000D02*
X207700000Y-148510000D01*
X207550000Y-143910000D02*
X207550000Y-148510000D01*
X207400000Y-143910000D02*
X207400000Y-148510000D01*
X207250000Y-143910000D02*
X207250000Y-148510000D01*
X207100000Y-143910000D02*
X207100000Y-148510000D01*
X206950000Y-143910000D02*
X206950000Y-148510000D01*
X206800000Y-143910000D02*
X206800000Y-148510000D01*
X206650000Y-143910000D02*
X206650000Y-148510000D01*
X206500000Y-143910000D02*
X206500000Y-148510000D01*
X206350000Y-143910000D02*
X206350000Y-148510000D01*
X206200000Y-144060000D02*
X206200000Y-148410000D01*
X206050000Y-144160000D02*
X206050000Y-148260000D01*
X205900000Y-144310000D02*
X205900000Y-148110000D01*
X205750000Y-144460000D02*
X205750000Y-147960000D01*
X205600000Y-144660000D02*
X205600000Y-147810000D01*
X205450000Y-144760000D02*
X205450000Y-147660000D01*
X205300000Y-147510000D02*
X206325000Y-148535000D01*
X205300000Y-147510000D02*
X205300000Y-144910000D01*
X205300000Y-144910000D02*
X206325000Y-143885000D01*
X213900000Y-146335000D02*
G75*
G03*
X214900000Y-145335000I1J999999D01*
G01*
X214900000Y-142685000D02*
G75*
G03*
X213900000Y-141685000I-999999J1D01*
G01*
X211299005Y-141686210D02*
G75*
G03*
X210437802Y-142388096I38796J-926886D01*
G01*
X208300000Y-143885000D02*
G75*
G03*
X210437801Y-142388096I1J2274999D01*
G01*
X211325000Y-146335000D02*
G75*
G03*
X210150000Y-147510000I2J-1175002D01*
G01*
D10*
X267441000Y-120615064D02*
X267441000Y-119160936D01*
X269261000Y-120615064D02*
X269261000Y-119160936D01*
D14*
X214900000Y-126135000D02*
X214900000Y-123485000D01*
X214750000Y-123060000D02*
X214750000Y-126610000D01*
X214650000Y-122910000D02*
X214650000Y-126660000D01*
X214550000Y-122810000D02*
X214550000Y-126760000D01*
X214450000Y-122710000D02*
X214450000Y-126910000D01*
X214300000Y-122610000D02*
X214300000Y-127010000D01*
X214150000Y-122560000D02*
X214150000Y-127060000D01*
X214000000Y-122510000D02*
X214000000Y-127060000D01*
X213900000Y-127135000D02*
X211325000Y-127135000D01*
X213900000Y-122485000D02*
X211300000Y-122485000D01*
X213850000Y-122510000D02*
X213850000Y-127110000D01*
X213700000Y-122510000D02*
X213700000Y-127110000D01*
X213550000Y-122510000D02*
X213550000Y-127110000D01*
X213400000Y-122510000D02*
X213400000Y-127110000D01*
X213250000Y-122510000D02*
X213250000Y-127110000D01*
X213100000Y-122510000D02*
X213100000Y-127110000D01*
X212950000Y-122510000D02*
X212950000Y-127110000D01*
X212800000Y-122510000D02*
X212800000Y-127110000D01*
X212650000Y-122510000D02*
X212650000Y-127110000D01*
X212500000Y-122510000D02*
X212500000Y-127110000D01*
X212350000Y-122510000D02*
X212350000Y-127110000D01*
X212200000Y-122510000D02*
X212200000Y-127110000D01*
X212050000Y-122510000D02*
X212050000Y-127110000D01*
X211900000Y-122510000D02*
X211900000Y-127110000D01*
X211750000Y-122510000D02*
X211750000Y-127110000D01*
X211600000Y-122510000D02*
X211600000Y-127110000D01*
X211450000Y-122510000D02*
X211450000Y-127060000D01*
X211300000Y-122510000D02*
X211300000Y-127110000D01*
X211150000Y-122510000D02*
X211150000Y-127110000D01*
X211000000Y-122560000D02*
X211000000Y-127110000D01*
X210850000Y-122660000D02*
X210850000Y-127210000D01*
X210700000Y-122760000D02*
X210700000Y-127260000D01*
X210600000Y-122910000D02*
X210600000Y-127310000D01*
X210500000Y-123160000D02*
X210500000Y-127360000D01*
X210400000Y-123310000D02*
X210400000Y-127460000D01*
X210300000Y-123510000D02*
X210300000Y-127660000D01*
X210200000Y-123660000D02*
X210200000Y-127810000D01*
X210100000Y-123860000D02*
X210100000Y-128310000D01*
X209950000Y-124010000D02*
X209950000Y-128460000D01*
X209800000Y-124160000D02*
X209800000Y-128560000D01*
X209650000Y-124260000D02*
X209650000Y-128660000D01*
X209500000Y-124360000D02*
X209500000Y-128810000D01*
X209350000Y-124460000D02*
X209350000Y-128910000D01*
X209200000Y-124510000D02*
X209200000Y-129060000D01*
X209050000Y-124610000D02*
X209050000Y-129160000D01*
X208900000Y-124660000D02*
X208900000Y-129260000D01*
X208875000Y-129335000D02*
X210150000Y-128310000D01*
X208875000Y-129335000D02*
X206325000Y-129335000D01*
X208750000Y-124660000D02*
X208750000Y-129310000D01*
X208600000Y-124660000D02*
X208600000Y-129310000D01*
X208450000Y-124710000D02*
X208450000Y-129260000D01*
X208300000Y-124710000D02*
X208300000Y-129310000D01*
X208300000Y-124685000D02*
X206325000Y-124685000D01*
X208150000Y-124710000D02*
X208150000Y-129310000D01*
X208000000Y-124710000D02*
X208000000Y-129310000D01*
X207850000Y-124710000D02*
X207850000Y-129310000D01*
X207700000Y-124710000D02*
X207700000Y-129310000D01*
X207550000Y-124710000D02*
X207550000Y-129310000D01*
X207400000Y-124710000D02*
X207400000Y-129310000D01*
X207250000Y-124710000D02*
X207250000Y-129310000D01*
X207100000Y-124710000D02*
X207100000Y-129310000D01*
X206950000Y-124710000D02*
X206950000Y-129310000D01*
X206800000Y-124710000D02*
X206800000Y-129310000D01*
X206650000Y-124710000D02*
X206650000Y-129310000D01*
X206500000Y-124710000D02*
X206500000Y-129310000D01*
X206350000Y-124710000D02*
X206350000Y-129310000D01*
X206200000Y-124860000D02*
X206200000Y-129210000D01*
X206050000Y-124960000D02*
X206050000Y-129060000D01*
X205900000Y-125110000D02*
X205900000Y-128910000D01*
X205750000Y-125260000D02*
X205750000Y-128760000D01*
X205600000Y-125460000D02*
X205600000Y-128610000D01*
X205450000Y-125560000D02*
X205450000Y-128460000D01*
X205300000Y-128310000D02*
X206325000Y-129335000D01*
X205300000Y-128310000D02*
X205300000Y-125710000D01*
X205300000Y-125710000D02*
X206325000Y-124685000D01*
X213900000Y-127135000D02*
G75*
G03*
X214900000Y-126135000I1J999999D01*
G01*
X214900000Y-123485000D02*
G75*
G03*
X213900000Y-122485000I-999999J1D01*
G01*
X211299005Y-122486210D02*
G75*
G03*
X210437802Y-123188096I38796J-926886D01*
G01*
X208300000Y-124685000D02*
G75*
G03*
X210437801Y-123188096I1J2274999D01*
G01*
X211325000Y-127135000D02*
G75*
G03*
X210150000Y-128310000I2J-1175002D01*
G01*
D13*
X209505000Y-150710000D02*
X211000000Y-150710000D01*
X211030000Y-150710000D02*
X211030000Y-152160000D01*
X211030000Y-152160000D02*
X209505000Y-152160000D01*
D14*
X161850000Y-107300000D02*
X160350000Y-107300000D01*
X160350000Y-107300000D02*
X160350000Y-112700000D01*
X161600000Y-109500000D02*
X160600000Y-109500000D01*
X161100000Y-109600000D02*
X161600000Y-110500000D01*
X161600000Y-110500000D02*
X160600000Y-110500000D01*
X160600000Y-110500000D02*
X161100000Y-109600000D01*
X161850000Y-112700000D02*
X161850000Y-107300000D01*
X161850000Y-112700000D02*
X160350000Y-112700000D01*
D13*
X209505000Y-110310000D02*
X211000000Y-110310000D01*
X211030000Y-110310000D02*
X211030000Y-111760000D01*
X211030000Y-111760000D02*
X209505000Y-111760000D01*
D14*
X190615000Y-158717000D02*
X189115000Y-158717000D01*
X189115000Y-158717000D02*
X189115000Y-164117000D01*
X190365000Y-160917000D02*
X189365000Y-160917000D01*
X189865000Y-161017000D02*
X190365000Y-161917000D01*
X190365000Y-161917000D02*
X189365000Y-161917000D01*
X189365000Y-161917000D02*
X189865000Y-161017000D01*
X190615000Y-164117000D02*
X190615000Y-158717000D01*
X190615000Y-164117000D02*
X189115000Y-164117000D01*
D13*
X171105000Y-143700000D02*
X172600000Y-143700000D01*
X172630000Y-143700000D02*
X172630000Y-145150000D01*
X172630000Y-145150000D02*
X171105000Y-145150000D01*
D14*
X211361778Y-159359118D02*
X209867485Y-159228385D01*
X209867485Y-159228385D02*
X209396844Y-164607836D01*
X210920986Y-161528958D02*
X209924792Y-161441802D01*
X210414173Y-161584999D02*
X210833830Y-162525152D01*
X210833830Y-162525152D02*
X209837636Y-162437996D01*
X209837636Y-162437996D02*
X210414173Y-161584999D01*
X210891137Y-164738569D02*
X211361778Y-159359118D01*
X210891137Y-164738569D02*
X209396844Y-164607836D01*
X219450000Y-138900000D02*
X217950000Y-138900000D01*
X217950000Y-138900000D02*
X217950000Y-144300000D01*
X219200000Y-141100000D02*
X218200000Y-141100000D01*
X218700000Y-141200000D02*
X219200000Y-142100000D01*
X219200000Y-142100000D02*
X218200000Y-142100000D01*
X218200000Y-142100000D02*
X218700000Y-141200000D01*
X219450000Y-144300000D02*
X219450000Y-138900000D01*
X219450000Y-144300000D02*
X217950000Y-144300000D01*
D10*
X233054871Y-95246958D02*
X233103099Y-94458431D01*
X235036946Y-96420149D02*
X234837319Y-96407939D01*
X238031350Y-96603295D02*
X236334521Y-96499512D01*
X239990229Y-94879666D02*
X239942001Y-95668193D01*
D17*
X271278001Y-163925565D03*
X265169999Y-161702435D03*
D18*
X261721600Y-132334000D03*
X264261600Y-132334000D03*
X266801600Y-132334000D03*
X269341600Y-132334000D03*
X271881600Y-132334000D03*
D19*
X274556400Y-100012000D03*
X274556400Y-102552000D03*
X274556400Y-105092000D03*
X274556400Y-107632000D03*
X274556400Y-110172000D03*
X274556400Y-112712000D03*
X274556400Y-115252000D03*
X274556400Y-117792000D03*
X274556400Y-120332000D03*
X274556400Y-122872000D03*
X274556400Y-125412000D03*
X274556400Y-127952000D03*
X259336400Y-127952000D03*
X259336400Y-125412000D03*
X259336400Y-122872000D03*
X259336400Y-120332000D03*
X259336400Y-117792000D03*
X259336400Y-115252000D03*
X259336400Y-112712000D03*
X259336400Y-110172000D03*
X259336400Y-107632000D03*
X259336400Y-105092000D03*
X259336400Y-102552000D03*
X259336400Y-100012000D03*
%LPC*%
D20*
X174700000Y-130800000D03*
D21*
X174420000Y-126600000D03*
D22*
X174200000Y-134500000D03*
X169200000Y-136700000D03*
D23*
X169200000Y-130800000D03*
D22*
X164200000Y-134500000D03*
D21*
X163980000Y-126600000D03*
D20*
X163700000Y-130800000D03*
D24*
X177100000Y-134500000D03*
X166400000Y-136700000D03*
D25*
X237800000Y-139825000D03*
X237800000Y-143375000D03*
D26*
X166685600Y-106025000D03*
X171714400Y-106025000D03*
X171714400Y-107775000D03*
X166685600Y-107775000D03*
D27*
X158623000Y-159258000D03*
D26*
X243485600Y-102115000D03*
X248514400Y-102115000D03*
X248514400Y-103865000D03*
X243485600Y-103865000D03*
D25*
X161100000Y-127425000D03*
X161100000Y-130975000D03*
D20*
X213100000Y-101910000D03*
D21*
X212820000Y-97710000D03*
D22*
X212600000Y-105610000D03*
X207600000Y-107810000D03*
D23*
X207600000Y-101910000D03*
D22*
X202600000Y-105610000D03*
D21*
X202380000Y-97710000D03*
D20*
X202100000Y-101910000D03*
D24*
X215500000Y-105610000D03*
X204800000Y-107810000D03*
D28*
X271278001Y-163925565D03*
X265169999Y-161702435D03*
D25*
X180300000Y-120625000D03*
X180300000Y-124175000D03*
D29*
X261721600Y-132334000D03*
X264261600Y-132334000D03*
X266801600Y-132334000D03*
X269341600Y-132334000D03*
X271881600Y-132334000D03*
D25*
X180300000Y-101425000D03*
X180300000Y-104975000D03*
D26*
X224285600Y-137625000D03*
X229314400Y-137625000D03*
X229314400Y-139375000D03*
X224285600Y-139375000D03*
D20*
X232300000Y-124000000D03*
D21*
X232020000Y-119800000D03*
D22*
X231800000Y-127700000D03*
X226800000Y-129900000D03*
D23*
X226800000Y-124000000D03*
D22*
X221800000Y-127700000D03*
D21*
X221580000Y-119800000D03*
D20*
X221300000Y-124000000D03*
D24*
X234700000Y-127700000D03*
X224000000Y-129900000D03*
D30*
X268351000Y-115300760D03*
X268351000Y-114300000D03*
X270383000Y-115300760D03*
X270383000Y-114300000D03*
D20*
X251500000Y-107690000D03*
D21*
X251220000Y-103490000D03*
D22*
X251000000Y-111390000D03*
X246000000Y-113590000D03*
D23*
X246000000Y-107690000D03*
D22*
X241000000Y-111390000D03*
D21*
X240780000Y-103490000D03*
D20*
X240500000Y-107690000D03*
D24*
X253900000Y-111390000D03*
X243200000Y-113590000D03*
D31*
X254530079Y-173744474D03*
X256250029Y-169018947D03*
X257894491Y-169617482D03*
X256174541Y-174343009D03*
D20*
X174700000Y-150000000D03*
D21*
X174420000Y-145800000D03*
D22*
X174200000Y-153700000D03*
X169200000Y-155900000D03*
D23*
X169200000Y-150000000D03*
D22*
X164200000Y-153700000D03*
D21*
X163980000Y-145800000D03*
D20*
X163700000Y-150000000D03*
D24*
X177100000Y-153700000D03*
X166400000Y-155900000D03*
D26*
X243485600Y-96815000D03*
X248514400Y-96815000D03*
X248514400Y-98565000D03*
X243485600Y-98565000D03*
D25*
X199500000Y-98535000D03*
X199500000Y-102085000D03*
D28*
X258692000Y-142534000D03*
X258692000Y-147534000D03*
X258692000Y-145034000D03*
D32*
X266192000Y-139434000D03*
X266192000Y-150634000D03*
D28*
X273192000Y-147534000D03*
X273192000Y-142534000D03*
D20*
X251500000Y-126890000D03*
D21*
X251220000Y-122690000D03*
D22*
X251000000Y-130590000D03*
X246000000Y-132790000D03*
D23*
X246000000Y-126890000D03*
D22*
X241000000Y-130590000D03*
D21*
X240780000Y-122690000D03*
D20*
X240500000Y-126890000D03*
D24*
X253900000Y-130590000D03*
X243200000Y-132790000D03*
D26*
X166685600Y-162675600D03*
X171714400Y-162675600D03*
X171714400Y-164425600D03*
X166685600Y-164425600D03*
D25*
X237800000Y-104925000D03*
X237800000Y-108475000D03*
D20*
X251500000Y-146090000D03*
D21*
X251220000Y-141890000D03*
D22*
X251000000Y-149790000D03*
X246000000Y-151990000D03*
D23*
X246000000Y-146090000D03*
D22*
X241000000Y-149790000D03*
D21*
X240780000Y-141890000D03*
D20*
X240500000Y-146090000D03*
D24*
X253900000Y-149790000D03*
X243200000Y-151990000D03*
D25*
X141900000Y-127425000D03*
X141900000Y-130975000D03*
D33*
X180340000Y-114427000D03*
X184840000Y-114427000D03*
D27*
X256768600Y-183413400D03*
D20*
X155500000Y-130800000D03*
D21*
X155220000Y-126600000D03*
D22*
X155000000Y-134500000D03*
X150000000Y-136700000D03*
D23*
X150000000Y-130800000D03*
D22*
X145000000Y-134500000D03*
D21*
X144780000Y-126600000D03*
D20*
X144500000Y-130800000D03*
D24*
X157900000Y-134500000D03*
X147200000Y-136700000D03*
D34*
X274556400Y-100012000D03*
X274556400Y-102552000D03*
X274556400Y-105092000D03*
X274556400Y-107632000D03*
X274556400Y-110172000D03*
X274556400Y-112712000D03*
X274556400Y-115252000D03*
X274556400Y-117792000D03*
X274556400Y-120332000D03*
X274556400Y-122872000D03*
X274556400Y-125412000D03*
X274556400Y-127952000D03*
X259336400Y-127952000D03*
X259336400Y-125412000D03*
X259336400Y-122872000D03*
X259336400Y-120332000D03*
X259336400Y-117792000D03*
X259336400Y-115252000D03*
X259336400Y-112712000D03*
X259336400Y-110172000D03*
X259336400Y-107632000D03*
X259336400Y-105092000D03*
X259336400Y-102552000D03*
X259336400Y-100012000D03*
D20*
X262509951Y-168120164D03*
D21*
X258467476Y-166946793D03*
D22*
X265815803Y-169855484D03*
X266173026Y-175306392D03*
D23*
X260628840Y-173288473D03*
D22*
X262395602Y-179252411D03*
D21*
X254896786Y-176757184D03*
D20*
X258747729Y-178456782D03*
D35*
X266773460Y-167224345D03*
X265215370Y-177937531D03*
D20*
X193900000Y-124000000D03*
D21*
X193620000Y-119800000D03*
D22*
X193400000Y-127700000D03*
X188400000Y-129900000D03*
D23*
X188400000Y-124000000D03*
D22*
X183400000Y-127700000D03*
D21*
X183180000Y-119800000D03*
D20*
X182900000Y-124000000D03*
D24*
X196300000Y-127700000D03*
X185600000Y-129900000D03*
D25*
X237800000Y-120625000D03*
X237800000Y-124175000D03*
D36*
X216290100Y-158510420D03*
X221299764Y-158948709D03*
X221147242Y-160692050D03*
X216137578Y-160253761D03*
D20*
X193900000Y-104800000D03*
D21*
X193620000Y-100600000D03*
D22*
X193400000Y-108500000D03*
X188400000Y-110700000D03*
D23*
X188400000Y-104800000D03*
D22*
X183400000Y-108500000D03*
D21*
X183180000Y-100600000D03*
D20*
X182900000Y-104800000D03*
D24*
X196300000Y-108500000D03*
X185600000Y-110700000D03*
D20*
X244304480Y-168337436D03*
D21*
X244831022Y-164161176D03*
D22*
X243107673Y-171874053D03*
X237779757Y-173079587D03*
D23*
X238905530Y-167287987D03*
D22*
X233291401Y-169965963D03*
D21*
X234582834Y-162169130D03*
D20*
X233506580Y-166238538D03*
D37*
X245954391Y-172427399D03*
X235031201Y-172545322D03*
D20*
X232300000Y-104800000D03*
D21*
X232020000Y-100600000D03*
D22*
X231800000Y-108500000D03*
X226800000Y-110700000D03*
D23*
X226800000Y-104800000D03*
D22*
X221800000Y-108500000D03*
D21*
X221580000Y-100600000D03*
D20*
X221300000Y-104800000D03*
D24*
X234700000Y-108500000D03*
X224000000Y-110700000D03*
D27*
X254889000Y-99187000D03*
D38*
X270764000Y-129032000D03*
X270764000Y-130032760D03*
X266700000Y-129039620D03*
X266700000Y-130040380D03*
D25*
X161100000Y-146625000D03*
X161100000Y-150175000D03*
D39*
X252535246Y-177675514D03*
X255871154Y-178889686D03*
D40*
X237501086Y-161335645D03*
X242437493Y-162295185D03*
X242103578Y-164013033D03*
X237167171Y-163053493D03*
D26*
X243485600Y-140515000D03*
X248514400Y-140515000D03*
X248514400Y-142265000D03*
X243485600Y-142265000D03*
D38*
X268732000Y-129039620D03*
X268732000Y-130040380D03*
D26*
X147485600Y-106025000D03*
X152514400Y-106025000D03*
X152514400Y-107775000D03*
X147485600Y-107775000D03*
D20*
X202900000Y-163200000D03*
D21*
X202620000Y-159000000D03*
D22*
X202400000Y-166900000D03*
X197400000Y-169100000D03*
D23*
X197400000Y-163200000D03*
D22*
X192400000Y-166900000D03*
D21*
X192180000Y-159000000D03*
D20*
X191900000Y-163200000D03*
D24*
X205300000Y-166900000D03*
X194600000Y-169100000D03*
D38*
X264668000Y-129032000D03*
X264668000Y-130032760D03*
X262636000Y-129032000D03*
X262636000Y-130032760D03*
D31*
X249142794Y-171735496D03*
X250862744Y-167009969D03*
X252507206Y-167608504D03*
X250787256Y-172334031D03*
D20*
X232300000Y-143200000D03*
D21*
X232020000Y-139000000D03*
D22*
X231800000Y-146900000D03*
X226800000Y-149100000D03*
D23*
X226800000Y-143200000D03*
D22*
X221800000Y-146900000D03*
D21*
X221580000Y-139000000D03*
D20*
X221300000Y-143200000D03*
D24*
X234700000Y-146900000D03*
X224000000Y-149100000D03*
D25*
X218700000Y-101425000D03*
X218700000Y-104975000D03*
D30*
X265938000Y-115300760D03*
X265938000Y-114300000D03*
D25*
X180300000Y-139825000D03*
X180300000Y-143375000D03*
D26*
X224285600Y-99225000D03*
X229314400Y-99225000D03*
X229314400Y-100975000D03*
X224285600Y-100975000D03*
X194885600Y-157625000D03*
X199914400Y-157625000D03*
X199914400Y-159375000D03*
X194885600Y-159375000D03*
X224285600Y-118425000D03*
X229314400Y-118425000D03*
X229314400Y-120175000D03*
X224285600Y-120175000D03*
X185885600Y-137625000D03*
X190914400Y-137625000D03*
X190914400Y-139375000D03*
X185885600Y-139375000D03*
X147485600Y-125225000D03*
X152514400Y-125225000D03*
X152514400Y-126975000D03*
X147485600Y-126975000D03*
D20*
X155500000Y-150000000D03*
D21*
X155220000Y-145800000D03*
D22*
X155000000Y-153700000D03*
X150000000Y-155900000D03*
D23*
X150000000Y-150000000D03*
D22*
X145000000Y-153700000D03*
D21*
X144780000Y-145800000D03*
D20*
X144500000Y-150000000D03*
D24*
X157900000Y-153700000D03*
X147200000Y-155900000D03*
D41*
X264417000Y-136634000D03*
X267967000Y-136634000D03*
D26*
X185885600Y-99225000D03*
X190914400Y-99225000D03*
X190914400Y-100975000D03*
X185885600Y-100975000D03*
D20*
X174700000Y-111600000D03*
D21*
X174420000Y-107400000D03*
D22*
X174200000Y-115300000D03*
X169200000Y-117500000D03*
D23*
X169200000Y-111600000D03*
D22*
X164200000Y-115300000D03*
D21*
X163980000Y-107400000D03*
D20*
X163700000Y-111600000D03*
D24*
X177100000Y-115300000D03*
X166400000Y-117500000D03*
D42*
X186928321Y-169232197D03*
X184513506Y-168585149D03*
X182098692Y-167938102D03*
X179683877Y-167291054D03*
X177269063Y-166644007D03*
X174854248Y-165996959D03*
D20*
X193900000Y-143200000D03*
D21*
X193620000Y-139000000D03*
D22*
X193400000Y-146900000D03*
X188400000Y-149100000D03*
D23*
X188400000Y-143200000D03*
D22*
X183400000Y-146900000D03*
D21*
X183180000Y-139000000D03*
D20*
X182900000Y-143200000D03*
D24*
X196300000Y-146900000D03*
X185600000Y-149100000D03*
D25*
X199500000Y-136935000D03*
X199500000Y-140485000D03*
D27*
X157759400Y-102717600D03*
X264795000Y-156083000D03*
D26*
X205085600Y-115535000D03*
X210114400Y-115535000D03*
X210114400Y-117285000D03*
X205085600Y-117285000D03*
D25*
X141900000Y-108225000D03*
X141900000Y-111775000D03*
D26*
X205085600Y-134735000D03*
X210114400Y-134735000D03*
X210114400Y-136485000D03*
X205085600Y-136485000D03*
D43*
X231598330Y-162429443D03*
X230920958Y-165914219D03*
D44*
X254254000Y-139700000D03*
X254254000Y-137160000D03*
X254254000Y-134620000D03*
D25*
X218700000Y-120625000D03*
X218700000Y-124175000D03*
D30*
X263906000Y-115300760D03*
X263906000Y-114300000D03*
D25*
X141900000Y-146625000D03*
X141900000Y-150175000D03*
D26*
X166685600Y-125225000D03*
X171714400Y-125225000D03*
X171714400Y-126975000D03*
X166685600Y-126975000D03*
D25*
X199500000Y-117735000D03*
X199500000Y-121285000D03*
D26*
X243485600Y-121315000D03*
X248514400Y-121315000D03*
X248514400Y-123065000D03*
X243485600Y-123065000D03*
D45*
X265938000Y-121350500D03*
X265938000Y-118425500D03*
D20*
X223788110Y-164762707D03*
D21*
X223875229Y-160554285D03*
D22*
X222967536Y-168405049D03*
X217794820Y-170160899D03*
D23*
X218309039Y-164283350D03*
D22*
X213005589Y-167533492D03*
D21*
X213474957Y-159644379D03*
D20*
X212829968Y-163803993D03*
D46*
X225856501Y-168657801D03*
X215005475Y-169916863D03*
D26*
X205085600Y-96335000D03*
X210114400Y-96335000D03*
X210114400Y-98085000D03*
X205085600Y-98085000D03*
D47*
X269818600Y-101558600D03*
X264038600Y-101558600D03*
D48*
X270128600Y-102678600D03*
X269328600Y-102678600D03*
D49*
X268178600Y-102678600D03*
X267178600Y-102678600D03*
X266678600Y-102678600D03*
X265678600Y-102678600D03*
D48*
X264528600Y-102678600D03*
X263728600Y-102678600D03*
X263728600Y-102678600D03*
X264528600Y-102678600D03*
D49*
X265178600Y-102678600D03*
X266178600Y-102678600D03*
X267678600Y-102678600D03*
X268678600Y-102678600D03*
D48*
X269328600Y-102678600D03*
X270128600Y-102678600D03*
D50*
X271248600Y-102078600D03*
D51*
X271248600Y-97878600D03*
D50*
X262608600Y-102078600D03*
D51*
X262608600Y-97878600D03*
D26*
X166685600Y-100725000D03*
X171714400Y-100725000D03*
X171714400Y-102475000D03*
X166685600Y-102475000D03*
X185885600Y-118425000D03*
X190914400Y-118425000D03*
X190914400Y-120175000D03*
X185885600Y-120175000D03*
D20*
X155500000Y-111600000D03*
D21*
X155220000Y-107400000D03*
D22*
X155000000Y-115300000D03*
X150000000Y-117500000D03*
D23*
X150000000Y-111600000D03*
D22*
X145000000Y-115300000D03*
D21*
X144780000Y-107400000D03*
D20*
X144500000Y-111600000D03*
D24*
X157900000Y-115300000D03*
X147200000Y-117500000D03*
D26*
X147485600Y-144425000D03*
X152514400Y-144425000D03*
X152514400Y-146175000D03*
X147485600Y-146175000D03*
D20*
X213100000Y-140310000D03*
D21*
X212820000Y-136110000D03*
D22*
X212600000Y-144010000D03*
X207600000Y-146210000D03*
D23*
X207600000Y-140310000D03*
D22*
X202600000Y-144010000D03*
D21*
X202380000Y-136110000D03*
D20*
X202100000Y-140310000D03*
D24*
X215500000Y-144010000D03*
X204800000Y-146210000D03*
D45*
X268351000Y-121350500D03*
X268351000Y-118425500D03*
D20*
X213100000Y-121110000D03*
D21*
X212820000Y-116910000D03*
D22*
X212600000Y-124810000D03*
X207600000Y-127010000D03*
D23*
X207600000Y-121110000D03*
D22*
X202600000Y-124810000D03*
D21*
X202380000Y-116910000D03*
D20*
X202100000Y-121110000D03*
D24*
X215500000Y-124810000D03*
X204800000Y-127010000D03*
D26*
X205085600Y-151435000D03*
X210114400Y-151435000D03*
X210114400Y-153185000D03*
X205085600Y-153185000D03*
D25*
X161100000Y-108225000D03*
X161100000Y-111775000D03*
D26*
X205085600Y-111035000D03*
X210114400Y-111035000D03*
X210114400Y-112785000D03*
X205085600Y-112785000D03*
D25*
X189865000Y-159642000D03*
X189865000Y-163192000D03*
D26*
X166685600Y-144425000D03*
X171714400Y-144425000D03*
X171714400Y-146175000D03*
X166685600Y-146175000D03*
D52*
X210534012Y-160215231D03*
X210224610Y-163751723D03*
D25*
X218700000Y-139825000D03*
X218700000Y-143375000D03*
D53*
X232946816Y-93737546D03*
X232811899Y-95943424D03*
D54*
X235025653Y-94966749D03*
X238020057Y-95149894D03*
D53*
X240233200Y-94183200D03*
X240098283Y-96389078D03*
D55*
X238661213Y-96952398D03*
X235666808Y-96769252D03*
X234169606Y-96677680D03*
%LPD*%
M02*
