M48
; DRILL file {KiCad 7.0.7} date Wed Sep 27 23:28:08 2023
; FORMAT={-:-/ absolute / metric / decimal}
; #@! TF.CreationDate,2023-09-27T23:28:08-04:00
; #@! TF.GenerationSoftware,Kicad,Pcbnew,7.0.7
; #@! TF.FileFunction,Plated,1,2,PTH
FMAT,2
METRIC
; #@! TA.AperFunction,Plated,PTH,ViaDrill
T1C0.400
; #@! TA.AperFunction,Plated,PTH,ComponentDrill
T2C0.813
; #@! TA.AperFunction,Plated,PTH,ComponentDrill
T3C1.000
; #@! TA.AperFunction,Plated,PTH,ComponentDrill
T4C1.300
; #@! TA.AperFunction,Plated,PTH,ComponentDrill
T5C1.500
; #@! TA.AperFunction,Plated,PTH,ComponentDrill
T6C4.100
%
G90
G05
T1
X141.732Y-106.426
X141.9Y-125.644
X141.9Y-144.78
X141.986Y-113.284
X141.986Y-132.588
X141.986Y-151.638
X142.24Y-117.602
X142.24Y-136.906
X142.748Y-155.956
X144.526Y-142.278
X144.526Y-144.272
X145.034Y-103.542
X145.034Y-105.918
X145.034Y-120.65
X145.034Y-125.222
X146.05Y-105.918
X146.05Y-124.968
X146.05Y-144.272
X151.13Y-153.67
X151.892Y-134.62
X152.654Y-115.57
X153.924Y-107.188
X153.924Y-126.238
X153.924Y-145.288
X156.718Y-108.839
X156.718Y-128.778
X156.718Y-148.336
X157.734Y-139.7
X157.734Y-145.288
X157.9Y-117.602
X157.988Y-123.952
X158.877Y-107.638
X159.131Y-105.701
X160.007Y-107.44
X160.201Y-105.701
X160.274Y-122.936
X160.528Y-141.986
X160.833Y-125.984
X161.087Y-132.385
X161.087Y-145.237
X161.138Y-151.638
X161.163Y-102.78
X161.201Y-105.701
X161.29Y-155.956
X162.344Y-122.936
X163.83Y-106.025
X163.83Y-120.65
X163.83Y-122.174
X163.83Y-123.698
X164.084Y-141.732
X164.338Y-97.79
X164.338Y-103.124
X165.1Y-144.018
X165.227Y-141.351
X165.278Y-124.547
X165.354Y-101.854
X165.354Y-105.918
X166.624Y-143.002
X167.894Y-115.062
X170.18Y-153.416
X170.942Y-134.874
X173.101Y-140.335
X173.228Y-101.473
X173.228Y-106.172
X173.228Y-126.238
X173.482Y-146.812
X173.99Y-143.764
X174.117Y-141.097
X174.244Y-102.362
X175.043Y-143.51
X175.641Y-101.092
X176.022Y-108.712
X176.149Y-132.334
X176.276Y-127.762
X177.038Y-122.936
X177.038Y-136.652
X177.1Y-117.602
X177.1Y-143.002
X178.181Y-158.623
X179.172Y-119.736
X179.832Y-116.967
X180.289Y-99.974
X180.289Y-106.426
X180.289Y-125.679
X180.34Y-144.831
X181.153Y-138.532
X181.61Y-117.602
X181.864Y-161.29
X182.88Y-156.21
X183.515Y-117.983
X183.896Y-95.25
X183.896Y-97.663
X184.023Y-153.924
X184.404Y-134.366
X184.404Y-137.414
X184.531Y-98.806
X184.531Y-118.364
X184.531Y-139.446
X186.436Y-147.066
X186.944Y-157.734
X187.198Y-127.381
X187.706Y-114.427
X188.341Y-108.331
X189.332Y-159.156
X189.332Y-165.76
X192.405Y-99.695
X192.405Y-119.507
X192.405Y-138.303
X192.532Y-158.75
X193.294Y-157.734
X194.691Y-149.479
X194.818Y-140.208
X194.945Y-120.904
X195.326Y-101.854
X195.834Y-111.252
X195.834Y-118.364
X195.961Y-98.933
X196.088Y-130.302
X196.088Y-137.501
X196.596Y-167.894
X196.85Y-141.058
X196.85Y-173.736
X197.231Y-149.352
X197.992Y-99.83
X197.993Y-119.761
X198.12Y-172.974
X198.628Y-114.808
X199.39Y-135.23
X199.492Y-103.53
X199.492Y-122.631
X199.492Y-141.935
X199.644Y-96.876
X199.644Y-149.352
X200.152Y-108.585
X200.152Y-110.617
X200.152Y-115.57
X200.279Y-154.813
X200.711Y-116.992
X201.041Y-93.559
X201.295Y-159.639
X201.93Y-115.024
X202.184Y-173.736
X202.311Y-95.721
X202.311Y-131.826
X202.311Y-134.493
X202.438Y-111.252
X202.438Y-151.765
X202.438Y-156.718
X203.25Y-161.29
X203.327Y-99.314
X203.581Y-115.189
X203.581Y-151.765
X203.581Y-153.797
X203.708Y-96.012
X203.708Y-112.014
X203.708Y-134.62
X204.978Y-103.505
X204.978Y-155.702
X204.978Y-170.434
X206.756Y-174.498
X207.01Y-154.852
X207.264Y-105.537
X207.772Y-124.714
X208.026Y-172.847
X208.407Y-143.637
X210.21Y-166.167
X210.515Y-159.614
X211.455Y-116.459
X211.455Y-152.273
X211.582Y-97.184
X211.582Y-111.76
X211.582Y-136.017
X211.836Y-113.03
X212.217Y-153.185
X212.217Y-158.623
X213.36Y-112.014
X213.36Y-133.731
X214.058Y-115.252
X214.122Y-159.512
X214.249Y-137.287
X214.249Y-146.939
X214.775Y-111.506
X215.138Y-127.635
X215.138Y-136.271
X215.646Y-96.266
X216.154Y-113.284
X216.154Y-117.856
X216.218Y-168.974
X218.694Y-99.873
X218.694Y-119.024
X218.694Y-125.679
X218.694Y-144.78
X218.745Y-106.477
X218.745Y-138.176
X219.456Y-156.718
X220.726Y-95.504
X220.98Y-137.414
X221.234Y-117.983
X221.615Y-99.06
X221.742Y-96.52
X222.631Y-158.242
X222.631Y-160.909
X222.758Y-118.11
X222.758Y-134.62
X222.758Y-137.795
X222.885Y-99.06
X222.885Y-102.108
X222.885Y-121.92
X224.282Y-156.718
X224.409Y-159.893
X224.79Y-171.577
X226.441Y-154.686
X226.441Y-156.21
X227.965Y-146.939
X228.092Y-127.381
X228.854Y-108.585
X229.489Y-173.228
X230.632Y-100.076
X230.759Y-98.933
X230.759Y-119.253
X230.759Y-138.811
X230.937Y-168.453
X231.597Y-161.747
X232.918Y-159.004
X233.045Y-110.871
X233.172Y-121.158
X233.426Y-140.462
X233.426Y-150.241
X233.68Y-116.49
X233.975Y-154.813
X234.061Y-113.665
X234.061Y-159.385
X234.569Y-130.302
X234.696Y-116.535
X234.823Y-139.446
X235.204Y-161.163
X235.327Y-113.669
X235.436Y-117.666
X235.458Y-114.808
X235.458Y-153.416
X235.712Y-163.957
X236.22Y-161.925
X236.576Y-101.448
X236.728Y-94.488
X237.363Y-116.459
X237.363Y-134.112
X237.795Y-106.528
X237.795Y-125.933
X237.795Y-138.074
X237.795Y-144.882
X238.438Y-116.781
X239.014Y-98.171
X239.37Y-119.685
X239.903Y-172.339
X240.284Y-98.933
X240.665Y-102.012
X240.665Y-135.636
X240.665Y-139.065
X241.173Y-120.993
X241.3Y-99.663
X241.935Y-139.954
X242.062Y-98.171
X242.085Y-102.069
X242.189Y-121.031
X243.586Y-164.465
X246.634Y-163.322
X247.269Y-130.683
X247.523Y-111.252
X247.777Y-149.733
X248.031Y-160.528
X248.031Y-165.1
X248.92Y-156.591
X249.047Y-172.847
X249.936Y-103.251
X249.936Y-122.428
X249.936Y-141.605
X249.936Y-174.244
X250.317Y-102.115
X250.571Y-97.282
X251.587Y-157.48
X252.095Y-172.085
X252.222Y-133.096
X252.349Y-100.965
X252.476Y-157.988
X252.603Y-143.764
X252.73Y-123.825
X252.73Y-147.701
X252.857Y-174.244
X252.984Y-113.284
X253.594Y-178.867
X253.873Y-173.863
X254.0Y-115.824
X254.0Y-119.888
X254.0Y-161.29
X254.127Y-157.48
X254.254Y-98.552
X254.381Y-142.875
X254.508Y-160.274
X254.762Y-116.84
X254.762Y-153.67
X255.016Y-123.698
X255.27Y-132.842
X255.397Y-117.639
X255.397Y-121.666
X255.524Y-138.811
X255.676Y-136.246
X256.54Y-117.639
X257.175Y-164.084
X257.556Y-122.936
X257.81Y-107.95
X257.81Y-109.728
X257.81Y-118.364
X258.318Y-167.132
X259.334Y-135.89
X259.334Y-137.922
X260.147Y-180.645
X260.35Y-153.67
X261.874Y-103.886
X262.09Y-108.932
X262.255Y-105.41
X262.255Y-121.031
X262.687Y-136.652
X264.033Y-109.728
X265.303Y-119.888
X265.303Y-122.301
X265.43Y-171.958
X265.557Y-127.508
X265.938Y-194.564
X266.573Y-123.317
X266.7Y-128.016
X267.208Y-192.151
X267.884Y-185.547
X267.97Y-188.087
X268.478Y-191.897
X268.63Y-137.973
X268.732Y-127.635
X268.732Y-195.631
X269.621Y-155.448
X269.875Y-126.746
X269.875Y-167.767
X270.256Y-177.8
X270.383Y-114.427
X270.764Y-127.635
X271.526Y-178.308
X272.415Y-99.314
X272.542Y-184.658
X272.796Y-129.413
X273.304Y-164.592
X274.574Y-199.39
X275.209Y-182.626
X275.971Y-176.784
X277.114Y-112.776
X279.273Y-190.246
X284.48Y-185.166
T2
X259.336Y-100.012
X259.336Y-102.552
X259.336Y-105.092
X259.336Y-107.632
X259.336Y-110.172
X259.336Y-112.712
X259.336Y-115.252
X259.336Y-117.792
X259.336Y-120.332
X259.336Y-122.872
X259.336Y-125.412
X259.336Y-127.952
X261.722Y-132.334
X264.262Y-132.334
X266.802Y-132.334
X269.342Y-132.334
X271.882Y-132.334
X274.556Y-100.012
X274.556Y-102.552
X274.556Y-105.092
X274.556Y-107.632
X274.556Y-110.172
X274.556Y-112.712
X274.556Y-115.252
X274.556Y-117.792
X274.556Y-120.332
X274.556Y-122.872
X274.556Y-125.412
X274.556Y-127.952
T3
X258.692Y-142.534
X258.692Y-145.034
X258.692Y-147.534
X273.192Y-142.534
X273.192Y-147.534
T4
X276.872Y-166.835
X278.88Y-173.017
T6
X156.337Y-101.981
X158.75Y-160.909
X255.524Y-105.537
X263.906Y-186.309
X266.192Y-158.623
T3
X263.979Y-99.266G85X263.979Y-99.766
G05
X263.979Y-102.266G85X263.979Y-102.766
G05
X263.979Y-106.266G85X263.979Y-106.766
G05
X265.729Y-107.766G85X265.729Y-108.266
G05
X268.179Y-107.766G85X268.179Y-108.266
G05
X269.929Y-99.266G85X269.929Y-99.766
G05
X269.929Y-102.266G85X269.929Y-102.766
G05
X269.929Y-106.266G85X269.929Y-106.766
G05
T5
X265.542Y-139.434G85X266.842Y-139.434
G05
X265.542Y-150.634G85X266.842Y-150.634
G05
T0
M30
