%TF.GenerationSoftware,KiCad,Pcbnew,7.0.7*%
%TF.CreationDate,2023-09-27T23:28:37-04:00*%
%TF.ProjectId,keybear-chocolate,6b657962-6561-4722-9d63-686f636f6c61,v1.0.0*%
%TF.SameCoordinates,Original*%
%TF.FileFunction,Drillmap*%
%TF.FilePolarity,Positive*%
%FSLAX45Y45*%
G04 Gerber Fmt 4.5, Leading zero omitted, Abs format (unit mm)*
G04 Created by KiCad (PCBNEW 7.0.7) date 2023-09-27 23:28:37*
%MOMM*%
%LPD*%
G01*
G04 APERTURE LIST*
%ADD10C,0.150000*%
%ADD11C,0.200000*%
%ADD12C,0.040000*%
%ADD13C,0.081280*%
%ADD14C,0.100000*%
%ADD15C,0.130000*%
%ADD16C,0.410000*%
G04 APERTURE END LIST*
D10*
X27800004Y-9884986D02*
G75*
G03*
X27424734Y-9485751I-400004J-4D01*
G01*
X27495003Y-15269576D02*
G75*
G03*
X27544532Y-15999394I186337J-353944D01*
G01*
X28346420Y-17568271D02*
X28775382Y-17724401D01*
X19689936Y-9141000D02*
G75*
G03*
X19630398Y-9145456I4J-400011D01*
G01*
X29014452Y-18237086D02*
G75*
G03*
X28775382Y-17724401I-375882J136806D01*
G01*
X27544532Y-15999394D02*
X27682299Y-16049537D01*
X28103605Y-17318439D02*
G75*
G03*
X28346420Y-17568271I379625J126049D01*
G01*
X21752339Y-17682171D02*
G75*
G03*
X21707917Y-17678189I-57869J-395779D01*
G01*
X27646714Y-20825392D02*
G75*
G03*
X28159401Y-20586317I136806J375882D01*
G01*
X17745116Y-9429230D02*
X19630398Y-9145456D01*
X27682299Y-16049537D02*
X28103606Y-17318438D01*
X24557609Y-18420581D02*
G75*
G03*
X24604249Y-18441005I183461J355471D01*
G01*
X29014452Y-18237086D02*
X28159401Y-20586317D01*
X25385117Y-18725218D02*
X24604248Y-18441005D01*
X21707917Y-17678189D02*
X18695858Y-17576879D01*
X25988261Y-20060303D02*
G75*
G03*
X26231076Y-20310136I379619J126043D01*
G01*
X27646716Y-20825386D02*
X26231076Y-20310135D01*
X23729587Y-17993243D02*
G75*
G03*
X23604008Y-17952905I-183447J-355457D01*
G01*
X21879324Y-9142881D02*
G75*
G03*
X21840585Y-9141000I-38744J-398129D01*
G01*
X25988262Y-20060303D02*
X25627931Y-18975051D01*
X27586340Y-15221485D02*
G75*
G03*
X27800000Y-14867539I-186340J353945D01*
G01*
X18586796Y-17557883D02*
X14177492Y-16139278D01*
X14230252Y-10051518D02*
X17734906Y-9430902D01*
X27586340Y-15221484D02*
X27495000Y-15269571D01*
X23604008Y-17952905D02*
X21752339Y-17682171D01*
X17745116Y-9429230D02*
G75*
G03*
X17734906Y-9430902I59554J-395640D01*
G01*
X18586796Y-17557884D02*
G75*
G03*
X18695858Y-17576879I122504J380774D01*
G01*
X27800000Y-14867539D02*
X27800000Y-9884986D01*
X13900000Y-15758500D02*
G75*
G03*
X14177492Y-16139278I400000J0D01*
G01*
X25627928Y-18975052D02*
G75*
G03*
X25385117Y-18725218I-379619J-126038D01*
G01*
X24557609Y-18420581D02*
X23729586Y-17993243D01*
X19689936Y-9141000D02*
X21840585Y-9141000D01*
X14230252Y-10051518D02*
G75*
G03*
X13900000Y-10445390I69748J-393872D01*
G01*
X21879324Y-9142880D02*
X27424734Y-9485751D01*
X13900000Y-15758500D02*
X13900000Y-10445390D01*
D11*
D12*
X14153200Y-10622600D02*
X14193200Y-10662600D01*
X14193200Y-10622600D02*
X14153200Y-10662600D01*
X14170000Y-12544400D02*
X14210000Y-12584400D01*
X14210000Y-12544400D02*
X14170000Y-12584400D01*
X14170000Y-14458000D02*
X14210000Y-14498000D01*
X14210000Y-14458000D02*
X14170000Y-14498000D01*
X14178600Y-11308400D02*
X14218600Y-11348400D01*
X14218600Y-11308400D02*
X14178600Y-11348400D01*
X14178600Y-13238800D02*
X14218600Y-13278800D01*
X14218600Y-13238800D02*
X14178600Y-13278800D01*
X14178600Y-15143800D02*
X14218600Y-15183800D01*
X14218600Y-15143800D02*
X14178600Y-15183800D01*
X14204000Y-11740200D02*
X14244000Y-11780200D01*
X14244000Y-11740200D02*
X14204000Y-11780200D01*
X14204000Y-13670600D02*
X14244000Y-13710600D01*
X14244000Y-13670600D02*
X14204000Y-13710600D01*
X14254800Y-15575600D02*
X14294800Y-15615600D01*
X14294800Y-15575600D02*
X14254800Y-15615600D01*
X14432600Y-14207750D02*
X14472600Y-14247750D01*
X14472600Y-14207750D02*
X14432600Y-14247750D01*
X14432600Y-14407200D02*
X14472600Y-14447200D01*
X14472600Y-14407200D02*
X14432600Y-14447200D01*
X14483400Y-10334250D02*
X14523400Y-10374250D01*
X14523400Y-10334250D02*
X14483400Y-10374250D01*
X14483400Y-10571800D02*
X14523400Y-10611800D01*
X14523400Y-10571800D02*
X14483400Y-10611800D01*
X14483400Y-12045000D02*
X14523400Y-12085000D01*
X14523400Y-12045000D02*
X14483400Y-12085000D01*
X14483400Y-12502200D02*
X14523400Y-12542200D01*
X14523400Y-12502200D02*
X14483400Y-12542200D01*
X14585000Y-10571800D02*
X14625000Y-10611800D01*
X14625000Y-10571800D02*
X14585000Y-10611800D01*
X14585000Y-12476800D02*
X14625000Y-12516800D01*
X14625000Y-12476800D02*
X14585000Y-12516800D01*
X14585000Y-14407200D02*
X14625000Y-14447200D01*
X14625000Y-14407200D02*
X14585000Y-14447200D01*
X15093000Y-15347000D02*
X15133000Y-15387000D01*
X15133000Y-15347000D02*
X15093000Y-15387000D01*
X15169200Y-13442000D02*
X15209200Y-13482000D01*
X15209200Y-13442000D02*
X15169200Y-13482000D01*
X15245400Y-11537000D02*
X15285400Y-11577000D01*
X15285400Y-11537000D02*
X15245400Y-11577000D01*
X15372400Y-10698800D02*
X15412400Y-10738800D01*
X15412400Y-10698800D02*
X15372400Y-10738800D01*
X15372400Y-12603800D02*
X15412400Y-12643800D01*
X15412400Y-12603800D02*
X15372400Y-12643800D01*
X15372400Y-14508800D02*
X15412400Y-14548800D01*
X15412400Y-14508800D02*
X15372400Y-14548800D01*
X15651800Y-10863900D02*
X15691800Y-10903900D01*
X15691800Y-10863900D02*
X15651800Y-10903900D01*
X15651800Y-12857800D02*
X15691800Y-12897800D01*
X15691800Y-12857800D02*
X15651800Y-12897800D01*
X15651800Y-14813600D02*
X15691800Y-14853600D01*
X15691800Y-14813600D02*
X15651800Y-14853600D01*
X15753400Y-13950000D02*
X15793400Y-13990000D01*
X15793400Y-13950000D02*
X15753400Y-13990000D01*
X15753400Y-14508800D02*
X15793400Y-14548800D01*
X15793400Y-14508800D02*
X15753400Y-14548800D01*
X15770000Y-11740200D02*
X15810000Y-11780200D01*
X15810000Y-11740200D02*
X15770000Y-11780200D01*
X15778800Y-12375200D02*
X15818800Y-12415200D01*
X15818800Y-12375200D02*
X15778800Y-12415200D01*
X15867700Y-10743800D02*
X15907700Y-10783800D01*
X15907700Y-10743800D02*
X15867700Y-10783800D01*
X15893100Y-10550150D02*
X15933100Y-10590150D01*
X15933100Y-10550150D02*
X15893100Y-10590150D01*
X15980654Y-10724007D02*
X16020654Y-10764007D01*
X16020654Y-10724007D02*
X15980654Y-10764007D01*
X16000100Y-10550150D02*
X16040100Y-10590150D01*
X16040100Y-10550150D02*
X16000100Y-10590150D01*
X16007400Y-12273600D02*
X16047400Y-12313600D01*
X16047400Y-12273600D02*
X16007400Y-12313600D01*
X16032800Y-14178600D02*
X16072800Y-14218600D01*
X16072800Y-14178600D02*
X16032800Y-14218600D01*
X16063280Y-12578400D02*
X16103280Y-12618400D01*
X16103280Y-12578400D02*
X16063280Y-12618400D01*
X16088680Y-13218480D02*
X16128680Y-13258480D01*
X16128680Y-13218480D02*
X16088680Y-13258480D01*
X16088680Y-14503720D02*
X16128680Y-14543720D01*
X16128680Y-14503720D02*
X16088680Y-14543720D01*
X16093760Y-15143800D02*
X16133760Y-15183800D01*
X16133760Y-15143800D02*
X16093760Y-15183800D01*
X16096300Y-10258050D02*
X16136300Y-10298050D01*
X16136300Y-10258050D02*
X16096300Y-10298050D01*
X16100050Y-10550150D02*
X16140050Y-10590150D01*
X16140050Y-10550150D02*
X16100050Y-10590150D01*
X16109000Y-15575600D02*
X16149000Y-15615600D01*
X16149000Y-15575600D02*
X16109000Y-15615600D01*
X16214350Y-12273600D02*
X16254350Y-12313600D01*
X16254350Y-12273600D02*
X16214350Y-12313600D01*
X16363000Y-10582500D02*
X16403000Y-10622500D01*
X16403000Y-10582500D02*
X16363000Y-10622500D01*
X16363000Y-12045000D02*
X16403000Y-12085000D01*
X16403000Y-12045000D02*
X16363000Y-12085000D01*
X16363000Y-12197400D02*
X16403000Y-12237400D01*
X16403000Y-12197400D02*
X16363000Y-12237400D01*
X16363000Y-12349800D02*
X16403000Y-12389800D01*
X16403000Y-12349800D02*
X16363000Y-12389800D01*
X16388400Y-14153200D02*
X16428400Y-14193200D01*
X16428400Y-14153200D02*
X16388400Y-14193200D01*
X16413800Y-9759000D02*
X16453800Y-9799000D01*
X16453800Y-9759000D02*
X16413800Y-9799000D01*
X16413800Y-10292400D02*
X16453800Y-10332400D01*
X16453800Y-10292400D02*
X16413800Y-10332400D01*
X16490000Y-14381800D02*
X16530000Y-14421800D01*
X16530000Y-14381800D02*
X16490000Y-14421800D01*
X16502700Y-14115100D02*
X16542700Y-14155100D01*
X16542700Y-14115100D02*
X16502700Y-14155100D01*
X16507780Y-12434750D02*
X16547780Y-12474750D01*
X16547780Y-12434750D02*
X16507780Y-12474750D01*
X16515400Y-10165400D02*
X16555400Y-10205400D01*
X16555400Y-10165400D02*
X16515400Y-10205400D01*
X16515400Y-10571800D02*
X16555400Y-10611800D01*
X16555400Y-10571800D02*
X16515400Y-10611800D01*
X16642400Y-14280200D02*
X16682400Y-14320200D01*
X16682400Y-14280200D02*
X16642400Y-14320200D01*
X16769400Y-11486200D02*
X16809400Y-11526200D01*
X16809400Y-11486200D02*
X16769400Y-11526200D01*
X16998000Y-15321600D02*
X17038000Y-15361600D01*
X17038000Y-15321600D02*
X16998000Y-15361600D01*
X17074200Y-13467400D02*
X17114200Y-13507400D01*
X17114200Y-13467400D02*
X17074200Y-13507400D01*
X17290100Y-14013500D02*
X17330100Y-14053500D01*
X17330100Y-14013500D02*
X17290100Y-14053500D01*
X17302800Y-10127300D02*
X17342800Y-10167300D01*
X17342800Y-10127300D02*
X17302800Y-10167300D01*
X17302800Y-10597200D02*
X17342800Y-10637200D01*
X17342800Y-10597200D02*
X17302800Y-10637200D01*
X17302800Y-12603800D02*
X17342800Y-12643800D01*
X17342800Y-12603800D02*
X17302800Y-12643800D01*
X17328200Y-14661200D02*
X17368200Y-14701200D01*
X17368200Y-14661200D02*
X17328200Y-14701200D01*
X17379000Y-14356400D02*
X17419000Y-14396400D01*
X17419000Y-14356400D02*
X17379000Y-14396400D01*
X17391700Y-14089700D02*
X17431700Y-14129700D01*
X17431700Y-14089700D02*
X17391700Y-14129700D01*
X17404400Y-10216200D02*
X17444400Y-10256200D01*
X17444400Y-10216200D02*
X17404400Y-10256200D01*
X17484350Y-14331000D02*
X17524350Y-14371000D01*
X17524350Y-14331000D02*
X17484350Y-14371000D01*
X17544100Y-10089200D02*
X17584100Y-10129200D01*
X17584100Y-10089200D02*
X17544100Y-10129200D01*
X17582200Y-10851200D02*
X17622200Y-10891200D01*
X17622200Y-10851200D02*
X17582200Y-10891200D01*
X17594900Y-13213400D02*
X17634900Y-13253400D01*
X17634900Y-13213400D02*
X17594900Y-13253400D01*
X17607600Y-12756200D02*
X17647600Y-12796200D01*
X17647600Y-12756200D02*
X17607600Y-12796200D01*
X17683800Y-12273600D02*
X17723800Y-12313600D01*
X17723800Y-12273600D02*
X17683800Y-12313600D01*
X17683800Y-13645200D02*
X17723800Y-13685200D01*
X17723800Y-13645200D02*
X17683800Y-13685200D01*
X17690000Y-11740200D02*
X17730000Y-11780200D01*
X17730000Y-11740200D02*
X17690000Y-11780200D01*
X17690000Y-14280200D02*
X17730000Y-14320200D01*
X17730000Y-14280200D02*
X17690000Y-14320200D01*
X17798100Y-15842300D02*
X17838100Y-15882300D01*
X17838100Y-15842300D02*
X17798100Y-15882300D01*
X17897160Y-11953560D02*
X17937160Y-11993560D01*
X17937160Y-11953560D02*
X17897160Y-11993560D01*
X17963200Y-11676700D02*
X18003200Y-11716700D01*
X18003200Y-11676700D02*
X17963200Y-11716700D01*
X18008920Y-9977440D02*
X18048920Y-10017440D01*
X18048920Y-9977440D02*
X18008920Y-10017440D01*
X18008920Y-10622600D02*
X18048920Y-10662600D01*
X18048920Y-10622600D02*
X18008920Y-10662600D01*
X18008920Y-12547920D02*
X18048920Y-12587920D01*
X18048920Y-12547920D02*
X18008920Y-12587920D01*
X18014000Y-14463080D02*
X18054000Y-14503080D01*
X18054000Y-14463080D02*
X18014000Y-14503080D01*
X18095280Y-13833160D02*
X18135280Y-13873160D01*
X18135280Y-13833160D02*
X18095280Y-13873160D01*
X18141000Y-11740200D02*
X18181000Y-11780200D01*
X18181000Y-11740200D02*
X18141000Y-11780200D01*
X18166400Y-16109000D02*
X18206400Y-16149000D01*
X18206400Y-16109000D02*
X18166400Y-16149000D01*
X18268000Y-15601000D02*
X18308000Y-15641000D01*
X18308000Y-15601000D02*
X18268000Y-15641000D01*
X18331500Y-11778300D02*
X18371500Y-11818300D01*
X18371500Y-11778300D02*
X18331500Y-11818300D01*
X18369600Y-9505000D02*
X18409600Y-9545000D01*
X18409600Y-9505000D02*
X18369600Y-9545000D01*
X18369600Y-9746300D02*
X18409600Y-9786300D01*
X18409600Y-9746300D02*
X18369600Y-9786300D01*
X18382300Y-15372400D02*
X18422300Y-15412400D01*
X18422300Y-15372400D02*
X18382300Y-15412400D01*
X18420400Y-13416600D02*
X18460400Y-13456600D01*
X18460400Y-13416600D02*
X18420400Y-13456600D01*
X18420400Y-13721400D02*
X18460400Y-13761400D01*
X18460400Y-13721400D02*
X18420400Y-13761400D01*
X18433100Y-9860600D02*
X18473100Y-9900600D01*
X18473100Y-9860600D02*
X18433100Y-9900600D01*
X18433100Y-11816400D02*
X18473100Y-11856400D01*
X18473100Y-11816400D02*
X18433100Y-11856400D01*
X18433100Y-13924600D02*
X18473100Y-13964600D01*
X18473100Y-13924600D02*
X18433100Y-13964600D01*
X18623600Y-14686600D02*
X18663600Y-14726600D01*
X18663600Y-14686600D02*
X18623600Y-14726600D01*
X18674400Y-15753400D02*
X18714400Y-15793400D01*
X18714400Y-15753400D02*
X18674400Y-15793400D01*
X18699800Y-12718100D02*
X18739800Y-12758100D01*
X18739800Y-12718100D02*
X18699800Y-12758100D01*
X18750600Y-11422700D02*
X18790600Y-11462700D01*
X18790600Y-11422700D02*
X18750600Y-11462700D01*
X18814100Y-10813100D02*
X18854100Y-10853100D01*
X18854100Y-10813100D02*
X18814100Y-10853100D01*
X18913160Y-15895640D02*
X18953160Y-15935640D01*
X18953160Y-15895640D02*
X18913160Y-15935640D01*
X18913160Y-16556040D02*
X18953160Y-16596040D01*
X18953160Y-16556040D02*
X18913160Y-16596040D01*
X19220500Y-9949500D02*
X19260500Y-9989500D01*
X19260500Y-9949500D02*
X19220500Y-9989500D01*
X19220500Y-11930700D02*
X19260500Y-11970700D01*
X19260500Y-11930700D02*
X19220500Y-11970700D01*
X19220500Y-13810300D02*
X19260500Y-13850300D01*
X19260500Y-13810300D02*
X19220500Y-13850300D01*
X19233200Y-15855000D02*
X19273200Y-15895000D01*
X19273200Y-15855000D02*
X19233200Y-15895000D01*
X19309400Y-15753400D02*
X19349400Y-15793400D01*
X19349400Y-15753400D02*
X19309400Y-15793400D01*
X19449100Y-14927900D02*
X19489100Y-14967900D01*
X19489100Y-14927900D02*
X19449100Y-14967900D01*
X19461800Y-14000800D02*
X19501800Y-14040800D01*
X19501800Y-14000800D02*
X19461800Y-14040800D01*
X19474500Y-12070400D02*
X19514500Y-12110400D01*
X19514500Y-12070400D02*
X19474500Y-12110400D01*
X19512600Y-10165400D02*
X19552600Y-10205400D01*
X19552600Y-10165400D02*
X19512600Y-10205400D01*
X19563400Y-11105200D02*
X19603400Y-11145200D01*
X19603400Y-11105200D02*
X19563400Y-11145200D01*
X19563400Y-11816400D02*
X19603400Y-11856400D01*
X19603400Y-11816400D02*
X19563400Y-11856400D01*
X19576100Y-9873300D02*
X19616100Y-9913300D01*
X19616100Y-9873300D02*
X19576100Y-9913300D01*
X19588800Y-13010200D02*
X19628800Y-13050200D01*
X19628800Y-13010200D02*
X19588800Y-13050200D01*
X19588800Y-13730150D02*
X19628800Y-13770150D01*
X19628800Y-13730150D02*
X19588800Y-13770150D01*
X19639600Y-16769400D02*
X19679600Y-16809400D01*
X19679600Y-16769400D02*
X19639600Y-16809400D01*
X19665000Y-14085750D02*
X19705000Y-14125750D01*
X19705000Y-14085750D02*
X19665000Y-14125750D01*
X19665000Y-17353600D02*
X19705000Y-17393600D01*
X19705000Y-17353600D02*
X19665000Y-17393600D01*
X19703100Y-14915200D02*
X19743100Y-14955200D01*
X19743100Y-14915200D02*
X19703100Y-14955200D01*
X19779219Y-9962979D02*
X19819219Y-10002979D01*
X19819219Y-9962979D02*
X19779219Y-10002979D01*
X19779300Y-11956100D02*
X19819300Y-11996100D01*
X19819300Y-11956100D02*
X19779300Y-11996100D01*
X19792000Y-17277400D02*
X19832000Y-17317400D01*
X19832000Y-17277400D02*
X19792000Y-17317400D01*
X19842800Y-11460800D02*
X19882800Y-11500800D01*
X19882800Y-11460800D02*
X19842800Y-11500800D01*
X19919000Y-13502960D02*
X19959000Y-13542960D01*
X19959000Y-13502960D02*
X19919000Y-13542960D01*
X19929160Y-10333040D02*
X19969160Y-10373040D01*
X19969160Y-10333040D02*
X19929160Y-10373040D01*
X19929160Y-12243120D02*
X19969160Y-12283120D01*
X19969160Y-12243120D02*
X19929160Y-12283120D01*
X19929160Y-14173520D02*
X19969160Y-14213520D01*
X19969160Y-14173520D02*
X19929160Y-14213520D01*
X19944400Y-9667560D02*
X19984400Y-9707560D01*
X19984400Y-9667560D02*
X19944400Y-9707560D01*
X19944400Y-14915200D02*
X19984400Y-14955200D01*
X19984400Y-14915200D02*
X19944400Y-14955200D01*
X19995200Y-10838500D02*
X20035200Y-10878500D01*
X20035200Y-10838500D02*
X19995200Y-10878500D01*
X19995200Y-11041700D02*
X20035200Y-11081700D01*
X20035200Y-11041700D02*
X19995200Y-11081700D01*
X19995200Y-11537000D02*
X20035200Y-11577000D01*
X20035200Y-11537000D02*
X19995200Y-11577000D01*
X20007900Y-15461300D02*
X20047900Y-15501300D01*
X20047900Y-15461300D02*
X20007900Y-15501300D01*
X20051080Y-11679240D02*
X20091080Y-11719240D01*
X20091080Y-11679240D02*
X20051080Y-11719240D01*
X20084100Y-9335950D02*
X20124100Y-9375950D01*
X20124100Y-9335950D02*
X20084100Y-9375950D01*
X20109500Y-15943900D02*
X20149500Y-15983900D01*
X20149500Y-15943900D02*
X20109500Y-15983900D01*
X20173000Y-11482450D02*
X20213000Y-11522450D01*
X20213000Y-11482450D02*
X20173000Y-11522450D01*
X20198400Y-17353600D02*
X20238400Y-17393600D01*
X20238400Y-17353600D02*
X20198400Y-17393600D01*
X20211100Y-9552050D02*
X20251100Y-9592050D01*
X20251100Y-9552050D02*
X20211100Y-9592050D01*
X20211100Y-13162600D02*
X20251100Y-13202600D01*
X20251100Y-13162600D02*
X20211100Y-13202600D01*
X20211100Y-13429300D02*
X20251100Y-13469300D01*
X20251100Y-13429300D02*
X20211100Y-13469300D01*
X20223800Y-11105200D02*
X20263800Y-11145200D01*
X20263800Y-11105200D02*
X20223800Y-11145200D01*
X20223800Y-15156500D02*
X20263800Y-15196500D01*
X20263800Y-15156500D02*
X20223800Y-15196500D01*
X20223800Y-15651800D02*
X20263800Y-15691800D01*
X20263800Y-15651800D02*
X20223800Y-15691800D01*
X20305000Y-16109000D02*
X20345000Y-16149000D01*
X20345000Y-16109000D02*
X20305000Y-16149000D01*
X20312700Y-9911400D02*
X20352700Y-9951400D01*
X20352700Y-9911400D02*
X20312700Y-9951400D01*
X20338100Y-11498900D02*
X20378100Y-11538900D01*
X20378100Y-11498900D02*
X20338100Y-11538900D01*
X20338100Y-15156500D02*
X20378100Y-15196500D01*
X20378100Y-15156500D02*
X20338100Y-15196500D01*
X20338100Y-15359700D02*
X20378100Y-15399700D01*
X20378100Y-15359700D02*
X20338100Y-15399700D01*
X20350800Y-9581200D02*
X20390800Y-9621200D01*
X20390800Y-9581200D02*
X20350800Y-9621200D01*
X20350800Y-11181400D02*
X20390800Y-11221400D01*
X20390800Y-11181400D02*
X20350800Y-11221400D01*
X20350800Y-13442000D02*
X20390800Y-13482000D01*
X20390800Y-13442000D02*
X20350800Y-13482000D01*
X20477800Y-10330500D02*
X20517800Y-10370500D01*
X20517800Y-10330500D02*
X20477800Y-10370500D01*
X20477800Y-15550200D02*
X20517800Y-15590200D01*
X20517800Y-15550200D02*
X20477800Y-15590200D01*
X20477800Y-17023400D02*
X20517800Y-17063400D01*
X20517800Y-17023400D02*
X20477800Y-17063400D01*
X20655600Y-17429800D02*
X20695600Y-17469800D01*
X20695600Y-17429800D02*
X20655600Y-17469800D01*
X20681000Y-15465250D02*
X20721000Y-15505250D01*
X20721000Y-15465250D02*
X20681000Y-15505250D01*
X20706400Y-10533700D02*
X20746400Y-10573700D01*
X20746400Y-10533700D02*
X20706400Y-10573700D01*
X20757200Y-12451400D02*
X20797200Y-12491400D01*
X20797200Y-12451400D02*
X20757200Y-12491400D01*
X20782600Y-17264700D02*
X20822600Y-17304700D01*
X20822600Y-17264700D02*
X20782600Y-17304700D01*
X20820700Y-14343700D02*
X20860700Y-14383700D01*
X20860700Y-14343700D02*
X20820700Y-14383700D01*
X21001040Y-16596680D02*
X21041040Y-16636680D01*
X21041040Y-16596680D02*
X21001040Y-16636680D01*
X21031520Y-15941360D02*
X21071520Y-15981360D01*
X21071520Y-15941360D02*
X21031520Y-15981360D01*
X21125500Y-11625900D02*
X21165500Y-11665900D01*
X21165500Y-11625900D02*
X21125500Y-11665900D01*
X21125500Y-15207300D02*
X21165500Y-15247300D01*
X21165500Y-15207300D02*
X21125500Y-15247300D01*
X21138200Y-9698450D02*
X21178200Y-9738450D01*
X21178200Y-9698450D02*
X21138200Y-9738450D01*
X21138200Y-11156000D02*
X21178200Y-11196000D01*
X21178200Y-11156000D02*
X21138200Y-11196000D01*
X21138200Y-13581700D02*
X21178200Y-13621700D01*
X21178200Y-13581700D02*
X21138200Y-13621700D01*
X21163600Y-11283000D02*
X21203600Y-11323000D01*
X21203600Y-11283000D02*
X21163600Y-11323000D01*
X21201700Y-15298500D02*
X21241700Y-15338500D01*
X21241700Y-15298500D02*
X21201700Y-15338500D01*
X21201700Y-15842300D02*
X21241700Y-15882300D01*
X21241700Y-15842300D02*
X21201700Y-15882300D01*
X21316000Y-11181400D02*
X21356000Y-11221400D01*
X21356000Y-11181400D02*
X21316000Y-11221400D01*
X21316000Y-13353100D02*
X21356000Y-13393100D01*
X21356000Y-13353100D02*
X21316000Y-13393100D01*
X21385850Y-11505250D02*
X21425850Y-11545250D01*
X21425850Y-11505250D02*
X21385850Y-11545250D01*
X21392200Y-15931200D02*
X21432200Y-15971200D01*
X21432200Y-15931200D02*
X21392200Y-15971200D01*
X21404900Y-13708700D02*
X21444900Y-13748700D01*
X21444900Y-13708700D02*
X21404900Y-13748700D01*
X21404900Y-14673900D02*
X21444900Y-14713900D01*
X21444900Y-14673900D02*
X21404900Y-14713900D01*
X21457550Y-11130600D02*
X21497550Y-11170600D01*
X21497550Y-11130600D02*
X21457550Y-11170600D01*
X21493800Y-12743500D02*
X21533800Y-12783500D01*
X21533800Y-12743500D02*
X21493800Y-12783500D01*
X21493800Y-13607100D02*
X21533800Y-13647100D01*
X21533800Y-13607100D02*
X21493800Y-13647100D01*
X21544600Y-9606600D02*
X21584600Y-9646600D01*
X21584600Y-9606600D02*
X21544600Y-9646600D01*
X21595400Y-11308400D02*
X21635400Y-11348400D01*
X21635400Y-11308400D02*
X21595400Y-11348400D01*
X21595400Y-11765600D02*
X21635400Y-11805600D01*
X21635400Y-11765600D02*
X21595400Y-11805600D01*
X21601750Y-16877350D02*
X21641750Y-16917350D01*
X21641750Y-16877350D02*
X21601750Y-16917350D01*
X21849400Y-9967280D02*
X21889400Y-10007280D01*
X21889400Y-9967280D02*
X21849400Y-10007280D01*
X21849400Y-11882440D02*
X21889400Y-11922440D01*
X21889400Y-11882440D02*
X21849400Y-11922440D01*
X21849400Y-12547920D02*
X21889400Y-12587920D01*
X21889400Y-12547920D02*
X21849400Y-12587920D01*
X21849400Y-14458000D02*
X21889400Y-14498000D01*
X21889400Y-14458000D02*
X21849400Y-14498000D01*
X21854480Y-10627680D02*
X21894480Y-10667680D01*
X21894480Y-10627680D02*
X21854480Y-10667680D01*
X21854480Y-13797600D02*
X21894480Y-13837600D01*
X21894480Y-13797600D02*
X21854480Y-13837600D01*
X21925600Y-15651800D02*
X21965600Y-15691800D01*
X21965600Y-15651800D02*
X21925600Y-15691800D01*
X22052600Y-9530400D02*
X22092600Y-9570400D01*
X22092600Y-9530400D02*
X22052600Y-9570400D01*
X22078000Y-13721400D02*
X22118000Y-13761400D01*
X22118000Y-13721400D02*
X22078000Y-13761400D01*
X22103400Y-11778300D02*
X22143400Y-11818300D01*
X22143400Y-11778300D02*
X22103400Y-11818300D01*
X22141500Y-9886000D02*
X22181500Y-9926000D01*
X22181500Y-9886000D02*
X22141500Y-9926000D01*
X22154200Y-9632000D02*
X22194200Y-9672000D01*
X22194200Y-9632000D02*
X22154200Y-9672000D01*
X22243100Y-15804200D02*
X22283100Y-15844200D01*
X22283100Y-15804200D02*
X22243100Y-15844200D01*
X22243100Y-16070900D02*
X22283100Y-16110900D01*
X22283100Y-16070900D02*
X22243100Y-16110900D01*
X22255800Y-11791000D02*
X22295800Y-11831000D01*
X22295800Y-11791000D02*
X22255800Y-11831000D01*
X22255800Y-13442000D02*
X22295800Y-13482000D01*
X22295800Y-13442000D02*
X22255800Y-13482000D01*
X22255800Y-13759500D02*
X22295800Y-13799500D01*
X22295800Y-13759500D02*
X22255800Y-13799500D01*
X22268500Y-9886000D02*
X22308500Y-9926000D01*
X22308500Y-9886000D02*
X22268500Y-9926000D01*
X22268500Y-10190800D02*
X22308500Y-10230800D01*
X22308500Y-10190800D02*
X22268500Y-10230800D01*
X22268500Y-12172000D02*
X22308500Y-12212000D01*
X22308500Y-12172000D02*
X22268500Y-12212000D01*
X22408200Y-15651800D02*
X22448200Y-15691800D01*
X22448200Y-15651800D02*
X22408200Y-15691800D01*
X22420900Y-15969300D02*
X22460900Y-16009300D01*
X22460900Y-15969300D02*
X22420900Y-16009300D01*
X22459000Y-17137700D02*
X22499000Y-17177700D01*
X22499000Y-17137700D02*
X22459000Y-17177700D01*
X22624100Y-15448600D02*
X22664100Y-15488600D01*
X22664100Y-15448600D02*
X22624100Y-15488600D01*
X22624100Y-15601000D02*
X22664100Y-15641000D01*
X22664100Y-15601000D02*
X22624100Y-15641000D01*
X22776500Y-14673900D02*
X22816500Y-14713900D01*
X22816500Y-14673900D02*
X22776500Y-14713900D01*
X22789200Y-12718100D02*
X22829200Y-12758100D01*
X22829200Y-12718100D02*
X22789200Y-12758100D01*
X22865400Y-10838500D02*
X22905400Y-10878500D01*
X22905400Y-10838500D02*
X22865400Y-10878500D01*
X22928900Y-17302800D02*
X22968900Y-17342800D01*
X22968900Y-17302800D02*
X22928900Y-17342800D01*
X23043200Y-9987600D02*
X23083200Y-10027600D01*
X23083200Y-9987600D02*
X23043200Y-10027600D01*
X23055900Y-9873300D02*
X23095900Y-9913300D01*
X23095900Y-9873300D02*
X23055900Y-9913300D01*
X23055900Y-11905300D02*
X23095900Y-11945300D01*
X23095900Y-11905300D02*
X23055900Y-11945300D01*
X23055900Y-13861100D02*
X23095900Y-13901100D01*
X23095900Y-13861100D02*
X23055900Y-13901100D01*
X23073680Y-16825280D02*
X23113680Y-16865280D01*
X23113680Y-16825280D02*
X23073680Y-16865280D01*
X23139720Y-16154720D02*
X23179720Y-16194720D01*
X23179720Y-16154720D02*
X23139720Y-16194720D01*
X23271800Y-15880400D02*
X23311800Y-15920400D01*
X23311800Y-15880400D02*
X23271800Y-15920400D01*
X23284500Y-11067100D02*
X23324500Y-11107100D01*
X23324500Y-11067100D02*
X23284500Y-11107100D01*
X23297200Y-12095800D02*
X23337200Y-12135800D01*
X23337200Y-12095800D02*
X23297200Y-12135800D01*
X23322600Y-14026200D02*
X23362600Y-14066200D01*
X23362600Y-14026200D02*
X23322600Y-14066200D01*
X23322600Y-15004100D02*
X23362600Y-15044100D01*
X23362600Y-15004100D02*
X23322600Y-15044100D01*
X23348000Y-11629050D02*
X23388000Y-11669050D01*
X23388000Y-11629050D02*
X23348000Y-11669050D01*
X23377550Y-15461300D02*
X23417550Y-15501300D01*
X23417550Y-15461300D02*
X23377550Y-15501300D01*
X23386100Y-11346500D02*
X23426100Y-11386500D01*
X23426100Y-11346500D02*
X23386100Y-11386500D01*
X23386100Y-15918500D02*
X23426100Y-15958500D01*
X23426100Y-15918500D02*
X23386100Y-15958500D01*
X23436900Y-13010200D02*
X23476900Y-13050200D01*
X23476900Y-13010200D02*
X23436900Y-13050200D01*
X23449600Y-11633520D02*
X23489600Y-11673520D01*
X23489600Y-11633520D02*
X23449600Y-11673520D01*
X23462300Y-13924600D02*
X23502300Y-13964600D01*
X23502300Y-13924600D02*
X23462300Y-13964600D01*
X23500400Y-16096300D02*
X23540400Y-16136300D01*
X23540400Y-16096300D02*
X23500400Y-16136300D01*
X23512670Y-11346930D02*
X23552670Y-11386930D01*
X23552670Y-11346930D02*
X23512670Y-11386930D01*
X23523634Y-11746566D02*
X23563634Y-11786566D01*
X23563634Y-11746566D02*
X23523634Y-11786566D01*
X23525800Y-11460800D02*
X23565800Y-11500800D01*
X23565800Y-11460800D02*
X23525800Y-11500800D01*
X23525800Y-15321600D02*
X23565800Y-15361600D01*
X23565800Y-15321600D02*
X23525800Y-15361600D01*
X23551200Y-16375700D02*
X23591200Y-16415700D01*
X23591200Y-16375700D02*
X23551200Y-16415700D01*
X23602000Y-16172500D02*
X23642000Y-16212500D01*
X23642000Y-16172500D02*
X23602000Y-16212500D01*
X23637560Y-10124760D02*
X23677560Y-10164760D01*
X23677560Y-10124760D02*
X23637560Y-10164760D01*
X23652800Y-9428800D02*
X23692800Y-9468800D01*
X23692800Y-9428800D02*
X23652800Y-9468800D01*
X23716300Y-11625900D02*
X23756300Y-11665900D01*
X23756300Y-11625900D02*
X23716300Y-11665900D01*
X23716300Y-13391200D02*
X23756300Y-13431200D01*
X23756300Y-13391200D02*
X23716300Y-13431200D01*
X23759480Y-10632760D02*
X23799480Y-10672760D01*
X23799480Y-10632760D02*
X23759480Y-10672760D01*
X23759480Y-12573320D02*
X23799480Y-12613320D01*
X23799480Y-12573320D02*
X23759480Y-12613320D01*
X23759480Y-13787440D02*
X23799480Y-13827440D01*
X23799480Y-13787440D02*
X23759480Y-13827440D01*
X23759480Y-14468160D02*
X23799480Y-14508160D01*
X23799480Y-14468160D02*
X23759480Y-14508160D01*
X23823820Y-11658080D02*
X23863820Y-11698080D01*
X23863820Y-11658080D02*
X23823820Y-11698080D01*
X23881400Y-9797100D02*
X23921400Y-9837100D01*
X23921400Y-9797100D02*
X23881400Y-9837100D01*
X23916960Y-11948480D02*
X23956960Y-11988480D01*
X23956960Y-11948480D02*
X23916960Y-11988480D01*
X23970300Y-17213900D02*
X24010300Y-17253900D01*
X24010300Y-17213900D02*
X23970300Y-17253900D01*
X24008400Y-9873300D02*
X24048400Y-9913300D01*
X24048400Y-9873300D02*
X24008400Y-9913300D01*
X24046500Y-10181250D02*
X24086500Y-10221250D01*
X24086500Y-10181250D02*
X24046500Y-10221250D01*
X24046500Y-13543600D02*
X24086500Y-13583600D01*
X24086500Y-13543600D02*
X24046500Y-13583600D01*
X24046500Y-13886500D02*
X24086500Y-13926500D01*
X24086500Y-13886500D02*
X24046500Y-13926500D01*
X24097300Y-12079350D02*
X24137300Y-12119350D01*
X24137300Y-12079350D02*
X24097300Y-12119350D01*
X24110000Y-9946350D02*
X24150000Y-9986350D01*
X24150000Y-9946350D02*
X24110000Y-9986350D01*
X24173500Y-13975400D02*
X24213500Y-14015400D01*
X24213500Y-13975400D02*
X24173500Y-14015400D01*
X24186200Y-9797100D02*
X24226200Y-9837100D01*
X24226200Y-9797100D02*
X24186200Y-9837100D01*
X24188530Y-10186850D02*
X24228530Y-10226850D01*
X24228530Y-10186850D02*
X24188530Y-10226850D01*
X24198900Y-12083100D02*
X24238900Y-12123100D01*
X24238900Y-12083100D02*
X24198900Y-12123100D01*
X24338600Y-16426500D02*
X24378600Y-16466500D01*
X24378600Y-16426500D02*
X24338600Y-16466500D01*
X24643400Y-16312200D02*
X24683400Y-16352200D01*
X24683400Y-16312200D02*
X24643400Y-16352200D01*
X24706900Y-13048300D02*
X24746900Y-13088300D01*
X24746900Y-13048300D02*
X24706900Y-13088300D01*
X24732300Y-11105200D02*
X24772300Y-11145200D01*
X24772300Y-11105200D02*
X24732300Y-11145200D01*
X24757700Y-14953300D02*
X24797700Y-14993300D01*
X24797700Y-14953300D02*
X24757700Y-14993300D01*
X24783100Y-16032800D02*
X24823100Y-16072800D01*
X24823100Y-16032800D02*
X24783100Y-16072800D01*
X24783100Y-16490000D02*
X24823100Y-16530000D01*
X24823100Y-16490000D02*
X24783100Y-16530000D01*
X24872000Y-15639100D02*
X24912000Y-15679100D01*
X24912000Y-15639100D02*
X24872000Y-15679100D01*
X24884700Y-17264700D02*
X24924700Y-17304700D01*
X24924700Y-17264700D02*
X24884700Y-17304700D01*
X24973600Y-10305100D02*
X25013600Y-10345100D01*
X25013600Y-10305100D02*
X24973600Y-10345100D01*
X24973600Y-12222800D02*
X25013600Y-12262800D01*
X25013600Y-12222800D02*
X24973600Y-12262800D01*
X24973600Y-14140500D02*
X25013600Y-14180500D01*
X25013600Y-14140500D02*
X24973600Y-14180500D01*
X24973600Y-17404400D02*
X25013600Y-17444400D01*
X25013600Y-17404400D02*
X24973600Y-17444400D01*
X25011700Y-10191500D02*
X25051700Y-10231500D01*
X25051700Y-10191500D02*
X25011700Y-10231500D01*
X25037100Y-9708200D02*
X25077100Y-9748200D01*
X25077100Y-9708200D02*
X25037100Y-9748200D01*
X25138700Y-15728000D02*
X25178700Y-15768000D01*
X25178700Y-15728000D02*
X25138700Y-15768000D01*
X25189500Y-17188500D02*
X25229500Y-17228500D01*
X25229500Y-17188500D02*
X25189500Y-17228500D01*
X25202200Y-13289600D02*
X25242200Y-13329600D01*
X25242200Y-13289600D02*
X25202200Y-13329600D01*
X25214900Y-10076500D02*
X25254900Y-10116500D01*
X25254900Y-10076500D02*
X25214900Y-10116500D01*
X25227600Y-15778800D02*
X25267600Y-15818800D01*
X25267600Y-15778800D02*
X25227600Y-15818800D01*
X25240300Y-14356400D02*
X25280300Y-14396400D01*
X25280300Y-14356400D02*
X25240300Y-14396400D01*
X25253000Y-12362500D02*
X25293000Y-12402500D01*
X25293000Y-12362500D02*
X25253000Y-12402500D01*
X25253000Y-14750100D02*
X25293000Y-14790100D01*
X25293000Y-14750100D02*
X25253000Y-14790100D01*
X25265700Y-17404400D02*
X25305700Y-17444400D01*
X25305700Y-17404400D02*
X25265700Y-17444400D01*
X25278400Y-11308400D02*
X25318400Y-11348400D01*
X25318400Y-11308400D02*
X25278400Y-11348400D01*
X25339360Y-17866680D02*
X25379360Y-17906680D01*
X25379360Y-17866680D02*
X25339360Y-17906680D01*
X25367300Y-17366300D02*
X25407300Y-17406300D01*
X25407300Y-17366300D02*
X25367300Y-17406300D01*
X25380000Y-11562400D02*
X25420000Y-11602400D01*
X25420000Y-11562400D02*
X25380000Y-11602400D01*
X25380000Y-11968800D02*
X25420000Y-12008800D01*
X25420000Y-11968800D02*
X25380000Y-12008800D01*
X25380000Y-16109000D02*
X25420000Y-16149000D01*
X25420000Y-16109000D02*
X25380000Y-16149000D01*
X25392700Y-15728000D02*
X25432700Y-15768000D01*
X25432700Y-15728000D02*
X25392700Y-15768000D01*
X25405400Y-9835200D02*
X25445400Y-9875200D01*
X25445400Y-9835200D02*
X25405400Y-9875200D01*
X25418100Y-14267500D02*
X25458100Y-14307500D01*
X25458100Y-14267500D02*
X25418100Y-14307500D01*
X25430800Y-16007400D02*
X25470800Y-16047400D01*
X25470800Y-16007400D02*
X25430800Y-16047400D01*
X25456200Y-11664000D02*
X25496200Y-11704000D01*
X25496200Y-11664000D02*
X25456200Y-11704000D01*
X25456200Y-15347000D02*
X25496200Y-15387000D01*
X25496200Y-15347000D02*
X25456200Y-15387000D01*
X25481600Y-12349800D02*
X25521600Y-12389800D01*
X25521600Y-12349800D02*
X25481600Y-12389800D01*
X25507000Y-13264200D02*
X25547000Y-13304200D01*
X25547000Y-13264200D02*
X25507000Y-13304200D01*
X25519700Y-11743950D02*
X25559700Y-11783950D01*
X25559700Y-11743950D02*
X25519700Y-11783950D01*
X25519700Y-12146600D02*
X25559700Y-12186600D01*
X25559700Y-12146600D02*
X25519700Y-12186600D01*
X25532400Y-13861100D02*
X25572400Y-13901100D01*
X25572400Y-13861100D02*
X25532400Y-13901100D01*
X25547640Y-13604560D02*
X25587640Y-13644560D01*
X25587640Y-13604560D02*
X25547640Y-13644560D01*
X25634000Y-11743950D02*
X25674000Y-11783950D01*
X25674000Y-11743950D02*
X25634000Y-11783950D01*
X25697500Y-16388400D02*
X25737500Y-16428400D01*
X25737500Y-16388400D02*
X25697500Y-16428400D01*
X25735600Y-12273600D02*
X25775600Y-12313600D01*
X25775600Y-12273600D02*
X25735600Y-12313600D01*
X25761000Y-10775000D02*
X25801000Y-10815000D01*
X25801000Y-10775000D02*
X25761000Y-10815000D01*
X25761000Y-10952800D02*
X25801000Y-10992800D01*
X25801000Y-10952800D02*
X25761000Y-10992800D01*
X25761000Y-11816400D02*
X25801000Y-11856400D01*
X25801000Y-11816400D02*
X25761000Y-11856400D01*
X25811800Y-16693200D02*
X25851800Y-16733200D01*
X25851800Y-16693200D02*
X25811800Y-16733200D01*
X25913400Y-13569000D02*
X25953400Y-13609000D01*
X25953400Y-13569000D02*
X25913400Y-13609000D01*
X25913400Y-13772200D02*
X25953400Y-13812200D01*
X25953400Y-13772200D02*
X25913400Y-13812200D01*
X25994680Y-18044480D02*
X26034680Y-18084480D01*
X26034680Y-18044480D02*
X25994680Y-18084480D01*
X26015000Y-15347000D02*
X26055000Y-15387000D01*
X26055000Y-15347000D02*
X26015000Y-15387000D01*
X26167400Y-10368600D02*
X26207400Y-10408600D01*
X26207400Y-10368600D02*
X26167400Y-10408600D01*
X26189050Y-10873170D02*
X26229050Y-10913170D01*
X26229050Y-10873170D02*
X26189050Y-10913170D01*
X26205500Y-10521000D02*
X26245500Y-10561000D01*
X26245500Y-10521000D02*
X26205500Y-10561000D01*
X26205500Y-12083100D02*
X26245500Y-12123100D01*
X26245500Y-12083100D02*
X26205500Y-12123100D01*
X26248680Y-13645200D02*
X26288680Y-13685200D01*
X26288680Y-13645200D02*
X26248680Y-13685200D01*
X26383300Y-10952800D02*
X26423300Y-10992800D01*
X26423300Y-10952800D02*
X26383300Y-10992800D01*
X26510300Y-11968800D02*
X26550300Y-12008800D01*
X26550300Y-11968800D02*
X26510300Y-12008800D01*
X26510300Y-12210100D02*
X26550300Y-12250100D01*
X26550300Y-12210100D02*
X26510300Y-12250100D01*
X26523000Y-17175800D02*
X26563000Y-17215800D01*
X26563000Y-17175800D02*
X26523000Y-17215800D01*
X26535700Y-12730800D02*
X26575700Y-12770800D01*
X26575700Y-12730800D02*
X26535700Y-12770800D01*
X26573800Y-19436400D02*
X26613800Y-19476400D01*
X26613800Y-19436400D02*
X26573800Y-19476400D01*
X26637300Y-12311700D02*
X26677300Y-12351700D01*
X26677300Y-12311700D02*
X26637300Y-12351700D01*
X26650000Y-12781600D02*
X26690000Y-12821600D01*
X26690000Y-12781600D02*
X26650000Y-12821600D01*
X26700800Y-19195100D02*
X26740800Y-19235100D01*
X26740800Y-19195100D02*
X26700800Y-19235100D01*
X26768364Y-18534700D02*
X26808364Y-18574700D01*
X26808364Y-18534700D02*
X26768364Y-18574700D01*
X26777000Y-18788700D02*
X26817000Y-18828700D01*
X26817000Y-18788700D02*
X26777000Y-18828700D01*
X26827800Y-19169700D02*
X26867800Y-19209700D01*
X26867800Y-19169700D02*
X26827800Y-19209700D01*
X26843040Y-13777280D02*
X26883040Y-13817280D01*
X26883040Y-13777280D02*
X26843040Y-13817280D01*
X26853200Y-12743500D02*
X26893200Y-12783500D01*
X26893200Y-12743500D02*
X26853200Y-12783500D01*
X26853200Y-19543080D02*
X26893200Y-19583080D01*
X26893200Y-19543080D02*
X26853200Y-19583080D01*
X26942100Y-15524800D02*
X26982100Y-15564800D01*
X26982100Y-15524800D02*
X26942100Y-15564800D01*
X26967500Y-12654600D02*
X27007500Y-12694600D01*
X27007500Y-12654600D02*
X26967500Y-12694600D01*
X26967500Y-16756700D02*
X27007500Y-16796700D01*
X27007500Y-16756700D02*
X26967500Y-16796700D01*
X27005600Y-17760000D02*
X27045600Y-17800000D01*
X27045600Y-17760000D02*
X27005600Y-17800000D01*
X27018300Y-11422700D02*
X27058300Y-11462700D01*
X27058300Y-11422700D02*
X27018300Y-11462700D01*
X27056400Y-12743500D02*
X27096400Y-12783500D01*
X27096400Y-12743500D02*
X27056400Y-12783500D01*
X27132600Y-17810800D02*
X27172600Y-17850800D01*
X27172600Y-17810800D02*
X27132600Y-17850800D01*
X27221500Y-9911400D02*
X27261500Y-9951400D01*
X27261500Y-9911400D02*
X27221500Y-9951400D01*
X27234200Y-18445800D02*
X27274200Y-18485800D01*
X27274200Y-18445800D02*
X27234200Y-18485800D01*
X27259600Y-12921300D02*
X27299600Y-12961300D01*
X27299600Y-12921300D02*
X27259600Y-12961300D01*
X27310400Y-16439200D02*
X27350400Y-16479200D01*
X27350400Y-16439200D02*
X27310400Y-16479200D01*
X27437400Y-19919000D02*
X27477400Y-19959000D01*
X27477400Y-19919000D02*
X27437400Y-19959000D01*
X27500900Y-18242600D02*
X27540900Y-18282600D01*
X27540900Y-18242600D02*
X27500900Y-18282600D01*
X27577100Y-17658400D02*
X27617100Y-17698400D01*
X27617100Y-17658400D02*
X27577100Y-17698400D01*
X27691400Y-11257600D02*
X27731400Y-11297600D01*
X27731400Y-11257600D02*
X27691400Y-11297600D01*
X27907300Y-19004600D02*
X27947300Y-19044600D01*
X27947300Y-19004600D02*
X27907300Y-19044600D01*
X28428000Y-18496600D02*
X28468000Y-18536600D01*
X28468000Y-18496600D02*
X28428000Y-18536600D01*
D13*
X25974280Y-10001200D02*
G75*
G03*
X25974280Y-10001200I-40640J0D01*
G01*
X25974280Y-10255200D02*
G75*
G03*
X25974280Y-10255200I-40640J0D01*
G01*
X25974280Y-10509200D02*
G75*
G03*
X25974280Y-10509200I-40640J0D01*
G01*
X25974280Y-10763200D02*
G75*
G03*
X25974280Y-10763200I-40640J0D01*
G01*
X25974280Y-11017200D02*
G75*
G03*
X25974280Y-11017200I-40640J0D01*
G01*
X25974280Y-11271200D02*
G75*
G03*
X25974280Y-11271200I-40640J0D01*
G01*
X25974280Y-11525200D02*
G75*
G03*
X25974280Y-11525200I-40640J0D01*
G01*
X25974280Y-11779200D02*
G75*
G03*
X25974280Y-11779200I-40640J0D01*
G01*
X25974280Y-12033200D02*
G75*
G03*
X25974280Y-12033200I-40640J0D01*
G01*
X25974280Y-12287200D02*
G75*
G03*
X25974280Y-12287200I-40640J0D01*
G01*
X25974280Y-12541200D02*
G75*
G03*
X25974280Y-12541200I-40640J0D01*
G01*
X25974280Y-12795200D02*
G75*
G03*
X25974280Y-12795200I-40640J0D01*
G01*
X26212800Y-13233400D02*
G75*
G03*
X26212800Y-13233400I-40640J0D01*
G01*
X26466800Y-13233400D02*
G75*
G03*
X26466800Y-13233400I-40640J0D01*
G01*
X26720800Y-13233400D02*
G75*
G03*
X26720800Y-13233400I-40640J0D01*
G01*
X26974800Y-13233400D02*
G75*
G03*
X26974800Y-13233400I-40640J0D01*
G01*
X27228800Y-13233400D02*
G75*
G03*
X27228800Y-13233400I-40640J0D01*
G01*
X27496280Y-10001200D02*
G75*
G03*
X27496280Y-10001200I-40640J0D01*
G01*
X27496280Y-10255200D02*
G75*
G03*
X27496280Y-10255200I-40640J0D01*
G01*
X27496280Y-10509200D02*
G75*
G03*
X27496280Y-10509200I-40640J0D01*
G01*
X27496280Y-10763200D02*
G75*
G03*
X27496280Y-10763200I-40640J0D01*
G01*
X27496280Y-11017200D02*
G75*
G03*
X27496280Y-11017200I-40640J0D01*
G01*
X27496280Y-11271200D02*
G75*
G03*
X27496280Y-11271200I-40640J0D01*
G01*
X27496280Y-11525200D02*
G75*
G03*
X27496280Y-11525200I-40640J0D01*
G01*
X27496280Y-11779200D02*
G75*
G03*
X27496280Y-11779200I-40640J0D01*
G01*
X27496280Y-12033200D02*
G75*
G03*
X27496280Y-12033200I-40640J0D01*
G01*
X27496280Y-12287200D02*
G75*
G03*
X27496280Y-12287200I-40640J0D01*
G01*
X27496280Y-12541200D02*
G75*
G03*
X27496280Y-12541200I-40640J0D01*
G01*
X27496280Y-12795200D02*
G75*
G03*
X27496280Y-12795200I-40640J0D01*
G01*
D14*
X25869200Y-14203400D02*
X25869200Y-14303400D01*
X25819200Y-14253400D02*
X25919200Y-14253400D01*
X25869200Y-14453400D02*
X25869200Y-14553400D01*
X25819200Y-14503400D02*
X25919200Y-14503400D01*
X25869200Y-14703400D02*
X25869200Y-14803400D01*
X25819200Y-14753400D02*
X25919200Y-14753400D01*
X26397900Y-9901600D02*
X26397900Y-10001600D01*
X26347900Y-9951600D02*
X26447900Y-9951600D01*
D11*
X26347900Y-9926600D02*
X26347900Y-9976600D01*
X26347900Y-9976600D02*
G75*
G03*
X26447900Y-9976600I50000J0D01*
G01*
X26447900Y-9976600D02*
X26447900Y-9926600D01*
X26447900Y-9926600D02*
G75*
G03*
X26347900Y-9926600I-50000J0D01*
G01*
D14*
X26397900Y-10201600D02*
X26397900Y-10301600D01*
X26347900Y-10251600D02*
X26447900Y-10251600D01*
D11*
X26347900Y-10226600D02*
X26347900Y-10276600D01*
X26347900Y-10276600D02*
G75*
G03*
X26447900Y-10276600I50000J0D01*
G01*
X26447900Y-10276600D02*
X26447900Y-10226600D01*
X26447900Y-10226600D02*
G75*
G03*
X26347900Y-10226600I-50000J0D01*
G01*
D14*
X26397900Y-10601600D02*
X26397900Y-10701600D01*
X26347900Y-10651600D02*
X26447900Y-10651600D01*
D11*
X26347900Y-10626600D02*
X26347900Y-10676600D01*
X26347900Y-10676600D02*
G75*
G03*
X26447900Y-10676600I50000J0D01*
G01*
X26447900Y-10676600D02*
X26447900Y-10626600D01*
X26447900Y-10626600D02*
G75*
G03*
X26347900Y-10626600I-50000J0D01*
G01*
D14*
X26572900Y-10751600D02*
X26572900Y-10851600D01*
X26522900Y-10801600D02*
X26622900Y-10801600D01*
D11*
X26522900Y-10776600D02*
X26522900Y-10826600D01*
X26522900Y-10826600D02*
G75*
G03*
X26622900Y-10826600I50000J0D01*
G01*
X26622900Y-10826600D02*
X26622900Y-10776600D01*
X26622900Y-10776600D02*
G75*
G03*
X26522900Y-10776600I-50000J0D01*
G01*
D14*
X26817900Y-10751600D02*
X26817900Y-10851600D01*
X26767900Y-10801600D02*
X26867900Y-10801600D01*
D11*
X26767900Y-10776600D02*
X26767900Y-10826600D01*
X26767900Y-10826600D02*
G75*
G03*
X26867900Y-10826600I50000J0D01*
G01*
X26867900Y-10826600D02*
X26867900Y-10776600D01*
X26867900Y-10776600D02*
G75*
G03*
X26767900Y-10776600I-50000J0D01*
G01*
D14*
X26992900Y-9901600D02*
X26992900Y-10001600D01*
X26942900Y-9951600D02*
X27042900Y-9951600D01*
D11*
X26942900Y-9926600D02*
X26942900Y-9976600D01*
X26942900Y-9976600D02*
G75*
G03*
X27042900Y-9976600I50000J0D01*
G01*
X27042900Y-9976600D02*
X27042900Y-9926600D01*
X27042900Y-9926600D02*
G75*
G03*
X26942900Y-9926600I-50000J0D01*
G01*
D14*
X26992900Y-10201600D02*
X26992900Y-10301600D01*
X26942900Y-10251600D02*
X27042900Y-10251600D01*
D11*
X26942900Y-10226600D02*
X26942900Y-10276600D01*
X26942900Y-10276600D02*
G75*
G03*
X27042900Y-10276600I50000J0D01*
G01*
X27042900Y-10276600D02*
X27042900Y-10226600D01*
X27042900Y-10226600D02*
G75*
G03*
X26942900Y-10226600I-50000J0D01*
G01*
D14*
X26992900Y-10601600D02*
X26992900Y-10701600D01*
X26942900Y-10651600D02*
X27042900Y-10651600D01*
D11*
X26942900Y-10626600D02*
X26942900Y-10676600D01*
X26942900Y-10676600D02*
G75*
G03*
X27042900Y-10676600I50000J0D01*
G01*
X27042900Y-10676600D02*
X27042900Y-10626600D01*
X27042900Y-10626600D02*
G75*
G03*
X26942900Y-10626600I-50000J0D01*
G01*
D14*
X27319200Y-14203400D02*
X27319200Y-14303400D01*
X27269200Y-14253400D02*
X27369200Y-14253400D01*
X27319200Y-14703400D02*
X27319200Y-14803400D01*
X27269200Y-14753400D02*
X27369200Y-14753400D01*
D15*
X27733132Y-16729469D02*
X27733132Y-16637544D01*
X27641207Y-16637544D01*
X27641207Y-16729469D01*
X27733132Y-16729469D01*
X27933993Y-17347656D02*
X27933993Y-17255731D01*
X27842068Y-17255731D01*
X27842068Y-17347656D01*
X27933993Y-17347656D01*
D10*
X26619200Y-14018400D02*
X26694200Y-13943400D01*
X26619200Y-13868400D01*
X26544200Y-13943400D01*
X26619200Y-14018400D01*
D11*
X26554200Y-14018400D02*
X26684200Y-14018400D01*
X26684200Y-14018400D02*
G75*
G03*
X26684200Y-13868400I0J75000D01*
G01*
X26684200Y-13868400D02*
X26554200Y-13868400D01*
X26554200Y-13868400D02*
G75*
G03*
X26554200Y-14018400I0J-75000D01*
G01*
D10*
X26619200Y-15138400D02*
X26694200Y-15063400D01*
X26619200Y-14988400D01*
X26544200Y-15063400D01*
X26619200Y-15138400D01*
D11*
X26554200Y-15138400D02*
X26684200Y-15138400D01*
X26684200Y-15138400D02*
G75*
G03*
X26684200Y-14988400I0J75000D01*
G01*
X26684200Y-14988400D02*
X26554200Y-14988400D01*
X26554200Y-14988400D02*
G75*
G03*
X26554200Y-15138400I0J-75000D01*
G01*
D16*
X15428700Y-9993100D02*
X15838700Y-10403100D01*
X15838700Y-9993100D02*
X15428700Y-10403100D01*
X15838700Y-10198100D02*
G75*
G03*
X15838700Y-10198100I-205000J0D01*
G01*
X15670000Y-15885900D02*
X16080000Y-16295900D01*
X16080000Y-15885900D02*
X15670000Y-16295900D01*
X16080000Y-16090900D02*
G75*
G03*
X16080000Y-16090900I-205000J0D01*
G01*
X25347400Y-10348700D02*
X25757400Y-10758700D01*
X25757400Y-10348700D02*
X25347400Y-10758700D01*
X25757400Y-10553700D02*
G75*
G03*
X25757400Y-10553700I-205000J0D01*
G01*
X26185600Y-18425900D02*
X26595600Y-18835900D01*
X26595600Y-18425900D02*
X26185600Y-18835900D01*
X26595600Y-18630900D02*
G75*
G03*
X26595600Y-18630900I-205000J0D01*
G01*
X26414200Y-15657300D02*
X26824200Y-16067300D01*
X26824200Y-15657300D02*
X26414200Y-16067300D01*
X26824200Y-15862300D02*
G75*
G03*
X26824200Y-15862300I-205000J0D01*
G01*
D11*
X14153277Y-21168497D02*
X14153277Y-20968497D01*
X14153277Y-20968497D02*
X14200896Y-20968497D01*
X14200896Y-20968497D02*
X14229467Y-20978021D01*
X14229467Y-20978021D02*
X14248515Y-20997069D01*
X14248515Y-20997069D02*
X14258039Y-21016116D01*
X14258039Y-21016116D02*
X14267562Y-21054212D01*
X14267562Y-21054212D02*
X14267562Y-21082783D01*
X14267562Y-21082783D02*
X14258039Y-21120878D01*
X14258039Y-21120878D02*
X14248515Y-21139926D01*
X14248515Y-21139926D02*
X14229467Y-21158974D01*
X14229467Y-21158974D02*
X14200896Y-21168497D01*
X14200896Y-21168497D02*
X14153277Y-21168497D01*
X14353277Y-21168497D02*
X14353277Y-21035164D01*
X14353277Y-21073259D02*
X14362800Y-21054212D01*
X14362800Y-21054212D02*
X14372324Y-21044688D01*
X14372324Y-21044688D02*
X14391372Y-21035164D01*
X14391372Y-21035164D02*
X14410420Y-21035164D01*
X14477086Y-21168497D02*
X14477086Y-21035164D01*
X14477086Y-20968497D02*
X14467562Y-20978021D01*
X14467562Y-20978021D02*
X14477086Y-20987545D01*
X14477086Y-20987545D02*
X14486610Y-20978021D01*
X14486610Y-20978021D02*
X14477086Y-20968497D01*
X14477086Y-20968497D02*
X14477086Y-20987545D01*
X14600896Y-21168497D02*
X14581848Y-21158974D01*
X14581848Y-21158974D02*
X14572324Y-21139926D01*
X14572324Y-21139926D02*
X14572324Y-20968497D01*
X14705658Y-21168497D02*
X14686610Y-21158974D01*
X14686610Y-21158974D02*
X14677086Y-21139926D01*
X14677086Y-21139926D02*
X14677086Y-20968497D01*
X14934229Y-21168497D02*
X14934229Y-20968497D01*
X14934229Y-20968497D02*
X15000896Y-21111355D01*
X15000896Y-21111355D02*
X15067562Y-20968497D01*
X15067562Y-20968497D02*
X15067562Y-21168497D01*
X15248515Y-21168497D02*
X15248515Y-21063736D01*
X15248515Y-21063736D02*
X15238991Y-21044688D01*
X15238991Y-21044688D02*
X15219943Y-21035164D01*
X15219943Y-21035164D02*
X15181848Y-21035164D01*
X15181848Y-21035164D02*
X15162800Y-21044688D01*
X15248515Y-21158974D02*
X15229467Y-21168497D01*
X15229467Y-21168497D02*
X15181848Y-21168497D01*
X15181848Y-21168497D02*
X15162800Y-21158974D01*
X15162800Y-21158974D02*
X15153277Y-21139926D01*
X15153277Y-21139926D02*
X15153277Y-21120878D01*
X15153277Y-21120878D02*
X15162800Y-21101831D01*
X15162800Y-21101831D02*
X15181848Y-21092307D01*
X15181848Y-21092307D02*
X15229467Y-21092307D01*
X15229467Y-21092307D02*
X15248515Y-21082783D01*
X15343753Y-21035164D02*
X15343753Y-21235164D01*
X15343753Y-21044688D02*
X15362800Y-21035164D01*
X15362800Y-21035164D02*
X15400896Y-21035164D01*
X15400896Y-21035164D02*
X15419943Y-21044688D01*
X15419943Y-21044688D02*
X15429467Y-21054212D01*
X15429467Y-21054212D02*
X15438991Y-21073259D01*
X15438991Y-21073259D02*
X15438991Y-21130402D01*
X15438991Y-21130402D02*
X15429467Y-21149450D01*
X15429467Y-21149450D02*
X15419943Y-21158974D01*
X15419943Y-21158974D02*
X15400896Y-21168497D01*
X15400896Y-21168497D02*
X15362800Y-21168497D01*
X15362800Y-21168497D02*
X15343753Y-21158974D01*
X15524705Y-21149450D02*
X15534229Y-21158974D01*
X15534229Y-21158974D02*
X15524705Y-21168497D01*
X15524705Y-21168497D02*
X15515181Y-21158974D01*
X15515181Y-21158974D02*
X15524705Y-21149450D01*
X15524705Y-21149450D02*
X15524705Y-21168497D01*
X15524705Y-21044688D02*
X15534229Y-21054212D01*
X15534229Y-21054212D02*
X15524705Y-21063736D01*
X15524705Y-21063736D02*
X15515181Y-21054212D01*
X15515181Y-21054212D02*
X15524705Y-21044688D01*
X15524705Y-21044688D02*
X15524705Y-21063736D01*
D12*
X13852500Y-21477014D02*
X13892500Y-21517014D01*
X13892500Y-21477014D02*
X13852500Y-21517014D01*
D11*
X14191372Y-21388497D02*
X14210420Y-21388497D01*
X14210420Y-21388497D02*
X14229467Y-21398021D01*
X14229467Y-21398021D02*
X14238991Y-21407545D01*
X14238991Y-21407545D02*
X14248515Y-21426593D01*
X14248515Y-21426593D02*
X14258039Y-21464688D01*
X14258039Y-21464688D02*
X14258039Y-21512307D01*
X14258039Y-21512307D02*
X14248515Y-21550402D01*
X14248515Y-21550402D02*
X14238991Y-21569450D01*
X14238991Y-21569450D02*
X14229467Y-21578974D01*
X14229467Y-21578974D02*
X14210420Y-21588497D01*
X14210420Y-21588497D02*
X14191372Y-21588497D01*
X14191372Y-21588497D02*
X14172324Y-21578974D01*
X14172324Y-21578974D02*
X14162800Y-21569450D01*
X14162800Y-21569450D02*
X14153277Y-21550402D01*
X14153277Y-21550402D02*
X14143753Y-21512307D01*
X14143753Y-21512307D02*
X14143753Y-21464688D01*
X14143753Y-21464688D02*
X14153277Y-21426593D01*
X14153277Y-21426593D02*
X14162800Y-21407545D01*
X14162800Y-21407545D02*
X14172324Y-21398021D01*
X14172324Y-21398021D02*
X14191372Y-21388497D01*
X14343753Y-21569450D02*
X14353277Y-21578974D01*
X14353277Y-21578974D02*
X14343753Y-21588497D01*
X14343753Y-21588497D02*
X14334229Y-21578974D01*
X14334229Y-21578974D02*
X14343753Y-21569450D01*
X14343753Y-21569450D02*
X14343753Y-21588497D01*
X14524705Y-21455164D02*
X14524705Y-21588497D01*
X14477086Y-21378974D02*
X14429467Y-21521831D01*
X14429467Y-21521831D02*
X14553277Y-21521831D01*
X14667562Y-21388497D02*
X14686610Y-21388497D01*
X14686610Y-21388497D02*
X14705658Y-21398021D01*
X14705658Y-21398021D02*
X14715181Y-21407545D01*
X14715181Y-21407545D02*
X14724705Y-21426593D01*
X14724705Y-21426593D02*
X14734229Y-21464688D01*
X14734229Y-21464688D02*
X14734229Y-21512307D01*
X14734229Y-21512307D02*
X14724705Y-21550402D01*
X14724705Y-21550402D02*
X14715181Y-21569450D01*
X14715181Y-21569450D02*
X14705658Y-21578974D01*
X14705658Y-21578974D02*
X14686610Y-21588497D01*
X14686610Y-21588497D02*
X14667562Y-21588497D01*
X14667562Y-21588497D02*
X14648515Y-21578974D01*
X14648515Y-21578974D02*
X14638991Y-21569450D01*
X14638991Y-21569450D02*
X14629467Y-21550402D01*
X14629467Y-21550402D02*
X14619943Y-21512307D01*
X14619943Y-21512307D02*
X14619943Y-21464688D01*
X14619943Y-21464688D02*
X14629467Y-21426593D01*
X14629467Y-21426593D02*
X14638991Y-21407545D01*
X14638991Y-21407545D02*
X14648515Y-21398021D01*
X14648515Y-21398021D02*
X14667562Y-21388497D01*
X14858039Y-21388497D02*
X14877086Y-21388497D01*
X14877086Y-21388497D02*
X14896134Y-21398021D01*
X14896134Y-21398021D02*
X14905658Y-21407545D01*
X14905658Y-21407545D02*
X14915181Y-21426593D01*
X14915181Y-21426593D02*
X14924705Y-21464688D01*
X14924705Y-21464688D02*
X14924705Y-21512307D01*
X14924705Y-21512307D02*
X14915181Y-21550402D01*
X14915181Y-21550402D02*
X14905658Y-21569450D01*
X14905658Y-21569450D02*
X14896134Y-21578974D01*
X14896134Y-21578974D02*
X14877086Y-21588497D01*
X14877086Y-21588497D02*
X14858039Y-21588497D01*
X14858039Y-21588497D02*
X14838991Y-21578974D01*
X14838991Y-21578974D02*
X14829467Y-21569450D01*
X14829467Y-21569450D02*
X14819943Y-21550402D01*
X14819943Y-21550402D02*
X14810420Y-21512307D01*
X14810420Y-21512307D02*
X14810420Y-21464688D01*
X14810420Y-21464688D02*
X14819943Y-21426593D01*
X14819943Y-21426593D02*
X14829467Y-21407545D01*
X14829467Y-21407545D02*
X14838991Y-21398021D01*
X14838991Y-21398021D02*
X14858039Y-21388497D01*
X15010420Y-21588497D02*
X15010420Y-21455164D01*
X15010420Y-21474212D02*
X15019943Y-21464688D01*
X15019943Y-21464688D02*
X15038991Y-21455164D01*
X15038991Y-21455164D02*
X15067562Y-21455164D01*
X15067562Y-21455164D02*
X15086610Y-21464688D01*
X15086610Y-21464688D02*
X15096134Y-21483736D01*
X15096134Y-21483736D02*
X15096134Y-21588497D01*
X15096134Y-21483736D02*
X15105658Y-21464688D01*
X15105658Y-21464688D02*
X15124705Y-21455164D01*
X15124705Y-21455164D02*
X15153277Y-21455164D01*
X15153277Y-21455164D02*
X15172324Y-21464688D01*
X15172324Y-21464688D02*
X15181848Y-21483736D01*
X15181848Y-21483736D02*
X15181848Y-21588497D01*
X15277086Y-21588497D02*
X15277086Y-21455164D01*
X15277086Y-21474212D02*
X15286610Y-21464688D01*
X15286610Y-21464688D02*
X15305658Y-21455164D01*
X15305658Y-21455164D02*
X15334229Y-21455164D01*
X15334229Y-21455164D02*
X15353277Y-21464688D01*
X15353277Y-21464688D02*
X15362801Y-21483736D01*
X15362801Y-21483736D02*
X15362801Y-21588497D01*
X15362801Y-21483736D02*
X15372324Y-21464688D01*
X15372324Y-21464688D02*
X15391372Y-21455164D01*
X15391372Y-21455164D02*
X15419943Y-21455164D01*
X15419943Y-21455164D02*
X15438991Y-21464688D01*
X15438991Y-21464688D02*
X15448515Y-21483736D01*
X15448515Y-21483736D02*
X15448515Y-21588497D01*
X15838991Y-21378974D02*
X15667563Y-21636116D01*
X16096134Y-21388497D02*
X16115182Y-21388497D01*
X16115182Y-21388497D02*
X16134229Y-21398021D01*
X16134229Y-21398021D02*
X16143753Y-21407545D01*
X16143753Y-21407545D02*
X16153277Y-21426593D01*
X16153277Y-21426593D02*
X16162801Y-21464688D01*
X16162801Y-21464688D02*
X16162801Y-21512307D01*
X16162801Y-21512307D02*
X16153277Y-21550402D01*
X16153277Y-21550402D02*
X16143753Y-21569450D01*
X16143753Y-21569450D02*
X16134229Y-21578974D01*
X16134229Y-21578974D02*
X16115182Y-21588497D01*
X16115182Y-21588497D02*
X16096134Y-21588497D01*
X16096134Y-21588497D02*
X16077086Y-21578974D01*
X16077086Y-21578974D02*
X16067563Y-21569450D01*
X16067563Y-21569450D02*
X16058039Y-21550402D01*
X16058039Y-21550402D02*
X16048515Y-21512307D01*
X16048515Y-21512307D02*
X16048515Y-21464688D01*
X16048515Y-21464688D02*
X16058039Y-21426593D01*
X16058039Y-21426593D02*
X16067563Y-21407545D01*
X16067563Y-21407545D02*
X16077086Y-21398021D01*
X16077086Y-21398021D02*
X16096134Y-21388497D01*
X16248515Y-21569450D02*
X16258039Y-21578974D01*
X16258039Y-21578974D02*
X16248515Y-21588497D01*
X16248515Y-21588497D02*
X16238991Y-21578974D01*
X16238991Y-21578974D02*
X16248515Y-21569450D01*
X16248515Y-21569450D02*
X16248515Y-21588497D01*
X16381848Y-21388497D02*
X16400896Y-21388497D01*
X16400896Y-21388497D02*
X16419944Y-21398021D01*
X16419944Y-21398021D02*
X16429467Y-21407545D01*
X16429467Y-21407545D02*
X16438991Y-21426593D01*
X16438991Y-21426593D02*
X16448515Y-21464688D01*
X16448515Y-21464688D02*
X16448515Y-21512307D01*
X16448515Y-21512307D02*
X16438991Y-21550402D01*
X16438991Y-21550402D02*
X16429467Y-21569450D01*
X16429467Y-21569450D02*
X16419944Y-21578974D01*
X16419944Y-21578974D02*
X16400896Y-21588497D01*
X16400896Y-21588497D02*
X16381848Y-21588497D01*
X16381848Y-21588497D02*
X16362801Y-21578974D01*
X16362801Y-21578974D02*
X16353277Y-21569450D01*
X16353277Y-21569450D02*
X16343753Y-21550402D01*
X16343753Y-21550402D02*
X16334229Y-21512307D01*
X16334229Y-21512307D02*
X16334229Y-21464688D01*
X16334229Y-21464688D02*
X16343753Y-21426593D01*
X16343753Y-21426593D02*
X16353277Y-21407545D01*
X16353277Y-21407545D02*
X16362801Y-21398021D01*
X16362801Y-21398021D02*
X16381848Y-21388497D01*
X16638991Y-21588497D02*
X16524705Y-21588497D01*
X16581848Y-21588497D02*
X16581848Y-21388497D01*
X16581848Y-21388497D02*
X16562801Y-21417069D01*
X16562801Y-21417069D02*
X16543753Y-21436116D01*
X16543753Y-21436116D02*
X16524705Y-21445640D01*
X16819944Y-21388497D02*
X16724705Y-21388497D01*
X16724705Y-21388497D02*
X16715182Y-21483736D01*
X16715182Y-21483736D02*
X16724705Y-21474212D01*
X16724705Y-21474212D02*
X16743753Y-21464688D01*
X16743753Y-21464688D02*
X16791372Y-21464688D01*
X16791372Y-21464688D02*
X16810420Y-21474212D01*
X16810420Y-21474212D02*
X16819944Y-21483736D01*
X16819944Y-21483736D02*
X16829467Y-21502783D01*
X16829467Y-21502783D02*
X16829467Y-21550402D01*
X16829467Y-21550402D02*
X16819944Y-21569450D01*
X16819944Y-21569450D02*
X16810420Y-21578974D01*
X16810420Y-21578974D02*
X16791372Y-21588497D01*
X16791372Y-21588497D02*
X16743753Y-21588497D01*
X16743753Y-21588497D02*
X16724705Y-21578974D01*
X16724705Y-21578974D02*
X16715182Y-21569450D01*
X16896134Y-21388497D02*
X17029467Y-21388497D01*
X17029467Y-21388497D02*
X16943753Y-21588497D01*
X17096134Y-21388497D02*
X17096134Y-21426593D01*
X17172325Y-21388497D02*
X17172325Y-21426593D01*
X17467563Y-21664688D02*
X17458039Y-21655164D01*
X17458039Y-21655164D02*
X17438991Y-21626593D01*
X17438991Y-21626593D02*
X17429468Y-21607545D01*
X17429468Y-21607545D02*
X17419944Y-21578974D01*
X17419944Y-21578974D02*
X17410420Y-21531355D01*
X17410420Y-21531355D02*
X17410420Y-21493259D01*
X17410420Y-21493259D02*
X17419944Y-21445640D01*
X17419944Y-21445640D02*
X17429468Y-21417069D01*
X17429468Y-21417069D02*
X17438991Y-21398021D01*
X17438991Y-21398021D02*
X17458039Y-21369450D01*
X17458039Y-21369450D02*
X17467563Y-21359926D01*
X17524706Y-21388497D02*
X17648515Y-21388497D01*
X17648515Y-21388497D02*
X17581848Y-21464688D01*
X17581848Y-21464688D02*
X17610420Y-21464688D01*
X17610420Y-21464688D02*
X17629468Y-21474212D01*
X17629468Y-21474212D02*
X17638991Y-21483736D01*
X17638991Y-21483736D02*
X17648515Y-21502783D01*
X17648515Y-21502783D02*
X17648515Y-21550402D01*
X17648515Y-21550402D02*
X17638991Y-21569450D01*
X17638991Y-21569450D02*
X17629468Y-21578974D01*
X17629468Y-21578974D02*
X17610420Y-21588497D01*
X17610420Y-21588497D02*
X17553277Y-21588497D01*
X17553277Y-21588497D02*
X17534229Y-21578974D01*
X17534229Y-21578974D02*
X17524706Y-21569450D01*
X17829468Y-21388497D02*
X17734229Y-21388497D01*
X17734229Y-21388497D02*
X17724706Y-21483736D01*
X17724706Y-21483736D02*
X17734229Y-21474212D01*
X17734229Y-21474212D02*
X17753277Y-21464688D01*
X17753277Y-21464688D02*
X17800896Y-21464688D01*
X17800896Y-21464688D02*
X17819944Y-21474212D01*
X17819944Y-21474212D02*
X17829468Y-21483736D01*
X17829468Y-21483736D02*
X17838991Y-21502783D01*
X17838991Y-21502783D02*
X17838991Y-21550402D01*
X17838991Y-21550402D02*
X17829468Y-21569450D01*
X17829468Y-21569450D02*
X17819944Y-21578974D01*
X17819944Y-21578974D02*
X17800896Y-21588497D01*
X17800896Y-21588497D02*
X17753277Y-21588497D01*
X17753277Y-21588497D02*
X17734229Y-21578974D01*
X17734229Y-21578974D02*
X17724706Y-21569450D01*
X18010420Y-21455164D02*
X18010420Y-21588497D01*
X17962801Y-21378974D02*
X17915182Y-21521831D01*
X17915182Y-21521831D02*
X18038991Y-21521831D01*
X18267563Y-21588497D02*
X18267563Y-21388497D01*
X18353277Y-21588497D02*
X18353277Y-21483736D01*
X18353277Y-21483736D02*
X18343753Y-21464688D01*
X18343753Y-21464688D02*
X18324706Y-21455164D01*
X18324706Y-21455164D02*
X18296134Y-21455164D01*
X18296134Y-21455164D02*
X18277087Y-21464688D01*
X18277087Y-21464688D02*
X18267563Y-21474212D01*
X18477087Y-21588497D02*
X18458039Y-21578974D01*
X18458039Y-21578974D02*
X18448515Y-21569450D01*
X18448515Y-21569450D02*
X18438991Y-21550402D01*
X18438991Y-21550402D02*
X18438991Y-21493259D01*
X18438991Y-21493259D02*
X18448515Y-21474212D01*
X18448515Y-21474212D02*
X18458039Y-21464688D01*
X18458039Y-21464688D02*
X18477087Y-21455164D01*
X18477087Y-21455164D02*
X18505658Y-21455164D01*
X18505658Y-21455164D02*
X18524706Y-21464688D01*
X18524706Y-21464688D02*
X18534230Y-21474212D01*
X18534230Y-21474212D02*
X18543753Y-21493259D01*
X18543753Y-21493259D02*
X18543753Y-21550402D01*
X18543753Y-21550402D02*
X18534230Y-21569450D01*
X18534230Y-21569450D02*
X18524706Y-21578974D01*
X18524706Y-21578974D02*
X18505658Y-21588497D01*
X18505658Y-21588497D02*
X18477087Y-21588497D01*
X18658039Y-21588497D02*
X18638991Y-21578974D01*
X18638991Y-21578974D02*
X18629468Y-21559926D01*
X18629468Y-21559926D02*
X18629468Y-21388497D01*
X18810420Y-21578974D02*
X18791372Y-21588497D01*
X18791372Y-21588497D02*
X18753277Y-21588497D01*
X18753277Y-21588497D02*
X18734230Y-21578974D01*
X18734230Y-21578974D02*
X18724706Y-21559926D01*
X18724706Y-21559926D02*
X18724706Y-21483736D01*
X18724706Y-21483736D02*
X18734230Y-21464688D01*
X18734230Y-21464688D02*
X18753277Y-21455164D01*
X18753277Y-21455164D02*
X18791372Y-21455164D01*
X18791372Y-21455164D02*
X18810420Y-21464688D01*
X18810420Y-21464688D02*
X18819944Y-21483736D01*
X18819944Y-21483736D02*
X18819944Y-21502783D01*
X18819944Y-21502783D02*
X18724706Y-21521831D01*
X18896134Y-21578974D02*
X18915182Y-21588497D01*
X18915182Y-21588497D02*
X18953277Y-21588497D01*
X18953277Y-21588497D02*
X18972325Y-21578974D01*
X18972325Y-21578974D02*
X18981849Y-21559926D01*
X18981849Y-21559926D02*
X18981849Y-21550402D01*
X18981849Y-21550402D02*
X18972325Y-21531355D01*
X18972325Y-21531355D02*
X18953277Y-21521831D01*
X18953277Y-21521831D02*
X18924706Y-21521831D01*
X18924706Y-21521831D02*
X18905658Y-21512307D01*
X18905658Y-21512307D02*
X18896134Y-21493259D01*
X18896134Y-21493259D02*
X18896134Y-21483736D01*
X18896134Y-21483736D02*
X18905658Y-21464688D01*
X18905658Y-21464688D02*
X18924706Y-21455164D01*
X18924706Y-21455164D02*
X18953277Y-21455164D01*
X18953277Y-21455164D02*
X18972325Y-21464688D01*
X19048515Y-21664688D02*
X19058039Y-21655164D01*
X19058039Y-21655164D02*
X19077087Y-21626593D01*
X19077087Y-21626593D02*
X19086611Y-21607545D01*
X19086611Y-21607545D02*
X19096134Y-21578974D01*
X19096134Y-21578974D02*
X19105658Y-21531355D01*
X19105658Y-21531355D02*
X19105658Y-21493259D01*
X19105658Y-21493259D02*
X19096134Y-21445640D01*
X19096134Y-21445640D02*
X19086611Y-21417069D01*
X19086611Y-21417069D02*
X19077087Y-21398021D01*
X19077087Y-21398021D02*
X19058039Y-21369450D01*
X19058039Y-21369450D02*
X19048515Y-21359926D01*
D13*
X13892500Y-21761014D02*
G75*
G03*
X13892500Y-21761014I-40640J0D01*
G01*
D11*
X14191372Y-21652497D02*
X14210420Y-21652497D01*
X14210420Y-21652497D02*
X14229467Y-21662021D01*
X14229467Y-21662021D02*
X14238991Y-21671545D01*
X14238991Y-21671545D02*
X14248515Y-21690593D01*
X14248515Y-21690593D02*
X14258039Y-21728688D01*
X14258039Y-21728688D02*
X14258039Y-21776307D01*
X14258039Y-21776307D02*
X14248515Y-21814402D01*
X14248515Y-21814402D02*
X14238991Y-21833450D01*
X14238991Y-21833450D02*
X14229467Y-21842974D01*
X14229467Y-21842974D02*
X14210420Y-21852497D01*
X14210420Y-21852497D02*
X14191372Y-21852497D01*
X14191372Y-21852497D02*
X14172324Y-21842974D01*
X14172324Y-21842974D02*
X14162800Y-21833450D01*
X14162800Y-21833450D02*
X14153277Y-21814402D01*
X14153277Y-21814402D02*
X14143753Y-21776307D01*
X14143753Y-21776307D02*
X14143753Y-21728688D01*
X14143753Y-21728688D02*
X14153277Y-21690593D01*
X14153277Y-21690593D02*
X14162800Y-21671545D01*
X14162800Y-21671545D02*
X14172324Y-21662021D01*
X14172324Y-21662021D02*
X14191372Y-21652497D01*
X14343753Y-21833450D02*
X14353277Y-21842974D01*
X14353277Y-21842974D02*
X14343753Y-21852497D01*
X14343753Y-21852497D02*
X14334229Y-21842974D01*
X14334229Y-21842974D02*
X14343753Y-21833450D01*
X14343753Y-21833450D02*
X14343753Y-21852497D01*
X14467562Y-21738212D02*
X14448515Y-21728688D01*
X14448515Y-21728688D02*
X14438991Y-21719164D01*
X14438991Y-21719164D02*
X14429467Y-21700116D01*
X14429467Y-21700116D02*
X14429467Y-21690593D01*
X14429467Y-21690593D02*
X14438991Y-21671545D01*
X14438991Y-21671545D02*
X14448515Y-21662021D01*
X14448515Y-21662021D02*
X14467562Y-21652497D01*
X14467562Y-21652497D02*
X14505658Y-21652497D01*
X14505658Y-21652497D02*
X14524705Y-21662021D01*
X14524705Y-21662021D02*
X14534229Y-21671545D01*
X14534229Y-21671545D02*
X14543753Y-21690593D01*
X14543753Y-21690593D02*
X14543753Y-21700116D01*
X14543753Y-21700116D02*
X14534229Y-21719164D01*
X14534229Y-21719164D02*
X14524705Y-21728688D01*
X14524705Y-21728688D02*
X14505658Y-21738212D01*
X14505658Y-21738212D02*
X14467562Y-21738212D01*
X14467562Y-21738212D02*
X14448515Y-21747736D01*
X14448515Y-21747736D02*
X14438991Y-21757259D01*
X14438991Y-21757259D02*
X14429467Y-21776307D01*
X14429467Y-21776307D02*
X14429467Y-21814402D01*
X14429467Y-21814402D02*
X14438991Y-21833450D01*
X14438991Y-21833450D02*
X14448515Y-21842974D01*
X14448515Y-21842974D02*
X14467562Y-21852497D01*
X14467562Y-21852497D02*
X14505658Y-21852497D01*
X14505658Y-21852497D02*
X14524705Y-21842974D01*
X14524705Y-21842974D02*
X14534229Y-21833450D01*
X14534229Y-21833450D02*
X14543753Y-21814402D01*
X14543753Y-21814402D02*
X14543753Y-21776307D01*
X14543753Y-21776307D02*
X14534229Y-21757259D01*
X14534229Y-21757259D02*
X14524705Y-21747736D01*
X14524705Y-21747736D02*
X14505658Y-21738212D01*
X14734229Y-21852497D02*
X14619943Y-21852497D01*
X14677086Y-21852497D02*
X14677086Y-21652497D01*
X14677086Y-21652497D02*
X14658039Y-21681069D01*
X14658039Y-21681069D02*
X14638991Y-21700116D01*
X14638991Y-21700116D02*
X14619943Y-21709640D01*
X14800896Y-21652497D02*
X14924705Y-21652497D01*
X14924705Y-21652497D02*
X14858039Y-21728688D01*
X14858039Y-21728688D02*
X14886610Y-21728688D01*
X14886610Y-21728688D02*
X14905658Y-21738212D01*
X14905658Y-21738212D02*
X14915181Y-21747736D01*
X14915181Y-21747736D02*
X14924705Y-21766783D01*
X14924705Y-21766783D02*
X14924705Y-21814402D01*
X14924705Y-21814402D02*
X14915181Y-21833450D01*
X14915181Y-21833450D02*
X14905658Y-21842974D01*
X14905658Y-21842974D02*
X14886610Y-21852497D01*
X14886610Y-21852497D02*
X14829467Y-21852497D01*
X14829467Y-21852497D02*
X14810420Y-21842974D01*
X14810420Y-21842974D02*
X14800896Y-21833450D01*
X15010420Y-21852497D02*
X15010420Y-21719164D01*
X15010420Y-21738212D02*
X15019943Y-21728688D01*
X15019943Y-21728688D02*
X15038991Y-21719164D01*
X15038991Y-21719164D02*
X15067562Y-21719164D01*
X15067562Y-21719164D02*
X15086610Y-21728688D01*
X15086610Y-21728688D02*
X15096134Y-21747736D01*
X15096134Y-21747736D02*
X15096134Y-21852497D01*
X15096134Y-21747736D02*
X15105658Y-21728688D01*
X15105658Y-21728688D02*
X15124705Y-21719164D01*
X15124705Y-21719164D02*
X15153277Y-21719164D01*
X15153277Y-21719164D02*
X15172324Y-21728688D01*
X15172324Y-21728688D02*
X15181848Y-21747736D01*
X15181848Y-21747736D02*
X15181848Y-21852497D01*
X15277086Y-21852497D02*
X15277086Y-21719164D01*
X15277086Y-21738212D02*
X15286610Y-21728688D01*
X15286610Y-21728688D02*
X15305658Y-21719164D01*
X15305658Y-21719164D02*
X15334229Y-21719164D01*
X15334229Y-21719164D02*
X15353277Y-21728688D01*
X15353277Y-21728688D02*
X15362801Y-21747736D01*
X15362801Y-21747736D02*
X15362801Y-21852497D01*
X15362801Y-21747736D02*
X15372324Y-21728688D01*
X15372324Y-21728688D02*
X15391372Y-21719164D01*
X15391372Y-21719164D02*
X15419943Y-21719164D01*
X15419943Y-21719164D02*
X15438991Y-21728688D01*
X15438991Y-21728688D02*
X15448515Y-21747736D01*
X15448515Y-21747736D02*
X15448515Y-21852497D01*
X15838991Y-21642974D02*
X15667563Y-21900116D01*
X16096134Y-21652497D02*
X16115182Y-21652497D01*
X16115182Y-21652497D02*
X16134229Y-21662021D01*
X16134229Y-21662021D02*
X16143753Y-21671545D01*
X16143753Y-21671545D02*
X16153277Y-21690593D01*
X16153277Y-21690593D02*
X16162801Y-21728688D01*
X16162801Y-21728688D02*
X16162801Y-21776307D01*
X16162801Y-21776307D02*
X16153277Y-21814402D01*
X16153277Y-21814402D02*
X16143753Y-21833450D01*
X16143753Y-21833450D02*
X16134229Y-21842974D01*
X16134229Y-21842974D02*
X16115182Y-21852497D01*
X16115182Y-21852497D02*
X16096134Y-21852497D01*
X16096134Y-21852497D02*
X16077086Y-21842974D01*
X16077086Y-21842974D02*
X16067563Y-21833450D01*
X16067563Y-21833450D02*
X16058039Y-21814402D01*
X16058039Y-21814402D02*
X16048515Y-21776307D01*
X16048515Y-21776307D02*
X16048515Y-21728688D01*
X16048515Y-21728688D02*
X16058039Y-21690593D01*
X16058039Y-21690593D02*
X16067563Y-21671545D01*
X16067563Y-21671545D02*
X16077086Y-21662021D01*
X16077086Y-21662021D02*
X16096134Y-21652497D01*
X16248515Y-21833450D02*
X16258039Y-21842974D01*
X16258039Y-21842974D02*
X16248515Y-21852497D01*
X16248515Y-21852497D02*
X16238991Y-21842974D01*
X16238991Y-21842974D02*
X16248515Y-21833450D01*
X16248515Y-21833450D02*
X16248515Y-21852497D01*
X16381848Y-21652497D02*
X16400896Y-21652497D01*
X16400896Y-21652497D02*
X16419944Y-21662021D01*
X16419944Y-21662021D02*
X16429467Y-21671545D01*
X16429467Y-21671545D02*
X16438991Y-21690593D01*
X16438991Y-21690593D02*
X16448515Y-21728688D01*
X16448515Y-21728688D02*
X16448515Y-21776307D01*
X16448515Y-21776307D02*
X16438991Y-21814402D01*
X16438991Y-21814402D02*
X16429467Y-21833450D01*
X16429467Y-21833450D02*
X16419944Y-21842974D01*
X16419944Y-21842974D02*
X16400896Y-21852497D01*
X16400896Y-21852497D02*
X16381848Y-21852497D01*
X16381848Y-21852497D02*
X16362801Y-21842974D01*
X16362801Y-21842974D02*
X16353277Y-21833450D01*
X16353277Y-21833450D02*
X16343753Y-21814402D01*
X16343753Y-21814402D02*
X16334229Y-21776307D01*
X16334229Y-21776307D02*
X16334229Y-21728688D01*
X16334229Y-21728688D02*
X16343753Y-21690593D01*
X16343753Y-21690593D02*
X16353277Y-21671545D01*
X16353277Y-21671545D02*
X16362801Y-21662021D01*
X16362801Y-21662021D02*
X16381848Y-21652497D01*
X16515182Y-21652497D02*
X16638991Y-21652497D01*
X16638991Y-21652497D02*
X16572324Y-21728688D01*
X16572324Y-21728688D02*
X16600896Y-21728688D01*
X16600896Y-21728688D02*
X16619944Y-21738212D01*
X16619944Y-21738212D02*
X16629467Y-21747736D01*
X16629467Y-21747736D02*
X16638991Y-21766783D01*
X16638991Y-21766783D02*
X16638991Y-21814402D01*
X16638991Y-21814402D02*
X16629467Y-21833450D01*
X16629467Y-21833450D02*
X16619944Y-21842974D01*
X16619944Y-21842974D02*
X16600896Y-21852497D01*
X16600896Y-21852497D02*
X16543753Y-21852497D01*
X16543753Y-21852497D02*
X16524705Y-21842974D01*
X16524705Y-21842974D02*
X16515182Y-21833450D01*
X16715182Y-21671545D02*
X16724705Y-21662021D01*
X16724705Y-21662021D02*
X16743753Y-21652497D01*
X16743753Y-21652497D02*
X16791372Y-21652497D01*
X16791372Y-21652497D02*
X16810420Y-21662021D01*
X16810420Y-21662021D02*
X16819944Y-21671545D01*
X16819944Y-21671545D02*
X16829467Y-21690593D01*
X16829467Y-21690593D02*
X16829467Y-21709640D01*
X16829467Y-21709640D02*
X16819944Y-21738212D01*
X16819944Y-21738212D02*
X16705658Y-21852497D01*
X16705658Y-21852497D02*
X16829467Y-21852497D01*
X16953277Y-21652497D02*
X16972325Y-21652497D01*
X16972325Y-21652497D02*
X16991372Y-21662021D01*
X16991372Y-21662021D02*
X17000896Y-21671545D01*
X17000896Y-21671545D02*
X17010420Y-21690593D01*
X17010420Y-21690593D02*
X17019944Y-21728688D01*
X17019944Y-21728688D02*
X17019944Y-21776307D01*
X17019944Y-21776307D02*
X17010420Y-21814402D01*
X17010420Y-21814402D02*
X17000896Y-21833450D01*
X17000896Y-21833450D02*
X16991372Y-21842974D01*
X16991372Y-21842974D02*
X16972325Y-21852497D01*
X16972325Y-21852497D02*
X16953277Y-21852497D01*
X16953277Y-21852497D02*
X16934229Y-21842974D01*
X16934229Y-21842974D02*
X16924706Y-21833450D01*
X16924706Y-21833450D02*
X16915182Y-21814402D01*
X16915182Y-21814402D02*
X16905658Y-21776307D01*
X16905658Y-21776307D02*
X16905658Y-21728688D01*
X16905658Y-21728688D02*
X16915182Y-21690593D01*
X16915182Y-21690593D02*
X16924706Y-21671545D01*
X16924706Y-21671545D02*
X16934229Y-21662021D01*
X16934229Y-21662021D02*
X16953277Y-21652497D01*
X17096134Y-21652497D02*
X17096134Y-21690593D01*
X17172325Y-21652497D02*
X17172325Y-21690593D01*
X17467563Y-21928688D02*
X17458039Y-21919164D01*
X17458039Y-21919164D02*
X17438991Y-21890593D01*
X17438991Y-21890593D02*
X17429468Y-21871545D01*
X17429468Y-21871545D02*
X17419944Y-21842974D01*
X17419944Y-21842974D02*
X17410420Y-21795355D01*
X17410420Y-21795355D02*
X17410420Y-21757259D01*
X17410420Y-21757259D02*
X17419944Y-21709640D01*
X17419944Y-21709640D02*
X17429468Y-21681069D01*
X17429468Y-21681069D02*
X17438991Y-21662021D01*
X17438991Y-21662021D02*
X17458039Y-21633450D01*
X17458039Y-21633450D02*
X17467563Y-21623926D01*
X17534229Y-21671545D02*
X17543753Y-21662021D01*
X17543753Y-21662021D02*
X17562801Y-21652497D01*
X17562801Y-21652497D02*
X17610420Y-21652497D01*
X17610420Y-21652497D02*
X17629468Y-21662021D01*
X17629468Y-21662021D02*
X17638991Y-21671545D01*
X17638991Y-21671545D02*
X17648515Y-21690593D01*
X17648515Y-21690593D02*
X17648515Y-21709640D01*
X17648515Y-21709640D02*
X17638991Y-21738212D01*
X17638991Y-21738212D02*
X17524706Y-21852497D01*
X17524706Y-21852497D02*
X17648515Y-21852497D01*
X17743753Y-21852497D02*
X17781848Y-21852497D01*
X17781848Y-21852497D02*
X17800896Y-21842974D01*
X17800896Y-21842974D02*
X17810420Y-21833450D01*
X17810420Y-21833450D02*
X17829468Y-21804878D01*
X17829468Y-21804878D02*
X17838991Y-21766783D01*
X17838991Y-21766783D02*
X17838991Y-21690593D01*
X17838991Y-21690593D02*
X17829468Y-21671545D01*
X17829468Y-21671545D02*
X17819944Y-21662021D01*
X17819944Y-21662021D02*
X17800896Y-21652497D01*
X17800896Y-21652497D02*
X17762801Y-21652497D01*
X17762801Y-21652497D02*
X17743753Y-21662021D01*
X17743753Y-21662021D02*
X17734229Y-21671545D01*
X17734229Y-21671545D02*
X17724706Y-21690593D01*
X17724706Y-21690593D02*
X17724706Y-21738212D01*
X17724706Y-21738212D02*
X17734229Y-21757259D01*
X17734229Y-21757259D02*
X17743753Y-21766783D01*
X17743753Y-21766783D02*
X17762801Y-21776307D01*
X17762801Y-21776307D02*
X17800896Y-21776307D01*
X17800896Y-21776307D02*
X17819944Y-21766783D01*
X17819944Y-21766783D02*
X17829468Y-21757259D01*
X17829468Y-21757259D02*
X17838991Y-21738212D01*
X18077087Y-21852497D02*
X18077087Y-21652497D01*
X18162801Y-21852497D02*
X18162801Y-21747736D01*
X18162801Y-21747736D02*
X18153277Y-21728688D01*
X18153277Y-21728688D02*
X18134230Y-21719164D01*
X18134230Y-21719164D02*
X18105658Y-21719164D01*
X18105658Y-21719164D02*
X18086610Y-21728688D01*
X18086610Y-21728688D02*
X18077087Y-21738212D01*
X18286610Y-21852497D02*
X18267563Y-21842974D01*
X18267563Y-21842974D02*
X18258039Y-21833450D01*
X18258039Y-21833450D02*
X18248515Y-21814402D01*
X18248515Y-21814402D02*
X18248515Y-21757259D01*
X18248515Y-21757259D02*
X18258039Y-21738212D01*
X18258039Y-21738212D02*
X18267563Y-21728688D01*
X18267563Y-21728688D02*
X18286610Y-21719164D01*
X18286610Y-21719164D02*
X18315182Y-21719164D01*
X18315182Y-21719164D02*
X18334230Y-21728688D01*
X18334230Y-21728688D02*
X18343753Y-21738212D01*
X18343753Y-21738212D02*
X18353277Y-21757259D01*
X18353277Y-21757259D02*
X18353277Y-21814402D01*
X18353277Y-21814402D02*
X18343753Y-21833450D01*
X18343753Y-21833450D02*
X18334230Y-21842974D01*
X18334230Y-21842974D02*
X18315182Y-21852497D01*
X18315182Y-21852497D02*
X18286610Y-21852497D01*
X18467563Y-21852497D02*
X18448515Y-21842974D01*
X18448515Y-21842974D02*
X18438991Y-21823926D01*
X18438991Y-21823926D02*
X18438991Y-21652497D01*
X18619944Y-21842974D02*
X18600896Y-21852497D01*
X18600896Y-21852497D02*
X18562801Y-21852497D01*
X18562801Y-21852497D02*
X18543753Y-21842974D01*
X18543753Y-21842974D02*
X18534230Y-21823926D01*
X18534230Y-21823926D02*
X18534230Y-21747736D01*
X18534230Y-21747736D02*
X18543753Y-21728688D01*
X18543753Y-21728688D02*
X18562801Y-21719164D01*
X18562801Y-21719164D02*
X18600896Y-21719164D01*
X18600896Y-21719164D02*
X18619944Y-21728688D01*
X18619944Y-21728688D02*
X18629468Y-21747736D01*
X18629468Y-21747736D02*
X18629468Y-21766783D01*
X18629468Y-21766783D02*
X18534230Y-21785831D01*
X18705658Y-21842974D02*
X18724706Y-21852497D01*
X18724706Y-21852497D02*
X18762801Y-21852497D01*
X18762801Y-21852497D02*
X18781849Y-21842974D01*
X18781849Y-21842974D02*
X18791372Y-21823926D01*
X18791372Y-21823926D02*
X18791372Y-21814402D01*
X18791372Y-21814402D02*
X18781849Y-21795355D01*
X18781849Y-21795355D02*
X18762801Y-21785831D01*
X18762801Y-21785831D02*
X18734230Y-21785831D01*
X18734230Y-21785831D02*
X18715182Y-21776307D01*
X18715182Y-21776307D02*
X18705658Y-21757259D01*
X18705658Y-21757259D02*
X18705658Y-21747736D01*
X18705658Y-21747736D02*
X18715182Y-21728688D01*
X18715182Y-21728688D02*
X18734230Y-21719164D01*
X18734230Y-21719164D02*
X18762801Y-21719164D01*
X18762801Y-21719164D02*
X18781849Y-21728688D01*
X18858039Y-21928688D02*
X18867563Y-21919164D01*
X18867563Y-21919164D02*
X18886611Y-21890593D01*
X18886611Y-21890593D02*
X18896134Y-21871545D01*
X18896134Y-21871545D02*
X18905658Y-21842974D01*
X18905658Y-21842974D02*
X18915182Y-21795355D01*
X18915182Y-21795355D02*
X18915182Y-21757259D01*
X18915182Y-21757259D02*
X18905658Y-21709640D01*
X18905658Y-21709640D02*
X18896134Y-21681069D01*
X18896134Y-21681069D02*
X18886611Y-21662021D01*
X18886611Y-21662021D02*
X18867563Y-21633450D01*
X18867563Y-21633450D02*
X18858039Y-21623926D01*
D14*
X13842500Y-21975014D02*
X13842500Y-22075014D01*
X13792500Y-22025014D02*
X13892500Y-22025014D01*
D11*
X14258039Y-22116497D02*
X14143753Y-22116497D01*
X14200896Y-22116497D02*
X14200896Y-21916497D01*
X14200896Y-21916497D02*
X14181848Y-21945069D01*
X14181848Y-21945069D02*
X14162800Y-21964116D01*
X14162800Y-21964116D02*
X14143753Y-21973640D01*
X14343753Y-22097450D02*
X14353277Y-22106974D01*
X14353277Y-22106974D02*
X14343753Y-22116497D01*
X14343753Y-22116497D02*
X14334229Y-22106974D01*
X14334229Y-22106974D02*
X14343753Y-22097450D01*
X14343753Y-22097450D02*
X14343753Y-22116497D01*
X14477086Y-21916497D02*
X14496134Y-21916497D01*
X14496134Y-21916497D02*
X14515181Y-21926021D01*
X14515181Y-21926021D02*
X14524705Y-21935545D01*
X14524705Y-21935545D02*
X14534229Y-21954593D01*
X14534229Y-21954593D02*
X14543753Y-21992688D01*
X14543753Y-21992688D02*
X14543753Y-22040307D01*
X14543753Y-22040307D02*
X14534229Y-22078402D01*
X14534229Y-22078402D02*
X14524705Y-22097450D01*
X14524705Y-22097450D02*
X14515181Y-22106974D01*
X14515181Y-22106974D02*
X14496134Y-22116497D01*
X14496134Y-22116497D02*
X14477086Y-22116497D01*
X14477086Y-22116497D02*
X14458039Y-22106974D01*
X14458039Y-22106974D02*
X14448515Y-22097450D01*
X14448515Y-22097450D02*
X14438991Y-22078402D01*
X14438991Y-22078402D02*
X14429467Y-22040307D01*
X14429467Y-22040307D02*
X14429467Y-21992688D01*
X14429467Y-21992688D02*
X14438991Y-21954593D01*
X14438991Y-21954593D02*
X14448515Y-21935545D01*
X14448515Y-21935545D02*
X14458039Y-21926021D01*
X14458039Y-21926021D02*
X14477086Y-21916497D01*
X14667562Y-21916497D02*
X14686610Y-21916497D01*
X14686610Y-21916497D02*
X14705658Y-21926021D01*
X14705658Y-21926021D02*
X14715181Y-21935545D01*
X14715181Y-21935545D02*
X14724705Y-21954593D01*
X14724705Y-21954593D02*
X14734229Y-21992688D01*
X14734229Y-21992688D02*
X14734229Y-22040307D01*
X14734229Y-22040307D02*
X14724705Y-22078402D01*
X14724705Y-22078402D02*
X14715181Y-22097450D01*
X14715181Y-22097450D02*
X14705658Y-22106974D01*
X14705658Y-22106974D02*
X14686610Y-22116497D01*
X14686610Y-22116497D02*
X14667562Y-22116497D01*
X14667562Y-22116497D02*
X14648515Y-22106974D01*
X14648515Y-22106974D02*
X14638991Y-22097450D01*
X14638991Y-22097450D02*
X14629467Y-22078402D01*
X14629467Y-22078402D02*
X14619943Y-22040307D01*
X14619943Y-22040307D02*
X14619943Y-21992688D01*
X14619943Y-21992688D02*
X14629467Y-21954593D01*
X14629467Y-21954593D02*
X14638991Y-21935545D01*
X14638991Y-21935545D02*
X14648515Y-21926021D01*
X14648515Y-21926021D02*
X14667562Y-21916497D01*
X14858039Y-21916497D02*
X14877086Y-21916497D01*
X14877086Y-21916497D02*
X14896134Y-21926021D01*
X14896134Y-21926021D02*
X14905658Y-21935545D01*
X14905658Y-21935545D02*
X14915181Y-21954593D01*
X14915181Y-21954593D02*
X14924705Y-21992688D01*
X14924705Y-21992688D02*
X14924705Y-22040307D01*
X14924705Y-22040307D02*
X14915181Y-22078402D01*
X14915181Y-22078402D02*
X14905658Y-22097450D01*
X14905658Y-22097450D02*
X14896134Y-22106974D01*
X14896134Y-22106974D02*
X14877086Y-22116497D01*
X14877086Y-22116497D02*
X14858039Y-22116497D01*
X14858039Y-22116497D02*
X14838991Y-22106974D01*
X14838991Y-22106974D02*
X14829467Y-22097450D01*
X14829467Y-22097450D02*
X14819943Y-22078402D01*
X14819943Y-22078402D02*
X14810420Y-22040307D01*
X14810420Y-22040307D02*
X14810420Y-21992688D01*
X14810420Y-21992688D02*
X14819943Y-21954593D01*
X14819943Y-21954593D02*
X14829467Y-21935545D01*
X14829467Y-21935545D02*
X14838991Y-21926021D01*
X14838991Y-21926021D02*
X14858039Y-21916497D01*
X15010420Y-22116497D02*
X15010420Y-21983164D01*
X15010420Y-22002212D02*
X15019943Y-21992688D01*
X15019943Y-21992688D02*
X15038991Y-21983164D01*
X15038991Y-21983164D02*
X15067562Y-21983164D01*
X15067562Y-21983164D02*
X15086610Y-21992688D01*
X15086610Y-21992688D02*
X15096134Y-22011736D01*
X15096134Y-22011736D02*
X15096134Y-22116497D01*
X15096134Y-22011736D02*
X15105658Y-21992688D01*
X15105658Y-21992688D02*
X15124705Y-21983164D01*
X15124705Y-21983164D02*
X15153277Y-21983164D01*
X15153277Y-21983164D02*
X15172324Y-21992688D01*
X15172324Y-21992688D02*
X15181848Y-22011736D01*
X15181848Y-22011736D02*
X15181848Y-22116497D01*
X15277086Y-22116497D02*
X15277086Y-21983164D01*
X15277086Y-22002212D02*
X15286610Y-21992688D01*
X15286610Y-21992688D02*
X15305658Y-21983164D01*
X15305658Y-21983164D02*
X15334229Y-21983164D01*
X15334229Y-21983164D02*
X15353277Y-21992688D01*
X15353277Y-21992688D02*
X15362801Y-22011736D01*
X15362801Y-22011736D02*
X15362801Y-22116497D01*
X15362801Y-22011736D02*
X15372324Y-21992688D01*
X15372324Y-21992688D02*
X15391372Y-21983164D01*
X15391372Y-21983164D02*
X15419943Y-21983164D01*
X15419943Y-21983164D02*
X15438991Y-21992688D01*
X15438991Y-21992688D02*
X15448515Y-22011736D01*
X15448515Y-22011736D02*
X15448515Y-22116497D01*
X15838991Y-21906974D02*
X15667563Y-22164116D01*
X16096134Y-21916497D02*
X16115182Y-21916497D01*
X16115182Y-21916497D02*
X16134229Y-21926021D01*
X16134229Y-21926021D02*
X16143753Y-21935545D01*
X16143753Y-21935545D02*
X16153277Y-21954593D01*
X16153277Y-21954593D02*
X16162801Y-21992688D01*
X16162801Y-21992688D02*
X16162801Y-22040307D01*
X16162801Y-22040307D02*
X16153277Y-22078402D01*
X16153277Y-22078402D02*
X16143753Y-22097450D01*
X16143753Y-22097450D02*
X16134229Y-22106974D01*
X16134229Y-22106974D02*
X16115182Y-22116497D01*
X16115182Y-22116497D02*
X16096134Y-22116497D01*
X16096134Y-22116497D02*
X16077086Y-22106974D01*
X16077086Y-22106974D02*
X16067563Y-22097450D01*
X16067563Y-22097450D02*
X16058039Y-22078402D01*
X16058039Y-22078402D02*
X16048515Y-22040307D01*
X16048515Y-22040307D02*
X16048515Y-21992688D01*
X16048515Y-21992688D02*
X16058039Y-21954593D01*
X16058039Y-21954593D02*
X16067563Y-21935545D01*
X16067563Y-21935545D02*
X16077086Y-21926021D01*
X16077086Y-21926021D02*
X16096134Y-21916497D01*
X16248515Y-22097450D02*
X16258039Y-22106974D01*
X16258039Y-22106974D02*
X16248515Y-22116497D01*
X16248515Y-22116497D02*
X16238991Y-22106974D01*
X16238991Y-22106974D02*
X16248515Y-22097450D01*
X16248515Y-22097450D02*
X16248515Y-22116497D01*
X16381848Y-21916497D02*
X16400896Y-21916497D01*
X16400896Y-21916497D02*
X16419944Y-21926021D01*
X16419944Y-21926021D02*
X16429467Y-21935545D01*
X16429467Y-21935545D02*
X16438991Y-21954593D01*
X16438991Y-21954593D02*
X16448515Y-21992688D01*
X16448515Y-21992688D02*
X16448515Y-22040307D01*
X16448515Y-22040307D02*
X16438991Y-22078402D01*
X16438991Y-22078402D02*
X16429467Y-22097450D01*
X16429467Y-22097450D02*
X16419944Y-22106974D01*
X16419944Y-22106974D02*
X16400896Y-22116497D01*
X16400896Y-22116497D02*
X16381848Y-22116497D01*
X16381848Y-22116497D02*
X16362801Y-22106974D01*
X16362801Y-22106974D02*
X16353277Y-22097450D01*
X16353277Y-22097450D02*
X16343753Y-22078402D01*
X16343753Y-22078402D02*
X16334229Y-22040307D01*
X16334229Y-22040307D02*
X16334229Y-21992688D01*
X16334229Y-21992688D02*
X16343753Y-21954593D01*
X16343753Y-21954593D02*
X16353277Y-21935545D01*
X16353277Y-21935545D02*
X16362801Y-21926021D01*
X16362801Y-21926021D02*
X16381848Y-21916497D01*
X16515182Y-21916497D02*
X16638991Y-21916497D01*
X16638991Y-21916497D02*
X16572324Y-21992688D01*
X16572324Y-21992688D02*
X16600896Y-21992688D01*
X16600896Y-21992688D02*
X16619944Y-22002212D01*
X16619944Y-22002212D02*
X16629467Y-22011736D01*
X16629467Y-22011736D02*
X16638991Y-22030783D01*
X16638991Y-22030783D02*
X16638991Y-22078402D01*
X16638991Y-22078402D02*
X16629467Y-22097450D01*
X16629467Y-22097450D02*
X16619944Y-22106974D01*
X16619944Y-22106974D02*
X16600896Y-22116497D01*
X16600896Y-22116497D02*
X16543753Y-22116497D01*
X16543753Y-22116497D02*
X16524705Y-22106974D01*
X16524705Y-22106974D02*
X16515182Y-22097450D01*
X16734229Y-22116497D02*
X16772324Y-22116497D01*
X16772324Y-22116497D02*
X16791372Y-22106974D01*
X16791372Y-22106974D02*
X16800896Y-22097450D01*
X16800896Y-22097450D02*
X16819944Y-22068878D01*
X16819944Y-22068878D02*
X16829467Y-22030783D01*
X16829467Y-22030783D02*
X16829467Y-21954593D01*
X16829467Y-21954593D02*
X16819944Y-21935545D01*
X16819944Y-21935545D02*
X16810420Y-21926021D01*
X16810420Y-21926021D02*
X16791372Y-21916497D01*
X16791372Y-21916497D02*
X16753277Y-21916497D01*
X16753277Y-21916497D02*
X16734229Y-21926021D01*
X16734229Y-21926021D02*
X16724705Y-21935545D01*
X16724705Y-21935545D02*
X16715182Y-21954593D01*
X16715182Y-21954593D02*
X16715182Y-22002212D01*
X16715182Y-22002212D02*
X16724705Y-22021259D01*
X16724705Y-22021259D02*
X16734229Y-22030783D01*
X16734229Y-22030783D02*
X16753277Y-22040307D01*
X16753277Y-22040307D02*
X16791372Y-22040307D01*
X16791372Y-22040307D02*
X16810420Y-22030783D01*
X16810420Y-22030783D02*
X16819944Y-22021259D01*
X16819944Y-22021259D02*
X16829467Y-22002212D01*
X17000896Y-21983164D02*
X17000896Y-22116497D01*
X16953277Y-21906974D02*
X16905658Y-22049831D01*
X16905658Y-22049831D02*
X17029467Y-22049831D01*
X17096134Y-21916497D02*
X17096134Y-21954593D01*
X17172325Y-21916497D02*
X17172325Y-21954593D01*
X17467563Y-22192688D02*
X17458039Y-22183164D01*
X17458039Y-22183164D02*
X17438991Y-22154593D01*
X17438991Y-22154593D02*
X17429468Y-22135545D01*
X17429468Y-22135545D02*
X17419944Y-22106974D01*
X17419944Y-22106974D02*
X17410420Y-22059355D01*
X17410420Y-22059355D02*
X17410420Y-22021259D01*
X17410420Y-22021259D02*
X17419944Y-21973640D01*
X17419944Y-21973640D02*
X17429468Y-21945069D01*
X17429468Y-21945069D02*
X17438991Y-21926021D01*
X17438991Y-21926021D02*
X17458039Y-21897450D01*
X17458039Y-21897450D02*
X17467563Y-21887926D01*
X17638991Y-21916497D02*
X17543753Y-21916497D01*
X17543753Y-21916497D02*
X17534229Y-22011736D01*
X17534229Y-22011736D02*
X17543753Y-22002212D01*
X17543753Y-22002212D02*
X17562801Y-21992688D01*
X17562801Y-21992688D02*
X17610420Y-21992688D01*
X17610420Y-21992688D02*
X17629468Y-22002212D01*
X17629468Y-22002212D02*
X17638991Y-22011736D01*
X17638991Y-22011736D02*
X17648515Y-22030783D01*
X17648515Y-22030783D02*
X17648515Y-22078402D01*
X17648515Y-22078402D02*
X17638991Y-22097450D01*
X17638991Y-22097450D02*
X17629468Y-22106974D01*
X17629468Y-22106974D02*
X17610420Y-22116497D01*
X17610420Y-22116497D02*
X17562801Y-22116497D01*
X17562801Y-22116497D02*
X17543753Y-22106974D01*
X17543753Y-22106974D02*
X17534229Y-22097450D01*
X17886610Y-22116497D02*
X17886610Y-21916497D01*
X17972325Y-22116497D02*
X17972325Y-22011736D01*
X17972325Y-22011736D02*
X17962801Y-21992688D01*
X17962801Y-21992688D02*
X17943753Y-21983164D01*
X17943753Y-21983164D02*
X17915182Y-21983164D01*
X17915182Y-21983164D02*
X17896134Y-21992688D01*
X17896134Y-21992688D02*
X17886610Y-22002212D01*
X18096134Y-22116497D02*
X18077087Y-22106974D01*
X18077087Y-22106974D02*
X18067563Y-22097450D01*
X18067563Y-22097450D02*
X18058039Y-22078402D01*
X18058039Y-22078402D02*
X18058039Y-22021259D01*
X18058039Y-22021259D02*
X18067563Y-22002212D01*
X18067563Y-22002212D02*
X18077087Y-21992688D01*
X18077087Y-21992688D02*
X18096134Y-21983164D01*
X18096134Y-21983164D02*
X18124706Y-21983164D01*
X18124706Y-21983164D02*
X18143753Y-21992688D01*
X18143753Y-21992688D02*
X18153277Y-22002212D01*
X18153277Y-22002212D02*
X18162801Y-22021259D01*
X18162801Y-22021259D02*
X18162801Y-22078402D01*
X18162801Y-22078402D02*
X18153277Y-22097450D01*
X18153277Y-22097450D02*
X18143753Y-22106974D01*
X18143753Y-22106974D02*
X18124706Y-22116497D01*
X18124706Y-22116497D02*
X18096134Y-22116497D01*
X18277087Y-22116497D02*
X18258039Y-22106974D01*
X18258039Y-22106974D02*
X18248515Y-22087926D01*
X18248515Y-22087926D02*
X18248515Y-21916497D01*
X18429468Y-22106974D02*
X18410420Y-22116497D01*
X18410420Y-22116497D02*
X18372325Y-22116497D01*
X18372325Y-22116497D02*
X18353277Y-22106974D01*
X18353277Y-22106974D02*
X18343753Y-22087926D01*
X18343753Y-22087926D02*
X18343753Y-22011736D01*
X18343753Y-22011736D02*
X18353277Y-21992688D01*
X18353277Y-21992688D02*
X18372325Y-21983164D01*
X18372325Y-21983164D02*
X18410420Y-21983164D01*
X18410420Y-21983164D02*
X18429468Y-21992688D01*
X18429468Y-21992688D02*
X18438991Y-22011736D01*
X18438991Y-22011736D02*
X18438991Y-22030783D01*
X18438991Y-22030783D02*
X18343753Y-22049831D01*
X18515182Y-22106974D02*
X18534230Y-22116497D01*
X18534230Y-22116497D02*
X18572325Y-22116497D01*
X18572325Y-22116497D02*
X18591372Y-22106974D01*
X18591372Y-22106974D02*
X18600896Y-22087926D01*
X18600896Y-22087926D02*
X18600896Y-22078402D01*
X18600896Y-22078402D02*
X18591372Y-22059355D01*
X18591372Y-22059355D02*
X18572325Y-22049831D01*
X18572325Y-22049831D02*
X18543753Y-22049831D01*
X18543753Y-22049831D02*
X18524706Y-22040307D01*
X18524706Y-22040307D02*
X18515182Y-22021259D01*
X18515182Y-22021259D02*
X18515182Y-22011736D01*
X18515182Y-22011736D02*
X18524706Y-21992688D01*
X18524706Y-21992688D02*
X18543753Y-21983164D01*
X18543753Y-21983164D02*
X18572325Y-21983164D01*
X18572325Y-21983164D02*
X18591372Y-21992688D01*
X18838992Y-22040307D02*
X18991373Y-22040307D01*
X18915182Y-22116497D02*
X18915182Y-21964116D01*
X19267563Y-22002212D02*
X19248515Y-21992688D01*
X19248515Y-21992688D02*
X19238992Y-21983164D01*
X19238992Y-21983164D02*
X19229468Y-21964116D01*
X19229468Y-21964116D02*
X19229468Y-21954593D01*
X19229468Y-21954593D02*
X19238992Y-21935545D01*
X19238992Y-21935545D02*
X19248515Y-21926021D01*
X19248515Y-21926021D02*
X19267563Y-21916497D01*
X19267563Y-21916497D02*
X19305658Y-21916497D01*
X19305658Y-21916497D02*
X19324706Y-21926021D01*
X19324706Y-21926021D02*
X19334230Y-21935545D01*
X19334230Y-21935545D02*
X19343753Y-21954593D01*
X19343753Y-21954593D02*
X19343753Y-21964116D01*
X19343753Y-21964116D02*
X19334230Y-21983164D01*
X19334230Y-21983164D02*
X19324706Y-21992688D01*
X19324706Y-21992688D02*
X19305658Y-22002212D01*
X19305658Y-22002212D02*
X19267563Y-22002212D01*
X19267563Y-22002212D02*
X19248515Y-22011736D01*
X19248515Y-22011736D02*
X19238992Y-22021259D01*
X19238992Y-22021259D02*
X19229468Y-22040307D01*
X19229468Y-22040307D02*
X19229468Y-22078402D01*
X19229468Y-22078402D02*
X19238992Y-22097450D01*
X19238992Y-22097450D02*
X19248515Y-22106974D01*
X19248515Y-22106974D02*
X19267563Y-22116497D01*
X19267563Y-22116497D02*
X19305658Y-22116497D01*
X19305658Y-22116497D02*
X19324706Y-22106974D01*
X19324706Y-22106974D02*
X19334230Y-22097450D01*
X19334230Y-22097450D02*
X19343753Y-22078402D01*
X19343753Y-22078402D02*
X19343753Y-22040307D01*
X19343753Y-22040307D02*
X19334230Y-22021259D01*
X19334230Y-22021259D02*
X19324706Y-22011736D01*
X19324706Y-22011736D02*
X19305658Y-22002212D01*
X19572325Y-22106974D02*
X19591373Y-22116497D01*
X19591373Y-22116497D02*
X19629468Y-22116497D01*
X19629468Y-22116497D02*
X19648515Y-22106974D01*
X19648515Y-22106974D02*
X19658039Y-22087926D01*
X19658039Y-22087926D02*
X19658039Y-22078402D01*
X19658039Y-22078402D02*
X19648515Y-22059355D01*
X19648515Y-22059355D02*
X19629468Y-22049831D01*
X19629468Y-22049831D02*
X19600896Y-22049831D01*
X19600896Y-22049831D02*
X19581849Y-22040307D01*
X19581849Y-22040307D02*
X19572325Y-22021259D01*
X19572325Y-22021259D02*
X19572325Y-22011736D01*
X19572325Y-22011736D02*
X19581849Y-21992688D01*
X19581849Y-21992688D02*
X19600896Y-21983164D01*
X19600896Y-21983164D02*
X19629468Y-21983164D01*
X19629468Y-21983164D02*
X19648515Y-21992688D01*
X19772325Y-22116497D02*
X19753277Y-22106974D01*
X19753277Y-22106974D02*
X19743754Y-22087926D01*
X19743754Y-22087926D02*
X19743754Y-21916497D01*
X19877087Y-22116497D02*
X19858039Y-22106974D01*
X19858039Y-22106974D02*
X19848515Y-22097450D01*
X19848515Y-22097450D02*
X19838992Y-22078402D01*
X19838992Y-22078402D02*
X19838992Y-22021259D01*
X19838992Y-22021259D02*
X19848515Y-22002212D01*
X19848515Y-22002212D02*
X19858039Y-21992688D01*
X19858039Y-21992688D02*
X19877087Y-21983164D01*
X19877087Y-21983164D02*
X19905658Y-21983164D01*
X19905658Y-21983164D02*
X19924706Y-21992688D01*
X19924706Y-21992688D02*
X19934230Y-22002212D01*
X19934230Y-22002212D02*
X19943754Y-22021259D01*
X19943754Y-22021259D02*
X19943754Y-22078402D01*
X19943754Y-22078402D02*
X19934230Y-22097450D01*
X19934230Y-22097450D02*
X19924706Y-22106974D01*
X19924706Y-22106974D02*
X19905658Y-22116497D01*
X19905658Y-22116497D02*
X19877087Y-22116497D01*
X20000896Y-21983164D02*
X20077087Y-21983164D01*
X20029468Y-21916497D02*
X20029468Y-22087926D01*
X20029468Y-22087926D02*
X20038992Y-22106974D01*
X20038992Y-22106974D02*
X20058039Y-22116497D01*
X20058039Y-22116497D02*
X20077087Y-22116497D01*
X20134230Y-22106974D02*
X20153277Y-22116497D01*
X20153277Y-22116497D02*
X20191373Y-22116497D01*
X20191373Y-22116497D02*
X20210420Y-22106974D01*
X20210420Y-22106974D02*
X20219944Y-22087926D01*
X20219944Y-22087926D02*
X20219944Y-22078402D01*
X20219944Y-22078402D02*
X20210420Y-22059355D01*
X20210420Y-22059355D02*
X20191373Y-22049831D01*
X20191373Y-22049831D02*
X20162801Y-22049831D01*
X20162801Y-22049831D02*
X20143754Y-22040307D01*
X20143754Y-22040307D02*
X20134230Y-22021259D01*
X20134230Y-22021259D02*
X20134230Y-22011736D01*
X20134230Y-22011736D02*
X20143754Y-21992688D01*
X20143754Y-21992688D02*
X20162801Y-21983164D01*
X20162801Y-21983164D02*
X20191373Y-21983164D01*
X20191373Y-21983164D02*
X20210420Y-21992688D01*
X20286611Y-22192688D02*
X20296135Y-22183164D01*
X20296135Y-22183164D02*
X20315182Y-22154593D01*
X20315182Y-22154593D02*
X20324706Y-22135545D01*
X20324706Y-22135545D02*
X20334230Y-22106974D01*
X20334230Y-22106974D02*
X20343754Y-22059355D01*
X20343754Y-22059355D02*
X20343754Y-22021259D01*
X20343754Y-22021259D02*
X20334230Y-21973640D01*
X20334230Y-21973640D02*
X20324706Y-21945069D01*
X20324706Y-21945069D02*
X20315182Y-21926021D01*
X20315182Y-21926021D02*
X20296135Y-21897450D01*
X20296135Y-21897450D02*
X20286611Y-21887926D01*
D15*
X13873462Y-22334976D02*
X13873462Y-22243051D01*
X13781537Y-22243051D01*
X13781537Y-22334976D01*
X13873462Y-22334976D01*
D11*
X14258039Y-22380497D02*
X14143753Y-22380497D01*
X14200896Y-22380497D02*
X14200896Y-22180497D01*
X14200896Y-22180497D02*
X14181848Y-22209069D01*
X14181848Y-22209069D02*
X14162800Y-22228116D01*
X14162800Y-22228116D02*
X14143753Y-22237640D01*
X14343753Y-22361450D02*
X14353277Y-22370974D01*
X14353277Y-22370974D02*
X14343753Y-22380497D01*
X14343753Y-22380497D02*
X14334229Y-22370974D01*
X14334229Y-22370974D02*
X14343753Y-22361450D01*
X14343753Y-22361450D02*
X14343753Y-22380497D01*
X14419943Y-22180497D02*
X14543753Y-22180497D01*
X14543753Y-22180497D02*
X14477086Y-22256688D01*
X14477086Y-22256688D02*
X14505658Y-22256688D01*
X14505658Y-22256688D02*
X14524705Y-22266212D01*
X14524705Y-22266212D02*
X14534229Y-22275736D01*
X14534229Y-22275736D02*
X14543753Y-22294783D01*
X14543753Y-22294783D02*
X14543753Y-22342402D01*
X14543753Y-22342402D02*
X14534229Y-22361450D01*
X14534229Y-22361450D02*
X14524705Y-22370974D01*
X14524705Y-22370974D02*
X14505658Y-22380497D01*
X14505658Y-22380497D02*
X14448515Y-22380497D01*
X14448515Y-22380497D02*
X14429467Y-22370974D01*
X14429467Y-22370974D02*
X14419943Y-22361450D01*
X14667562Y-22180497D02*
X14686610Y-22180497D01*
X14686610Y-22180497D02*
X14705658Y-22190021D01*
X14705658Y-22190021D02*
X14715181Y-22199545D01*
X14715181Y-22199545D02*
X14724705Y-22218593D01*
X14724705Y-22218593D02*
X14734229Y-22256688D01*
X14734229Y-22256688D02*
X14734229Y-22304307D01*
X14734229Y-22304307D02*
X14724705Y-22342402D01*
X14724705Y-22342402D02*
X14715181Y-22361450D01*
X14715181Y-22361450D02*
X14705658Y-22370974D01*
X14705658Y-22370974D02*
X14686610Y-22380497D01*
X14686610Y-22380497D02*
X14667562Y-22380497D01*
X14667562Y-22380497D02*
X14648515Y-22370974D01*
X14648515Y-22370974D02*
X14638991Y-22361450D01*
X14638991Y-22361450D02*
X14629467Y-22342402D01*
X14629467Y-22342402D02*
X14619943Y-22304307D01*
X14619943Y-22304307D02*
X14619943Y-22256688D01*
X14619943Y-22256688D02*
X14629467Y-22218593D01*
X14629467Y-22218593D02*
X14638991Y-22199545D01*
X14638991Y-22199545D02*
X14648515Y-22190021D01*
X14648515Y-22190021D02*
X14667562Y-22180497D01*
X14858039Y-22180497D02*
X14877086Y-22180497D01*
X14877086Y-22180497D02*
X14896134Y-22190021D01*
X14896134Y-22190021D02*
X14905658Y-22199545D01*
X14905658Y-22199545D02*
X14915181Y-22218593D01*
X14915181Y-22218593D02*
X14924705Y-22256688D01*
X14924705Y-22256688D02*
X14924705Y-22304307D01*
X14924705Y-22304307D02*
X14915181Y-22342402D01*
X14915181Y-22342402D02*
X14905658Y-22361450D01*
X14905658Y-22361450D02*
X14896134Y-22370974D01*
X14896134Y-22370974D02*
X14877086Y-22380497D01*
X14877086Y-22380497D02*
X14858039Y-22380497D01*
X14858039Y-22380497D02*
X14838991Y-22370974D01*
X14838991Y-22370974D02*
X14829467Y-22361450D01*
X14829467Y-22361450D02*
X14819943Y-22342402D01*
X14819943Y-22342402D02*
X14810420Y-22304307D01*
X14810420Y-22304307D02*
X14810420Y-22256688D01*
X14810420Y-22256688D02*
X14819943Y-22218593D01*
X14819943Y-22218593D02*
X14829467Y-22199545D01*
X14829467Y-22199545D02*
X14838991Y-22190021D01*
X14838991Y-22190021D02*
X14858039Y-22180497D01*
X15010420Y-22380497D02*
X15010420Y-22247164D01*
X15010420Y-22266212D02*
X15019943Y-22256688D01*
X15019943Y-22256688D02*
X15038991Y-22247164D01*
X15038991Y-22247164D02*
X15067562Y-22247164D01*
X15067562Y-22247164D02*
X15086610Y-22256688D01*
X15086610Y-22256688D02*
X15096134Y-22275736D01*
X15096134Y-22275736D02*
X15096134Y-22380497D01*
X15096134Y-22275736D02*
X15105658Y-22256688D01*
X15105658Y-22256688D02*
X15124705Y-22247164D01*
X15124705Y-22247164D02*
X15153277Y-22247164D01*
X15153277Y-22247164D02*
X15172324Y-22256688D01*
X15172324Y-22256688D02*
X15181848Y-22275736D01*
X15181848Y-22275736D02*
X15181848Y-22380497D01*
X15277086Y-22380497D02*
X15277086Y-22247164D01*
X15277086Y-22266212D02*
X15286610Y-22256688D01*
X15286610Y-22256688D02*
X15305658Y-22247164D01*
X15305658Y-22247164D02*
X15334229Y-22247164D01*
X15334229Y-22247164D02*
X15353277Y-22256688D01*
X15353277Y-22256688D02*
X15362801Y-22275736D01*
X15362801Y-22275736D02*
X15362801Y-22380497D01*
X15362801Y-22275736D02*
X15372324Y-22256688D01*
X15372324Y-22256688D02*
X15391372Y-22247164D01*
X15391372Y-22247164D02*
X15419943Y-22247164D01*
X15419943Y-22247164D02*
X15438991Y-22256688D01*
X15438991Y-22256688D02*
X15448515Y-22275736D01*
X15448515Y-22275736D02*
X15448515Y-22380497D01*
X15838991Y-22170974D02*
X15667563Y-22428116D01*
X16096134Y-22180497D02*
X16115182Y-22180497D01*
X16115182Y-22180497D02*
X16134229Y-22190021D01*
X16134229Y-22190021D02*
X16143753Y-22199545D01*
X16143753Y-22199545D02*
X16153277Y-22218593D01*
X16153277Y-22218593D02*
X16162801Y-22256688D01*
X16162801Y-22256688D02*
X16162801Y-22304307D01*
X16162801Y-22304307D02*
X16153277Y-22342402D01*
X16153277Y-22342402D02*
X16143753Y-22361450D01*
X16143753Y-22361450D02*
X16134229Y-22370974D01*
X16134229Y-22370974D02*
X16115182Y-22380497D01*
X16115182Y-22380497D02*
X16096134Y-22380497D01*
X16096134Y-22380497D02*
X16077086Y-22370974D01*
X16077086Y-22370974D02*
X16067563Y-22361450D01*
X16067563Y-22361450D02*
X16058039Y-22342402D01*
X16058039Y-22342402D02*
X16048515Y-22304307D01*
X16048515Y-22304307D02*
X16048515Y-22256688D01*
X16048515Y-22256688D02*
X16058039Y-22218593D01*
X16058039Y-22218593D02*
X16067563Y-22199545D01*
X16067563Y-22199545D02*
X16077086Y-22190021D01*
X16077086Y-22190021D02*
X16096134Y-22180497D01*
X16248515Y-22361450D02*
X16258039Y-22370974D01*
X16258039Y-22370974D02*
X16248515Y-22380497D01*
X16248515Y-22380497D02*
X16238991Y-22370974D01*
X16238991Y-22370974D02*
X16248515Y-22361450D01*
X16248515Y-22361450D02*
X16248515Y-22380497D01*
X16381848Y-22180497D02*
X16400896Y-22180497D01*
X16400896Y-22180497D02*
X16419944Y-22190021D01*
X16419944Y-22190021D02*
X16429467Y-22199545D01*
X16429467Y-22199545D02*
X16438991Y-22218593D01*
X16438991Y-22218593D02*
X16448515Y-22256688D01*
X16448515Y-22256688D02*
X16448515Y-22304307D01*
X16448515Y-22304307D02*
X16438991Y-22342402D01*
X16438991Y-22342402D02*
X16429467Y-22361450D01*
X16429467Y-22361450D02*
X16419944Y-22370974D01*
X16419944Y-22370974D02*
X16400896Y-22380497D01*
X16400896Y-22380497D02*
X16381848Y-22380497D01*
X16381848Y-22380497D02*
X16362801Y-22370974D01*
X16362801Y-22370974D02*
X16353277Y-22361450D01*
X16353277Y-22361450D02*
X16343753Y-22342402D01*
X16343753Y-22342402D02*
X16334229Y-22304307D01*
X16334229Y-22304307D02*
X16334229Y-22256688D01*
X16334229Y-22256688D02*
X16343753Y-22218593D01*
X16343753Y-22218593D02*
X16353277Y-22199545D01*
X16353277Y-22199545D02*
X16362801Y-22190021D01*
X16362801Y-22190021D02*
X16381848Y-22180497D01*
X16629467Y-22180497D02*
X16534229Y-22180497D01*
X16534229Y-22180497D02*
X16524705Y-22275736D01*
X16524705Y-22275736D02*
X16534229Y-22266212D01*
X16534229Y-22266212D02*
X16553277Y-22256688D01*
X16553277Y-22256688D02*
X16600896Y-22256688D01*
X16600896Y-22256688D02*
X16619944Y-22266212D01*
X16619944Y-22266212D02*
X16629467Y-22275736D01*
X16629467Y-22275736D02*
X16638991Y-22294783D01*
X16638991Y-22294783D02*
X16638991Y-22342402D01*
X16638991Y-22342402D02*
X16629467Y-22361450D01*
X16629467Y-22361450D02*
X16619944Y-22370974D01*
X16619944Y-22370974D02*
X16600896Y-22380497D01*
X16600896Y-22380497D02*
X16553277Y-22380497D01*
X16553277Y-22380497D02*
X16534229Y-22370974D01*
X16534229Y-22370974D02*
X16524705Y-22361450D01*
X16829467Y-22380497D02*
X16715182Y-22380497D01*
X16772324Y-22380497D02*
X16772324Y-22180497D01*
X16772324Y-22180497D02*
X16753277Y-22209069D01*
X16753277Y-22209069D02*
X16734229Y-22228116D01*
X16734229Y-22228116D02*
X16715182Y-22237640D01*
X16905658Y-22199545D02*
X16915182Y-22190021D01*
X16915182Y-22190021D02*
X16934229Y-22180497D01*
X16934229Y-22180497D02*
X16981848Y-22180497D01*
X16981848Y-22180497D02*
X17000896Y-22190021D01*
X17000896Y-22190021D02*
X17010420Y-22199545D01*
X17010420Y-22199545D02*
X17019944Y-22218593D01*
X17019944Y-22218593D02*
X17019944Y-22237640D01*
X17019944Y-22237640D02*
X17010420Y-22266212D01*
X17010420Y-22266212D02*
X16896134Y-22380497D01*
X16896134Y-22380497D02*
X17019944Y-22380497D01*
X17096134Y-22180497D02*
X17096134Y-22218593D01*
X17172325Y-22180497D02*
X17172325Y-22218593D01*
X17467563Y-22456688D02*
X17458039Y-22447164D01*
X17458039Y-22447164D02*
X17438991Y-22418593D01*
X17438991Y-22418593D02*
X17429468Y-22399545D01*
X17429468Y-22399545D02*
X17419944Y-22370974D01*
X17419944Y-22370974D02*
X17410420Y-22323355D01*
X17410420Y-22323355D02*
X17410420Y-22285259D01*
X17410420Y-22285259D02*
X17419944Y-22237640D01*
X17419944Y-22237640D02*
X17429468Y-22209069D01*
X17429468Y-22209069D02*
X17438991Y-22190021D01*
X17438991Y-22190021D02*
X17458039Y-22161450D01*
X17458039Y-22161450D02*
X17467563Y-22151926D01*
X17534229Y-22199545D02*
X17543753Y-22190021D01*
X17543753Y-22190021D02*
X17562801Y-22180497D01*
X17562801Y-22180497D02*
X17610420Y-22180497D01*
X17610420Y-22180497D02*
X17629468Y-22190021D01*
X17629468Y-22190021D02*
X17638991Y-22199545D01*
X17638991Y-22199545D02*
X17648515Y-22218593D01*
X17648515Y-22218593D02*
X17648515Y-22237640D01*
X17648515Y-22237640D02*
X17638991Y-22266212D01*
X17638991Y-22266212D02*
X17524706Y-22380497D01*
X17524706Y-22380497D02*
X17648515Y-22380497D01*
X17886610Y-22380497D02*
X17886610Y-22180497D01*
X17972325Y-22380497D02*
X17972325Y-22275736D01*
X17972325Y-22275736D02*
X17962801Y-22256688D01*
X17962801Y-22256688D02*
X17943753Y-22247164D01*
X17943753Y-22247164D02*
X17915182Y-22247164D01*
X17915182Y-22247164D02*
X17896134Y-22256688D01*
X17896134Y-22256688D02*
X17886610Y-22266212D01*
X18096134Y-22380497D02*
X18077087Y-22370974D01*
X18077087Y-22370974D02*
X18067563Y-22361450D01*
X18067563Y-22361450D02*
X18058039Y-22342402D01*
X18058039Y-22342402D02*
X18058039Y-22285259D01*
X18058039Y-22285259D02*
X18067563Y-22266212D01*
X18067563Y-22266212D02*
X18077087Y-22256688D01*
X18077087Y-22256688D02*
X18096134Y-22247164D01*
X18096134Y-22247164D02*
X18124706Y-22247164D01*
X18124706Y-22247164D02*
X18143753Y-22256688D01*
X18143753Y-22256688D02*
X18153277Y-22266212D01*
X18153277Y-22266212D02*
X18162801Y-22285259D01*
X18162801Y-22285259D02*
X18162801Y-22342402D01*
X18162801Y-22342402D02*
X18153277Y-22361450D01*
X18153277Y-22361450D02*
X18143753Y-22370974D01*
X18143753Y-22370974D02*
X18124706Y-22380497D01*
X18124706Y-22380497D02*
X18096134Y-22380497D01*
X18277087Y-22380497D02*
X18258039Y-22370974D01*
X18258039Y-22370974D02*
X18248515Y-22351926D01*
X18248515Y-22351926D02*
X18248515Y-22180497D01*
X18429468Y-22370974D02*
X18410420Y-22380497D01*
X18410420Y-22380497D02*
X18372325Y-22380497D01*
X18372325Y-22380497D02*
X18353277Y-22370974D01*
X18353277Y-22370974D02*
X18343753Y-22351926D01*
X18343753Y-22351926D02*
X18343753Y-22275736D01*
X18343753Y-22275736D02*
X18353277Y-22256688D01*
X18353277Y-22256688D02*
X18372325Y-22247164D01*
X18372325Y-22247164D02*
X18410420Y-22247164D01*
X18410420Y-22247164D02*
X18429468Y-22256688D01*
X18429468Y-22256688D02*
X18438991Y-22275736D01*
X18438991Y-22275736D02*
X18438991Y-22294783D01*
X18438991Y-22294783D02*
X18343753Y-22313831D01*
X18515182Y-22370974D02*
X18534230Y-22380497D01*
X18534230Y-22380497D02*
X18572325Y-22380497D01*
X18572325Y-22380497D02*
X18591372Y-22370974D01*
X18591372Y-22370974D02*
X18600896Y-22351926D01*
X18600896Y-22351926D02*
X18600896Y-22342402D01*
X18600896Y-22342402D02*
X18591372Y-22323355D01*
X18591372Y-22323355D02*
X18572325Y-22313831D01*
X18572325Y-22313831D02*
X18543753Y-22313831D01*
X18543753Y-22313831D02*
X18524706Y-22304307D01*
X18524706Y-22304307D02*
X18515182Y-22285259D01*
X18515182Y-22285259D02*
X18515182Y-22275736D01*
X18515182Y-22275736D02*
X18524706Y-22256688D01*
X18524706Y-22256688D02*
X18543753Y-22247164D01*
X18543753Y-22247164D02*
X18572325Y-22247164D01*
X18572325Y-22247164D02*
X18591372Y-22256688D01*
X18667563Y-22456688D02*
X18677087Y-22447164D01*
X18677087Y-22447164D02*
X18696134Y-22418593D01*
X18696134Y-22418593D02*
X18705658Y-22399545D01*
X18705658Y-22399545D02*
X18715182Y-22370974D01*
X18715182Y-22370974D02*
X18724706Y-22323355D01*
X18724706Y-22323355D02*
X18724706Y-22285259D01*
X18724706Y-22285259D02*
X18715182Y-22237640D01*
X18715182Y-22237640D02*
X18705658Y-22209069D01*
X18705658Y-22209069D02*
X18696134Y-22190021D01*
X18696134Y-22190021D02*
X18677087Y-22161450D01*
X18677087Y-22161450D02*
X18667563Y-22151926D01*
D10*
X13817500Y-22628014D02*
X13892500Y-22553014D01*
X13817500Y-22478014D01*
X13742500Y-22553014D01*
X13817500Y-22628014D01*
D11*
X14258039Y-22644497D02*
X14143753Y-22644497D01*
X14200896Y-22644497D02*
X14200896Y-22444497D01*
X14200896Y-22444497D02*
X14181848Y-22473069D01*
X14181848Y-22473069D02*
X14162800Y-22492116D01*
X14162800Y-22492116D02*
X14143753Y-22501640D01*
X14343753Y-22625450D02*
X14353277Y-22634974D01*
X14353277Y-22634974D02*
X14343753Y-22644497D01*
X14343753Y-22644497D02*
X14334229Y-22634974D01*
X14334229Y-22634974D02*
X14343753Y-22625450D01*
X14343753Y-22625450D02*
X14343753Y-22644497D01*
X14534229Y-22444497D02*
X14438991Y-22444497D01*
X14438991Y-22444497D02*
X14429467Y-22539735D01*
X14429467Y-22539735D02*
X14438991Y-22530212D01*
X14438991Y-22530212D02*
X14458039Y-22520688D01*
X14458039Y-22520688D02*
X14505658Y-22520688D01*
X14505658Y-22520688D02*
X14524705Y-22530212D01*
X14524705Y-22530212D02*
X14534229Y-22539735D01*
X14534229Y-22539735D02*
X14543753Y-22558783D01*
X14543753Y-22558783D02*
X14543753Y-22606402D01*
X14543753Y-22606402D02*
X14534229Y-22625450D01*
X14534229Y-22625450D02*
X14524705Y-22634974D01*
X14524705Y-22634974D02*
X14505658Y-22644497D01*
X14505658Y-22644497D02*
X14458039Y-22644497D01*
X14458039Y-22644497D02*
X14438991Y-22634974D01*
X14438991Y-22634974D02*
X14429467Y-22625450D01*
X14667562Y-22444497D02*
X14686610Y-22444497D01*
X14686610Y-22444497D02*
X14705658Y-22454021D01*
X14705658Y-22454021D02*
X14715181Y-22463545D01*
X14715181Y-22463545D02*
X14724705Y-22482593D01*
X14724705Y-22482593D02*
X14734229Y-22520688D01*
X14734229Y-22520688D02*
X14734229Y-22568307D01*
X14734229Y-22568307D02*
X14724705Y-22606402D01*
X14724705Y-22606402D02*
X14715181Y-22625450D01*
X14715181Y-22625450D02*
X14705658Y-22634974D01*
X14705658Y-22634974D02*
X14686610Y-22644497D01*
X14686610Y-22644497D02*
X14667562Y-22644497D01*
X14667562Y-22644497D02*
X14648515Y-22634974D01*
X14648515Y-22634974D02*
X14638991Y-22625450D01*
X14638991Y-22625450D02*
X14629467Y-22606402D01*
X14629467Y-22606402D02*
X14619943Y-22568307D01*
X14619943Y-22568307D02*
X14619943Y-22520688D01*
X14619943Y-22520688D02*
X14629467Y-22482593D01*
X14629467Y-22482593D02*
X14638991Y-22463545D01*
X14638991Y-22463545D02*
X14648515Y-22454021D01*
X14648515Y-22454021D02*
X14667562Y-22444497D01*
X14858039Y-22444497D02*
X14877086Y-22444497D01*
X14877086Y-22444497D02*
X14896134Y-22454021D01*
X14896134Y-22454021D02*
X14905658Y-22463545D01*
X14905658Y-22463545D02*
X14915181Y-22482593D01*
X14915181Y-22482593D02*
X14924705Y-22520688D01*
X14924705Y-22520688D02*
X14924705Y-22568307D01*
X14924705Y-22568307D02*
X14915181Y-22606402D01*
X14915181Y-22606402D02*
X14905658Y-22625450D01*
X14905658Y-22625450D02*
X14896134Y-22634974D01*
X14896134Y-22634974D02*
X14877086Y-22644497D01*
X14877086Y-22644497D02*
X14858039Y-22644497D01*
X14858039Y-22644497D02*
X14838991Y-22634974D01*
X14838991Y-22634974D02*
X14829467Y-22625450D01*
X14829467Y-22625450D02*
X14819943Y-22606402D01*
X14819943Y-22606402D02*
X14810420Y-22568307D01*
X14810420Y-22568307D02*
X14810420Y-22520688D01*
X14810420Y-22520688D02*
X14819943Y-22482593D01*
X14819943Y-22482593D02*
X14829467Y-22463545D01*
X14829467Y-22463545D02*
X14838991Y-22454021D01*
X14838991Y-22454021D02*
X14858039Y-22444497D01*
X15010420Y-22644497D02*
X15010420Y-22511164D01*
X15010420Y-22530212D02*
X15019943Y-22520688D01*
X15019943Y-22520688D02*
X15038991Y-22511164D01*
X15038991Y-22511164D02*
X15067562Y-22511164D01*
X15067562Y-22511164D02*
X15086610Y-22520688D01*
X15086610Y-22520688D02*
X15096134Y-22539735D01*
X15096134Y-22539735D02*
X15096134Y-22644497D01*
X15096134Y-22539735D02*
X15105658Y-22520688D01*
X15105658Y-22520688D02*
X15124705Y-22511164D01*
X15124705Y-22511164D02*
X15153277Y-22511164D01*
X15153277Y-22511164D02*
X15172324Y-22520688D01*
X15172324Y-22520688D02*
X15181848Y-22539735D01*
X15181848Y-22539735D02*
X15181848Y-22644497D01*
X15277086Y-22644497D02*
X15277086Y-22511164D01*
X15277086Y-22530212D02*
X15286610Y-22520688D01*
X15286610Y-22520688D02*
X15305658Y-22511164D01*
X15305658Y-22511164D02*
X15334229Y-22511164D01*
X15334229Y-22511164D02*
X15353277Y-22520688D01*
X15353277Y-22520688D02*
X15362801Y-22539735D01*
X15362801Y-22539735D02*
X15362801Y-22644497D01*
X15362801Y-22539735D02*
X15372324Y-22520688D01*
X15372324Y-22520688D02*
X15391372Y-22511164D01*
X15391372Y-22511164D02*
X15419943Y-22511164D01*
X15419943Y-22511164D02*
X15438991Y-22520688D01*
X15438991Y-22520688D02*
X15448515Y-22539735D01*
X15448515Y-22539735D02*
X15448515Y-22644497D01*
X15838991Y-22434974D02*
X15667563Y-22692116D01*
X16096134Y-22444497D02*
X16115182Y-22444497D01*
X16115182Y-22444497D02*
X16134229Y-22454021D01*
X16134229Y-22454021D02*
X16143753Y-22463545D01*
X16143753Y-22463545D02*
X16153277Y-22482593D01*
X16153277Y-22482593D02*
X16162801Y-22520688D01*
X16162801Y-22520688D02*
X16162801Y-22568307D01*
X16162801Y-22568307D02*
X16153277Y-22606402D01*
X16153277Y-22606402D02*
X16143753Y-22625450D01*
X16143753Y-22625450D02*
X16134229Y-22634974D01*
X16134229Y-22634974D02*
X16115182Y-22644497D01*
X16115182Y-22644497D02*
X16096134Y-22644497D01*
X16096134Y-22644497D02*
X16077086Y-22634974D01*
X16077086Y-22634974D02*
X16067563Y-22625450D01*
X16067563Y-22625450D02*
X16058039Y-22606402D01*
X16058039Y-22606402D02*
X16048515Y-22568307D01*
X16048515Y-22568307D02*
X16048515Y-22520688D01*
X16048515Y-22520688D02*
X16058039Y-22482593D01*
X16058039Y-22482593D02*
X16067563Y-22463545D01*
X16067563Y-22463545D02*
X16077086Y-22454021D01*
X16077086Y-22454021D02*
X16096134Y-22444497D01*
X16248515Y-22625450D02*
X16258039Y-22634974D01*
X16258039Y-22634974D02*
X16248515Y-22644497D01*
X16248515Y-22644497D02*
X16238991Y-22634974D01*
X16238991Y-22634974D02*
X16248515Y-22625450D01*
X16248515Y-22625450D02*
X16248515Y-22644497D01*
X16381848Y-22444497D02*
X16400896Y-22444497D01*
X16400896Y-22444497D02*
X16419944Y-22454021D01*
X16419944Y-22454021D02*
X16429467Y-22463545D01*
X16429467Y-22463545D02*
X16438991Y-22482593D01*
X16438991Y-22482593D02*
X16448515Y-22520688D01*
X16448515Y-22520688D02*
X16448515Y-22568307D01*
X16448515Y-22568307D02*
X16438991Y-22606402D01*
X16438991Y-22606402D02*
X16429467Y-22625450D01*
X16429467Y-22625450D02*
X16419944Y-22634974D01*
X16419944Y-22634974D02*
X16400896Y-22644497D01*
X16400896Y-22644497D02*
X16381848Y-22644497D01*
X16381848Y-22644497D02*
X16362801Y-22634974D01*
X16362801Y-22634974D02*
X16353277Y-22625450D01*
X16353277Y-22625450D02*
X16343753Y-22606402D01*
X16343753Y-22606402D02*
X16334229Y-22568307D01*
X16334229Y-22568307D02*
X16334229Y-22520688D01*
X16334229Y-22520688D02*
X16343753Y-22482593D01*
X16343753Y-22482593D02*
X16353277Y-22463545D01*
X16353277Y-22463545D02*
X16362801Y-22454021D01*
X16362801Y-22454021D02*
X16381848Y-22444497D01*
X16629467Y-22444497D02*
X16534229Y-22444497D01*
X16534229Y-22444497D02*
X16524705Y-22539735D01*
X16524705Y-22539735D02*
X16534229Y-22530212D01*
X16534229Y-22530212D02*
X16553277Y-22520688D01*
X16553277Y-22520688D02*
X16600896Y-22520688D01*
X16600896Y-22520688D02*
X16619944Y-22530212D01*
X16619944Y-22530212D02*
X16629467Y-22539735D01*
X16629467Y-22539735D02*
X16638991Y-22558783D01*
X16638991Y-22558783D02*
X16638991Y-22606402D01*
X16638991Y-22606402D02*
X16629467Y-22625450D01*
X16629467Y-22625450D02*
X16619944Y-22634974D01*
X16619944Y-22634974D02*
X16600896Y-22644497D01*
X16600896Y-22644497D02*
X16553277Y-22644497D01*
X16553277Y-22644497D02*
X16534229Y-22634974D01*
X16534229Y-22634974D02*
X16524705Y-22625450D01*
X16734229Y-22644497D02*
X16772324Y-22644497D01*
X16772324Y-22644497D02*
X16791372Y-22634974D01*
X16791372Y-22634974D02*
X16800896Y-22625450D01*
X16800896Y-22625450D02*
X16819944Y-22596878D01*
X16819944Y-22596878D02*
X16829467Y-22558783D01*
X16829467Y-22558783D02*
X16829467Y-22482593D01*
X16829467Y-22482593D02*
X16819944Y-22463545D01*
X16819944Y-22463545D02*
X16810420Y-22454021D01*
X16810420Y-22454021D02*
X16791372Y-22444497D01*
X16791372Y-22444497D02*
X16753277Y-22444497D01*
X16753277Y-22444497D02*
X16734229Y-22454021D01*
X16734229Y-22454021D02*
X16724705Y-22463545D01*
X16724705Y-22463545D02*
X16715182Y-22482593D01*
X16715182Y-22482593D02*
X16715182Y-22530212D01*
X16715182Y-22530212D02*
X16724705Y-22549259D01*
X16724705Y-22549259D02*
X16734229Y-22558783D01*
X16734229Y-22558783D02*
X16753277Y-22568307D01*
X16753277Y-22568307D02*
X16791372Y-22568307D01*
X16791372Y-22568307D02*
X16810420Y-22558783D01*
X16810420Y-22558783D02*
X16819944Y-22549259D01*
X16819944Y-22549259D02*
X16829467Y-22530212D01*
X17019944Y-22644497D02*
X16905658Y-22644497D01*
X16962801Y-22644497D02*
X16962801Y-22444497D01*
X16962801Y-22444497D02*
X16943753Y-22473069D01*
X16943753Y-22473069D02*
X16924706Y-22492116D01*
X16924706Y-22492116D02*
X16905658Y-22501640D01*
X17096134Y-22444497D02*
X17096134Y-22482593D01*
X17172325Y-22444497D02*
X17172325Y-22482593D01*
X17467563Y-22720688D02*
X17458039Y-22711164D01*
X17458039Y-22711164D02*
X17438991Y-22682593D01*
X17438991Y-22682593D02*
X17429468Y-22663545D01*
X17429468Y-22663545D02*
X17419944Y-22634974D01*
X17419944Y-22634974D02*
X17410420Y-22587354D01*
X17410420Y-22587354D02*
X17410420Y-22549259D01*
X17410420Y-22549259D02*
X17419944Y-22501640D01*
X17419944Y-22501640D02*
X17429468Y-22473069D01*
X17429468Y-22473069D02*
X17438991Y-22454021D01*
X17438991Y-22454021D02*
X17458039Y-22425450D01*
X17458039Y-22425450D02*
X17467563Y-22415926D01*
X17581848Y-22444497D02*
X17600896Y-22444497D01*
X17600896Y-22444497D02*
X17619944Y-22454021D01*
X17619944Y-22454021D02*
X17629468Y-22463545D01*
X17629468Y-22463545D02*
X17638991Y-22482593D01*
X17638991Y-22482593D02*
X17648515Y-22520688D01*
X17648515Y-22520688D02*
X17648515Y-22568307D01*
X17648515Y-22568307D02*
X17638991Y-22606402D01*
X17638991Y-22606402D02*
X17629468Y-22625450D01*
X17629468Y-22625450D02*
X17619944Y-22634974D01*
X17619944Y-22634974D02*
X17600896Y-22644497D01*
X17600896Y-22644497D02*
X17581848Y-22644497D01*
X17581848Y-22644497D02*
X17562801Y-22634974D01*
X17562801Y-22634974D02*
X17553277Y-22625450D01*
X17553277Y-22625450D02*
X17543753Y-22606402D01*
X17543753Y-22606402D02*
X17534229Y-22568307D01*
X17534229Y-22568307D02*
X17534229Y-22520688D01*
X17534229Y-22520688D02*
X17543753Y-22482593D01*
X17543753Y-22482593D02*
X17553277Y-22463545D01*
X17553277Y-22463545D02*
X17562801Y-22454021D01*
X17562801Y-22454021D02*
X17581848Y-22444497D01*
X17886610Y-22644497D02*
X17886610Y-22444497D01*
X17972325Y-22644497D02*
X17972325Y-22539735D01*
X17972325Y-22539735D02*
X17962801Y-22520688D01*
X17962801Y-22520688D02*
X17943753Y-22511164D01*
X17943753Y-22511164D02*
X17915182Y-22511164D01*
X17915182Y-22511164D02*
X17896134Y-22520688D01*
X17896134Y-22520688D02*
X17886610Y-22530212D01*
X18096134Y-22644497D02*
X18077087Y-22634974D01*
X18077087Y-22634974D02*
X18067563Y-22625450D01*
X18067563Y-22625450D02*
X18058039Y-22606402D01*
X18058039Y-22606402D02*
X18058039Y-22549259D01*
X18058039Y-22549259D02*
X18067563Y-22530212D01*
X18067563Y-22530212D02*
X18077087Y-22520688D01*
X18077087Y-22520688D02*
X18096134Y-22511164D01*
X18096134Y-22511164D02*
X18124706Y-22511164D01*
X18124706Y-22511164D02*
X18143753Y-22520688D01*
X18143753Y-22520688D02*
X18153277Y-22530212D01*
X18153277Y-22530212D02*
X18162801Y-22549259D01*
X18162801Y-22549259D02*
X18162801Y-22606402D01*
X18162801Y-22606402D02*
X18153277Y-22625450D01*
X18153277Y-22625450D02*
X18143753Y-22634974D01*
X18143753Y-22634974D02*
X18124706Y-22644497D01*
X18124706Y-22644497D02*
X18096134Y-22644497D01*
X18277087Y-22644497D02*
X18258039Y-22634974D01*
X18258039Y-22634974D02*
X18248515Y-22615926D01*
X18248515Y-22615926D02*
X18248515Y-22444497D01*
X18429468Y-22634974D02*
X18410420Y-22644497D01*
X18410420Y-22644497D02*
X18372325Y-22644497D01*
X18372325Y-22644497D02*
X18353277Y-22634974D01*
X18353277Y-22634974D02*
X18343753Y-22615926D01*
X18343753Y-22615926D02*
X18343753Y-22539735D01*
X18343753Y-22539735D02*
X18353277Y-22520688D01*
X18353277Y-22520688D02*
X18372325Y-22511164D01*
X18372325Y-22511164D02*
X18410420Y-22511164D01*
X18410420Y-22511164D02*
X18429468Y-22520688D01*
X18429468Y-22520688D02*
X18438991Y-22539735D01*
X18438991Y-22539735D02*
X18438991Y-22558783D01*
X18438991Y-22558783D02*
X18343753Y-22577831D01*
X18515182Y-22634974D02*
X18534230Y-22644497D01*
X18534230Y-22644497D02*
X18572325Y-22644497D01*
X18572325Y-22644497D02*
X18591372Y-22634974D01*
X18591372Y-22634974D02*
X18600896Y-22615926D01*
X18600896Y-22615926D02*
X18600896Y-22606402D01*
X18600896Y-22606402D02*
X18591372Y-22587354D01*
X18591372Y-22587354D02*
X18572325Y-22577831D01*
X18572325Y-22577831D02*
X18543753Y-22577831D01*
X18543753Y-22577831D02*
X18524706Y-22568307D01*
X18524706Y-22568307D02*
X18515182Y-22549259D01*
X18515182Y-22549259D02*
X18515182Y-22539735D01*
X18515182Y-22539735D02*
X18524706Y-22520688D01*
X18524706Y-22520688D02*
X18543753Y-22511164D01*
X18543753Y-22511164D02*
X18572325Y-22511164D01*
X18572325Y-22511164D02*
X18591372Y-22520688D01*
X18838992Y-22568307D02*
X18991373Y-22568307D01*
X18915182Y-22644497D02*
X18915182Y-22492116D01*
X19229468Y-22463545D02*
X19238992Y-22454021D01*
X19238992Y-22454021D02*
X19258039Y-22444497D01*
X19258039Y-22444497D02*
X19305658Y-22444497D01*
X19305658Y-22444497D02*
X19324706Y-22454021D01*
X19324706Y-22454021D02*
X19334230Y-22463545D01*
X19334230Y-22463545D02*
X19343753Y-22482593D01*
X19343753Y-22482593D02*
X19343753Y-22501640D01*
X19343753Y-22501640D02*
X19334230Y-22530212D01*
X19334230Y-22530212D02*
X19219944Y-22644497D01*
X19219944Y-22644497D02*
X19343753Y-22644497D01*
X19572325Y-22634974D02*
X19591373Y-22644497D01*
X19591373Y-22644497D02*
X19629468Y-22644497D01*
X19629468Y-22644497D02*
X19648515Y-22634974D01*
X19648515Y-22634974D02*
X19658039Y-22615926D01*
X19658039Y-22615926D02*
X19658039Y-22606402D01*
X19658039Y-22606402D02*
X19648515Y-22587354D01*
X19648515Y-22587354D02*
X19629468Y-22577831D01*
X19629468Y-22577831D02*
X19600896Y-22577831D01*
X19600896Y-22577831D02*
X19581849Y-22568307D01*
X19581849Y-22568307D02*
X19572325Y-22549259D01*
X19572325Y-22549259D02*
X19572325Y-22539735D01*
X19572325Y-22539735D02*
X19581849Y-22520688D01*
X19581849Y-22520688D02*
X19600896Y-22511164D01*
X19600896Y-22511164D02*
X19629468Y-22511164D01*
X19629468Y-22511164D02*
X19648515Y-22520688D01*
X19772325Y-22644497D02*
X19753277Y-22634974D01*
X19753277Y-22634974D02*
X19743754Y-22615926D01*
X19743754Y-22615926D02*
X19743754Y-22444497D01*
X19877087Y-22644497D02*
X19858039Y-22634974D01*
X19858039Y-22634974D02*
X19848515Y-22625450D01*
X19848515Y-22625450D02*
X19838992Y-22606402D01*
X19838992Y-22606402D02*
X19838992Y-22549259D01*
X19838992Y-22549259D02*
X19848515Y-22530212D01*
X19848515Y-22530212D02*
X19858039Y-22520688D01*
X19858039Y-22520688D02*
X19877087Y-22511164D01*
X19877087Y-22511164D02*
X19905658Y-22511164D01*
X19905658Y-22511164D02*
X19924706Y-22520688D01*
X19924706Y-22520688D02*
X19934230Y-22530212D01*
X19934230Y-22530212D02*
X19943754Y-22549259D01*
X19943754Y-22549259D02*
X19943754Y-22606402D01*
X19943754Y-22606402D02*
X19934230Y-22625450D01*
X19934230Y-22625450D02*
X19924706Y-22634974D01*
X19924706Y-22634974D02*
X19905658Y-22644497D01*
X19905658Y-22644497D02*
X19877087Y-22644497D01*
X20000896Y-22511164D02*
X20077087Y-22511164D01*
X20029468Y-22444497D02*
X20029468Y-22615926D01*
X20029468Y-22615926D02*
X20038992Y-22634974D01*
X20038992Y-22634974D02*
X20058039Y-22644497D01*
X20058039Y-22644497D02*
X20077087Y-22644497D01*
X20134230Y-22634974D02*
X20153277Y-22644497D01*
X20153277Y-22644497D02*
X20191373Y-22644497D01*
X20191373Y-22644497D02*
X20210420Y-22634974D01*
X20210420Y-22634974D02*
X20219944Y-22615926D01*
X20219944Y-22615926D02*
X20219944Y-22606402D01*
X20219944Y-22606402D02*
X20210420Y-22587354D01*
X20210420Y-22587354D02*
X20191373Y-22577831D01*
X20191373Y-22577831D02*
X20162801Y-22577831D01*
X20162801Y-22577831D02*
X20143754Y-22568307D01*
X20143754Y-22568307D02*
X20134230Y-22549259D01*
X20134230Y-22549259D02*
X20134230Y-22539735D01*
X20134230Y-22539735D02*
X20143754Y-22520688D01*
X20143754Y-22520688D02*
X20162801Y-22511164D01*
X20162801Y-22511164D02*
X20191373Y-22511164D01*
X20191373Y-22511164D02*
X20210420Y-22520688D01*
X20286611Y-22720688D02*
X20296135Y-22711164D01*
X20296135Y-22711164D02*
X20315182Y-22682593D01*
X20315182Y-22682593D02*
X20324706Y-22663545D01*
X20324706Y-22663545D02*
X20334230Y-22634974D01*
X20334230Y-22634974D02*
X20343754Y-22587354D01*
X20343754Y-22587354D02*
X20343754Y-22549259D01*
X20343754Y-22549259D02*
X20334230Y-22501640D01*
X20334230Y-22501640D02*
X20324706Y-22473069D01*
X20324706Y-22473069D02*
X20315182Y-22454021D01*
X20315182Y-22454021D02*
X20296135Y-22425450D01*
X20296135Y-22425450D02*
X20286611Y-22415926D01*
X13692500Y-22723014D02*
X13892500Y-22923014D01*
X13892500Y-22723014D02*
X13692500Y-22923014D01*
X13892500Y-22823014D02*
G75*
G03*
X13892500Y-22823014I-100000J0D01*
G01*
X14238991Y-22781164D02*
X14238991Y-22914497D01*
X14191372Y-22704974D02*
X14143753Y-22847831D01*
X14143753Y-22847831D02*
X14267562Y-22847831D01*
X14343753Y-22895450D02*
X14353277Y-22904974D01*
X14353277Y-22904974D02*
X14343753Y-22914497D01*
X14343753Y-22914497D02*
X14334229Y-22904974D01*
X14334229Y-22904974D02*
X14343753Y-22895450D01*
X14343753Y-22895450D02*
X14343753Y-22914497D01*
X14543753Y-22914497D02*
X14429467Y-22914497D01*
X14486610Y-22914497D02*
X14486610Y-22714497D01*
X14486610Y-22714497D02*
X14467562Y-22743069D01*
X14467562Y-22743069D02*
X14448515Y-22762116D01*
X14448515Y-22762116D02*
X14429467Y-22771640D01*
X14667562Y-22714497D02*
X14686610Y-22714497D01*
X14686610Y-22714497D02*
X14705658Y-22724021D01*
X14705658Y-22724021D02*
X14715181Y-22733545D01*
X14715181Y-22733545D02*
X14724705Y-22752593D01*
X14724705Y-22752593D02*
X14734229Y-22790688D01*
X14734229Y-22790688D02*
X14734229Y-22838307D01*
X14734229Y-22838307D02*
X14724705Y-22876402D01*
X14724705Y-22876402D02*
X14715181Y-22895450D01*
X14715181Y-22895450D02*
X14705658Y-22904974D01*
X14705658Y-22904974D02*
X14686610Y-22914497D01*
X14686610Y-22914497D02*
X14667562Y-22914497D01*
X14667562Y-22914497D02*
X14648515Y-22904974D01*
X14648515Y-22904974D02*
X14638991Y-22895450D01*
X14638991Y-22895450D02*
X14629467Y-22876402D01*
X14629467Y-22876402D02*
X14619943Y-22838307D01*
X14619943Y-22838307D02*
X14619943Y-22790688D01*
X14619943Y-22790688D02*
X14629467Y-22752593D01*
X14629467Y-22752593D02*
X14638991Y-22733545D01*
X14638991Y-22733545D02*
X14648515Y-22724021D01*
X14648515Y-22724021D02*
X14667562Y-22714497D01*
X14858039Y-22714497D02*
X14877086Y-22714497D01*
X14877086Y-22714497D02*
X14896134Y-22724021D01*
X14896134Y-22724021D02*
X14905658Y-22733545D01*
X14905658Y-22733545D02*
X14915181Y-22752593D01*
X14915181Y-22752593D02*
X14924705Y-22790688D01*
X14924705Y-22790688D02*
X14924705Y-22838307D01*
X14924705Y-22838307D02*
X14915181Y-22876402D01*
X14915181Y-22876402D02*
X14905658Y-22895450D01*
X14905658Y-22895450D02*
X14896134Y-22904974D01*
X14896134Y-22904974D02*
X14877086Y-22914497D01*
X14877086Y-22914497D02*
X14858039Y-22914497D01*
X14858039Y-22914497D02*
X14838991Y-22904974D01*
X14838991Y-22904974D02*
X14829467Y-22895450D01*
X14829467Y-22895450D02*
X14819943Y-22876402D01*
X14819943Y-22876402D02*
X14810420Y-22838307D01*
X14810420Y-22838307D02*
X14810420Y-22790688D01*
X14810420Y-22790688D02*
X14819943Y-22752593D01*
X14819943Y-22752593D02*
X14829467Y-22733545D01*
X14829467Y-22733545D02*
X14838991Y-22724021D01*
X14838991Y-22724021D02*
X14858039Y-22714497D01*
X15010420Y-22914497D02*
X15010420Y-22781164D01*
X15010420Y-22800212D02*
X15019943Y-22790688D01*
X15019943Y-22790688D02*
X15038991Y-22781164D01*
X15038991Y-22781164D02*
X15067562Y-22781164D01*
X15067562Y-22781164D02*
X15086610Y-22790688D01*
X15086610Y-22790688D02*
X15096134Y-22809735D01*
X15096134Y-22809735D02*
X15096134Y-22914497D01*
X15096134Y-22809735D02*
X15105658Y-22790688D01*
X15105658Y-22790688D02*
X15124705Y-22781164D01*
X15124705Y-22781164D02*
X15153277Y-22781164D01*
X15153277Y-22781164D02*
X15172324Y-22790688D01*
X15172324Y-22790688D02*
X15181848Y-22809735D01*
X15181848Y-22809735D02*
X15181848Y-22914497D01*
X15277086Y-22914497D02*
X15277086Y-22781164D01*
X15277086Y-22800212D02*
X15286610Y-22790688D01*
X15286610Y-22790688D02*
X15305658Y-22781164D01*
X15305658Y-22781164D02*
X15334229Y-22781164D01*
X15334229Y-22781164D02*
X15353277Y-22790688D01*
X15353277Y-22790688D02*
X15362801Y-22809735D01*
X15362801Y-22809735D02*
X15362801Y-22914497D01*
X15362801Y-22809735D02*
X15372324Y-22790688D01*
X15372324Y-22790688D02*
X15391372Y-22781164D01*
X15391372Y-22781164D02*
X15419943Y-22781164D01*
X15419943Y-22781164D02*
X15438991Y-22790688D01*
X15438991Y-22790688D02*
X15448515Y-22809735D01*
X15448515Y-22809735D02*
X15448515Y-22914497D01*
X15838991Y-22704974D02*
X15667563Y-22962116D01*
X16096134Y-22714497D02*
X16115182Y-22714497D01*
X16115182Y-22714497D02*
X16134229Y-22724021D01*
X16134229Y-22724021D02*
X16143753Y-22733545D01*
X16143753Y-22733545D02*
X16153277Y-22752593D01*
X16153277Y-22752593D02*
X16162801Y-22790688D01*
X16162801Y-22790688D02*
X16162801Y-22838307D01*
X16162801Y-22838307D02*
X16153277Y-22876402D01*
X16153277Y-22876402D02*
X16143753Y-22895450D01*
X16143753Y-22895450D02*
X16134229Y-22904974D01*
X16134229Y-22904974D02*
X16115182Y-22914497D01*
X16115182Y-22914497D02*
X16096134Y-22914497D01*
X16096134Y-22914497D02*
X16077086Y-22904974D01*
X16077086Y-22904974D02*
X16067563Y-22895450D01*
X16067563Y-22895450D02*
X16058039Y-22876402D01*
X16058039Y-22876402D02*
X16048515Y-22838307D01*
X16048515Y-22838307D02*
X16048515Y-22790688D01*
X16048515Y-22790688D02*
X16058039Y-22752593D01*
X16058039Y-22752593D02*
X16067563Y-22733545D01*
X16067563Y-22733545D02*
X16077086Y-22724021D01*
X16077086Y-22724021D02*
X16096134Y-22714497D01*
X16248515Y-22895450D02*
X16258039Y-22904974D01*
X16258039Y-22904974D02*
X16248515Y-22914497D01*
X16248515Y-22914497D02*
X16238991Y-22904974D01*
X16238991Y-22904974D02*
X16248515Y-22895450D01*
X16248515Y-22895450D02*
X16248515Y-22914497D01*
X16448515Y-22914497D02*
X16334229Y-22914497D01*
X16391372Y-22914497D02*
X16391372Y-22714497D01*
X16391372Y-22714497D02*
X16372324Y-22743069D01*
X16372324Y-22743069D02*
X16353277Y-22762116D01*
X16353277Y-22762116D02*
X16334229Y-22771640D01*
X16619944Y-22714497D02*
X16581848Y-22714497D01*
X16581848Y-22714497D02*
X16562801Y-22724021D01*
X16562801Y-22724021D02*
X16553277Y-22733545D01*
X16553277Y-22733545D02*
X16534229Y-22762116D01*
X16534229Y-22762116D02*
X16524705Y-22800212D01*
X16524705Y-22800212D02*
X16524705Y-22876402D01*
X16524705Y-22876402D02*
X16534229Y-22895450D01*
X16534229Y-22895450D02*
X16543753Y-22904974D01*
X16543753Y-22904974D02*
X16562801Y-22914497D01*
X16562801Y-22914497D02*
X16600896Y-22914497D01*
X16600896Y-22914497D02*
X16619944Y-22904974D01*
X16619944Y-22904974D02*
X16629467Y-22895450D01*
X16629467Y-22895450D02*
X16638991Y-22876402D01*
X16638991Y-22876402D02*
X16638991Y-22828783D01*
X16638991Y-22828783D02*
X16629467Y-22809735D01*
X16629467Y-22809735D02*
X16619944Y-22800212D01*
X16619944Y-22800212D02*
X16600896Y-22790688D01*
X16600896Y-22790688D02*
X16562801Y-22790688D01*
X16562801Y-22790688D02*
X16543753Y-22800212D01*
X16543753Y-22800212D02*
X16534229Y-22809735D01*
X16534229Y-22809735D02*
X16524705Y-22828783D01*
X16829467Y-22914497D02*
X16715182Y-22914497D01*
X16772324Y-22914497D02*
X16772324Y-22714497D01*
X16772324Y-22714497D02*
X16753277Y-22743069D01*
X16753277Y-22743069D02*
X16734229Y-22762116D01*
X16734229Y-22762116D02*
X16715182Y-22771640D01*
X17000896Y-22781164D02*
X17000896Y-22914497D01*
X16953277Y-22704974D02*
X16905658Y-22847831D01*
X16905658Y-22847831D02*
X17029467Y-22847831D01*
X17096134Y-22714497D02*
X17096134Y-22752593D01*
X17172325Y-22714497D02*
X17172325Y-22752593D01*
X17467563Y-22990688D02*
X17458039Y-22981164D01*
X17458039Y-22981164D02*
X17438991Y-22952593D01*
X17438991Y-22952593D02*
X17429468Y-22933545D01*
X17429468Y-22933545D02*
X17419944Y-22904974D01*
X17419944Y-22904974D02*
X17410420Y-22857354D01*
X17410420Y-22857354D02*
X17410420Y-22819259D01*
X17410420Y-22819259D02*
X17419944Y-22771640D01*
X17419944Y-22771640D02*
X17429468Y-22743069D01*
X17429468Y-22743069D02*
X17438991Y-22724021D01*
X17438991Y-22724021D02*
X17458039Y-22695450D01*
X17458039Y-22695450D02*
X17467563Y-22685926D01*
X17638991Y-22714497D02*
X17543753Y-22714497D01*
X17543753Y-22714497D02*
X17534229Y-22809735D01*
X17534229Y-22809735D02*
X17543753Y-22800212D01*
X17543753Y-22800212D02*
X17562801Y-22790688D01*
X17562801Y-22790688D02*
X17610420Y-22790688D01*
X17610420Y-22790688D02*
X17629468Y-22800212D01*
X17629468Y-22800212D02*
X17638991Y-22809735D01*
X17638991Y-22809735D02*
X17648515Y-22828783D01*
X17648515Y-22828783D02*
X17648515Y-22876402D01*
X17648515Y-22876402D02*
X17638991Y-22895450D01*
X17638991Y-22895450D02*
X17629468Y-22904974D01*
X17629468Y-22904974D02*
X17610420Y-22914497D01*
X17610420Y-22914497D02*
X17562801Y-22914497D01*
X17562801Y-22914497D02*
X17543753Y-22904974D01*
X17543753Y-22904974D02*
X17534229Y-22895450D01*
X17886610Y-22914497D02*
X17886610Y-22714497D01*
X17972325Y-22914497D02*
X17972325Y-22809735D01*
X17972325Y-22809735D02*
X17962801Y-22790688D01*
X17962801Y-22790688D02*
X17943753Y-22781164D01*
X17943753Y-22781164D02*
X17915182Y-22781164D01*
X17915182Y-22781164D02*
X17896134Y-22790688D01*
X17896134Y-22790688D02*
X17886610Y-22800212D01*
X18096134Y-22914497D02*
X18077087Y-22904974D01*
X18077087Y-22904974D02*
X18067563Y-22895450D01*
X18067563Y-22895450D02*
X18058039Y-22876402D01*
X18058039Y-22876402D02*
X18058039Y-22819259D01*
X18058039Y-22819259D02*
X18067563Y-22800212D01*
X18067563Y-22800212D02*
X18077087Y-22790688D01*
X18077087Y-22790688D02*
X18096134Y-22781164D01*
X18096134Y-22781164D02*
X18124706Y-22781164D01*
X18124706Y-22781164D02*
X18143753Y-22790688D01*
X18143753Y-22790688D02*
X18153277Y-22800212D01*
X18153277Y-22800212D02*
X18162801Y-22819259D01*
X18162801Y-22819259D02*
X18162801Y-22876402D01*
X18162801Y-22876402D02*
X18153277Y-22895450D01*
X18153277Y-22895450D02*
X18143753Y-22904974D01*
X18143753Y-22904974D02*
X18124706Y-22914497D01*
X18124706Y-22914497D02*
X18096134Y-22914497D01*
X18277087Y-22914497D02*
X18258039Y-22904974D01*
X18258039Y-22904974D02*
X18248515Y-22885926D01*
X18248515Y-22885926D02*
X18248515Y-22714497D01*
X18429468Y-22904974D02*
X18410420Y-22914497D01*
X18410420Y-22914497D02*
X18372325Y-22914497D01*
X18372325Y-22914497D02*
X18353277Y-22904974D01*
X18353277Y-22904974D02*
X18343753Y-22885926D01*
X18343753Y-22885926D02*
X18343753Y-22809735D01*
X18343753Y-22809735D02*
X18353277Y-22790688D01*
X18353277Y-22790688D02*
X18372325Y-22781164D01*
X18372325Y-22781164D02*
X18410420Y-22781164D01*
X18410420Y-22781164D02*
X18429468Y-22790688D01*
X18429468Y-22790688D02*
X18438991Y-22809735D01*
X18438991Y-22809735D02*
X18438991Y-22828783D01*
X18438991Y-22828783D02*
X18343753Y-22847831D01*
X18515182Y-22904974D02*
X18534230Y-22914497D01*
X18534230Y-22914497D02*
X18572325Y-22914497D01*
X18572325Y-22914497D02*
X18591372Y-22904974D01*
X18591372Y-22904974D02*
X18600896Y-22885926D01*
X18600896Y-22885926D02*
X18600896Y-22876402D01*
X18600896Y-22876402D02*
X18591372Y-22857354D01*
X18591372Y-22857354D02*
X18572325Y-22847831D01*
X18572325Y-22847831D02*
X18543753Y-22847831D01*
X18543753Y-22847831D02*
X18524706Y-22838307D01*
X18524706Y-22838307D02*
X18515182Y-22819259D01*
X18515182Y-22819259D02*
X18515182Y-22809735D01*
X18515182Y-22809735D02*
X18524706Y-22790688D01*
X18524706Y-22790688D02*
X18543753Y-22781164D01*
X18543753Y-22781164D02*
X18572325Y-22781164D01*
X18572325Y-22781164D02*
X18591372Y-22790688D01*
X18667563Y-22990688D02*
X18677087Y-22981164D01*
X18677087Y-22981164D02*
X18696134Y-22952593D01*
X18696134Y-22952593D02*
X18705658Y-22933545D01*
X18705658Y-22933545D02*
X18715182Y-22904974D01*
X18715182Y-22904974D02*
X18724706Y-22857354D01*
X18724706Y-22857354D02*
X18724706Y-22819259D01*
X18724706Y-22819259D02*
X18715182Y-22771640D01*
X18715182Y-22771640D02*
X18705658Y-22743069D01*
X18705658Y-22743069D02*
X18696134Y-22724021D01*
X18696134Y-22724021D02*
X18677087Y-22695450D01*
X18677087Y-22695450D02*
X18667563Y-22685926D01*
M02*
