M48
; DRILL file {KiCad 7.0.7} date Sun Jan 28 17:31:03 2024
; FORMAT={-:-/ absolute / metric / decimal}
; #@! TF.CreationDate,2024-01-28T17:31:03-05:00
; #@! TF.GenerationSoftware,Kicad,Pcbnew,7.0.7
; #@! TF.FileFunction,NonPlated,1,2,NPTH
FMAT,2
METRIC
; #@! TA.AperFunction,NonPlated,NPTH,ComponentDrill
T1C0.650
; #@! TA.AperFunction,NonPlated,NPTH,ComponentDrill
T2C0.900
; #@! TA.AperFunction,NonPlated,NPTH,ComponentDrill
T3C1.000
; #@! TA.AperFunction,NonPlated,NPTH,ComponentDrill
T4C1.800
; #@! TA.AperFunction,NonPlated,NPTH,ComponentDrill
T5C3.000
; #@! TA.AperFunction,NonPlated,NPTH,ComponentDrill
T6C3.400
%
G90
G05
T1
X264.039Y-101.559
X269.819Y-101.559
T2
X235.026Y-94.967
X238.02Y-95.15
T3
X144.78Y-107.4
X144.78Y-126.6
X144.78Y-145.8
X155.22Y-107.4
X155.22Y-126.6
X155.22Y-145.8
X163.98Y-107.4
X163.98Y-126.6
X163.98Y-145.8
X174.42Y-107.4
X174.42Y-126.6
X174.42Y-145.8
X183.18Y-100.6
X183.18Y-119.8
X183.18Y-139.0
X192.18Y-159.0
X193.62Y-100.6
X193.62Y-119.8
X193.62Y-139.0
X202.38Y-97.71
X202.38Y-116.91
X202.38Y-136.11
X202.62Y-159.0
X212.82Y-97.71
X212.82Y-116.91
X212.82Y-136.11
X213.475Y-159.644
X221.58Y-100.6
X221.58Y-119.8
X221.58Y-139.0
X223.875Y-160.554
X232.02Y-100.6
X232.02Y-119.8
X232.02Y-139.0
X234.583Y-162.169
X240.78Y-103.49
X240.78Y-122.69
X240.78Y-141.89
X244.831Y-164.161
X251.22Y-103.49
X251.22Y-122.69
X251.22Y-141.89
X254.897Y-176.757
X258.467Y-166.947
T4
X144.5Y-111.6
X144.5Y-130.8
X144.5Y-150.0
X155.5Y-111.6
X155.5Y-130.8
X155.5Y-150.0
X163.7Y-111.6
X163.7Y-130.8
X163.7Y-150.0
X174.7Y-111.6
X174.7Y-130.8
X174.7Y-150.0
X182.9Y-104.8
X182.9Y-124.0
X182.9Y-143.2
X191.9Y-163.2
X193.9Y-104.8
X193.9Y-124.0
X193.9Y-143.2
X202.1Y-101.91
X202.1Y-121.11
X202.1Y-140.31
X202.9Y-163.2
X212.83Y-163.804
X213.1Y-101.91
X213.1Y-121.11
X213.1Y-140.31
X221.3Y-104.8
X221.3Y-124.0
X221.3Y-143.2
X223.788Y-164.763
X232.3Y-104.8
X232.3Y-124.0
X232.3Y-143.2
X233.507Y-166.239
X240.5Y-107.69
X240.5Y-126.89
X240.5Y-146.09
X244.304Y-168.337
X251.5Y-107.69
X251.5Y-126.89
X251.5Y-146.09
X258.748Y-178.457
X262.51Y-168.12
T5
X145.0Y-115.3
X145.0Y-134.5
X145.0Y-153.7
X150.0Y-117.5
X150.0Y-136.7
X150.0Y-155.9
X155.0Y-115.3
X155.0Y-134.5
X155.0Y-153.7
X164.2Y-115.3
X164.2Y-134.5
X164.2Y-153.7
X169.2Y-117.5
X169.2Y-136.7
X169.2Y-155.9
X174.2Y-115.3
X174.2Y-134.5
X174.2Y-153.7
X183.4Y-108.5
X183.4Y-127.7
X183.4Y-146.9
X188.4Y-110.7
X188.4Y-129.9
X188.4Y-149.1
X192.4Y-166.9
X193.4Y-108.5
X193.4Y-127.7
X193.4Y-146.9
X197.4Y-169.1
X202.4Y-166.9
X202.6Y-105.61
X202.6Y-124.81
X202.6Y-144.01
X207.6Y-107.81
X207.6Y-127.01
X207.6Y-146.21
X212.6Y-105.61
X212.6Y-124.81
X212.6Y-144.01
X213.006Y-167.533
X217.795Y-170.161
X221.8Y-108.5
X221.8Y-127.7
X221.8Y-146.9
X222.968Y-168.405
X226.8Y-110.7
X226.8Y-129.9
X226.8Y-149.1
X231.8Y-108.5
X231.8Y-127.7
X231.8Y-146.9
X233.291Y-169.966
X237.78Y-173.08
X241.0Y-111.39
X241.0Y-130.59
X241.0Y-149.79
X243.108Y-171.874
X246.0Y-113.59
X246.0Y-132.79
X246.0Y-151.99
X251.0Y-111.39
X251.0Y-130.59
X251.0Y-149.79
X262.396Y-179.252
X265.816Y-169.855
X266.173Y-175.306
T6
X150.0Y-111.6
X150.0Y-130.8
X150.0Y-150.0
X169.2Y-111.6
X169.2Y-130.8
X169.2Y-150.0
X188.4Y-104.8
X188.4Y-124.0
X188.4Y-143.2
X197.4Y-163.2
X207.6Y-101.91
X207.6Y-121.11
X207.6Y-140.31
X218.309Y-164.283
X226.8Y-104.8
X226.8Y-124.0
X226.8Y-143.2
X238.906Y-167.288
X246.0Y-107.69
X246.0Y-126.89
X246.0Y-146.09
X260.629Y-173.288
T0
M30
