G04 #@! TF.GenerationSoftware,KiCad,Pcbnew,7.0.7*
G04 #@! TF.CreationDate,2023-09-27T23:26:32-04:00*
G04 #@! TF.ProjectId,keybear-chocolate,6b657962-6561-4722-9d63-686f636f6c61,v1.0.0*
G04 #@! TF.SameCoordinates,Original*
G04 #@! TF.FileFunction,Paste,Top*
G04 #@! TF.FilePolarity,Positive*
%FSLAX46Y46*%
G04 Gerber Fmt 4.6, Leading zero omitted, Abs format (unit mm)*
G04 Created by KiCad (PCBNEW 7.0.7) date 2023-09-27 23:26:32*
%MOMM*%
%LPD*%
G01*
G04 APERTURE LIST*
G04 Aperture macros list*
%AMRotRect*
0 Rectangle, with rotation*
0 The origin of the aperture is its center*
0 $1 length*
0 $2 width*
0 $3 Rotation angle, in degrees counterclockwise*
0 Add horizontal line*
21,1,$1,$2,0,0,$3*%
G04 Aperture macros list end*
%ADD10R,1.600000X2.200000*%
%ADD11R,0.950000X1.300000*%
%ADD12R,1.380000X1.000000*%
%ADD13RotRect,1.380000X1.000000X70.000000*%
%ADD14R,2.500000X3.000000*%
%ADD15RotRect,1.600000X2.200000X250.000000*%
%ADD16RotRect,1.380000X1.000000X355.000000*%
%ADD17RotRect,1.300000X0.950000X340.000000*%
%ADD18RotRect,1.600000X2.200000X169.000000*%
%ADD19R,1.143000X0.635000*%
%ADD20RotRect,1.380000X1.000000X349.000000*%
%ADD21R,1.300000X0.950000*%
%ADD22RotRect,1.300000X0.950000X259.000000*%
%ADD23RotRect,1.600000X2.200000X175.000000*%
%ADD24R,1.000000X1.400000*%
%ADD25RotRect,1.300000X0.950000X265.000000*%
%ADD26R,0.381000X0.381000*%
%ADD27RotRect,1.000000X0.800000X356.500000*%
%ADD28RotRect,0.700000X1.500000X356.500000*%
G04 APERTURE END LIST*
D10*
X177100000Y-134500000D03*
X166400000Y-136700000D03*
D11*
X237800000Y-139825000D03*
X237800000Y-143375000D03*
D12*
X166685600Y-106025000D03*
X171714400Y-106025000D03*
X171714400Y-107775000D03*
X166685600Y-107775000D03*
X243485600Y-102115000D03*
X248514400Y-102115000D03*
X248514400Y-103865000D03*
X243485600Y-103865000D03*
D11*
X161100000Y-127425000D03*
X161100000Y-130975000D03*
D10*
X215500000Y-105610000D03*
X204800000Y-107810000D03*
D11*
X180300000Y-120625000D03*
X180300000Y-124175000D03*
X180300000Y-101425000D03*
X180300000Y-104975000D03*
D12*
X224285600Y-137625000D03*
X229314400Y-137625000D03*
X229314400Y-139375000D03*
X224285600Y-139375000D03*
D10*
X234700000Y-127700000D03*
X224000000Y-129900000D03*
X253900000Y-111390000D03*
X243200000Y-113590000D03*
D13*
X255214120Y-172865089D03*
X256934070Y-168139562D03*
X258578532Y-168738097D03*
X256858582Y-173463624D03*
D10*
X177100000Y-153700000D03*
X166400000Y-155900000D03*
D12*
X243485600Y-96815000D03*
X248514400Y-96815000D03*
X248514400Y-98565000D03*
X243485600Y-98565000D03*
D11*
X199500000Y-98535000D03*
X199500000Y-102085000D03*
D10*
X253900000Y-130590000D03*
X243200000Y-132790000D03*
D12*
X166685600Y-139925000D03*
X171714400Y-139925000D03*
X171714400Y-141675000D03*
X166685600Y-141675000D03*
D11*
X237800000Y-101425000D03*
X237800000Y-104975000D03*
D10*
X253900000Y-149790000D03*
X243200000Y-151990000D03*
D11*
X141900000Y-127425000D03*
X141900000Y-130975000D03*
D14*
X180340000Y-114427000D03*
X184840000Y-114427000D03*
D10*
X157900000Y-134500000D03*
X147200000Y-136700000D03*
D15*
X267457501Y-166344960D03*
X265899411Y-177058146D03*
D10*
X196300000Y-127700000D03*
X185600000Y-129900000D03*
D11*
X237800000Y-120625000D03*
X237800000Y-124175000D03*
D16*
X216290100Y-159510420D03*
X221299764Y-159948709D03*
X221147242Y-161692050D03*
X216137578Y-161253761D03*
D17*
X270060666Y-196982994D03*
X273396574Y-198197166D03*
D10*
X196300000Y-108500000D03*
X185600000Y-110700000D03*
D18*
X245954391Y-173427399D03*
X235031201Y-173545322D03*
D10*
X234700000Y-108500000D03*
X224000000Y-110700000D03*
D19*
X270764000Y-129032000D03*
X270764000Y-130032760D03*
X266700000Y-129039620D03*
X266700000Y-130040380D03*
D11*
X161100000Y-146625000D03*
X161100000Y-150175000D03*
D17*
X255371056Y-178866280D03*
X258706964Y-180080452D03*
D20*
X237501086Y-162335645D03*
X242437493Y-163295185D03*
X242103578Y-165013033D03*
X237167171Y-164053493D03*
D12*
X243485600Y-140515000D03*
X248514400Y-140515000D03*
X248514400Y-142265000D03*
X243485600Y-142265000D03*
D19*
X268732000Y-129039620D03*
X268732000Y-130040380D03*
D12*
X147485600Y-106025000D03*
X152514400Y-106025000D03*
X152514400Y-107775000D03*
X147485600Y-107775000D03*
D10*
X205300000Y-167900000D03*
X194600000Y-170100000D03*
D19*
X264668000Y-129032000D03*
X264668000Y-130032760D03*
X262636000Y-129032000D03*
X262636000Y-130032760D03*
D13*
X266981151Y-183526222D03*
X268701101Y-178800695D03*
X270345563Y-179399230D03*
X268625613Y-184124757D03*
D10*
X234700000Y-146900000D03*
X224000000Y-149100000D03*
D11*
X218700000Y-101425000D03*
X218700000Y-104975000D03*
X180300000Y-139825000D03*
X180300000Y-143375000D03*
D12*
X224285600Y-99225000D03*
X229314400Y-99225000D03*
X229314400Y-100975000D03*
X224285600Y-100975000D03*
X194885600Y-158625000D03*
X199914400Y-158625000D03*
X199914400Y-160375000D03*
X194885600Y-160375000D03*
X224285600Y-118425000D03*
X229314400Y-118425000D03*
X229314400Y-120175000D03*
X224285600Y-120175000D03*
X185885600Y-137625000D03*
X190914400Y-137625000D03*
X190914400Y-139375000D03*
X185885600Y-139375000D03*
X147485600Y-125225000D03*
X152514400Y-125225000D03*
X152514400Y-126975000D03*
X147485600Y-126975000D03*
D10*
X157900000Y-153700000D03*
X147200000Y-155900000D03*
D21*
X264417000Y-136634000D03*
X267967000Y-136634000D03*
D12*
X185885600Y-99225000D03*
X190914400Y-99225000D03*
X190914400Y-100975000D03*
X185885600Y-100975000D03*
D10*
X177100000Y-115300000D03*
X166400000Y-117500000D03*
X196300000Y-146900000D03*
X185600000Y-149100000D03*
D11*
X199500000Y-136935000D03*
X199500000Y-140485000D03*
D12*
X205085600Y-115535000D03*
X210114400Y-115535000D03*
X210114400Y-117285000D03*
X205085600Y-117285000D03*
D11*
X141900000Y-108225000D03*
X141900000Y-111775000D03*
D15*
X282147111Y-184461674D03*
X280589021Y-195174860D03*
D13*
X269903730Y-190981803D03*
X271623680Y-186256276D03*
X273268142Y-186854811D03*
X271548192Y-191580338D03*
D12*
X205085600Y-134735000D03*
X210114400Y-134735000D03*
X210114400Y-136485000D03*
X205085600Y-136485000D03*
D22*
X231598330Y-163429443D03*
X230920958Y-166914219D03*
D11*
X218700000Y-120625000D03*
X218700000Y-124175000D03*
X141900000Y-146625000D03*
X141900000Y-150175000D03*
D12*
X166685600Y-125225000D03*
X171714400Y-125225000D03*
X171714400Y-126975000D03*
X166685600Y-126975000D03*
D11*
X199500000Y-117735000D03*
X199500000Y-121285000D03*
D12*
X243485600Y-121315000D03*
X248514400Y-121315000D03*
X248514400Y-123065000D03*
X243485600Y-123065000D03*
D23*
X225856501Y-169657801D03*
X215005475Y-170916863D03*
D12*
X205085600Y-96335000D03*
X210114400Y-96335000D03*
X210114400Y-98085000D03*
X205085600Y-98085000D03*
X166685600Y-100725000D03*
X171714400Y-100725000D03*
X171714400Y-102475000D03*
X166685600Y-102475000D03*
X185885600Y-118425000D03*
X190914400Y-118425000D03*
X190914400Y-120175000D03*
X185885600Y-120175000D03*
D10*
X157900000Y-115300000D03*
X147200000Y-117500000D03*
D12*
X147485600Y-144425000D03*
X152514400Y-144425000D03*
X152514400Y-146175000D03*
X147485600Y-146175000D03*
D10*
X215500000Y-144010000D03*
X204800000Y-146210000D03*
X215500000Y-124810000D03*
X204800000Y-127010000D03*
D12*
X205085600Y-151435000D03*
X210114400Y-151435000D03*
X210114400Y-153185000D03*
X205085600Y-153185000D03*
D24*
X161100000Y-108225000D03*
X161100000Y-111775000D03*
D12*
X205085600Y-111035000D03*
X210114400Y-111035000D03*
X210114400Y-112785000D03*
X205085600Y-112785000D03*
D11*
X189300000Y-160825000D03*
X189300000Y-164375000D03*
D12*
X166685600Y-144425000D03*
X171714400Y-144425000D03*
X171714400Y-146175000D03*
X166685600Y-146175000D03*
D25*
X210534012Y-161215231D03*
X210224610Y-164751723D03*
D26*
X272288000Y-97409000D03*
D19*
X272288000Y-97909380D03*
X272288000Y-96908620D03*
D11*
X218700000Y-139825000D03*
X218700000Y-143375000D03*
D27*
X233182791Y-93101012D03*
X233047874Y-95306890D03*
X240469175Y-93546666D03*
X240334258Y-95752544D03*
D28*
X238897188Y-96315864D03*
X235902783Y-96132718D03*
X234405581Y-96041146D03*
M02*
