%TF.GenerationSoftware,KiCad,Pcbnew,7.0.7*%
%TF.CreationDate,2024-01-28T17:31:32-05:00*%
%TF.ProjectId,keybear-chocolate,6b657962-6561-4722-9d63-686f636f6c61,v1.0.0*%
%TF.SameCoordinates,Original*%
%TF.FileFunction,Drillmap*%
%TF.FilePolarity,Positive*%
%FSLAX45Y45*%
G04 Gerber Fmt 4.5, Leading zero omitted, Abs format (unit mm)*
G04 Created by KiCad (PCBNEW 7.0.7) date 2024-01-28 17:31:32*
%MOMM*%
%LPD*%
G01*
G04 APERTURE LIST*
%ADD10C,0.150000*%
%ADD11C,0.200000*%
%ADD12C,0.065000*%
%ADD13C,0.090000*%
%ADD14C,0.100000*%
%ADD15C,0.180000*%
%ADD16C,0.300000*%
%ADD17C,0.340000*%
G04 APERTURE END LIST*
D10*
X22609632Y-17445075D02*
X20883058Y-17294019D01*
X24331223Y-17777144D02*
X23926170Y-17698490D01*
X26239029Y-19028326D02*
X24768308Y-18475068D01*
X26239030Y-19028324D02*
G75*
G03*
X26626564Y-18850143I105630J280784D01*
G01*
X17740575Y-9534909D02*
X19636248Y-9228837D01*
X26626564Y-18850143D02*
X27491435Y-16473932D01*
X18603247Y-17255022D02*
X14231398Y-16068107D01*
X27700007Y-9894683D02*
G75*
G03*
X27419942Y-9595346I-299997J3D01*
G01*
X21869962Y-9225664D02*
G75*
G03*
X21850023Y-9225001I-19932J-299216D01*
G01*
X14261044Y-10110475D02*
X17739434Y-9535095D01*
X24573978Y-18071741D02*
G75*
G03*
X24331223Y-17777144I-299998J111D01*
G01*
X14010002Y-15778588D02*
G75*
G03*
X14231398Y-16068107I299998J-2D01*
G01*
X24573940Y-18194169D02*
G75*
G03*
X24768308Y-18475068I300000J-111D01*
G01*
X19684067Y-9225001D02*
G75*
G03*
X19636248Y-9228837I4J-299999D01*
G01*
X24573936Y-18194169D02*
X24573981Y-18071741D01*
X20860681Y-17292901D02*
X18678080Y-17265479D01*
X18603247Y-17255021D02*
G75*
G03*
X18678080Y-17265478I78603J289511D01*
G01*
X27484581Y-15372301D02*
X27229613Y-15447222D01*
X27491437Y-16473932D02*
G75*
G03*
X27363275Y-16113718I-281917J102602D01*
G01*
X14261044Y-10110475D02*
G75*
G03*
X14010004Y-10406453I48956J-295975D01*
G01*
X27700004Y-15084470D02*
X27700004Y-9894683D01*
X23926170Y-17698490D02*
X22640529Y-17449406D01*
X27160438Y-15992659D02*
X27363275Y-16113718D01*
X19684067Y-9225001D02*
X21850023Y-9225001D01*
X21869962Y-9225664D02*
X27419942Y-9595346D01*
X22640529Y-17449406D02*
G75*
G03*
X22609632Y-17445075I-57039J-294504D01*
G01*
X14010004Y-15778589D02*
X14010004Y-10406453D01*
X17740575Y-9534909D02*
G75*
G03*
X17739434Y-9535096I48365J-299481D01*
G01*
X27484581Y-15372304D02*
G75*
G03*
X27700004Y-15084470I-84581J287834D01*
G01*
X27229608Y-15447217D02*
G75*
G03*
X27160438Y-15992659I84582J-287833D01*
G01*
X20883058Y-17294019D02*
G75*
G03*
X20860681Y-17292901I-26148J-298901D01*
G01*
D11*
D12*
X26371360Y-10123360D02*
X26436360Y-10188360D01*
X26436360Y-10123360D02*
X26371360Y-10188360D01*
X26949360Y-10123360D02*
X27014360Y-10188360D01*
X27014360Y-10123360D02*
X26949360Y-10188360D01*
D13*
X23547565Y-9496675D02*
G75*
G03*
X23547565Y-9496675I-45000J0D01*
G01*
X23847006Y-9514989D02*
G75*
G03*
X23847006Y-9514989I-45000J0D01*
G01*
D14*
X14478000Y-10690000D02*
X14478000Y-10790000D01*
X14428000Y-10740000D02*
X14528000Y-10740000D01*
X14478000Y-12610000D02*
X14478000Y-12710000D01*
X14428000Y-12660000D02*
X14528000Y-12660000D01*
X14478000Y-14530000D02*
X14478000Y-14630000D01*
X14428000Y-14580000D02*
X14528000Y-14580000D01*
X15522000Y-10690000D02*
X15522000Y-10790000D01*
X15472000Y-10740000D02*
X15572000Y-10740000D01*
X15522000Y-12610000D02*
X15522000Y-12710000D01*
X15472000Y-12660000D02*
X15572000Y-12660000D01*
X15522000Y-14530000D02*
X15522000Y-14630000D01*
X15472000Y-14580000D02*
X15572000Y-14580000D01*
X16398000Y-10690000D02*
X16398000Y-10790000D01*
X16348000Y-10740000D02*
X16448000Y-10740000D01*
X16398000Y-12610000D02*
X16398000Y-12710000D01*
X16348000Y-12660000D02*
X16448000Y-12660000D01*
X16398000Y-14530000D02*
X16398000Y-14630000D01*
X16348000Y-14580000D02*
X16448000Y-14580000D01*
X17442000Y-10690000D02*
X17442000Y-10790000D01*
X17392000Y-10740000D02*
X17492000Y-10740000D01*
X17442000Y-12610000D02*
X17442000Y-12710000D01*
X17392000Y-12660000D02*
X17492000Y-12660000D01*
X17442000Y-14530000D02*
X17442000Y-14630000D01*
X17392000Y-14580000D02*
X17492000Y-14580000D01*
X18318000Y-10010000D02*
X18318000Y-10110000D01*
X18268000Y-10060000D02*
X18368000Y-10060000D01*
X18318000Y-11930000D02*
X18318000Y-12030000D01*
X18268000Y-11980000D02*
X18368000Y-11980000D01*
X18318000Y-13850000D02*
X18318000Y-13950000D01*
X18268000Y-13900000D02*
X18368000Y-13900000D01*
X19218000Y-15850000D02*
X19218000Y-15950000D01*
X19168000Y-15900000D02*
X19268000Y-15900000D01*
X19362000Y-10010000D02*
X19362000Y-10110000D01*
X19312000Y-10060000D02*
X19412000Y-10060000D01*
X19362000Y-11930000D02*
X19362000Y-12030000D01*
X19312000Y-11980000D02*
X19412000Y-11980000D01*
X19362000Y-13850000D02*
X19362000Y-13950000D01*
X19312000Y-13900000D02*
X19412000Y-13900000D01*
X20238000Y-9721000D02*
X20238000Y-9821000D01*
X20188000Y-9771000D02*
X20288000Y-9771000D01*
X20238000Y-11641000D02*
X20238000Y-11741000D01*
X20188000Y-11691000D02*
X20288000Y-11691000D01*
X20238000Y-13561000D02*
X20238000Y-13661000D01*
X20188000Y-13611000D02*
X20288000Y-13611000D01*
X20262000Y-15850000D02*
X20262000Y-15950000D01*
X20212000Y-15900000D02*
X20312000Y-15900000D01*
X21282000Y-9721000D02*
X21282000Y-9821000D01*
X21232000Y-9771000D02*
X21332000Y-9771000D01*
X21282000Y-11641000D02*
X21282000Y-11741000D01*
X21232000Y-11691000D02*
X21332000Y-11691000D01*
X21282000Y-13561000D02*
X21282000Y-13661000D01*
X21232000Y-13611000D02*
X21332000Y-13611000D01*
X21347496Y-15914438D02*
X21347496Y-16014438D01*
X21297496Y-15964438D02*
X21397496Y-15964438D01*
X22158000Y-10010000D02*
X22158000Y-10110000D01*
X22108000Y-10060000D02*
X22208000Y-10060000D01*
X22158000Y-11930000D02*
X22158000Y-12030000D01*
X22108000Y-11980000D02*
X22208000Y-11980000D01*
X22158000Y-13850000D02*
X22158000Y-13950000D01*
X22108000Y-13900000D02*
X22208000Y-13900000D01*
X22387523Y-16005428D02*
X22387523Y-16105428D01*
X22337523Y-16055428D02*
X22437523Y-16055428D01*
X23202000Y-10010000D02*
X23202000Y-10110000D01*
X23152000Y-10060000D02*
X23252000Y-10060000D01*
X23202000Y-11930000D02*
X23202000Y-12030000D01*
X23152000Y-11980000D02*
X23252000Y-11980000D01*
X23202000Y-13850000D02*
X23202000Y-13950000D01*
X23152000Y-13900000D02*
X23252000Y-13900000D01*
X23458283Y-16166913D02*
X23458283Y-16266913D01*
X23408283Y-16216913D02*
X23508283Y-16216913D01*
X24078000Y-10299000D02*
X24078000Y-10399000D01*
X24028000Y-10349000D02*
X24128000Y-10349000D01*
X24078000Y-12219000D02*
X24078000Y-12319000D01*
X24028000Y-12269000D02*
X24128000Y-12269000D01*
X24078000Y-14139000D02*
X24078000Y-14239000D01*
X24028000Y-14189000D02*
X24128000Y-14189000D01*
X24483102Y-16366118D02*
X24483102Y-16466118D01*
X24433102Y-16416118D02*
X24533102Y-16416118D01*
X25122000Y-10299000D02*
X25122000Y-10399000D01*
X25072000Y-10349000D02*
X25172000Y-10349000D01*
X25122000Y-12219000D02*
X25122000Y-12319000D01*
X25072000Y-12269000D02*
X25172000Y-12269000D01*
X25122000Y-14139000D02*
X25122000Y-14239000D01*
X25072000Y-14189000D02*
X25172000Y-14189000D01*
X25489679Y-17625718D02*
X25489679Y-17725718D01*
X25439679Y-17675718D02*
X25539679Y-17675718D01*
X25846748Y-16644679D02*
X25846748Y-16744679D01*
X25796748Y-16694679D02*
X25896748Y-16694679D01*
D15*
X14513640Y-11223640D02*
X14513640Y-11096360D01*
X14386360Y-11096360D01*
X14386360Y-11223640D01*
X14513640Y-11223640D01*
X14513640Y-13143640D02*
X14513640Y-13016360D01*
X14386360Y-13016360D01*
X14386360Y-13143640D01*
X14513640Y-13143640D01*
X14513640Y-15063640D02*
X14513640Y-14936360D01*
X14386360Y-14936360D01*
X14386360Y-15063640D01*
X14513640Y-15063640D01*
X15613640Y-11223640D02*
X15613640Y-11096360D01*
X15486360Y-11096360D01*
X15486360Y-11223640D01*
X15613640Y-11223640D01*
X15613640Y-13143640D02*
X15613640Y-13016360D01*
X15486360Y-13016360D01*
X15486360Y-13143640D01*
X15613640Y-13143640D01*
X15613640Y-15063640D02*
X15613640Y-14936360D01*
X15486360Y-14936360D01*
X15486360Y-15063640D01*
X15613640Y-15063640D01*
X16433640Y-11223640D02*
X16433640Y-11096360D01*
X16306360Y-11096360D01*
X16306360Y-11223640D01*
X16433640Y-11223640D01*
X16433640Y-13143640D02*
X16433640Y-13016360D01*
X16306360Y-13016360D01*
X16306360Y-13143640D01*
X16433640Y-13143640D01*
X16433640Y-15063640D02*
X16433640Y-14936360D01*
X16306360Y-14936360D01*
X16306360Y-15063640D01*
X16433640Y-15063640D01*
X17533640Y-11223640D02*
X17533640Y-11096360D01*
X17406360Y-11096360D01*
X17406360Y-11223640D01*
X17533640Y-11223640D01*
X17533640Y-13143640D02*
X17533640Y-13016360D01*
X17406360Y-13016360D01*
X17406360Y-13143640D01*
X17533640Y-13143640D01*
X17533640Y-15063640D02*
X17533640Y-14936360D01*
X17406360Y-14936360D01*
X17406360Y-15063640D01*
X17533640Y-15063640D01*
X18353640Y-10543640D02*
X18353640Y-10416360D01*
X18226360Y-10416360D01*
X18226360Y-10543640D01*
X18353640Y-10543640D01*
X18353640Y-12463640D02*
X18353640Y-12336360D01*
X18226360Y-12336360D01*
X18226360Y-12463640D01*
X18353640Y-12463640D01*
X18353640Y-14383640D02*
X18353640Y-14256360D01*
X18226360Y-14256360D01*
X18226360Y-14383640D01*
X18353640Y-14383640D01*
X19253640Y-16383640D02*
X19253640Y-16256360D01*
X19126360Y-16256360D01*
X19126360Y-16383640D01*
X19253640Y-16383640D01*
X19453640Y-10543640D02*
X19453640Y-10416360D01*
X19326360Y-10416360D01*
X19326360Y-10543640D01*
X19453640Y-10543640D01*
X19453640Y-12463640D02*
X19453640Y-12336360D01*
X19326360Y-12336360D01*
X19326360Y-12463640D01*
X19453640Y-12463640D01*
X19453640Y-14383640D02*
X19453640Y-14256360D01*
X19326360Y-14256360D01*
X19326360Y-14383640D01*
X19453640Y-14383640D01*
X20273640Y-10254640D02*
X20273640Y-10127360D01*
X20146360Y-10127360D01*
X20146360Y-10254640D01*
X20273640Y-10254640D01*
X20273640Y-12174640D02*
X20273640Y-12047360D01*
X20146360Y-12047360D01*
X20146360Y-12174640D01*
X20273640Y-12174640D01*
X20273640Y-14094640D02*
X20273640Y-13967360D01*
X20146360Y-13967360D01*
X20146360Y-14094640D01*
X20273640Y-14094640D01*
X20353640Y-16383640D02*
X20353640Y-16256360D01*
X20226360Y-16256360D01*
X20226360Y-16383640D01*
X20353640Y-16383640D01*
X21346637Y-16444039D02*
X21346637Y-16316759D01*
X21219357Y-16316759D01*
X21219357Y-16444039D01*
X21346637Y-16444039D01*
X21373640Y-10254640D02*
X21373640Y-10127360D01*
X21246360Y-10127360D01*
X21246360Y-10254640D01*
X21373640Y-10254640D01*
X21373640Y-12174640D02*
X21373640Y-12047360D01*
X21246360Y-12047360D01*
X21246360Y-12174640D01*
X21373640Y-12174640D01*
X21373640Y-14094640D02*
X21373640Y-13967360D01*
X21246360Y-13967360D01*
X21246360Y-14094640D01*
X21373640Y-14094640D01*
X22193640Y-10543640D02*
X22193640Y-10416360D01*
X22066360Y-10416360D01*
X22066360Y-10543640D01*
X22193640Y-10543640D01*
X22193640Y-12463640D02*
X22193640Y-12336360D01*
X22066360Y-12336360D01*
X22066360Y-12463640D01*
X22193640Y-12463640D01*
X22193640Y-14383640D02*
X22193640Y-14256360D01*
X22066360Y-14256360D01*
X22066360Y-14383640D01*
X22193640Y-14383640D01*
X22442451Y-16539911D02*
X22442451Y-16412630D01*
X22315171Y-16412630D01*
X22315171Y-16539911D01*
X22442451Y-16539911D01*
X23293640Y-10543640D02*
X23293640Y-10416360D01*
X23166360Y-10416360D01*
X23166360Y-10543640D01*
X23293640Y-10543640D01*
X23293640Y-12463640D02*
X23293640Y-12336360D01*
X23166360Y-12336360D01*
X23166360Y-12463640D01*
X23293640Y-12463640D01*
X23293640Y-14383640D02*
X23293640Y-14256360D01*
X23166360Y-14256360D01*
X23166360Y-14383640D01*
X23293640Y-14383640D01*
X23414298Y-16687494D02*
X23414298Y-16560214D01*
X23287018Y-16560214D01*
X23287018Y-16687494D01*
X23414298Y-16687494D01*
X24113640Y-10832640D02*
X24113640Y-10705360D01*
X23986360Y-10705360D01*
X23986360Y-10832640D01*
X24113640Y-10832640D01*
X24113640Y-12752640D02*
X24113640Y-12625360D01*
X23986360Y-12625360D01*
X23986360Y-12752640D01*
X24113640Y-12752640D01*
X24113640Y-14672640D02*
X24113640Y-14545360D01*
X23986360Y-14545360D01*
X23986360Y-14672640D01*
X24113640Y-14672640D01*
X24494088Y-16897384D02*
X24494088Y-16770103D01*
X24366808Y-16770103D01*
X24366808Y-16897384D01*
X24494088Y-16897384D01*
X25213640Y-10832640D02*
X25213640Y-10705360D01*
X25086360Y-10705360D01*
X25086360Y-10832640D01*
X25213640Y-10832640D01*
X25213640Y-12752640D02*
X25213640Y-12625360D01*
X25086360Y-12625360D01*
X25086360Y-12752640D01*
X25213640Y-12752640D01*
X25213640Y-14672640D02*
X25213640Y-14545360D01*
X25086360Y-14545360D01*
X25086360Y-14672640D01*
X25213640Y-14672640D01*
X25938413Y-17909318D02*
X25938413Y-17782038D01*
X25811133Y-17782038D01*
X25811133Y-17909318D01*
X25938413Y-17909318D01*
X26314635Y-16875657D02*
X26314635Y-16748376D01*
X26187355Y-16748376D01*
X26187355Y-16875657D01*
X26314635Y-16875657D01*
D16*
X14500000Y-11680000D02*
X14650000Y-11530000D01*
X14500000Y-11380000D01*
X14350000Y-11530000D01*
X14500000Y-11680000D01*
X14500000Y-13600000D02*
X14650000Y-13450000D01*
X14500000Y-13300000D01*
X14350000Y-13450000D01*
X14500000Y-13600000D01*
X14500000Y-15520000D02*
X14650000Y-15370000D01*
X14500000Y-15220000D01*
X14350000Y-15370000D01*
X14500000Y-15520000D01*
X15000000Y-11900000D02*
X15150000Y-11750000D01*
X15000000Y-11600000D01*
X14850000Y-11750000D01*
X15000000Y-11900000D01*
X15000000Y-13820000D02*
X15150000Y-13670000D01*
X15000000Y-13520000D01*
X14850000Y-13670000D01*
X15000000Y-13820000D01*
X15000000Y-15740000D02*
X15150000Y-15590000D01*
X15000000Y-15440000D01*
X14850000Y-15590000D01*
X15000000Y-15740000D01*
X15500000Y-11680000D02*
X15650000Y-11530000D01*
X15500000Y-11380000D01*
X15350000Y-11530000D01*
X15500000Y-11680000D01*
X15500000Y-13600000D02*
X15650000Y-13450000D01*
X15500000Y-13300000D01*
X15350000Y-13450000D01*
X15500000Y-13600000D01*
X15500000Y-15520000D02*
X15650000Y-15370000D01*
X15500000Y-15220000D01*
X15350000Y-15370000D01*
X15500000Y-15520000D01*
X16420000Y-11680000D02*
X16570000Y-11530000D01*
X16420000Y-11380000D01*
X16270000Y-11530000D01*
X16420000Y-11680000D01*
X16420000Y-13600000D02*
X16570000Y-13450000D01*
X16420000Y-13300000D01*
X16270000Y-13450000D01*
X16420000Y-13600000D01*
X16420000Y-15520000D02*
X16570000Y-15370000D01*
X16420000Y-15220000D01*
X16270000Y-15370000D01*
X16420000Y-15520000D01*
X16920000Y-11900000D02*
X17070000Y-11750000D01*
X16920000Y-11600000D01*
X16770000Y-11750000D01*
X16920000Y-11900000D01*
X16920000Y-13820000D02*
X17070000Y-13670000D01*
X16920000Y-13520000D01*
X16770000Y-13670000D01*
X16920000Y-13820000D01*
X16920000Y-15740000D02*
X17070000Y-15590000D01*
X16920000Y-15440000D01*
X16770000Y-15590000D01*
X16920000Y-15740000D01*
X17420000Y-11680000D02*
X17570000Y-11530000D01*
X17420000Y-11380000D01*
X17270000Y-11530000D01*
X17420000Y-11680000D01*
X17420000Y-13600000D02*
X17570000Y-13450000D01*
X17420000Y-13300000D01*
X17270000Y-13450000D01*
X17420000Y-13600000D01*
X17420000Y-15520000D02*
X17570000Y-15370000D01*
X17420000Y-15220000D01*
X17270000Y-15370000D01*
X17420000Y-15520000D01*
X18340000Y-11000000D02*
X18490000Y-10850000D01*
X18340000Y-10700000D01*
X18190000Y-10850000D01*
X18340000Y-11000000D01*
X18340000Y-12920000D02*
X18490000Y-12770000D01*
X18340000Y-12620000D01*
X18190000Y-12770000D01*
X18340000Y-12920000D01*
X18340000Y-14840000D02*
X18490000Y-14690000D01*
X18340000Y-14540000D01*
X18190000Y-14690000D01*
X18340000Y-14840000D01*
X18840000Y-11220000D02*
X18990000Y-11070000D01*
X18840000Y-10920000D01*
X18690000Y-11070000D01*
X18840000Y-11220000D01*
X18840000Y-13140000D02*
X18990000Y-12990000D01*
X18840000Y-12840000D01*
X18690000Y-12990000D01*
X18840000Y-13140000D01*
X18840000Y-15060000D02*
X18990000Y-14910000D01*
X18840000Y-14760000D01*
X18690000Y-14910000D01*
X18840000Y-15060000D01*
X19240000Y-16840000D02*
X19390000Y-16690000D01*
X19240000Y-16540000D01*
X19090000Y-16690000D01*
X19240000Y-16840000D01*
X19340000Y-11000000D02*
X19490000Y-10850000D01*
X19340000Y-10700000D01*
X19190000Y-10850000D01*
X19340000Y-11000000D01*
X19340000Y-12920000D02*
X19490000Y-12770000D01*
X19340000Y-12620000D01*
X19190000Y-12770000D01*
X19340000Y-12920000D01*
X19340000Y-14840000D02*
X19490000Y-14690000D01*
X19340000Y-14540000D01*
X19190000Y-14690000D01*
X19340000Y-14840000D01*
X19740000Y-17060000D02*
X19890000Y-16910000D01*
X19740000Y-16760000D01*
X19590000Y-16910000D01*
X19740000Y-17060000D01*
X20240000Y-16840000D02*
X20390000Y-16690000D01*
X20240000Y-16540000D01*
X20090000Y-16690000D01*
X20240000Y-16840000D01*
X20260000Y-10711000D02*
X20410000Y-10561000D01*
X20260000Y-10411000D01*
X20110000Y-10561000D01*
X20260000Y-10711000D01*
X20260000Y-12631000D02*
X20410000Y-12481000D01*
X20260000Y-12331000D01*
X20110000Y-12481000D01*
X20260000Y-12631000D01*
X20260000Y-14551000D02*
X20410000Y-14401000D01*
X20260000Y-14251000D01*
X20110000Y-14401000D01*
X20260000Y-14551000D01*
X20760000Y-10931000D02*
X20910000Y-10781000D01*
X20760000Y-10631000D01*
X20610000Y-10781000D01*
X20760000Y-10931000D01*
X20760000Y-12851000D02*
X20910000Y-12701000D01*
X20760000Y-12551000D01*
X20610000Y-12701000D01*
X20760000Y-12851000D01*
X20760000Y-14771000D02*
X20910000Y-14621000D01*
X20760000Y-14471000D01*
X20610000Y-14621000D01*
X20760000Y-14771000D01*
X21260000Y-10711000D02*
X21410000Y-10561000D01*
X21260000Y-10411000D01*
X21110000Y-10561000D01*
X21260000Y-10711000D01*
X21260000Y-12631000D02*
X21410000Y-12481000D01*
X21260000Y-12331000D01*
X21110000Y-12481000D01*
X21260000Y-12631000D01*
X21260000Y-14551000D02*
X21410000Y-14401000D01*
X21260000Y-14251000D01*
X21110000Y-14401000D01*
X21260000Y-14551000D01*
X21300559Y-16903349D02*
X21450559Y-16753349D01*
X21300559Y-16603349D01*
X21150559Y-16753349D01*
X21300559Y-16903349D01*
X21779482Y-17166090D02*
X21929482Y-17016090D01*
X21779482Y-16866090D01*
X21629482Y-17016090D01*
X21779482Y-17166090D01*
X22180000Y-11000000D02*
X22330000Y-10850000D01*
X22180000Y-10700000D01*
X22030000Y-10850000D01*
X22180000Y-11000000D01*
X22180000Y-12920000D02*
X22330000Y-12770000D01*
X22180000Y-12620000D01*
X22030000Y-12770000D01*
X22180000Y-12920000D01*
X22180000Y-14840000D02*
X22330000Y-14690000D01*
X22180000Y-14540000D01*
X22030000Y-14690000D01*
X22180000Y-14840000D01*
X22296754Y-16990505D02*
X22446754Y-16840505D01*
X22296754Y-16690505D01*
X22146754Y-16840505D01*
X22296754Y-16990505D01*
X22680000Y-11220000D02*
X22830000Y-11070000D01*
X22680000Y-10920000D01*
X22530000Y-11070000D01*
X22680000Y-11220000D01*
X22680000Y-13140000D02*
X22830000Y-12990000D01*
X22680000Y-12840000D01*
X22530000Y-12990000D01*
X22680000Y-13140000D01*
X22680000Y-15060000D02*
X22830000Y-14910000D01*
X22680000Y-14760000D01*
X22530000Y-14910000D01*
X22680000Y-15060000D01*
X23180000Y-11000000D02*
X23330000Y-10850000D01*
X23180000Y-10700000D01*
X23030000Y-10850000D01*
X23180000Y-11000000D01*
X23180000Y-12920000D02*
X23330000Y-12770000D01*
X23180000Y-12620000D01*
X23030000Y-12770000D01*
X23180000Y-12920000D01*
X23180000Y-14840000D02*
X23330000Y-14690000D01*
X23180000Y-14540000D01*
X23030000Y-14690000D01*
X23180000Y-14840000D01*
X23329140Y-17146596D02*
X23479140Y-16996596D01*
X23329140Y-16846596D01*
X23179140Y-16996596D01*
X23329140Y-17146596D01*
X23777976Y-17457959D02*
X23927976Y-17307959D01*
X23777976Y-17157959D01*
X23627976Y-17307959D01*
X23777976Y-17457959D01*
X24100000Y-11289000D02*
X24250000Y-11139000D01*
X24100000Y-10989000D01*
X23950000Y-11139000D01*
X24100000Y-11289000D01*
X24100000Y-13209000D02*
X24250000Y-13059000D01*
X24100000Y-12909000D01*
X23950000Y-13059000D01*
X24100000Y-13209000D01*
X24100000Y-15129000D02*
X24250000Y-14979000D01*
X24100000Y-14829000D01*
X23950000Y-14979000D01*
X24100000Y-15129000D01*
X24310767Y-17337405D02*
X24460767Y-17187405D01*
X24310767Y-17037405D01*
X24160767Y-17187405D01*
X24310767Y-17337405D01*
X24600000Y-11509000D02*
X24750000Y-11359000D01*
X24600000Y-11209000D01*
X24450000Y-11359000D01*
X24600000Y-11509000D01*
X24600000Y-13429000D02*
X24750000Y-13279000D01*
X24600000Y-13129000D01*
X24450000Y-13279000D01*
X24600000Y-13429000D01*
X24600000Y-15349000D02*
X24750000Y-15199000D01*
X24600000Y-15049000D01*
X24450000Y-15199000D01*
X24600000Y-15349000D01*
X25100000Y-11289000D02*
X25250000Y-11139000D01*
X25100000Y-10989000D01*
X24950000Y-11139000D01*
X25100000Y-11289000D01*
X25100000Y-13209000D02*
X25250000Y-13059000D01*
X25100000Y-12909000D01*
X24950000Y-13059000D01*
X25100000Y-13209000D01*
X25100000Y-15129000D02*
X25250000Y-14979000D01*
X25100000Y-14829000D01*
X24950000Y-14979000D01*
X25100000Y-15129000D01*
X26239560Y-18075241D02*
X26389560Y-17925241D01*
X26239560Y-17775241D01*
X26089560Y-17925241D01*
X26239560Y-18075241D01*
X26581580Y-17135548D02*
X26731580Y-16985548D01*
X26581580Y-16835548D01*
X26431580Y-16985548D01*
X26581580Y-17135548D01*
X26617303Y-17680639D02*
X26767303Y-17530639D01*
X26617303Y-17380639D01*
X26467303Y-17530639D01*
X26617303Y-17680639D01*
D17*
X14830000Y-10990000D02*
X15170000Y-11330000D01*
X15170000Y-10990000D02*
X14830000Y-11330000D01*
X15170000Y-11160000D02*
G75*
G03*
X15170000Y-11160000I-170000J0D01*
G01*
X14830000Y-12910000D02*
X15170000Y-13250000D01*
X15170000Y-12910000D02*
X14830000Y-13250000D01*
X15170000Y-13080000D02*
G75*
G03*
X15170000Y-13080000I-170000J0D01*
G01*
X14830000Y-14830000D02*
X15170000Y-15170000D01*
X15170000Y-14830000D02*
X14830000Y-15170000D01*
X15170000Y-15000000D02*
G75*
G03*
X15170000Y-15000000I-170000J0D01*
G01*
X16750000Y-10990000D02*
X17090000Y-11330000D01*
X17090000Y-10990000D02*
X16750000Y-11330000D01*
X17090000Y-11160000D02*
G75*
G03*
X17090000Y-11160000I-170000J0D01*
G01*
X16750000Y-12910000D02*
X17090000Y-13250000D01*
X17090000Y-12910000D02*
X16750000Y-13250000D01*
X17090000Y-13080000D02*
G75*
G03*
X17090000Y-13080000I-170000J0D01*
G01*
X16750000Y-14830000D02*
X17090000Y-15170000D01*
X17090000Y-14830000D02*
X16750000Y-15170000D01*
X17090000Y-15000000D02*
G75*
G03*
X17090000Y-15000000I-170000J0D01*
G01*
X18670000Y-10310000D02*
X19010000Y-10650000D01*
X19010000Y-10310000D02*
X18670000Y-10650000D01*
X19010000Y-10480000D02*
G75*
G03*
X19010000Y-10480000I-170000J0D01*
G01*
X18670000Y-12230000D02*
X19010000Y-12570000D01*
X19010000Y-12230000D02*
X18670000Y-12570000D01*
X19010000Y-12400000D02*
G75*
G03*
X19010000Y-12400000I-170000J0D01*
G01*
X18670000Y-14150000D02*
X19010000Y-14490000D01*
X19010000Y-14150000D02*
X18670000Y-14490000D01*
X19010000Y-14320000D02*
G75*
G03*
X19010000Y-14320000I-170000J0D01*
G01*
X19570000Y-16150000D02*
X19910000Y-16490000D01*
X19910000Y-16150000D02*
X19570000Y-16490000D01*
X19910000Y-16320000D02*
G75*
G03*
X19910000Y-16320000I-170000J0D01*
G01*
X20590000Y-10021000D02*
X20930000Y-10361000D01*
X20930000Y-10021000D02*
X20590000Y-10361000D01*
X20930000Y-10191000D02*
G75*
G03*
X20930000Y-10191000I-170000J0D01*
G01*
X20590000Y-11941000D02*
X20930000Y-12281000D01*
X20930000Y-11941000D02*
X20590000Y-12281000D01*
X20930000Y-12111000D02*
G75*
G03*
X20930000Y-12111000I-170000J0D01*
G01*
X20590000Y-13861000D02*
X20930000Y-14201000D01*
X20930000Y-13861000D02*
X20590000Y-14201000D01*
X20930000Y-14031000D02*
G75*
G03*
X20930000Y-14031000I-170000J0D01*
G01*
X21660904Y-16258335D02*
X22000904Y-16598335D01*
X22000904Y-16258335D02*
X21660904Y-16598335D01*
X22000904Y-16428335D02*
G75*
G03*
X22000904Y-16428335I-170000J0D01*
G01*
X22510000Y-10310000D02*
X22850000Y-10650000D01*
X22850000Y-10310000D02*
X22510000Y-10650000D01*
X22850000Y-10480000D02*
G75*
G03*
X22850000Y-10480000I-170000J0D01*
G01*
X22510000Y-12230000D02*
X22850000Y-12570000D01*
X22850000Y-12230000D02*
X22510000Y-12570000D01*
X22850000Y-12400000D02*
G75*
G03*
X22850000Y-12400000I-170000J0D01*
G01*
X22510000Y-14150000D02*
X22850000Y-14490000D01*
X22850000Y-14150000D02*
X22510000Y-14490000D01*
X22850000Y-14320000D02*
G75*
G03*
X22850000Y-14320000I-170000J0D01*
G01*
X23720553Y-16558799D02*
X24060553Y-16898799D01*
X24060553Y-16558799D02*
X23720553Y-16898799D01*
X24060553Y-16728799D02*
G75*
G03*
X24060553Y-16728799I-170000J0D01*
G01*
X24430000Y-10599000D02*
X24770000Y-10939000D01*
X24770000Y-10599000D02*
X24430000Y-10939000D01*
X24770000Y-10769000D02*
G75*
G03*
X24770000Y-10769000I-170000J0D01*
G01*
X24430000Y-12519000D02*
X24770000Y-12859000D01*
X24770000Y-12519000D02*
X24430000Y-12859000D01*
X24770000Y-12689000D02*
G75*
G03*
X24770000Y-12689000I-170000J0D01*
G01*
X24430000Y-14439000D02*
X24770000Y-14779000D01*
X24770000Y-14439000D02*
X24430000Y-14779000D01*
X24770000Y-14609000D02*
G75*
G03*
X24770000Y-14609000I-170000J0D01*
G01*
X25892884Y-17158847D02*
X26232884Y-17498847D01*
X26232884Y-17158847D02*
X25892884Y-17498847D01*
X26232884Y-17328847D02*
G75*
G03*
X26232884Y-17328847I-170000J0D01*
G01*
D11*
X14263277Y-19366520D02*
X14263277Y-19166520D01*
X14263277Y-19166520D02*
X14310896Y-19166520D01*
X14310896Y-19166520D02*
X14339467Y-19176043D01*
X14339467Y-19176043D02*
X14358515Y-19195091D01*
X14358515Y-19195091D02*
X14368039Y-19214139D01*
X14368039Y-19214139D02*
X14377562Y-19252234D01*
X14377562Y-19252234D02*
X14377562Y-19280805D01*
X14377562Y-19280805D02*
X14368039Y-19318900D01*
X14368039Y-19318900D02*
X14358515Y-19337948D01*
X14358515Y-19337948D02*
X14339467Y-19356996D01*
X14339467Y-19356996D02*
X14310896Y-19366520D01*
X14310896Y-19366520D02*
X14263277Y-19366520D01*
X14463277Y-19366520D02*
X14463277Y-19233186D01*
X14463277Y-19271281D02*
X14472801Y-19252234D01*
X14472801Y-19252234D02*
X14482324Y-19242710D01*
X14482324Y-19242710D02*
X14501372Y-19233186D01*
X14501372Y-19233186D02*
X14520420Y-19233186D01*
X14587086Y-19366520D02*
X14587086Y-19233186D01*
X14587086Y-19166520D02*
X14577562Y-19176043D01*
X14577562Y-19176043D02*
X14587086Y-19185567D01*
X14587086Y-19185567D02*
X14596610Y-19176043D01*
X14596610Y-19176043D02*
X14587086Y-19166520D01*
X14587086Y-19166520D02*
X14587086Y-19185567D01*
X14710896Y-19366520D02*
X14691848Y-19356996D01*
X14691848Y-19356996D02*
X14682324Y-19337948D01*
X14682324Y-19337948D02*
X14682324Y-19166520D01*
X14815658Y-19366520D02*
X14796610Y-19356996D01*
X14796610Y-19356996D02*
X14787086Y-19337948D01*
X14787086Y-19337948D02*
X14787086Y-19166520D01*
X15044229Y-19366520D02*
X15044229Y-19166520D01*
X15044229Y-19166520D02*
X15110896Y-19309377D01*
X15110896Y-19309377D02*
X15177562Y-19166520D01*
X15177562Y-19166520D02*
X15177562Y-19366520D01*
X15358515Y-19366520D02*
X15358515Y-19261758D01*
X15358515Y-19261758D02*
X15348991Y-19242710D01*
X15348991Y-19242710D02*
X15329943Y-19233186D01*
X15329943Y-19233186D02*
X15291848Y-19233186D01*
X15291848Y-19233186D02*
X15272801Y-19242710D01*
X15358515Y-19356996D02*
X15339467Y-19366520D01*
X15339467Y-19366520D02*
X15291848Y-19366520D01*
X15291848Y-19366520D02*
X15272801Y-19356996D01*
X15272801Y-19356996D02*
X15263277Y-19337948D01*
X15263277Y-19337948D02*
X15263277Y-19318900D01*
X15263277Y-19318900D02*
X15272801Y-19299853D01*
X15272801Y-19299853D02*
X15291848Y-19290329D01*
X15291848Y-19290329D02*
X15339467Y-19290329D01*
X15339467Y-19290329D02*
X15358515Y-19280805D01*
X15453753Y-19233186D02*
X15453753Y-19433186D01*
X15453753Y-19242710D02*
X15472801Y-19233186D01*
X15472801Y-19233186D02*
X15510896Y-19233186D01*
X15510896Y-19233186D02*
X15529943Y-19242710D01*
X15529943Y-19242710D02*
X15539467Y-19252234D01*
X15539467Y-19252234D02*
X15548991Y-19271281D01*
X15548991Y-19271281D02*
X15548991Y-19328424D01*
X15548991Y-19328424D02*
X15539467Y-19347472D01*
X15539467Y-19347472D02*
X15529943Y-19356996D01*
X15529943Y-19356996D02*
X15510896Y-19366520D01*
X15510896Y-19366520D02*
X15472801Y-19366520D01*
X15472801Y-19366520D02*
X15453753Y-19356996D01*
X15634705Y-19347472D02*
X15644229Y-19356996D01*
X15644229Y-19356996D02*
X15634705Y-19366520D01*
X15634705Y-19366520D02*
X15625182Y-19356996D01*
X15625182Y-19356996D02*
X15634705Y-19347472D01*
X15634705Y-19347472D02*
X15634705Y-19366520D01*
X15634705Y-19242710D02*
X15644229Y-19252234D01*
X15644229Y-19252234D02*
X15634705Y-19261758D01*
X15634705Y-19261758D02*
X15625182Y-19252234D01*
X15625182Y-19252234D02*
X15634705Y-19242710D01*
X15634705Y-19242710D02*
X15634705Y-19261758D01*
D12*
X13937500Y-19662536D02*
X14002500Y-19727536D01*
X14002500Y-19662536D02*
X13937500Y-19727536D01*
D11*
X14301372Y-19586520D02*
X14320420Y-19586520D01*
X14320420Y-19586520D02*
X14339467Y-19596043D01*
X14339467Y-19596043D02*
X14348991Y-19605567D01*
X14348991Y-19605567D02*
X14358515Y-19624615D01*
X14358515Y-19624615D02*
X14368039Y-19662710D01*
X14368039Y-19662710D02*
X14368039Y-19710329D01*
X14368039Y-19710329D02*
X14358515Y-19748424D01*
X14358515Y-19748424D02*
X14348991Y-19767472D01*
X14348991Y-19767472D02*
X14339467Y-19776996D01*
X14339467Y-19776996D02*
X14320420Y-19786520D01*
X14320420Y-19786520D02*
X14301372Y-19786520D01*
X14301372Y-19786520D02*
X14282324Y-19776996D01*
X14282324Y-19776996D02*
X14272801Y-19767472D01*
X14272801Y-19767472D02*
X14263277Y-19748424D01*
X14263277Y-19748424D02*
X14253753Y-19710329D01*
X14253753Y-19710329D02*
X14253753Y-19662710D01*
X14253753Y-19662710D02*
X14263277Y-19624615D01*
X14263277Y-19624615D02*
X14272801Y-19605567D01*
X14272801Y-19605567D02*
X14282324Y-19596043D01*
X14282324Y-19596043D02*
X14301372Y-19586520D01*
X14453753Y-19767472D02*
X14463277Y-19776996D01*
X14463277Y-19776996D02*
X14453753Y-19786520D01*
X14453753Y-19786520D02*
X14444229Y-19776996D01*
X14444229Y-19776996D02*
X14453753Y-19767472D01*
X14453753Y-19767472D02*
X14453753Y-19786520D01*
X14634705Y-19586520D02*
X14596610Y-19586520D01*
X14596610Y-19586520D02*
X14577562Y-19596043D01*
X14577562Y-19596043D02*
X14568039Y-19605567D01*
X14568039Y-19605567D02*
X14548991Y-19634139D01*
X14548991Y-19634139D02*
X14539467Y-19672234D01*
X14539467Y-19672234D02*
X14539467Y-19748424D01*
X14539467Y-19748424D02*
X14548991Y-19767472D01*
X14548991Y-19767472D02*
X14558515Y-19776996D01*
X14558515Y-19776996D02*
X14577562Y-19786520D01*
X14577562Y-19786520D02*
X14615658Y-19786520D01*
X14615658Y-19786520D02*
X14634705Y-19776996D01*
X14634705Y-19776996D02*
X14644229Y-19767472D01*
X14644229Y-19767472D02*
X14653753Y-19748424D01*
X14653753Y-19748424D02*
X14653753Y-19700805D01*
X14653753Y-19700805D02*
X14644229Y-19681758D01*
X14644229Y-19681758D02*
X14634705Y-19672234D01*
X14634705Y-19672234D02*
X14615658Y-19662710D01*
X14615658Y-19662710D02*
X14577562Y-19662710D01*
X14577562Y-19662710D02*
X14558515Y-19672234D01*
X14558515Y-19672234D02*
X14548991Y-19681758D01*
X14548991Y-19681758D02*
X14539467Y-19700805D01*
X14834705Y-19586520D02*
X14739467Y-19586520D01*
X14739467Y-19586520D02*
X14729943Y-19681758D01*
X14729943Y-19681758D02*
X14739467Y-19672234D01*
X14739467Y-19672234D02*
X14758515Y-19662710D01*
X14758515Y-19662710D02*
X14806134Y-19662710D01*
X14806134Y-19662710D02*
X14825182Y-19672234D01*
X14825182Y-19672234D02*
X14834705Y-19681758D01*
X14834705Y-19681758D02*
X14844229Y-19700805D01*
X14844229Y-19700805D02*
X14844229Y-19748424D01*
X14844229Y-19748424D02*
X14834705Y-19767472D01*
X14834705Y-19767472D02*
X14825182Y-19776996D01*
X14825182Y-19776996D02*
X14806134Y-19786520D01*
X14806134Y-19786520D02*
X14758515Y-19786520D01*
X14758515Y-19786520D02*
X14739467Y-19776996D01*
X14739467Y-19776996D02*
X14729943Y-19767472D01*
X14968039Y-19586520D02*
X14987086Y-19586520D01*
X14987086Y-19586520D02*
X15006134Y-19596043D01*
X15006134Y-19596043D02*
X15015658Y-19605567D01*
X15015658Y-19605567D02*
X15025182Y-19624615D01*
X15025182Y-19624615D02*
X15034705Y-19662710D01*
X15034705Y-19662710D02*
X15034705Y-19710329D01*
X15034705Y-19710329D02*
X15025182Y-19748424D01*
X15025182Y-19748424D02*
X15015658Y-19767472D01*
X15015658Y-19767472D02*
X15006134Y-19776996D01*
X15006134Y-19776996D02*
X14987086Y-19786520D01*
X14987086Y-19786520D02*
X14968039Y-19786520D01*
X14968039Y-19786520D02*
X14948991Y-19776996D01*
X14948991Y-19776996D02*
X14939467Y-19767472D01*
X14939467Y-19767472D02*
X14929943Y-19748424D01*
X14929943Y-19748424D02*
X14920420Y-19710329D01*
X14920420Y-19710329D02*
X14920420Y-19662710D01*
X14920420Y-19662710D02*
X14929943Y-19624615D01*
X14929943Y-19624615D02*
X14939467Y-19605567D01*
X14939467Y-19605567D02*
X14948991Y-19596043D01*
X14948991Y-19596043D02*
X14968039Y-19586520D01*
X15120420Y-19786520D02*
X15120420Y-19653186D01*
X15120420Y-19672234D02*
X15129943Y-19662710D01*
X15129943Y-19662710D02*
X15148991Y-19653186D01*
X15148991Y-19653186D02*
X15177563Y-19653186D01*
X15177563Y-19653186D02*
X15196610Y-19662710D01*
X15196610Y-19662710D02*
X15206134Y-19681758D01*
X15206134Y-19681758D02*
X15206134Y-19786520D01*
X15206134Y-19681758D02*
X15215658Y-19662710D01*
X15215658Y-19662710D02*
X15234705Y-19653186D01*
X15234705Y-19653186D02*
X15263277Y-19653186D01*
X15263277Y-19653186D02*
X15282324Y-19662710D01*
X15282324Y-19662710D02*
X15291848Y-19681758D01*
X15291848Y-19681758D02*
X15291848Y-19786520D01*
X15387086Y-19786520D02*
X15387086Y-19653186D01*
X15387086Y-19672234D02*
X15396610Y-19662710D01*
X15396610Y-19662710D02*
X15415658Y-19653186D01*
X15415658Y-19653186D02*
X15444229Y-19653186D01*
X15444229Y-19653186D02*
X15463277Y-19662710D01*
X15463277Y-19662710D02*
X15472801Y-19681758D01*
X15472801Y-19681758D02*
X15472801Y-19786520D01*
X15472801Y-19681758D02*
X15482324Y-19662710D01*
X15482324Y-19662710D02*
X15501372Y-19653186D01*
X15501372Y-19653186D02*
X15529943Y-19653186D01*
X15529943Y-19653186D02*
X15548991Y-19662710D01*
X15548991Y-19662710D02*
X15558515Y-19681758D01*
X15558515Y-19681758D02*
X15558515Y-19786520D01*
X15948991Y-19576996D02*
X15777563Y-19834139D01*
X16206134Y-19586520D02*
X16225182Y-19586520D01*
X16225182Y-19586520D02*
X16244229Y-19596043D01*
X16244229Y-19596043D02*
X16253753Y-19605567D01*
X16253753Y-19605567D02*
X16263277Y-19624615D01*
X16263277Y-19624615D02*
X16272801Y-19662710D01*
X16272801Y-19662710D02*
X16272801Y-19710329D01*
X16272801Y-19710329D02*
X16263277Y-19748424D01*
X16263277Y-19748424D02*
X16253753Y-19767472D01*
X16253753Y-19767472D02*
X16244229Y-19776996D01*
X16244229Y-19776996D02*
X16225182Y-19786520D01*
X16225182Y-19786520D02*
X16206134Y-19786520D01*
X16206134Y-19786520D02*
X16187086Y-19776996D01*
X16187086Y-19776996D02*
X16177563Y-19767472D01*
X16177563Y-19767472D02*
X16168039Y-19748424D01*
X16168039Y-19748424D02*
X16158515Y-19710329D01*
X16158515Y-19710329D02*
X16158515Y-19662710D01*
X16158515Y-19662710D02*
X16168039Y-19624615D01*
X16168039Y-19624615D02*
X16177563Y-19605567D01*
X16177563Y-19605567D02*
X16187086Y-19596043D01*
X16187086Y-19596043D02*
X16206134Y-19586520D01*
X16358515Y-19767472D02*
X16368039Y-19776996D01*
X16368039Y-19776996D02*
X16358515Y-19786520D01*
X16358515Y-19786520D02*
X16348991Y-19776996D01*
X16348991Y-19776996D02*
X16358515Y-19767472D01*
X16358515Y-19767472D02*
X16358515Y-19786520D01*
X16491848Y-19586520D02*
X16510896Y-19586520D01*
X16510896Y-19586520D02*
X16529944Y-19596043D01*
X16529944Y-19596043D02*
X16539467Y-19605567D01*
X16539467Y-19605567D02*
X16548991Y-19624615D01*
X16548991Y-19624615D02*
X16558515Y-19662710D01*
X16558515Y-19662710D02*
X16558515Y-19710329D01*
X16558515Y-19710329D02*
X16548991Y-19748424D01*
X16548991Y-19748424D02*
X16539467Y-19767472D01*
X16539467Y-19767472D02*
X16529944Y-19776996D01*
X16529944Y-19776996D02*
X16510896Y-19786520D01*
X16510896Y-19786520D02*
X16491848Y-19786520D01*
X16491848Y-19786520D02*
X16472801Y-19776996D01*
X16472801Y-19776996D02*
X16463277Y-19767472D01*
X16463277Y-19767472D02*
X16453753Y-19748424D01*
X16453753Y-19748424D02*
X16444229Y-19710329D01*
X16444229Y-19710329D02*
X16444229Y-19662710D01*
X16444229Y-19662710D02*
X16453753Y-19624615D01*
X16453753Y-19624615D02*
X16463277Y-19605567D01*
X16463277Y-19605567D02*
X16472801Y-19596043D01*
X16472801Y-19596043D02*
X16491848Y-19586520D01*
X16634706Y-19605567D02*
X16644229Y-19596043D01*
X16644229Y-19596043D02*
X16663277Y-19586520D01*
X16663277Y-19586520D02*
X16710896Y-19586520D01*
X16710896Y-19586520D02*
X16729944Y-19596043D01*
X16729944Y-19596043D02*
X16739467Y-19605567D01*
X16739467Y-19605567D02*
X16748991Y-19624615D01*
X16748991Y-19624615D02*
X16748991Y-19643662D01*
X16748991Y-19643662D02*
X16739467Y-19672234D01*
X16739467Y-19672234D02*
X16625182Y-19786520D01*
X16625182Y-19786520D02*
X16748991Y-19786520D01*
X16929944Y-19586520D02*
X16834706Y-19586520D01*
X16834706Y-19586520D02*
X16825182Y-19681758D01*
X16825182Y-19681758D02*
X16834706Y-19672234D01*
X16834706Y-19672234D02*
X16853753Y-19662710D01*
X16853753Y-19662710D02*
X16901372Y-19662710D01*
X16901372Y-19662710D02*
X16920420Y-19672234D01*
X16920420Y-19672234D02*
X16929944Y-19681758D01*
X16929944Y-19681758D02*
X16939468Y-19700805D01*
X16939468Y-19700805D02*
X16939468Y-19748424D01*
X16939468Y-19748424D02*
X16929944Y-19767472D01*
X16929944Y-19767472D02*
X16920420Y-19776996D01*
X16920420Y-19776996D02*
X16901372Y-19786520D01*
X16901372Y-19786520D02*
X16853753Y-19786520D01*
X16853753Y-19786520D02*
X16834706Y-19776996D01*
X16834706Y-19776996D02*
X16825182Y-19767472D01*
X17110896Y-19586520D02*
X17072801Y-19586520D01*
X17072801Y-19586520D02*
X17053753Y-19596043D01*
X17053753Y-19596043D02*
X17044229Y-19605567D01*
X17044229Y-19605567D02*
X17025182Y-19634139D01*
X17025182Y-19634139D02*
X17015658Y-19672234D01*
X17015658Y-19672234D02*
X17015658Y-19748424D01*
X17015658Y-19748424D02*
X17025182Y-19767472D01*
X17025182Y-19767472D02*
X17034706Y-19776996D01*
X17034706Y-19776996D02*
X17053753Y-19786520D01*
X17053753Y-19786520D02*
X17091849Y-19786520D01*
X17091849Y-19786520D02*
X17110896Y-19776996D01*
X17110896Y-19776996D02*
X17120420Y-19767472D01*
X17120420Y-19767472D02*
X17129944Y-19748424D01*
X17129944Y-19748424D02*
X17129944Y-19700805D01*
X17129944Y-19700805D02*
X17120420Y-19681758D01*
X17120420Y-19681758D02*
X17110896Y-19672234D01*
X17110896Y-19672234D02*
X17091849Y-19662710D01*
X17091849Y-19662710D02*
X17053753Y-19662710D01*
X17053753Y-19662710D02*
X17034706Y-19672234D01*
X17034706Y-19672234D02*
X17025182Y-19681758D01*
X17025182Y-19681758D02*
X17015658Y-19700805D01*
X17206134Y-19586520D02*
X17206134Y-19624615D01*
X17282325Y-19586520D02*
X17282325Y-19624615D01*
X17577563Y-19862710D02*
X17568039Y-19853186D01*
X17568039Y-19853186D02*
X17548991Y-19824615D01*
X17548991Y-19824615D02*
X17539468Y-19805567D01*
X17539468Y-19805567D02*
X17529944Y-19776996D01*
X17529944Y-19776996D02*
X17520420Y-19729377D01*
X17520420Y-19729377D02*
X17520420Y-19691281D01*
X17520420Y-19691281D02*
X17529944Y-19643662D01*
X17529944Y-19643662D02*
X17539468Y-19615091D01*
X17539468Y-19615091D02*
X17548991Y-19596043D01*
X17548991Y-19596043D02*
X17568039Y-19567472D01*
X17568039Y-19567472D02*
X17577563Y-19557948D01*
X17644230Y-19605567D02*
X17653753Y-19596043D01*
X17653753Y-19596043D02*
X17672801Y-19586520D01*
X17672801Y-19586520D02*
X17720420Y-19586520D01*
X17720420Y-19586520D02*
X17739468Y-19596043D01*
X17739468Y-19596043D02*
X17748991Y-19605567D01*
X17748991Y-19605567D02*
X17758515Y-19624615D01*
X17758515Y-19624615D02*
X17758515Y-19643662D01*
X17758515Y-19643662D02*
X17748991Y-19672234D01*
X17748991Y-19672234D02*
X17634706Y-19786520D01*
X17634706Y-19786520D02*
X17758515Y-19786520D01*
X17996611Y-19786520D02*
X17996611Y-19586520D01*
X18082325Y-19786520D02*
X18082325Y-19681758D01*
X18082325Y-19681758D02*
X18072801Y-19662710D01*
X18072801Y-19662710D02*
X18053753Y-19653186D01*
X18053753Y-19653186D02*
X18025182Y-19653186D01*
X18025182Y-19653186D02*
X18006134Y-19662710D01*
X18006134Y-19662710D02*
X17996611Y-19672234D01*
X18206134Y-19786520D02*
X18187087Y-19776996D01*
X18187087Y-19776996D02*
X18177563Y-19767472D01*
X18177563Y-19767472D02*
X18168039Y-19748424D01*
X18168039Y-19748424D02*
X18168039Y-19691281D01*
X18168039Y-19691281D02*
X18177563Y-19672234D01*
X18177563Y-19672234D02*
X18187087Y-19662710D01*
X18187087Y-19662710D02*
X18206134Y-19653186D01*
X18206134Y-19653186D02*
X18234706Y-19653186D01*
X18234706Y-19653186D02*
X18253753Y-19662710D01*
X18253753Y-19662710D02*
X18263277Y-19672234D01*
X18263277Y-19672234D02*
X18272801Y-19691281D01*
X18272801Y-19691281D02*
X18272801Y-19748424D01*
X18272801Y-19748424D02*
X18263277Y-19767472D01*
X18263277Y-19767472D02*
X18253753Y-19776996D01*
X18253753Y-19776996D02*
X18234706Y-19786520D01*
X18234706Y-19786520D02*
X18206134Y-19786520D01*
X18387087Y-19786520D02*
X18368039Y-19776996D01*
X18368039Y-19776996D02*
X18358515Y-19757948D01*
X18358515Y-19757948D02*
X18358515Y-19586520D01*
X18539468Y-19776996D02*
X18520420Y-19786520D01*
X18520420Y-19786520D02*
X18482325Y-19786520D01*
X18482325Y-19786520D02*
X18463277Y-19776996D01*
X18463277Y-19776996D02*
X18453753Y-19757948D01*
X18453753Y-19757948D02*
X18453753Y-19681758D01*
X18453753Y-19681758D02*
X18463277Y-19662710D01*
X18463277Y-19662710D02*
X18482325Y-19653186D01*
X18482325Y-19653186D02*
X18520420Y-19653186D01*
X18520420Y-19653186D02*
X18539468Y-19662710D01*
X18539468Y-19662710D02*
X18548992Y-19681758D01*
X18548992Y-19681758D02*
X18548992Y-19700805D01*
X18548992Y-19700805D02*
X18453753Y-19719853D01*
X18625182Y-19776996D02*
X18644230Y-19786520D01*
X18644230Y-19786520D02*
X18682325Y-19786520D01*
X18682325Y-19786520D02*
X18701373Y-19776996D01*
X18701373Y-19776996D02*
X18710896Y-19757948D01*
X18710896Y-19757948D02*
X18710896Y-19748424D01*
X18710896Y-19748424D02*
X18701373Y-19729377D01*
X18701373Y-19729377D02*
X18682325Y-19719853D01*
X18682325Y-19719853D02*
X18653753Y-19719853D01*
X18653753Y-19719853D02*
X18634706Y-19710329D01*
X18634706Y-19710329D02*
X18625182Y-19691281D01*
X18625182Y-19691281D02*
X18625182Y-19681758D01*
X18625182Y-19681758D02*
X18634706Y-19662710D01*
X18634706Y-19662710D02*
X18653753Y-19653186D01*
X18653753Y-19653186D02*
X18682325Y-19653186D01*
X18682325Y-19653186D02*
X18701373Y-19662710D01*
X18777563Y-19862710D02*
X18787087Y-19853186D01*
X18787087Y-19853186D02*
X18806134Y-19824615D01*
X18806134Y-19824615D02*
X18815658Y-19805567D01*
X18815658Y-19805567D02*
X18825182Y-19776996D01*
X18825182Y-19776996D02*
X18834706Y-19729377D01*
X18834706Y-19729377D02*
X18834706Y-19691281D01*
X18834706Y-19691281D02*
X18825182Y-19643662D01*
X18825182Y-19643662D02*
X18815658Y-19615091D01*
X18815658Y-19615091D02*
X18806134Y-19596043D01*
X18806134Y-19596043D02*
X18787087Y-19567472D01*
X18787087Y-19567472D02*
X18777563Y-19557948D01*
X19139468Y-19862710D02*
X19129944Y-19853186D01*
X19129944Y-19853186D02*
X19110896Y-19824615D01*
X19110896Y-19824615D02*
X19101373Y-19805567D01*
X19101373Y-19805567D02*
X19091849Y-19776996D01*
X19091849Y-19776996D02*
X19082325Y-19729377D01*
X19082325Y-19729377D02*
X19082325Y-19691281D01*
X19082325Y-19691281D02*
X19091849Y-19643662D01*
X19091849Y-19643662D02*
X19101373Y-19615091D01*
X19101373Y-19615091D02*
X19110896Y-19596043D01*
X19110896Y-19596043D02*
X19129944Y-19567472D01*
X19129944Y-19567472D02*
X19139468Y-19557948D01*
X19215658Y-19653186D02*
X19215658Y-19786520D01*
X19215658Y-19672234D02*
X19225182Y-19662710D01*
X19225182Y-19662710D02*
X19244230Y-19653186D01*
X19244230Y-19653186D02*
X19272801Y-19653186D01*
X19272801Y-19653186D02*
X19291849Y-19662710D01*
X19291849Y-19662710D02*
X19301373Y-19681758D01*
X19301373Y-19681758D02*
X19301373Y-19786520D01*
X19425182Y-19786520D02*
X19406134Y-19776996D01*
X19406134Y-19776996D02*
X19396611Y-19767472D01*
X19396611Y-19767472D02*
X19387087Y-19748424D01*
X19387087Y-19748424D02*
X19387087Y-19691281D01*
X19387087Y-19691281D02*
X19396611Y-19672234D01*
X19396611Y-19672234D02*
X19406134Y-19662710D01*
X19406134Y-19662710D02*
X19425182Y-19653186D01*
X19425182Y-19653186D02*
X19453754Y-19653186D01*
X19453754Y-19653186D02*
X19472801Y-19662710D01*
X19472801Y-19662710D02*
X19482325Y-19672234D01*
X19482325Y-19672234D02*
X19491849Y-19691281D01*
X19491849Y-19691281D02*
X19491849Y-19748424D01*
X19491849Y-19748424D02*
X19482325Y-19767472D01*
X19482325Y-19767472D02*
X19472801Y-19776996D01*
X19472801Y-19776996D02*
X19453754Y-19786520D01*
X19453754Y-19786520D02*
X19425182Y-19786520D01*
X19548992Y-19653186D02*
X19625182Y-19653186D01*
X19577563Y-19586520D02*
X19577563Y-19757948D01*
X19577563Y-19757948D02*
X19587087Y-19776996D01*
X19587087Y-19776996D02*
X19606134Y-19786520D01*
X19606134Y-19786520D02*
X19625182Y-19786520D01*
X19844230Y-19653186D02*
X19844230Y-19853186D01*
X19844230Y-19662710D02*
X19863277Y-19653186D01*
X19863277Y-19653186D02*
X19901373Y-19653186D01*
X19901373Y-19653186D02*
X19920420Y-19662710D01*
X19920420Y-19662710D02*
X19929944Y-19672234D01*
X19929944Y-19672234D02*
X19939468Y-19691281D01*
X19939468Y-19691281D02*
X19939468Y-19748424D01*
X19939468Y-19748424D02*
X19929944Y-19767472D01*
X19929944Y-19767472D02*
X19920420Y-19776996D01*
X19920420Y-19776996D02*
X19901373Y-19786520D01*
X19901373Y-19786520D02*
X19863277Y-19786520D01*
X19863277Y-19786520D02*
X19844230Y-19776996D01*
X20053754Y-19786520D02*
X20034706Y-19776996D01*
X20034706Y-19776996D02*
X20025182Y-19757948D01*
X20025182Y-19757948D02*
X20025182Y-19586520D01*
X20215658Y-19786520D02*
X20215658Y-19681758D01*
X20215658Y-19681758D02*
X20206135Y-19662710D01*
X20206135Y-19662710D02*
X20187087Y-19653186D01*
X20187087Y-19653186D02*
X20148992Y-19653186D01*
X20148992Y-19653186D02*
X20129944Y-19662710D01*
X20215658Y-19776996D02*
X20196611Y-19786520D01*
X20196611Y-19786520D02*
X20148992Y-19786520D01*
X20148992Y-19786520D02*
X20129944Y-19776996D01*
X20129944Y-19776996D02*
X20120420Y-19757948D01*
X20120420Y-19757948D02*
X20120420Y-19738900D01*
X20120420Y-19738900D02*
X20129944Y-19719853D01*
X20129944Y-19719853D02*
X20148992Y-19710329D01*
X20148992Y-19710329D02*
X20196611Y-19710329D01*
X20196611Y-19710329D02*
X20215658Y-19700805D01*
X20282325Y-19653186D02*
X20358515Y-19653186D01*
X20310896Y-19586520D02*
X20310896Y-19757948D01*
X20310896Y-19757948D02*
X20320420Y-19776996D01*
X20320420Y-19776996D02*
X20339468Y-19786520D01*
X20339468Y-19786520D02*
X20358515Y-19786520D01*
X20501373Y-19776996D02*
X20482325Y-19786520D01*
X20482325Y-19786520D02*
X20444230Y-19786520D01*
X20444230Y-19786520D02*
X20425182Y-19776996D01*
X20425182Y-19776996D02*
X20415658Y-19757948D01*
X20415658Y-19757948D02*
X20415658Y-19681758D01*
X20415658Y-19681758D02*
X20425182Y-19662710D01*
X20425182Y-19662710D02*
X20444230Y-19653186D01*
X20444230Y-19653186D02*
X20482325Y-19653186D01*
X20482325Y-19653186D02*
X20501373Y-19662710D01*
X20501373Y-19662710D02*
X20510896Y-19681758D01*
X20510896Y-19681758D02*
X20510896Y-19700805D01*
X20510896Y-19700805D02*
X20415658Y-19719853D01*
X20682325Y-19786520D02*
X20682325Y-19586520D01*
X20682325Y-19776996D02*
X20663277Y-19786520D01*
X20663277Y-19786520D02*
X20625182Y-19786520D01*
X20625182Y-19786520D02*
X20606135Y-19776996D01*
X20606135Y-19776996D02*
X20596611Y-19767472D01*
X20596611Y-19767472D02*
X20587087Y-19748424D01*
X20587087Y-19748424D02*
X20587087Y-19691281D01*
X20587087Y-19691281D02*
X20596611Y-19672234D01*
X20596611Y-19672234D02*
X20606135Y-19662710D01*
X20606135Y-19662710D02*
X20625182Y-19653186D01*
X20625182Y-19653186D02*
X20663277Y-19653186D01*
X20663277Y-19653186D02*
X20682325Y-19662710D01*
X20758516Y-19862710D02*
X20768039Y-19853186D01*
X20768039Y-19853186D02*
X20787087Y-19824615D01*
X20787087Y-19824615D02*
X20796611Y-19805567D01*
X20796611Y-19805567D02*
X20806135Y-19776996D01*
X20806135Y-19776996D02*
X20815658Y-19729377D01*
X20815658Y-19729377D02*
X20815658Y-19691281D01*
X20815658Y-19691281D02*
X20806135Y-19643662D01*
X20806135Y-19643662D02*
X20796611Y-19615091D01*
X20796611Y-19615091D02*
X20787087Y-19596043D01*
X20787087Y-19596043D02*
X20768039Y-19567472D01*
X20768039Y-19567472D02*
X20758516Y-19557948D01*
D13*
X14002500Y-19959036D02*
G75*
G03*
X14002500Y-19959036I-45000J0D01*
G01*
D11*
X14301372Y-19850520D02*
X14320420Y-19850520D01*
X14320420Y-19850520D02*
X14339467Y-19860043D01*
X14339467Y-19860043D02*
X14348991Y-19869567D01*
X14348991Y-19869567D02*
X14358515Y-19888615D01*
X14358515Y-19888615D02*
X14368039Y-19926710D01*
X14368039Y-19926710D02*
X14368039Y-19974329D01*
X14368039Y-19974329D02*
X14358515Y-20012424D01*
X14358515Y-20012424D02*
X14348991Y-20031472D01*
X14348991Y-20031472D02*
X14339467Y-20040996D01*
X14339467Y-20040996D02*
X14320420Y-20050520D01*
X14320420Y-20050520D02*
X14301372Y-20050520D01*
X14301372Y-20050520D02*
X14282324Y-20040996D01*
X14282324Y-20040996D02*
X14272801Y-20031472D01*
X14272801Y-20031472D02*
X14263277Y-20012424D01*
X14263277Y-20012424D02*
X14253753Y-19974329D01*
X14253753Y-19974329D02*
X14253753Y-19926710D01*
X14253753Y-19926710D02*
X14263277Y-19888615D01*
X14263277Y-19888615D02*
X14272801Y-19869567D01*
X14272801Y-19869567D02*
X14282324Y-19860043D01*
X14282324Y-19860043D02*
X14301372Y-19850520D01*
X14453753Y-20031472D02*
X14463277Y-20040996D01*
X14463277Y-20040996D02*
X14453753Y-20050520D01*
X14453753Y-20050520D02*
X14444229Y-20040996D01*
X14444229Y-20040996D02*
X14453753Y-20031472D01*
X14453753Y-20031472D02*
X14453753Y-20050520D01*
X14558515Y-20050520D02*
X14596610Y-20050520D01*
X14596610Y-20050520D02*
X14615658Y-20040996D01*
X14615658Y-20040996D02*
X14625182Y-20031472D01*
X14625182Y-20031472D02*
X14644229Y-20002900D01*
X14644229Y-20002900D02*
X14653753Y-19964805D01*
X14653753Y-19964805D02*
X14653753Y-19888615D01*
X14653753Y-19888615D02*
X14644229Y-19869567D01*
X14644229Y-19869567D02*
X14634705Y-19860043D01*
X14634705Y-19860043D02*
X14615658Y-19850520D01*
X14615658Y-19850520D02*
X14577562Y-19850520D01*
X14577562Y-19850520D02*
X14558515Y-19860043D01*
X14558515Y-19860043D02*
X14548991Y-19869567D01*
X14548991Y-19869567D02*
X14539467Y-19888615D01*
X14539467Y-19888615D02*
X14539467Y-19936234D01*
X14539467Y-19936234D02*
X14548991Y-19955281D01*
X14548991Y-19955281D02*
X14558515Y-19964805D01*
X14558515Y-19964805D02*
X14577562Y-19974329D01*
X14577562Y-19974329D02*
X14615658Y-19974329D01*
X14615658Y-19974329D02*
X14634705Y-19964805D01*
X14634705Y-19964805D02*
X14644229Y-19955281D01*
X14644229Y-19955281D02*
X14653753Y-19936234D01*
X14777562Y-19850520D02*
X14796610Y-19850520D01*
X14796610Y-19850520D02*
X14815658Y-19860043D01*
X14815658Y-19860043D02*
X14825182Y-19869567D01*
X14825182Y-19869567D02*
X14834705Y-19888615D01*
X14834705Y-19888615D02*
X14844229Y-19926710D01*
X14844229Y-19926710D02*
X14844229Y-19974329D01*
X14844229Y-19974329D02*
X14834705Y-20012424D01*
X14834705Y-20012424D02*
X14825182Y-20031472D01*
X14825182Y-20031472D02*
X14815658Y-20040996D01*
X14815658Y-20040996D02*
X14796610Y-20050520D01*
X14796610Y-20050520D02*
X14777562Y-20050520D01*
X14777562Y-20050520D02*
X14758515Y-20040996D01*
X14758515Y-20040996D02*
X14748991Y-20031472D01*
X14748991Y-20031472D02*
X14739467Y-20012424D01*
X14739467Y-20012424D02*
X14729943Y-19974329D01*
X14729943Y-19974329D02*
X14729943Y-19926710D01*
X14729943Y-19926710D02*
X14739467Y-19888615D01*
X14739467Y-19888615D02*
X14748991Y-19869567D01*
X14748991Y-19869567D02*
X14758515Y-19860043D01*
X14758515Y-19860043D02*
X14777562Y-19850520D01*
X14968039Y-19850520D02*
X14987086Y-19850520D01*
X14987086Y-19850520D02*
X15006134Y-19860043D01*
X15006134Y-19860043D02*
X15015658Y-19869567D01*
X15015658Y-19869567D02*
X15025182Y-19888615D01*
X15025182Y-19888615D02*
X15034705Y-19926710D01*
X15034705Y-19926710D02*
X15034705Y-19974329D01*
X15034705Y-19974329D02*
X15025182Y-20012424D01*
X15025182Y-20012424D02*
X15015658Y-20031472D01*
X15015658Y-20031472D02*
X15006134Y-20040996D01*
X15006134Y-20040996D02*
X14987086Y-20050520D01*
X14987086Y-20050520D02*
X14968039Y-20050520D01*
X14968039Y-20050520D02*
X14948991Y-20040996D01*
X14948991Y-20040996D02*
X14939467Y-20031472D01*
X14939467Y-20031472D02*
X14929943Y-20012424D01*
X14929943Y-20012424D02*
X14920420Y-19974329D01*
X14920420Y-19974329D02*
X14920420Y-19926710D01*
X14920420Y-19926710D02*
X14929943Y-19888615D01*
X14929943Y-19888615D02*
X14939467Y-19869567D01*
X14939467Y-19869567D02*
X14948991Y-19860043D01*
X14948991Y-19860043D02*
X14968039Y-19850520D01*
X15120420Y-20050520D02*
X15120420Y-19917186D01*
X15120420Y-19936234D02*
X15129943Y-19926710D01*
X15129943Y-19926710D02*
X15148991Y-19917186D01*
X15148991Y-19917186D02*
X15177563Y-19917186D01*
X15177563Y-19917186D02*
X15196610Y-19926710D01*
X15196610Y-19926710D02*
X15206134Y-19945758D01*
X15206134Y-19945758D02*
X15206134Y-20050520D01*
X15206134Y-19945758D02*
X15215658Y-19926710D01*
X15215658Y-19926710D02*
X15234705Y-19917186D01*
X15234705Y-19917186D02*
X15263277Y-19917186D01*
X15263277Y-19917186D02*
X15282324Y-19926710D01*
X15282324Y-19926710D02*
X15291848Y-19945758D01*
X15291848Y-19945758D02*
X15291848Y-20050520D01*
X15387086Y-20050520D02*
X15387086Y-19917186D01*
X15387086Y-19936234D02*
X15396610Y-19926710D01*
X15396610Y-19926710D02*
X15415658Y-19917186D01*
X15415658Y-19917186D02*
X15444229Y-19917186D01*
X15444229Y-19917186D02*
X15463277Y-19926710D01*
X15463277Y-19926710D02*
X15472801Y-19945758D01*
X15472801Y-19945758D02*
X15472801Y-20050520D01*
X15472801Y-19945758D02*
X15482324Y-19926710D01*
X15482324Y-19926710D02*
X15501372Y-19917186D01*
X15501372Y-19917186D02*
X15529943Y-19917186D01*
X15529943Y-19917186D02*
X15548991Y-19926710D01*
X15548991Y-19926710D02*
X15558515Y-19945758D01*
X15558515Y-19945758D02*
X15558515Y-20050520D01*
X15948991Y-19840996D02*
X15777563Y-20098139D01*
X16206134Y-19850520D02*
X16225182Y-19850520D01*
X16225182Y-19850520D02*
X16244229Y-19860043D01*
X16244229Y-19860043D02*
X16253753Y-19869567D01*
X16253753Y-19869567D02*
X16263277Y-19888615D01*
X16263277Y-19888615D02*
X16272801Y-19926710D01*
X16272801Y-19926710D02*
X16272801Y-19974329D01*
X16272801Y-19974329D02*
X16263277Y-20012424D01*
X16263277Y-20012424D02*
X16253753Y-20031472D01*
X16253753Y-20031472D02*
X16244229Y-20040996D01*
X16244229Y-20040996D02*
X16225182Y-20050520D01*
X16225182Y-20050520D02*
X16206134Y-20050520D01*
X16206134Y-20050520D02*
X16187086Y-20040996D01*
X16187086Y-20040996D02*
X16177563Y-20031472D01*
X16177563Y-20031472D02*
X16168039Y-20012424D01*
X16168039Y-20012424D02*
X16158515Y-19974329D01*
X16158515Y-19974329D02*
X16158515Y-19926710D01*
X16158515Y-19926710D02*
X16168039Y-19888615D01*
X16168039Y-19888615D02*
X16177563Y-19869567D01*
X16177563Y-19869567D02*
X16187086Y-19860043D01*
X16187086Y-19860043D02*
X16206134Y-19850520D01*
X16358515Y-20031472D02*
X16368039Y-20040996D01*
X16368039Y-20040996D02*
X16358515Y-20050520D01*
X16358515Y-20050520D02*
X16348991Y-20040996D01*
X16348991Y-20040996D02*
X16358515Y-20031472D01*
X16358515Y-20031472D02*
X16358515Y-20050520D01*
X16491848Y-19850520D02*
X16510896Y-19850520D01*
X16510896Y-19850520D02*
X16529944Y-19860043D01*
X16529944Y-19860043D02*
X16539467Y-19869567D01*
X16539467Y-19869567D02*
X16548991Y-19888615D01*
X16548991Y-19888615D02*
X16558515Y-19926710D01*
X16558515Y-19926710D02*
X16558515Y-19974329D01*
X16558515Y-19974329D02*
X16548991Y-20012424D01*
X16548991Y-20012424D02*
X16539467Y-20031472D01*
X16539467Y-20031472D02*
X16529944Y-20040996D01*
X16529944Y-20040996D02*
X16510896Y-20050520D01*
X16510896Y-20050520D02*
X16491848Y-20050520D01*
X16491848Y-20050520D02*
X16472801Y-20040996D01*
X16472801Y-20040996D02*
X16463277Y-20031472D01*
X16463277Y-20031472D02*
X16453753Y-20012424D01*
X16453753Y-20012424D02*
X16444229Y-19974329D01*
X16444229Y-19974329D02*
X16444229Y-19926710D01*
X16444229Y-19926710D02*
X16453753Y-19888615D01*
X16453753Y-19888615D02*
X16463277Y-19869567D01*
X16463277Y-19869567D02*
X16472801Y-19860043D01*
X16472801Y-19860043D02*
X16491848Y-19850520D01*
X16625182Y-19850520D02*
X16748991Y-19850520D01*
X16748991Y-19850520D02*
X16682325Y-19926710D01*
X16682325Y-19926710D02*
X16710896Y-19926710D01*
X16710896Y-19926710D02*
X16729944Y-19936234D01*
X16729944Y-19936234D02*
X16739467Y-19945758D01*
X16739467Y-19945758D02*
X16748991Y-19964805D01*
X16748991Y-19964805D02*
X16748991Y-20012424D01*
X16748991Y-20012424D02*
X16739467Y-20031472D01*
X16739467Y-20031472D02*
X16729944Y-20040996D01*
X16729944Y-20040996D02*
X16710896Y-20050520D01*
X16710896Y-20050520D02*
X16653753Y-20050520D01*
X16653753Y-20050520D02*
X16634706Y-20040996D01*
X16634706Y-20040996D02*
X16625182Y-20031472D01*
X16929944Y-19850520D02*
X16834706Y-19850520D01*
X16834706Y-19850520D02*
X16825182Y-19945758D01*
X16825182Y-19945758D02*
X16834706Y-19936234D01*
X16834706Y-19936234D02*
X16853753Y-19926710D01*
X16853753Y-19926710D02*
X16901372Y-19926710D01*
X16901372Y-19926710D02*
X16920420Y-19936234D01*
X16920420Y-19936234D02*
X16929944Y-19945758D01*
X16929944Y-19945758D02*
X16939468Y-19964805D01*
X16939468Y-19964805D02*
X16939468Y-20012424D01*
X16939468Y-20012424D02*
X16929944Y-20031472D01*
X16929944Y-20031472D02*
X16920420Y-20040996D01*
X16920420Y-20040996D02*
X16901372Y-20050520D01*
X16901372Y-20050520D02*
X16853753Y-20050520D01*
X16853753Y-20050520D02*
X16834706Y-20040996D01*
X16834706Y-20040996D02*
X16825182Y-20031472D01*
X17110896Y-19917186D02*
X17110896Y-20050520D01*
X17063277Y-19840996D02*
X17015658Y-19983853D01*
X17015658Y-19983853D02*
X17139468Y-19983853D01*
X17206134Y-19850520D02*
X17206134Y-19888615D01*
X17282325Y-19850520D02*
X17282325Y-19888615D01*
X17577563Y-20126710D02*
X17568039Y-20117186D01*
X17568039Y-20117186D02*
X17548991Y-20088615D01*
X17548991Y-20088615D02*
X17539468Y-20069567D01*
X17539468Y-20069567D02*
X17529944Y-20040996D01*
X17529944Y-20040996D02*
X17520420Y-19993377D01*
X17520420Y-19993377D02*
X17520420Y-19955281D01*
X17520420Y-19955281D02*
X17529944Y-19907662D01*
X17529944Y-19907662D02*
X17539468Y-19879091D01*
X17539468Y-19879091D02*
X17548991Y-19860043D01*
X17548991Y-19860043D02*
X17568039Y-19831472D01*
X17568039Y-19831472D02*
X17577563Y-19821948D01*
X17644230Y-19869567D02*
X17653753Y-19860043D01*
X17653753Y-19860043D02*
X17672801Y-19850520D01*
X17672801Y-19850520D02*
X17720420Y-19850520D01*
X17720420Y-19850520D02*
X17739468Y-19860043D01*
X17739468Y-19860043D02*
X17748991Y-19869567D01*
X17748991Y-19869567D02*
X17758515Y-19888615D01*
X17758515Y-19888615D02*
X17758515Y-19907662D01*
X17758515Y-19907662D02*
X17748991Y-19936234D01*
X17748991Y-19936234D02*
X17634706Y-20050520D01*
X17634706Y-20050520D02*
X17758515Y-20050520D01*
X17996611Y-20050520D02*
X17996611Y-19850520D01*
X18082325Y-20050520D02*
X18082325Y-19945758D01*
X18082325Y-19945758D02*
X18072801Y-19926710D01*
X18072801Y-19926710D02*
X18053753Y-19917186D01*
X18053753Y-19917186D02*
X18025182Y-19917186D01*
X18025182Y-19917186D02*
X18006134Y-19926710D01*
X18006134Y-19926710D02*
X17996611Y-19936234D01*
X18206134Y-20050520D02*
X18187087Y-20040996D01*
X18187087Y-20040996D02*
X18177563Y-20031472D01*
X18177563Y-20031472D02*
X18168039Y-20012424D01*
X18168039Y-20012424D02*
X18168039Y-19955281D01*
X18168039Y-19955281D02*
X18177563Y-19936234D01*
X18177563Y-19936234D02*
X18187087Y-19926710D01*
X18187087Y-19926710D02*
X18206134Y-19917186D01*
X18206134Y-19917186D02*
X18234706Y-19917186D01*
X18234706Y-19917186D02*
X18253753Y-19926710D01*
X18253753Y-19926710D02*
X18263277Y-19936234D01*
X18263277Y-19936234D02*
X18272801Y-19955281D01*
X18272801Y-19955281D02*
X18272801Y-20012424D01*
X18272801Y-20012424D02*
X18263277Y-20031472D01*
X18263277Y-20031472D02*
X18253753Y-20040996D01*
X18253753Y-20040996D02*
X18234706Y-20050520D01*
X18234706Y-20050520D02*
X18206134Y-20050520D01*
X18387087Y-20050520D02*
X18368039Y-20040996D01*
X18368039Y-20040996D02*
X18358515Y-20021948D01*
X18358515Y-20021948D02*
X18358515Y-19850520D01*
X18539468Y-20040996D02*
X18520420Y-20050520D01*
X18520420Y-20050520D02*
X18482325Y-20050520D01*
X18482325Y-20050520D02*
X18463277Y-20040996D01*
X18463277Y-20040996D02*
X18453753Y-20021948D01*
X18453753Y-20021948D02*
X18453753Y-19945758D01*
X18453753Y-19945758D02*
X18463277Y-19926710D01*
X18463277Y-19926710D02*
X18482325Y-19917186D01*
X18482325Y-19917186D02*
X18520420Y-19917186D01*
X18520420Y-19917186D02*
X18539468Y-19926710D01*
X18539468Y-19926710D02*
X18548992Y-19945758D01*
X18548992Y-19945758D02*
X18548992Y-19964805D01*
X18548992Y-19964805D02*
X18453753Y-19983853D01*
X18625182Y-20040996D02*
X18644230Y-20050520D01*
X18644230Y-20050520D02*
X18682325Y-20050520D01*
X18682325Y-20050520D02*
X18701373Y-20040996D01*
X18701373Y-20040996D02*
X18710896Y-20021948D01*
X18710896Y-20021948D02*
X18710896Y-20012424D01*
X18710896Y-20012424D02*
X18701373Y-19993377D01*
X18701373Y-19993377D02*
X18682325Y-19983853D01*
X18682325Y-19983853D02*
X18653753Y-19983853D01*
X18653753Y-19983853D02*
X18634706Y-19974329D01*
X18634706Y-19974329D02*
X18625182Y-19955281D01*
X18625182Y-19955281D02*
X18625182Y-19945758D01*
X18625182Y-19945758D02*
X18634706Y-19926710D01*
X18634706Y-19926710D02*
X18653753Y-19917186D01*
X18653753Y-19917186D02*
X18682325Y-19917186D01*
X18682325Y-19917186D02*
X18701373Y-19926710D01*
X18777563Y-20126710D02*
X18787087Y-20117186D01*
X18787087Y-20117186D02*
X18806134Y-20088615D01*
X18806134Y-20088615D02*
X18815658Y-20069567D01*
X18815658Y-20069567D02*
X18825182Y-20040996D01*
X18825182Y-20040996D02*
X18834706Y-19993377D01*
X18834706Y-19993377D02*
X18834706Y-19955281D01*
X18834706Y-19955281D02*
X18825182Y-19907662D01*
X18825182Y-19907662D02*
X18815658Y-19879091D01*
X18815658Y-19879091D02*
X18806134Y-19860043D01*
X18806134Y-19860043D02*
X18787087Y-19831472D01*
X18787087Y-19831472D02*
X18777563Y-19821948D01*
X19139468Y-20126710D02*
X19129944Y-20117186D01*
X19129944Y-20117186D02*
X19110896Y-20088615D01*
X19110896Y-20088615D02*
X19101373Y-20069567D01*
X19101373Y-20069567D02*
X19091849Y-20040996D01*
X19091849Y-20040996D02*
X19082325Y-19993377D01*
X19082325Y-19993377D02*
X19082325Y-19955281D01*
X19082325Y-19955281D02*
X19091849Y-19907662D01*
X19091849Y-19907662D02*
X19101373Y-19879091D01*
X19101373Y-19879091D02*
X19110896Y-19860043D01*
X19110896Y-19860043D02*
X19129944Y-19831472D01*
X19129944Y-19831472D02*
X19139468Y-19821948D01*
X19215658Y-19917186D02*
X19215658Y-20050520D01*
X19215658Y-19936234D02*
X19225182Y-19926710D01*
X19225182Y-19926710D02*
X19244230Y-19917186D01*
X19244230Y-19917186D02*
X19272801Y-19917186D01*
X19272801Y-19917186D02*
X19291849Y-19926710D01*
X19291849Y-19926710D02*
X19301373Y-19945758D01*
X19301373Y-19945758D02*
X19301373Y-20050520D01*
X19425182Y-20050520D02*
X19406134Y-20040996D01*
X19406134Y-20040996D02*
X19396611Y-20031472D01*
X19396611Y-20031472D02*
X19387087Y-20012424D01*
X19387087Y-20012424D02*
X19387087Y-19955281D01*
X19387087Y-19955281D02*
X19396611Y-19936234D01*
X19396611Y-19936234D02*
X19406134Y-19926710D01*
X19406134Y-19926710D02*
X19425182Y-19917186D01*
X19425182Y-19917186D02*
X19453754Y-19917186D01*
X19453754Y-19917186D02*
X19472801Y-19926710D01*
X19472801Y-19926710D02*
X19482325Y-19936234D01*
X19482325Y-19936234D02*
X19491849Y-19955281D01*
X19491849Y-19955281D02*
X19491849Y-20012424D01*
X19491849Y-20012424D02*
X19482325Y-20031472D01*
X19482325Y-20031472D02*
X19472801Y-20040996D01*
X19472801Y-20040996D02*
X19453754Y-20050520D01*
X19453754Y-20050520D02*
X19425182Y-20050520D01*
X19548992Y-19917186D02*
X19625182Y-19917186D01*
X19577563Y-19850520D02*
X19577563Y-20021948D01*
X19577563Y-20021948D02*
X19587087Y-20040996D01*
X19587087Y-20040996D02*
X19606134Y-20050520D01*
X19606134Y-20050520D02*
X19625182Y-20050520D01*
X19844230Y-19917186D02*
X19844230Y-20117186D01*
X19844230Y-19926710D02*
X19863277Y-19917186D01*
X19863277Y-19917186D02*
X19901373Y-19917186D01*
X19901373Y-19917186D02*
X19920420Y-19926710D01*
X19920420Y-19926710D02*
X19929944Y-19936234D01*
X19929944Y-19936234D02*
X19939468Y-19955281D01*
X19939468Y-19955281D02*
X19939468Y-20012424D01*
X19939468Y-20012424D02*
X19929944Y-20031472D01*
X19929944Y-20031472D02*
X19920420Y-20040996D01*
X19920420Y-20040996D02*
X19901373Y-20050520D01*
X19901373Y-20050520D02*
X19863277Y-20050520D01*
X19863277Y-20050520D02*
X19844230Y-20040996D01*
X20053754Y-20050520D02*
X20034706Y-20040996D01*
X20034706Y-20040996D02*
X20025182Y-20021948D01*
X20025182Y-20021948D02*
X20025182Y-19850520D01*
X20215658Y-20050520D02*
X20215658Y-19945758D01*
X20215658Y-19945758D02*
X20206135Y-19926710D01*
X20206135Y-19926710D02*
X20187087Y-19917186D01*
X20187087Y-19917186D02*
X20148992Y-19917186D01*
X20148992Y-19917186D02*
X20129944Y-19926710D01*
X20215658Y-20040996D02*
X20196611Y-20050520D01*
X20196611Y-20050520D02*
X20148992Y-20050520D01*
X20148992Y-20050520D02*
X20129944Y-20040996D01*
X20129944Y-20040996D02*
X20120420Y-20021948D01*
X20120420Y-20021948D02*
X20120420Y-20002900D01*
X20120420Y-20002900D02*
X20129944Y-19983853D01*
X20129944Y-19983853D02*
X20148992Y-19974329D01*
X20148992Y-19974329D02*
X20196611Y-19974329D01*
X20196611Y-19974329D02*
X20215658Y-19964805D01*
X20282325Y-19917186D02*
X20358515Y-19917186D01*
X20310896Y-19850520D02*
X20310896Y-20021948D01*
X20310896Y-20021948D02*
X20320420Y-20040996D01*
X20320420Y-20040996D02*
X20339468Y-20050520D01*
X20339468Y-20050520D02*
X20358515Y-20050520D01*
X20501373Y-20040996D02*
X20482325Y-20050520D01*
X20482325Y-20050520D02*
X20444230Y-20050520D01*
X20444230Y-20050520D02*
X20425182Y-20040996D01*
X20425182Y-20040996D02*
X20415658Y-20021948D01*
X20415658Y-20021948D02*
X20415658Y-19945758D01*
X20415658Y-19945758D02*
X20425182Y-19926710D01*
X20425182Y-19926710D02*
X20444230Y-19917186D01*
X20444230Y-19917186D02*
X20482325Y-19917186D01*
X20482325Y-19917186D02*
X20501373Y-19926710D01*
X20501373Y-19926710D02*
X20510896Y-19945758D01*
X20510896Y-19945758D02*
X20510896Y-19964805D01*
X20510896Y-19964805D02*
X20415658Y-19983853D01*
X20682325Y-20050520D02*
X20682325Y-19850520D01*
X20682325Y-20040996D02*
X20663277Y-20050520D01*
X20663277Y-20050520D02*
X20625182Y-20050520D01*
X20625182Y-20050520D02*
X20606135Y-20040996D01*
X20606135Y-20040996D02*
X20596611Y-20031472D01*
X20596611Y-20031472D02*
X20587087Y-20012424D01*
X20587087Y-20012424D02*
X20587087Y-19955281D01*
X20587087Y-19955281D02*
X20596611Y-19936234D01*
X20596611Y-19936234D02*
X20606135Y-19926710D01*
X20606135Y-19926710D02*
X20625182Y-19917186D01*
X20625182Y-19917186D02*
X20663277Y-19917186D01*
X20663277Y-19917186D02*
X20682325Y-19926710D01*
X20758516Y-20126710D02*
X20768039Y-20117186D01*
X20768039Y-20117186D02*
X20787087Y-20088615D01*
X20787087Y-20088615D02*
X20796611Y-20069567D01*
X20796611Y-20069567D02*
X20806135Y-20040996D01*
X20806135Y-20040996D02*
X20815658Y-19993377D01*
X20815658Y-19993377D02*
X20815658Y-19955281D01*
X20815658Y-19955281D02*
X20806135Y-19907662D01*
X20806135Y-19907662D02*
X20796611Y-19879091D01*
X20796611Y-19879091D02*
X20787087Y-19860043D01*
X20787087Y-19860043D02*
X20768039Y-19831472D01*
X20768039Y-19831472D02*
X20758516Y-19821948D01*
D14*
X13952500Y-20173036D02*
X13952500Y-20273036D01*
X13902500Y-20223036D02*
X14002500Y-20223036D01*
D11*
X14368039Y-20314520D02*
X14253753Y-20314520D01*
X14310896Y-20314520D02*
X14310896Y-20114520D01*
X14310896Y-20114520D02*
X14291848Y-20143091D01*
X14291848Y-20143091D02*
X14272801Y-20162139D01*
X14272801Y-20162139D02*
X14253753Y-20171662D01*
X14453753Y-20295472D02*
X14463277Y-20304996D01*
X14463277Y-20304996D02*
X14453753Y-20314520D01*
X14453753Y-20314520D02*
X14444229Y-20304996D01*
X14444229Y-20304996D02*
X14453753Y-20295472D01*
X14453753Y-20295472D02*
X14453753Y-20314520D01*
X14587086Y-20114520D02*
X14606134Y-20114520D01*
X14606134Y-20114520D02*
X14625182Y-20124043D01*
X14625182Y-20124043D02*
X14634705Y-20133567D01*
X14634705Y-20133567D02*
X14644229Y-20152615D01*
X14644229Y-20152615D02*
X14653753Y-20190710D01*
X14653753Y-20190710D02*
X14653753Y-20238329D01*
X14653753Y-20238329D02*
X14644229Y-20276424D01*
X14644229Y-20276424D02*
X14634705Y-20295472D01*
X14634705Y-20295472D02*
X14625182Y-20304996D01*
X14625182Y-20304996D02*
X14606134Y-20314520D01*
X14606134Y-20314520D02*
X14587086Y-20314520D01*
X14587086Y-20314520D02*
X14568039Y-20304996D01*
X14568039Y-20304996D02*
X14558515Y-20295472D01*
X14558515Y-20295472D02*
X14548991Y-20276424D01*
X14548991Y-20276424D02*
X14539467Y-20238329D01*
X14539467Y-20238329D02*
X14539467Y-20190710D01*
X14539467Y-20190710D02*
X14548991Y-20152615D01*
X14548991Y-20152615D02*
X14558515Y-20133567D01*
X14558515Y-20133567D02*
X14568039Y-20124043D01*
X14568039Y-20124043D02*
X14587086Y-20114520D01*
X14777562Y-20114520D02*
X14796610Y-20114520D01*
X14796610Y-20114520D02*
X14815658Y-20124043D01*
X14815658Y-20124043D02*
X14825182Y-20133567D01*
X14825182Y-20133567D02*
X14834705Y-20152615D01*
X14834705Y-20152615D02*
X14844229Y-20190710D01*
X14844229Y-20190710D02*
X14844229Y-20238329D01*
X14844229Y-20238329D02*
X14834705Y-20276424D01*
X14834705Y-20276424D02*
X14825182Y-20295472D01*
X14825182Y-20295472D02*
X14815658Y-20304996D01*
X14815658Y-20304996D02*
X14796610Y-20314520D01*
X14796610Y-20314520D02*
X14777562Y-20314520D01*
X14777562Y-20314520D02*
X14758515Y-20304996D01*
X14758515Y-20304996D02*
X14748991Y-20295472D01*
X14748991Y-20295472D02*
X14739467Y-20276424D01*
X14739467Y-20276424D02*
X14729943Y-20238329D01*
X14729943Y-20238329D02*
X14729943Y-20190710D01*
X14729943Y-20190710D02*
X14739467Y-20152615D01*
X14739467Y-20152615D02*
X14748991Y-20133567D01*
X14748991Y-20133567D02*
X14758515Y-20124043D01*
X14758515Y-20124043D02*
X14777562Y-20114520D01*
X14968039Y-20114520D02*
X14987086Y-20114520D01*
X14987086Y-20114520D02*
X15006134Y-20124043D01*
X15006134Y-20124043D02*
X15015658Y-20133567D01*
X15015658Y-20133567D02*
X15025182Y-20152615D01*
X15025182Y-20152615D02*
X15034705Y-20190710D01*
X15034705Y-20190710D02*
X15034705Y-20238329D01*
X15034705Y-20238329D02*
X15025182Y-20276424D01*
X15025182Y-20276424D02*
X15015658Y-20295472D01*
X15015658Y-20295472D02*
X15006134Y-20304996D01*
X15006134Y-20304996D02*
X14987086Y-20314520D01*
X14987086Y-20314520D02*
X14968039Y-20314520D01*
X14968039Y-20314520D02*
X14948991Y-20304996D01*
X14948991Y-20304996D02*
X14939467Y-20295472D01*
X14939467Y-20295472D02*
X14929943Y-20276424D01*
X14929943Y-20276424D02*
X14920420Y-20238329D01*
X14920420Y-20238329D02*
X14920420Y-20190710D01*
X14920420Y-20190710D02*
X14929943Y-20152615D01*
X14929943Y-20152615D02*
X14939467Y-20133567D01*
X14939467Y-20133567D02*
X14948991Y-20124043D01*
X14948991Y-20124043D02*
X14968039Y-20114520D01*
X15120420Y-20314520D02*
X15120420Y-20181186D01*
X15120420Y-20200234D02*
X15129943Y-20190710D01*
X15129943Y-20190710D02*
X15148991Y-20181186D01*
X15148991Y-20181186D02*
X15177563Y-20181186D01*
X15177563Y-20181186D02*
X15196610Y-20190710D01*
X15196610Y-20190710D02*
X15206134Y-20209758D01*
X15206134Y-20209758D02*
X15206134Y-20314520D01*
X15206134Y-20209758D02*
X15215658Y-20190710D01*
X15215658Y-20190710D02*
X15234705Y-20181186D01*
X15234705Y-20181186D02*
X15263277Y-20181186D01*
X15263277Y-20181186D02*
X15282324Y-20190710D01*
X15282324Y-20190710D02*
X15291848Y-20209758D01*
X15291848Y-20209758D02*
X15291848Y-20314520D01*
X15387086Y-20314520D02*
X15387086Y-20181186D01*
X15387086Y-20200234D02*
X15396610Y-20190710D01*
X15396610Y-20190710D02*
X15415658Y-20181186D01*
X15415658Y-20181186D02*
X15444229Y-20181186D01*
X15444229Y-20181186D02*
X15463277Y-20190710D01*
X15463277Y-20190710D02*
X15472801Y-20209758D01*
X15472801Y-20209758D02*
X15472801Y-20314520D01*
X15472801Y-20209758D02*
X15482324Y-20190710D01*
X15482324Y-20190710D02*
X15501372Y-20181186D01*
X15501372Y-20181186D02*
X15529943Y-20181186D01*
X15529943Y-20181186D02*
X15548991Y-20190710D01*
X15548991Y-20190710D02*
X15558515Y-20209758D01*
X15558515Y-20209758D02*
X15558515Y-20314520D01*
X15948991Y-20104996D02*
X15777563Y-20362139D01*
X16206134Y-20114520D02*
X16225182Y-20114520D01*
X16225182Y-20114520D02*
X16244229Y-20124043D01*
X16244229Y-20124043D02*
X16253753Y-20133567D01*
X16253753Y-20133567D02*
X16263277Y-20152615D01*
X16263277Y-20152615D02*
X16272801Y-20190710D01*
X16272801Y-20190710D02*
X16272801Y-20238329D01*
X16272801Y-20238329D02*
X16263277Y-20276424D01*
X16263277Y-20276424D02*
X16253753Y-20295472D01*
X16253753Y-20295472D02*
X16244229Y-20304996D01*
X16244229Y-20304996D02*
X16225182Y-20314520D01*
X16225182Y-20314520D02*
X16206134Y-20314520D01*
X16206134Y-20314520D02*
X16187086Y-20304996D01*
X16187086Y-20304996D02*
X16177563Y-20295472D01*
X16177563Y-20295472D02*
X16168039Y-20276424D01*
X16168039Y-20276424D02*
X16158515Y-20238329D01*
X16158515Y-20238329D02*
X16158515Y-20190710D01*
X16158515Y-20190710D02*
X16168039Y-20152615D01*
X16168039Y-20152615D02*
X16177563Y-20133567D01*
X16177563Y-20133567D02*
X16187086Y-20124043D01*
X16187086Y-20124043D02*
X16206134Y-20114520D01*
X16358515Y-20295472D02*
X16368039Y-20304996D01*
X16368039Y-20304996D02*
X16358515Y-20314520D01*
X16358515Y-20314520D02*
X16348991Y-20304996D01*
X16348991Y-20304996D02*
X16358515Y-20295472D01*
X16358515Y-20295472D02*
X16358515Y-20314520D01*
X16491848Y-20114520D02*
X16510896Y-20114520D01*
X16510896Y-20114520D02*
X16529944Y-20124043D01*
X16529944Y-20124043D02*
X16539467Y-20133567D01*
X16539467Y-20133567D02*
X16548991Y-20152615D01*
X16548991Y-20152615D02*
X16558515Y-20190710D01*
X16558515Y-20190710D02*
X16558515Y-20238329D01*
X16558515Y-20238329D02*
X16548991Y-20276424D01*
X16548991Y-20276424D02*
X16539467Y-20295472D01*
X16539467Y-20295472D02*
X16529944Y-20304996D01*
X16529944Y-20304996D02*
X16510896Y-20314520D01*
X16510896Y-20314520D02*
X16491848Y-20314520D01*
X16491848Y-20314520D02*
X16472801Y-20304996D01*
X16472801Y-20304996D02*
X16463277Y-20295472D01*
X16463277Y-20295472D02*
X16453753Y-20276424D01*
X16453753Y-20276424D02*
X16444229Y-20238329D01*
X16444229Y-20238329D02*
X16444229Y-20190710D01*
X16444229Y-20190710D02*
X16453753Y-20152615D01*
X16453753Y-20152615D02*
X16463277Y-20133567D01*
X16463277Y-20133567D02*
X16472801Y-20124043D01*
X16472801Y-20124043D02*
X16491848Y-20114520D01*
X16625182Y-20114520D02*
X16748991Y-20114520D01*
X16748991Y-20114520D02*
X16682325Y-20190710D01*
X16682325Y-20190710D02*
X16710896Y-20190710D01*
X16710896Y-20190710D02*
X16729944Y-20200234D01*
X16729944Y-20200234D02*
X16739467Y-20209758D01*
X16739467Y-20209758D02*
X16748991Y-20228805D01*
X16748991Y-20228805D02*
X16748991Y-20276424D01*
X16748991Y-20276424D02*
X16739467Y-20295472D01*
X16739467Y-20295472D02*
X16729944Y-20304996D01*
X16729944Y-20304996D02*
X16710896Y-20314520D01*
X16710896Y-20314520D02*
X16653753Y-20314520D01*
X16653753Y-20314520D02*
X16634706Y-20304996D01*
X16634706Y-20304996D02*
X16625182Y-20295472D01*
X16844229Y-20314520D02*
X16882325Y-20314520D01*
X16882325Y-20314520D02*
X16901372Y-20304996D01*
X16901372Y-20304996D02*
X16910896Y-20295472D01*
X16910896Y-20295472D02*
X16929944Y-20266900D01*
X16929944Y-20266900D02*
X16939468Y-20228805D01*
X16939468Y-20228805D02*
X16939468Y-20152615D01*
X16939468Y-20152615D02*
X16929944Y-20133567D01*
X16929944Y-20133567D02*
X16920420Y-20124043D01*
X16920420Y-20124043D02*
X16901372Y-20114520D01*
X16901372Y-20114520D02*
X16863277Y-20114520D01*
X16863277Y-20114520D02*
X16844229Y-20124043D01*
X16844229Y-20124043D02*
X16834706Y-20133567D01*
X16834706Y-20133567D02*
X16825182Y-20152615D01*
X16825182Y-20152615D02*
X16825182Y-20200234D01*
X16825182Y-20200234D02*
X16834706Y-20219281D01*
X16834706Y-20219281D02*
X16844229Y-20228805D01*
X16844229Y-20228805D02*
X16863277Y-20238329D01*
X16863277Y-20238329D02*
X16901372Y-20238329D01*
X16901372Y-20238329D02*
X16920420Y-20228805D01*
X16920420Y-20228805D02*
X16929944Y-20219281D01*
X16929944Y-20219281D02*
X16939468Y-20200234D01*
X17110896Y-20181186D02*
X17110896Y-20314520D01*
X17063277Y-20104996D02*
X17015658Y-20247853D01*
X17015658Y-20247853D02*
X17139468Y-20247853D01*
X17206134Y-20114520D02*
X17206134Y-20152615D01*
X17282325Y-20114520D02*
X17282325Y-20152615D01*
X17577563Y-20390710D02*
X17568039Y-20381186D01*
X17568039Y-20381186D02*
X17548991Y-20352615D01*
X17548991Y-20352615D02*
X17539468Y-20333567D01*
X17539468Y-20333567D02*
X17529944Y-20304996D01*
X17529944Y-20304996D02*
X17520420Y-20257377D01*
X17520420Y-20257377D02*
X17520420Y-20219281D01*
X17520420Y-20219281D02*
X17529944Y-20171662D01*
X17529944Y-20171662D02*
X17539468Y-20143091D01*
X17539468Y-20143091D02*
X17548991Y-20124043D01*
X17548991Y-20124043D02*
X17568039Y-20095472D01*
X17568039Y-20095472D02*
X17577563Y-20085948D01*
X17739468Y-20181186D02*
X17739468Y-20314520D01*
X17691849Y-20104996D02*
X17644230Y-20247853D01*
X17644230Y-20247853D02*
X17768039Y-20247853D01*
X17929944Y-20181186D02*
X17929944Y-20314520D01*
X17882325Y-20104996D02*
X17834706Y-20247853D01*
X17834706Y-20247853D02*
X17958515Y-20247853D01*
X18187087Y-20314520D02*
X18187087Y-20114520D01*
X18272801Y-20314520D02*
X18272801Y-20209758D01*
X18272801Y-20209758D02*
X18263277Y-20190710D01*
X18263277Y-20190710D02*
X18244230Y-20181186D01*
X18244230Y-20181186D02*
X18215658Y-20181186D01*
X18215658Y-20181186D02*
X18196611Y-20190710D01*
X18196611Y-20190710D02*
X18187087Y-20200234D01*
X18396611Y-20314520D02*
X18377563Y-20304996D01*
X18377563Y-20304996D02*
X18368039Y-20295472D01*
X18368039Y-20295472D02*
X18358515Y-20276424D01*
X18358515Y-20276424D02*
X18358515Y-20219281D01*
X18358515Y-20219281D02*
X18368039Y-20200234D01*
X18368039Y-20200234D02*
X18377563Y-20190710D01*
X18377563Y-20190710D02*
X18396611Y-20181186D01*
X18396611Y-20181186D02*
X18425182Y-20181186D01*
X18425182Y-20181186D02*
X18444230Y-20190710D01*
X18444230Y-20190710D02*
X18453753Y-20200234D01*
X18453753Y-20200234D02*
X18463277Y-20219281D01*
X18463277Y-20219281D02*
X18463277Y-20276424D01*
X18463277Y-20276424D02*
X18453753Y-20295472D01*
X18453753Y-20295472D02*
X18444230Y-20304996D01*
X18444230Y-20304996D02*
X18425182Y-20314520D01*
X18425182Y-20314520D02*
X18396611Y-20314520D01*
X18577563Y-20314520D02*
X18558515Y-20304996D01*
X18558515Y-20304996D02*
X18548992Y-20285948D01*
X18548992Y-20285948D02*
X18548992Y-20114520D01*
X18729944Y-20304996D02*
X18710896Y-20314520D01*
X18710896Y-20314520D02*
X18672801Y-20314520D01*
X18672801Y-20314520D02*
X18653753Y-20304996D01*
X18653753Y-20304996D02*
X18644230Y-20285948D01*
X18644230Y-20285948D02*
X18644230Y-20209758D01*
X18644230Y-20209758D02*
X18653753Y-20190710D01*
X18653753Y-20190710D02*
X18672801Y-20181186D01*
X18672801Y-20181186D02*
X18710896Y-20181186D01*
X18710896Y-20181186D02*
X18729944Y-20190710D01*
X18729944Y-20190710D02*
X18739468Y-20209758D01*
X18739468Y-20209758D02*
X18739468Y-20228805D01*
X18739468Y-20228805D02*
X18644230Y-20247853D01*
X18815658Y-20304996D02*
X18834706Y-20314520D01*
X18834706Y-20314520D02*
X18872801Y-20314520D01*
X18872801Y-20314520D02*
X18891849Y-20304996D01*
X18891849Y-20304996D02*
X18901373Y-20285948D01*
X18901373Y-20285948D02*
X18901373Y-20276424D01*
X18901373Y-20276424D02*
X18891849Y-20257377D01*
X18891849Y-20257377D02*
X18872801Y-20247853D01*
X18872801Y-20247853D02*
X18844230Y-20247853D01*
X18844230Y-20247853D02*
X18825182Y-20238329D01*
X18825182Y-20238329D02*
X18815658Y-20219281D01*
X18815658Y-20219281D02*
X18815658Y-20209758D01*
X18815658Y-20209758D02*
X18825182Y-20190710D01*
X18825182Y-20190710D02*
X18844230Y-20181186D01*
X18844230Y-20181186D02*
X18872801Y-20181186D01*
X18872801Y-20181186D02*
X18891849Y-20190710D01*
X18968039Y-20390710D02*
X18977563Y-20381186D01*
X18977563Y-20381186D02*
X18996611Y-20352615D01*
X18996611Y-20352615D02*
X19006134Y-20333567D01*
X19006134Y-20333567D02*
X19015658Y-20304996D01*
X19015658Y-20304996D02*
X19025182Y-20257377D01*
X19025182Y-20257377D02*
X19025182Y-20219281D01*
X19025182Y-20219281D02*
X19015658Y-20171662D01*
X19015658Y-20171662D02*
X19006134Y-20143091D01*
X19006134Y-20143091D02*
X18996611Y-20124043D01*
X18996611Y-20124043D02*
X18977563Y-20095472D01*
X18977563Y-20095472D02*
X18968039Y-20085948D01*
X19329944Y-20390710D02*
X19320420Y-20381186D01*
X19320420Y-20381186D02*
X19301373Y-20352615D01*
X19301373Y-20352615D02*
X19291849Y-20333567D01*
X19291849Y-20333567D02*
X19282325Y-20304996D01*
X19282325Y-20304996D02*
X19272801Y-20257377D01*
X19272801Y-20257377D02*
X19272801Y-20219281D01*
X19272801Y-20219281D02*
X19282325Y-20171662D01*
X19282325Y-20171662D02*
X19291849Y-20143091D01*
X19291849Y-20143091D02*
X19301373Y-20124043D01*
X19301373Y-20124043D02*
X19320420Y-20095472D01*
X19320420Y-20095472D02*
X19329944Y-20085948D01*
X19406134Y-20181186D02*
X19406134Y-20314520D01*
X19406134Y-20200234D02*
X19415658Y-20190710D01*
X19415658Y-20190710D02*
X19434706Y-20181186D01*
X19434706Y-20181186D02*
X19463277Y-20181186D01*
X19463277Y-20181186D02*
X19482325Y-20190710D01*
X19482325Y-20190710D02*
X19491849Y-20209758D01*
X19491849Y-20209758D02*
X19491849Y-20314520D01*
X19615658Y-20314520D02*
X19596611Y-20304996D01*
X19596611Y-20304996D02*
X19587087Y-20295472D01*
X19587087Y-20295472D02*
X19577563Y-20276424D01*
X19577563Y-20276424D02*
X19577563Y-20219281D01*
X19577563Y-20219281D02*
X19587087Y-20200234D01*
X19587087Y-20200234D02*
X19596611Y-20190710D01*
X19596611Y-20190710D02*
X19615658Y-20181186D01*
X19615658Y-20181186D02*
X19644230Y-20181186D01*
X19644230Y-20181186D02*
X19663277Y-20190710D01*
X19663277Y-20190710D02*
X19672801Y-20200234D01*
X19672801Y-20200234D02*
X19682325Y-20219281D01*
X19682325Y-20219281D02*
X19682325Y-20276424D01*
X19682325Y-20276424D02*
X19672801Y-20295472D01*
X19672801Y-20295472D02*
X19663277Y-20304996D01*
X19663277Y-20304996D02*
X19644230Y-20314520D01*
X19644230Y-20314520D02*
X19615658Y-20314520D01*
X19739468Y-20181186D02*
X19815658Y-20181186D01*
X19768039Y-20114520D02*
X19768039Y-20285948D01*
X19768039Y-20285948D02*
X19777563Y-20304996D01*
X19777563Y-20304996D02*
X19796611Y-20314520D01*
X19796611Y-20314520D02*
X19815658Y-20314520D01*
X20034706Y-20181186D02*
X20034706Y-20381186D01*
X20034706Y-20190710D02*
X20053754Y-20181186D01*
X20053754Y-20181186D02*
X20091849Y-20181186D01*
X20091849Y-20181186D02*
X20110896Y-20190710D01*
X20110896Y-20190710D02*
X20120420Y-20200234D01*
X20120420Y-20200234D02*
X20129944Y-20219281D01*
X20129944Y-20219281D02*
X20129944Y-20276424D01*
X20129944Y-20276424D02*
X20120420Y-20295472D01*
X20120420Y-20295472D02*
X20110896Y-20304996D01*
X20110896Y-20304996D02*
X20091849Y-20314520D01*
X20091849Y-20314520D02*
X20053754Y-20314520D01*
X20053754Y-20314520D02*
X20034706Y-20304996D01*
X20244230Y-20314520D02*
X20225182Y-20304996D01*
X20225182Y-20304996D02*
X20215658Y-20285948D01*
X20215658Y-20285948D02*
X20215658Y-20114520D01*
X20406135Y-20314520D02*
X20406135Y-20209758D01*
X20406135Y-20209758D02*
X20396611Y-20190710D01*
X20396611Y-20190710D02*
X20377563Y-20181186D01*
X20377563Y-20181186D02*
X20339468Y-20181186D01*
X20339468Y-20181186D02*
X20320420Y-20190710D01*
X20406135Y-20304996D02*
X20387087Y-20314520D01*
X20387087Y-20314520D02*
X20339468Y-20314520D01*
X20339468Y-20314520D02*
X20320420Y-20304996D01*
X20320420Y-20304996D02*
X20310896Y-20285948D01*
X20310896Y-20285948D02*
X20310896Y-20266900D01*
X20310896Y-20266900D02*
X20320420Y-20247853D01*
X20320420Y-20247853D02*
X20339468Y-20238329D01*
X20339468Y-20238329D02*
X20387087Y-20238329D01*
X20387087Y-20238329D02*
X20406135Y-20228805D01*
X20472801Y-20181186D02*
X20548992Y-20181186D01*
X20501373Y-20114520D02*
X20501373Y-20285948D01*
X20501373Y-20285948D02*
X20510896Y-20304996D01*
X20510896Y-20304996D02*
X20529944Y-20314520D01*
X20529944Y-20314520D02*
X20548992Y-20314520D01*
X20691849Y-20304996D02*
X20672801Y-20314520D01*
X20672801Y-20314520D02*
X20634706Y-20314520D01*
X20634706Y-20314520D02*
X20615658Y-20304996D01*
X20615658Y-20304996D02*
X20606135Y-20285948D01*
X20606135Y-20285948D02*
X20606135Y-20209758D01*
X20606135Y-20209758D02*
X20615658Y-20190710D01*
X20615658Y-20190710D02*
X20634706Y-20181186D01*
X20634706Y-20181186D02*
X20672801Y-20181186D01*
X20672801Y-20181186D02*
X20691849Y-20190710D01*
X20691849Y-20190710D02*
X20701373Y-20209758D01*
X20701373Y-20209758D02*
X20701373Y-20228805D01*
X20701373Y-20228805D02*
X20606135Y-20247853D01*
X20872801Y-20314520D02*
X20872801Y-20114520D01*
X20872801Y-20304996D02*
X20853754Y-20314520D01*
X20853754Y-20314520D02*
X20815658Y-20314520D01*
X20815658Y-20314520D02*
X20796611Y-20304996D01*
X20796611Y-20304996D02*
X20787087Y-20295472D01*
X20787087Y-20295472D02*
X20777563Y-20276424D01*
X20777563Y-20276424D02*
X20777563Y-20219281D01*
X20777563Y-20219281D02*
X20787087Y-20200234D01*
X20787087Y-20200234D02*
X20796611Y-20190710D01*
X20796611Y-20190710D02*
X20815658Y-20181186D01*
X20815658Y-20181186D02*
X20853754Y-20181186D01*
X20853754Y-20181186D02*
X20872801Y-20190710D01*
X20948992Y-20390710D02*
X20958516Y-20381186D01*
X20958516Y-20381186D02*
X20977563Y-20352615D01*
X20977563Y-20352615D02*
X20987087Y-20333567D01*
X20987087Y-20333567D02*
X20996611Y-20304996D01*
X20996611Y-20304996D02*
X21006135Y-20257377D01*
X21006135Y-20257377D02*
X21006135Y-20219281D01*
X21006135Y-20219281D02*
X20996611Y-20171662D01*
X20996611Y-20171662D02*
X20987087Y-20143091D01*
X20987087Y-20143091D02*
X20977563Y-20124043D01*
X20977563Y-20124043D02*
X20958516Y-20095472D01*
X20958516Y-20095472D02*
X20948992Y-20085948D01*
D15*
X13976140Y-20550676D02*
X13976140Y-20423396D01*
X13848860Y-20423396D01*
X13848860Y-20550676D01*
X13976140Y-20550676D01*
D11*
X14368039Y-20578520D02*
X14253753Y-20578520D01*
X14310896Y-20578520D02*
X14310896Y-20378520D01*
X14310896Y-20378520D02*
X14291848Y-20407091D01*
X14291848Y-20407091D02*
X14272801Y-20426139D01*
X14272801Y-20426139D02*
X14253753Y-20435662D01*
X14453753Y-20559472D02*
X14463277Y-20568996D01*
X14463277Y-20568996D02*
X14453753Y-20578520D01*
X14453753Y-20578520D02*
X14444229Y-20568996D01*
X14444229Y-20568996D02*
X14453753Y-20559472D01*
X14453753Y-20559472D02*
X14453753Y-20578520D01*
X14577562Y-20464234D02*
X14558515Y-20454710D01*
X14558515Y-20454710D02*
X14548991Y-20445186D01*
X14548991Y-20445186D02*
X14539467Y-20426139D01*
X14539467Y-20426139D02*
X14539467Y-20416615D01*
X14539467Y-20416615D02*
X14548991Y-20397567D01*
X14548991Y-20397567D02*
X14558515Y-20388043D01*
X14558515Y-20388043D02*
X14577562Y-20378520D01*
X14577562Y-20378520D02*
X14615658Y-20378520D01*
X14615658Y-20378520D02*
X14634705Y-20388043D01*
X14634705Y-20388043D02*
X14644229Y-20397567D01*
X14644229Y-20397567D02*
X14653753Y-20416615D01*
X14653753Y-20416615D02*
X14653753Y-20426139D01*
X14653753Y-20426139D02*
X14644229Y-20445186D01*
X14644229Y-20445186D02*
X14634705Y-20454710D01*
X14634705Y-20454710D02*
X14615658Y-20464234D01*
X14615658Y-20464234D02*
X14577562Y-20464234D01*
X14577562Y-20464234D02*
X14558515Y-20473758D01*
X14558515Y-20473758D02*
X14548991Y-20483281D01*
X14548991Y-20483281D02*
X14539467Y-20502329D01*
X14539467Y-20502329D02*
X14539467Y-20540424D01*
X14539467Y-20540424D02*
X14548991Y-20559472D01*
X14548991Y-20559472D02*
X14558515Y-20568996D01*
X14558515Y-20568996D02*
X14577562Y-20578520D01*
X14577562Y-20578520D02*
X14615658Y-20578520D01*
X14615658Y-20578520D02*
X14634705Y-20568996D01*
X14634705Y-20568996D02*
X14644229Y-20559472D01*
X14644229Y-20559472D02*
X14653753Y-20540424D01*
X14653753Y-20540424D02*
X14653753Y-20502329D01*
X14653753Y-20502329D02*
X14644229Y-20483281D01*
X14644229Y-20483281D02*
X14634705Y-20473758D01*
X14634705Y-20473758D02*
X14615658Y-20464234D01*
X14777562Y-20378520D02*
X14796610Y-20378520D01*
X14796610Y-20378520D02*
X14815658Y-20388043D01*
X14815658Y-20388043D02*
X14825182Y-20397567D01*
X14825182Y-20397567D02*
X14834705Y-20416615D01*
X14834705Y-20416615D02*
X14844229Y-20454710D01*
X14844229Y-20454710D02*
X14844229Y-20502329D01*
X14844229Y-20502329D02*
X14834705Y-20540424D01*
X14834705Y-20540424D02*
X14825182Y-20559472D01*
X14825182Y-20559472D02*
X14815658Y-20568996D01*
X14815658Y-20568996D02*
X14796610Y-20578520D01*
X14796610Y-20578520D02*
X14777562Y-20578520D01*
X14777562Y-20578520D02*
X14758515Y-20568996D01*
X14758515Y-20568996D02*
X14748991Y-20559472D01*
X14748991Y-20559472D02*
X14739467Y-20540424D01*
X14739467Y-20540424D02*
X14729943Y-20502329D01*
X14729943Y-20502329D02*
X14729943Y-20454710D01*
X14729943Y-20454710D02*
X14739467Y-20416615D01*
X14739467Y-20416615D02*
X14748991Y-20397567D01*
X14748991Y-20397567D02*
X14758515Y-20388043D01*
X14758515Y-20388043D02*
X14777562Y-20378520D01*
X14968039Y-20378520D02*
X14987086Y-20378520D01*
X14987086Y-20378520D02*
X15006134Y-20388043D01*
X15006134Y-20388043D02*
X15015658Y-20397567D01*
X15015658Y-20397567D02*
X15025182Y-20416615D01*
X15025182Y-20416615D02*
X15034705Y-20454710D01*
X15034705Y-20454710D02*
X15034705Y-20502329D01*
X15034705Y-20502329D02*
X15025182Y-20540424D01*
X15025182Y-20540424D02*
X15015658Y-20559472D01*
X15015658Y-20559472D02*
X15006134Y-20568996D01*
X15006134Y-20568996D02*
X14987086Y-20578520D01*
X14987086Y-20578520D02*
X14968039Y-20578520D01*
X14968039Y-20578520D02*
X14948991Y-20568996D01*
X14948991Y-20568996D02*
X14939467Y-20559472D01*
X14939467Y-20559472D02*
X14929943Y-20540424D01*
X14929943Y-20540424D02*
X14920420Y-20502329D01*
X14920420Y-20502329D02*
X14920420Y-20454710D01*
X14920420Y-20454710D02*
X14929943Y-20416615D01*
X14929943Y-20416615D02*
X14939467Y-20397567D01*
X14939467Y-20397567D02*
X14948991Y-20388043D01*
X14948991Y-20388043D02*
X14968039Y-20378520D01*
X15120420Y-20578520D02*
X15120420Y-20445186D01*
X15120420Y-20464234D02*
X15129943Y-20454710D01*
X15129943Y-20454710D02*
X15148991Y-20445186D01*
X15148991Y-20445186D02*
X15177563Y-20445186D01*
X15177563Y-20445186D02*
X15196610Y-20454710D01*
X15196610Y-20454710D02*
X15206134Y-20473758D01*
X15206134Y-20473758D02*
X15206134Y-20578520D01*
X15206134Y-20473758D02*
X15215658Y-20454710D01*
X15215658Y-20454710D02*
X15234705Y-20445186D01*
X15234705Y-20445186D02*
X15263277Y-20445186D01*
X15263277Y-20445186D02*
X15282324Y-20454710D01*
X15282324Y-20454710D02*
X15291848Y-20473758D01*
X15291848Y-20473758D02*
X15291848Y-20578520D01*
X15387086Y-20578520D02*
X15387086Y-20445186D01*
X15387086Y-20464234D02*
X15396610Y-20454710D01*
X15396610Y-20454710D02*
X15415658Y-20445186D01*
X15415658Y-20445186D02*
X15444229Y-20445186D01*
X15444229Y-20445186D02*
X15463277Y-20454710D01*
X15463277Y-20454710D02*
X15472801Y-20473758D01*
X15472801Y-20473758D02*
X15472801Y-20578520D01*
X15472801Y-20473758D02*
X15482324Y-20454710D01*
X15482324Y-20454710D02*
X15501372Y-20445186D01*
X15501372Y-20445186D02*
X15529943Y-20445186D01*
X15529943Y-20445186D02*
X15548991Y-20454710D01*
X15548991Y-20454710D02*
X15558515Y-20473758D01*
X15558515Y-20473758D02*
X15558515Y-20578520D01*
X15948991Y-20368996D02*
X15777563Y-20626139D01*
X16206134Y-20378520D02*
X16225182Y-20378520D01*
X16225182Y-20378520D02*
X16244229Y-20388043D01*
X16244229Y-20388043D02*
X16253753Y-20397567D01*
X16253753Y-20397567D02*
X16263277Y-20416615D01*
X16263277Y-20416615D02*
X16272801Y-20454710D01*
X16272801Y-20454710D02*
X16272801Y-20502329D01*
X16272801Y-20502329D02*
X16263277Y-20540424D01*
X16263277Y-20540424D02*
X16253753Y-20559472D01*
X16253753Y-20559472D02*
X16244229Y-20568996D01*
X16244229Y-20568996D02*
X16225182Y-20578520D01*
X16225182Y-20578520D02*
X16206134Y-20578520D01*
X16206134Y-20578520D02*
X16187086Y-20568996D01*
X16187086Y-20568996D02*
X16177563Y-20559472D01*
X16177563Y-20559472D02*
X16168039Y-20540424D01*
X16168039Y-20540424D02*
X16158515Y-20502329D01*
X16158515Y-20502329D02*
X16158515Y-20454710D01*
X16158515Y-20454710D02*
X16168039Y-20416615D01*
X16168039Y-20416615D02*
X16177563Y-20397567D01*
X16177563Y-20397567D02*
X16187086Y-20388043D01*
X16187086Y-20388043D02*
X16206134Y-20378520D01*
X16358515Y-20559472D02*
X16368039Y-20568996D01*
X16368039Y-20568996D02*
X16358515Y-20578520D01*
X16358515Y-20578520D02*
X16348991Y-20568996D01*
X16348991Y-20568996D02*
X16358515Y-20559472D01*
X16358515Y-20559472D02*
X16358515Y-20578520D01*
X16491848Y-20378520D02*
X16510896Y-20378520D01*
X16510896Y-20378520D02*
X16529944Y-20388043D01*
X16529944Y-20388043D02*
X16539467Y-20397567D01*
X16539467Y-20397567D02*
X16548991Y-20416615D01*
X16548991Y-20416615D02*
X16558515Y-20454710D01*
X16558515Y-20454710D02*
X16558515Y-20502329D01*
X16558515Y-20502329D02*
X16548991Y-20540424D01*
X16548991Y-20540424D02*
X16539467Y-20559472D01*
X16539467Y-20559472D02*
X16529944Y-20568996D01*
X16529944Y-20568996D02*
X16510896Y-20578520D01*
X16510896Y-20578520D02*
X16491848Y-20578520D01*
X16491848Y-20578520D02*
X16472801Y-20568996D01*
X16472801Y-20568996D02*
X16463277Y-20559472D01*
X16463277Y-20559472D02*
X16453753Y-20540424D01*
X16453753Y-20540424D02*
X16444229Y-20502329D01*
X16444229Y-20502329D02*
X16444229Y-20454710D01*
X16444229Y-20454710D02*
X16453753Y-20416615D01*
X16453753Y-20416615D02*
X16463277Y-20397567D01*
X16463277Y-20397567D02*
X16472801Y-20388043D01*
X16472801Y-20388043D02*
X16491848Y-20378520D01*
X16625182Y-20378520D02*
X16758515Y-20378520D01*
X16758515Y-20378520D02*
X16672801Y-20578520D01*
X16872801Y-20378520D02*
X16891849Y-20378520D01*
X16891849Y-20378520D02*
X16910896Y-20388043D01*
X16910896Y-20388043D02*
X16920420Y-20397567D01*
X16920420Y-20397567D02*
X16929944Y-20416615D01*
X16929944Y-20416615D02*
X16939468Y-20454710D01*
X16939468Y-20454710D02*
X16939468Y-20502329D01*
X16939468Y-20502329D02*
X16929944Y-20540424D01*
X16929944Y-20540424D02*
X16920420Y-20559472D01*
X16920420Y-20559472D02*
X16910896Y-20568996D01*
X16910896Y-20568996D02*
X16891849Y-20578520D01*
X16891849Y-20578520D02*
X16872801Y-20578520D01*
X16872801Y-20578520D02*
X16853753Y-20568996D01*
X16853753Y-20568996D02*
X16844229Y-20559472D01*
X16844229Y-20559472D02*
X16834706Y-20540424D01*
X16834706Y-20540424D02*
X16825182Y-20502329D01*
X16825182Y-20502329D02*
X16825182Y-20454710D01*
X16825182Y-20454710D02*
X16834706Y-20416615D01*
X16834706Y-20416615D02*
X16844229Y-20397567D01*
X16844229Y-20397567D02*
X16853753Y-20388043D01*
X16853753Y-20388043D02*
X16872801Y-20378520D01*
X17034706Y-20578520D02*
X17072801Y-20578520D01*
X17072801Y-20578520D02*
X17091849Y-20568996D01*
X17091849Y-20568996D02*
X17101372Y-20559472D01*
X17101372Y-20559472D02*
X17120420Y-20530900D01*
X17120420Y-20530900D02*
X17129944Y-20492805D01*
X17129944Y-20492805D02*
X17129944Y-20416615D01*
X17129944Y-20416615D02*
X17120420Y-20397567D01*
X17120420Y-20397567D02*
X17110896Y-20388043D01*
X17110896Y-20388043D02*
X17091849Y-20378520D01*
X17091849Y-20378520D02*
X17053753Y-20378520D01*
X17053753Y-20378520D02*
X17034706Y-20388043D01*
X17034706Y-20388043D02*
X17025182Y-20397567D01*
X17025182Y-20397567D02*
X17015658Y-20416615D01*
X17015658Y-20416615D02*
X17015658Y-20464234D01*
X17015658Y-20464234D02*
X17025182Y-20483281D01*
X17025182Y-20483281D02*
X17034706Y-20492805D01*
X17034706Y-20492805D02*
X17053753Y-20502329D01*
X17053753Y-20502329D02*
X17091849Y-20502329D01*
X17091849Y-20502329D02*
X17110896Y-20492805D01*
X17110896Y-20492805D02*
X17120420Y-20483281D01*
X17120420Y-20483281D02*
X17129944Y-20464234D01*
X17206134Y-20378520D02*
X17206134Y-20416615D01*
X17282325Y-20378520D02*
X17282325Y-20416615D01*
X17577563Y-20654710D02*
X17568039Y-20645186D01*
X17568039Y-20645186D02*
X17548991Y-20616615D01*
X17548991Y-20616615D02*
X17539468Y-20597567D01*
X17539468Y-20597567D02*
X17529944Y-20568996D01*
X17529944Y-20568996D02*
X17520420Y-20521377D01*
X17520420Y-20521377D02*
X17520420Y-20483281D01*
X17520420Y-20483281D02*
X17529944Y-20435662D01*
X17529944Y-20435662D02*
X17539468Y-20407091D01*
X17539468Y-20407091D02*
X17548991Y-20388043D01*
X17548991Y-20388043D02*
X17568039Y-20359472D01*
X17568039Y-20359472D02*
X17577563Y-20349948D01*
X17739468Y-20445186D02*
X17739468Y-20578520D01*
X17691849Y-20368996D02*
X17644230Y-20511853D01*
X17644230Y-20511853D02*
X17768039Y-20511853D01*
X17929944Y-20445186D02*
X17929944Y-20578520D01*
X17882325Y-20368996D02*
X17834706Y-20511853D01*
X17834706Y-20511853D02*
X17958515Y-20511853D01*
X18187087Y-20578520D02*
X18187087Y-20378520D01*
X18272801Y-20578520D02*
X18272801Y-20473758D01*
X18272801Y-20473758D02*
X18263277Y-20454710D01*
X18263277Y-20454710D02*
X18244230Y-20445186D01*
X18244230Y-20445186D02*
X18215658Y-20445186D01*
X18215658Y-20445186D02*
X18196611Y-20454710D01*
X18196611Y-20454710D02*
X18187087Y-20464234D01*
X18396611Y-20578520D02*
X18377563Y-20568996D01*
X18377563Y-20568996D02*
X18368039Y-20559472D01*
X18368039Y-20559472D02*
X18358515Y-20540424D01*
X18358515Y-20540424D02*
X18358515Y-20483281D01*
X18358515Y-20483281D02*
X18368039Y-20464234D01*
X18368039Y-20464234D02*
X18377563Y-20454710D01*
X18377563Y-20454710D02*
X18396611Y-20445186D01*
X18396611Y-20445186D02*
X18425182Y-20445186D01*
X18425182Y-20445186D02*
X18444230Y-20454710D01*
X18444230Y-20454710D02*
X18453753Y-20464234D01*
X18453753Y-20464234D02*
X18463277Y-20483281D01*
X18463277Y-20483281D02*
X18463277Y-20540424D01*
X18463277Y-20540424D02*
X18453753Y-20559472D01*
X18453753Y-20559472D02*
X18444230Y-20568996D01*
X18444230Y-20568996D02*
X18425182Y-20578520D01*
X18425182Y-20578520D02*
X18396611Y-20578520D01*
X18577563Y-20578520D02*
X18558515Y-20568996D01*
X18558515Y-20568996D02*
X18548992Y-20549948D01*
X18548992Y-20549948D02*
X18548992Y-20378520D01*
X18729944Y-20568996D02*
X18710896Y-20578520D01*
X18710896Y-20578520D02*
X18672801Y-20578520D01*
X18672801Y-20578520D02*
X18653753Y-20568996D01*
X18653753Y-20568996D02*
X18644230Y-20549948D01*
X18644230Y-20549948D02*
X18644230Y-20473758D01*
X18644230Y-20473758D02*
X18653753Y-20454710D01*
X18653753Y-20454710D02*
X18672801Y-20445186D01*
X18672801Y-20445186D02*
X18710896Y-20445186D01*
X18710896Y-20445186D02*
X18729944Y-20454710D01*
X18729944Y-20454710D02*
X18739468Y-20473758D01*
X18739468Y-20473758D02*
X18739468Y-20492805D01*
X18739468Y-20492805D02*
X18644230Y-20511853D01*
X18815658Y-20568996D02*
X18834706Y-20578520D01*
X18834706Y-20578520D02*
X18872801Y-20578520D01*
X18872801Y-20578520D02*
X18891849Y-20568996D01*
X18891849Y-20568996D02*
X18901373Y-20549948D01*
X18901373Y-20549948D02*
X18901373Y-20540424D01*
X18901373Y-20540424D02*
X18891849Y-20521377D01*
X18891849Y-20521377D02*
X18872801Y-20511853D01*
X18872801Y-20511853D02*
X18844230Y-20511853D01*
X18844230Y-20511853D02*
X18825182Y-20502329D01*
X18825182Y-20502329D02*
X18815658Y-20483281D01*
X18815658Y-20483281D02*
X18815658Y-20473758D01*
X18815658Y-20473758D02*
X18825182Y-20454710D01*
X18825182Y-20454710D02*
X18844230Y-20445186D01*
X18844230Y-20445186D02*
X18872801Y-20445186D01*
X18872801Y-20445186D02*
X18891849Y-20454710D01*
X18968039Y-20654710D02*
X18977563Y-20645186D01*
X18977563Y-20645186D02*
X18996611Y-20616615D01*
X18996611Y-20616615D02*
X19006134Y-20597567D01*
X19006134Y-20597567D02*
X19015658Y-20568996D01*
X19015658Y-20568996D02*
X19025182Y-20521377D01*
X19025182Y-20521377D02*
X19025182Y-20483281D01*
X19025182Y-20483281D02*
X19015658Y-20435662D01*
X19015658Y-20435662D02*
X19006134Y-20407091D01*
X19006134Y-20407091D02*
X18996611Y-20388043D01*
X18996611Y-20388043D02*
X18977563Y-20359472D01*
X18977563Y-20359472D02*
X18968039Y-20349948D01*
X19329944Y-20654710D02*
X19320420Y-20645186D01*
X19320420Y-20645186D02*
X19301373Y-20616615D01*
X19301373Y-20616615D02*
X19291849Y-20597567D01*
X19291849Y-20597567D02*
X19282325Y-20568996D01*
X19282325Y-20568996D02*
X19272801Y-20521377D01*
X19272801Y-20521377D02*
X19272801Y-20483281D01*
X19272801Y-20483281D02*
X19282325Y-20435662D01*
X19282325Y-20435662D02*
X19291849Y-20407091D01*
X19291849Y-20407091D02*
X19301373Y-20388043D01*
X19301373Y-20388043D02*
X19320420Y-20359472D01*
X19320420Y-20359472D02*
X19329944Y-20349948D01*
X19406134Y-20445186D02*
X19406134Y-20578520D01*
X19406134Y-20464234D02*
X19415658Y-20454710D01*
X19415658Y-20454710D02*
X19434706Y-20445186D01*
X19434706Y-20445186D02*
X19463277Y-20445186D01*
X19463277Y-20445186D02*
X19482325Y-20454710D01*
X19482325Y-20454710D02*
X19491849Y-20473758D01*
X19491849Y-20473758D02*
X19491849Y-20578520D01*
X19615658Y-20578520D02*
X19596611Y-20568996D01*
X19596611Y-20568996D02*
X19587087Y-20559472D01*
X19587087Y-20559472D02*
X19577563Y-20540424D01*
X19577563Y-20540424D02*
X19577563Y-20483281D01*
X19577563Y-20483281D02*
X19587087Y-20464234D01*
X19587087Y-20464234D02*
X19596611Y-20454710D01*
X19596611Y-20454710D02*
X19615658Y-20445186D01*
X19615658Y-20445186D02*
X19644230Y-20445186D01*
X19644230Y-20445186D02*
X19663277Y-20454710D01*
X19663277Y-20454710D02*
X19672801Y-20464234D01*
X19672801Y-20464234D02*
X19682325Y-20483281D01*
X19682325Y-20483281D02*
X19682325Y-20540424D01*
X19682325Y-20540424D02*
X19672801Y-20559472D01*
X19672801Y-20559472D02*
X19663277Y-20568996D01*
X19663277Y-20568996D02*
X19644230Y-20578520D01*
X19644230Y-20578520D02*
X19615658Y-20578520D01*
X19739468Y-20445186D02*
X19815658Y-20445186D01*
X19768039Y-20378520D02*
X19768039Y-20549948D01*
X19768039Y-20549948D02*
X19777563Y-20568996D01*
X19777563Y-20568996D02*
X19796611Y-20578520D01*
X19796611Y-20578520D02*
X19815658Y-20578520D01*
X20034706Y-20445186D02*
X20034706Y-20645186D01*
X20034706Y-20454710D02*
X20053754Y-20445186D01*
X20053754Y-20445186D02*
X20091849Y-20445186D01*
X20091849Y-20445186D02*
X20110896Y-20454710D01*
X20110896Y-20454710D02*
X20120420Y-20464234D01*
X20120420Y-20464234D02*
X20129944Y-20483281D01*
X20129944Y-20483281D02*
X20129944Y-20540424D01*
X20129944Y-20540424D02*
X20120420Y-20559472D01*
X20120420Y-20559472D02*
X20110896Y-20568996D01*
X20110896Y-20568996D02*
X20091849Y-20578520D01*
X20091849Y-20578520D02*
X20053754Y-20578520D01*
X20053754Y-20578520D02*
X20034706Y-20568996D01*
X20244230Y-20578520D02*
X20225182Y-20568996D01*
X20225182Y-20568996D02*
X20215658Y-20549948D01*
X20215658Y-20549948D02*
X20215658Y-20378520D01*
X20406135Y-20578520D02*
X20406135Y-20473758D01*
X20406135Y-20473758D02*
X20396611Y-20454710D01*
X20396611Y-20454710D02*
X20377563Y-20445186D01*
X20377563Y-20445186D02*
X20339468Y-20445186D01*
X20339468Y-20445186D02*
X20320420Y-20454710D01*
X20406135Y-20568996D02*
X20387087Y-20578520D01*
X20387087Y-20578520D02*
X20339468Y-20578520D01*
X20339468Y-20578520D02*
X20320420Y-20568996D01*
X20320420Y-20568996D02*
X20310896Y-20549948D01*
X20310896Y-20549948D02*
X20310896Y-20530900D01*
X20310896Y-20530900D02*
X20320420Y-20511853D01*
X20320420Y-20511853D02*
X20339468Y-20502329D01*
X20339468Y-20502329D02*
X20387087Y-20502329D01*
X20387087Y-20502329D02*
X20406135Y-20492805D01*
X20472801Y-20445186D02*
X20548992Y-20445186D01*
X20501373Y-20378520D02*
X20501373Y-20549948D01*
X20501373Y-20549948D02*
X20510896Y-20568996D01*
X20510896Y-20568996D02*
X20529944Y-20578520D01*
X20529944Y-20578520D02*
X20548992Y-20578520D01*
X20691849Y-20568996D02*
X20672801Y-20578520D01*
X20672801Y-20578520D02*
X20634706Y-20578520D01*
X20634706Y-20578520D02*
X20615658Y-20568996D01*
X20615658Y-20568996D02*
X20606135Y-20549948D01*
X20606135Y-20549948D02*
X20606135Y-20473758D01*
X20606135Y-20473758D02*
X20615658Y-20454710D01*
X20615658Y-20454710D02*
X20634706Y-20445186D01*
X20634706Y-20445186D02*
X20672801Y-20445186D01*
X20672801Y-20445186D02*
X20691849Y-20454710D01*
X20691849Y-20454710D02*
X20701373Y-20473758D01*
X20701373Y-20473758D02*
X20701373Y-20492805D01*
X20701373Y-20492805D02*
X20606135Y-20511853D01*
X20872801Y-20578520D02*
X20872801Y-20378520D01*
X20872801Y-20568996D02*
X20853754Y-20578520D01*
X20853754Y-20578520D02*
X20815658Y-20578520D01*
X20815658Y-20578520D02*
X20796611Y-20568996D01*
X20796611Y-20568996D02*
X20787087Y-20559472D01*
X20787087Y-20559472D02*
X20777563Y-20540424D01*
X20777563Y-20540424D02*
X20777563Y-20483281D01*
X20777563Y-20483281D02*
X20787087Y-20464234D01*
X20787087Y-20464234D02*
X20796611Y-20454710D01*
X20796611Y-20454710D02*
X20815658Y-20445186D01*
X20815658Y-20445186D02*
X20853754Y-20445186D01*
X20853754Y-20445186D02*
X20872801Y-20454710D01*
X20948992Y-20654710D02*
X20958516Y-20645186D01*
X20958516Y-20645186D02*
X20977563Y-20616615D01*
X20977563Y-20616615D02*
X20987087Y-20597567D01*
X20987087Y-20597567D02*
X20996611Y-20568996D01*
X20996611Y-20568996D02*
X21006135Y-20521377D01*
X21006135Y-20521377D02*
X21006135Y-20483281D01*
X21006135Y-20483281D02*
X20996611Y-20435662D01*
X20996611Y-20435662D02*
X20987087Y-20407091D01*
X20987087Y-20407091D02*
X20977563Y-20388043D01*
X20977563Y-20388043D02*
X20958516Y-20359472D01*
X20958516Y-20359472D02*
X20948992Y-20349948D01*
X13902500Y-20887036D02*
X14002500Y-20787036D01*
X13902500Y-20687036D01*
X13802500Y-20787036D01*
X13902500Y-20887036D01*
X14244229Y-20678520D02*
X14368039Y-20678520D01*
X14368039Y-20678520D02*
X14301372Y-20754710D01*
X14301372Y-20754710D02*
X14329943Y-20754710D01*
X14329943Y-20754710D02*
X14348991Y-20764234D01*
X14348991Y-20764234D02*
X14358515Y-20773758D01*
X14358515Y-20773758D02*
X14368039Y-20792805D01*
X14368039Y-20792805D02*
X14368039Y-20840424D01*
X14368039Y-20840424D02*
X14358515Y-20859472D01*
X14358515Y-20859472D02*
X14348991Y-20868996D01*
X14348991Y-20868996D02*
X14329943Y-20878520D01*
X14329943Y-20878520D02*
X14272801Y-20878520D01*
X14272801Y-20878520D02*
X14253753Y-20868996D01*
X14253753Y-20868996D02*
X14244229Y-20859472D01*
X14453753Y-20859472D02*
X14463277Y-20868996D01*
X14463277Y-20868996D02*
X14453753Y-20878520D01*
X14453753Y-20878520D02*
X14444229Y-20868996D01*
X14444229Y-20868996D02*
X14453753Y-20859472D01*
X14453753Y-20859472D02*
X14453753Y-20878520D01*
X14587086Y-20678520D02*
X14606134Y-20678520D01*
X14606134Y-20678520D02*
X14625182Y-20688043D01*
X14625182Y-20688043D02*
X14634705Y-20697567D01*
X14634705Y-20697567D02*
X14644229Y-20716615D01*
X14644229Y-20716615D02*
X14653753Y-20754710D01*
X14653753Y-20754710D02*
X14653753Y-20802329D01*
X14653753Y-20802329D02*
X14644229Y-20840424D01*
X14644229Y-20840424D02*
X14634705Y-20859472D01*
X14634705Y-20859472D02*
X14625182Y-20868996D01*
X14625182Y-20868996D02*
X14606134Y-20878520D01*
X14606134Y-20878520D02*
X14587086Y-20878520D01*
X14587086Y-20878520D02*
X14568039Y-20868996D01*
X14568039Y-20868996D02*
X14558515Y-20859472D01*
X14558515Y-20859472D02*
X14548991Y-20840424D01*
X14548991Y-20840424D02*
X14539467Y-20802329D01*
X14539467Y-20802329D02*
X14539467Y-20754710D01*
X14539467Y-20754710D02*
X14548991Y-20716615D01*
X14548991Y-20716615D02*
X14558515Y-20697567D01*
X14558515Y-20697567D02*
X14568039Y-20688043D01*
X14568039Y-20688043D02*
X14587086Y-20678520D01*
X14777562Y-20678520D02*
X14796610Y-20678520D01*
X14796610Y-20678520D02*
X14815658Y-20688043D01*
X14815658Y-20688043D02*
X14825182Y-20697567D01*
X14825182Y-20697567D02*
X14834705Y-20716615D01*
X14834705Y-20716615D02*
X14844229Y-20754710D01*
X14844229Y-20754710D02*
X14844229Y-20802329D01*
X14844229Y-20802329D02*
X14834705Y-20840424D01*
X14834705Y-20840424D02*
X14825182Y-20859472D01*
X14825182Y-20859472D02*
X14815658Y-20868996D01*
X14815658Y-20868996D02*
X14796610Y-20878520D01*
X14796610Y-20878520D02*
X14777562Y-20878520D01*
X14777562Y-20878520D02*
X14758515Y-20868996D01*
X14758515Y-20868996D02*
X14748991Y-20859472D01*
X14748991Y-20859472D02*
X14739467Y-20840424D01*
X14739467Y-20840424D02*
X14729943Y-20802329D01*
X14729943Y-20802329D02*
X14729943Y-20754710D01*
X14729943Y-20754710D02*
X14739467Y-20716615D01*
X14739467Y-20716615D02*
X14748991Y-20697567D01*
X14748991Y-20697567D02*
X14758515Y-20688043D01*
X14758515Y-20688043D02*
X14777562Y-20678520D01*
X14968039Y-20678520D02*
X14987086Y-20678520D01*
X14987086Y-20678520D02*
X15006134Y-20688043D01*
X15006134Y-20688043D02*
X15015658Y-20697567D01*
X15015658Y-20697567D02*
X15025182Y-20716615D01*
X15025182Y-20716615D02*
X15034705Y-20754710D01*
X15034705Y-20754710D02*
X15034705Y-20802329D01*
X15034705Y-20802329D02*
X15025182Y-20840424D01*
X15025182Y-20840424D02*
X15015658Y-20859472D01*
X15015658Y-20859472D02*
X15006134Y-20868996D01*
X15006134Y-20868996D02*
X14987086Y-20878520D01*
X14987086Y-20878520D02*
X14968039Y-20878520D01*
X14968039Y-20878520D02*
X14948991Y-20868996D01*
X14948991Y-20868996D02*
X14939467Y-20859472D01*
X14939467Y-20859472D02*
X14929943Y-20840424D01*
X14929943Y-20840424D02*
X14920420Y-20802329D01*
X14920420Y-20802329D02*
X14920420Y-20754710D01*
X14920420Y-20754710D02*
X14929943Y-20716615D01*
X14929943Y-20716615D02*
X14939467Y-20697567D01*
X14939467Y-20697567D02*
X14948991Y-20688043D01*
X14948991Y-20688043D02*
X14968039Y-20678520D01*
X15120420Y-20878520D02*
X15120420Y-20745186D01*
X15120420Y-20764234D02*
X15129943Y-20754710D01*
X15129943Y-20754710D02*
X15148991Y-20745186D01*
X15148991Y-20745186D02*
X15177563Y-20745186D01*
X15177563Y-20745186D02*
X15196610Y-20754710D01*
X15196610Y-20754710D02*
X15206134Y-20773758D01*
X15206134Y-20773758D02*
X15206134Y-20878520D01*
X15206134Y-20773758D02*
X15215658Y-20754710D01*
X15215658Y-20754710D02*
X15234705Y-20745186D01*
X15234705Y-20745186D02*
X15263277Y-20745186D01*
X15263277Y-20745186D02*
X15282324Y-20754710D01*
X15282324Y-20754710D02*
X15291848Y-20773758D01*
X15291848Y-20773758D02*
X15291848Y-20878520D01*
X15387086Y-20878520D02*
X15387086Y-20745186D01*
X15387086Y-20764234D02*
X15396610Y-20754710D01*
X15396610Y-20754710D02*
X15415658Y-20745186D01*
X15415658Y-20745186D02*
X15444229Y-20745186D01*
X15444229Y-20745186D02*
X15463277Y-20754710D01*
X15463277Y-20754710D02*
X15472801Y-20773758D01*
X15472801Y-20773758D02*
X15472801Y-20878520D01*
X15472801Y-20773758D02*
X15482324Y-20754710D01*
X15482324Y-20754710D02*
X15501372Y-20745186D01*
X15501372Y-20745186D02*
X15529943Y-20745186D01*
X15529943Y-20745186D02*
X15548991Y-20754710D01*
X15548991Y-20754710D02*
X15558515Y-20773758D01*
X15558515Y-20773758D02*
X15558515Y-20878520D01*
X15948991Y-20668996D02*
X15777563Y-20926139D01*
X16206134Y-20678520D02*
X16225182Y-20678520D01*
X16225182Y-20678520D02*
X16244229Y-20688043D01*
X16244229Y-20688043D02*
X16253753Y-20697567D01*
X16253753Y-20697567D02*
X16263277Y-20716615D01*
X16263277Y-20716615D02*
X16272801Y-20754710D01*
X16272801Y-20754710D02*
X16272801Y-20802329D01*
X16272801Y-20802329D02*
X16263277Y-20840424D01*
X16263277Y-20840424D02*
X16253753Y-20859472D01*
X16253753Y-20859472D02*
X16244229Y-20868996D01*
X16244229Y-20868996D02*
X16225182Y-20878520D01*
X16225182Y-20878520D02*
X16206134Y-20878520D01*
X16206134Y-20878520D02*
X16187086Y-20868996D01*
X16187086Y-20868996D02*
X16177563Y-20859472D01*
X16177563Y-20859472D02*
X16168039Y-20840424D01*
X16168039Y-20840424D02*
X16158515Y-20802329D01*
X16158515Y-20802329D02*
X16158515Y-20754710D01*
X16158515Y-20754710D02*
X16168039Y-20716615D01*
X16168039Y-20716615D02*
X16177563Y-20697567D01*
X16177563Y-20697567D02*
X16187086Y-20688043D01*
X16187086Y-20688043D02*
X16206134Y-20678520D01*
X16358515Y-20859472D02*
X16368039Y-20868996D01*
X16368039Y-20868996D02*
X16358515Y-20878520D01*
X16358515Y-20878520D02*
X16348991Y-20868996D01*
X16348991Y-20868996D02*
X16358515Y-20859472D01*
X16358515Y-20859472D02*
X16358515Y-20878520D01*
X16558515Y-20878520D02*
X16444229Y-20878520D01*
X16501372Y-20878520D02*
X16501372Y-20678520D01*
X16501372Y-20678520D02*
X16482325Y-20707091D01*
X16482325Y-20707091D02*
X16463277Y-20726139D01*
X16463277Y-20726139D02*
X16444229Y-20735662D01*
X16748991Y-20878520D02*
X16634706Y-20878520D01*
X16691848Y-20878520D02*
X16691848Y-20678520D01*
X16691848Y-20678520D02*
X16672801Y-20707091D01*
X16672801Y-20707091D02*
X16653753Y-20726139D01*
X16653753Y-20726139D02*
X16634706Y-20735662D01*
X16863277Y-20764234D02*
X16844229Y-20754710D01*
X16844229Y-20754710D02*
X16834706Y-20745186D01*
X16834706Y-20745186D02*
X16825182Y-20726139D01*
X16825182Y-20726139D02*
X16825182Y-20716615D01*
X16825182Y-20716615D02*
X16834706Y-20697567D01*
X16834706Y-20697567D02*
X16844229Y-20688043D01*
X16844229Y-20688043D02*
X16863277Y-20678520D01*
X16863277Y-20678520D02*
X16901372Y-20678520D01*
X16901372Y-20678520D02*
X16920420Y-20688043D01*
X16920420Y-20688043D02*
X16929944Y-20697567D01*
X16929944Y-20697567D02*
X16939468Y-20716615D01*
X16939468Y-20716615D02*
X16939468Y-20726139D01*
X16939468Y-20726139D02*
X16929944Y-20745186D01*
X16929944Y-20745186D02*
X16920420Y-20754710D01*
X16920420Y-20754710D02*
X16901372Y-20764234D01*
X16901372Y-20764234D02*
X16863277Y-20764234D01*
X16863277Y-20764234D02*
X16844229Y-20773758D01*
X16844229Y-20773758D02*
X16834706Y-20783281D01*
X16834706Y-20783281D02*
X16825182Y-20802329D01*
X16825182Y-20802329D02*
X16825182Y-20840424D01*
X16825182Y-20840424D02*
X16834706Y-20859472D01*
X16834706Y-20859472D02*
X16844229Y-20868996D01*
X16844229Y-20868996D02*
X16863277Y-20878520D01*
X16863277Y-20878520D02*
X16901372Y-20878520D01*
X16901372Y-20878520D02*
X16920420Y-20868996D01*
X16920420Y-20868996D02*
X16929944Y-20859472D01*
X16929944Y-20859472D02*
X16939468Y-20840424D01*
X16939468Y-20840424D02*
X16939468Y-20802329D01*
X16939468Y-20802329D02*
X16929944Y-20783281D01*
X16929944Y-20783281D02*
X16920420Y-20773758D01*
X16920420Y-20773758D02*
X16901372Y-20764234D01*
X17129944Y-20878520D02*
X17015658Y-20878520D01*
X17072801Y-20878520D02*
X17072801Y-20678520D01*
X17072801Y-20678520D02*
X17053753Y-20707091D01*
X17053753Y-20707091D02*
X17034706Y-20726139D01*
X17034706Y-20726139D02*
X17015658Y-20735662D01*
X17206134Y-20678520D02*
X17206134Y-20716615D01*
X17282325Y-20678520D02*
X17282325Y-20716615D01*
X17577563Y-20954710D02*
X17568039Y-20945186D01*
X17568039Y-20945186D02*
X17548991Y-20916615D01*
X17548991Y-20916615D02*
X17539468Y-20897567D01*
X17539468Y-20897567D02*
X17529944Y-20868996D01*
X17529944Y-20868996D02*
X17520420Y-20821377D01*
X17520420Y-20821377D02*
X17520420Y-20783281D01*
X17520420Y-20783281D02*
X17529944Y-20735662D01*
X17529944Y-20735662D02*
X17539468Y-20707091D01*
X17539468Y-20707091D02*
X17548991Y-20688043D01*
X17548991Y-20688043D02*
X17568039Y-20659472D01*
X17568039Y-20659472D02*
X17577563Y-20649948D01*
X17739468Y-20678520D02*
X17701372Y-20678520D01*
X17701372Y-20678520D02*
X17682325Y-20688043D01*
X17682325Y-20688043D02*
X17672801Y-20697567D01*
X17672801Y-20697567D02*
X17653753Y-20726139D01*
X17653753Y-20726139D02*
X17644230Y-20764234D01*
X17644230Y-20764234D02*
X17644230Y-20840424D01*
X17644230Y-20840424D02*
X17653753Y-20859472D01*
X17653753Y-20859472D02*
X17663277Y-20868996D01*
X17663277Y-20868996D02*
X17682325Y-20878520D01*
X17682325Y-20878520D02*
X17720420Y-20878520D01*
X17720420Y-20878520D02*
X17739468Y-20868996D01*
X17739468Y-20868996D02*
X17748991Y-20859472D01*
X17748991Y-20859472D02*
X17758515Y-20840424D01*
X17758515Y-20840424D02*
X17758515Y-20792805D01*
X17758515Y-20792805D02*
X17748991Y-20773758D01*
X17748991Y-20773758D02*
X17739468Y-20764234D01*
X17739468Y-20764234D02*
X17720420Y-20754710D01*
X17720420Y-20754710D02*
X17682325Y-20754710D01*
X17682325Y-20754710D02*
X17663277Y-20764234D01*
X17663277Y-20764234D02*
X17653753Y-20773758D01*
X17653753Y-20773758D02*
X17644230Y-20792805D01*
X17929944Y-20678520D02*
X17891849Y-20678520D01*
X17891849Y-20678520D02*
X17872801Y-20688043D01*
X17872801Y-20688043D02*
X17863277Y-20697567D01*
X17863277Y-20697567D02*
X17844230Y-20726139D01*
X17844230Y-20726139D02*
X17834706Y-20764234D01*
X17834706Y-20764234D02*
X17834706Y-20840424D01*
X17834706Y-20840424D02*
X17844230Y-20859472D01*
X17844230Y-20859472D02*
X17853753Y-20868996D01*
X17853753Y-20868996D02*
X17872801Y-20878520D01*
X17872801Y-20878520D02*
X17910896Y-20878520D01*
X17910896Y-20878520D02*
X17929944Y-20868996D01*
X17929944Y-20868996D02*
X17939468Y-20859472D01*
X17939468Y-20859472D02*
X17948991Y-20840424D01*
X17948991Y-20840424D02*
X17948991Y-20792805D01*
X17948991Y-20792805D02*
X17939468Y-20773758D01*
X17939468Y-20773758D02*
X17929944Y-20764234D01*
X17929944Y-20764234D02*
X17910896Y-20754710D01*
X17910896Y-20754710D02*
X17872801Y-20754710D01*
X17872801Y-20754710D02*
X17853753Y-20764234D01*
X17853753Y-20764234D02*
X17844230Y-20773758D01*
X17844230Y-20773758D02*
X17834706Y-20792805D01*
X18187087Y-20878520D02*
X18187087Y-20678520D01*
X18272801Y-20878520D02*
X18272801Y-20773758D01*
X18272801Y-20773758D02*
X18263277Y-20754710D01*
X18263277Y-20754710D02*
X18244230Y-20745186D01*
X18244230Y-20745186D02*
X18215658Y-20745186D01*
X18215658Y-20745186D02*
X18196611Y-20754710D01*
X18196611Y-20754710D02*
X18187087Y-20764234D01*
X18396611Y-20878520D02*
X18377563Y-20868996D01*
X18377563Y-20868996D02*
X18368039Y-20859472D01*
X18368039Y-20859472D02*
X18358515Y-20840424D01*
X18358515Y-20840424D02*
X18358515Y-20783281D01*
X18358515Y-20783281D02*
X18368039Y-20764234D01*
X18368039Y-20764234D02*
X18377563Y-20754710D01*
X18377563Y-20754710D02*
X18396611Y-20745186D01*
X18396611Y-20745186D02*
X18425182Y-20745186D01*
X18425182Y-20745186D02*
X18444230Y-20754710D01*
X18444230Y-20754710D02*
X18453753Y-20764234D01*
X18453753Y-20764234D02*
X18463277Y-20783281D01*
X18463277Y-20783281D02*
X18463277Y-20840424D01*
X18463277Y-20840424D02*
X18453753Y-20859472D01*
X18453753Y-20859472D02*
X18444230Y-20868996D01*
X18444230Y-20868996D02*
X18425182Y-20878520D01*
X18425182Y-20878520D02*
X18396611Y-20878520D01*
X18577563Y-20878520D02*
X18558515Y-20868996D01*
X18558515Y-20868996D02*
X18548992Y-20849948D01*
X18548992Y-20849948D02*
X18548992Y-20678520D01*
X18729944Y-20868996D02*
X18710896Y-20878520D01*
X18710896Y-20878520D02*
X18672801Y-20878520D01*
X18672801Y-20878520D02*
X18653753Y-20868996D01*
X18653753Y-20868996D02*
X18644230Y-20849948D01*
X18644230Y-20849948D02*
X18644230Y-20773758D01*
X18644230Y-20773758D02*
X18653753Y-20754710D01*
X18653753Y-20754710D02*
X18672801Y-20745186D01*
X18672801Y-20745186D02*
X18710896Y-20745186D01*
X18710896Y-20745186D02*
X18729944Y-20754710D01*
X18729944Y-20754710D02*
X18739468Y-20773758D01*
X18739468Y-20773758D02*
X18739468Y-20792805D01*
X18739468Y-20792805D02*
X18644230Y-20811853D01*
X18815658Y-20868996D02*
X18834706Y-20878520D01*
X18834706Y-20878520D02*
X18872801Y-20878520D01*
X18872801Y-20878520D02*
X18891849Y-20868996D01*
X18891849Y-20868996D02*
X18901373Y-20849948D01*
X18901373Y-20849948D02*
X18901373Y-20840424D01*
X18901373Y-20840424D02*
X18891849Y-20821377D01*
X18891849Y-20821377D02*
X18872801Y-20811853D01*
X18872801Y-20811853D02*
X18844230Y-20811853D01*
X18844230Y-20811853D02*
X18825182Y-20802329D01*
X18825182Y-20802329D02*
X18815658Y-20783281D01*
X18815658Y-20783281D02*
X18815658Y-20773758D01*
X18815658Y-20773758D02*
X18825182Y-20754710D01*
X18825182Y-20754710D02*
X18844230Y-20745186D01*
X18844230Y-20745186D02*
X18872801Y-20745186D01*
X18872801Y-20745186D02*
X18891849Y-20754710D01*
X18968039Y-20954710D02*
X18977563Y-20945186D01*
X18977563Y-20945186D02*
X18996611Y-20916615D01*
X18996611Y-20916615D02*
X19006134Y-20897567D01*
X19006134Y-20897567D02*
X19015658Y-20868996D01*
X19015658Y-20868996D02*
X19025182Y-20821377D01*
X19025182Y-20821377D02*
X19025182Y-20783281D01*
X19025182Y-20783281D02*
X19015658Y-20735662D01*
X19015658Y-20735662D02*
X19006134Y-20707091D01*
X19006134Y-20707091D02*
X18996611Y-20688043D01*
X18996611Y-20688043D02*
X18977563Y-20659472D01*
X18977563Y-20659472D02*
X18968039Y-20649948D01*
X19329944Y-20954710D02*
X19320420Y-20945186D01*
X19320420Y-20945186D02*
X19301373Y-20916615D01*
X19301373Y-20916615D02*
X19291849Y-20897567D01*
X19291849Y-20897567D02*
X19282325Y-20868996D01*
X19282325Y-20868996D02*
X19272801Y-20821377D01*
X19272801Y-20821377D02*
X19272801Y-20783281D01*
X19272801Y-20783281D02*
X19282325Y-20735662D01*
X19282325Y-20735662D02*
X19291849Y-20707091D01*
X19291849Y-20707091D02*
X19301373Y-20688043D01*
X19301373Y-20688043D02*
X19320420Y-20659472D01*
X19320420Y-20659472D02*
X19329944Y-20649948D01*
X19406134Y-20745186D02*
X19406134Y-20878520D01*
X19406134Y-20764234D02*
X19415658Y-20754710D01*
X19415658Y-20754710D02*
X19434706Y-20745186D01*
X19434706Y-20745186D02*
X19463277Y-20745186D01*
X19463277Y-20745186D02*
X19482325Y-20754710D01*
X19482325Y-20754710D02*
X19491849Y-20773758D01*
X19491849Y-20773758D02*
X19491849Y-20878520D01*
X19615658Y-20878520D02*
X19596611Y-20868996D01*
X19596611Y-20868996D02*
X19587087Y-20859472D01*
X19587087Y-20859472D02*
X19577563Y-20840424D01*
X19577563Y-20840424D02*
X19577563Y-20783281D01*
X19577563Y-20783281D02*
X19587087Y-20764234D01*
X19587087Y-20764234D02*
X19596611Y-20754710D01*
X19596611Y-20754710D02*
X19615658Y-20745186D01*
X19615658Y-20745186D02*
X19644230Y-20745186D01*
X19644230Y-20745186D02*
X19663277Y-20754710D01*
X19663277Y-20754710D02*
X19672801Y-20764234D01*
X19672801Y-20764234D02*
X19682325Y-20783281D01*
X19682325Y-20783281D02*
X19682325Y-20840424D01*
X19682325Y-20840424D02*
X19672801Y-20859472D01*
X19672801Y-20859472D02*
X19663277Y-20868996D01*
X19663277Y-20868996D02*
X19644230Y-20878520D01*
X19644230Y-20878520D02*
X19615658Y-20878520D01*
X19739468Y-20745186D02*
X19815658Y-20745186D01*
X19768039Y-20678520D02*
X19768039Y-20849948D01*
X19768039Y-20849948D02*
X19777563Y-20868996D01*
X19777563Y-20868996D02*
X19796611Y-20878520D01*
X19796611Y-20878520D02*
X19815658Y-20878520D01*
X20034706Y-20745186D02*
X20034706Y-20945186D01*
X20034706Y-20754710D02*
X20053754Y-20745186D01*
X20053754Y-20745186D02*
X20091849Y-20745186D01*
X20091849Y-20745186D02*
X20110896Y-20754710D01*
X20110896Y-20754710D02*
X20120420Y-20764234D01*
X20120420Y-20764234D02*
X20129944Y-20783281D01*
X20129944Y-20783281D02*
X20129944Y-20840424D01*
X20129944Y-20840424D02*
X20120420Y-20859472D01*
X20120420Y-20859472D02*
X20110896Y-20868996D01*
X20110896Y-20868996D02*
X20091849Y-20878520D01*
X20091849Y-20878520D02*
X20053754Y-20878520D01*
X20053754Y-20878520D02*
X20034706Y-20868996D01*
X20244230Y-20878520D02*
X20225182Y-20868996D01*
X20225182Y-20868996D02*
X20215658Y-20849948D01*
X20215658Y-20849948D02*
X20215658Y-20678520D01*
X20406135Y-20878520D02*
X20406135Y-20773758D01*
X20406135Y-20773758D02*
X20396611Y-20754710D01*
X20396611Y-20754710D02*
X20377563Y-20745186D01*
X20377563Y-20745186D02*
X20339468Y-20745186D01*
X20339468Y-20745186D02*
X20320420Y-20754710D01*
X20406135Y-20868996D02*
X20387087Y-20878520D01*
X20387087Y-20878520D02*
X20339468Y-20878520D01*
X20339468Y-20878520D02*
X20320420Y-20868996D01*
X20320420Y-20868996D02*
X20310896Y-20849948D01*
X20310896Y-20849948D02*
X20310896Y-20830900D01*
X20310896Y-20830900D02*
X20320420Y-20811853D01*
X20320420Y-20811853D02*
X20339468Y-20802329D01*
X20339468Y-20802329D02*
X20387087Y-20802329D01*
X20387087Y-20802329D02*
X20406135Y-20792805D01*
X20472801Y-20745186D02*
X20548992Y-20745186D01*
X20501373Y-20678520D02*
X20501373Y-20849948D01*
X20501373Y-20849948D02*
X20510896Y-20868996D01*
X20510896Y-20868996D02*
X20529944Y-20878520D01*
X20529944Y-20878520D02*
X20548992Y-20878520D01*
X20691849Y-20868996D02*
X20672801Y-20878520D01*
X20672801Y-20878520D02*
X20634706Y-20878520D01*
X20634706Y-20878520D02*
X20615658Y-20868996D01*
X20615658Y-20868996D02*
X20606135Y-20849948D01*
X20606135Y-20849948D02*
X20606135Y-20773758D01*
X20606135Y-20773758D02*
X20615658Y-20754710D01*
X20615658Y-20754710D02*
X20634706Y-20745186D01*
X20634706Y-20745186D02*
X20672801Y-20745186D01*
X20672801Y-20745186D02*
X20691849Y-20754710D01*
X20691849Y-20754710D02*
X20701373Y-20773758D01*
X20701373Y-20773758D02*
X20701373Y-20792805D01*
X20701373Y-20792805D02*
X20606135Y-20811853D01*
X20872801Y-20878520D02*
X20872801Y-20678520D01*
X20872801Y-20868996D02*
X20853754Y-20878520D01*
X20853754Y-20878520D02*
X20815658Y-20878520D01*
X20815658Y-20878520D02*
X20796611Y-20868996D01*
X20796611Y-20868996D02*
X20787087Y-20859472D01*
X20787087Y-20859472D02*
X20777563Y-20840424D01*
X20777563Y-20840424D02*
X20777563Y-20783281D01*
X20777563Y-20783281D02*
X20787087Y-20764234D01*
X20787087Y-20764234D02*
X20796611Y-20754710D01*
X20796611Y-20754710D02*
X20815658Y-20745186D01*
X20815658Y-20745186D02*
X20853754Y-20745186D01*
X20853754Y-20745186D02*
X20872801Y-20754710D01*
X20948992Y-20954710D02*
X20958516Y-20945186D01*
X20958516Y-20945186D02*
X20977563Y-20916615D01*
X20977563Y-20916615D02*
X20987087Y-20897567D01*
X20987087Y-20897567D02*
X20996611Y-20868996D01*
X20996611Y-20868996D02*
X21006135Y-20821377D01*
X21006135Y-20821377D02*
X21006135Y-20783281D01*
X21006135Y-20783281D02*
X20996611Y-20735662D01*
X20996611Y-20735662D02*
X20987087Y-20707091D01*
X20987087Y-20707091D02*
X20977563Y-20688043D01*
X20977563Y-20688043D02*
X20958516Y-20659472D01*
X20958516Y-20659472D02*
X20948992Y-20649948D01*
X13802500Y-21007036D02*
X14002500Y-21207036D01*
X14002500Y-21007036D02*
X13802500Y-21207036D01*
X14002500Y-21107036D02*
G75*
G03*
X14002500Y-21107036I-100000J0D01*
G01*
X14244229Y-20998520D02*
X14368039Y-20998520D01*
X14368039Y-20998520D02*
X14301372Y-21074710D01*
X14301372Y-21074710D02*
X14329943Y-21074710D01*
X14329943Y-21074710D02*
X14348991Y-21084234D01*
X14348991Y-21084234D02*
X14358515Y-21093758D01*
X14358515Y-21093758D02*
X14368039Y-21112805D01*
X14368039Y-21112805D02*
X14368039Y-21160424D01*
X14368039Y-21160424D02*
X14358515Y-21179472D01*
X14358515Y-21179472D02*
X14348991Y-21188996D01*
X14348991Y-21188996D02*
X14329943Y-21198520D01*
X14329943Y-21198520D02*
X14272801Y-21198520D01*
X14272801Y-21198520D02*
X14253753Y-21188996D01*
X14253753Y-21188996D02*
X14244229Y-21179472D01*
X14453753Y-21179472D02*
X14463277Y-21188996D01*
X14463277Y-21188996D02*
X14453753Y-21198520D01*
X14453753Y-21198520D02*
X14444229Y-21188996D01*
X14444229Y-21188996D02*
X14453753Y-21179472D01*
X14453753Y-21179472D02*
X14453753Y-21198520D01*
X14634705Y-21065186D02*
X14634705Y-21198520D01*
X14587086Y-20988996D02*
X14539467Y-21131853D01*
X14539467Y-21131853D02*
X14663277Y-21131853D01*
X14777562Y-20998520D02*
X14796610Y-20998520D01*
X14796610Y-20998520D02*
X14815658Y-21008043D01*
X14815658Y-21008043D02*
X14825182Y-21017567D01*
X14825182Y-21017567D02*
X14834705Y-21036615D01*
X14834705Y-21036615D02*
X14844229Y-21074710D01*
X14844229Y-21074710D02*
X14844229Y-21122329D01*
X14844229Y-21122329D02*
X14834705Y-21160424D01*
X14834705Y-21160424D02*
X14825182Y-21179472D01*
X14825182Y-21179472D02*
X14815658Y-21188996D01*
X14815658Y-21188996D02*
X14796610Y-21198520D01*
X14796610Y-21198520D02*
X14777562Y-21198520D01*
X14777562Y-21198520D02*
X14758515Y-21188996D01*
X14758515Y-21188996D02*
X14748991Y-21179472D01*
X14748991Y-21179472D02*
X14739467Y-21160424D01*
X14739467Y-21160424D02*
X14729943Y-21122329D01*
X14729943Y-21122329D02*
X14729943Y-21074710D01*
X14729943Y-21074710D02*
X14739467Y-21036615D01*
X14739467Y-21036615D02*
X14748991Y-21017567D01*
X14748991Y-21017567D02*
X14758515Y-21008043D01*
X14758515Y-21008043D02*
X14777562Y-20998520D01*
X14968039Y-20998520D02*
X14987086Y-20998520D01*
X14987086Y-20998520D02*
X15006134Y-21008043D01*
X15006134Y-21008043D02*
X15015658Y-21017567D01*
X15015658Y-21017567D02*
X15025182Y-21036615D01*
X15025182Y-21036615D02*
X15034705Y-21074710D01*
X15034705Y-21074710D02*
X15034705Y-21122329D01*
X15034705Y-21122329D02*
X15025182Y-21160424D01*
X15025182Y-21160424D02*
X15015658Y-21179472D01*
X15015658Y-21179472D02*
X15006134Y-21188996D01*
X15006134Y-21188996D02*
X14987086Y-21198520D01*
X14987086Y-21198520D02*
X14968039Y-21198520D01*
X14968039Y-21198520D02*
X14948991Y-21188996D01*
X14948991Y-21188996D02*
X14939467Y-21179472D01*
X14939467Y-21179472D02*
X14929943Y-21160424D01*
X14929943Y-21160424D02*
X14920420Y-21122329D01*
X14920420Y-21122329D02*
X14920420Y-21074710D01*
X14920420Y-21074710D02*
X14929943Y-21036615D01*
X14929943Y-21036615D02*
X14939467Y-21017567D01*
X14939467Y-21017567D02*
X14948991Y-21008043D01*
X14948991Y-21008043D02*
X14968039Y-20998520D01*
X15120420Y-21198520D02*
X15120420Y-21065186D01*
X15120420Y-21084234D02*
X15129943Y-21074710D01*
X15129943Y-21074710D02*
X15148991Y-21065186D01*
X15148991Y-21065186D02*
X15177563Y-21065186D01*
X15177563Y-21065186D02*
X15196610Y-21074710D01*
X15196610Y-21074710D02*
X15206134Y-21093758D01*
X15206134Y-21093758D02*
X15206134Y-21198520D01*
X15206134Y-21093758D02*
X15215658Y-21074710D01*
X15215658Y-21074710D02*
X15234705Y-21065186D01*
X15234705Y-21065186D02*
X15263277Y-21065186D01*
X15263277Y-21065186D02*
X15282324Y-21074710D01*
X15282324Y-21074710D02*
X15291848Y-21093758D01*
X15291848Y-21093758D02*
X15291848Y-21198520D01*
X15387086Y-21198520D02*
X15387086Y-21065186D01*
X15387086Y-21084234D02*
X15396610Y-21074710D01*
X15396610Y-21074710D02*
X15415658Y-21065186D01*
X15415658Y-21065186D02*
X15444229Y-21065186D01*
X15444229Y-21065186D02*
X15463277Y-21074710D01*
X15463277Y-21074710D02*
X15472801Y-21093758D01*
X15472801Y-21093758D02*
X15472801Y-21198520D01*
X15472801Y-21093758D02*
X15482324Y-21074710D01*
X15482324Y-21074710D02*
X15501372Y-21065186D01*
X15501372Y-21065186D02*
X15529943Y-21065186D01*
X15529943Y-21065186D02*
X15548991Y-21074710D01*
X15548991Y-21074710D02*
X15558515Y-21093758D01*
X15558515Y-21093758D02*
X15558515Y-21198520D01*
X15948991Y-20988996D02*
X15777563Y-21246139D01*
X16206134Y-20998520D02*
X16225182Y-20998520D01*
X16225182Y-20998520D02*
X16244229Y-21008043D01*
X16244229Y-21008043D02*
X16253753Y-21017567D01*
X16253753Y-21017567D02*
X16263277Y-21036615D01*
X16263277Y-21036615D02*
X16272801Y-21074710D01*
X16272801Y-21074710D02*
X16272801Y-21122329D01*
X16272801Y-21122329D02*
X16263277Y-21160424D01*
X16263277Y-21160424D02*
X16253753Y-21179472D01*
X16253753Y-21179472D02*
X16244229Y-21188996D01*
X16244229Y-21188996D02*
X16225182Y-21198520D01*
X16225182Y-21198520D02*
X16206134Y-21198520D01*
X16206134Y-21198520D02*
X16187086Y-21188996D01*
X16187086Y-21188996D02*
X16177563Y-21179472D01*
X16177563Y-21179472D02*
X16168039Y-21160424D01*
X16168039Y-21160424D02*
X16158515Y-21122329D01*
X16158515Y-21122329D02*
X16158515Y-21074710D01*
X16158515Y-21074710D02*
X16168039Y-21036615D01*
X16168039Y-21036615D02*
X16177563Y-21017567D01*
X16177563Y-21017567D02*
X16187086Y-21008043D01*
X16187086Y-21008043D02*
X16206134Y-20998520D01*
X16358515Y-21179472D02*
X16368039Y-21188996D01*
X16368039Y-21188996D02*
X16358515Y-21198520D01*
X16358515Y-21198520D02*
X16348991Y-21188996D01*
X16348991Y-21188996D02*
X16358515Y-21179472D01*
X16358515Y-21179472D02*
X16358515Y-21198520D01*
X16558515Y-21198520D02*
X16444229Y-21198520D01*
X16501372Y-21198520D02*
X16501372Y-20998520D01*
X16501372Y-20998520D02*
X16482325Y-21027091D01*
X16482325Y-21027091D02*
X16463277Y-21046139D01*
X16463277Y-21046139D02*
X16444229Y-21055662D01*
X16625182Y-20998520D02*
X16748991Y-20998520D01*
X16748991Y-20998520D02*
X16682325Y-21074710D01*
X16682325Y-21074710D02*
X16710896Y-21074710D01*
X16710896Y-21074710D02*
X16729944Y-21084234D01*
X16729944Y-21084234D02*
X16739467Y-21093758D01*
X16739467Y-21093758D02*
X16748991Y-21112805D01*
X16748991Y-21112805D02*
X16748991Y-21160424D01*
X16748991Y-21160424D02*
X16739467Y-21179472D01*
X16739467Y-21179472D02*
X16729944Y-21188996D01*
X16729944Y-21188996D02*
X16710896Y-21198520D01*
X16710896Y-21198520D02*
X16653753Y-21198520D01*
X16653753Y-21198520D02*
X16634706Y-21188996D01*
X16634706Y-21188996D02*
X16625182Y-21179472D01*
X16815658Y-20998520D02*
X16939468Y-20998520D01*
X16939468Y-20998520D02*
X16872801Y-21074710D01*
X16872801Y-21074710D02*
X16901372Y-21074710D01*
X16901372Y-21074710D02*
X16920420Y-21084234D01*
X16920420Y-21084234D02*
X16929944Y-21093758D01*
X16929944Y-21093758D02*
X16939468Y-21112805D01*
X16939468Y-21112805D02*
X16939468Y-21160424D01*
X16939468Y-21160424D02*
X16929944Y-21179472D01*
X16929944Y-21179472D02*
X16920420Y-21188996D01*
X16920420Y-21188996D02*
X16901372Y-21198520D01*
X16901372Y-21198520D02*
X16844229Y-21198520D01*
X16844229Y-21198520D02*
X16825182Y-21188996D01*
X16825182Y-21188996D02*
X16815658Y-21179472D01*
X17034706Y-21198520D02*
X17072801Y-21198520D01*
X17072801Y-21198520D02*
X17091849Y-21188996D01*
X17091849Y-21188996D02*
X17101372Y-21179472D01*
X17101372Y-21179472D02*
X17120420Y-21150900D01*
X17120420Y-21150900D02*
X17129944Y-21112805D01*
X17129944Y-21112805D02*
X17129944Y-21036615D01*
X17129944Y-21036615D02*
X17120420Y-21017567D01*
X17120420Y-21017567D02*
X17110896Y-21008043D01*
X17110896Y-21008043D02*
X17091849Y-20998520D01*
X17091849Y-20998520D02*
X17053753Y-20998520D01*
X17053753Y-20998520D02*
X17034706Y-21008043D01*
X17034706Y-21008043D02*
X17025182Y-21017567D01*
X17025182Y-21017567D02*
X17015658Y-21036615D01*
X17015658Y-21036615D02*
X17015658Y-21084234D01*
X17015658Y-21084234D02*
X17025182Y-21103281D01*
X17025182Y-21103281D02*
X17034706Y-21112805D01*
X17034706Y-21112805D02*
X17053753Y-21122329D01*
X17053753Y-21122329D02*
X17091849Y-21122329D01*
X17091849Y-21122329D02*
X17110896Y-21112805D01*
X17110896Y-21112805D02*
X17120420Y-21103281D01*
X17120420Y-21103281D02*
X17129944Y-21084234D01*
X17206134Y-20998520D02*
X17206134Y-21036615D01*
X17282325Y-20998520D02*
X17282325Y-21036615D01*
X17577563Y-21274710D02*
X17568039Y-21265186D01*
X17568039Y-21265186D02*
X17548991Y-21236615D01*
X17548991Y-21236615D02*
X17539468Y-21217567D01*
X17539468Y-21217567D02*
X17529944Y-21188996D01*
X17529944Y-21188996D02*
X17520420Y-21141377D01*
X17520420Y-21141377D02*
X17520420Y-21103281D01*
X17520420Y-21103281D02*
X17529944Y-21055662D01*
X17529944Y-21055662D02*
X17539468Y-21027091D01*
X17539468Y-21027091D02*
X17548991Y-21008043D01*
X17548991Y-21008043D02*
X17568039Y-20979472D01*
X17568039Y-20979472D02*
X17577563Y-20969948D01*
X17644230Y-21017567D02*
X17653753Y-21008043D01*
X17653753Y-21008043D02*
X17672801Y-20998520D01*
X17672801Y-20998520D02*
X17720420Y-20998520D01*
X17720420Y-20998520D02*
X17739468Y-21008043D01*
X17739468Y-21008043D02*
X17748991Y-21017567D01*
X17748991Y-21017567D02*
X17758515Y-21036615D01*
X17758515Y-21036615D02*
X17758515Y-21055662D01*
X17758515Y-21055662D02*
X17748991Y-21084234D01*
X17748991Y-21084234D02*
X17634706Y-21198520D01*
X17634706Y-21198520D02*
X17758515Y-21198520D01*
X17834706Y-21017567D02*
X17844230Y-21008043D01*
X17844230Y-21008043D02*
X17863277Y-20998520D01*
X17863277Y-20998520D02*
X17910896Y-20998520D01*
X17910896Y-20998520D02*
X17929944Y-21008043D01*
X17929944Y-21008043D02*
X17939468Y-21017567D01*
X17939468Y-21017567D02*
X17948991Y-21036615D01*
X17948991Y-21036615D02*
X17948991Y-21055662D01*
X17948991Y-21055662D02*
X17939468Y-21084234D01*
X17939468Y-21084234D02*
X17825182Y-21198520D01*
X17825182Y-21198520D02*
X17948991Y-21198520D01*
X18187087Y-21198520D02*
X18187087Y-20998520D01*
X18272801Y-21198520D02*
X18272801Y-21093758D01*
X18272801Y-21093758D02*
X18263277Y-21074710D01*
X18263277Y-21074710D02*
X18244230Y-21065186D01*
X18244230Y-21065186D02*
X18215658Y-21065186D01*
X18215658Y-21065186D02*
X18196611Y-21074710D01*
X18196611Y-21074710D02*
X18187087Y-21084234D01*
X18396611Y-21198520D02*
X18377563Y-21188996D01*
X18377563Y-21188996D02*
X18368039Y-21179472D01*
X18368039Y-21179472D02*
X18358515Y-21160424D01*
X18358515Y-21160424D02*
X18358515Y-21103281D01*
X18358515Y-21103281D02*
X18368039Y-21084234D01*
X18368039Y-21084234D02*
X18377563Y-21074710D01*
X18377563Y-21074710D02*
X18396611Y-21065186D01*
X18396611Y-21065186D02*
X18425182Y-21065186D01*
X18425182Y-21065186D02*
X18444230Y-21074710D01*
X18444230Y-21074710D02*
X18453753Y-21084234D01*
X18453753Y-21084234D02*
X18463277Y-21103281D01*
X18463277Y-21103281D02*
X18463277Y-21160424D01*
X18463277Y-21160424D02*
X18453753Y-21179472D01*
X18453753Y-21179472D02*
X18444230Y-21188996D01*
X18444230Y-21188996D02*
X18425182Y-21198520D01*
X18425182Y-21198520D02*
X18396611Y-21198520D01*
X18577563Y-21198520D02*
X18558515Y-21188996D01*
X18558515Y-21188996D02*
X18548992Y-21169948D01*
X18548992Y-21169948D02*
X18548992Y-20998520D01*
X18729944Y-21188996D02*
X18710896Y-21198520D01*
X18710896Y-21198520D02*
X18672801Y-21198520D01*
X18672801Y-21198520D02*
X18653753Y-21188996D01*
X18653753Y-21188996D02*
X18644230Y-21169948D01*
X18644230Y-21169948D02*
X18644230Y-21093758D01*
X18644230Y-21093758D02*
X18653753Y-21074710D01*
X18653753Y-21074710D02*
X18672801Y-21065186D01*
X18672801Y-21065186D02*
X18710896Y-21065186D01*
X18710896Y-21065186D02*
X18729944Y-21074710D01*
X18729944Y-21074710D02*
X18739468Y-21093758D01*
X18739468Y-21093758D02*
X18739468Y-21112805D01*
X18739468Y-21112805D02*
X18644230Y-21131853D01*
X18815658Y-21188996D02*
X18834706Y-21198520D01*
X18834706Y-21198520D02*
X18872801Y-21198520D01*
X18872801Y-21198520D02*
X18891849Y-21188996D01*
X18891849Y-21188996D02*
X18901373Y-21169948D01*
X18901373Y-21169948D02*
X18901373Y-21160424D01*
X18901373Y-21160424D02*
X18891849Y-21141377D01*
X18891849Y-21141377D02*
X18872801Y-21131853D01*
X18872801Y-21131853D02*
X18844230Y-21131853D01*
X18844230Y-21131853D02*
X18825182Y-21122329D01*
X18825182Y-21122329D02*
X18815658Y-21103281D01*
X18815658Y-21103281D02*
X18815658Y-21093758D01*
X18815658Y-21093758D02*
X18825182Y-21074710D01*
X18825182Y-21074710D02*
X18844230Y-21065186D01*
X18844230Y-21065186D02*
X18872801Y-21065186D01*
X18872801Y-21065186D02*
X18891849Y-21074710D01*
X18968039Y-21274710D02*
X18977563Y-21265186D01*
X18977563Y-21265186D02*
X18996611Y-21236615D01*
X18996611Y-21236615D02*
X19006134Y-21217567D01*
X19006134Y-21217567D02*
X19015658Y-21188996D01*
X19015658Y-21188996D02*
X19025182Y-21141377D01*
X19025182Y-21141377D02*
X19025182Y-21103281D01*
X19025182Y-21103281D02*
X19015658Y-21055662D01*
X19015658Y-21055662D02*
X19006134Y-21027091D01*
X19006134Y-21027091D02*
X18996611Y-21008043D01*
X18996611Y-21008043D02*
X18977563Y-20979472D01*
X18977563Y-20979472D02*
X18968039Y-20969948D01*
X19329944Y-21274710D02*
X19320420Y-21265186D01*
X19320420Y-21265186D02*
X19301373Y-21236615D01*
X19301373Y-21236615D02*
X19291849Y-21217567D01*
X19291849Y-21217567D02*
X19282325Y-21188996D01*
X19282325Y-21188996D02*
X19272801Y-21141377D01*
X19272801Y-21141377D02*
X19272801Y-21103281D01*
X19272801Y-21103281D02*
X19282325Y-21055662D01*
X19282325Y-21055662D02*
X19291849Y-21027091D01*
X19291849Y-21027091D02*
X19301373Y-21008043D01*
X19301373Y-21008043D02*
X19320420Y-20979472D01*
X19320420Y-20979472D02*
X19329944Y-20969948D01*
X19406134Y-21065186D02*
X19406134Y-21198520D01*
X19406134Y-21084234D02*
X19415658Y-21074710D01*
X19415658Y-21074710D02*
X19434706Y-21065186D01*
X19434706Y-21065186D02*
X19463277Y-21065186D01*
X19463277Y-21065186D02*
X19482325Y-21074710D01*
X19482325Y-21074710D02*
X19491849Y-21093758D01*
X19491849Y-21093758D02*
X19491849Y-21198520D01*
X19615658Y-21198520D02*
X19596611Y-21188996D01*
X19596611Y-21188996D02*
X19587087Y-21179472D01*
X19587087Y-21179472D02*
X19577563Y-21160424D01*
X19577563Y-21160424D02*
X19577563Y-21103281D01*
X19577563Y-21103281D02*
X19587087Y-21084234D01*
X19587087Y-21084234D02*
X19596611Y-21074710D01*
X19596611Y-21074710D02*
X19615658Y-21065186D01*
X19615658Y-21065186D02*
X19644230Y-21065186D01*
X19644230Y-21065186D02*
X19663277Y-21074710D01*
X19663277Y-21074710D02*
X19672801Y-21084234D01*
X19672801Y-21084234D02*
X19682325Y-21103281D01*
X19682325Y-21103281D02*
X19682325Y-21160424D01*
X19682325Y-21160424D02*
X19672801Y-21179472D01*
X19672801Y-21179472D02*
X19663277Y-21188996D01*
X19663277Y-21188996D02*
X19644230Y-21198520D01*
X19644230Y-21198520D02*
X19615658Y-21198520D01*
X19739468Y-21065186D02*
X19815658Y-21065186D01*
X19768039Y-20998520D02*
X19768039Y-21169948D01*
X19768039Y-21169948D02*
X19777563Y-21188996D01*
X19777563Y-21188996D02*
X19796611Y-21198520D01*
X19796611Y-21198520D02*
X19815658Y-21198520D01*
X20034706Y-21065186D02*
X20034706Y-21265186D01*
X20034706Y-21074710D02*
X20053754Y-21065186D01*
X20053754Y-21065186D02*
X20091849Y-21065186D01*
X20091849Y-21065186D02*
X20110896Y-21074710D01*
X20110896Y-21074710D02*
X20120420Y-21084234D01*
X20120420Y-21084234D02*
X20129944Y-21103281D01*
X20129944Y-21103281D02*
X20129944Y-21160424D01*
X20129944Y-21160424D02*
X20120420Y-21179472D01*
X20120420Y-21179472D02*
X20110896Y-21188996D01*
X20110896Y-21188996D02*
X20091849Y-21198520D01*
X20091849Y-21198520D02*
X20053754Y-21198520D01*
X20053754Y-21198520D02*
X20034706Y-21188996D01*
X20244230Y-21198520D02*
X20225182Y-21188996D01*
X20225182Y-21188996D02*
X20215658Y-21169948D01*
X20215658Y-21169948D02*
X20215658Y-20998520D01*
X20406135Y-21198520D02*
X20406135Y-21093758D01*
X20406135Y-21093758D02*
X20396611Y-21074710D01*
X20396611Y-21074710D02*
X20377563Y-21065186D01*
X20377563Y-21065186D02*
X20339468Y-21065186D01*
X20339468Y-21065186D02*
X20320420Y-21074710D01*
X20406135Y-21188996D02*
X20387087Y-21198520D01*
X20387087Y-21198520D02*
X20339468Y-21198520D01*
X20339468Y-21198520D02*
X20320420Y-21188996D01*
X20320420Y-21188996D02*
X20310896Y-21169948D01*
X20310896Y-21169948D02*
X20310896Y-21150900D01*
X20310896Y-21150900D02*
X20320420Y-21131853D01*
X20320420Y-21131853D02*
X20339468Y-21122329D01*
X20339468Y-21122329D02*
X20387087Y-21122329D01*
X20387087Y-21122329D02*
X20406135Y-21112805D01*
X20472801Y-21065186D02*
X20548992Y-21065186D01*
X20501373Y-20998520D02*
X20501373Y-21169948D01*
X20501373Y-21169948D02*
X20510896Y-21188996D01*
X20510896Y-21188996D02*
X20529944Y-21198520D01*
X20529944Y-21198520D02*
X20548992Y-21198520D01*
X20691849Y-21188996D02*
X20672801Y-21198520D01*
X20672801Y-21198520D02*
X20634706Y-21198520D01*
X20634706Y-21198520D02*
X20615658Y-21188996D01*
X20615658Y-21188996D02*
X20606135Y-21169948D01*
X20606135Y-21169948D02*
X20606135Y-21093758D01*
X20606135Y-21093758D02*
X20615658Y-21074710D01*
X20615658Y-21074710D02*
X20634706Y-21065186D01*
X20634706Y-21065186D02*
X20672801Y-21065186D01*
X20672801Y-21065186D02*
X20691849Y-21074710D01*
X20691849Y-21074710D02*
X20701373Y-21093758D01*
X20701373Y-21093758D02*
X20701373Y-21112805D01*
X20701373Y-21112805D02*
X20606135Y-21131853D01*
X20872801Y-21198520D02*
X20872801Y-20998520D01*
X20872801Y-21188996D02*
X20853754Y-21198520D01*
X20853754Y-21198520D02*
X20815658Y-21198520D01*
X20815658Y-21198520D02*
X20796611Y-21188996D01*
X20796611Y-21188996D02*
X20787087Y-21179472D01*
X20787087Y-21179472D02*
X20777563Y-21160424D01*
X20777563Y-21160424D02*
X20777563Y-21103281D01*
X20777563Y-21103281D02*
X20787087Y-21084234D01*
X20787087Y-21084234D02*
X20796611Y-21074710D01*
X20796611Y-21074710D02*
X20815658Y-21065186D01*
X20815658Y-21065186D02*
X20853754Y-21065186D01*
X20853754Y-21065186D02*
X20872801Y-21074710D01*
X20948992Y-21274710D02*
X20958516Y-21265186D01*
X20958516Y-21265186D02*
X20977563Y-21236615D01*
X20977563Y-21236615D02*
X20987087Y-21217567D01*
X20987087Y-21217567D02*
X20996611Y-21188996D01*
X20996611Y-21188996D02*
X21006135Y-21141377D01*
X21006135Y-21141377D02*
X21006135Y-21103281D01*
X21006135Y-21103281D02*
X20996611Y-21055662D01*
X20996611Y-21055662D02*
X20987087Y-21027091D01*
X20987087Y-21027091D02*
X20977563Y-21008043D01*
X20977563Y-21008043D02*
X20958516Y-20979472D01*
X20958516Y-20979472D02*
X20948992Y-20969948D01*
M02*
