G04 #@! TF.GenerationSoftware,KiCad,Pcbnew,7.0.7*
G04 #@! TF.CreationDate,2023-09-27T23:26:32-04:00*
G04 #@! TF.ProjectId,keybear-chocolate,6b657962-6561-4722-9d63-686f636f6c61,v1.0.0*
G04 #@! TF.SameCoordinates,Original*
G04 #@! TF.FileFunction,Legend,Bot*
G04 #@! TF.FilePolarity,Positive*
%FSLAX46Y46*%
G04 Gerber Fmt 4.6, Leading zero omitted, Abs format (unit mm)*
G04 Created by KiCad (PCBNEW 7.0.7) date 2023-09-27 23:26:32*
%MOMM*%
%LPD*%
G01*
G04 APERTURE LIST*
G04 Aperture macros list*
%AMRoundRect*
0 Rectangle with rounded corners*
0 $1 Rounding radius*
0 $2 $3 $4 $5 $6 $7 $8 $9 X,Y pos of 4 corners*
0 Add a 4 corners polygon primitive as box body*
4,1,4,$2,$3,$4,$5,$6,$7,$8,$9,$2,$3,0*
0 Add four circle primitives for the rounded corners*
1,1,$1+$1,$2,$3*
1,1,$1+$1,$4,$5*
1,1,$1+$1,$6,$7*
1,1,$1+$1,$8,$9*
0 Add four rect primitives between the rounded corners*
20,1,$1+$1,$2,$3,$4,$5,0*
20,1,$1+$1,$4,$5,$6,$7,0*
20,1,$1+$1,$6,$7,$8,$9,0*
20,1,$1+$1,$8,$9,$2,$3,0*%
G04 Aperture macros list end*
%ADD10C,0.150000*%
%ADD11C,0.100000*%
%ADD12C,0.125000*%
%ADD13C,0.300000*%
%ADD14C,0.120000*%
%ADD15C,1.900000*%
%ADD16C,1.100000*%
%ADD17C,3.100000*%
%ADD18C,3.500000*%
%ADD19RoundRect,0.050000X0.800000X1.100000X-0.800000X1.100000X-0.800000X-1.100000X0.800000X-1.100000X0*%
%ADD20RoundRect,0.050000X-0.475000X0.650000X-0.475000X-0.650000X0.475000X-0.650000X0.475000X0.650000X0*%
%ADD21RoundRect,0.050000X-0.690000X-0.500000X0.690000X-0.500000X0.690000X0.500000X-0.690000X0.500000X0*%
%ADD22C,4.800000*%
%ADD23C,1.497000*%
%ADD24RoundRect,0.050000X0.233852X-0.819398X0.705840X0.477378X-0.233852X0.819398X-0.705840X-0.477378X0*%
%ADD25C,2.100000*%
%ADD26RoundRect,0.050000X-1.600000X-1.000000X1.600000X-1.000000X1.600000X1.000000X-1.600000X1.000000X0*%
%ADD27RoundRect,0.050000X1.250000X-1.500000X1.250000X1.500000X-1.250000X1.500000X-1.250000X-1.500000X0*%
%ADD28C,1.624000*%
%ADD29C,1.300000*%
%ADD30O,1.800000X2.600000*%
%ADD31RoundRect,0.050000X-0.760046X1.127976X-1.307278X-0.375532X0.760046X-1.127976X1.307278X0.375532X0*%
%ADD32RoundRect,0.050000X-0.730952X-0.437960X0.643796X-0.558235X0.730952X0.437960X-0.643796X0.558235X0*%
%ADD33RoundRect,0.050000X-0.773260X-0.224041X0.448341X-0.668667X0.773260X0.224041X-0.448341X0.668667X0*%
%ADD34RoundRect,0.050000X0.995192X0.927143X-0.575412X1.232437X-0.995192X-0.927143X0.575412X-1.232437X0*%
%ADD35RoundRect,0.050000X-0.772727X-0.359155X0.581918X-0.622472X0.772727X0.359155X-0.581918X0.622472X0*%
%ADD36RoundRect,0.050000X-0.650000X-0.475000X0.650000X-0.475000X0.650000X0.475000X-0.650000X0.475000X0*%
%ADD37RoundRect,0.050000X-0.342247X0.728692X-0.590299X-0.547423X0.342247X-0.728692X0.590299X0.547423X0*%
%ADD38RoundRect,0.050000X-0.762000X-0.762000X0.762000X-0.762000X0.762000X0.762000X-0.762000X0.762000X0*%
%ADD39RoundRect,0.050000X0.892827X1.026090X-0.701084X1.165539X-0.892827X-1.026090X0.701084X-1.165539X0*%
%ADD40RoundRect,0.050000X-0.416541X0.688926X-0.529844X-0.606128X0.416541X-0.688926X0.529844X0.606128X0*%
%ADD41RoundRect,0.050000X-0.571500X0.317500X-0.571500X-0.317500X0.571500X-0.317500X0.571500X0.317500X0*%
%ADD42RoundRect,0.050000X-0.523487X-0.368730X0.474648X-0.429778X0.523487X0.368730X-0.474648X0.429778X0*%
%ADD43C,1.000000*%
%ADD44RoundRect,0.050000X-0.395134X-0.727234X0.303561X-0.769968X0.395134X0.727234X-0.303561X0.769968X0*%
G04 APERTURE END LIST*
D10*
X252520220Y-95119819D02*
X252520220Y-94119819D01*
X251948792Y-95119819D02*
X252377363Y-94548390D01*
X251948792Y-94119819D02*
X252520220Y-94691247D01*
X251139268Y-95072200D02*
X251234506Y-95119819D01*
X251234506Y-95119819D02*
X251424982Y-95119819D01*
X251424982Y-95119819D02*
X251520220Y-95072200D01*
X251520220Y-95072200D02*
X251567839Y-94976961D01*
X251567839Y-94976961D02*
X251567839Y-94596009D01*
X251567839Y-94596009D02*
X251520220Y-94500771D01*
X251520220Y-94500771D02*
X251424982Y-94453152D01*
X251424982Y-94453152D02*
X251234506Y-94453152D01*
X251234506Y-94453152D02*
X251139268Y-94500771D01*
X251139268Y-94500771D02*
X251091649Y-94596009D01*
X251091649Y-94596009D02*
X251091649Y-94691247D01*
X251091649Y-94691247D02*
X251567839Y-94786485D01*
X250758315Y-94453152D02*
X250520220Y-95119819D01*
X250282125Y-94453152D02*
X250520220Y-95119819D01*
X250520220Y-95119819D02*
X250615458Y-95357914D01*
X250615458Y-95357914D02*
X250663077Y-95405533D01*
X250663077Y-95405533D02*
X250758315Y-95453152D01*
X249901172Y-95119819D02*
X249901172Y-94119819D01*
X249901172Y-94500771D02*
X249805934Y-94453152D01*
X249805934Y-94453152D02*
X249615458Y-94453152D01*
X249615458Y-94453152D02*
X249520220Y-94500771D01*
X249520220Y-94500771D02*
X249472601Y-94548390D01*
X249472601Y-94548390D02*
X249424982Y-94643628D01*
X249424982Y-94643628D02*
X249424982Y-94929342D01*
X249424982Y-94929342D02*
X249472601Y-95024580D01*
X249472601Y-95024580D02*
X249520220Y-95072200D01*
X249520220Y-95072200D02*
X249615458Y-95119819D01*
X249615458Y-95119819D02*
X249805934Y-95119819D01*
X249805934Y-95119819D02*
X249901172Y-95072200D01*
X248615458Y-95072200D02*
X248710696Y-95119819D01*
X248710696Y-95119819D02*
X248901172Y-95119819D01*
X248901172Y-95119819D02*
X248996410Y-95072200D01*
X248996410Y-95072200D02*
X249044029Y-94976961D01*
X249044029Y-94976961D02*
X249044029Y-94596009D01*
X249044029Y-94596009D02*
X248996410Y-94500771D01*
X248996410Y-94500771D02*
X248901172Y-94453152D01*
X248901172Y-94453152D02*
X248710696Y-94453152D01*
X248710696Y-94453152D02*
X248615458Y-94500771D01*
X248615458Y-94500771D02*
X248567839Y-94596009D01*
X248567839Y-94596009D02*
X248567839Y-94691247D01*
X248567839Y-94691247D02*
X249044029Y-94786485D01*
X247710696Y-95119819D02*
X247710696Y-94596009D01*
X247710696Y-94596009D02*
X247758315Y-94500771D01*
X247758315Y-94500771D02*
X247853553Y-94453152D01*
X247853553Y-94453152D02*
X248044029Y-94453152D01*
X248044029Y-94453152D02*
X248139267Y-94500771D01*
X247710696Y-95072200D02*
X247805934Y-95119819D01*
X247805934Y-95119819D02*
X248044029Y-95119819D01*
X248044029Y-95119819D02*
X248139267Y-95072200D01*
X248139267Y-95072200D02*
X248186886Y-94976961D01*
X248186886Y-94976961D02*
X248186886Y-94881723D01*
X248186886Y-94881723D02*
X248139267Y-94786485D01*
X248139267Y-94786485D02*
X248044029Y-94738866D01*
X248044029Y-94738866D02*
X247805934Y-94738866D01*
X247805934Y-94738866D02*
X247710696Y-94691247D01*
X247234505Y-95119819D02*
X247234505Y-94453152D01*
X247234505Y-94643628D02*
X247186886Y-94548390D01*
X247186886Y-94548390D02*
X247139267Y-94500771D01*
X247139267Y-94500771D02*
X247044029Y-94453152D01*
X247044029Y-94453152D02*
X246948791Y-94453152D01*
X245948790Y-94453152D02*
X245710695Y-95119819D01*
X245710695Y-95119819D02*
X245472600Y-94453152D01*
X244567838Y-95119819D02*
X245139266Y-95119819D01*
X244853552Y-95119819D02*
X244853552Y-94119819D01*
X244853552Y-94119819D02*
X244948790Y-94262676D01*
X244948790Y-94262676D02*
X245044028Y-94357914D01*
X245044028Y-94357914D02*
X245139266Y-94405533D01*
X244139266Y-95024580D02*
X244091647Y-95072200D01*
X244091647Y-95072200D02*
X244139266Y-95119819D01*
X244139266Y-95119819D02*
X244186885Y-95072200D01*
X244186885Y-95072200D02*
X244139266Y-95024580D01*
X244139266Y-95024580D02*
X244139266Y-95119819D01*
X243472600Y-94119819D02*
X243377362Y-94119819D01*
X243377362Y-94119819D02*
X243282124Y-94167438D01*
X243282124Y-94167438D02*
X243234505Y-94215057D01*
X243234505Y-94215057D02*
X243186886Y-94310295D01*
X243186886Y-94310295D02*
X243139267Y-94500771D01*
X243139267Y-94500771D02*
X243139267Y-94738866D01*
X243139267Y-94738866D02*
X243186886Y-94929342D01*
X243186886Y-94929342D02*
X243234505Y-95024580D01*
X243234505Y-95024580D02*
X243282124Y-95072200D01*
X243282124Y-95072200D02*
X243377362Y-95119819D01*
X243377362Y-95119819D02*
X243472600Y-95119819D01*
X243472600Y-95119819D02*
X243567838Y-95072200D01*
X243567838Y-95072200D02*
X243615457Y-95024580D01*
X243615457Y-95024580D02*
X243663076Y-94929342D01*
X243663076Y-94929342D02*
X243710695Y-94738866D01*
X243710695Y-94738866D02*
X243710695Y-94500771D01*
X243710695Y-94500771D02*
X243663076Y-94310295D01*
X243663076Y-94310295D02*
X243615457Y-94215057D01*
X243615457Y-94215057D02*
X243567838Y-94167438D01*
X243567838Y-94167438D02*
X243472600Y-94119819D01*
D11*
X179818838Y-116829493D02*
X179771219Y-116734255D01*
X179771219Y-116734255D02*
X179771219Y-116591398D01*
X179771219Y-116591398D02*
X179818838Y-116448541D01*
X179818838Y-116448541D02*
X179914076Y-116353303D01*
X179914076Y-116353303D02*
X180009314Y-116305684D01*
X180009314Y-116305684D02*
X180199790Y-116258065D01*
X180199790Y-116258065D02*
X180342647Y-116258065D01*
X180342647Y-116258065D02*
X180533123Y-116305684D01*
X180533123Y-116305684D02*
X180628361Y-116353303D01*
X180628361Y-116353303D02*
X180723600Y-116448541D01*
X180723600Y-116448541D02*
X180771219Y-116591398D01*
X180771219Y-116591398D02*
X180771219Y-116686636D01*
X180771219Y-116686636D02*
X180723600Y-116829493D01*
X180723600Y-116829493D02*
X180675980Y-116877112D01*
X180675980Y-116877112D02*
X180342647Y-116877112D01*
X180342647Y-116877112D02*
X180342647Y-116686636D01*
X180771219Y-117305684D02*
X179771219Y-117305684D01*
X179771219Y-117305684D02*
X180771219Y-117877112D01*
X180771219Y-117877112D02*
X179771219Y-117877112D01*
X180771219Y-118353303D02*
X179771219Y-118353303D01*
X179771219Y-118353303D02*
X179771219Y-118591398D01*
X179771219Y-118591398D02*
X179818838Y-118734255D01*
X179818838Y-118734255D02*
X179914076Y-118829493D01*
X179914076Y-118829493D02*
X180009314Y-118877112D01*
X180009314Y-118877112D02*
X180199790Y-118924731D01*
X180199790Y-118924731D02*
X180342647Y-118924731D01*
X180342647Y-118924731D02*
X180533123Y-118877112D01*
X180533123Y-118877112D02*
X180628361Y-118829493D01*
X180628361Y-118829493D02*
X180723600Y-118734255D01*
X180723600Y-118734255D02*
X180771219Y-118591398D01*
X180771219Y-118591398D02*
X180771219Y-118353303D01*
X184495619Y-116264427D02*
X185495619Y-116597760D01*
X185495619Y-116597760D02*
X184495619Y-116931093D01*
X185400380Y-117835855D02*
X185448000Y-117788236D01*
X185448000Y-117788236D02*
X185495619Y-117645379D01*
X185495619Y-117645379D02*
X185495619Y-117550141D01*
X185495619Y-117550141D02*
X185448000Y-117407284D01*
X185448000Y-117407284D02*
X185352761Y-117312046D01*
X185352761Y-117312046D02*
X185257523Y-117264427D01*
X185257523Y-117264427D02*
X185067047Y-117216808D01*
X185067047Y-117216808D02*
X184924190Y-117216808D01*
X184924190Y-117216808D02*
X184733714Y-117264427D01*
X184733714Y-117264427D02*
X184638476Y-117312046D01*
X184638476Y-117312046D02*
X184543238Y-117407284D01*
X184543238Y-117407284D02*
X184495619Y-117550141D01*
X184495619Y-117550141D02*
X184495619Y-117645379D01*
X184495619Y-117645379D02*
X184543238Y-117788236D01*
X184543238Y-117788236D02*
X184590857Y-117835855D01*
X185400380Y-118835855D02*
X185448000Y-118788236D01*
X185448000Y-118788236D02*
X185495619Y-118645379D01*
X185495619Y-118645379D02*
X185495619Y-118550141D01*
X185495619Y-118550141D02*
X185448000Y-118407284D01*
X185448000Y-118407284D02*
X185352761Y-118312046D01*
X185352761Y-118312046D02*
X185257523Y-118264427D01*
X185257523Y-118264427D02*
X185067047Y-118216808D01*
X185067047Y-118216808D02*
X184924190Y-118216808D01*
X184924190Y-118216808D02*
X184733714Y-118264427D01*
X184733714Y-118264427D02*
X184638476Y-118312046D01*
X184638476Y-118312046D02*
X184543238Y-118407284D01*
X184543238Y-118407284D02*
X184495619Y-118550141D01*
X184495619Y-118550141D02*
X184495619Y-118645379D01*
X184495619Y-118645379D02*
X184543238Y-118788236D01*
X184543238Y-118788236D02*
X184590857Y-118835855D01*
D12*
X262367619Y-112993835D02*
X262391428Y-113029550D01*
X262391428Y-113029550D02*
X262462857Y-113065264D01*
X262462857Y-113065264D02*
X262510476Y-113065264D01*
X262510476Y-113065264D02*
X262581904Y-113029550D01*
X262581904Y-113029550D02*
X262629523Y-112958121D01*
X262629523Y-112958121D02*
X262653333Y-112886692D01*
X262653333Y-112886692D02*
X262677142Y-112743835D01*
X262677142Y-112743835D02*
X262677142Y-112636692D01*
X262677142Y-112636692D02*
X262653333Y-112493835D01*
X262653333Y-112493835D02*
X262629523Y-112422407D01*
X262629523Y-112422407D02*
X262581904Y-112350978D01*
X262581904Y-112350978D02*
X262510476Y-112315264D01*
X262510476Y-112315264D02*
X262462857Y-112315264D01*
X262462857Y-112315264D02*
X262391428Y-112350978D01*
X262391428Y-112350978D02*
X262367619Y-112386692D01*
X262058095Y-112315264D02*
X261962857Y-112315264D01*
X261962857Y-112315264D02*
X261915238Y-112350978D01*
X261915238Y-112350978D02*
X261867619Y-112422407D01*
X261867619Y-112422407D02*
X261843809Y-112565264D01*
X261843809Y-112565264D02*
X261843809Y-112815264D01*
X261843809Y-112815264D02*
X261867619Y-112958121D01*
X261867619Y-112958121D02*
X261915238Y-113029550D01*
X261915238Y-113029550D02*
X261962857Y-113065264D01*
X261962857Y-113065264D02*
X262058095Y-113065264D01*
X262058095Y-113065264D02*
X262105714Y-113029550D01*
X262105714Y-113029550D02*
X262153333Y-112958121D01*
X262153333Y-112958121D02*
X262177142Y-112815264D01*
X262177142Y-112815264D02*
X262177142Y-112565264D01*
X262177142Y-112565264D02*
X262153333Y-112422407D01*
X262153333Y-112422407D02*
X262105714Y-112350978D01*
X262105714Y-112350978D02*
X262058095Y-112315264D01*
X261391428Y-113065264D02*
X261629523Y-113065264D01*
X261629523Y-113065264D02*
X261629523Y-112315264D01*
X260962856Y-113065264D02*
X261248570Y-113065264D01*
X261105713Y-113065264D02*
X261105713Y-112315264D01*
X261105713Y-112315264D02*
X261153332Y-112422407D01*
X261153332Y-112422407D02*
X261200951Y-112493835D01*
X261200951Y-112493835D02*
X261248570Y-112529550D01*
X272841141Y-110476750D02*
X272769713Y-110512464D01*
X272769713Y-110512464D02*
X272650665Y-110512464D01*
X272650665Y-110512464D02*
X272603046Y-110476750D01*
X272603046Y-110476750D02*
X272579237Y-110441035D01*
X272579237Y-110441035D02*
X272555427Y-110369607D01*
X272555427Y-110369607D02*
X272555427Y-110298178D01*
X272555427Y-110298178D02*
X272579237Y-110226750D01*
X272579237Y-110226750D02*
X272603046Y-110191035D01*
X272603046Y-110191035D02*
X272650665Y-110155321D01*
X272650665Y-110155321D02*
X272745903Y-110119607D01*
X272745903Y-110119607D02*
X272793522Y-110083892D01*
X272793522Y-110083892D02*
X272817332Y-110048178D01*
X272817332Y-110048178D02*
X272841141Y-109976750D01*
X272841141Y-109976750D02*
X272841141Y-109905321D01*
X272841141Y-109905321D02*
X272817332Y-109833892D01*
X272817332Y-109833892D02*
X272793522Y-109798178D01*
X272793522Y-109798178D02*
X272745903Y-109762464D01*
X272745903Y-109762464D02*
X272626856Y-109762464D01*
X272626856Y-109762464D02*
X272555427Y-109798178D01*
X272341142Y-110512464D02*
X272341142Y-109762464D01*
X272341142Y-109762464D02*
X272222094Y-109762464D01*
X272222094Y-109762464D02*
X272150666Y-109798178D01*
X272150666Y-109798178D02*
X272103047Y-109869607D01*
X272103047Y-109869607D02*
X272079237Y-109941035D01*
X272079237Y-109941035D02*
X272055428Y-110083892D01*
X272055428Y-110083892D02*
X272055428Y-110191035D01*
X272055428Y-110191035D02*
X272079237Y-110333892D01*
X272079237Y-110333892D02*
X272103047Y-110405321D01*
X272103047Y-110405321D02*
X272150666Y-110476750D01*
X272150666Y-110476750D02*
X272222094Y-110512464D01*
X272222094Y-110512464D02*
X272341142Y-110512464D01*
X271864951Y-110298178D02*
X271626856Y-110298178D01*
X271912570Y-110512464D02*
X271745904Y-109762464D01*
X271745904Y-109762464D02*
X271579237Y-110512464D01*
X261911238Y-100352464D02*
X262077904Y-99995321D01*
X262196952Y-100352464D02*
X262196952Y-99602464D01*
X262196952Y-99602464D02*
X262006476Y-99602464D01*
X262006476Y-99602464D02*
X261958857Y-99638178D01*
X261958857Y-99638178D02*
X261935047Y-99673892D01*
X261935047Y-99673892D02*
X261911238Y-99745321D01*
X261911238Y-99745321D02*
X261911238Y-99852464D01*
X261911238Y-99852464D02*
X261935047Y-99923892D01*
X261935047Y-99923892D02*
X261958857Y-99959607D01*
X261958857Y-99959607D02*
X262006476Y-99995321D01*
X262006476Y-99995321D02*
X262196952Y-99995321D01*
X261720761Y-100138178D02*
X261482666Y-100138178D01*
X261768380Y-100352464D02*
X261601714Y-99602464D01*
X261601714Y-99602464D02*
X261435047Y-100352464D01*
X261316000Y-99602464D02*
X261196952Y-100352464D01*
X261196952Y-100352464D02*
X261101714Y-99816750D01*
X261101714Y-99816750D02*
X261006476Y-100352464D01*
X261006476Y-100352464D02*
X260887429Y-99602464D01*
X272610952Y-125752464D02*
X272777618Y-125395321D01*
X272896666Y-125752464D02*
X272896666Y-125002464D01*
X272896666Y-125002464D02*
X272706190Y-125002464D01*
X272706190Y-125002464D02*
X272658571Y-125038178D01*
X272658571Y-125038178D02*
X272634761Y-125073892D01*
X272634761Y-125073892D02*
X272610952Y-125145321D01*
X272610952Y-125145321D02*
X272610952Y-125252464D01*
X272610952Y-125252464D02*
X272634761Y-125323892D01*
X272634761Y-125323892D02*
X272658571Y-125359607D01*
X272658571Y-125359607D02*
X272706190Y-125395321D01*
X272706190Y-125395321D02*
X272896666Y-125395321D01*
X272301428Y-125002464D02*
X272206190Y-125002464D01*
X272206190Y-125002464D02*
X272158571Y-125038178D01*
X272158571Y-125038178D02*
X272110952Y-125109607D01*
X272110952Y-125109607D02*
X272087142Y-125252464D01*
X272087142Y-125252464D02*
X272087142Y-125502464D01*
X272087142Y-125502464D02*
X272110952Y-125645321D01*
X272110952Y-125645321D02*
X272158571Y-125716750D01*
X272158571Y-125716750D02*
X272206190Y-125752464D01*
X272206190Y-125752464D02*
X272301428Y-125752464D01*
X272301428Y-125752464D02*
X272349047Y-125716750D01*
X272349047Y-125716750D02*
X272396666Y-125645321D01*
X272396666Y-125645321D02*
X272420475Y-125502464D01*
X272420475Y-125502464D02*
X272420475Y-125252464D01*
X272420475Y-125252464D02*
X272396666Y-125109607D01*
X272396666Y-125109607D02*
X272349047Y-125038178D01*
X272349047Y-125038178D02*
X272301428Y-125002464D01*
X271920475Y-125002464D02*
X271801427Y-125752464D01*
X271801427Y-125752464D02*
X271706189Y-125216750D01*
X271706189Y-125216750D02*
X271610951Y-125752464D01*
X271610951Y-125752464D02*
X271491904Y-125002464D01*
X271349046Y-125002464D02*
X271039522Y-125002464D01*
X271039522Y-125002464D02*
X271206189Y-125288178D01*
X271206189Y-125288178D02*
X271134760Y-125288178D01*
X271134760Y-125288178D02*
X271087141Y-125323892D01*
X271087141Y-125323892D02*
X271063332Y-125359607D01*
X271063332Y-125359607D02*
X271039522Y-125431035D01*
X271039522Y-125431035D02*
X271039522Y-125609607D01*
X271039522Y-125609607D02*
X271063332Y-125681035D01*
X271063332Y-125681035D02*
X271087141Y-125716750D01*
X271087141Y-125716750D02*
X271134760Y-125752464D01*
X271134760Y-125752464D02*
X271277617Y-125752464D01*
X271277617Y-125752464D02*
X271325236Y-125716750D01*
X271325236Y-125716750D02*
X271349046Y-125681035D01*
X261789009Y-105381664D02*
X261955675Y-105024521D01*
X262074723Y-105381664D02*
X262074723Y-104631664D01*
X262074723Y-104631664D02*
X261884247Y-104631664D01*
X261884247Y-104631664D02*
X261836628Y-104667378D01*
X261836628Y-104667378D02*
X261812818Y-104703092D01*
X261812818Y-104703092D02*
X261789009Y-104774521D01*
X261789009Y-104774521D02*
X261789009Y-104881664D01*
X261789009Y-104881664D02*
X261812818Y-104953092D01*
X261812818Y-104953092D02*
X261836628Y-104988807D01*
X261836628Y-104988807D02*
X261884247Y-105024521D01*
X261884247Y-105024521D02*
X262074723Y-105024521D01*
X261598532Y-105345950D02*
X261527104Y-105381664D01*
X261527104Y-105381664D02*
X261408056Y-105381664D01*
X261408056Y-105381664D02*
X261360437Y-105345950D01*
X261360437Y-105345950D02*
X261336628Y-105310235D01*
X261336628Y-105310235D02*
X261312818Y-105238807D01*
X261312818Y-105238807D02*
X261312818Y-105167378D01*
X261312818Y-105167378D02*
X261336628Y-105095950D01*
X261336628Y-105095950D02*
X261360437Y-105060235D01*
X261360437Y-105060235D02*
X261408056Y-105024521D01*
X261408056Y-105024521D02*
X261503294Y-104988807D01*
X261503294Y-104988807D02*
X261550913Y-104953092D01*
X261550913Y-104953092D02*
X261574723Y-104917378D01*
X261574723Y-104917378D02*
X261598532Y-104845950D01*
X261598532Y-104845950D02*
X261598532Y-104774521D01*
X261598532Y-104774521D02*
X261574723Y-104703092D01*
X261574723Y-104703092D02*
X261550913Y-104667378D01*
X261550913Y-104667378D02*
X261503294Y-104631664D01*
X261503294Y-104631664D02*
X261384247Y-104631664D01*
X261384247Y-104631664D02*
X261312818Y-104667378D01*
X261169961Y-104631664D02*
X260884247Y-104631664D01*
X261027104Y-105381664D02*
X261027104Y-104631664D01*
X262367619Y-115521035D02*
X262391428Y-115556750D01*
X262391428Y-115556750D02*
X262462857Y-115592464D01*
X262462857Y-115592464D02*
X262510476Y-115592464D01*
X262510476Y-115592464D02*
X262581904Y-115556750D01*
X262581904Y-115556750D02*
X262629523Y-115485321D01*
X262629523Y-115485321D02*
X262653333Y-115413892D01*
X262653333Y-115413892D02*
X262677142Y-115271035D01*
X262677142Y-115271035D02*
X262677142Y-115163892D01*
X262677142Y-115163892D02*
X262653333Y-115021035D01*
X262653333Y-115021035D02*
X262629523Y-114949607D01*
X262629523Y-114949607D02*
X262581904Y-114878178D01*
X262581904Y-114878178D02*
X262510476Y-114842464D01*
X262510476Y-114842464D02*
X262462857Y-114842464D01*
X262462857Y-114842464D02*
X262391428Y-114878178D01*
X262391428Y-114878178D02*
X262367619Y-114913892D01*
X262058095Y-114842464D02*
X261962857Y-114842464D01*
X261962857Y-114842464D02*
X261915238Y-114878178D01*
X261915238Y-114878178D02*
X261867619Y-114949607D01*
X261867619Y-114949607D02*
X261843809Y-115092464D01*
X261843809Y-115092464D02*
X261843809Y-115342464D01*
X261843809Y-115342464D02*
X261867619Y-115485321D01*
X261867619Y-115485321D02*
X261915238Y-115556750D01*
X261915238Y-115556750D02*
X261962857Y-115592464D01*
X261962857Y-115592464D02*
X262058095Y-115592464D01*
X262058095Y-115592464D02*
X262105714Y-115556750D01*
X262105714Y-115556750D02*
X262153333Y-115485321D01*
X262153333Y-115485321D02*
X262177142Y-115342464D01*
X262177142Y-115342464D02*
X262177142Y-115092464D01*
X262177142Y-115092464D02*
X262153333Y-114949607D01*
X262153333Y-114949607D02*
X262105714Y-114878178D01*
X262105714Y-114878178D02*
X262058095Y-114842464D01*
X261391428Y-115592464D02*
X261629523Y-115592464D01*
X261629523Y-115592464D02*
X261629523Y-114842464D01*
X261248570Y-114913892D02*
X261224761Y-114878178D01*
X261224761Y-114878178D02*
X261177142Y-114842464D01*
X261177142Y-114842464D02*
X261058094Y-114842464D01*
X261058094Y-114842464D02*
X261010475Y-114878178D01*
X261010475Y-114878178D02*
X260986666Y-114913892D01*
X260986666Y-114913892D02*
X260962856Y-114985321D01*
X260962856Y-114985321D02*
X260962856Y-115056750D01*
X260962856Y-115056750D02*
X260986666Y-115163892D01*
X260986666Y-115163892D02*
X261272380Y-115592464D01*
X261272380Y-115592464D02*
X260962856Y-115592464D01*
X262653333Y-125400407D02*
X262486666Y-125400407D01*
X262415238Y-125793264D02*
X262653333Y-125793264D01*
X262653333Y-125793264D02*
X262653333Y-125043264D01*
X262653333Y-125043264D02*
X262415238Y-125043264D01*
X262200952Y-125793264D02*
X262200952Y-125043264D01*
X262200952Y-125043264D02*
X261915238Y-125793264D01*
X261915238Y-125793264D02*
X261915238Y-125043264D01*
X261391428Y-125721835D02*
X261415237Y-125757550D01*
X261415237Y-125757550D02*
X261486666Y-125793264D01*
X261486666Y-125793264D02*
X261534285Y-125793264D01*
X261534285Y-125793264D02*
X261605713Y-125757550D01*
X261605713Y-125757550D02*
X261653332Y-125686121D01*
X261653332Y-125686121D02*
X261677142Y-125614692D01*
X261677142Y-125614692D02*
X261700951Y-125471835D01*
X261700951Y-125471835D02*
X261700951Y-125364692D01*
X261700951Y-125364692D02*
X261677142Y-125221835D01*
X261677142Y-125221835D02*
X261653332Y-125150407D01*
X261653332Y-125150407D02*
X261605713Y-125078978D01*
X261605713Y-125078978D02*
X261534285Y-125043264D01*
X261534285Y-125043264D02*
X261486666Y-125043264D01*
X261486666Y-125043264D02*
X261415237Y-125078978D01*
X261415237Y-125078978D02*
X261391428Y-125114692D01*
X261200951Y-125578978D02*
X260962856Y-125578978D01*
X261248570Y-125793264D02*
X261081904Y-125043264D01*
X261081904Y-125043264D02*
X260915237Y-125793264D01*
X272614952Y-107258178D02*
X272662571Y-107222464D01*
X272662571Y-107222464D02*
X272734000Y-107222464D01*
X272734000Y-107222464D02*
X272805428Y-107258178D01*
X272805428Y-107258178D02*
X272853047Y-107329607D01*
X272853047Y-107329607D02*
X272876857Y-107401035D01*
X272876857Y-107401035D02*
X272900666Y-107543892D01*
X272900666Y-107543892D02*
X272900666Y-107651035D01*
X272900666Y-107651035D02*
X272876857Y-107793892D01*
X272876857Y-107793892D02*
X272853047Y-107865321D01*
X272853047Y-107865321D02*
X272805428Y-107936750D01*
X272805428Y-107936750D02*
X272734000Y-107972464D01*
X272734000Y-107972464D02*
X272686381Y-107972464D01*
X272686381Y-107972464D02*
X272614952Y-107936750D01*
X272614952Y-107936750D02*
X272591143Y-107901035D01*
X272591143Y-107901035D02*
X272591143Y-107651035D01*
X272591143Y-107651035D02*
X272686381Y-107651035D01*
X272376857Y-107972464D02*
X272376857Y-107222464D01*
X272376857Y-107222464D02*
X272091143Y-107972464D01*
X272091143Y-107972464D02*
X272091143Y-107222464D01*
X271853047Y-107972464D02*
X271853047Y-107222464D01*
X271853047Y-107222464D02*
X271733999Y-107222464D01*
X271733999Y-107222464D02*
X271662571Y-107258178D01*
X271662571Y-107258178D02*
X271614952Y-107329607D01*
X271614952Y-107329607D02*
X271591142Y-107401035D01*
X271591142Y-107401035D02*
X271567333Y-107543892D01*
X271567333Y-107543892D02*
X271567333Y-107651035D01*
X271567333Y-107651035D02*
X271591142Y-107793892D01*
X271591142Y-107793892D02*
X271614952Y-107865321D01*
X271614952Y-107865321D02*
X271662571Y-107936750D01*
X271662571Y-107936750D02*
X271733999Y-107972464D01*
X271733999Y-107972464D02*
X271853047Y-107972464D01*
X262367619Y-118121835D02*
X262391428Y-118157550D01*
X262391428Y-118157550D02*
X262462857Y-118193264D01*
X262462857Y-118193264D02*
X262510476Y-118193264D01*
X262510476Y-118193264D02*
X262581904Y-118157550D01*
X262581904Y-118157550D02*
X262629523Y-118086121D01*
X262629523Y-118086121D02*
X262653333Y-118014692D01*
X262653333Y-118014692D02*
X262677142Y-117871835D01*
X262677142Y-117871835D02*
X262677142Y-117764692D01*
X262677142Y-117764692D02*
X262653333Y-117621835D01*
X262653333Y-117621835D02*
X262629523Y-117550407D01*
X262629523Y-117550407D02*
X262581904Y-117478978D01*
X262581904Y-117478978D02*
X262510476Y-117443264D01*
X262510476Y-117443264D02*
X262462857Y-117443264D01*
X262462857Y-117443264D02*
X262391428Y-117478978D01*
X262391428Y-117478978D02*
X262367619Y-117514692D01*
X262058095Y-117443264D02*
X261962857Y-117443264D01*
X261962857Y-117443264D02*
X261915238Y-117478978D01*
X261915238Y-117478978D02*
X261867619Y-117550407D01*
X261867619Y-117550407D02*
X261843809Y-117693264D01*
X261843809Y-117693264D02*
X261843809Y-117943264D01*
X261843809Y-117943264D02*
X261867619Y-118086121D01*
X261867619Y-118086121D02*
X261915238Y-118157550D01*
X261915238Y-118157550D02*
X261962857Y-118193264D01*
X261962857Y-118193264D02*
X262058095Y-118193264D01*
X262058095Y-118193264D02*
X262105714Y-118157550D01*
X262105714Y-118157550D02*
X262153333Y-118086121D01*
X262153333Y-118086121D02*
X262177142Y-117943264D01*
X262177142Y-117943264D02*
X262177142Y-117693264D01*
X262177142Y-117693264D02*
X262153333Y-117550407D01*
X262153333Y-117550407D02*
X262105714Y-117478978D01*
X262105714Y-117478978D02*
X262058095Y-117443264D01*
X261391428Y-118193264D02*
X261629523Y-118193264D01*
X261629523Y-118193264D02*
X261629523Y-117443264D01*
X261272380Y-117443264D02*
X260962856Y-117443264D01*
X260962856Y-117443264D02*
X261129523Y-117728978D01*
X261129523Y-117728978D02*
X261058094Y-117728978D01*
X261058094Y-117728978D02*
X261010475Y-117764692D01*
X261010475Y-117764692D02*
X260986666Y-117800407D01*
X260986666Y-117800407D02*
X260962856Y-117871835D01*
X260962856Y-117871835D02*
X260962856Y-118050407D01*
X260962856Y-118050407D02*
X260986666Y-118121835D01*
X260986666Y-118121835D02*
X261010475Y-118157550D01*
X261010475Y-118157550D02*
X261058094Y-118193264D01*
X261058094Y-118193264D02*
X261200951Y-118193264D01*
X261200951Y-118193264D02*
X261248570Y-118157550D01*
X261248570Y-118157550D02*
X261272380Y-118121835D01*
X262232665Y-107235264D02*
X262065999Y-107985264D01*
X262065999Y-107985264D02*
X261899332Y-107235264D01*
X261446952Y-107913835D02*
X261470761Y-107949550D01*
X261470761Y-107949550D02*
X261542190Y-107985264D01*
X261542190Y-107985264D02*
X261589809Y-107985264D01*
X261589809Y-107985264D02*
X261661237Y-107949550D01*
X261661237Y-107949550D02*
X261708856Y-107878121D01*
X261708856Y-107878121D02*
X261732666Y-107806692D01*
X261732666Y-107806692D02*
X261756475Y-107663835D01*
X261756475Y-107663835D02*
X261756475Y-107556692D01*
X261756475Y-107556692D02*
X261732666Y-107413835D01*
X261732666Y-107413835D02*
X261708856Y-107342407D01*
X261708856Y-107342407D02*
X261661237Y-107270978D01*
X261661237Y-107270978D02*
X261589809Y-107235264D01*
X261589809Y-107235264D02*
X261542190Y-107235264D01*
X261542190Y-107235264D02*
X261470761Y-107270978D01*
X261470761Y-107270978D02*
X261446952Y-107306692D01*
X260946952Y-107913835D02*
X260970761Y-107949550D01*
X260970761Y-107949550D02*
X261042190Y-107985264D01*
X261042190Y-107985264D02*
X261089809Y-107985264D01*
X261089809Y-107985264D02*
X261161237Y-107949550D01*
X261161237Y-107949550D02*
X261208856Y-107878121D01*
X261208856Y-107878121D02*
X261232666Y-107806692D01*
X261232666Y-107806692D02*
X261256475Y-107663835D01*
X261256475Y-107663835D02*
X261256475Y-107556692D01*
X261256475Y-107556692D02*
X261232666Y-107413835D01*
X261232666Y-107413835D02*
X261208856Y-107342407D01*
X261208856Y-107342407D02*
X261161237Y-107270978D01*
X261161237Y-107270978D02*
X261089809Y-107235264D01*
X261089809Y-107235264D02*
X261042190Y-107235264D01*
X261042190Y-107235264D02*
X260970761Y-107270978D01*
X260970761Y-107270978D02*
X260946952Y-107306692D01*
X261946952Y-102178178D02*
X261994571Y-102142464D01*
X261994571Y-102142464D02*
X262066000Y-102142464D01*
X262066000Y-102142464D02*
X262137428Y-102178178D01*
X262137428Y-102178178D02*
X262185047Y-102249607D01*
X262185047Y-102249607D02*
X262208857Y-102321035D01*
X262208857Y-102321035D02*
X262232666Y-102463892D01*
X262232666Y-102463892D02*
X262232666Y-102571035D01*
X262232666Y-102571035D02*
X262208857Y-102713892D01*
X262208857Y-102713892D02*
X262185047Y-102785321D01*
X262185047Y-102785321D02*
X262137428Y-102856750D01*
X262137428Y-102856750D02*
X262066000Y-102892464D01*
X262066000Y-102892464D02*
X262018381Y-102892464D01*
X262018381Y-102892464D02*
X261946952Y-102856750D01*
X261946952Y-102856750D02*
X261923143Y-102821035D01*
X261923143Y-102821035D02*
X261923143Y-102571035D01*
X261923143Y-102571035D02*
X262018381Y-102571035D01*
X261708857Y-102892464D02*
X261708857Y-102142464D01*
X261708857Y-102142464D02*
X261423143Y-102892464D01*
X261423143Y-102892464D02*
X261423143Y-102142464D01*
X261185047Y-102892464D02*
X261185047Y-102142464D01*
X261185047Y-102142464D02*
X261065999Y-102142464D01*
X261065999Y-102142464D02*
X260994571Y-102178178D01*
X260994571Y-102178178D02*
X260946952Y-102249607D01*
X260946952Y-102249607D02*
X260923142Y-102321035D01*
X260923142Y-102321035D02*
X260899333Y-102463892D01*
X260899333Y-102463892D02*
X260899333Y-102571035D01*
X260899333Y-102571035D02*
X260923142Y-102713892D01*
X260923142Y-102713892D02*
X260946952Y-102785321D01*
X260946952Y-102785321D02*
X260994571Y-102856750D01*
X260994571Y-102856750D02*
X261065999Y-102892464D01*
X261065999Y-102892464D02*
X261185047Y-102892464D01*
X272829237Y-113016750D02*
X272757809Y-113052464D01*
X272757809Y-113052464D02*
X272638761Y-113052464D01*
X272638761Y-113052464D02*
X272591142Y-113016750D01*
X272591142Y-113016750D02*
X272567333Y-112981035D01*
X272567333Y-112981035D02*
X272543523Y-112909607D01*
X272543523Y-112909607D02*
X272543523Y-112838178D01*
X272543523Y-112838178D02*
X272567333Y-112766750D01*
X272567333Y-112766750D02*
X272591142Y-112731035D01*
X272591142Y-112731035D02*
X272638761Y-112695321D01*
X272638761Y-112695321D02*
X272733999Y-112659607D01*
X272733999Y-112659607D02*
X272781618Y-112623892D01*
X272781618Y-112623892D02*
X272805428Y-112588178D01*
X272805428Y-112588178D02*
X272829237Y-112516750D01*
X272829237Y-112516750D02*
X272829237Y-112445321D01*
X272829237Y-112445321D02*
X272805428Y-112373892D01*
X272805428Y-112373892D02*
X272781618Y-112338178D01*
X272781618Y-112338178D02*
X272733999Y-112302464D01*
X272733999Y-112302464D02*
X272614952Y-112302464D01*
X272614952Y-112302464D02*
X272543523Y-112338178D01*
X272043524Y-112981035D02*
X272067333Y-113016750D01*
X272067333Y-113016750D02*
X272138762Y-113052464D01*
X272138762Y-113052464D02*
X272186381Y-113052464D01*
X272186381Y-113052464D02*
X272257809Y-113016750D01*
X272257809Y-113016750D02*
X272305428Y-112945321D01*
X272305428Y-112945321D02*
X272329238Y-112873892D01*
X272329238Y-112873892D02*
X272353047Y-112731035D01*
X272353047Y-112731035D02*
X272353047Y-112623892D01*
X272353047Y-112623892D02*
X272329238Y-112481035D01*
X272329238Y-112481035D02*
X272305428Y-112409607D01*
X272305428Y-112409607D02*
X272257809Y-112338178D01*
X272257809Y-112338178D02*
X272186381Y-112302464D01*
X272186381Y-112302464D02*
X272138762Y-112302464D01*
X272138762Y-112302464D02*
X272067333Y-112338178D01*
X272067333Y-112338178D02*
X272043524Y-112373892D01*
X271591143Y-113052464D02*
X271829238Y-113052464D01*
X271829238Y-113052464D02*
X271829238Y-112302464D01*
X262689047Y-127899607D02*
X262522380Y-127899607D01*
X262450952Y-128292464D02*
X262689047Y-128292464D01*
X262689047Y-128292464D02*
X262689047Y-127542464D01*
X262689047Y-127542464D02*
X262450952Y-127542464D01*
X262236666Y-128292464D02*
X262236666Y-127542464D01*
X262236666Y-127542464D02*
X261950952Y-128292464D01*
X261950952Y-128292464D02*
X261950952Y-127542464D01*
X261427142Y-128221035D02*
X261450951Y-128256750D01*
X261450951Y-128256750D02*
X261522380Y-128292464D01*
X261522380Y-128292464D02*
X261569999Y-128292464D01*
X261569999Y-128292464D02*
X261641427Y-128256750D01*
X261641427Y-128256750D02*
X261689046Y-128185321D01*
X261689046Y-128185321D02*
X261712856Y-128113892D01*
X261712856Y-128113892D02*
X261736665Y-127971035D01*
X261736665Y-127971035D02*
X261736665Y-127863892D01*
X261736665Y-127863892D02*
X261712856Y-127721035D01*
X261712856Y-127721035D02*
X261689046Y-127649607D01*
X261689046Y-127649607D02*
X261641427Y-127578178D01*
X261641427Y-127578178D02*
X261569999Y-127542464D01*
X261569999Y-127542464D02*
X261522380Y-127542464D01*
X261522380Y-127542464D02*
X261450951Y-127578178D01*
X261450951Y-127578178D02*
X261427142Y-127613892D01*
X261046189Y-127899607D02*
X260974761Y-127935321D01*
X260974761Y-127935321D02*
X260950951Y-127971035D01*
X260950951Y-127971035D02*
X260927142Y-128042464D01*
X260927142Y-128042464D02*
X260927142Y-128149607D01*
X260927142Y-128149607D02*
X260950951Y-128221035D01*
X260950951Y-128221035D02*
X260974761Y-128256750D01*
X260974761Y-128256750D02*
X261022380Y-128292464D01*
X261022380Y-128292464D02*
X261212856Y-128292464D01*
X261212856Y-128292464D02*
X261212856Y-127542464D01*
X261212856Y-127542464D02*
X261046189Y-127542464D01*
X261046189Y-127542464D02*
X260998570Y-127578178D01*
X260998570Y-127578178D02*
X260974761Y-127613892D01*
X260974761Y-127613892D02*
X260950951Y-127685321D01*
X260950951Y-127685321D02*
X260950951Y-127756750D01*
X260950951Y-127756750D02*
X260974761Y-127828178D01*
X260974761Y-127828178D02*
X260998570Y-127863892D01*
X260998570Y-127863892D02*
X261046189Y-127899607D01*
X261046189Y-127899607D02*
X261212856Y-127899607D01*
X272571333Y-115559035D02*
X272595142Y-115594750D01*
X272595142Y-115594750D02*
X272666571Y-115630464D01*
X272666571Y-115630464D02*
X272714190Y-115630464D01*
X272714190Y-115630464D02*
X272785618Y-115594750D01*
X272785618Y-115594750D02*
X272833237Y-115523321D01*
X272833237Y-115523321D02*
X272857047Y-115451892D01*
X272857047Y-115451892D02*
X272880856Y-115309035D01*
X272880856Y-115309035D02*
X272880856Y-115201892D01*
X272880856Y-115201892D02*
X272857047Y-115059035D01*
X272857047Y-115059035D02*
X272833237Y-114987607D01*
X272833237Y-114987607D02*
X272785618Y-114916178D01*
X272785618Y-114916178D02*
X272714190Y-114880464D01*
X272714190Y-114880464D02*
X272666571Y-114880464D01*
X272666571Y-114880464D02*
X272595142Y-114916178D01*
X272595142Y-114916178D02*
X272571333Y-114951892D01*
X272380856Y-115594750D02*
X272309428Y-115630464D01*
X272309428Y-115630464D02*
X272190380Y-115630464D01*
X272190380Y-115630464D02*
X272142761Y-115594750D01*
X272142761Y-115594750D02*
X272118952Y-115559035D01*
X272118952Y-115559035D02*
X272095142Y-115487607D01*
X272095142Y-115487607D02*
X272095142Y-115416178D01*
X272095142Y-115416178D02*
X272118952Y-115344750D01*
X272118952Y-115344750D02*
X272142761Y-115309035D01*
X272142761Y-115309035D02*
X272190380Y-115273321D01*
X272190380Y-115273321D02*
X272285618Y-115237607D01*
X272285618Y-115237607D02*
X272333237Y-115201892D01*
X272333237Y-115201892D02*
X272357047Y-115166178D01*
X272357047Y-115166178D02*
X272380856Y-115094750D01*
X272380856Y-115094750D02*
X272380856Y-115023321D01*
X272380856Y-115023321D02*
X272357047Y-114951892D01*
X272357047Y-114951892D02*
X272333237Y-114916178D01*
X272333237Y-114916178D02*
X272285618Y-114880464D01*
X272285618Y-114880464D02*
X272166571Y-114880464D01*
X272166571Y-114880464D02*
X272095142Y-114916178D01*
X272610952Y-123275964D02*
X272777618Y-122918821D01*
X272896666Y-123275964D02*
X272896666Y-122525964D01*
X272896666Y-122525964D02*
X272706190Y-122525964D01*
X272706190Y-122525964D02*
X272658571Y-122561678D01*
X272658571Y-122561678D02*
X272634761Y-122597392D01*
X272634761Y-122597392D02*
X272610952Y-122668821D01*
X272610952Y-122668821D02*
X272610952Y-122775964D01*
X272610952Y-122775964D02*
X272634761Y-122847392D01*
X272634761Y-122847392D02*
X272658571Y-122883107D01*
X272658571Y-122883107D02*
X272706190Y-122918821D01*
X272706190Y-122918821D02*
X272896666Y-122918821D01*
X272301428Y-122525964D02*
X272206190Y-122525964D01*
X272206190Y-122525964D02*
X272158571Y-122561678D01*
X272158571Y-122561678D02*
X272110952Y-122633107D01*
X272110952Y-122633107D02*
X272087142Y-122775964D01*
X272087142Y-122775964D02*
X272087142Y-123025964D01*
X272087142Y-123025964D02*
X272110952Y-123168821D01*
X272110952Y-123168821D02*
X272158571Y-123240250D01*
X272158571Y-123240250D02*
X272206190Y-123275964D01*
X272206190Y-123275964D02*
X272301428Y-123275964D01*
X272301428Y-123275964D02*
X272349047Y-123240250D01*
X272349047Y-123240250D02*
X272396666Y-123168821D01*
X272396666Y-123168821D02*
X272420475Y-123025964D01*
X272420475Y-123025964D02*
X272420475Y-122775964D01*
X272420475Y-122775964D02*
X272396666Y-122633107D01*
X272396666Y-122633107D02*
X272349047Y-122561678D01*
X272349047Y-122561678D02*
X272301428Y-122525964D01*
X271920475Y-122525964D02*
X271801427Y-123275964D01*
X271801427Y-123275964D02*
X271706189Y-122740250D01*
X271706189Y-122740250D02*
X271610951Y-123275964D01*
X271610951Y-123275964D02*
X271491904Y-122525964D01*
X271325236Y-122597392D02*
X271301427Y-122561678D01*
X271301427Y-122561678D02*
X271253808Y-122525964D01*
X271253808Y-122525964D02*
X271134760Y-122525964D01*
X271134760Y-122525964D02*
X271087141Y-122561678D01*
X271087141Y-122561678D02*
X271063332Y-122597392D01*
X271063332Y-122597392D02*
X271039522Y-122668821D01*
X271039522Y-122668821D02*
X271039522Y-122740250D01*
X271039522Y-122740250D02*
X271063332Y-122847392D01*
X271063332Y-122847392D02*
X271349046Y-123275964D01*
X271349046Y-123275964D02*
X271039522Y-123275964D01*
X272857047Y-128355964D02*
X272857047Y-127605964D01*
X272857047Y-127605964D02*
X272737999Y-127605964D01*
X272737999Y-127605964D02*
X272666571Y-127641678D01*
X272666571Y-127641678D02*
X272618952Y-127713107D01*
X272618952Y-127713107D02*
X272595142Y-127784535D01*
X272595142Y-127784535D02*
X272571333Y-127927392D01*
X272571333Y-127927392D02*
X272571333Y-128034535D01*
X272571333Y-128034535D02*
X272595142Y-128177392D01*
X272595142Y-128177392D02*
X272618952Y-128248821D01*
X272618952Y-128248821D02*
X272666571Y-128320250D01*
X272666571Y-128320250D02*
X272737999Y-128355964D01*
X272737999Y-128355964D02*
X272857047Y-128355964D01*
X272333237Y-128355964D02*
X272237999Y-128355964D01*
X272237999Y-128355964D02*
X272190380Y-128320250D01*
X272190380Y-128320250D02*
X272166571Y-128284535D01*
X272166571Y-128284535D02*
X272118952Y-128177392D01*
X272118952Y-128177392D02*
X272095142Y-128034535D01*
X272095142Y-128034535D02*
X272095142Y-127748821D01*
X272095142Y-127748821D02*
X272118952Y-127677392D01*
X272118952Y-127677392D02*
X272142761Y-127641678D01*
X272142761Y-127641678D02*
X272190380Y-127605964D01*
X272190380Y-127605964D02*
X272285618Y-127605964D01*
X272285618Y-127605964D02*
X272333237Y-127641678D01*
X272333237Y-127641678D02*
X272357047Y-127677392D01*
X272357047Y-127677392D02*
X272380856Y-127748821D01*
X272380856Y-127748821D02*
X272380856Y-127927392D01*
X272380856Y-127927392D02*
X272357047Y-127998821D01*
X272357047Y-127998821D02*
X272333237Y-128034535D01*
X272333237Y-128034535D02*
X272285618Y-128070250D01*
X272285618Y-128070250D02*
X272190380Y-128070250D01*
X272190380Y-128070250D02*
X272142761Y-128034535D01*
X272142761Y-128034535D02*
X272118952Y-127998821D01*
X272118952Y-127998821D02*
X272095142Y-127927392D01*
X262367619Y-110441035D02*
X262391428Y-110476750D01*
X262391428Y-110476750D02*
X262462857Y-110512464D01*
X262462857Y-110512464D02*
X262510476Y-110512464D01*
X262510476Y-110512464D02*
X262581904Y-110476750D01*
X262581904Y-110476750D02*
X262629523Y-110405321D01*
X262629523Y-110405321D02*
X262653333Y-110333892D01*
X262653333Y-110333892D02*
X262677142Y-110191035D01*
X262677142Y-110191035D02*
X262677142Y-110083892D01*
X262677142Y-110083892D02*
X262653333Y-109941035D01*
X262653333Y-109941035D02*
X262629523Y-109869607D01*
X262629523Y-109869607D02*
X262581904Y-109798178D01*
X262581904Y-109798178D02*
X262510476Y-109762464D01*
X262510476Y-109762464D02*
X262462857Y-109762464D01*
X262462857Y-109762464D02*
X262391428Y-109798178D01*
X262391428Y-109798178D02*
X262367619Y-109833892D01*
X262058095Y-109762464D02*
X261962857Y-109762464D01*
X261962857Y-109762464D02*
X261915238Y-109798178D01*
X261915238Y-109798178D02*
X261867619Y-109869607D01*
X261867619Y-109869607D02*
X261843809Y-110012464D01*
X261843809Y-110012464D02*
X261843809Y-110262464D01*
X261843809Y-110262464D02*
X261867619Y-110405321D01*
X261867619Y-110405321D02*
X261915238Y-110476750D01*
X261915238Y-110476750D02*
X261962857Y-110512464D01*
X261962857Y-110512464D02*
X262058095Y-110512464D01*
X262058095Y-110512464D02*
X262105714Y-110476750D01*
X262105714Y-110476750D02*
X262153333Y-110405321D01*
X262153333Y-110405321D02*
X262177142Y-110262464D01*
X262177142Y-110262464D02*
X262177142Y-110012464D01*
X262177142Y-110012464D02*
X262153333Y-109869607D01*
X262153333Y-109869607D02*
X262105714Y-109798178D01*
X262105714Y-109798178D02*
X262058095Y-109762464D01*
X261391428Y-110512464D02*
X261629523Y-110512464D01*
X261629523Y-110512464D02*
X261629523Y-109762464D01*
X261129523Y-109762464D02*
X261081904Y-109762464D01*
X261081904Y-109762464D02*
X261034285Y-109798178D01*
X261034285Y-109798178D02*
X261010475Y-109833892D01*
X261010475Y-109833892D02*
X260986666Y-109905321D01*
X260986666Y-109905321D02*
X260962856Y-110048178D01*
X260962856Y-110048178D02*
X260962856Y-110226750D01*
X260962856Y-110226750D02*
X260986666Y-110369607D01*
X260986666Y-110369607D02*
X261010475Y-110441035D01*
X261010475Y-110441035D02*
X261034285Y-110476750D01*
X261034285Y-110476750D02*
X261081904Y-110512464D01*
X261081904Y-110512464D02*
X261129523Y-110512464D01*
X261129523Y-110512464D02*
X261177142Y-110476750D01*
X261177142Y-110476750D02*
X261200951Y-110441035D01*
X261200951Y-110441035D02*
X261224761Y-110369607D01*
X261224761Y-110369607D02*
X261248570Y-110226750D01*
X261248570Y-110226750D02*
X261248570Y-110048178D01*
X261248570Y-110048178D02*
X261224761Y-109905321D01*
X261224761Y-109905321D02*
X261200951Y-109833892D01*
X261200951Y-109833892D02*
X261177142Y-109798178D01*
X261177142Y-109798178D02*
X261129523Y-109762464D01*
X272614952Y-104718178D02*
X272662571Y-104682464D01*
X272662571Y-104682464D02*
X272734000Y-104682464D01*
X272734000Y-104682464D02*
X272805428Y-104718178D01*
X272805428Y-104718178D02*
X272853047Y-104789607D01*
X272853047Y-104789607D02*
X272876857Y-104861035D01*
X272876857Y-104861035D02*
X272900666Y-105003892D01*
X272900666Y-105003892D02*
X272900666Y-105111035D01*
X272900666Y-105111035D02*
X272876857Y-105253892D01*
X272876857Y-105253892D02*
X272853047Y-105325321D01*
X272853047Y-105325321D02*
X272805428Y-105396750D01*
X272805428Y-105396750D02*
X272734000Y-105432464D01*
X272734000Y-105432464D02*
X272686381Y-105432464D01*
X272686381Y-105432464D02*
X272614952Y-105396750D01*
X272614952Y-105396750D02*
X272591143Y-105361035D01*
X272591143Y-105361035D02*
X272591143Y-105111035D01*
X272591143Y-105111035D02*
X272686381Y-105111035D01*
X272376857Y-105432464D02*
X272376857Y-104682464D01*
X272376857Y-104682464D02*
X272091143Y-105432464D01*
X272091143Y-105432464D02*
X272091143Y-104682464D01*
X271853047Y-105432464D02*
X271853047Y-104682464D01*
X271853047Y-104682464D02*
X271733999Y-104682464D01*
X271733999Y-104682464D02*
X271662571Y-104718178D01*
X271662571Y-104718178D02*
X271614952Y-104789607D01*
X271614952Y-104789607D02*
X271591142Y-104861035D01*
X271591142Y-104861035D02*
X271567333Y-105003892D01*
X271567333Y-105003892D02*
X271567333Y-105111035D01*
X271567333Y-105111035D02*
X271591142Y-105253892D01*
X271591142Y-105253892D02*
X271614952Y-105325321D01*
X271614952Y-105325321D02*
X271662571Y-105396750D01*
X271662571Y-105396750D02*
X271733999Y-105432464D01*
X271733999Y-105432464D02*
X271853047Y-105432464D01*
X272610952Y-120672464D02*
X272777618Y-120315321D01*
X272896666Y-120672464D02*
X272896666Y-119922464D01*
X272896666Y-119922464D02*
X272706190Y-119922464D01*
X272706190Y-119922464D02*
X272658571Y-119958178D01*
X272658571Y-119958178D02*
X272634761Y-119993892D01*
X272634761Y-119993892D02*
X272610952Y-120065321D01*
X272610952Y-120065321D02*
X272610952Y-120172464D01*
X272610952Y-120172464D02*
X272634761Y-120243892D01*
X272634761Y-120243892D02*
X272658571Y-120279607D01*
X272658571Y-120279607D02*
X272706190Y-120315321D01*
X272706190Y-120315321D02*
X272896666Y-120315321D01*
X272301428Y-119922464D02*
X272206190Y-119922464D01*
X272206190Y-119922464D02*
X272158571Y-119958178D01*
X272158571Y-119958178D02*
X272110952Y-120029607D01*
X272110952Y-120029607D02*
X272087142Y-120172464D01*
X272087142Y-120172464D02*
X272087142Y-120422464D01*
X272087142Y-120422464D02*
X272110952Y-120565321D01*
X272110952Y-120565321D02*
X272158571Y-120636750D01*
X272158571Y-120636750D02*
X272206190Y-120672464D01*
X272206190Y-120672464D02*
X272301428Y-120672464D01*
X272301428Y-120672464D02*
X272349047Y-120636750D01*
X272349047Y-120636750D02*
X272396666Y-120565321D01*
X272396666Y-120565321D02*
X272420475Y-120422464D01*
X272420475Y-120422464D02*
X272420475Y-120172464D01*
X272420475Y-120172464D02*
X272396666Y-120029607D01*
X272396666Y-120029607D02*
X272349047Y-119958178D01*
X272349047Y-119958178D02*
X272301428Y-119922464D01*
X271920475Y-119922464D02*
X271801427Y-120672464D01*
X271801427Y-120672464D02*
X271706189Y-120136750D01*
X271706189Y-120136750D02*
X271610951Y-120672464D01*
X271610951Y-120672464D02*
X271491904Y-119922464D01*
X271039522Y-120672464D02*
X271325236Y-120672464D01*
X271182379Y-120672464D02*
X271182379Y-119922464D01*
X271182379Y-119922464D02*
X271229998Y-120029607D01*
X271229998Y-120029607D02*
X271277617Y-120101035D01*
X271277617Y-120101035D02*
X271325236Y-120136750D01*
X272983999Y-102892464D02*
X272983999Y-102142464D01*
X272983999Y-102142464D02*
X272864951Y-102142464D01*
X272864951Y-102142464D02*
X272793523Y-102178178D01*
X272793523Y-102178178D02*
X272745904Y-102249607D01*
X272745904Y-102249607D02*
X272722094Y-102321035D01*
X272722094Y-102321035D02*
X272698285Y-102463892D01*
X272698285Y-102463892D02*
X272698285Y-102571035D01*
X272698285Y-102571035D02*
X272722094Y-102713892D01*
X272722094Y-102713892D02*
X272745904Y-102785321D01*
X272745904Y-102785321D02*
X272793523Y-102856750D01*
X272793523Y-102856750D02*
X272864951Y-102892464D01*
X272864951Y-102892464D02*
X272983999Y-102892464D01*
X272507808Y-102678178D02*
X272269713Y-102678178D01*
X272555427Y-102892464D02*
X272388761Y-102142464D01*
X272388761Y-102142464D02*
X272222094Y-102892464D01*
X272126856Y-102142464D02*
X271841142Y-102142464D01*
X271983999Y-102892464D02*
X271983999Y-102142464D01*
X271698285Y-102678178D02*
X271460190Y-102678178D01*
X271745904Y-102892464D02*
X271579238Y-102142464D01*
X271579238Y-102142464D02*
X271412571Y-102892464D01*
X262367619Y-123395035D02*
X262391428Y-123430750D01*
X262391428Y-123430750D02*
X262462857Y-123466464D01*
X262462857Y-123466464D02*
X262510476Y-123466464D01*
X262510476Y-123466464D02*
X262581904Y-123430750D01*
X262581904Y-123430750D02*
X262629523Y-123359321D01*
X262629523Y-123359321D02*
X262653333Y-123287892D01*
X262653333Y-123287892D02*
X262677142Y-123145035D01*
X262677142Y-123145035D02*
X262677142Y-123037892D01*
X262677142Y-123037892D02*
X262653333Y-122895035D01*
X262653333Y-122895035D02*
X262629523Y-122823607D01*
X262629523Y-122823607D02*
X262581904Y-122752178D01*
X262581904Y-122752178D02*
X262510476Y-122716464D01*
X262510476Y-122716464D02*
X262462857Y-122716464D01*
X262462857Y-122716464D02*
X262391428Y-122752178D01*
X262391428Y-122752178D02*
X262367619Y-122787892D01*
X262058095Y-122716464D02*
X261962857Y-122716464D01*
X261962857Y-122716464D02*
X261915238Y-122752178D01*
X261915238Y-122752178D02*
X261867619Y-122823607D01*
X261867619Y-122823607D02*
X261843809Y-122966464D01*
X261843809Y-122966464D02*
X261843809Y-123216464D01*
X261843809Y-123216464D02*
X261867619Y-123359321D01*
X261867619Y-123359321D02*
X261915238Y-123430750D01*
X261915238Y-123430750D02*
X261962857Y-123466464D01*
X261962857Y-123466464D02*
X262058095Y-123466464D01*
X262058095Y-123466464D02*
X262105714Y-123430750D01*
X262105714Y-123430750D02*
X262153333Y-123359321D01*
X262153333Y-123359321D02*
X262177142Y-123216464D01*
X262177142Y-123216464D02*
X262177142Y-122966464D01*
X262177142Y-122966464D02*
X262153333Y-122823607D01*
X262153333Y-122823607D02*
X262105714Y-122752178D01*
X262105714Y-122752178D02*
X262058095Y-122716464D01*
X261391428Y-123466464D02*
X261629523Y-123466464D01*
X261629523Y-123466464D02*
X261629523Y-122716464D01*
X260986666Y-122716464D02*
X261224761Y-122716464D01*
X261224761Y-122716464D02*
X261248570Y-123073607D01*
X261248570Y-123073607D02*
X261224761Y-123037892D01*
X261224761Y-123037892D02*
X261177142Y-123002178D01*
X261177142Y-123002178D02*
X261058094Y-123002178D01*
X261058094Y-123002178D02*
X261010475Y-123037892D01*
X261010475Y-123037892D02*
X260986666Y-123073607D01*
X260986666Y-123073607D02*
X260962856Y-123145035D01*
X260962856Y-123145035D02*
X260962856Y-123323607D01*
X260962856Y-123323607D02*
X260986666Y-123395035D01*
X260986666Y-123395035D02*
X261010475Y-123430750D01*
X261010475Y-123430750D02*
X261058094Y-123466464D01*
X261058094Y-123466464D02*
X261177142Y-123466464D01*
X261177142Y-123466464D02*
X261224761Y-123430750D01*
X261224761Y-123430750D02*
X261248570Y-123395035D01*
X272610952Y-118132464D02*
X272777618Y-117775321D01*
X272896666Y-118132464D02*
X272896666Y-117382464D01*
X272896666Y-117382464D02*
X272706190Y-117382464D01*
X272706190Y-117382464D02*
X272658571Y-117418178D01*
X272658571Y-117418178D02*
X272634761Y-117453892D01*
X272634761Y-117453892D02*
X272610952Y-117525321D01*
X272610952Y-117525321D02*
X272610952Y-117632464D01*
X272610952Y-117632464D02*
X272634761Y-117703892D01*
X272634761Y-117703892D02*
X272658571Y-117739607D01*
X272658571Y-117739607D02*
X272706190Y-117775321D01*
X272706190Y-117775321D02*
X272896666Y-117775321D01*
X272301428Y-117382464D02*
X272206190Y-117382464D01*
X272206190Y-117382464D02*
X272158571Y-117418178D01*
X272158571Y-117418178D02*
X272110952Y-117489607D01*
X272110952Y-117489607D02*
X272087142Y-117632464D01*
X272087142Y-117632464D02*
X272087142Y-117882464D01*
X272087142Y-117882464D02*
X272110952Y-118025321D01*
X272110952Y-118025321D02*
X272158571Y-118096750D01*
X272158571Y-118096750D02*
X272206190Y-118132464D01*
X272206190Y-118132464D02*
X272301428Y-118132464D01*
X272301428Y-118132464D02*
X272349047Y-118096750D01*
X272349047Y-118096750D02*
X272396666Y-118025321D01*
X272396666Y-118025321D02*
X272420475Y-117882464D01*
X272420475Y-117882464D02*
X272420475Y-117632464D01*
X272420475Y-117632464D02*
X272396666Y-117489607D01*
X272396666Y-117489607D02*
X272349047Y-117418178D01*
X272349047Y-117418178D02*
X272301428Y-117382464D01*
X271920475Y-117382464D02*
X271801427Y-118132464D01*
X271801427Y-118132464D02*
X271706189Y-117596750D01*
X271706189Y-117596750D02*
X271610951Y-118132464D01*
X271610951Y-118132464D02*
X271491904Y-117382464D01*
X271206189Y-117382464D02*
X271158570Y-117382464D01*
X271158570Y-117382464D02*
X271110951Y-117418178D01*
X271110951Y-117418178D02*
X271087141Y-117453892D01*
X271087141Y-117453892D02*
X271063332Y-117525321D01*
X271063332Y-117525321D02*
X271039522Y-117668178D01*
X271039522Y-117668178D02*
X271039522Y-117846750D01*
X271039522Y-117846750D02*
X271063332Y-117989607D01*
X271063332Y-117989607D02*
X271087141Y-118061035D01*
X271087141Y-118061035D02*
X271110951Y-118096750D01*
X271110951Y-118096750D02*
X271158570Y-118132464D01*
X271158570Y-118132464D02*
X271206189Y-118132464D01*
X271206189Y-118132464D02*
X271253808Y-118096750D01*
X271253808Y-118096750D02*
X271277617Y-118061035D01*
X271277617Y-118061035D02*
X271301427Y-117989607D01*
X271301427Y-117989607D02*
X271325236Y-117846750D01*
X271325236Y-117846750D02*
X271325236Y-117668178D01*
X271325236Y-117668178D02*
X271301427Y-117525321D01*
X271301427Y-117525321D02*
X271277617Y-117453892D01*
X271277617Y-117453892D02*
X271253808Y-117418178D01*
X271253808Y-117418178D02*
X271206189Y-117382464D01*
X272555428Y-100352464D02*
X272793523Y-100352464D01*
X272793523Y-100352464D02*
X272793523Y-99602464D01*
X272388761Y-99959607D02*
X272222094Y-99959607D01*
X272150666Y-100352464D02*
X272388761Y-100352464D01*
X272388761Y-100352464D02*
X272388761Y-99602464D01*
X272388761Y-99602464D02*
X272150666Y-99602464D01*
X271936380Y-100352464D02*
X271936380Y-99602464D01*
X271936380Y-99602464D02*
X271817332Y-99602464D01*
X271817332Y-99602464D02*
X271745904Y-99638178D01*
X271745904Y-99638178D02*
X271698285Y-99709607D01*
X271698285Y-99709607D02*
X271674475Y-99781035D01*
X271674475Y-99781035D02*
X271650666Y-99923892D01*
X271650666Y-99923892D02*
X271650666Y-100031035D01*
X271650666Y-100031035D02*
X271674475Y-100173892D01*
X271674475Y-100173892D02*
X271698285Y-100245321D01*
X271698285Y-100245321D02*
X271745904Y-100316750D01*
X271745904Y-100316750D02*
X271817332Y-100352464D01*
X271817332Y-100352464D02*
X271936380Y-100352464D01*
X262367619Y-120601035D02*
X262391428Y-120636750D01*
X262391428Y-120636750D02*
X262462857Y-120672464D01*
X262462857Y-120672464D02*
X262510476Y-120672464D01*
X262510476Y-120672464D02*
X262581904Y-120636750D01*
X262581904Y-120636750D02*
X262629523Y-120565321D01*
X262629523Y-120565321D02*
X262653333Y-120493892D01*
X262653333Y-120493892D02*
X262677142Y-120351035D01*
X262677142Y-120351035D02*
X262677142Y-120243892D01*
X262677142Y-120243892D02*
X262653333Y-120101035D01*
X262653333Y-120101035D02*
X262629523Y-120029607D01*
X262629523Y-120029607D02*
X262581904Y-119958178D01*
X262581904Y-119958178D02*
X262510476Y-119922464D01*
X262510476Y-119922464D02*
X262462857Y-119922464D01*
X262462857Y-119922464D02*
X262391428Y-119958178D01*
X262391428Y-119958178D02*
X262367619Y-119993892D01*
X262058095Y-119922464D02*
X261962857Y-119922464D01*
X261962857Y-119922464D02*
X261915238Y-119958178D01*
X261915238Y-119958178D02*
X261867619Y-120029607D01*
X261867619Y-120029607D02*
X261843809Y-120172464D01*
X261843809Y-120172464D02*
X261843809Y-120422464D01*
X261843809Y-120422464D02*
X261867619Y-120565321D01*
X261867619Y-120565321D02*
X261915238Y-120636750D01*
X261915238Y-120636750D02*
X261962857Y-120672464D01*
X261962857Y-120672464D02*
X262058095Y-120672464D01*
X262058095Y-120672464D02*
X262105714Y-120636750D01*
X262105714Y-120636750D02*
X262153333Y-120565321D01*
X262153333Y-120565321D02*
X262177142Y-120422464D01*
X262177142Y-120422464D02*
X262177142Y-120172464D01*
X262177142Y-120172464D02*
X262153333Y-120029607D01*
X262153333Y-120029607D02*
X262105714Y-119958178D01*
X262105714Y-119958178D02*
X262058095Y-119922464D01*
X261391428Y-120672464D02*
X261629523Y-120672464D01*
X261629523Y-120672464D02*
X261629523Y-119922464D01*
X261010475Y-120172464D02*
X261010475Y-120672464D01*
X261129523Y-119886750D02*
X261248570Y-120422464D01*
X261248570Y-120422464D02*
X260939047Y-120422464D01*
D10*
X268765404Y-102084319D02*
X268193976Y-102084319D01*
X268479690Y-103084319D02*
X268479690Y-102084319D01*
X267289214Y-103084319D02*
X267622547Y-102608128D01*
X267860642Y-103084319D02*
X267860642Y-102084319D01*
X267860642Y-102084319D02*
X267479690Y-102084319D01*
X267479690Y-102084319D02*
X267384452Y-102131938D01*
X267384452Y-102131938D02*
X267336833Y-102179557D01*
X267336833Y-102179557D02*
X267289214Y-102274795D01*
X267289214Y-102274795D02*
X267289214Y-102417652D01*
X267289214Y-102417652D02*
X267336833Y-102512890D01*
X267336833Y-102512890D02*
X267384452Y-102560509D01*
X267384452Y-102560509D02*
X267479690Y-102608128D01*
X267479690Y-102608128D02*
X267860642Y-102608128D01*
X266289214Y-103084319D02*
X266622547Y-102608128D01*
X266860642Y-103084319D02*
X266860642Y-102084319D01*
X266860642Y-102084319D02*
X266479690Y-102084319D01*
X266479690Y-102084319D02*
X266384452Y-102131938D01*
X266384452Y-102131938D02*
X266336833Y-102179557D01*
X266336833Y-102179557D02*
X266289214Y-102274795D01*
X266289214Y-102274795D02*
X266289214Y-102417652D01*
X266289214Y-102417652D02*
X266336833Y-102512890D01*
X266336833Y-102512890D02*
X266384452Y-102560509D01*
X266384452Y-102560509D02*
X266479690Y-102608128D01*
X266479690Y-102608128D02*
X266860642Y-102608128D01*
X265908261Y-103036700D02*
X265765404Y-103084319D01*
X265765404Y-103084319D02*
X265527309Y-103084319D01*
X265527309Y-103084319D02*
X265432071Y-103036700D01*
X265432071Y-103036700D02*
X265384452Y-102989080D01*
X265384452Y-102989080D02*
X265336833Y-102893842D01*
X265336833Y-102893842D02*
X265336833Y-102798604D01*
X265336833Y-102798604D02*
X265384452Y-102703366D01*
X265384452Y-102703366D02*
X265432071Y-102655747D01*
X265432071Y-102655747D02*
X265527309Y-102608128D01*
X265527309Y-102608128D02*
X265717785Y-102560509D01*
X265717785Y-102560509D02*
X265813023Y-102512890D01*
X265813023Y-102512890D02*
X265860642Y-102465271D01*
X265860642Y-102465271D02*
X265908261Y-102370033D01*
X265908261Y-102370033D02*
X265908261Y-102274795D01*
X265908261Y-102274795D02*
X265860642Y-102179557D01*
X265860642Y-102179557D02*
X265813023Y-102131938D01*
X265813023Y-102131938D02*
X265717785Y-102084319D01*
X265717785Y-102084319D02*
X265479690Y-102084319D01*
X265479690Y-102084319D02*
X265336833Y-102131938D01*
X277931496Y-171568627D02*
X278487386Y-171738495D01*
X278108077Y-172112088D02*
X279059134Y-171803071D01*
X279059134Y-171803071D02*
X278941413Y-171440764D01*
X278941413Y-171440764D02*
X278866695Y-171364902D01*
X278866695Y-171364902D02*
X278806691Y-171334329D01*
X278806691Y-171334329D02*
X278701399Y-171318470D01*
X278701399Y-171318470D02*
X278565534Y-171362616D01*
X278565534Y-171362616D02*
X278489672Y-171437334D01*
X278489672Y-171437334D02*
X278459099Y-171497338D01*
X278459099Y-171497338D02*
X278443241Y-171602630D01*
X278443241Y-171602630D02*
X278560962Y-171964937D01*
X278297233Y-170999165D02*
X278194227Y-170682146D01*
X277651910Y-170708147D02*
X277799060Y-171161031D01*
X277799060Y-171161031D02*
X278750117Y-170852014D01*
X278750117Y-170852014D02*
X278602966Y-170399130D01*
X277579477Y-170331125D02*
X277490043Y-170209975D01*
X277490043Y-170209975D02*
X277416468Y-169983533D01*
X277416468Y-169983533D02*
X277432326Y-169878241D01*
X277432326Y-169878241D02*
X277462900Y-169818237D01*
X277462900Y-169818237D02*
X277538761Y-169743519D01*
X277538761Y-169743519D02*
X277629338Y-169714088D01*
X277629338Y-169714088D02*
X277734630Y-169729947D01*
X277734630Y-169729947D02*
X277794633Y-169760520D01*
X277794633Y-169760520D02*
X277869352Y-169836382D01*
X277869352Y-169836382D02*
X277973501Y-170002820D01*
X277973501Y-170002820D02*
X278048219Y-170078682D01*
X278048219Y-170078682D02*
X278108223Y-170109255D01*
X278108223Y-170109255D02*
X278213515Y-170125113D01*
X278213515Y-170125113D02*
X278304092Y-170095683D01*
X278304092Y-170095683D02*
X278379953Y-170020965D01*
X278379953Y-170020965D02*
X278410527Y-169960961D01*
X278410527Y-169960961D02*
X278426385Y-169855669D01*
X278426385Y-169855669D02*
X278352809Y-169629227D01*
X278352809Y-169629227D02*
X278263376Y-169508077D01*
X277723344Y-169232917D02*
X277620339Y-168915898D01*
X277078021Y-168941899D02*
X277225172Y-169394783D01*
X277225172Y-169394783D02*
X278176228Y-169085766D01*
X278176228Y-169085766D02*
X278029077Y-168632882D01*
X277940787Y-168361152D02*
X277764206Y-167817691D01*
X276901440Y-168398438D02*
X277852496Y-168089421D01*
X252182672Y-137624059D02*
X252658862Y-137624059D01*
X252658862Y-137624059D02*
X252658862Y-136624059D01*
X251849338Y-137100249D02*
X251516005Y-137100249D01*
X251373148Y-137624059D02*
X251849338Y-137624059D01*
X251849338Y-137624059D02*
X251849338Y-136624059D01*
X251849338Y-136624059D02*
X251373148Y-136624059D01*
X250944576Y-137624059D02*
X250944576Y-136624059D01*
X250944576Y-136624059D02*
X250706481Y-136624059D01*
X250706481Y-136624059D02*
X250563624Y-136671678D01*
X250563624Y-136671678D02*
X250468386Y-136766916D01*
X250468386Y-136766916D02*
X250420767Y-136862154D01*
X250420767Y-136862154D02*
X250373148Y-137052630D01*
X250373148Y-137052630D02*
X250373148Y-137195487D01*
X250373148Y-137195487D02*
X250420767Y-137385963D01*
X250420767Y-137385963D02*
X250468386Y-137481201D01*
X250468386Y-137481201D02*
X250563624Y-137576440D01*
X250563624Y-137576440D02*
X250706481Y-137624059D01*
X250706481Y-137624059D02*
X250944576Y-137624059D01*
X252221904Y-139202438D02*
X252317142Y-139154819D01*
X252317142Y-139154819D02*
X252459999Y-139154819D01*
X252459999Y-139154819D02*
X252602856Y-139202438D01*
X252602856Y-139202438D02*
X252698094Y-139297676D01*
X252698094Y-139297676D02*
X252745713Y-139392914D01*
X252745713Y-139392914D02*
X252793332Y-139583390D01*
X252793332Y-139583390D02*
X252793332Y-139726247D01*
X252793332Y-139726247D02*
X252745713Y-139916723D01*
X252745713Y-139916723D02*
X252698094Y-140011961D01*
X252698094Y-140011961D02*
X252602856Y-140107200D01*
X252602856Y-140107200D02*
X252459999Y-140154819D01*
X252459999Y-140154819D02*
X252364761Y-140154819D01*
X252364761Y-140154819D02*
X252221904Y-140107200D01*
X252221904Y-140107200D02*
X252174285Y-140059580D01*
X252174285Y-140059580D02*
X252174285Y-139726247D01*
X252174285Y-139726247D02*
X252364761Y-139726247D01*
X251745713Y-140154819D02*
X251745713Y-139154819D01*
X251745713Y-139154819D02*
X251174285Y-140154819D01*
X251174285Y-140154819D02*
X251174285Y-139154819D01*
X250698094Y-140154819D02*
X250698094Y-139154819D01*
X250698094Y-139154819D02*
X250459999Y-139154819D01*
X250459999Y-139154819D02*
X250317142Y-139202438D01*
X250317142Y-139202438D02*
X250221904Y-139297676D01*
X250221904Y-139297676D02*
X250174285Y-139392914D01*
X250174285Y-139392914D02*
X250126666Y-139583390D01*
X250126666Y-139583390D02*
X250126666Y-139726247D01*
X250126666Y-139726247D02*
X250174285Y-139916723D01*
X250174285Y-139916723D02*
X250221904Y-140011961D01*
X250221904Y-140011961D02*
X250317142Y-140107200D01*
X250317142Y-140107200D02*
X250459999Y-140154819D01*
X250459999Y-140154819D02*
X250698094Y-140154819D01*
X252837301Y-134186554D02*
X252503968Y-135186554D01*
X252503968Y-135186554D02*
X252170635Y-134186554D01*
X251265873Y-135091315D02*
X251313492Y-135138935D01*
X251313492Y-135138935D02*
X251456349Y-135186554D01*
X251456349Y-135186554D02*
X251551587Y-135186554D01*
X251551587Y-135186554D02*
X251694444Y-135138935D01*
X251694444Y-135138935D02*
X251789682Y-135043696D01*
X251789682Y-135043696D02*
X251837301Y-134948458D01*
X251837301Y-134948458D02*
X251884920Y-134757982D01*
X251884920Y-134757982D02*
X251884920Y-134615125D01*
X251884920Y-134615125D02*
X251837301Y-134424649D01*
X251837301Y-134424649D02*
X251789682Y-134329411D01*
X251789682Y-134329411D02*
X251694444Y-134234173D01*
X251694444Y-134234173D02*
X251551587Y-134186554D01*
X251551587Y-134186554D02*
X251456349Y-134186554D01*
X251456349Y-134186554D02*
X251313492Y-134234173D01*
X251313492Y-134234173D02*
X251265873Y-134281792D01*
X250265873Y-135091315D02*
X250313492Y-135138935D01*
X250313492Y-135138935D02*
X250456349Y-135186554D01*
X250456349Y-135186554D02*
X250551587Y-135186554D01*
X250551587Y-135186554D02*
X250694444Y-135138935D01*
X250694444Y-135138935D02*
X250789682Y-135043696D01*
X250789682Y-135043696D02*
X250837301Y-134948458D01*
X250837301Y-134948458D02*
X250884920Y-134757982D01*
X250884920Y-134757982D02*
X250884920Y-134615125D01*
X250884920Y-134615125D02*
X250837301Y-134424649D01*
X250837301Y-134424649D02*
X250789682Y-134329411D01*
X250789682Y-134329411D02*
X250694444Y-134234173D01*
X250694444Y-134234173D02*
X250551587Y-134186554D01*
X250551587Y-134186554D02*
X250456349Y-134186554D01*
X250456349Y-134186554D02*
X250313492Y-134234173D01*
X250313492Y-134234173D02*
X250265873Y-134281792D01*
X238324618Y-98462112D02*
X238179120Y-98500921D01*
X238179120Y-98500921D02*
X237941469Y-98486385D01*
X237941469Y-98486385D02*
X237849316Y-98433041D01*
X237849316Y-98433041D02*
X237804693Y-98382604D01*
X237804693Y-98382604D02*
X237762977Y-98284636D01*
X237762977Y-98284636D02*
X237768791Y-98189576D01*
X237768791Y-98189576D02*
X237822135Y-98097422D01*
X237822135Y-98097422D02*
X237872573Y-98052799D01*
X237872573Y-98052799D02*
X237970540Y-98011083D01*
X237970540Y-98011083D02*
X238163568Y-97975181D01*
X238163568Y-97975181D02*
X238261536Y-97933465D01*
X238261536Y-97933465D02*
X238311973Y-97888842D01*
X238311973Y-97888842D02*
X238365317Y-97796689D01*
X238365317Y-97796689D02*
X238371131Y-97701628D01*
X238371131Y-97701628D02*
X238329415Y-97603661D01*
X238329415Y-97603661D02*
X238284792Y-97553223D01*
X238284792Y-97553223D02*
X238192639Y-97499879D01*
X238192639Y-97499879D02*
X237954988Y-97485344D01*
X237954988Y-97485344D02*
X237809490Y-97524153D01*
X237479685Y-97456273D02*
X237180986Y-98439872D01*
X237180986Y-98439872D02*
X237034471Y-97715291D01*
X237034471Y-97715291D02*
X236800744Y-98416616D01*
X236800744Y-98416616D02*
X236624141Y-97403945D01*
X236338960Y-97386503D02*
X235721067Y-97348711D01*
X235721067Y-97348711D02*
X236030522Y-97749302D01*
X236030522Y-97749302D02*
X235887931Y-97740581D01*
X235887931Y-97740581D02*
X235789964Y-97782297D01*
X235789964Y-97782297D02*
X235739526Y-97826920D01*
X235739526Y-97826920D02*
X235686182Y-97919074D01*
X235686182Y-97919074D02*
X235671647Y-98156725D01*
X235671647Y-98156725D02*
X235713363Y-98254693D01*
X235713363Y-98254693D02*
X235757986Y-98305130D01*
X235757986Y-98305130D02*
X235850139Y-98358474D01*
X235850139Y-98358474D02*
X236135321Y-98375917D01*
X236135321Y-98375917D02*
X236233288Y-98334201D01*
X236233288Y-98334201D02*
X236283726Y-98289577D01*
X235103174Y-97310919D02*
X235008114Y-97305105D01*
X235008114Y-97305105D02*
X234910146Y-97346821D01*
X234910146Y-97346821D02*
X234859709Y-97391444D01*
X234859709Y-97391444D02*
X234806364Y-97483598D01*
X234806364Y-97483598D02*
X234747206Y-97670811D01*
X234747206Y-97670811D02*
X234732670Y-97908463D01*
X234732670Y-97908463D02*
X234768572Y-98101491D01*
X234768572Y-98101491D02*
X234810288Y-98199458D01*
X234810288Y-98199458D02*
X234854912Y-98249895D01*
X234854912Y-98249895D02*
X234947065Y-98303240D01*
X234947065Y-98303240D02*
X235042125Y-98309054D01*
X235042125Y-98309054D02*
X235140093Y-98267338D01*
X235140093Y-98267338D02*
X235190530Y-98222715D01*
X235190530Y-98222715D02*
X235243875Y-98130561D01*
X235243875Y-98130561D02*
X235303033Y-97943347D01*
X235303033Y-97943347D02*
X235317569Y-97705696D01*
X235317569Y-97705696D02*
X235281667Y-97512668D01*
X235281667Y-97512668D02*
X235239951Y-97414701D01*
X235239951Y-97414701D02*
X235195327Y-97364264D01*
X235195327Y-97364264D02*
X235103174Y-97310919D01*
X171500000Y-135375000D02*
X171500000Y-138025000D01*
X171350000Y-138450000D02*
X171350000Y-134900000D01*
X171250000Y-138600000D02*
X171250000Y-134850000D01*
X171150000Y-138700000D02*
X171150000Y-134750000D01*
X171050000Y-138800000D02*
X171050000Y-134600000D01*
X170900000Y-138900000D02*
X170900000Y-134500000D01*
X170750000Y-138950000D02*
X170750000Y-134450000D01*
X170600000Y-139000000D02*
X170600000Y-134450000D01*
X170500000Y-139025000D02*
X167900000Y-139025000D01*
X170500000Y-134375000D02*
X167925000Y-134375000D01*
X170450000Y-139000000D02*
X170450000Y-134400000D01*
X170300000Y-139000000D02*
X170300000Y-134400000D01*
X170150000Y-139000000D02*
X170150000Y-134400000D01*
X170000000Y-139000000D02*
X170000000Y-134400000D01*
X169850000Y-139000000D02*
X169850000Y-134400000D01*
X169700000Y-139000000D02*
X169700000Y-134400000D01*
X169550000Y-139000000D02*
X169550000Y-134400000D01*
X169400000Y-139000000D02*
X169400000Y-134400000D01*
X169250000Y-139000000D02*
X169250000Y-134400000D01*
X169100000Y-139000000D02*
X169100000Y-134400000D01*
X168950000Y-139000000D02*
X168950000Y-134400000D01*
X168800000Y-139000000D02*
X168800000Y-134400000D01*
X168650000Y-139000000D02*
X168650000Y-134400000D01*
X168500000Y-139000000D02*
X168500000Y-134400000D01*
X168350000Y-139000000D02*
X168350000Y-134400000D01*
X168200000Y-139000000D02*
X168200000Y-134400000D01*
X168050000Y-139000000D02*
X168050000Y-134450000D01*
X167900000Y-139000000D02*
X167900000Y-134400000D01*
X167750000Y-139000000D02*
X167750000Y-134400000D01*
X167600000Y-138950000D02*
X167600000Y-134400000D01*
X167450000Y-138850000D02*
X167450000Y-134300000D01*
X167300000Y-138750000D02*
X167300000Y-134250000D01*
X167200000Y-138600000D02*
X167200000Y-134200000D01*
X167100000Y-138350000D02*
X167100000Y-134150000D01*
X167000000Y-138200000D02*
X167000000Y-134050000D01*
X166900000Y-138000000D02*
X166900000Y-133850000D01*
X166800000Y-137850000D02*
X166800000Y-133700000D01*
X166700000Y-137650000D02*
X166700000Y-133200000D01*
X166550000Y-137500000D02*
X166550000Y-133050000D01*
X166400000Y-137350000D02*
X166400000Y-132950000D01*
X166250000Y-137250000D02*
X166250000Y-132850000D01*
X166100000Y-137150000D02*
X166100000Y-132700000D01*
X165950000Y-137050000D02*
X165950000Y-132600000D01*
X165800000Y-137000000D02*
X165800000Y-132450000D01*
X165650000Y-136900000D02*
X165650000Y-132350000D01*
X165500000Y-136850000D02*
X165500000Y-132250000D01*
X165475000Y-132175000D02*
X166750000Y-133200000D01*
X165475000Y-132175000D02*
X162925000Y-132175000D01*
X165350000Y-136850000D02*
X165350000Y-132200000D01*
X165200000Y-136850000D02*
X165200000Y-132200000D01*
X165050000Y-136800000D02*
X165050000Y-132250000D01*
X164900000Y-136825000D02*
X162925000Y-136825000D01*
X164900000Y-136800000D02*
X164900000Y-132200000D01*
X164750000Y-136800000D02*
X164750000Y-132200000D01*
X164600000Y-136800000D02*
X164600000Y-132200000D01*
X164450000Y-136800000D02*
X164450000Y-132200000D01*
X164300000Y-136800000D02*
X164300000Y-132200000D01*
X164150000Y-136800000D02*
X164150000Y-132200000D01*
X164000000Y-136800000D02*
X164000000Y-132200000D01*
X163850000Y-136800000D02*
X163850000Y-132200000D01*
X163700000Y-136800000D02*
X163700000Y-132200000D01*
X163550000Y-136800000D02*
X163550000Y-132200000D01*
X163400000Y-136800000D02*
X163400000Y-132200000D01*
X163250000Y-136800000D02*
X163250000Y-132200000D01*
X163100000Y-136800000D02*
X163100000Y-132200000D01*
X162950000Y-136800000D02*
X162950000Y-132200000D01*
X162800000Y-136650000D02*
X162800000Y-132300000D01*
X162650000Y-136550000D02*
X162650000Y-132450000D01*
X162500000Y-136400000D02*
X162500000Y-132600000D01*
X162350000Y-136250000D02*
X162350000Y-132750000D01*
X162200000Y-136050000D02*
X162200000Y-132900000D01*
X162050000Y-135950000D02*
X162050000Y-133050000D01*
X161900000Y-135800000D02*
X162925000Y-136825000D01*
X161900000Y-133200000D02*
X162925000Y-132175000D01*
X161900000Y-133200000D02*
X161900000Y-135800000D01*
X170500000Y-139025000D02*
G75*
G03*
X171500000Y-138025000I1J999999D01*
G01*
X171500000Y-135375000D02*
G75*
G03*
X170500000Y-134375000I-999999J1D01*
G01*
X166750000Y-133200000D02*
G75*
G03*
X167925000Y-134375000I1175000J0D01*
G01*
X167037798Y-138321905D02*
G75*
G03*
X167899005Y-139023790I900002J225005D01*
G01*
X167037801Y-138321904D02*
G75*
G03*
X164900000Y-136825000I-2137801J-778096D01*
G01*
X238550000Y-138900000D02*
X237050000Y-138900000D01*
X237050000Y-138900000D02*
X237050000Y-144300000D01*
X238300000Y-141100000D02*
X237300000Y-141100000D01*
X237800000Y-141200000D02*
X238300000Y-142100000D01*
X238300000Y-142100000D02*
X237300000Y-142100000D01*
X237300000Y-142100000D02*
X237800000Y-141200000D01*
X238550000Y-144300000D02*
X238550000Y-138900000D01*
X237050000Y-144300000D02*
X238550000Y-144300000D01*
D13*
X171105000Y-107050000D02*
X172600000Y-107050000D01*
X172630000Y-107050000D02*
X172630000Y-108500000D01*
X172630000Y-108500000D02*
X171105000Y-108500000D01*
X247905000Y-103140000D02*
X249400000Y-103140000D01*
X249430000Y-103140000D02*
X249430000Y-104590000D01*
X249430000Y-104590000D02*
X247905000Y-104590000D01*
D10*
X161850000Y-126500000D02*
X160350000Y-126500000D01*
X160350000Y-126500000D02*
X160350000Y-131900000D01*
X161600000Y-128700000D02*
X160600000Y-128700000D01*
X161100000Y-128800000D02*
X161600000Y-129700000D01*
X161600000Y-129700000D02*
X160600000Y-129700000D01*
X160600000Y-129700000D02*
X161100000Y-128800000D01*
X161850000Y-131900000D02*
X161850000Y-126500000D01*
X160350000Y-131900000D02*
X161850000Y-131900000D01*
X209900000Y-106485000D02*
X209900000Y-109135000D01*
X209750000Y-109560000D02*
X209750000Y-106010000D01*
X209650000Y-109710000D02*
X209650000Y-105960000D01*
X209550000Y-109810000D02*
X209550000Y-105860000D01*
X209450000Y-109910000D02*
X209450000Y-105710000D01*
X209300000Y-110010000D02*
X209300000Y-105610000D01*
X209150000Y-110060000D02*
X209150000Y-105560000D01*
X209000000Y-110110000D02*
X209000000Y-105560000D01*
X208900000Y-110135000D02*
X206300000Y-110135000D01*
X208900000Y-105485000D02*
X206325000Y-105485000D01*
X208850000Y-110110000D02*
X208850000Y-105510000D01*
X208700000Y-110110000D02*
X208700000Y-105510000D01*
X208550000Y-110110000D02*
X208550000Y-105510000D01*
X208400000Y-110110000D02*
X208400000Y-105510000D01*
X208250000Y-110110000D02*
X208250000Y-105510000D01*
X208100000Y-110110000D02*
X208100000Y-105510000D01*
X207950000Y-110110000D02*
X207950000Y-105510000D01*
X207800000Y-110110000D02*
X207800000Y-105510000D01*
X207650000Y-110110000D02*
X207650000Y-105510000D01*
X207500000Y-110110000D02*
X207500000Y-105510000D01*
X207350000Y-110110000D02*
X207350000Y-105510000D01*
X207200000Y-110110000D02*
X207200000Y-105510000D01*
X207050000Y-110110000D02*
X207050000Y-105510000D01*
X206900000Y-110110000D02*
X206900000Y-105510000D01*
X206750000Y-110110000D02*
X206750000Y-105510000D01*
X206600000Y-110110000D02*
X206600000Y-105510000D01*
X206450000Y-110110000D02*
X206450000Y-105560000D01*
X206300000Y-110110000D02*
X206300000Y-105510000D01*
X206150000Y-110110000D02*
X206150000Y-105510000D01*
X206000000Y-110060000D02*
X206000000Y-105510000D01*
X205850000Y-109960000D02*
X205850000Y-105410000D01*
X205700000Y-109860000D02*
X205700000Y-105360000D01*
X205600000Y-109710000D02*
X205600000Y-105310000D01*
X205500000Y-109460000D02*
X205500000Y-105260000D01*
X205400000Y-109310000D02*
X205400000Y-105160000D01*
X205300000Y-109110000D02*
X205300000Y-104960000D01*
X205200000Y-108960000D02*
X205200000Y-104810000D01*
X205100000Y-108760000D02*
X205100000Y-104310000D01*
X204950000Y-108610000D02*
X204950000Y-104160000D01*
X204800000Y-108460000D02*
X204800000Y-104060000D01*
X204650000Y-108360000D02*
X204650000Y-103960000D01*
X204500000Y-108260000D02*
X204500000Y-103810000D01*
X204350000Y-108160000D02*
X204350000Y-103710000D01*
X204200000Y-108110000D02*
X204200000Y-103560000D01*
X204050000Y-108010000D02*
X204050000Y-103460000D01*
X203900000Y-107960000D02*
X203900000Y-103360000D01*
X203875000Y-103285000D02*
X205150000Y-104310000D01*
X203875000Y-103285000D02*
X201325000Y-103285000D01*
X203750000Y-107960000D02*
X203750000Y-103310000D01*
X203600000Y-107960000D02*
X203600000Y-103310000D01*
X203450000Y-107910000D02*
X203450000Y-103360000D01*
X203300000Y-107935000D02*
X201325000Y-107935000D01*
X203300000Y-107910000D02*
X203300000Y-103310000D01*
X203150000Y-107910000D02*
X203150000Y-103310000D01*
X203000000Y-107910000D02*
X203000000Y-103310000D01*
X202850000Y-107910000D02*
X202850000Y-103310000D01*
X202700000Y-107910000D02*
X202700000Y-103310000D01*
X202550000Y-107910000D02*
X202550000Y-103310000D01*
X202400000Y-107910000D02*
X202400000Y-103310000D01*
X202250000Y-107910000D02*
X202250000Y-103310000D01*
X202100000Y-107910000D02*
X202100000Y-103310000D01*
X201950000Y-107910000D02*
X201950000Y-103310000D01*
X201800000Y-107910000D02*
X201800000Y-103310000D01*
X201650000Y-107910000D02*
X201650000Y-103310000D01*
X201500000Y-107910000D02*
X201500000Y-103310000D01*
X201350000Y-107910000D02*
X201350000Y-103310000D01*
X201200000Y-107760000D02*
X201200000Y-103410000D01*
X201050000Y-107660000D02*
X201050000Y-103560000D01*
X200900000Y-107510000D02*
X200900000Y-103710000D01*
X200750000Y-107360000D02*
X200750000Y-103860000D01*
X200600000Y-107160000D02*
X200600000Y-104010000D01*
X200450000Y-107060000D02*
X200450000Y-104160000D01*
X200300000Y-106910000D02*
X201325000Y-107935000D01*
X200300000Y-104310000D02*
X201325000Y-103285000D01*
X200300000Y-104310000D02*
X200300000Y-106910000D01*
X208900000Y-110135000D02*
G75*
G03*
X209900000Y-109135000I1J999999D01*
G01*
X209900000Y-106485000D02*
G75*
G03*
X208900000Y-105485000I-999999J1D01*
G01*
X205150000Y-104310000D02*
G75*
G03*
X206325000Y-105485000I1175000J0D01*
G01*
X205437798Y-109431905D02*
G75*
G03*
X206299005Y-110133790I900002J225005D01*
G01*
X205437801Y-109431904D02*
G75*
G03*
X203300000Y-107935000I-2137801J-778096D01*
G01*
X181050000Y-119700000D02*
X179550000Y-119700000D01*
X179550000Y-119700000D02*
X179550000Y-125100000D01*
X180800000Y-121900000D02*
X179800000Y-121900000D01*
X180300000Y-122000000D02*
X180800000Y-122900000D01*
X180800000Y-122900000D02*
X179800000Y-122900000D01*
X179800000Y-122900000D02*
X180300000Y-122000000D01*
X181050000Y-125100000D02*
X181050000Y-119700000D01*
X179550000Y-125100000D02*
X181050000Y-125100000D01*
X260451600Y-131064000D02*
X270611600Y-131064000D01*
X260451600Y-133604000D02*
X260451600Y-131064000D01*
X270611600Y-131064000D02*
X273151600Y-131064000D01*
X270611600Y-133604000D02*
X260451600Y-133604000D01*
X270611600Y-133604000D02*
X273151600Y-133604000D01*
X273151600Y-131064000D02*
X273151600Y-133604000D01*
X181050000Y-100500000D02*
X179550000Y-100500000D01*
X179550000Y-100500000D02*
X179550000Y-105900000D01*
X180800000Y-102700000D02*
X179800000Y-102700000D01*
X180300000Y-102800000D02*
X180800000Y-103700000D01*
X180800000Y-103700000D02*
X179800000Y-103700000D01*
X179800000Y-103700000D02*
X180300000Y-102800000D01*
X181050000Y-105900000D02*
X181050000Y-100500000D01*
X179550000Y-105900000D02*
X181050000Y-105900000D01*
D13*
X228705000Y-138650000D02*
X230200000Y-138650000D01*
X230230000Y-138650000D02*
X230230000Y-140100000D01*
X230230000Y-140100000D02*
X228705000Y-140100000D01*
D10*
X229100000Y-128575000D02*
X229100000Y-131225000D01*
X228950000Y-131650000D02*
X228950000Y-128100000D01*
X228850000Y-131800000D02*
X228850000Y-128050000D01*
X228750000Y-131900000D02*
X228750000Y-127950000D01*
X228650000Y-132000000D02*
X228650000Y-127800000D01*
X228500000Y-132100000D02*
X228500000Y-127700000D01*
X228350000Y-132150000D02*
X228350000Y-127650000D01*
X228200000Y-132200000D02*
X228200000Y-127650000D01*
X228100000Y-132225000D02*
X225500000Y-132225000D01*
X228100000Y-127575000D02*
X225525000Y-127575000D01*
X228050000Y-132200000D02*
X228050000Y-127600000D01*
X227900000Y-132200000D02*
X227900000Y-127600000D01*
X227750000Y-132200000D02*
X227750000Y-127600000D01*
X227600000Y-132200000D02*
X227600000Y-127600000D01*
X227450000Y-132200000D02*
X227450000Y-127600000D01*
X227300000Y-132200000D02*
X227300000Y-127600000D01*
X227150000Y-132200000D02*
X227150000Y-127600000D01*
X227000000Y-132200000D02*
X227000000Y-127600000D01*
X226850000Y-132200000D02*
X226850000Y-127600000D01*
X226700000Y-132200000D02*
X226700000Y-127600000D01*
X226550000Y-132200000D02*
X226550000Y-127600000D01*
X226400000Y-132200000D02*
X226400000Y-127600000D01*
X226250000Y-132200000D02*
X226250000Y-127600000D01*
X226100000Y-132200000D02*
X226100000Y-127600000D01*
X225950000Y-132200000D02*
X225950000Y-127600000D01*
X225800000Y-132200000D02*
X225800000Y-127600000D01*
X225650000Y-132200000D02*
X225650000Y-127650000D01*
X225500000Y-132200000D02*
X225500000Y-127600000D01*
X225350000Y-132200000D02*
X225350000Y-127600000D01*
X225200000Y-132150000D02*
X225200000Y-127600000D01*
X225050000Y-132050000D02*
X225050000Y-127500000D01*
X224900000Y-131950000D02*
X224900000Y-127450000D01*
X224800000Y-131800000D02*
X224800000Y-127400000D01*
X224700000Y-131550000D02*
X224700000Y-127350000D01*
X224600000Y-131400000D02*
X224600000Y-127250000D01*
X224500000Y-131200000D02*
X224500000Y-127050000D01*
X224400000Y-131050000D02*
X224400000Y-126900000D01*
X224300000Y-130850000D02*
X224300000Y-126400000D01*
X224150000Y-130700000D02*
X224150000Y-126250000D01*
X224000000Y-130550000D02*
X224000000Y-126150000D01*
X223850000Y-130450000D02*
X223850000Y-126050000D01*
X223700000Y-130350000D02*
X223700000Y-125900000D01*
X223550000Y-130250000D02*
X223550000Y-125800000D01*
X223400000Y-130200000D02*
X223400000Y-125650000D01*
X223250000Y-130100000D02*
X223250000Y-125550000D01*
X223100000Y-130050000D02*
X223100000Y-125450000D01*
X223075000Y-125375000D02*
X224350000Y-126400000D01*
X223075000Y-125375000D02*
X220525000Y-125375000D01*
X222950000Y-130050000D02*
X222950000Y-125400000D01*
X222800000Y-130050000D02*
X222800000Y-125400000D01*
X222650000Y-130000000D02*
X222650000Y-125450000D01*
X222500000Y-130025000D02*
X220525000Y-130025000D01*
X222500000Y-130000000D02*
X222500000Y-125400000D01*
X222350000Y-130000000D02*
X222350000Y-125400000D01*
X222200000Y-130000000D02*
X222200000Y-125400000D01*
X222050000Y-130000000D02*
X222050000Y-125400000D01*
X221900000Y-130000000D02*
X221900000Y-125400000D01*
X221750000Y-130000000D02*
X221750000Y-125400000D01*
X221600000Y-130000000D02*
X221600000Y-125400000D01*
X221450000Y-130000000D02*
X221450000Y-125400000D01*
X221300000Y-130000000D02*
X221300000Y-125400000D01*
X221150000Y-130000000D02*
X221150000Y-125400000D01*
X221000000Y-130000000D02*
X221000000Y-125400000D01*
X220850000Y-130000000D02*
X220850000Y-125400000D01*
X220700000Y-130000000D02*
X220700000Y-125400000D01*
X220550000Y-130000000D02*
X220550000Y-125400000D01*
X220400000Y-129850000D02*
X220400000Y-125500000D01*
X220250000Y-129750000D02*
X220250000Y-125650000D01*
X220100000Y-129600000D02*
X220100000Y-125800000D01*
X219950000Y-129450000D02*
X219950000Y-125950000D01*
X219800000Y-129250000D02*
X219800000Y-126100000D01*
X219650000Y-129150000D02*
X219650000Y-126250000D01*
X219500000Y-129000000D02*
X220525000Y-130025000D01*
X219500000Y-126400000D02*
X220525000Y-125375000D01*
X219500000Y-126400000D02*
X219500000Y-129000000D01*
X228100000Y-132225000D02*
G75*
G03*
X229100000Y-131225000I1J999999D01*
G01*
X229100000Y-128575000D02*
G75*
G03*
X228100000Y-127575000I-999999J1D01*
G01*
X224350000Y-126400000D02*
G75*
G03*
X225525000Y-127575000I1175000J0D01*
G01*
X224637798Y-131521905D02*
G75*
G03*
X225499005Y-132223790I900002J225005D01*
G01*
X224637801Y-131521904D02*
G75*
G03*
X222500000Y-130025000I-2137801J-778096D01*
G01*
X248300000Y-112265000D02*
X248300000Y-114915000D01*
X248150000Y-115340000D02*
X248150000Y-111790000D01*
X248050000Y-115490000D02*
X248050000Y-111740000D01*
X247950000Y-115590000D02*
X247950000Y-111640000D01*
X247850000Y-115690000D02*
X247850000Y-111490000D01*
X247700000Y-115790000D02*
X247700000Y-111390000D01*
X247550000Y-115840000D02*
X247550000Y-111340000D01*
X247400000Y-115890000D02*
X247400000Y-111340000D01*
X247300000Y-115915000D02*
X244700000Y-115915000D01*
X247300000Y-111265000D02*
X244725000Y-111265000D01*
X247250000Y-115890000D02*
X247250000Y-111290000D01*
X247100000Y-115890000D02*
X247100000Y-111290000D01*
X246950000Y-115890000D02*
X246950000Y-111290000D01*
X246800000Y-115890000D02*
X246800000Y-111290000D01*
X246650000Y-115890000D02*
X246650000Y-111290000D01*
X246500000Y-115890000D02*
X246500000Y-111290000D01*
X246350000Y-115890000D02*
X246350000Y-111290000D01*
X246200000Y-115890000D02*
X246200000Y-111290000D01*
X246050000Y-115890000D02*
X246050000Y-111290000D01*
X245900000Y-115890000D02*
X245900000Y-111290000D01*
X245750000Y-115890000D02*
X245750000Y-111290000D01*
X245600000Y-115890000D02*
X245600000Y-111290000D01*
X245450000Y-115890000D02*
X245450000Y-111290000D01*
X245300000Y-115890000D02*
X245300000Y-111290000D01*
X245150000Y-115890000D02*
X245150000Y-111290000D01*
X245000000Y-115890000D02*
X245000000Y-111290000D01*
X244850000Y-115890000D02*
X244850000Y-111340000D01*
X244700000Y-115890000D02*
X244700000Y-111290000D01*
X244550000Y-115890000D02*
X244550000Y-111290000D01*
X244400000Y-115840000D02*
X244400000Y-111290000D01*
X244250000Y-115740000D02*
X244250000Y-111190000D01*
X244100000Y-115640000D02*
X244100000Y-111140000D01*
X244000000Y-115490000D02*
X244000000Y-111090000D01*
X243900000Y-115240000D02*
X243900000Y-111040000D01*
X243800000Y-115090000D02*
X243800000Y-110940000D01*
X243700000Y-114890000D02*
X243700000Y-110740000D01*
X243600000Y-114740000D02*
X243600000Y-110590000D01*
X243500000Y-114540000D02*
X243500000Y-110090000D01*
X243350000Y-114390000D02*
X243350000Y-109940000D01*
X243200000Y-114240000D02*
X243200000Y-109840000D01*
X243050000Y-114140000D02*
X243050000Y-109740000D01*
X242900000Y-114040000D02*
X242900000Y-109590000D01*
X242750000Y-113940000D02*
X242750000Y-109490000D01*
X242600000Y-113890000D02*
X242600000Y-109340000D01*
X242450000Y-113790000D02*
X242450000Y-109240000D01*
X242300000Y-113740000D02*
X242300000Y-109140000D01*
X242275000Y-109065000D02*
X243550000Y-110090000D01*
X242275000Y-109065000D02*
X239725000Y-109065000D01*
X242150000Y-113740000D02*
X242150000Y-109090000D01*
X242000000Y-113740000D02*
X242000000Y-109090000D01*
X241850000Y-113690000D02*
X241850000Y-109140000D01*
X241700000Y-113715000D02*
X239725000Y-113715000D01*
X241700000Y-113690000D02*
X241700000Y-109090000D01*
X241550000Y-113690000D02*
X241550000Y-109090000D01*
X241400000Y-113690000D02*
X241400000Y-109090000D01*
X241250000Y-113690000D02*
X241250000Y-109090000D01*
X241100000Y-113690000D02*
X241100000Y-109090000D01*
X240950000Y-113690000D02*
X240950000Y-109090000D01*
X240800000Y-113690000D02*
X240800000Y-109090000D01*
X240650000Y-113690000D02*
X240650000Y-109090000D01*
X240500000Y-113690000D02*
X240500000Y-109090000D01*
X240350000Y-113690000D02*
X240350000Y-109090000D01*
X240200000Y-113690000D02*
X240200000Y-109090000D01*
X240050000Y-113690000D02*
X240050000Y-109090000D01*
X239900000Y-113690000D02*
X239900000Y-109090000D01*
X239750000Y-113690000D02*
X239750000Y-109090000D01*
X239600000Y-113540000D02*
X239600000Y-109190000D01*
X239450000Y-113440000D02*
X239450000Y-109340000D01*
X239300000Y-113290000D02*
X239300000Y-109490000D01*
X239150000Y-113140000D02*
X239150000Y-109640000D01*
X239000000Y-112940000D02*
X239000000Y-109790000D01*
X238850000Y-112840000D02*
X238850000Y-109940000D01*
X238700000Y-112690000D02*
X239725000Y-113715000D01*
X238700000Y-110090000D02*
X239725000Y-109065000D01*
X238700000Y-110090000D02*
X238700000Y-112690000D01*
X247300000Y-115915000D02*
G75*
G03*
X248300000Y-114915000I1J999999D01*
G01*
X248300000Y-112265000D02*
G75*
G03*
X247300000Y-111265000I-999999J1D01*
G01*
X243550000Y-110090000D02*
G75*
G03*
X244725000Y-111265000I1175000J0D01*
G01*
X243837798Y-115211905D02*
G75*
G03*
X244699005Y-115913790I900002J225005D01*
G01*
X243837801Y-115211904D02*
G75*
G03*
X241700000Y-113715000I-2137801J-778096D01*
G01*
D13*
X257688828Y-169062782D02*
X258200148Y-167657941D01*
X258210409Y-167629750D02*
X259572963Y-168125680D01*
X259572963Y-168125680D02*
X259051383Y-169558711D01*
D10*
X171500000Y-154575000D02*
X171500000Y-157225000D01*
X171350000Y-157650000D02*
X171350000Y-154100000D01*
X171250000Y-157800000D02*
X171250000Y-154050000D01*
X171150000Y-157900000D02*
X171150000Y-153950000D01*
X171050000Y-158000000D02*
X171050000Y-153800000D01*
X170900000Y-158100000D02*
X170900000Y-153700000D01*
X170750000Y-158150000D02*
X170750000Y-153650000D01*
X170600000Y-158200000D02*
X170600000Y-153650000D01*
X170500000Y-158225000D02*
X167900000Y-158225000D01*
X170500000Y-153575000D02*
X167925000Y-153575000D01*
X170450000Y-158200000D02*
X170450000Y-153600000D01*
X170300000Y-158200000D02*
X170300000Y-153600000D01*
X170150000Y-158200000D02*
X170150000Y-153600000D01*
X170000000Y-158200000D02*
X170000000Y-153600000D01*
X169850000Y-158200000D02*
X169850000Y-153600000D01*
X169700000Y-158200000D02*
X169700000Y-153600000D01*
X169550000Y-158200000D02*
X169550000Y-153600000D01*
X169400000Y-158200000D02*
X169400000Y-153600000D01*
X169250000Y-158200000D02*
X169250000Y-153600000D01*
X169100000Y-158200000D02*
X169100000Y-153600000D01*
X168950000Y-158200000D02*
X168950000Y-153600000D01*
X168800000Y-158200000D02*
X168800000Y-153600000D01*
X168650000Y-158200000D02*
X168650000Y-153600000D01*
X168500000Y-158200000D02*
X168500000Y-153600000D01*
X168350000Y-158200000D02*
X168350000Y-153600000D01*
X168200000Y-158200000D02*
X168200000Y-153600000D01*
X168050000Y-158200000D02*
X168050000Y-153650000D01*
X167900000Y-158200000D02*
X167900000Y-153600000D01*
X167750000Y-158200000D02*
X167750000Y-153600000D01*
X167600000Y-158150000D02*
X167600000Y-153600000D01*
X167450000Y-158050000D02*
X167450000Y-153500000D01*
X167300000Y-157950000D02*
X167300000Y-153450000D01*
X167200000Y-157800000D02*
X167200000Y-153400000D01*
X167100000Y-157550000D02*
X167100000Y-153350000D01*
X167000000Y-157400000D02*
X167000000Y-153250000D01*
X166900000Y-157200000D02*
X166900000Y-153050000D01*
X166800000Y-157050000D02*
X166800000Y-152900000D01*
X166700000Y-156850000D02*
X166700000Y-152400000D01*
X166550000Y-156700000D02*
X166550000Y-152250000D01*
X166400000Y-156550000D02*
X166400000Y-152150000D01*
X166250000Y-156450000D02*
X166250000Y-152050000D01*
X166100000Y-156350000D02*
X166100000Y-151900000D01*
X165950000Y-156250000D02*
X165950000Y-151800000D01*
X165800000Y-156200000D02*
X165800000Y-151650000D01*
X165650000Y-156100000D02*
X165650000Y-151550000D01*
X165500000Y-156050000D02*
X165500000Y-151450000D01*
X165475000Y-151375000D02*
X166750000Y-152400000D01*
X165475000Y-151375000D02*
X162925000Y-151375000D01*
X165350000Y-156050000D02*
X165350000Y-151400000D01*
X165200000Y-156050000D02*
X165200000Y-151400000D01*
X165050000Y-156000000D02*
X165050000Y-151450000D01*
X164900000Y-156025000D02*
X162925000Y-156025000D01*
X164900000Y-156000000D02*
X164900000Y-151400000D01*
X164750000Y-156000000D02*
X164750000Y-151400000D01*
X164600000Y-156000000D02*
X164600000Y-151400000D01*
X164450000Y-156000000D02*
X164450000Y-151400000D01*
X164300000Y-156000000D02*
X164300000Y-151400000D01*
X164150000Y-156000000D02*
X164150000Y-151400000D01*
X164000000Y-156000000D02*
X164000000Y-151400000D01*
X163850000Y-156000000D02*
X163850000Y-151400000D01*
X163700000Y-156000000D02*
X163700000Y-151400000D01*
X163550000Y-156000000D02*
X163550000Y-151400000D01*
X163400000Y-156000000D02*
X163400000Y-151400000D01*
X163250000Y-156000000D02*
X163250000Y-151400000D01*
X163100000Y-156000000D02*
X163100000Y-151400000D01*
X162950000Y-156000000D02*
X162950000Y-151400000D01*
X162800000Y-155850000D02*
X162800000Y-151500000D01*
X162650000Y-155750000D02*
X162650000Y-151650000D01*
X162500000Y-155600000D02*
X162500000Y-151800000D01*
X162350000Y-155450000D02*
X162350000Y-151950000D01*
X162200000Y-155250000D02*
X162200000Y-152100000D01*
X162050000Y-155150000D02*
X162050000Y-152250000D01*
X161900000Y-155000000D02*
X162925000Y-156025000D01*
X161900000Y-152400000D02*
X162925000Y-151375000D01*
X161900000Y-152400000D02*
X161900000Y-155000000D01*
X170500000Y-158225000D02*
G75*
G03*
X171500000Y-157225000I1J999999D01*
G01*
X171500000Y-154575000D02*
G75*
G03*
X170500000Y-153575000I-999999J1D01*
G01*
X166750000Y-152400000D02*
G75*
G03*
X167925000Y-153575000I1175000J0D01*
G01*
X167037798Y-157521905D02*
G75*
G03*
X167899005Y-158223790I900002J225005D01*
G01*
X167037801Y-157521904D02*
G75*
G03*
X164900000Y-156025000I-2137801J-778096D01*
G01*
D13*
X247905000Y-97840000D02*
X249400000Y-97840000D01*
X249430000Y-97840000D02*
X249430000Y-99290000D01*
X249430000Y-99290000D02*
X247905000Y-99290000D01*
D10*
X200250000Y-97610000D02*
X198750000Y-97610000D01*
X198750000Y-97610000D02*
X198750000Y-103010000D01*
X200000000Y-99810000D02*
X199000000Y-99810000D01*
X199500000Y-99910000D02*
X200000000Y-100810000D01*
X200000000Y-100810000D02*
X199000000Y-100810000D01*
X199000000Y-100810000D02*
X199500000Y-99910000D01*
X200250000Y-103010000D02*
X200250000Y-97610000D01*
X198750000Y-103010000D02*
X200250000Y-103010000D01*
D14*
X260092000Y-139134000D02*
X260092000Y-150934000D01*
X264192000Y-139134000D02*
X260092000Y-139134000D01*
X264192000Y-150934000D02*
X260092000Y-150934000D01*
X265692000Y-145034000D02*
X266692000Y-145034000D01*
X266192000Y-144534000D02*
X266192000Y-145534000D01*
X268192000Y-139134000D02*
X272292000Y-139134000D01*
X272292000Y-139134000D02*
X272292000Y-141534000D01*
X272292000Y-143734000D02*
X272292000Y-146334000D01*
X272292000Y-148534000D02*
X272292000Y-150934000D01*
X272292000Y-150934000D02*
X268192000Y-150934000D01*
X269192000Y-145034000D02*
G75*
G03*
X269192000Y-145034000I-3000000J0D01*
G01*
D10*
X248300000Y-131465000D02*
X248300000Y-134115000D01*
X248150000Y-134540000D02*
X248150000Y-130990000D01*
X248050000Y-134690000D02*
X248050000Y-130940000D01*
X247950000Y-134790000D02*
X247950000Y-130840000D01*
X247850000Y-134890000D02*
X247850000Y-130690000D01*
X247700000Y-134990000D02*
X247700000Y-130590000D01*
X247550000Y-135040000D02*
X247550000Y-130540000D01*
X247400000Y-135090000D02*
X247400000Y-130540000D01*
X247300000Y-135115000D02*
X244700000Y-135115000D01*
X247300000Y-130465000D02*
X244725000Y-130465000D01*
X247250000Y-135090000D02*
X247250000Y-130490000D01*
X247100000Y-135090000D02*
X247100000Y-130490000D01*
X246950000Y-135090000D02*
X246950000Y-130490000D01*
X246800000Y-135090000D02*
X246800000Y-130490000D01*
X246650000Y-135090000D02*
X246650000Y-130490000D01*
X246500000Y-135090000D02*
X246500000Y-130490000D01*
X246350000Y-135090000D02*
X246350000Y-130490000D01*
X246200000Y-135090000D02*
X246200000Y-130490000D01*
X246050000Y-135090000D02*
X246050000Y-130490000D01*
X245900000Y-135090000D02*
X245900000Y-130490000D01*
X245750000Y-135090000D02*
X245750000Y-130490000D01*
X245600000Y-135090000D02*
X245600000Y-130490000D01*
X245450000Y-135090000D02*
X245450000Y-130490000D01*
X245300000Y-135090000D02*
X245300000Y-130490000D01*
X245150000Y-135090000D02*
X245150000Y-130490000D01*
X245000000Y-135090000D02*
X245000000Y-130490000D01*
X244850000Y-135090000D02*
X244850000Y-130540000D01*
X244700000Y-135090000D02*
X244700000Y-130490000D01*
X244550000Y-135090000D02*
X244550000Y-130490000D01*
X244400000Y-135040000D02*
X244400000Y-130490000D01*
X244250000Y-134940000D02*
X244250000Y-130390000D01*
X244100000Y-134840000D02*
X244100000Y-130340000D01*
X244000000Y-134690000D02*
X244000000Y-130290000D01*
X243900000Y-134440000D02*
X243900000Y-130240000D01*
X243800000Y-134290000D02*
X243800000Y-130140000D01*
X243700000Y-134090000D02*
X243700000Y-129940000D01*
X243600000Y-133940000D02*
X243600000Y-129790000D01*
X243500000Y-133740000D02*
X243500000Y-129290000D01*
X243350000Y-133590000D02*
X243350000Y-129140000D01*
X243200000Y-133440000D02*
X243200000Y-129040000D01*
X243050000Y-133340000D02*
X243050000Y-128940000D01*
X242900000Y-133240000D02*
X242900000Y-128790000D01*
X242750000Y-133140000D02*
X242750000Y-128690000D01*
X242600000Y-133090000D02*
X242600000Y-128540000D01*
X242450000Y-132990000D02*
X242450000Y-128440000D01*
X242300000Y-132940000D02*
X242300000Y-128340000D01*
X242275000Y-128265000D02*
X243550000Y-129290000D01*
X242275000Y-128265000D02*
X239725000Y-128265000D01*
X242150000Y-132940000D02*
X242150000Y-128290000D01*
X242000000Y-132940000D02*
X242000000Y-128290000D01*
X241850000Y-132890000D02*
X241850000Y-128340000D01*
X241700000Y-132915000D02*
X239725000Y-132915000D01*
X241700000Y-132890000D02*
X241700000Y-128290000D01*
X241550000Y-132890000D02*
X241550000Y-128290000D01*
X241400000Y-132890000D02*
X241400000Y-128290000D01*
X241250000Y-132890000D02*
X241250000Y-128290000D01*
X241100000Y-132890000D02*
X241100000Y-128290000D01*
X240950000Y-132890000D02*
X240950000Y-128290000D01*
X240800000Y-132890000D02*
X240800000Y-128290000D01*
X240650000Y-132890000D02*
X240650000Y-128290000D01*
X240500000Y-132890000D02*
X240500000Y-128290000D01*
X240350000Y-132890000D02*
X240350000Y-128290000D01*
X240200000Y-132890000D02*
X240200000Y-128290000D01*
X240050000Y-132890000D02*
X240050000Y-128290000D01*
X239900000Y-132890000D02*
X239900000Y-128290000D01*
X239750000Y-132890000D02*
X239750000Y-128290000D01*
X239600000Y-132740000D02*
X239600000Y-128390000D01*
X239450000Y-132640000D02*
X239450000Y-128540000D01*
X239300000Y-132490000D02*
X239300000Y-128690000D01*
X239150000Y-132340000D02*
X239150000Y-128840000D01*
X239000000Y-132140000D02*
X239000000Y-128990000D01*
X238850000Y-132040000D02*
X238850000Y-129140000D01*
X238700000Y-131890000D02*
X239725000Y-132915000D01*
X238700000Y-129290000D02*
X239725000Y-128265000D01*
X238700000Y-129290000D02*
X238700000Y-131890000D01*
X247300000Y-135115000D02*
G75*
G03*
X248300000Y-134115000I1J999999D01*
G01*
X248300000Y-131465000D02*
G75*
G03*
X247300000Y-130465000I-999999J1D01*
G01*
X243550000Y-129290000D02*
G75*
G03*
X244725000Y-130465000I1175000J0D01*
G01*
X243837798Y-134411905D02*
G75*
G03*
X244699005Y-135113790I900002J225005D01*
G01*
X243837801Y-134411904D02*
G75*
G03*
X241700000Y-132915000I-2137801J-778096D01*
G01*
D13*
X171105000Y-140950000D02*
X172600000Y-140950000D01*
X172630000Y-140950000D02*
X172630000Y-142400000D01*
X172630000Y-142400000D02*
X171105000Y-142400000D01*
D10*
X238550000Y-100500000D02*
X237050000Y-100500000D01*
X237050000Y-100500000D02*
X237050000Y-105900000D01*
X238300000Y-102700000D02*
X237300000Y-102700000D01*
X237800000Y-102800000D02*
X238300000Y-103700000D01*
X238300000Y-103700000D02*
X237300000Y-103700000D01*
X237300000Y-103700000D02*
X237800000Y-102800000D01*
X238550000Y-105900000D02*
X238550000Y-100500000D01*
X237050000Y-105900000D02*
X238550000Y-105900000D01*
X248300000Y-150665000D02*
X248300000Y-153315000D01*
X248150000Y-153740000D02*
X248150000Y-150190000D01*
X248050000Y-153890000D02*
X248050000Y-150140000D01*
X247950000Y-153990000D02*
X247950000Y-150040000D01*
X247850000Y-154090000D02*
X247850000Y-149890000D01*
X247700000Y-154190000D02*
X247700000Y-149790000D01*
X247550000Y-154240000D02*
X247550000Y-149740000D01*
X247400000Y-154290000D02*
X247400000Y-149740000D01*
X247300000Y-154315000D02*
X244700000Y-154315000D01*
X247300000Y-149665000D02*
X244725000Y-149665000D01*
X247250000Y-154290000D02*
X247250000Y-149690000D01*
X247100000Y-154290000D02*
X247100000Y-149690000D01*
X246950000Y-154290000D02*
X246950000Y-149690000D01*
X246800000Y-154290000D02*
X246800000Y-149690000D01*
X246650000Y-154290000D02*
X246650000Y-149690000D01*
X246500000Y-154290000D02*
X246500000Y-149690000D01*
X246350000Y-154290000D02*
X246350000Y-149690000D01*
X246200000Y-154290000D02*
X246200000Y-149690000D01*
X246050000Y-154290000D02*
X246050000Y-149690000D01*
X245900000Y-154290000D02*
X245900000Y-149690000D01*
X245750000Y-154290000D02*
X245750000Y-149690000D01*
X245600000Y-154290000D02*
X245600000Y-149690000D01*
X245450000Y-154290000D02*
X245450000Y-149690000D01*
X245300000Y-154290000D02*
X245300000Y-149690000D01*
X245150000Y-154290000D02*
X245150000Y-149690000D01*
X245000000Y-154290000D02*
X245000000Y-149690000D01*
X244850000Y-154290000D02*
X244850000Y-149740000D01*
X244700000Y-154290000D02*
X244700000Y-149690000D01*
X244550000Y-154290000D02*
X244550000Y-149690000D01*
X244400000Y-154240000D02*
X244400000Y-149690000D01*
X244250000Y-154140000D02*
X244250000Y-149590000D01*
X244100000Y-154040000D02*
X244100000Y-149540000D01*
X244000000Y-153890000D02*
X244000000Y-149490000D01*
X243900000Y-153640000D02*
X243900000Y-149440000D01*
X243800000Y-153490000D02*
X243800000Y-149340000D01*
X243700000Y-153290000D02*
X243700000Y-149140000D01*
X243600000Y-153140000D02*
X243600000Y-148990000D01*
X243500000Y-152940000D02*
X243500000Y-148490000D01*
X243350000Y-152790000D02*
X243350000Y-148340000D01*
X243200000Y-152640000D02*
X243200000Y-148240000D01*
X243050000Y-152540000D02*
X243050000Y-148140000D01*
X242900000Y-152440000D02*
X242900000Y-147990000D01*
X242750000Y-152340000D02*
X242750000Y-147890000D01*
X242600000Y-152290000D02*
X242600000Y-147740000D01*
X242450000Y-152190000D02*
X242450000Y-147640000D01*
X242300000Y-152140000D02*
X242300000Y-147540000D01*
X242275000Y-147465000D02*
X243550000Y-148490000D01*
X242275000Y-147465000D02*
X239725000Y-147465000D01*
X242150000Y-152140000D02*
X242150000Y-147490000D01*
X242000000Y-152140000D02*
X242000000Y-147490000D01*
X241850000Y-152090000D02*
X241850000Y-147540000D01*
X241700000Y-152115000D02*
X239725000Y-152115000D01*
X241700000Y-152090000D02*
X241700000Y-147490000D01*
X241550000Y-152090000D02*
X241550000Y-147490000D01*
X241400000Y-152090000D02*
X241400000Y-147490000D01*
X241250000Y-152090000D02*
X241250000Y-147490000D01*
X241100000Y-152090000D02*
X241100000Y-147490000D01*
X240950000Y-152090000D02*
X240950000Y-147490000D01*
X240800000Y-152090000D02*
X240800000Y-147490000D01*
X240650000Y-152090000D02*
X240650000Y-147490000D01*
X240500000Y-152090000D02*
X240500000Y-147490000D01*
X240350000Y-152090000D02*
X240350000Y-147490000D01*
X240200000Y-152090000D02*
X240200000Y-147490000D01*
X240050000Y-152090000D02*
X240050000Y-147490000D01*
X239900000Y-152090000D02*
X239900000Y-147490000D01*
X239750000Y-152090000D02*
X239750000Y-147490000D01*
X239600000Y-151940000D02*
X239600000Y-147590000D01*
X239450000Y-151840000D02*
X239450000Y-147740000D01*
X239300000Y-151690000D02*
X239300000Y-147890000D01*
X239150000Y-151540000D02*
X239150000Y-148040000D01*
X239000000Y-151340000D02*
X239000000Y-148190000D01*
X238850000Y-151240000D02*
X238850000Y-148340000D01*
X238700000Y-151090000D02*
X239725000Y-152115000D01*
X238700000Y-148490000D02*
X239725000Y-147465000D01*
X238700000Y-148490000D02*
X238700000Y-151090000D01*
X247300000Y-154315000D02*
G75*
G03*
X248300000Y-153315000I1J999999D01*
G01*
X248300000Y-150665000D02*
G75*
G03*
X247300000Y-149665000I-999999J1D01*
G01*
X243550000Y-148490000D02*
G75*
G03*
X244725000Y-149665000I1175000J0D01*
G01*
X243837798Y-153611905D02*
G75*
G03*
X244699005Y-154313790I900002J225005D01*
G01*
X243837801Y-153611904D02*
G75*
G03*
X241700000Y-152115000I-2137801J-778096D01*
G01*
X142650000Y-126500000D02*
X141150000Y-126500000D01*
X141150000Y-126500000D02*
X141150000Y-131900000D01*
X142400000Y-128700000D02*
X141400000Y-128700000D01*
X141900000Y-128800000D02*
X142400000Y-129700000D01*
X142400000Y-129700000D02*
X141400000Y-129700000D01*
X141400000Y-129700000D02*
X141900000Y-128800000D01*
X142650000Y-131900000D02*
X142650000Y-126500000D01*
X141150000Y-131900000D02*
X142650000Y-131900000D01*
D11*
X179019200Y-116001800D02*
X186182000Y-116001800D01*
X186182000Y-116001800D02*
X186182000Y-112852200D01*
X186182000Y-112852200D02*
X179019200Y-112852200D01*
X179019200Y-112852200D02*
X179019200Y-116001800D01*
D10*
X152300000Y-135375000D02*
X152300000Y-138025000D01*
X152150000Y-138450000D02*
X152150000Y-134900000D01*
X152050000Y-138600000D02*
X152050000Y-134850000D01*
X151950000Y-138700000D02*
X151950000Y-134750000D01*
X151850000Y-138800000D02*
X151850000Y-134600000D01*
X151700000Y-138900000D02*
X151700000Y-134500000D01*
X151550000Y-138950000D02*
X151550000Y-134450000D01*
X151400000Y-139000000D02*
X151400000Y-134450000D01*
X151300000Y-139025000D02*
X148700000Y-139025000D01*
X151300000Y-134375000D02*
X148725000Y-134375000D01*
X151250000Y-139000000D02*
X151250000Y-134400000D01*
X151100000Y-139000000D02*
X151100000Y-134400000D01*
X150950000Y-139000000D02*
X150950000Y-134400000D01*
X150800000Y-139000000D02*
X150800000Y-134400000D01*
X150650000Y-139000000D02*
X150650000Y-134400000D01*
X150500000Y-139000000D02*
X150500000Y-134400000D01*
X150350000Y-139000000D02*
X150350000Y-134400000D01*
X150200000Y-139000000D02*
X150200000Y-134400000D01*
X150050000Y-139000000D02*
X150050000Y-134400000D01*
X149900000Y-139000000D02*
X149900000Y-134400000D01*
X149750000Y-139000000D02*
X149750000Y-134400000D01*
X149600000Y-139000000D02*
X149600000Y-134400000D01*
X149450000Y-139000000D02*
X149450000Y-134400000D01*
X149300000Y-139000000D02*
X149300000Y-134400000D01*
X149150000Y-139000000D02*
X149150000Y-134400000D01*
X149000000Y-139000000D02*
X149000000Y-134400000D01*
X148850000Y-139000000D02*
X148850000Y-134450000D01*
X148700000Y-139000000D02*
X148700000Y-134400000D01*
X148550000Y-139000000D02*
X148550000Y-134400000D01*
X148400000Y-138950000D02*
X148400000Y-134400000D01*
X148250000Y-138850000D02*
X148250000Y-134300000D01*
X148100000Y-138750000D02*
X148100000Y-134250000D01*
X148000000Y-138600000D02*
X148000000Y-134200000D01*
X147900000Y-138350000D02*
X147900000Y-134150000D01*
X147800000Y-138200000D02*
X147800000Y-134050000D01*
X147700000Y-138000000D02*
X147700000Y-133850000D01*
X147600000Y-137850000D02*
X147600000Y-133700000D01*
X147500000Y-137650000D02*
X147500000Y-133200000D01*
X147350000Y-137500000D02*
X147350000Y-133050000D01*
X147200000Y-137350000D02*
X147200000Y-132950000D01*
X147050000Y-137250000D02*
X147050000Y-132850000D01*
X146900000Y-137150000D02*
X146900000Y-132700000D01*
X146750000Y-137050000D02*
X146750000Y-132600000D01*
X146600000Y-137000000D02*
X146600000Y-132450000D01*
X146450000Y-136900000D02*
X146450000Y-132350000D01*
X146300000Y-136850000D02*
X146300000Y-132250000D01*
X146275000Y-132175000D02*
X147550000Y-133200000D01*
X146275000Y-132175000D02*
X143725000Y-132175000D01*
X146150000Y-136850000D02*
X146150000Y-132200000D01*
X146000000Y-136850000D02*
X146000000Y-132200000D01*
X145850000Y-136800000D02*
X145850000Y-132250000D01*
X145700000Y-136825000D02*
X143725000Y-136825000D01*
X145700000Y-136800000D02*
X145700000Y-132200000D01*
X145550000Y-136800000D02*
X145550000Y-132200000D01*
X145400000Y-136800000D02*
X145400000Y-132200000D01*
X145250000Y-136800000D02*
X145250000Y-132200000D01*
X145100000Y-136800000D02*
X145100000Y-132200000D01*
X144950000Y-136800000D02*
X144950000Y-132200000D01*
X144800000Y-136800000D02*
X144800000Y-132200000D01*
X144650000Y-136800000D02*
X144650000Y-132200000D01*
X144500000Y-136800000D02*
X144500000Y-132200000D01*
X144350000Y-136800000D02*
X144350000Y-132200000D01*
X144200000Y-136800000D02*
X144200000Y-132200000D01*
X144050000Y-136800000D02*
X144050000Y-132200000D01*
X143900000Y-136800000D02*
X143900000Y-132200000D01*
X143750000Y-136800000D02*
X143750000Y-132200000D01*
X143600000Y-136650000D02*
X143600000Y-132300000D01*
X143450000Y-136550000D02*
X143450000Y-132450000D01*
X143300000Y-136400000D02*
X143300000Y-132600000D01*
X143150000Y-136250000D02*
X143150000Y-132750000D01*
X143000000Y-136050000D02*
X143000000Y-132900000D01*
X142850000Y-135950000D02*
X142850000Y-133050000D01*
X142700000Y-135800000D02*
X143725000Y-136825000D01*
X142700000Y-133200000D02*
X143725000Y-132175000D01*
X142700000Y-133200000D02*
X142700000Y-135800000D01*
X151300000Y-139025000D02*
G75*
G03*
X152300000Y-138025000I1J999999D01*
G01*
X152300000Y-135375000D02*
G75*
G03*
X151300000Y-134375000I-999999J1D01*
G01*
X147550000Y-133200000D02*
G75*
G03*
X148725000Y-134375000I1175000J0D01*
G01*
X147837798Y-138321905D02*
G75*
G03*
X148699005Y-139023790I900002J225005D01*
G01*
X147837801Y-138321904D02*
G75*
G03*
X145700000Y-136825000I-2137801J-778096D01*
G01*
X258060800Y-98742000D02*
X258060800Y-129222000D01*
X258060800Y-129222000D02*
X260600800Y-129222000D01*
X260600800Y-98742000D02*
X258060800Y-98742000D01*
X260600800Y-129222000D02*
X260600800Y-98742000D01*
X273300800Y-98742000D02*
X273300800Y-129222000D01*
X273300800Y-129222000D02*
X275840800Y-129222000D01*
X275840800Y-98742000D02*
X273300800Y-98742000D01*
X275840800Y-129222000D02*
X275840800Y-98742000D01*
X263079000Y-96216000D02*
X269079000Y-96216000D01*
X263079000Y-108216000D02*
X263079000Y-96216000D01*
X269079000Y-96216000D02*
X269079000Y-108216000D01*
X269079000Y-108216000D02*
X263079000Y-108216000D01*
X266398621Y-171812537D02*
X268888807Y-172718891D01*
X269236873Y-173005203D02*
X265900964Y-171791031D01*
X269343625Y-173150475D02*
X265819777Y-171867900D01*
X269403392Y-173278646D02*
X265691605Y-171927667D01*
X269463159Y-173406818D02*
X265516450Y-171970333D01*
X269505825Y-173581974D02*
X265371178Y-172077085D01*
X269501507Y-173740029D02*
X265272890Y-172200938D01*
X269497189Y-173898084D02*
X265221588Y-172341891D01*
X269486479Y-174000603D02*
X268597227Y-176443804D01*
X265116908Y-172410210D02*
X264236206Y-174829918D01*
X269445886Y-174039037D02*
X265123299Y-172465744D01*
X269394583Y-174179991D02*
X265071997Y-172606699D01*
X269343280Y-174320945D02*
X265020694Y-172747653D01*
X269291977Y-174461899D02*
X264969390Y-172888607D01*
X269240673Y-174602853D02*
X264918087Y-173029560D01*
X269189371Y-174743807D02*
X264866784Y-173170514D01*
X269138068Y-174884761D02*
X264815481Y-173311468D01*
X269086765Y-175025715D02*
X264764178Y-173452422D01*
X269035461Y-175166669D02*
X264712875Y-173593376D01*
X268984158Y-175307623D02*
X264661572Y-173734331D01*
X268932855Y-175448576D02*
X264610268Y-173875283D01*
X268881552Y-175589530D02*
X264558966Y-174016238D01*
X268830249Y-175730484D02*
X264507663Y-174157191D01*
X268778946Y-175871438D02*
X264456360Y-174298145D01*
X268727643Y-176012393D02*
X264405057Y-174439100D01*
X268676340Y-176153346D02*
X264353753Y-174580053D01*
X268625037Y-176294300D02*
X264349436Y-174738108D01*
X268573734Y-176435254D02*
X264251148Y-174861961D01*
X268522431Y-176576207D02*
X264199845Y-175002915D01*
X268424144Y-176700060D02*
X264148542Y-175143870D01*
X268278872Y-176806811D02*
X264003270Y-175250621D01*
X268133599Y-176913564D02*
X263904982Y-175374473D01*
X267958443Y-176956230D02*
X263823796Y-175451342D01*
X267689318Y-176964695D02*
X263742609Y-175528210D01*
X267514162Y-177007361D02*
X263614438Y-175587977D01*
X267292022Y-177032926D02*
X263392296Y-175613542D01*
X267116866Y-177075592D02*
X263217141Y-175656209D01*
X266894725Y-177101158D02*
X262713093Y-175579168D01*
X266702468Y-177190808D02*
X262520836Y-175668819D01*
X266510211Y-177280459D02*
X262375564Y-175775571D01*
X266364939Y-177387211D02*
X262230291Y-175882323D01*
X266219667Y-177493963D02*
X262038035Y-175971973D01*
X266074394Y-177600715D02*
X261892762Y-176078725D01*
X265976107Y-177724567D02*
X261700505Y-176168376D01*
X265830834Y-177831320D02*
X261555233Y-176275128D01*
X265732547Y-177955173D02*
X261409961Y-176381880D01*
X261330933Y-176379721D02*
X262730194Y-175532183D01*
X261330933Y-176379721D02*
X260458782Y-178775937D01*
X265681244Y-178096126D02*
X261311673Y-176505733D01*
X265629941Y-178237080D02*
X261260371Y-176646687D01*
X265531652Y-178360933D02*
X261256052Y-176804742D01*
X265503842Y-178510438D02*
X264828353Y-180366331D01*
X265480350Y-178501887D02*
X261157764Y-176928594D01*
X265429047Y-178642841D02*
X261106461Y-177069548D01*
X265377744Y-178783795D02*
X261055158Y-177210502D01*
X265326441Y-178924749D02*
X261003856Y-177351456D01*
X265275137Y-179065702D02*
X260952552Y-177492409D01*
X265223834Y-179206656D02*
X260901249Y-177633364D01*
X265172532Y-179347610D02*
X260849946Y-177774318D01*
X265121229Y-179488564D02*
X260798643Y-177915272D01*
X265069926Y-179629518D02*
X260747341Y-178056226D01*
X265018623Y-179770473D02*
X260696038Y-178197180D01*
X264967319Y-179911426D02*
X260644734Y-178338132D01*
X264916017Y-180052380D02*
X260593431Y-178479087D01*
X264864714Y-180193334D02*
X260542128Y-178620041D01*
X264813411Y-180334288D02*
X260490825Y-178760995D01*
X264621155Y-180423939D02*
X260533491Y-178936151D01*
X264475882Y-180530690D02*
X260623142Y-179128408D01*
X264283625Y-180620341D02*
X260712793Y-179320665D01*
X264091368Y-180709992D02*
X260802444Y-179512922D01*
X263852126Y-180782542D02*
X260892095Y-179705179D01*
X263706854Y-180889294D02*
X260981745Y-179897436D01*
X263514597Y-180978945D02*
X264828353Y-180366331D01*
X261071396Y-180089692D02*
X260458782Y-178775937D01*
X261071396Y-180089692D02*
X263514597Y-180978945D01*
X269486480Y-174000603D02*
G75*
G03*
X268888807Y-172718891I-939692J342020D01*
G01*
X266398621Y-171812538D02*
G75*
G03*
X265116909Y-172410210I-342021J-939690D01*
G01*
X262730194Y-175532182D02*
G75*
G03*
X264236206Y-174829918I401874J1104138D01*
G01*
X267641642Y-177013537D02*
G75*
G03*
X268595750Y-176444327I96384J922682D01*
G01*
X267641643Y-177013534D02*
G75*
G03*
X265503843Y-178510438I0J-2274999D01*
G01*
X190700000Y-128575000D02*
X190700000Y-131225000D01*
X190550000Y-131650000D02*
X190550000Y-128100000D01*
X190450000Y-131800000D02*
X190450000Y-128050000D01*
X190350000Y-131900000D02*
X190350000Y-127950000D01*
X190250000Y-132000000D02*
X190250000Y-127800000D01*
X190100000Y-132100000D02*
X190100000Y-127700000D01*
X189950000Y-132150000D02*
X189950000Y-127650000D01*
X189800000Y-132200000D02*
X189800000Y-127650000D01*
X189700000Y-132225000D02*
X187100000Y-132225000D01*
X189700000Y-127575000D02*
X187125000Y-127575000D01*
X189650000Y-132200000D02*
X189650000Y-127600000D01*
X189500000Y-132200000D02*
X189500000Y-127600000D01*
X189350000Y-132200000D02*
X189350000Y-127600000D01*
X189200000Y-132200000D02*
X189200000Y-127600000D01*
X189050000Y-132200000D02*
X189050000Y-127600000D01*
X188900000Y-132200000D02*
X188900000Y-127600000D01*
X188750000Y-132200000D02*
X188750000Y-127600000D01*
X188600000Y-132200000D02*
X188600000Y-127600000D01*
X188450000Y-132200000D02*
X188450000Y-127600000D01*
X188300000Y-132200000D02*
X188300000Y-127600000D01*
X188150000Y-132200000D02*
X188150000Y-127600000D01*
X188000000Y-132200000D02*
X188000000Y-127600000D01*
X187850000Y-132200000D02*
X187850000Y-127600000D01*
X187700000Y-132200000D02*
X187700000Y-127600000D01*
X187550000Y-132200000D02*
X187550000Y-127600000D01*
X187400000Y-132200000D02*
X187400000Y-127600000D01*
X187250000Y-132200000D02*
X187250000Y-127650000D01*
X187100000Y-132200000D02*
X187100000Y-127600000D01*
X186950000Y-132200000D02*
X186950000Y-127600000D01*
X186800000Y-132150000D02*
X186800000Y-127600000D01*
X186650000Y-132050000D02*
X186650000Y-127500000D01*
X186500000Y-131950000D02*
X186500000Y-127450000D01*
X186400000Y-131800000D02*
X186400000Y-127400000D01*
X186300000Y-131550000D02*
X186300000Y-127350000D01*
X186200000Y-131400000D02*
X186200000Y-127250000D01*
X186100000Y-131200000D02*
X186100000Y-127050000D01*
X186000000Y-131050000D02*
X186000000Y-126900000D01*
X185900000Y-130850000D02*
X185900000Y-126400000D01*
X185750000Y-130700000D02*
X185750000Y-126250000D01*
X185600000Y-130550000D02*
X185600000Y-126150000D01*
X185450000Y-130450000D02*
X185450000Y-126050000D01*
X185300000Y-130350000D02*
X185300000Y-125900000D01*
X185150000Y-130250000D02*
X185150000Y-125800000D01*
X185000000Y-130200000D02*
X185000000Y-125650000D01*
X184850000Y-130100000D02*
X184850000Y-125550000D01*
X184700000Y-130050000D02*
X184700000Y-125450000D01*
X184675000Y-125375000D02*
X185950000Y-126400000D01*
X184675000Y-125375000D02*
X182125000Y-125375000D01*
X184550000Y-130050000D02*
X184550000Y-125400000D01*
X184400000Y-130050000D02*
X184400000Y-125400000D01*
X184250000Y-130000000D02*
X184250000Y-125450000D01*
X184100000Y-130025000D02*
X182125000Y-130025000D01*
X184100000Y-130000000D02*
X184100000Y-125400000D01*
X183950000Y-130000000D02*
X183950000Y-125400000D01*
X183800000Y-130000000D02*
X183800000Y-125400000D01*
X183650000Y-130000000D02*
X183650000Y-125400000D01*
X183500000Y-130000000D02*
X183500000Y-125400000D01*
X183350000Y-130000000D02*
X183350000Y-125400000D01*
X183200000Y-130000000D02*
X183200000Y-125400000D01*
X183050000Y-130000000D02*
X183050000Y-125400000D01*
X182900000Y-130000000D02*
X182900000Y-125400000D01*
X182750000Y-130000000D02*
X182750000Y-125400000D01*
X182600000Y-130000000D02*
X182600000Y-125400000D01*
X182450000Y-130000000D02*
X182450000Y-125400000D01*
X182300000Y-130000000D02*
X182300000Y-125400000D01*
X182150000Y-130000000D02*
X182150000Y-125400000D01*
X182000000Y-129850000D02*
X182000000Y-125500000D01*
X181850000Y-129750000D02*
X181850000Y-125650000D01*
X181700000Y-129600000D02*
X181700000Y-125800000D01*
X181550000Y-129450000D02*
X181550000Y-125950000D01*
X181400000Y-129250000D02*
X181400000Y-126100000D01*
X181250000Y-129150000D02*
X181250000Y-126250000D01*
X181100000Y-129000000D02*
X182125000Y-130025000D01*
X181100000Y-126400000D02*
X182125000Y-125375000D01*
X181100000Y-126400000D02*
X181100000Y-129000000D01*
X189700000Y-132225000D02*
G75*
G03*
X190700000Y-131225000I1J999999D01*
G01*
X190700000Y-128575000D02*
G75*
G03*
X189700000Y-127575000I-999999J1D01*
G01*
X185950000Y-126400000D02*
G75*
G03*
X187125000Y-127575000I1175000J0D01*
G01*
X186237798Y-131521905D02*
G75*
G03*
X187099005Y-132223790I900002J225005D01*
G01*
X186237801Y-131521904D02*
G75*
G03*
X184100000Y-130025000I-2137801J-778096D01*
G01*
X238550000Y-119700000D02*
X237050000Y-119700000D01*
X237050000Y-119700000D02*
X237050000Y-125100000D01*
X238300000Y-121900000D02*
X237300000Y-121900000D01*
X237800000Y-122000000D02*
X238300000Y-122900000D01*
X238300000Y-122900000D02*
X237300000Y-122900000D01*
X237300000Y-122900000D02*
X237800000Y-122000000D01*
X238550000Y-125100000D02*
X238550000Y-119700000D01*
X237050000Y-125100000D02*
X238550000Y-125100000D01*
D13*
X220603349Y-160916696D02*
X222092660Y-161046994D01*
X222122545Y-161049608D02*
X221996170Y-162494091D01*
X221996170Y-162494091D02*
X220476973Y-162361178D01*
D10*
X269447965Y-195961856D02*
X268934935Y-197371395D01*
X268934935Y-197371395D02*
X274009275Y-199218304D01*
X271429784Y-196949224D02*
X271087764Y-197888916D01*
X271352743Y-197453272D02*
X272369476Y-197291244D01*
X272369476Y-197291244D02*
X272027456Y-198230936D01*
X272027456Y-198230936D02*
X271352743Y-197453272D01*
X274522305Y-197808765D02*
X269447965Y-195961856D01*
X274009275Y-199218304D02*
X274522305Y-197808765D01*
X190700000Y-109375000D02*
X190700000Y-112025000D01*
X190550000Y-112450000D02*
X190550000Y-108900000D01*
X190450000Y-112600000D02*
X190450000Y-108850000D01*
X190350000Y-112700000D02*
X190350000Y-108750000D01*
X190250000Y-112800000D02*
X190250000Y-108600000D01*
X190100000Y-112900000D02*
X190100000Y-108500000D01*
X189950000Y-112950000D02*
X189950000Y-108450000D01*
X189800000Y-113000000D02*
X189800000Y-108450000D01*
X189700000Y-113025000D02*
X187100000Y-113025000D01*
X189700000Y-108375000D02*
X187125000Y-108375000D01*
X189650000Y-113000000D02*
X189650000Y-108400000D01*
X189500000Y-113000000D02*
X189500000Y-108400000D01*
X189350000Y-113000000D02*
X189350000Y-108400000D01*
X189200000Y-113000000D02*
X189200000Y-108400000D01*
X189050000Y-113000000D02*
X189050000Y-108400000D01*
X188900000Y-113000000D02*
X188900000Y-108400000D01*
X188750000Y-113000000D02*
X188750000Y-108400000D01*
X188600000Y-113000000D02*
X188600000Y-108400000D01*
X188450000Y-113000000D02*
X188450000Y-108400000D01*
X188300000Y-113000000D02*
X188300000Y-108400000D01*
X188150000Y-113000000D02*
X188150000Y-108400000D01*
X188000000Y-113000000D02*
X188000000Y-108400000D01*
X187850000Y-113000000D02*
X187850000Y-108400000D01*
X187700000Y-113000000D02*
X187700000Y-108400000D01*
X187550000Y-113000000D02*
X187550000Y-108400000D01*
X187400000Y-113000000D02*
X187400000Y-108400000D01*
X187250000Y-113000000D02*
X187250000Y-108450000D01*
X187100000Y-113000000D02*
X187100000Y-108400000D01*
X186950000Y-113000000D02*
X186950000Y-108400000D01*
X186800000Y-112950000D02*
X186800000Y-108400000D01*
X186650000Y-112850000D02*
X186650000Y-108300000D01*
X186500000Y-112750000D02*
X186500000Y-108250000D01*
X186400000Y-112600000D02*
X186400000Y-108200000D01*
X186300000Y-112350000D02*
X186300000Y-108150000D01*
X186200000Y-112200000D02*
X186200000Y-108050000D01*
X186100000Y-112000000D02*
X186100000Y-107850000D01*
X186000000Y-111850000D02*
X186000000Y-107700000D01*
X185900000Y-111650000D02*
X185900000Y-107200000D01*
X185750000Y-111500000D02*
X185750000Y-107050000D01*
X185600000Y-111350000D02*
X185600000Y-106950000D01*
X185450000Y-111250000D02*
X185450000Y-106850000D01*
X185300000Y-111150000D02*
X185300000Y-106700000D01*
X185150000Y-111050000D02*
X185150000Y-106600000D01*
X185000000Y-111000000D02*
X185000000Y-106450000D01*
X184850000Y-110900000D02*
X184850000Y-106350000D01*
X184700000Y-110850000D02*
X184700000Y-106250000D01*
X184675000Y-106175000D02*
X185950000Y-107200000D01*
X184675000Y-106175000D02*
X182125000Y-106175000D01*
X184550000Y-110850000D02*
X184550000Y-106200000D01*
X184400000Y-110850000D02*
X184400000Y-106200000D01*
X184250000Y-110800000D02*
X184250000Y-106250000D01*
X184100000Y-110825000D02*
X182125000Y-110825000D01*
X184100000Y-110800000D02*
X184100000Y-106200000D01*
X183950000Y-110800000D02*
X183950000Y-106200000D01*
X183800000Y-110800000D02*
X183800000Y-106200000D01*
X183650000Y-110800000D02*
X183650000Y-106200000D01*
X183500000Y-110800000D02*
X183500000Y-106200000D01*
X183350000Y-110800000D02*
X183350000Y-106200000D01*
X183200000Y-110800000D02*
X183200000Y-106200000D01*
X183050000Y-110800000D02*
X183050000Y-106200000D01*
X182900000Y-110800000D02*
X182900000Y-106200000D01*
X182750000Y-110800000D02*
X182750000Y-106200000D01*
X182600000Y-110800000D02*
X182600000Y-106200000D01*
X182450000Y-110800000D02*
X182450000Y-106200000D01*
X182300000Y-110800000D02*
X182300000Y-106200000D01*
X182150000Y-110800000D02*
X182150000Y-106200000D01*
X182000000Y-110650000D02*
X182000000Y-106300000D01*
X181850000Y-110550000D02*
X181850000Y-106450000D01*
X181700000Y-110400000D02*
X181700000Y-106600000D01*
X181550000Y-110250000D02*
X181550000Y-106750000D01*
X181400000Y-110050000D02*
X181400000Y-106900000D01*
X181250000Y-109950000D02*
X181250000Y-107050000D01*
X181100000Y-109800000D02*
X182125000Y-110825000D01*
X181100000Y-107200000D02*
X182125000Y-106175000D01*
X181100000Y-107200000D02*
X181100000Y-109800000D01*
X189700000Y-113025000D02*
G75*
G03*
X190700000Y-112025000I1J999999D01*
G01*
X190700000Y-109375000D02*
G75*
G03*
X189700000Y-108375000I-999999J1D01*
G01*
X185950000Y-107200000D02*
G75*
G03*
X187125000Y-108375000I1175000J0D01*
G01*
X186237798Y-112321905D02*
G75*
G03*
X187099005Y-113023790I900002J225005D01*
G01*
X186237801Y-112321904D02*
G75*
G03*
X184100000Y-110825000I-2137801J-778096D01*
G01*
X240290321Y-173217792D02*
X239784678Y-175819104D01*
X239556340Y-176207674D02*
X240233712Y-172722898D01*
X239429556Y-176335837D02*
X240145089Y-172654736D01*
X239312312Y-176414919D02*
X240066007Y-172537492D01*
X239195068Y-176494001D02*
X239996466Y-172371167D01*
X239028743Y-176563542D02*
X239868303Y-172244383D01*
X238871959Y-176584002D02*
X239730599Y-172166680D01*
X238715174Y-176604462D02*
X239583355Y-172138059D01*
X238612241Y-176609922D02*
X236060011Y-176113819D01*
X239499503Y-172045356D02*
X236971813Y-171554023D01*
X238567930Y-176575841D02*
X239445652Y-172060356D01*
X238420686Y-176547220D02*
X239298408Y-172031735D01*
X238273442Y-176518598D02*
X239151163Y-172003113D01*
X238126198Y-176489977D02*
X239003919Y-171974492D01*
X237978954Y-176461356D02*
X238856675Y-171945871D01*
X237831710Y-176432734D02*
X238709431Y-171917249D01*
X237684466Y-176404113D02*
X238562187Y-171888628D01*
X237537222Y-176375492D02*
X238414943Y-171860007D01*
X237389978Y-176346870D02*
X238267699Y-171831385D01*
X237242734Y-176318249D02*
X238120455Y-171802764D01*
X237095489Y-176289628D02*
X237973211Y-171774143D01*
X236948245Y-176261006D02*
X237825967Y-171745521D01*
X236801001Y-176232385D02*
X237678723Y-171716900D01*
X236653757Y-176203764D02*
X237531479Y-171688279D01*
X236506513Y-176175142D02*
X237384235Y-171659657D01*
X236359269Y-176146521D02*
X237236990Y-171631036D01*
X236212025Y-176117900D02*
X237080206Y-171651496D01*
X236064781Y-176089278D02*
X236942502Y-171573793D01*
X235917537Y-176060657D02*
X236795258Y-171545172D01*
X235779833Y-175982954D02*
X236648014Y-171516550D01*
X235651670Y-175856170D02*
X236519851Y-171389766D01*
X235523507Y-175729386D02*
X236382147Y-171312064D01*
X235453965Y-175563061D02*
X236293525Y-171243901D01*
X235403505Y-175298573D02*
X236204903Y-171175739D01*
X235333964Y-175132248D02*
X236125821Y-171058496D01*
X235273963Y-174916842D02*
X236065820Y-170843089D01*
X235204421Y-174750517D02*
X235996279Y-170676764D01*
X235144420Y-174535111D02*
X235993520Y-170166870D01*
X235025798Y-174359245D02*
X235874898Y-169991004D01*
X234907175Y-174183380D02*
X235746735Y-169864220D01*
X234779012Y-174056596D02*
X235618571Y-169737436D01*
X234650849Y-173929812D02*
X235499949Y-169561571D01*
X234522685Y-173803028D02*
X235371785Y-169434787D01*
X234384982Y-173725325D02*
X235253163Y-169258921D01*
X234256819Y-173598541D02*
X235125000Y-169132137D01*
X234119115Y-173520838D02*
X234996836Y-169005353D01*
X234986606Y-168926961D02*
X236042602Y-170176410D01*
X234986606Y-168926961D02*
X232483457Y-168440398D01*
X233971871Y-173492217D02*
X234859133Y-168927650D01*
X233824627Y-173463595D02*
X234711889Y-168899029D01*
X233686923Y-173385893D02*
X234555104Y-168919489D01*
X233534909Y-173381812D02*
X231596195Y-173004964D01*
X233539679Y-173357271D02*
X234417401Y-168841786D01*
X233392435Y-173328650D02*
X234270156Y-168813165D01*
X233245191Y-173300029D02*
X234122912Y-168784544D01*
X233097947Y-173271407D02*
X233975668Y-168755922D01*
X232950703Y-173242786D02*
X233828424Y-168727301D01*
X232803459Y-173214165D02*
X233681180Y-168698680D01*
X232656215Y-173185543D02*
X233533936Y-168670058D01*
X232508971Y-173156922D02*
X233386692Y-168641437D01*
X232361727Y-173128301D02*
X233239448Y-168612816D01*
X232214482Y-173099679D02*
X233092204Y-168584194D01*
X232067238Y-173071058D02*
X232944960Y-168555573D01*
X231919994Y-173042437D02*
X232797716Y-168526952D01*
X231772750Y-173013815D02*
X232650472Y-168498330D01*
X231625506Y-172985194D02*
X232503228Y-168469709D01*
X231506883Y-172809328D02*
X232336903Y-168539250D01*
X231378720Y-172682544D02*
X232161037Y-168657873D01*
X231260097Y-172506679D02*
X231985172Y-168776496D01*
X231141475Y-172330814D02*
X231809306Y-168895118D01*
X231032392Y-172105867D02*
X231633441Y-169013741D01*
X230904229Y-171979083D02*
X231457575Y-169132364D01*
X230785607Y-171803217D02*
X231596195Y-173004964D01*
X231281710Y-169250987D02*
X232483457Y-168440398D01*
X231281710Y-169250987D02*
X230785607Y-171803217D01*
X238612241Y-176609922D02*
G75*
G03*
X239784677Y-175819104I190810J981626D01*
G01*
X240290320Y-173217792D02*
G75*
G03*
X239499503Y-172045357I-981625J190810D01*
G01*
X236042602Y-170176410D02*
G75*
G03*
X236971813Y-171554023I1153412J-224201D01*
G01*
X235347806Y-175259125D02*
G75*
G03*
X236059265Y-176112442I926400J49142D01*
G01*
X235347809Y-175259125D02*
G75*
G03*
X233534909Y-173381812I-2246991J-355889D01*
G01*
X229100000Y-109375000D02*
X229100000Y-112025000D01*
X228950000Y-112450000D02*
X228950000Y-108900000D01*
X228850000Y-112600000D02*
X228850000Y-108850000D01*
X228750000Y-112700000D02*
X228750000Y-108750000D01*
X228650000Y-112800000D02*
X228650000Y-108600000D01*
X228500000Y-112900000D02*
X228500000Y-108500000D01*
X228350000Y-112950000D02*
X228350000Y-108450000D01*
X228200000Y-113000000D02*
X228200000Y-108450000D01*
X228100000Y-113025000D02*
X225500000Y-113025000D01*
X228100000Y-108375000D02*
X225525000Y-108375000D01*
X228050000Y-113000000D02*
X228050000Y-108400000D01*
X227900000Y-113000000D02*
X227900000Y-108400000D01*
X227750000Y-113000000D02*
X227750000Y-108400000D01*
X227600000Y-113000000D02*
X227600000Y-108400000D01*
X227450000Y-113000000D02*
X227450000Y-108400000D01*
X227300000Y-113000000D02*
X227300000Y-108400000D01*
X227150000Y-113000000D02*
X227150000Y-108400000D01*
X227000000Y-113000000D02*
X227000000Y-108400000D01*
X226850000Y-113000000D02*
X226850000Y-108400000D01*
X226700000Y-113000000D02*
X226700000Y-108400000D01*
X226550000Y-113000000D02*
X226550000Y-108400000D01*
X226400000Y-113000000D02*
X226400000Y-108400000D01*
X226250000Y-113000000D02*
X226250000Y-108400000D01*
X226100000Y-113000000D02*
X226100000Y-108400000D01*
X225950000Y-113000000D02*
X225950000Y-108400000D01*
X225800000Y-113000000D02*
X225800000Y-108400000D01*
X225650000Y-113000000D02*
X225650000Y-108450000D01*
X225500000Y-113000000D02*
X225500000Y-108400000D01*
X225350000Y-113000000D02*
X225350000Y-108400000D01*
X225200000Y-112950000D02*
X225200000Y-108400000D01*
X225050000Y-112850000D02*
X225050000Y-108300000D01*
X224900000Y-112750000D02*
X224900000Y-108250000D01*
X224800000Y-112600000D02*
X224800000Y-108200000D01*
X224700000Y-112350000D02*
X224700000Y-108150000D01*
X224600000Y-112200000D02*
X224600000Y-108050000D01*
X224500000Y-112000000D02*
X224500000Y-107850000D01*
X224400000Y-111850000D02*
X224400000Y-107700000D01*
X224300000Y-111650000D02*
X224300000Y-107200000D01*
X224150000Y-111500000D02*
X224150000Y-107050000D01*
X224000000Y-111350000D02*
X224000000Y-106950000D01*
X223850000Y-111250000D02*
X223850000Y-106850000D01*
X223700000Y-111150000D02*
X223700000Y-106700000D01*
X223550000Y-111050000D02*
X223550000Y-106600000D01*
X223400000Y-111000000D02*
X223400000Y-106450000D01*
X223250000Y-110900000D02*
X223250000Y-106350000D01*
X223100000Y-110850000D02*
X223100000Y-106250000D01*
X223075000Y-106175000D02*
X224350000Y-107200000D01*
X223075000Y-106175000D02*
X220525000Y-106175000D01*
X222950000Y-110850000D02*
X222950000Y-106200000D01*
X222800000Y-110850000D02*
X222800000Y-106200000D01*
X222650000Y-110800000D02*
X222650000Y-106250000D01*
X222500000Y-110825000D02*
X220525000Y-110825000D01*
X222500000Y-110800000D02*
X222500000Y-106200000D01*
X222350000Y-110800000D02*
X222350000Y-106200000D01*
X222200000Y-110800000D02*
X222200000Y-106200000D01*
X222050000Y-110800000D02*
X222050000Y-106200000D01*
X221900000Y-110800000D02*
X221900000Y-106200000D01*
X221750000Y-110800000D02*
X221750000Y-106200000D01*
X221600000Y-110800000D02*
X221600000Y-106200000D01*
X221450000Y-110800000D02*
X221450000Y-106200000D01*
X221300000Y-110800000D02*
X221300000Y-106200000D01*
X221150000Y-110800000D02*
X221150000Y-106200000D01*
X221000000Y-110800000D02*
X221000000Y-106200000D01*
X220850000Y-110800000D02*
X220850000Y-106200000D01*
X220700000Y-110800000D02*
X220700000Y-106200000D01*
X220550000Y-110800000D02*
X220550000Y-106200000D01*
X220400000Y-110650000D02*
X220400000Y-106300000D01*
X220250000Y-110550000D02*
X220250000Y-106450000D01*
X220100000Y-110400000D02*
X220100000Y-106600000D01*
X219950000Y-110250000D02*
X219950000Y-106750000D01*
X219800000Y-110050000D02*
X219800000Y-106900000D01*
X219650000Y-109950000D02*
X219650000Y-107050000D01*
X219500000Y-109800000D02*
X220525000Y-110825000D01*
X219500000Y-107200000D02*
X220525000Y-106175000D01*
X219500000Y-107200000D02*
X219500000Y-109800000D01*
X228100000Y-113025000D02*
G75*
G03*
X229100000Y-112025000I1J999999D01*
G01*
X229100000Y-109375000D02*
G75*
G03*
X228100000Y-108375000I-999999J1D01*
G01*
X224350000Y-107200000D02*
G75*
G03*
X225525000Y-108375000I1175000J0D01*
G01*
X224637798Y-112321905D02*
G75*
G03*
X225499005Y-113023790I900002J225005D01*
G01*
X224637801Y-112321904D02*
G75*
G03*
X222500000Y-110825000I-2137801J-778096D01*
G01*
X161850000Y-145700000D02*
X160350000Y-145700000D01*
X160350000Y-145700000D02*
X160350000Y-151100000D01*
X161600000Y-147900000D02*
X160600000Y-147900000D01*
X161100000Y-148000000D02*
X161600000Y-148900000D01*
X161600000Y-148900000D02*
X160600000Y-148900000D01*
X160600000Y-148900000D02*
X161100000Y-148000000D01*
X161850000Y-151100000D02*
X161850000Y-145700000D01*
X160350000Y-151100000D02*
X161850000Y-151100000D01*
X254758355Y-177845142D02*
X254245325Y-179254681D01*
X254245325Y-179254681D02*
X259319665Y-181101590D01*
X256740174Y-178832510D02*
X256398154Y-179772202D01*
X256663133Y-179336558D02*
X257679866Y-179174530D01*
X257679866Y-179174530D02*
X257337846Y-180114222D01*
X257337846Y-180114222D02*
X256663133Y-179336558D01*
X259832695Y-179692051D02*
X254758355Y-177845142D01*
X259319665Y-181101590D02*
X259832695Y-179692051D01*
D13*
X241643710Y-164185074D02*
X243111243Y-164470334D01*
X243140692Y-164476058D02*
X242864019Y-165899417D01*
X242864019Y-165899417D02*
X241367037Y-165608434D01*
X247905000Y-141540000D02*
X249400000Y-141540000D01*
X249430000Y-141540000D02*
X249430000Y-142990000D01*
X249430000Y-142990000D02*
X247905000Y-142990000D01*
X151905000Y-107050000D02*
X153400000Y-107050000D01*
X153430000Y-107050000D02*
X153430000Y-108500000D01*
X153430000Y-108500000D02*
X151905000Y-108500000D01*
D10*
X199700000Y-168775000D02*
X199700000Y-171425000D01*
X199550000Y-171850000D02*
X199550000Y-168300000D01*
X199450000Y-172000000D02*
X199450000Y-168250000D01*
X199350000Y-172100000D02*
X199350000Y-168150000D01*
X199250000Y-172200000D02*
X199250000Y-168000000D01*
X199100000Y-172300000D02*
X199100000Y-167900000D01*
X198950000Y-172350000D02*
X198950000Y-167850000D01*
X198800000Y-172400000D02*
X198800000Y-167850000D01*
X198700000Y-172425000D02*
X196100000Y-172425000D01*
X198700000Y-167775000D02*
X196125000Y-167775000D01*
X198650000Y-172400000D02*
X198650000Y-167800000D01*
X198500000Y-172400000D02*
X198500000Y-167800000D01*
X198350000Y-172400000D02*
X198350000Y-167800000D01*
X198200000Y-172400000D02*
X198200000Y-167800000D01*
X198050000Y-172400000D02*
X198050000Y-167800000D01*
X197900000Y-172400000D02*
X197900000Y-167800000D01*
X197750000Y-172400000D02*
X197750000Y-167800000D01*
X197600000Y-172400000D02*
X197600000Y-167800000D01*
X197450000Y-172400000D02*
X197450000Y-167800000D01*
X197300000Y-172400000D02*
X197300000Y-167800000D01*
X197150000Y-172400000D02*
X197150000Y-167800000D01*
X197000000Y-172400000D02*
X197000000Y-167800000D01*
X196850000Y-172400000D02*
X196850000Y-167800000D01*
X196700000Y-172400000D02*
X196700000Y-167800000D01*
X196550000Y-172400000D02*
X196550000Y-167800000D01*
X196400000Y-172400000D02*
X196400000Y-167800000D01*
X196250000Y-172400000D02*
X196250000Y-167850000D01*
X196100000Y-172400000D02*
X196100000Y-167800000D01*
X195950000Y-172400000D02*
X195950000Y-167800000D01*
X195800000Y-172350000D02*
X195800000Y-167800000D01*
X195650000Y-172250000D02*
X195650000Y-167700000D01*
X195500000Y-172150000D02*
X195500000Y-167650000D01*
X195400000Y-172000000D02*
X195400000Y-167600000D01*
X195300000Y-171750000D02*
X195300000Y-167550000D01*
X195200000Y-171600000D02*
X195200000Y-167450000D01*
X195100000Y-171400000D02*
X195100000Y-167250000D01*
X195000000Y-171250000D02*
X195000000Y-167100000D01*
X194900000Y-171050000D02*
X194900000Y-166600000D01*
X194750000Y-170900000D02*
X194750000Y-166450000D01*
X194600000Y-170750000D02*
X194600000Y-166350000D01*
X194450000Y-170650000D02*
X194450000Y-166250000D01*
X194300000Y-170550000D02*
X194300000Y-166100000D01*
X194150000Y-170450000D02*
X194150000Y-166000000D01*
X194000000Y-170400000D02*
X194000000Y-165850000D01*
X193850000Y-170300000D02*
X193850000Y-165750000D01*
X193700000Y-170250000D02*
X193700000Y-165650000D01*
X193675000Y-165575000D02*
X194950000Y-166600000D01*
X193675000Y-165575000D02*
X191125000Y-165575000D01*
X193550000Y-170250000D02*
X193550000Y-165600000D01*
X193400000Y-170250000D02*
X193400000Y-165600000D01*
X193250000Y-170200000D02*
X193250000Y-165650000D01*
X193100000Y-170225000D02*
X191125000Y-170225000D01*
X193100000Y-170200000D02*
X193100000Y-165600000D01*
X192950000Y-170200000D02*
X192950000Y-165600000D01*
X192800000Y-170200000D02*
X192800000Y-165600000D01*
X192650000Y-170200000D02*
X192650000Y-165600000D01*
X192500000Y-170200000D02*
X192500000Y-165600000D01*
X192350000Y-170200000D02*
X192350000Y-165600000D01*
X192200000Y-170200000D02*
X192200000Y-165600000D01*
X192050000Y-170200000D02*
X192050000Y-165600000D01*
X191900000Y-170200000D02*
X191900000Y-165600000D01*
X191750000Y-170200000D02*
X191750000Y-165600000D01*
X191600000Y-170200000D02*
X191600000Y-165600000D01*
X191450000Y-170200000D02*
X191450000Y-165600000D01*
X191300000Y-170200000D02*
X191300000Y-165600000D01*
X191150000Y-170200000D02*
X191150000Y-165600000D01*
X191000000Y-170050000D02*
X191000000Y-165700000D01*
X190850000Y-169950000D02*
X190850000Y-165850000D01*
X190700000Y-169800000D02*
X190700000Y-166000000D01*
X190550000Y-169650000D02*
X190550000Y-166150000D01*
X190400000Y-169450000D02*
X190400000Y-166300000D01*
X190250000Y-169350000D02*
X190250000Y-166450000D01*
X190100000Y-169200000D02*
X191125000Y-170225000D01*
X190100000Y-166600000D02*
X191125000Y-165575000D01*
X190100000Y-166600000D02*
X190100000Y-169200000D01*
X198700000Y-172425000D02*
G75*
G03*
X199700000Y-171425000I1J999999D01*
G01*
X199700000Y-168775000D02*
G75*
G03*
X198700000Y-167775000I-999999J1D01*
G01*
X194950000Y-166600000D02*
G75*
G03*
X196125000Y-167775000I1175000J0D01*
G01*
X195237798Y-171721905D02*
G75*
G03*
X196099005Y-172423790I900002J225005D01*
G01*
X195237801Y-171721904D02*
G75*
G03*
X193100000Y-170225000I-2137801J-778096D01*
G01*
D13*
X269455859Y-179723915D02*
X269967179Y-178319074D01*
X269977440Y-178290883D02*
X271339994Y-178786813D01*
X271339994Y-178786813D02*
X270818414Y-180219844D01*
D10*
X229100000Y-147775000D02*
X229100000Y-150425000D01*
X228950000Y-150850000D02*
X228950000Y-147300000D01*
X228850000Y-151000000D02*
X228850000Y-147250000D01*
X228750000Y-151100000D02*
X228750000Y-147150000D01*
X228650000Y-151200000D02*
X228650000Y-147000000D01*
X228500000Y-151300000D02*
X228500000Y-146900000D01*
X228350000Y-151350000D02*
X228350000Y-146850000D01*
X228200000Y-151400000D02*
X228200000Y-146850000D01*
X228100000Y-151425000D02*
X225500000Y-151425000D01*
X228100000Y-146775000D02*
X225525000Y-146775000D01*
X228050000Y-151400000D02*
X228050000Y-146800000D01*
X227900000Y-151400000D02*
X227900000Y-146800000D01*
X227750000Y-151400000D02*
X227750000Y-146800000D01*
X227600000Y-151400000D02*
X227600000Y-146800000D01*
X227450000Y-151400000D02*
X227450000Y-146800000D01*
X227300000Y-151400000D02*
X227300000Y-146800000D01*
X227150000Y-151400000D02*
X227150000Y-146800000D01*
X227000000Y-151400000D02*
X227000000Y-146800000D01*
X226850000Y-151400000D02*
X226850000Y-146800000D01*
X226700000Y-151400000D02*
X226700000Y-146800000D01*
X226550000Y-151400000D02*
X226550000Y-146800000D01*
X226400000Y-151400000D02*
X226400000Y-146800000D01*
X226250000Y-151400000D02*
X226250000Y-146800000D01*
X226100000Y-151400000D02*
X226100000Y-146800000D01*
X225950000Y-151400000D02*
X225950000Y-146800000D01*
X225800000Y-151400000D02*
X225800000Y-146800000D01*
X225650000Y-151400000D02*
X225650000Y-146850000D01*
X225500000Y-151400000D02*
X225500000Y-146800000D01*
X225350000Y-151400000D02*
X225350000Y-146800000D01*
X225200000Y-151350000D02*
X225200000Y-146800000D01*
X225050000Y-151250000D02*
X225050000Y-146700000D01*
X224900000Y-151150000D02*
X224900000Y-146650000D01*
X224800000Y-151000000D02*
X224800000Y-146600000D01*
X224700000Y-150750000D02*
X224700000Y-146550000D01*
X224600000Y-150600000D02*
X224600000Y-146450000D01*
X224500000Y-150400000D02*
X224500000Y-146250000D01*
X224400000Y-150250000D02*
X224400000Y-146100000D01*
X224300000Y-150050000D02*
X224300000Y-145600000D01*
X224150000Y-149900000D02*
X224150000Y-145450000D01*
X224000000Y-149750000D02*
X224000000Y-145350000D01*
X223850000Y-149650000D02*
X223850000Y-145250000D01*
X223700000Y-149550000D02*
X223700000Y-145100000D01*
X223550000Y-149450000D02*
X223550000Y-145000000D01*
X223400000Y-149400000D02*
X223400000Y-144850000D01*
X223250000Y-149300000D02*
X223250000Y-144750000D01*
X223100000Y-149250000D02*
X223100000Y-144650000D01*
X223075000Y-144575000D02*
X224350000Y-145600000D01*
X223075000Y-144575000D02*
X220525000Y-144575000D01*
X222950000Y-149250000D02*
X222950000Y-144600000D01*
X222800000Y-149250000D02*
X222800000Y-144600000D01*
X222650000Y-149200000D02*
X222650000Y-144650000D01*
X222500000Y-149225000D02*
X220525000Y-149225000D01*
X222500000Y-149200000D02*
X222500000Y-144600000D01*
X222350000Y-149200000D02*
X222350000Y-144600000D01*
X222200000Y-149200000D02*
X222200000Y-144600000D01*
X222050000Y-149200000D02*
X222050000Y-144600000D01*
X221900000Y-149200000D02*
X221900000Y-144600000D01*
X221750000Y-149200000D02*
X221750000Y-144600000D01*
X221600000Y-149200000D02*
X221600000Y-144600000D01*
X221450000Y-149200000D02*
X221450000Y-144600000D01*
X221300000Y-149200000D02*
X221300000Y-144600000D01*
X221150000Y-149200000D02*
X221150000Y-144600000D01*
X221000000Y-149200000D02*
X221000000Y-144600000D01*
X220850000Y-149200000D02*
X220850000Y-144600000D01*
X220700000Y-149200000D02*
X220700000Y-144600000D01*
X220550000Y-149200000D02*
X220550000Y-144600000D01*
X220400000Y-149050000D02*
X220400000Y-144700000D01*
X220250000Y-148950000D02*
X220250000Y-144850000D01*
X220100000Y-148800000D02*
X220100000Y-145000000D01*
X219950000Y-148650000D02*
X219950000Y-145150000D01*
X219800000Y-148450000D02*
X219800000Y-145300000D01*
X219650000Y-148350000D02*
X219650000Y-145450000D01*
X219500000Y-148200000D02*
X220525000Y-149225000D01*
X219500000Y-145600000D02*
X220525000Y-144575000D01*
X219500000Y-145600000D02*
X219500000Y-148200000D01*
X228100000Y-151425000D02*
G75*
G03*
X229100000Y-150425000I1J999999D01*
G01*
X229100000Y-147775000D02*
G75*
G03*
X228100000Y-146775000I-999999J1D01*
G01*
X224350000Y-145600000D02*
G75*
G03*
X225525000Y-146775000I1175000J0D01*
G01*
X224637798Y-150721905D02*
G75*
G03*
X225499005Y-151423790I900002J225005D01*
G01*
X224637801Y-150721904D02*
G75*
G03*
X222500000Y-149225000I-2137801J-778096D01*
G01*
X219450000Y-100500000D02*
X217950000Y-100500000D01*
X217950000Y-100500000D02*
X217950000Y-105900000D01*
X219200000Y-102700000D02*
X218200000Y-102700000D01*
X218700000Y-102800000D02*
X219200000Y-103700000D01*
X219200000Y-103700000D02*
X218200000Y-103700000D01*
X218200000Y-103700000D02*
X218700000Y-102800000D01*
X219450000Y-105900000D02*
X219450000Y-100500000D01*
X217950000Y-105900000D02*
X219450000Y-105900000D01*
X181050000Y-138900000D02*
X179550000Y-138900000D01*
X179550000Y-138900000D02*
X179550000Y-144300000D01*
X180800000Y-141100000D02*
X179800000Y-141100000D01*
X180300000Y-141200000D02*
X180800000Y-142100000D01*
X180800000Y-142100000D02*
X179800000Y-142100000D01*
X179800000Y-142100000D02*
X180300000Y-141200000D01*
X181050000Y-144300000D02*
X181050000Y-138900000D01*
X179550000Y-144300000D02*
X181050000Y-144300000D01*
X278613298Y-166532051D02*
X280467400Y-172238390D01*
X278375534Y-166609305D02*
X278613298Y-166532051D01*
X275284600Y-167613610D02*
X275522364Y-167536356D01*
X280467400Y-172238390D02*
X280229636Y-172315644D01*
X277376466Y-173242695D02*
X277138702Y-173319949D01*
X277138702Y-173319949D02*
X275284600Y-167613610D01*
D13*
X228705000Y-100250000D02*
X230200000Y-100250000D01*
X230230000Y-100250000D02*
X230230000Y-101700000D01*
X230230000Y-101700000D02*
X228705000Y-101700000D01*
X199305000Y-159650000D02*
X200800000Y-159650000D01*
X200830000Y-159650000D02*
X200830000Y-161100000D01*
X200830000Y-161100000D02*
X199305000Y-161100000D01*
X228705000Y-119450000D02*
X230200000Y-119450000D01*
X230230000Y-119450000D02*
X230230000Y-120900000D01*
X230230000Y-120900000D02*
X228705000Y-120900000D01*
X190305000Y-138650000D02*
X191800000Y-138650000D01*
X191830000Y-138650000D02*
X191830000Y-140100000D01*
X191830000Y-140100000D02*
X190305000Y-140100000D01*
X151905000Y-126250000D02*
X153400000Y-126250000D01*
X153430000Y-126250000D02*
X153430000Y-127700000D01*
X153430000Y-127700000D02*
X151905000Y-127700000D01*
D10*
X152300000Y-154575000D02*
X152300000Y-157225000D01*
X152150000Y-157650000D02*
X152150000Y-154100000D01*
X152050000Y-157800000D02*
X152050000Y-154050000D01*
X151950000Y-157900000D02*
X151950000Y-153950000D01*
X151850000Y-158000000D02*
X151850000Y-153800000D01*
X151700000Y-158100000D02*
X151700000Y-153700000D01*
X151550000Y-158150000D02*
X151550000Y-153650000D01*
X151400000Y-158200000D02*
X151400000Y-153650000D01*
X151300000Y-158225000D02*
X148700000Y-158225000D01*
X151300000Y-153575000D02*
X148725000Y-153575000D01*
X151250000Y-158200000D02*
X151250000Y-153600000D01*
X151100000Y-158200000D02*
X151100000Y-153600000D01*
X150950000Y-158200000D02*
X150950000Y-153600000D01*
X150800000Y-158200000D02*
X150800000Y-153600000D01*
X150650000Y-158200000D02*
X150650000Y-153600000D01*
X150500000Y-158200000D02*
X150500000Y-153600000D01*
X150350000Y-158200000D02*
X150350000Y-153600000D01*
X150200000Y-158200000D02*
X150200000Y-153600000D01*
X150050000Y-158200000D02*
X150050000Y-153600000D01*
X149900000Y-158200000D02*
X149900000Y-153600000D01*
X149750000Y-158200000D02*
X149750000Y-153600000D01*
X149600000Y-158200000D02*
X149600000Y-153600000D01*
X149450000Y-158200000D02*
X149450000Y-153600000D01*
X149300000Y-158200000D02*
X149300000Y-153600000D01*
X149150000Y-158200000D02*
X149150000Y-153600000D01*
X149000000Y-158200000D02*
X149000000Y-153600000D01*
X148850000Y-158200000D02*
X148850000Y-153650000D01*
X148700000Y-158200000D02*
X148700000Y-153600000D01*
X148550000Y-158200000D02*
X148550000Y-153600000D01*
X148400000Y-158150000D02*
X148400000Y-153600000D01*
X148250000Y-158050000D02*
X148250000Y-153500000D01*
X148100000Y-157950000D02*
X148100000Y-153450000D01*
X148000000Y-157800000D02*
X148000000Y-153400000D01*
X147900000Y-157550000D02*
X147900000Y-153350000D01*
X147800000Y-157400000D02*
X147800000Y-153250000D01*
X147700000Y-157200000D02*
X147700000Y-153050000D01*
X147600000Y-157050000D02*
X147600000Y-152900000D01*
X147500000Y-156850000D02*
X147500000Y-152400000D01*
X147350000Y-156700000D02*
X147350000Y-152250000D01*
X147200000Y-156550000D02*
X147200000Y-152150000D01*
X147050000Y-156450000D02*
X147050000Y-152050000D01*
X146900000Y-156350000D02*
X146900000Y-151900000D01*
X146750000Y-156250000D02*
X146750000Y-151800000D01*
X146600000Y-156200000D02*
X146600000Y-151650000D01*
X146450000Y-156100000D02*
X146450000Y-151550000D01*
X146300000Y-156050000D02*
X146300000Y-151450000D01*
X146275000Y-151375000D02*
X147550000Y-152400000D01*
X146275000Y-151375000D02*
X143725000Y-151375000D01*
X146150000Y-156050000D02*
X146150000Y-151400000D01*
X146000000Y-156050000D02*
X146000000Y-151400000D01*
X145850000Y-156000000D02*
X145850000Y-151450000D01*
X145700000Y-156025000D02*
X143725000Y-156025000D01*
X145700000Y-156000000D02*
X145700000Y-151400000D01*
X145550000Y-156000000D02*
X145550000Y-151400000D01*
X145400000Y-156000000D02*
X145400000Y-151400000D01*
X145250000Y-156000000D02*
X145250000Y-151400000D01*
X145100000Y-156000000D02*
X145100000Y-151400000D01*
X144950000Y-156000000D02*
X144950000Y-151400000D01*
X144800000Y-156000000D02*
X144800000Y-151400000D01*
X144650000Y-156000000D02*
X144650000Y-151400000D01*
X144500000Y-156000000D02*
X144500000Y-151400000D01*
X144350000Y-156000000D02*
X144350000Y-151400000D01*
X144200000Y-156000000D02*
X144200000Y-151400000D01*
X144050000Y-156000000D02*
X144050000Y-151400000D01*
X143900000Y-156000000D02*
X143900000Y-151400000D01*
X143750000Y-156000000D02*
X143750000Y-151400000D01*
X143600000Y-155850000D02*
X143600000Y-151500000D01*
X143450000Y-155750000D02*
X143450000Y-151650000D01*
X143300000Y-155600000D02*
X143300000Y-151800000D01*
X143150000Y-155450000D02*
X143150000Y-151950000D01*
X143000000Y-155250000D02*
X143000000Y-152100000D01*
X142850000Y-155150000D02*
X142850000Y-152250000D01*
X142700000Y-155000000D02*
X143725000Y-156025000D01*
X142700000Y-152400000D02*
X143725000Y-151375000D01*
X142700000Y-152400000D02*
X142700000Y-155000000D01*
X151300000Y-158225000D02*
G75*
G03*
X152300000Y-157225000I1J999999D01*
G01*
X152300000Y-154575000D02*
G75*
G03*
X151300000Y-153575000I-999999J1D01*
G01*
X147550000Y-152400000D02*
G75*
G03*
X148725000Y-153575000I1175000J0D01*
G01*
X147837798Y-157521905D02*
G75*
G03*
X148699005Y-158223790I900002J225005D01*
G01*
X147837801Y-157521904D02*
G75*
G03*
X145700000Y-156025000I-2137801J-778096D01*
G01*
X263492000Y-135884000D02*
X263492000Y-137384000D01*
X263492000Y-137384000D02*
X268892000Y-137384000D01*
X265692000Y-136134000D02*
X265692000Y-137134000D01*
X265792000Y-136634000D02*
X266692000Y-136134000D01*
X266692000Y-136134000D02*
X266692000Y-137134000D01*
X266692000Y-137134000D02*
X265792000Y-136634000D01*
X268892000Y-135884000D02*
X263492000Y-135884000D01*
X268892000Y-137384000D02*
X268892000Y-135884000D01*
D13*
X190305000Y-100250000D02*
X191800000Y-100250000D01*
X191830000Y-100250000D02*
X191830000Y-101700000D01*
X191830000Y-101700000D02*
X190305000Y-101700000D01*
D10*
X171500000Y-116175000D02*
X171500000Y-118825000D01*
X171350000Y-119250000D02*
X171350000Y-115700000D01*
X171250000Y-119400000D02*
X171250000Y-115650000D01*
X171150000Y-119500000D02*
X171150000Y-115550000D01*
X171050000Y-119600000D02*
X171050000Y-115400000D01*
X170900000Y-119700000D02*
X170900000Y-115300000D01*
X170750000Y-119750000D02*
X170750000Y-115250000D01*
X170600000Y-119800000D02*
X170600000Y-115250000D01*
X170500000Y-119825000D02*
X167900000Y-119825000D01*
X170500000Y-115175000D02*
X167925000Y-115175000D01*
X170450000Y-119800000D02*
X170450000Y-115200000D01*
X170300000Y-119800000D02*
X170300000Y-115200000D01*
X170150000Y-119800000D02*
X170150000Y-115200000D01*
X170000000Y-119800000D02*
X170000000Y-115200000D01*
X169850000Y-119800000D02*
X169850000Y-115200000D01*
X169700000Y-119800000D02*
X169700000Y-115200000D01*
X169550000Y-119800000D02*
X169550000Y-115200000D01*
X169400000Y-119800000D02*
X169400000Y-115200000D01*
X169250000Y-119800000D02*
X169250000Y-115200000D01*
X169100000Y-119800000D02*
X169100000Y-115200000D01*
X168950000Y-119800000D02*
X168950000Y-115200000D01*
X168800000Y-119800000D02*
X168800000Y-115200000D01*
X168650000Y-119800000D02*
X168650000Y-115200000D01*
X168500000Y-119800000D02*
X168500000Y-115200000D01*
X168350000Y-119800000D02*
X168350000Y-115200000D01*
X168200000Y-119800000D02*
X168200000Y-115200000D01*
X168050000Y-119800000D02*
X168050000Y-115250000D01*
X167900000Y-119800000D02*
X167900000Y-115200000D01*
X167750000Y-119800000D02*
X167750000Y-115200000D01*
X167600000Y-119750000D02*
X167600000Y-115200000D01*
X167450000Y-119650000D02*
X167450000Y-115100000D01*
X167300000Y-119550000D02*
X167300000Y-115050000D01*
X167200000Y-119400000D02*
X167200000Y-115000000D01*
X167100000Y-119150000D02*
X167100000Y-114950000D01*
X167000000Y-119000000D02*
X167000000Y-114850000D01*
X166900000Y-118800000D02*
X166900000Y-114650000D01*
X166800000Y-118650000D02*
X166800000Y-114500000D01*
X166700000Y-118450000D02*
X166700000Y-114000000D01*
X166550000Y-118300000D02*
X166550000Y-113850000D01*
X166400000Y-118150000D02*
X166400000Y-113750000D01*
X166250000Y-118050000D02*
X166250000Y-113650000D01*
X166100000Y-117950000D02*
X166100000Y-113500000D01*
X165950000Y-117850000D02*
X165950000Y-113400000D01*
X165800000Y-117800000D02*
X165800000Y-113250000D01*
X165650000Y-117700000D02*
X165650000Y-113150000D01*
X165500000Y-117650000D02*
X165500000Y-113050000D01*
X165475000Y-112975000D02*
X166750000Y-114000000D01*
X165475000Y-112975000D02*
X162925000Y-112975000D01*
X165350000Y-117650000D02*
X165350000Y-113000000D01*
X165200000Y-117650000D02*
X165200000Y-113000000D01*
X165050000Y-117600000D02*
X165050000Y-113050000D01*
X164900000Y-117625000D02*
X162925000Y-117625000D01*
X164900000Y-117600000D02*
X164900000Y-113000000D01*
X164750000Y-117600000D02*
X164750000Y-113000000D01*
X164600000Y-117600000D02*
X164600000Y-113000000D01*
X164450000Y-117600000D02*
X164450000Y-113000000D01*
X164300000Y-117600000D02*
X164300000Y-113000000D01*
X164150000Y-117600000D02*
X164150000Y-113000000D01*
X164000000Y-117600000D02*
X164000000Y-113000000D01*
X163850000Y-117600000D02*
X163850000Y-113000000D01*
X163700000Y-117600000D02*
X163700000Y-113000000D01*
X163550000Y-117600000D02*
X163550000Y-113000000D01*
X163400000Y-117600000D02*
X163400000Y-113000000D01*
X163250000Y-117600000D02*
X163250000Y-113000000D01*
X163100000Y-117600000D02*
X163100000Y-113000000D01*
X162950000Y-117600000D02*
X162950000Y-113000000D01*
X162800000Y-117450000D02*
X162800000Y-113100000D01*
X162650000Y-117350000D02*
X162650000Y-113250000D01*
X162500000Y-117200000D02*
X162500000Y-113400000D01*
X162350000Y-117050000D02*
X162350000Y-113550000D01*
X162200000Y-116850000D02*
X162200000Y-113700000D01*
X162050000Y-116750000D02*
X162050000Y-113850000D01*
X161900000Y-116600000D02*
X162925000Y-117625000D01*
X161900000Y-114000000D02*
X162925000Y-112975000D01*
X161900000Y-114000000D02*
X161900000Y-116600000D01*
X170500000Y-119825000D02*
G75*
G03*
X171500000Y-118825000I1J999999D01*
G01*
X171500000Y-116175000D02*
G75*
G03*
X170500000Y-115175000I-999999J1D01*
G01*
X166750000Y-114000000D02*
G75*
G03*
X167925000Y-115175000I1175000J0D01*
G01*
X167037798Y-119121905D02*
G75*
G03*
X167899005Y-119823790I900002J225005D01*
G01*
X167037801Y-119121904D02*
G75*
G03*
X164900000Y-117625000I-2137801J-778096D01*
G01*
X190700000Y-147775000D02*
X190700000Y-150425000D01*
X190550000Y-150850000D02*
X190550000Y-147300000D01*
X190450000Y-151000000D02*
X190450000Y-147250000D01*
X190350000Y-151100000D02*
X190350000Y-147150000D01*
X190250000Y-151200000D02*
X190250000Y-147000000D01*
X190100000Y-151300000D02*
X190100000Y-146900000D01*
X189950000Y-151350000D02*
X189950000Y-146850000D01*
X189800000Y-151400000D02*
X189800000Y-146850000D01*
X189700000Y-151425000D02*
X187100000Y-151425000D01*
X189700000Y-146775000D02*
X187125000Y-146775000D01*
X189650000Y-151400000D02*
X189650000Y-146800000D01*
X189500000Y-151400000D02*
X189500000Y-146800000D01*
X189350000Y-151400000D02*
X189350000Y-146800000D01*
X189200000Y-151400000D02*
X189200000Y-146800000D01*
X189050000Y-151400000D02*
X189050000Y-146800000D01*
X188900000Y-151400000D02*
X188900000Y-146800000D01*
X188750000Y-151400000D02*
X188750000Y-146800000D01*
X188600000Y-151400000D02*
X188600000Y-146800000D01*
X188450000Y-151400000D02*
X188450000Y-146800000D01*
X188300000Y-151400000D02*
X188300000Y-146800000D01*
X188150000Y-151400000D02*
X188150000Y-146800000D01*
X188000000Y-151400000D02*
X188000000Y-146800000D01*
X187850000Y-151400000D02*
X187850000Y-146800000D01*
X187700000Y-151400000D02*
X187700000Y-146800000D01*
X187550000Y-151400000D02*
X187550000Y-146800000D01*
X187400000Y-151400000D02*
X187400000Y-146800000D01*
X187250000Y-151400000D02*
X187250000Y-146850000D01*
X187100000Y-151400000D02*
X187100000Y-146800000D01*
X186950000Y-151400000D02*
X186950000Y-146800000D01*
X186800000Y-151350000D02*
X186800000Y-146800000D01*
X186650000Y-151250000D02*
X186650000Y-146700000D01*
X186500000Y-151150000D02*
X186500000Y-146650000D01*
X186400000Y-151000000D02*
X186400000Y-146600000D01*
X186300000Y-150750000D02*
X186300000Y-146550000D01*
X186200000Y-150600000D02*
X186200000Y-146450000D01*
X186100000Y-150400000D02*
X186100000Y-146250000D01*
X186000000Y-150250000D02*
X186000000Y-146100000D01*
X185900000Y-150050000D02*
X185900000Y-145600000D01*
X185750000Y-149900000D02*
X185750000Y-145450000D01*
X185600000Y-149750000D02*
X185600000Y-145350000D01*
X185450000Y-149650000D02*
X185450000Y-145250000D01*
X185300000Y-149550000D02*
X185300000Y-145100000D01*
X185150000Y-149450000D02*
X185150000Y-145000000D01*
X185000000Y-149400000D02*
X185000000Y-144850000D01*
X184850000Y-149300000D02*
X184850000Y-144750000D01*
X184700000Y-149250000D02*
X184700000Y-144650000D01*
X184675000Y-144575000D02*
X185950000Y-145600000D01*
X184675000Y-144575000D02*
X182125000Y-144575000D01*
X184550000Y-149250000D02*
X184550000Y-144600000D01*
X184400000Y-149250000D02*
X184400000Y-144600000D01*
X184250000Y-149200000D02*
X184250000Y-144650000D01*
X184100000Y-149225000D02*
X182125000Y-149225000D01*
X184100000Y-149200000D02*
X184100000Y-144600000D01*
X183950000Y-149200000D02*
X183950000Y-144600000D01*
X183800000Y-149200000D02*
X183800000Y-144600000D01*
X183650000Y-149200000D02*
X183650000Y-144600000D01*
X183500000Y-149200000D02*
X183500000Y-144600000D01*
X183350000Y-149200000D02*
X183350000Y-144600000D01*
X183200000Y-149200000D02*
X183200000Y-144600000D01*
X183050000Y-149200000D02*
X183050000Y-144600000D01*
X182900000Y-149200000D02*
X182900000Y-144600000D01*
X182750000Y-149200000D02*
X182750000Y-144600000D01*
X182600000Y-149200000D02*
X182600000Y-144600000D01*
X182450000Y-149200000D02*
X182450000Y-144600000D01*
X182300000Y-149200000D02*
X182300000Y-144600000D01*
X182150000Y-149200000D02*
X182150000Y-144600000D01*
X182000000Y-149050000D02*
X182000000Y-144700000D01*
X181850000Y-148950000D02*
X181850000Y-144850000D01*
X181700000Y-148800000D02*
X181700000Y-145000000D01*
X181550000Y-148650000D02*
X181550000Y-145150000D01*
X181400000Y-148450000D02*
X181400000Y-145300000D01*
X181250000Y-148350000D02*
X181250000Y-145450000D01*
X181100000Y-148200000D02*
X182125000Y-149225000D01*
X181100000Y-145600000D02*
X182125000Y-144575000D01*
X181100000Y-145600000D02*
X181100000Y-148200000D01*
X189700000Y-151425000D02*
G75*
G03*
X190700000Y-150425000I1J999999D01*
G01*
X190700000Y-147775000D02*
G75*
G03*
X189700000Y-146775000I-999999J1D01*
G01*
X185950000Y-145600000D02*
G75*
G03*
X187125000Y-146775000I1175000J0D01*
G01*
X186237798Y-150721905D02*
G75*
G03*
X187099005Y-151423790I900002J225005D01*
G01*
X186237801Y-150721904D02*
G75*
G03*
X184100000Y-149225000I-2137801J-778096D01*
G01*
X200250000Y-136010000D02*
X198750000Y-136010000D01*
X198750000Y-136010000D02*
X198750000Y-141410000D01*
X200000000Y-138210000D02*
X199000000Y-138210000D01*
X199500000Y-138310000D02*
X200000000Y-139210000D01*
X200000000Y-139210000D02*
X199000000Y-139210000D01*
X199000000Y-139210000D02*
X199500000Y-138310000D01*
X200250000Y-141410000D02*
X200250000Y-136010000D01*
X198750000Y-141410000D02*
X200250000Y-141410000D01*
D13*
X209505000Y-116560000D02*
X211000000Y-116560000D01*
X211030000Y-116560000D02*
X211030000Y-118010000D01*
X211030000Y-118010000D02*
X209505000Y-118010000D01*
D10*
X142650000Y-107300000D02*
X141150000Y-107300000D01*
X141150000Y-107300000D02*
X141150000Y-112700000D01*
X142400000Y-109500000D02*
X141400000Y-109500000D01*
X141900000Y-109600000D02*
X142400000Y-110500000D01*
X142400000Y-110500000D02*
X141400000Y-110500000D01*
X141400000Y-110500000D02*
X141900000Y-109600000D01*
X142650000Y-112700000D02*
X142650000Y-107300000D01*
X141150000Y-112700000D02*
X142650000Y-112700000D01*
X281088231Y-189929251D02*
X283578417Y-190835605D01*
X283926483Y-191121917D02*
X280590574Y-189907745D01*
X284033235Y-191267189D02*
X280509387Y-189984614D01*
X284093002Y-191395360D02*
X280381215Y-190044381D01*
X284152769Y-191523532D02*
X280206060Y-190087047D01*
X284195435Y-191698688D02*
X280060788Y-190193799D01*
X284191117Y-191856743D02*
X279962500Y-190317652D01*
X284186799Y-192014798D02*
X279911198Y-190458605D01*
X284176089Y-192117317D02*
X283286837Y-194560518D01*
X279806518Y-190526924D02*
X278925816Y-192946632D01*
X284135496Y-192155751D02*
X279812909Y-190582458D01*
X284084193Y-192296705D02*
X279761607Y-190723413D01*
X284032890Y-192437659D02*
X279710304Y-190864367D01*
X283981587Y-192578613D02*
X279659000Y-191005321D01*
X283930283Y-192719567D02*
X279607697Y-191146274D01*
X283878981Y-192860521D02*
X279556394Y-191287228D01*
X283827678Y-193001475D02*
X279505091Y-191428182D01*
X283776375Y-193142429D02*
X279453788Y-191569136D01*
X283725071Y-193283383D02*
X279402485Y-191710090D01*
X283673768Y-193424337D02*
X279351182Y-191851045D01*
X283622465Y-193565290D02*
X279299878Y-191991997D01*
X283571162Y-193706244D02*
X279248576Y-192132952D01*
X283519859Y-193847198D02*
X279197273Y-192273905D01*
X283468556Y-193988152D02*
X279145970Y-192414859D01*
X283417253Y-194129107D02*
X279094667Y-192555814D01*
X283365950Y-194270060D02*
X279043363Y-192696767D01*
X283314647Y-194411014D02*
X279039046Y-192854822D01*
X283263344Y-194551968D02*
X278940758Y-192978675D01*
X283212041Y-194692921D02*
X278889455Y-193119629D01*
X283113754Y-194816774D02*
X278838152Y-193260584D01*
X282968482Y-194923525D02*
X278692880Y-193367335D01*
X282823209Y-195030278D02*
X278594592Y-193491187D01*
X282648053Y-195072944D02*
X278513406Y-193568056D01*
X282378928Y-195081409D02*
X278432219Y-193644924D01*
X282203772Y-195124075D02*
X278304048Y-193704691D01*
X281981632Y-195149640D02*
X278081906Y-193730256D01*
X281806476Y-195192306D02*
X277906751Y-193772923D01*
X281584335Y-195217872D02*
X277402703Y-193695882D01*
X281392078Y-195307522D02*
X277210446Y-193785533D01*
X281199821Y-195397173D02*
X277065174Y-193892285D01*
X281054549Y-195503925D02*
X276919901Y-193999037D01*
X280909277Y-195610677D02*
X276727645Y-194088687D01*
X280764004Y-195717429D02*
X276582372Y-194195439D01*
X280665717Y-195841281D02*
X276390115Y-194285090D01*
X280520444Y-195948034D02*
X276244843Y-194391842D01*
X280422157Y-196071887D02*
X276099571Y-194498594D01*
X276020543Y-194496435D02*
X277419804Y-193648897D01*
X276020543Y-194496435D02*
X275148392Y-196892651D01*
X280370854Y-196212840D02*
X276001283Y-194622447D01*
X280319551Y-196353794D02*
X275949981Y-194763401D01*
X280221262Y-196477647D02*
X275945662Y-194921456D01*
X280193452Y-196627152D02*
X279517963Y-198483045D01*
X280169960Y-196618601D02*
X275847374Y-195045308D01*
X280118657Y-196759555D02*
X275796071Y-195186262D01*
X280067354Y-196900509D02*
X275744768Y-195327216D01*
X280016051Y-197041463D02*
X275693466Y-195468170D01*
X279964747Y-197182416D02*
X275642162Y-195609123D01*
X279913444Y-197323370D02*
X275590859Y-195750078D01*
X279862142Y-197464324D02*
X275539556Y-195891032D01*
X279810839Y-197605278D02*
X275488253Y-196031986D01*
X279759536Y-197746232D02*
X275436951Y-196172940D01*
X279708233Y-197887187D02*
X275385648Y-196313894D01*
X279656929Y-198028140D02*
X275334344Y-196454846D01*
X279605627Y-198169094D02*
X275283041Y-196595801D01*
X279554324Y-198310048D02*
X275231738Y-196736755D01*
X279503021Y-198451002D02*
X275180435Y-196877709D01*
X279310765Y-198540653D02*
X275223101Y-197052865D01*
X279165492Y-198647404D02*
X275312752Y-197245122D01*
X278973235Y-198737055D02*
X275402403Y-197437379D01*
X278780978Y-198826706D02*
X275492054Y-197629636D01*
X278541736Y-198899256D02*
X275581705Y-197821893D01*
X278396464Y-199006008D02*
X275671355Y-198014150D01*
X278204207Y-199095659D02*
X279517963Y-198483045D01*
X275761006Y-198206406D02*
X275148392Y-196892651D01*
X275761006Y-198206406D02*
X278204207Y-199095659D01*
X284176090Y-192117317D02*
G75*
G03*
X283578417Y-190835605I-939692J342020D01*
G01*
X281088231Y-189929252D02*
G75*
G03*
X279806519Y-190526924I-342021J-939690D01*
G01*
X277419804Y-193648896D02*
G75*
G03*
X278925816Y-192946632I401874J1104138D01*
G01*
X282331252Y-195130251D02*
G75*
G03*
X283285360Y-194561041I96384J922682D01*
G01*
X282331253Y-195130248D02*
G75*
G03*
X280193453Y-196627152I0J-2274999D01*
G01*
D13*
X272378438Y-187179496D02*
X272889758Y-185774655D01*
X272900019Y-185746464D02*
X274262573Y-186242394D01*
X274262573Y-186242394D02*
X273740993Y-187675425D01*
X209505000Y-135760000D02*
X211000000Y-135760000D01*
X211030000Y-135760000D02*
X211030000Y-137210000D01*
X211030000Y-137210000D02*
X209505000Y-137210000D01*
D10*
X232511049Y-162664544D02*
X231038608Y-162378331D01*
X231038608Y-162378331D02*
X230008239Y-167679118D01*
X231845862Y-164776422D02*
X230864235Y-164585613D01*
X231335968Y-164779180D02*
X231655053Y-165758049D01*
X231655053Y-165758049D02*
X230673426Y-165567240D01*
X230673426Y-165567240D02*
X231335968Y-164779180D01*
X231480680Y-167965331D02*
X232511049Y-162664544D01*
X230008239Y-167679118D02*
X231480680Y-167965331D01*
X219450000Y-119700000D02*
X217950000Y-119700000D01*
X217950000Y-119700000D02*
X217950000Y-125100000D01*
X219200000Y-121900000D02*
X218200000Y-121900000D01*
X218700000Y-122000000D02*
X219200000Y-122900000D01*
X219200000Y-122900000D02*
X218200000Y-122900000D01*
X218200000Y-122900000D02*
X218700000Y-122000000D01*
X219450000Y-125100000D02*
X219450000Y-119700000D01*
X217950000Y-125100000D02*
X219450000Y-125100000D01*
X142650000Y-145700000D02*
X141150000Y-145700000D01*
X141150000Y-145700000D02*
X141150000Y-151100000D01*
X142400000Y-147900000D02*
X141400000Y-147900000D01*
X141900000Y-148000000D02*
X142400000Y-148900000D01*
X142400000Y-148900000D02*
X141400000Y-148900000D01*
X141400000Y-148900000D02*
X141900000Y-148000000D01*
X142650000Y-151100000D02*
X142650000Y-145700000D01*
X141150000Y-151100000D02*
X142650000Y-151100000D01*
D13*
X171105000Y-126250000D02*
X172600000Y-126250000D01*
X172630000Y-126250000D02*
X172630000Y-127700000D01*
X172630000Y-127700000D02*
X171105000Y-127700000D01*
D10*
X200250000Y-116810000D02*
X198750000Y-116810000D01*
X198750000Y-116810000D02*
X198750000Y-122210000D01*
X200000000Y-119010000D02*
X199000000Y-119010000D01*
X199500000Y-119110000D02*
X200000000Y-120010000D01*
X200000000Y-120010000D02*
X199000000Y-120010000D01*
X199000000Y-120010000D02*
X199500000Y-119110000D01*
X200250000Y-122210000D02*
X200250000Y-116810000D01*
X198750000Y-122210000D02*
X200250000Y-122210000D01*
D13*
X247905000Y-122340000D02*
X249400000Y-122340000D01*
X249430000Y-122340000D02*
X249430000Y-123790000D01*
X249430000Y-123790000D02*
X247905000Y-123790000D01*
D10*
X220201549Y-170041399D02*
X219970587Y-172681315D01*
X219784116Y-173091624D02*
X220093519Y-169555133D01*
X219671423Y-173232338D02*
X219998257Y-169496608D01*
X219563088Y-173323242D02*
X219907353Y-169388273D01*
X219454753Y-173414146D02*
X219820807Y-169230128D01*
X219296608Y-173500692D02*
X219680094Y-169117435D01*
X219142821Y-173537428D02*
X219535022Y-169054552D01*
X218989034Y-173574165D02*
X219385593Y-169041479D01*
X218887236Y-173590354D02*
X216297130Y-173363749D01*
X219292510Y-168958049D02*
X216727309Y-168733622D01*
X218839605Y-173561091D02*
X219240522Y-168978596D01*
X218690176Y-173548018D02*
X219091092Y-168965522D01*
X218540747Y-173534944D02*
X218941663Y-168952449D01*
X218391318Y-173521871D02*
X218792234Y-168939376D01*
X218241888Y-173508798D02*
X218642805Y-168926302D01*
X218092459Y-173495724D02*
X218493376Y-168913229D01*
X217943030Y-173482651D02*
X218343946Y-168900155D01*
X217793601Y-173469578D02*
X218194517Y-168887082D01*
X217644172Y-173456504D02*
X218045088Y-168874009D01*
X217494742Y-173443431D02*
X217895659Y-168860935D01*
X217345313Y-173430358D02*
X217746230Y-168847862D01*
X217195884Y-173417284D02*
X217596800Y-168834789D01*
X217046455Y-173404211D02*
X217447371Y-168821715D01*
X216897026Y-173391138D02*
X217297942Y-168808642D01*
X216747596Y-173378064D02*
X217148513Y-168795569D01*
X216598167Y-173364991D02*
X216999084Y-168782495D01*
X216448738Y-173351917D02*
X216845297Y-168819232D01*
X216299309Y-173338844D02*
X216700225Y-168756348D01*
X216149880Y-173325771D02*
X216550796Y-168743275D01*
X216004808Y-173262888D02*
X216401367Y-168730202D01*
X215864095Y-173150195D02*
X216260653Y-168617509D01*
X215723381Y-173037502D02*
X216115582Y-168554626D01*
X215636835Y-172879357D02*
X216020320Y-168496100D01*
X215559004Y-172621593D02*
X215925058Y-168437575D01*
X215472458Y-172463448D02*
X215834155Y-168329240D01*
X215390270Y-172255494D02*
X215751966Y-168121286D01*
X215303724Y-172097349D02*
X215665420Y-167963141D01*
X215221535Y-171889394D02*
X215609378Y-167456328D01*
X215085180Y-171726892D02*
X215473023Y-167293825D01*
X214948824Y-171564389D02*
X215332309Y-167181133D01*
X214808110Y-171451696D02*
X215191595Y-167068440D01*
X214667396Y-171339004D02*
X215055240Y-166905937D01*
X214526683Y-171226311D02*
X214914526Y-166793244D01*
X214381611Y-171163428D02*
X214778170Y-166630742D01*
X214240898Y-171050735D02*
X214637456Y-166518049D01*
X214095826Y-170987852D02*
X214496743Y-166405356D01*
X214478375Y-166328463D02*
X215659188Y-167460686D01*
X214478375Y-166328463D02*
X211938078Y-166106215D01*
X213946397Y-170974778D02*
X214351671Y-166342473D01*
X213796968Y-170961705D02*
X214202242Y-166329400D01*
X213651897Y-170898822D02*
X214048455Y-166366136D01*
X213500288Y-170910653D02*
X211532804Y-170738521D01*
X213502467Y-170885748D02*
X213903384Y-166303253D01*
X213353038Y-170872675D02*
X213753955Y-166290180D01*
X213203609Y-170859602D02*
X213604525Y-166277106D01*
X213054180Y-170846528D02*
X213455096Y-166264033D01*
X212904751Y-170833455D02*
X213305667Y-166250959D01*
X212755321Y-170820382D02*
X213156238Y-166237886D01*
X212605892Y-170807308D02*
X213006809Y-166224813D01*
X212456463Y-170794235D02*
X212857379Y-166211739D01*
X212307034Y-170781162D02*
X212707950Y-166198666D01*
X212157604Y-170768088D02*
X212558521Y-166185593D01*
X212008175Y-170755015D02*
X212409092Y-166172519D01*
X211858746Y-170741942D02*
X212259663Y-166159446D01*
X211709317Y-170728868D02*
X212110233Y-166146373D01*
X211559888Y-170715795D02*
X211960804Y-166133299D01*
X211423532Y-170553292D02*
X211802659Y-166219845D01*
X211282818Y-170440599D02*
X211640157Y-166356201D01*
X211146462Y-170278097D02*
X211477654Y-166492557D01*
X211010107Y-170115594D02*
X211315152Y-166628913D01*
X210878108Y-169903282D02*
X211152649Y-166765269D01*
X210737395Y-169790589D02*
X210990146Y-166901625D01*
X210601039Y-169628087D02*
X211532804Y-170738521D01*
X210827644Y-167037980D02*
X211938078Y-166106215D01*
X210827644Y-167037980D02*
X210601039Y-169628087D01*
X218887236Y-173590354D02*
G75*
G03*
X219970587Y-172681315I87157J996194D01*
G01*
X220201549Y-170041399D02*
G75*
G03*
X219292510Y-168958049I-996193J87157D01*
G01*
X215659189Y-167460686D02*
G75*
G03*
X216727309Y-168733622I1170528J-102408D01*
G01*
X215499485Y-172588184D02*
G75*
G03*
X216296244Y-173362458I916179J145700D01*
G01*
X215499490Y-172588183D02*
G75*
G03*
X213500288Y-170910653I-2197481J-588813D01*
G01*
D13*
X209505000Y-97360000D02*
X211000000Y-97360000D01*
X211030000Y-97360000D02*
X211030000Y-98810000D01*
X211030000Y-98810000D02*
X209505000Y-98810000D01*
X171105000Y-101750000D02*
X172600000Y-101750000D01*
X172630000Y-101750000D02*
X172630000Y-103200000D01*
X172630000Y-103200000D02*
X171105000Y-103200000D01*
X190305000Y-119450000D02*
X191800000Y-119450000D01*
X191830000Y-119450000D02*
X191830000Y-120900000D01*
X191830000Y-120900000D02*
X190305000Y-120900000D01*
D10*
X152300000Y-116175000D02*
X152300000Y-118825000D01*
X152150000Y-119250000D02*
X152150000Y-115700000D01*
X152050000Y-119400000D02*
X152050000Y-115650000D01*
X151950000Y-119500000D02*
X151950000Y-115550000D01*
X151850000Y-119600000D02*
X151850000Y-115400000D01*
X151700000Y-119700000D02*
X151700000Y-115300000D01*
X151550000Y-119750000D02*
X151550000Y-115250000D01*
X151400000Y-119800000D02*
X151400000Y-115250000D01*
X151300000Y-119825000D02*
X148700000Y-119825000D01*
X151300000Y-115175000D02*
X148725000Y-115175000D01*
X151250000Y-119800000D02*
X151250000Y-115200000D01*
X151100000Y-119800000D02*
X151100000Y-115200000D01*
X150950000Y-119800000D02*
X150950000Y-115200000D01*
X150800000Y-119800000D02*
X150800000Y-115200000D01*
X150650000Y-119800000D02*
X150650000Y-115200000D01*
X150500000Y-119800000D02*
X150500000Y-115200000D01*
X150350000Y-119800000D02*
X150350000Y-115200000D01*
X150200000Y-119800000D02*
X150200000Y-115200000D01*
X150050000Y-119800000D02*
X150050000Y-115200000D01*
X149900000Y-119800000D02*
X149900000Y-115200000D01*
X149750000Y-119800000D02*
X149750000Y-115200000D01*
X149600000Y-119800000D02*
X149600000Y-115200000D01*
X149450000Y-119800000D02*
X149450000Y-115200000D01*
X149300000Y-119800000D02*
X149300000Y-115200000D01*
X149150000Y-119800000D02*
X149150000Y-115200000D01*
X149000000Y-119800000D02*
X149000000Y-115200000D01*
X148850000Y-119800000D02*
X148850000Y-115250000D01*
X148700000Y-119800000D02*
X148700000Y-115200000D01*
X148550000Y-119800000D02*
X148550000Y-115200000D01*
X148400000Y-119750000D02*
X148400000Y-115200000D01*
X148250000Y-119650000D02*
X148250000Y-115100000D01*
X148100000Y-119550000D02*
X148100000Y-115050000D01*
X148000000Y-119400000D02*
X148000000Y-115000000D01*
X147900000Y-119150000D02*
X147900000Y-114950000D01*
X147800000Y-119000000D02*
X147800000Y-114850000D01*
X147700000Y-118800000D02*
X147700000Y-114650000D01*
X147600000Y-118650000D02*
X147600000Y-114500000D01*
X147500000Y-118450000D02*
X147500000Y-114000000D01*
X147350000Y-118300000D02*
X147350000Y-113850000D01*
X147200000Y-118150000D02*
X147200000Y-113750000D01*
X147050000Y-118050000D02*
X147050000Y-113650000D01*
X146900000Y-117950000D02*
X146900000Y-113500000D01*
X146750000Y-117850000D02*
X146750000Y-113400000D01*
X146600000Y-117800000D02*
X146600000Y-113250000D01*
X146450000Y-117700000D02*
X146450000Y-113150000D01*
X146300000Y-117650000D02*
X146300000Y-113050000D01*
X146275000Y-112975000D02*
X147550000Y-114000000D01*
X146275000Y-112975000D02*
X143725000Y-112975000D01*
X146150000Y-117650000D02*
X146150000Y-113000000D01*
X146000000Y-117650000D02*
X146000000Y-113000000D01*
X145850000Y-117600000D02*
X145850000Y-113050000D01*
X145700000Y-117625000D02*
X143725000Y-117625000D01*
X145700000Y-117600000D02*
X145700000Y-113000000D01*
X145550000Y-117600000D02*
X145550000Y-113000000D01*
X145400000Y-117600000D02*
X145400000Y-113000000D01*
X145250000Y-117600000D02*
X145250000Y-113000000D01*
X145100000Y-117600000D02*
X145100000Y-113000000D01*
X144950000Y-117600000D02*
X144950000Y-113000000D01*
X144800000Y-117600000D02*
X144800000Y-113000000D01*
X144650000Y-117600000D02*
X144650000Y-113000000D01*
X144500000Y-117600000D02*
X144500000Y-113000000D01*
X144350000Y-117600000D02*
X144350000Y-113000000D01*
X144200000Y-117600000D02*
X144200000Y-113000000D01*
X144050000Y-117600000D02*
X144050000Y-113000000D01*
X143900000Y-117600000D02*
X143900000Y-113000000D01*
X143750000Y-117600000D02*
X143750000Y-113000000D01*
X143600000Y-117450000D02*
X143600000Y-113100000D01*
X143450000Y-117350000D02*
X143450000Y-113250000D01*
X143300000Y-117200000D02*
X143300000Y-113400000D01*
X143150000Y-117050000D02*
X143150000Y-113550000D01*
X143000000Y-116850000D02*
X143000000Y-113700000D01*
X142850000Y-116750000D02*
X142850000Y-113850000D01*
X142700000Y-116600000D02*
X143725000Y-117625000D01*
X142700000Y-114000000D02*
X143725000Y-112975000D01*
X142700000Y-114000000D02*
X142700000Y-116600000D01*
X151300000Y-119825000D02*
G75*
G03*
X152300000Y-118825000I1J999999D01*
G01*
X152300000Y-116175000D02*
G75*
G03*
X151300000Y-115175000I-999999J1D01*
G01*
X147550000Y-114000000D02*
G75*
G03*
X148725000Y-115175000I1175000J0D01*
G01*
X147837798Y-119121905D02*
G75*
G03*
X148699005Y-119823790I900002J225005D01*
G01*
X147837801Y-119121904D02*
G75*
G03*
X145700000Y-117625000I-2137801J-778096D01*
G01*
D13*
X151905000Y-145450000D02*
X153400000Y-145450000D01*
X153430000Y-145450000D02*
X153430000Y-146900000D01*
X153430000Y-146900000D02*
X151905000Y-146900000D01*
D10*
X209900000Y-144885000D02*
X209900000Y-147535000D01*
X209750000Y-147960000D02*
X209750000Y-144410000D01*
X209650000Y-148110000D02*
X209650000Y-144360000D01*
X209550000Y-148210000D02*
X209550000Y-144260000D01*
X209450000Y-148310000D02*
X209450000Y-144110000D01*
X209300000Y-148410000D02*
X209300000Y-144010000D01*
X209150000Y-148460000D02*
X209150000Y-143960000D01*
X209000000Y-148510000D02*
X209000000Y-143960000D01*
X208900000Y-148535000D02*
X206300000Y-148535000D01*
X208900000Y-143885000D02*
X206325000Y-143885000D01*
X208850000Y-148510000D02*
X208850000Y-143910000D01*
X208700000Y-148510000D02*
X208700000Y-143910000D01*
X208550000Y-148510000D02*
X208550000Y-143910000D01*
X208400000Y-148510000D02*
X208400000Y-143910000D01*
X208250000Y-148510000D02*
X208250000Y-143910000D01*
X208100000Y-148510000D02*
X208100000Y-143910000D01*
X207950000Y-148510000D02*
X207950000Y-143910000D01*
X207800000Y-148510000D02*
X207800000Y-143910000D01*
X207650000Y-148510000D02*
X207650000Y-143910000D01*
X207500000Y-148510000D02*
X207500000Y-143910000D01*
X207350000Y-148510000D02*
X207350000Y-143910000D01*
X207200000Y-148510000D02*
X207200000Y-143910000D01*
X207050000Y-148510000D02*
X207050000Y-143910000D01*
X206900000Y-148510000D02*
X206900000Y-143910000D01*
X206750000Y-148510000D02*
X206750000Y-143910000D01*
X206600000Y-148510000D02*
X206600000Y-143910000D01*
X206450000Y-148510000D02*
X206450000Y-143960000D01*
X206300000Y-148510000D02*
X206300000Y-143910000D01*
X206150000Y-148510000D02*
X206150000Y-143910000D01*
X206000000Y-148460000D02*
X206000000Y-143910000D01*
X205850000Y-148360000D02*
X205850000Y-143810000D01*
X205700000Y-148260000D02*
X205700000Y-143760000D01*
X205600000Y-148110000D02*
X205600000Y-143710000D01*
X205500000Y-147860000D02*
X205500000Y-143660000D01*
X205400000Y-147710000D02*
X205400000Y-143560000D01*
X205300000Y-147510000D02*
X205300000Y-143360000D01*
X205200000Y-147360000D02*
X205200000Y-143210000D01*
X205100000Y-147160000D02*
X205100000Y-142710000D01*
X204950000Y-147010000D02*
X204950000Y-142560000D01*
X204800000Y-146860000D02*
X204800000Y-142460000D01*
X204650000Y-146760000D02*
X204650000Y-142360000D01*
X204500000Y-146660000D02*
X204500000Y-142210000D01*
X204350000Y-146560000D02*
X204350000Y-142110000D01*
X204200000Y-146510000D02*
X204200000Y-141960000D01*
X204050000Y-146410000D02*
X204050000Y-141860000D01*
X203900000Y-146360000D02*
X203900000Y-141760000D01*
X203875000Y-141685000D02*
X205150000Y-142710000D01*
X203875000Y-141685000D02*
X201325000Y-141685000D01*
X203750000Y-146360000D02*
X203750000Y-141710000D01*
X203600000Y-146360000D02*
X203600000Y-141710000D01*
X203450000Y-146310000D02*
X203450000Y-141760000D01*
X203300000Y-146335000D02*
X201325000Y-146335000D01*
X203300000Y-146310000D02*
X203300000Y-141710000D01*
X203150000Y-146310000D02*
X203150000Y-141710000D01*
X203000000Y-146310000D02*
X203000000Y-141710000D01*
X202850000Y-146310000D02*
X202850000Y-141710000D01*
X202700000Y-146310000D02*
X202700000Y-141710000D01*
X202550000Y-146310000D02*
X202550000Y-141710000D01*
X202400000Y-146310000D02*
X202400000Y-141710000D01*
X202250000Y-146310000D02*
X202250000Y-141710000D01*
X202100000Y-146310000D02*
X202100000Y-141710000D01*
X201950000Y-146310000D02*
X201950000Y-141710000D01*
X201800000Y-146310000D02*
X201800000Y-141710000D01*
X201650000Y-146310000D02*
X201650000Y-141710000D01*
X201500000Y-146310000D02*
X201500000Y-141710000D01*
X201350000Y-146310000D02*
X201350000Y-141710000D01*
X201200000Y-146160000D02*
X201200000Y-141810000D01*
X201050000Y-146060000D02*
X201050000Y-141960000D01*
X200900000Y-145910000D02*
X200900000Y-142110000D01*
X200750000Y-145760000D02*
X200750000Y-142260000D01*
X200600000Y-145560000D02*
X200600000Y-142410000D01*
X200450000Y-145460000D02*
X200450000Y-142560000D01*
X200300000Y-145310000D02*
X201325000Y-146335000D01*
X200300000Y-142710000D02*
X201325000Y-141685000D01*
X200300000Y-142710000D02*
X200300000Y-145310000D01*
X208900000Y-148535000D02*
G75*
G03*
X209900000Y-147535000I1J999999D01*
G01*
X209900000Y-144885000D02*
G75*
G03*
X208900000Y-143885000I-999999J1D01*
G01*
X205150000Y-142710000D02*
G75*
G03*
X206325000Y-143885000I1175000J0D01*
G01*
X205437798Y-147831905D02*
G75*
G03*
X206299005Y-148533790I900002J225005D01*
G01*
X205437801Y-147831904D02*
G75*
G03*
X203300000Y-146335000I-2137801J-778096D01*
G01*
X209900000Y-125685000D02*
X209900000Y-128335000D01*
X209750000Y-128760000D02*
X209750000Y-125210000D01*
X209650000Y-128910000D02*
X209650000Y-125160000D01*
X209550000Y-129010000D02*
X209550000Y-125060000D01*
X209450000Y-129110000D02*
X209450000Y-124910000D01*
X209300000Y-129210000D02*
X209300000Y-124810000D01*
X209150000Y-129260000D02*
X209150000Y-124760000D01*
X209000000Y-129310000D02*
X209000000Y-124760000D01*
X208900000Y-129335000D02*
X206300000Y-129335000D01*
X208900000Y-124685000D02*
X206325000Y-124685000D01*
X208850000Y-129310000D02*
X208850000Y-124710000D01*
X208700000Y-129310000D02*
X208700000Y-124710000D01*
X208550000Y-129310000D02*
X208550000Y-124710000D01*
X208400000Y-129310000D02*
X208400000Y-124710000D01*
X208250000Y-129310000D02*
X208250000Y-124710000D01*
X208100000Y-129310000D02*
X208100000Y-124710000D01*
X207950000Y-129310000D02*
X207950000Y-124710000D01*
X207800000Y-129310000D02*
X207800000Y-124710000D01*
X207650000Y-129310000D02*
X207650000Y-124710000D01*
X207500000Y-129310000D02*
X207500000Y-124710000D01*
X207350000Y-129310000D02*
X207350000Y-124710000D01*
X207200000Y-129310000D02*
X207200000Y-124710000D01*
X207050000Y-129310000D02*
X207050000Y-124710000D01*
X206900000Y-129310000D02*
X206900000Y-124710000D01*
X206750000Y-129310000D02*
X206750000Y-124710000D01*
X206600000Y-129310000D02*
X206600000Y-124710000D01*
X206450000Y-129310000D02*
X206450000Y-124760000D01*
X206300000Y-129310000D02*
X206300000Y-124710000D01*
X206150000Y-129310000D02*
X206150000Y-124710000D01*
X206000000Y-129260000D02*
X206000000Y-124710000D01*
X205850000Y-129160000D02*
X205850000Y-124610000D01*
X205700000Y-129060000D02*
X205700000Y-124560000D01*
X205600000Y-128910000D02*
X205600000Y-124510000D01*
X205500000Y-128660000D02*
X205500000Y-124460000D01*
X205400000Y-128510000D02*
X205400000Y-124360000D01*
X205300000Y-128310000D02*
X205300000Y-124160000D01*
X205200000Y-128160000D02*
X205200000Y-124010000D01*
X205100000Y-127960000D02*
X205100000Y-123510000D01*
X204950000Y-127810000D02*
X204950000Y-123360000D01*
X204800000Y-127660000D02*
X204800000Y-123260000D01*
X204650000Y-127560000D02*
X204650000Y-123160000D01*
X204500000Y-127460000D02*
X204500000Y-123010000D01*
X204350000Y-127360000D02*
X204350000Y-122910000D01*
X204200000Y-127310000D02*
X204200000Y-122760000D01*
X204050000Y-127210000D02*
X204050000Y-122660000D01*
X203900000Y-127160000D02*
X203900000Y-122560000D01*
X203875000Y-122485000D02*
X205150000Y-123510000D01*
X203875000Y-122485000D02*
X201325000Y-122485000D01*
X203750000Y-127160000D02*
X203750000Y-122510000D01*
X203600000Y-127160000D02*
X203600000Y-122510000D01*
X203450000Y-127110000D02*
X203450000Y-122560000D01*
X203300000Y-127135000D02*
X201325000Y-127135000D01*
X203300000Y-127110000D02*
X203300000Y-122510000D01*
X203150000Y-127110000D02*
X203150000Y-122510000D01*
X203000000Y-127110000D02*
X203000000Y-122510000D01*
X202850000Y-127110000D02*
X202850000Y-122510000D01*
X202700000Y-127110000D02*
X202700000Y-122510000D01*
X202550000Y-127110000D02*
X202550000Y-122510000D01*
X202400000Y-127110000D02*
X202400000Y-122510000D01*
X202250000Y-127110000D02*
X202250000Y-122510000D01*
X202100000Y-127110000D02*
X202100000Y-122510000D01*
X201950000Y-127110000D02*
X201950000Y-122510000D01*
X201800000Y-127110000D02*
X201800000Y-122510000D01*
X201650000Y-127110000D02*
X201650000Y-122510000D01*
X201500000Y-127110000D02*
X201500000Y-122510000D01*
X201350000Y-127110000D02*
X201350000Y-122510000D01*
X201200000Y-126960000D02*
X201200000Y-122610000D01*
X201050000Y-126860000D02*
X201050000Y-122760000D01*
X200900000Y-126710000D02*
X200900000Y-122910000D01*
X200750000Y-126560000D02*
X200750000Y-123060000D01*
X200600000Y-126360000D02*
X200600000Y-123210000D01*
X200450000Y-126260000D02*
X200450000Y-123360000D01*
X200300000Y-126110000D02*
X201325000Y-127135000D01*
X200300000Y-123510000D02*
X201325000Y-122485000D01*
X200300000Y-123510000D02*
X200300000Y-126110000D01*
X208900000Y-129335000D02*
G75*
G03*
X209900000Y-128335000I1J999999D01*
G01*
X209900000Y-125685000D02*
G75*
G03*
X208900000Y-124685000I-999999J1D01*
G01*
X205150000Y-123510000D02*
G75*
G03*
X206325000Y-124685000I1175000J0D01*
G01*
X205437798Y-128631905D02*
G75*
G03*
X206299005Y-129333790I900002J225005D01*
G01*
X205437801Y-128631904D02*
G75*
G03*
X203300000Y-127135000I-2137801J-778096D01*
G01*
D13*
X209505000Y-152460000D02*
X211000000Y-152460000D01*
X211030000Y-152460000D02*
X211030000Y-153910000D01*
X211030000Y-153910000D02*
X209505000Y-153910000D01*
X209505000Y-112060000D02*
X211000000Y-112060000D01*
X211030000Y-112060000D02*
X211030000Y-113510000D01*
X211030000Y-113510000D02*
X209505000Y-113510000D01*
D10*
X190050000Y-159900000D02*
X188550000Y-159900000D01*
X188550000Y-159900000D02*
X188550000Y-165300000D01*
X189800000Y-162100000D02*
X188800000Y-162100000D01*
X189300000Y-162200000D02*
X189800000Y-163100000D01*
X189800000Y-163100000D02*
X188800000Y-163100000D01*
X188800000Y-163100000D02*
X189300000Y-162200000D01*
X190050000Y-165300000D02*
X190050000Y-159900000D01*
X188550000Y-165300000D02*
X190050000Y-165300000D01*
D13*
X171105000Y-145450000D02*
X172600000Y-145450000D01*
X172630000Y-145450000D02*
X172630000Y-146900000D01*
X172630000Y-146900000D02*
X171105000Y-146900000D01*
D10*
X211361778Y-160359118D02*
X209867485Y-160228385D01*
X209867485Y-160228385D02*
X209396844Y-165607836D01*
X210920986Y-162528958D02*
X209924792Y-162441802D01*
X210414173Y-162584999D02*
X210833830Y-163525152D01*
X210833830Y-163525152D02*
X209837636Y-163437996D01*
X209837636Y-163437996D02*
X210414173Y-162584999D01*
X210891137Y-165738569D02*
X211361778Y-160359118D01*
X209396844Y-165607836D02*
X210891137Y-165738569D01*
X219450000Y-138900000D02*
X217950000Y-138900000D01*
X217950000Y-138900000D02*
X217950000Y-144300000D01*
X219200000Y-141100000D02*
X218200000Y-141100000D01*
X218700000Y-141200000D02*
X219200000Y-142100000D01*
X219200000Y-142100000D02*
X218200000Y-142100000D01*
X218200000Y-142100000D02*
X218700000Y-141200000D01*
X219450000Y-144300000D02*
X219450000Y-138900000D01*
X217950000Y-144300000D02*
X219450000Y-144300000D01*
X269621000Y-128389380D02*
X267843000Y-128389380D01*
X267843000Y-128389380D02*
X267843000Y-130675380D01*
X269621000Y-130675380D02*
X269621000Y-128389380D01*
X267843000Y-130675380D02*
X269621000Y-130675380D01*
X271653000Y-128389380D02*
X269875000Y-128389380D01*
X269875000Y-128389380D02*
X269875000Y-130675380D01*
X271653000Y-130675380D02*
X271653000Y-128389380D01*
X269875000Y-130675380D02*
X271653000Y-130675380D01*
X263525000Y-128397000D02*
X261747000Y-128397000D01*
X261747000Y-128397000D02*
X261747000Y-130683000D01*
X263525000Y-130683000D02*
X263525000Y-128397000D01*
X261747000Y-130683000D02*
X263525000Y-130683000D01*
X265557000Y-128397000D02*
X263779000Y-128397000D01*
X263779000Y-128397000D02*
X263779000Y-130683000D01*
X265557000Y-130683000D02*
X265557000Y-128397000D01*
X263779000Y-130683000D02*
X265557000Y-130683000D01*
D14*
X233290846Y-94610424D02*
X233339074Y-93821897D01*
X233999614Y-92850410D02*
X239688982Y-93198387D01*
X235073294Y-95771405D02*
X236770123Y-95875188D01*
X235525662Y-91651337D02*
X235738109Y-91453938D01*
X235446909Y-92938931D02*
X235525662Y-91651337D01*
X235738109Y-91453938D02*
X236636430Y-91508882D01*
X236823237Y-91730700D02*
X236636430Y-91508882D01*
X236823237Y-91730700D02*
X236744484Y-93018294D01*
X238067698Y-95954551D02*
X238267325Y-95966761D01*
X240226204Y-94243132D02*
X240177976Y-95031659D01*
D10*
X267589000Y-128397000D02*
X265811000Y-128397000D01*
X265811000Y-128397000D02*
X265811000Y-130683000D01*
X267589000Y-130683000D02*
X267589000Y-128397000D01*
X265811000Y-130683000D02*
X267589000Y-130683000D01*
%LPC*%
D15*
X174700000Y-130800000D03*
D16*
X174420000Y-126600000D03*
D17*
X174200000Y-134500000D03*
X169200000Y-136700000D03*
D18*
X169200000Y-130800000D03*
D17*
X164200000Y-134500000D03*
D16*
X163980000Y-126600000D03*
D15*
X163700000Y-130800000D03*
D19*
X161400000Y-134500000D03*
X172000000Y-136700000D03*
D20*
X237800000Y-139825000D03*
X237800000Y-143375000D03*
D21*
X166685600Y-107775000D03*
X171714400Y-107775000D03*
X171714400Y-106025000D03*
X166685600Y-106025000D03*
D22*
X158750000Y-160909000D03*
D21*
X243485600Y-103865000D03*
X248514400Y-103865000D03*
X248514400Y-102115000D03*
X243485600Y-102115000D03*
D20*
X161100000Y-127425000D03*
X161100000Y-130975000D03*
D15*
X213100000Y-101910000D03*
D16*
X212820000Y-97710000D03*
D17*
X212600000Y-105610000D03*
X207600000Y-107810000D03*
D18*
X207600000Y-101910000D03*
D17*
X202600000Y-105610000D03*
D16*
X202380000Y-97710000D03*
D15*
X202100000Y-101910000D03*
D19*
X199800000Y-105610000D03*
X210400000Y-107810000D03*
D20*
X180300000Y-120625000D03*
X180300000Y-124175000D03*
D23*
X261721600Y-132334000D03*
X264261600Y-132334000D03*
X266801600Y-132334000D03*
X269341600Y-132334000D03*
X271881600Y-132334000D03*
D20*
X180300000Y-101425000D03*
X180300000Y-104975000D03*
D21*
X224285600Y-139375000D03*
X229314400Y-139375000D03*
X229314400Y-137625000D03*
X224285600Y-137625000D03*
D15*
X232300000Y-124000000D03*
D16*
X232020000Y-119800000D03*
D17*
X231800000Y-127700000D03*
X226800000Y-129900000D03*
D18*
X226800000Y-124000000D03*
D17*
X221800000Y-127700000D03*
D16*
X221580000Y-119800000D03*
D15*
X221300000Y-124000000D03*
D19*
X219000000Y-127700000D03*
X229600000Y-129900000D03*
D15*
X251500000Y-107690000D03*
D16*
X251220000Y-103490000D03*
D17*
X251000000Y-111390000D03*
X246000000Y-113590000D03*
D18*
X246000000Y-107690000D03*
D17*
X241000000Y-111390000D03*
D16*
X240780000Y-103490000D03*
D15*
X240500000Y-107690000D03*
D19*
X238200000Y-111390000D03*
X248800000Y-113590000D03*
D24*
X256858582Y-173463624D03*
X258578532Y-168738097D03*
X256934070Y-168139562D03*
X255214120Y-172865089D03*
D15*
X174700000Y-150000000D03*
D16*
X174420000Y-145800000D03*
D17*
X174200000Y-153700000D03*
X169200000Y-155900000D03*
D18*
X169200000Y-150000000D03*
D17*
X164200000Y-153700000D03*
D16*
X163980000Y-145800000D03*
D15*
X163700000Y-150000000D03*
D19*
X161400000Y-153700000D03*
X172000000Y-155900000D03*
D21*
X243485600Y-98565000D03*
X248514400Y-98565000D03*
X248514400Y-96815000D03*
X243485600Y-96815000D03*
D20*
X199500000Y-98535000D03*
X199500000Y-102085000D03*
D25*
X258692000Y-142534000D03*
X258692000Y-147534000D03*
X258692000Y-145034000D03*
D26*
X266192000Y-139434000D03*
X266192000Y-150634000D03*
D25*
X273192000Y-147534000D03*
X273192000Y-142534000D03*
D15*
X251500000Y-126890000D03*
D16*
X251220000Y-122690000D03*
D17*
X251000000Y-130590000D03*
X246000000Y-132790000D03*
D18*
X246000000Y-126890000D03*
D17*
X241000000Y-130590000D03*
D16*
X240780000Y-122690000D03*
D15*
X240500000Y-126890000D03*
D19*
X238200000Y-130590000D03*
X248800000Y-132790000D03*
D21*
X166685600Y-141675000D03*
X171714400Y-141675000D03*
X171714400Y-139925000D03*
X166685600Y-139925000D03*
D20*
X237800000Y-101425000D03*
X237800000Y-104975000D03*
D15*
X251500000Y-146090000D03*
D16*
X251220000Y-141890000D03*
D17*
X251000000Y-149790000D03*
X246000000Y-151990000D03*
D18*
X246000000Y-146090000D03*
D17*
X241000000Y-149790000D03*
D16*
X240780000Y-141890000D03*
D15*
X240500000Y-146090000D03*
D19*
X238200000Y-149790000D03*
X248800000Y-151990000D03*
D20*
X141900000Y-127425000D03*
X141900000Y-130975000D03*
D27*
X180340000Y-114427000D03*
X184840000Y-114427000D03*
D22*
X263906000Y-186309000D03*
D15*
X155500000Y-130800000D03*
D16*
X155220000Y-126600000D03*
D17*
X155000000Y-134500000D03*
X150000000Y-136700000D03*
D18*
X150000000Y-130800000D03*
D17*
X145000000Y-134500000D03*
D16*
X144780000Y-126600000D03*
D15*
X144500000Y-130800000D03*
D19*
X142200000Y-134500000D03*
X152800000Y-136700000D03*
D28*
X274556400Y-100012000D03*
X274556400Y-102552000D03*
X274556400Y-105092000D03*
X274556400Y-107632000D03*
X274556400Y-110172000D03*
X274556400Y-112712000D03*
X274556400Y-115252000D03*
X274556400Y-117792000D03*
X274556400Y-120332000D03*
X274556400Y-122872000D03*
X274556400Y-125412000D03*
X274556400Y-127952000D03*
X259336400Y-127952000D03*
X259336400Y-125412000D03*
X259336400Y-122872000D03*
X259336400Y-120332000D03*
X259336400Y-117792000D03*
X259336400Y-115252000D03*
X259336400Y-112712000D03*
X259336400Y-110172000D03*
X259336400Y-107632000D03*
X259336400Y-105092000D03*
X259336400Y-102552000D03*
X259336400Y-100012000D03*
D29*
X266079000Y-97716000D03*
X266079000Y-104716000D03*
X267829000Y-97716000D03*
X267829000Y-104716000D03*
D30*
X265729000Y-108016000D03*
X268179000Y-108016000D03*
X263979000Y-99516000D03*
X269929000Y-99516000D03*
X263979000Y-102516000D03*
X269929000Y-102516000D03*
X263979000Y-106516000D03*
X269929000Y-106516000D03*
D15*
X263193992Y-167240779D03*
D16*
X259151517Y-166067408D03*
D17*
X266499844Y-168976099D03*
X266857067Y-174427007D03*
D18*
X261312881Y-172409088D03*
D17*
X263079643Y-178373026D03*
D16*
X255580827Y-175877799D03*
D15*
X259431770Y-177577397D03*
D31*
X262121987Y-181004165D03*
X267814724Y-171795868D03*
D15*
X193900000Y-124000000D03*
D16*
X193620000Y-119800000D03*
D17*
X193400000Y-127700000D03*
X188400000Y-129900000D03*
D18*
X188400000Y-124000000D03*
D17*
X183400000Y-127700000D03*
D16*
X183180000Y-119800000D03*
D15*
X182900000Y-124000000D03*
D19*
X180600000Y-127700000D03*
X191200000Y-129900000D03*
D20*
X237800000Y-120625000D03*
X237800000Y-124175000D03*
D32*
X216137578Y-161253761D03*
X221147242Y-161692050D03*
X221299764Y-159948709D03*
X216290100Y-159510420D03*
D33*
X270060666Y-196982994D03*
X273396574Y-198197166D03*
D15*
X193900000Y-104800000D03*
D16*
X193620000Y-100600000D03*
D17*
X193400000Y-108500000D03*
X188400000Y-110700000D03*
D18*
X188400000Y-104800000D03*
D17*
X183400000Y-108500000D03*
D16*
X183180000Y-100600000D03*
D15*
X182900000Y-104800000D03*
D19*
X180600000Y-108500000D03*
X191200000Y-110700000D03*
D15*
X244304480Y-169337436D03*
D16*
X244831022Y-165161176D03*
D17*
X243107673Y-172874053D03*
X237779757Y-174079587D03*
D18*
X238905530Y-168287987D03*
D17*
X233291401Y-170965963D03*
D16*
X234582834Y-163169130D03*
D15*
X233506580Y-167238538D03*
D34*
X230542845Y-170431697D03*
X240528313Y-174613853D03*
D15*
X232300000Y-104800000D03*
D16*
X232020000Y-100600000D03*
D17*
X231800000Y-108500000D03*
X226800000Y-110700000D03*
D18*
X226800000Y-104800000D03*
D17*
X221800000Y-108500000D03*
D16*
X221580000Y-100600000D03*
D15*
X221300000Y-104800000D03*
D19*
X219000000Y-108500000D03*
X229600000Y-110700000D03*
D22*
X255524000Y-105537000D03*
D20*
X161100000Y-146625000D03*
X161100000Y-150175000D03*
D33*
X255371056Y-178866280D03*
X258706964Y-180080452D03*
D35*
X237167171Y-164053493D03*
X242103578Y-165013033D03*
X242437493Y-163295185D03*
X237501086Y-162335645D03*
D21*
X243485600Y-142265000D03*
X248514400Y-142265000D03*
X248514400Y-140515000D03*
X243485600Y-140515000D03*
X147485600Y-107775000D03*
X152514400Y-107775000D03*
X152514400Y-106025000D03*
X147485600Y-106025000D03*
D15*
X202900000Y-164200000D03*
D16*
X202620000Y-160000000D03*
D17*
X202400000Y-167900000D03*
X197400000Y-170100000D03*
D18*
X197400000Y-164200000D03*
D17*
X192400000Y-167900000D03*
D16*
X192180000Y-160000000D03*
D15*
X191900000Y-164200000D03*
D19*
X189600000Y-167900000D03*
X200200000Y-170100000D03*
D24*
X268625613Y-184124757D03*
X270345563Y-179399230D03*
X268701101Y-178800695D03*
X266981151Y-183526222D03*
D15*
X232300000Y-143200000D03*
D16*
X232020000Y-139000000D03*
D17*
X231800000Y-146900000D03*
X226800000Y-149100000D03*
D18*
X226800000Y-143200000D03*
D17*
X221800000Y-146900000D03*
D16*
X221580000Y-139000000D03*
D15*
X221300000Y-143200000D03*
D19*
X219000000Y-146900000D03*
X229600000Y-149100000D03*
D20*
X218700000Y-101425000D03*
X218700000Y-104975000D03*
X180300000Y-139825000D03*
X180300000Y-143375000D03*
D25*
X278880305Y-173016934D03*
X276871695Y-166835066D03*
D21*
X224285600Y-100975000D03*
X229314400Y-100975000D03*
X229314400Y-99225000D03*
X224285600Y-99225000D03*
X194885600Y-160375000D03*
X199914400Y-160375000D03*
X199914400Y-158625000D03*
X194885600Y-158625000D03*
X224285600Y-120175000D03*
X229314400Y-120175000D03*
X229314400Y-118425000D03*
X224285600Y-118425000D03*
X185885600Y-139375000D03*
X190914400Y-139375000D03*
X190914400Y-137625000D03*
X185885600Y-137625000D03*
X147485600Y-126975000D03*
X152514400Y-126975000D03*
X152514400Y-125225000D03*
X147485600Y-125225000D03*
D15*
X155500000Y-150000000D03*
D16*
X155220000Y-145800000D03*
D17*
X155000000Y-153700000D03*
X150000000Y-155900000D03*
D18*
X150000000Y-150000000D03*
D17*
X145000000Y-153700000D03*
D16*
X144780000Y-145800000D03*
D15*
X144500000Y-150000000D03*
D19*
X142200000Y-153700000D03*
X152800000Y-155900000D03*
D36*
X264417000Y-136634000D03*
X267967000Y-136634000D03*
D21*
X185885600Y-100975000D03*
X190914400Y-100975000D03*
X190914400Y-99225000D03*
X185885600Y-99225000D03*
D15*
X174700000Y-111600000D03*
D16*
X174420000Y-107400000D03*
D17*
X174200000Y-115300000D03*
X169200000Y-117500000D03*
D18*
X169200000Y-111600000D03*
D17*
X164200000Y-115300000D03*
D16*
X163980000Y-107400000D03*
D15*
X163700000Y-111600000D03*
D19*
X161400000Y-115300000D03*
X172000000Y-117500000D03*
D15*
X193900000Y-143200000D03*
D16*
X193620000Y-139000000D03*
D17*
X193400000Y-146900000D03*
X188400000Y-149100000D03*
D18*
X188400000Y-143200000D03*
D17*
X183400000Y-146900000D03*
D16*
X183180000Y-139000000D03*
D15*
X182900000Y-143200000D03*
D19*
X180600000Y-146900000D03*
X191200000Y-149100000D03*
D20*
X199500000Y-136935000D03*
X199500000Y-140485000D03*
D22*
X156337000Y-101981000D03*
X266192000Y-158623000D03*
D21*
X205085600Y-117285000D03*
X210114400Y-117285000D03*
X210114400Y-115535000D03*
X205085600Y-115535000D03*
D20*
X141900000Y-108225000D03*
X141900000Y-111775000D03*
D15*
X277883602Y-185357493D03*
D16*
X273841127Y-184184122D03*
D17*
X281189454Y-187092813D03*
X281546677Y-192543721D03*
D18*
X276002491Y-190525802D03*
D17*
X277769253Y-196489740D03*
D16*
X270270437Y-193994513D03*
D15*
X274121380Y-195694111D03*
D31*
X276811597Y-199120879D03*
X282504334Y-189912582D03*
D24*
X271548192Y-191580338D03*
X273268142Y-186854811D03*
X271623680Y-186256276D03*
X269903730Y-190981803D03*
D21*
X205085600Y-136485000D03*
X210114400Y-136485000D03*
X210114400Y-134735000D03*
X205085600Y-134735000D03*
D37*
X231598330Y-163429443D03*
X230920958Y-166914219D03*
D38*
X254254000Y-139700000D03*
X254254000Y-137160000D03*
X254254000Y-134620000D03*
D20*
X218700000Y-120625000D03*
X218700000Y-124175000D03*
X141900000Y-146625000D03*
X141900000Y-150175000D03*
D21*
X166685600Y-126975000D03*
X171714400Y-126975000D03*
X171714400Y-125225000D03*
X166685600Y-125225000D03*
D20*
X199500000Y-117735000D03*
X199500000Y-121285000D03*
D21*
X243485600Y-123065000D03*
X248514400Y-123065000D03*
X248514400Y-121315000D03*
X243485600Y-121315000D03*
D15*
X223788110Y-165762707D03*
D16*
X223875229Y-161554285D03*
D17*
X222967536Y-169405049D03*
X217794820Y-171160899D03*
D18*
X218309039Y-165283350D03*
D17*
X213005589Y-168533492D03*
D16*
X213474957Y-160644379D03*
D15*
X212829968Y-164803993D03*
D39*
X210216244Y-168289456D03*
X220584165Y-171404935D03*
D21*
X205085600Y-98085000D03*
X210114400Y-98085000D03*
X210114400Y-96335000D03*
X205085600Y-96335000D03*
X166685600Y-102475000D03*
X171714400Y-102475000D03*
X171714400Y-100725000D03*
X166685600Y-100725000D03*
X185885600Y-120175000D03*
X190914400Y-120175000D03*
X190914400Y-118425000D03*
X185885600Y-118425000D03*
D15*
X155500000Y-111600000D03*
D16*
X155220000Y-107400000D03*
D17*
X155000000Y-115300000D03*
X150000000Y-117500000D03*
D18*
X150000000Y-111600000D03*
D17*
X145000000Y-115300000D03*
D16*
X144780000Y-107400000D03*
D15*
X144500000Y-111600000D03*
D19*
X142200000Y-115300000D03*
X152800000Y-117500000D03*
D21*
X147485600Y-146175000D03*
X152514400Y-146175000D03*
X152514400Y-144425000D03*
X147485600Y-144425000D03*
D15*
X213100000Y-140310000D03*
D16*
X212820000Y-136110000D03*
D17*
X212600000Y-144010000D03*
X207600000Y-146210000D03*
D18*
X207600000Y-140310000D03*
D17*
X202600000Y-144010000D03*
D16*
X202380000Y-136110000D03*
D15*
X202100000Y-140310000D03*
D19*
X199800000Y-144010000D03*
X210400000Y-146210000D03*
D15*
X213100000Y-121110000D03*
D16*
X212820000Y-116910000D03*
D17*
X212600000Y-124810000D03*
X207600000Y-127010000D03*
D18*
X207600000Y-121110000D03*
D17*
X202600000Y-124810000D03*
D16*
X202380000Y-116910000D03*
D15*
X202100000Y-121110000D03*
D19*
X199800000Y-124810000D03*
X210400000Y-127010000D03*
D21*
X205085600Y-153185000D03*
X210114400Y-153185000D03*
X210114400Y-151435000D03*
X205085600Y-151435000D03*
X205085600Y-112785000D03*
X210114400Y-112785000D03*
X210114400Y-111035000D03*
X205085600Y-111035000D03*
D20*
X189300000Y-160825000D03*
X189300000Y-164375000D03*
D21*
X166685600Y-146175000D03*
X171714400Y-146175000D03*
X171714400Y-144425000D03*
X166685600Y-144425000D03*
D40*
X210534012Y-161215231D03*
X210224610Y-164751723D03*
D20*
X218700000Y-139825000D03*
X218700000Y-143375000D03*
D41*
X268732000Y-129032000D03*
X268732000Y-130032760D03*
X270764000Y-129032000D03*
X270764000Y-130032760D03*
X262636000Y-129039620D03*
X262636000Y-130040380D03*
X264668000Y-129039620D03*
X264668000Y-130040380D03*
D42*
X233182791Y-93101012D03*
X233047874Y-95306890D03*
D43*
X235261628Y-94330215D03*
X238256032Y-94513360D03*
D42*
X240469175Y-93546666D03*
X240334258Y-95752544D03*
D44*
X234405581Y-96041146D03*
X237399986Y-96224291D03*
X238897188Y-96315864D03*
D41*
X266700000Y-129039620D03*
X266700000Y-130040380D03*
%LPD*%
M02*
