M48
; DRILL file {KiCad 7.0.7} date Sun Jan 28 17:31:03 2024
; FORMAT={-:-/ absolute / metric / decimal}
; #@! TF.CreationDate,2024-01-28T17:31:03-05:00
; #@! TF.GenerationSoftware,Kicad,Pcbnew,7.0.7
; #@! TF.FileFunction,Plated,1,2,PTH
FMAT,2
METRIC
; #@! TA.AperFunction,Plated,PTH,ViaDrill
T1C0.400
; #@! TA.AperFunction,Plated,PTH,ComponentDrill
T2C0.600
; #@! TA.AperFunction,Plated,PTH,ComponentDrill
T3C0.813
; #@! TA.AperFunction,Plated,PTH,ComponentDrill
T4C1.000
; #@! TA.AperFunction,Plated,PTH,ComponentDrill
T5C1.300
; #@! TA.AperFunction,Plated,PTH,ComponentDrill
T6C1.500
; #@! TA.AperFunction,Plated,PTH,ComponentDrill
T7C4.100
%
G90
G05
T1
X141.9Y-125.644
X141.9Y-144.78
X141.986Y-108.204
X141.986Y-111.887
X141.986Y-132.588
X141.986Y-151.638
X142.24Y-117.602
X142.24Y-136.906
X142.748Y-155.956
X144.526Y-142.278
X144.526Y-144.272
X145.034Y-103.542
X145.034Y-105.918
X145.034Y-120.65
X145.034Y-125.222
X146.05Y-124.968
X146.05Y-144.272
X146.113Y-105.982
X151.13Y-153.67
X151.892Y-134.62
X152.654Y-115.57
X153.924Y-107.989
X153.924Y-126.238
X153.924Y-145.288
X156.718Y-109.855
X156.718Y-128.778
X156.718Y-148.336
X157.734Y-139.7
X157.734Y-145.288
X157.9Y-117.602
X157.988Y-123.952
X158.771Y-107.666
X158.983Y-109.808
X160.071Y-110.185
X160.274Y-122.936
X160.833Y-125.984
X161.087Y-108.229
X161.087Y-132.385
X161.087Y-145.237
X161.138Y-151.638
X161.163Y-113.411
X161.26Y-105.21
X161.26Y-106.299
X161.921Y-155.706
X162.344Y-122.936
X162.966Y-100.457
X163.076Y-101.634
X163.83Y-106.025
X163.83Y-120.65
X163.83Y-122.174
X163.83Y-123.698
X164.668Y-103.454
X164.959Y-162.369
X165.1Y-144.018
X165.252Y-163.728
X165.278Y-124.547
X165.354Y-101.854
X165.354Y-105.918
X165.661Y-160.191
X165.71Y-158.492
X166.624Y-143.002
X167.894Y-115.062
X170.18Y-153.416
X170.942Y-134.874
X173.025Y-163.576
X173.228Y-101.473
X173.228Y-106.172
X173.228Y-126.238
X173.482Y-146.812
X173.736Y-158.585
X173.99Y-143.764
X174.244Y-102.362
X174.295Y-163.449
X174.854Y-165.997
X175.006Y-160.909
X175.043Y-143.51
X175.514Y-158.75
X175.641Y-101.092
X176.022Y-108.712
X176.149Y-132.334
X176.276Y-127.762
X177.038Y-122.936
X177.038Y-136.652
X177.038Y-161.417
X177.1Y-117.602
X177.1Y-143.002
X177.292Y-166.624
X178.054Y-161.065
X178.308Y-157.353
X179.172Y-119.736
X179.299Y-149.893
X179.324Y-161.189
X179.333Y-150.892
X179.578Y-163.639
X179.684Y-167.042
X179.832Y-116.967
X180.289Y-106.426
X180.289Y-125.679
X180.3Y-101.425
X180.325Y-151.093
X180.34Y-144.831
X180.75Y-148.942
X181.106Y-151.761
X181.153Y-138.532
X181.61Y-117.602
X181.737Y-100.457
X182.499Y-151.981
X182.753Y-165.608
X183.515Y-117.983
X184.404Y-134.366
X184.404Y-137.414
X184.472Y-99.255
X184.531Y-118.364
X184.531Y-139.446
X184.658Y-163.615
X185.454Y-165.828
X186.182Y-166.624
X186.436Y-147.066
X186.465Y-164.436
X186.563Y-153.67
X186.928Y-169.232
X187.071Y-160.314
X187.135Y-155.766
X187.198Y-127.381
X187.574Y-165.359
X187.706Y-114.427
X188.341Y-108.331
X188.531Y-163.258
X188.611Y-162.195
X189.23Y-164.846
X189.253Y-153.189
X189.394Y-166.9
X189.644Y-154.178
X189.738Y-155.579
X189.865Y-157.821
X189.865Y-159.639
X189.865Y-163.195
X191.008Y-155.575
X191.934Y-154.718
X192.405Y-99.695
X192.405Y-119.507
X192.405Y-138.303
X193.167Y-160.147
X193.294Y-157.988
X193.421Y-156.972
X193.929Y-154.813
X194.818Y-140.208
X194.818Y-155.358
X194.945Y-120.904
X195.326Y-101.854
X195.453Y-148.844
X195.834Y-111.252
X195.834Y-118.364
X196.088Y-98.933
X196.088Y-130.302
X196.088Y-137.501
X196.131Y-99.932
X196.85Y-141.058
X197.231Y-148.717
X197.993Y-119.761
X198.1Y-100.292
X198.628Y-96.647
X198.628Y-114.808
X199.212Y-166.903
X199.263Y-147.624
X199.39Y-135.23
X199.492Y-103.53
X199.492Y-122.631
X199.492Y-141.935
X199.5Y-98.535
X199.894Y-146.054
X199.898Y-154.813
X200.152Y-108.585
X200.152Y-110.617
X200.152Y-115.57
X200.406Y-148.082
X200.711Y-116.992
X200.787Y-149.225
X201.32Y-158.547
X201.549Y-156.718
X201.672Y-147.832
X201.93Y-115.024
X202.311Y-131.826
X202.311Y-134.493
X202.438Y-111.252
X202.692Y-96.266
X202.692Y-151.003
X202.946Y-157.48
X203.327Y-99.314
X203.581Y-115.189
X203.581Y-151.765
X203.581Y-153.797
X203.708Y-96.012
X203.708Y-112.014
X203.708Y-134.62
X204.978Y-103.505
X205.08Y-164.744
X206.248Y-156.718
X207.01Y-154.852
X207.264Y-105.537
X207.391Y-160.274
X207.391Y-168.148
X207.772Y-124.714
X208.407Y-143.637
X210.21Y-163.728
X210.566Y-160.223
X211.455Y-116.459
X211.455Y-152.273
X211.582Y-97.184
X211.582Y-111.76
X211.582Y-136.017
X211.836Y-113.03
X212.217Y-153.185
X213.36Y-112.014
X213.36Y-133.731
X213.938Y-158.237
X214.058Y-115.252
X214.249Y-137.287
X214.249Y-146.939
X214.681Y-96.215
X214.775Y-111.506
X214.933Y-158.332
X215.138Y-127.635
X215.138Y-136.271
X215.182Y-151.467
X215.304Y-150.304
X215.646Y-97.282
X216.154Y-113.284
X216.154Y-117.856
X217.004Y-137.795
X217.17Y-97.384
X218.186Y-154.659
X218.694Y-99.873
X218.694Y-119.024
X218.694Y-125.679
X218.694Y-144.78
X218.745Y-106.477
X218.745Y-138.176
X218.923Y-95.631
X219.329Y-167.97
X219.456Y-156.718
X220.726Y-95.504
X220.98Y-137.414
X221.234Y-117.983
X221.615Y-99.06
X221.742Y-96.52
X222.631Y-160.02
X222.758Y-118.11
X222.758Y-134.62
X222.758Y-137.795
X222.885Y-99.06
X222.885Y-102.108
X222.885Y-121.92
X223.44Y-157.618
X224.282Y-156.718
X225.857Y-168.658
X226.568Y-157.607
X227.207Y-154.169
X227.965Y-146.939
X228.092Y-127.381
X228.092Y-155.702
X228.854Y-108.585
X230.161Y-169.432
X230.505Y-155.067
X230.632Y-100.076
X230.632Y-153.67
X230.759Y-98.933
X230.759Y-119.253
X230.759Y-138.811
X230.886Y-165.862
X231.648Y-162.433
X232.918Y-159.004
X232.918Y-161.163
X233.045Y-110.871
X233.172Y-121.158
X233.426Y-140.462
X233.426Y-150.241
X233.68Y-116.49
X234.061Y-113.665
X234.188Y-159.091
X234.569Y-130.302
X234.696Y-116.535
X234.823Y-139.446
X235.327Y-113.669
X235.424Y-152.527
X235.436Y-117.666
X235.458Y-114.808
X235.743Y-154.051
X235.743Y-155.321
X235.938Y-161.955
X236.449Y-95.047
X237.363Y-116.459
X237.363Y-134.112
X237.769Y-108.509
X237.795Y-104.953
X237.795Y-125.933
X237.795Y-138.074
X237.795Y-144.882
X237.8Y-101.93
X238.438Y-116.781
X238.989Y-98.716
X239.37Y-119.685
X239.395Y-95.25
X240.284Y-98.933
X240.284Y-171.45
X240.665Y-102.012
X240.665Y-135.636
X240.665Y-139.065
X241.173Y-120.993
X241.3Y-99.663
X241.935Y-139.954
X242.062Y-98.171
X242.085Y-102.069
X242.189Y-121.031
X244.094Y-162.306
X246.089Y-163.525
X246.507Y-170.434
X246.634Y-162.687
X247.269Y-130.683
X247.483Y-162.052
X247.523Y-111.252
X247.523Y-157.861
X247.777Y-149.733
X248.031Y-160.528
X248.412Y-173.609
X248.569Y-158.255
X249.428Y-165.608
X249.428Y-173.228
X249.809Y-161.29
X249.936Y-103.251
X249.936Y-122.428
X249.936Y-141.605
X250.19Y-97.409
X250.19Y-160.274
X250.275Y-96.181
X250.317Y-102.115
X250.444Y-157.099
X250.539Y-158.369
X252.222Y-133.096
X252.349Y-124.206
X252.476Y-166.116
X252.476Y-177.673
X252.603Y-143.764
X252.73Y-147.701
X252.984Y-105.537
X252.984Y-113.284
X253.79Y-175.685
X254.0Y-115.824
X254.0Y-119.888
X254.381Y-142.875
X254.762Y-116.84
X254.825Y-175.323
X254.889Y-105.156
X255.016Y-122.682
X255.016Y-166.243
X255.27Y-132.842
X255.397Y-117.639
X255.397Y-121.666
X255.524Y-138.811
X255.676Y-136.246
X255.905Y-178.943
X256.159Y-157.099
X256.413Y-163.703
X256.54Y-117.639
X256.667Y-158.369
X256.794Y-108.204
X256.794Y-110.019
X257.15Y-126.086
X257.556Y-122.936
X257.556Y-168.021
X257.81Y-160.274
X257.937Y-118.401
X260.858Y-104.14
X260.858Y-107.696
X260.858Y-123.28
X261.366Y-113.665
X262.128Y-116.332
X262.128Y-125.857
X262.601Y-120.944
X262.601Y-122.682
X262.687Y-136.652
X263.652Y-104.775
X263.652Y-119.253
X263.906Y-113.157
X263.906Y-116.586
X264.414Y-173.228
X265.557Y-127.508
X265.684Y-105.664
X265.684Y-111.633
X265.934Y-116.582
X266.7Y-124.477
X266.7Y-128.016
X267.208Y-152.654
X267.967Y-136.634
X268.224Y-122.523
X268.351Y-113.157
X268.351Y-116.487
X268.732Y-127.635
X268.732Y-168.402
X269.875Y-127.127
X270.154Y-104.8
X270.192Y-146.875
X270.764Y-127.635
X270.891Y-113.03
X271.331Y-145.855
X272.034Y-144.869
X272.288Y-129.54
X273.406Y-106.375
X273.609Y-108.915
T3
X259.336Y-100.012
X259.336Y-102.552
X259.336Y-105.092
X259.336Y-107.632
X259.336Y-110.172
X259.336Y-112.712
X259.336Y-115.252
X259.336Y-117.792
X259.336Y-120.332
X259.336Y-122.872
X259.336Y-125.412
X259.336Y-127.952
X261.722Y-132.334
X264.262Y-132.334
X266.802Y-132.334
X269.342Y-132.334
X271.882Y-132.334
X274.556Y-100.012
X274.556Y-102.552
X274.556Y-105.092
X274.556Y-107.632
X274.556Y-110.172
X274.556Y-112.712
X274.556Y-115.252
X274.556Y-117.792
X274.556Y-120.332
X274.556Y-122.872
X274.556Y-125.412
X274.556Y-127.952
T4
X258.692Y-142.534
X258.692Y-145.034
X258.692Y-147.534
X273.192Y-142.534
X273.192Y-147.534
T5
X265.17Y-161.702
X271.278Y-163.926
T7
X157.759Y-102.718
X158.623Y-159.258
X254.889Y-99.187
X256.769Y-183.413
X264.795Y-156.083
T2
X262.609Y-98.279G85X262.609Y-97.479
G05
X262.609Y-102.629G85X262.609Y-101.529
G05
X271.249Y-98.279G85X271.249Y-97.479
G05
X271.249Y-102.629G85X271.249Y-101.529
G05
T6
X265.542Y-139.434G85X266.842Y-139.434
G05
X265.542Y-150.634G85X266.842Y-150.634
G05
T0
M30
