0
SECTION
2
HEADER
9
$INSUNITS
70
4
0
ENDSEC
0
SECTION
2
TABLES
0
TABLE
2
LTYPE
0
LTYPE
72
65
70
64
2
CONTINUOUS
3
______
73
0
40
0
0
ENDTAB
0
TABLE
2
LAYER
0
ENDTAB
0
ENDSEC
0
SECTION
2
ENTITIES
0
LINE
8
0
10
140.1
20
-157.7858758
11
140.1
21
-104.0645198
0
LINE
8
0
10
142.6104063
20
-101.1047398
11
177.3943013
21
-95.3509426
0
LINE
8
0
10
177.4057127
20
-95.3490776
11
196.3624471
21
-92.2883549
0
LINE
8
0
10
196.8406294
20
-92.25
11
218.5001964
21
-92.25
0
LINE
8
0
10
218.6995833
20
-92.2566332
11
274.1993869
21
-95.9534523
0
LINE
8
0
10
277
20
-150.8446935
11
277
21
-98.9468191
0
LINE
8
0
10
274.8457699
20
-153.7230043
11
272.2960949
21
-154.4722072
0
LINE
8
0
10
271.6043838
20
-159.9265909
11
273.6327488
21
-161.1371829
0
LINE
8
0
10
266.2656435
20
-188.5014301
11
274.9143456
21
-164.7393162
0
LINE
8
0
10
262.3902856
20
-190.2832645
11
247.6830817
21
-184.750676
0
LINE
8
0
10
245.7393618
20
-181.941692
11
245.7398063
21
-180.7174073
0
LINE
8
0
10
243.3122335
20
-177.7714364
11
239.2628538
21
-176.9843167
0
LINE
8
0
10
239.260866
20
-176.9839311
11
226.4052891
21
-174.4940633
0
LINE
8
0
10
226.0963169
20
-174.4507464
11
208.8305831
21
-172.9401905
0
LINE
8
0
10
208.6068056
20
-172.9290114
11
186.7808016
21
-172.6547845
0
LINE
8
0
10
186.0324729
20
-172.55022
11
142.3139817
21
-160.6810745
0
ARC
8
0
10
143.1
20
-104.0645198
40
3
50
99.3925624
51
180
0
ARC
8
0
10
177.883895
20
-98.3107227
40
3
50
99.1717297
51
99.3925624
0
ARC
8
0
10
196.8406294
20
-95.25
40
3
50
90
51
99.1717297
0
ARC
8
0
10
218.5001964
20
-95.25
40
3
50
86.1891815
51
90
0
ARC
8
0
10
274
20
-98.9468191
40
3
50
0
51
86.1891815
0
ARC
8
0
10
274
20
-150.8446935
40
3
50
286.3750276
51
0
0
ARC
8
0
10
273.1418649
20
-157.350518
40
3
50
106.3750276
51
239.1699234
0
ARC
8
0
10
272.0952677
20
-163.7132558
40
3
50
340.0000019
51
59.1699234
0
ARC
8
0
10
263.4465655
20
-187.4753697
40
3
50
249.3845956
51
340.0000019
0
ARC
8
0
10
248.7393616
20
-181.9427813
40
3
50
179.9791959
51
249.3845956
0
ARC
8
0
10
242.7398065
20
-180.716318
40
3
50
359.9791959
51
78.9999999
0
ARC
8
0
10
238.6904268
20
-179.9291983
40
3
50
78.9999999
51
79.0386714
0
ARC
8
0
10
225.8348498
20
-177.4393305
40
3
50
79.0386714
51
85.0000024
0
ARC
8
0
10
208.569116
20
-175.9287746
40
3
50
85.0000024
51
89.2801627
0
ARC
8
0
10
186.8184912
20
-169.6550213
40
3
50
254.8108694
51
269.2801627
0
ARC
8
0
10
143.1
20
-157.7858758
40
3
50
180
51
254.8108694
0
LINE
8
0
10
142.8
20
-156.5
11
157.2
21
-156.5
0
LINE
8
0
10
157.2
20
-156.5
11
157.2
21
-143.5
0
LINE
8
0
10
157.2
20
-143.5
11
142.8
21
-143.5
0
LINE
8
0
10
142.8
20
-143.5
11
142.8
21
-156.5
0
LINE
8
0
10
142.8
20
-137.3
11
157.2
21
-137.3
0
LINE
8
0
10
157.2
20
-137.3
11
157.2
21
-124.3
0
LINE
8
0
10
157.2
20
-124.3
11
142.8
21
-124.3
0
LINE
8
0
10
142.8
20
-124.3
11
142.8
21
-137.3
0
LINE
8
0
10
142.8
20
-118.1
11
157.2
21
-118.1
0
LINE
8
0
10
157.2
20
-118.1
11
157.2
21
-105.1
0
LINE
8
0
10
157.2
20
-105.1
11
142.8
21
-105.1
0
LINE
8
0
10
142.8
20
-105.1
11
142.8
21
-118.1
0
LINE
8
0
10
162
20
-156.5
11
176.4
21
-156.5
0
LINE
8
0
10
176.4
20
-156.5
11
176.4
21
-143.5
0
LINE
8
0
10
176.4
20
-143.5
11
162
21
-143.5
0
LINE
8
0
10
162
20
-143.5
11
162
21
-156.5
0
LINE
8
0
10
162
20
-137.3
11
176.4
21
-137.3
0
LINE
8
0
10
176.4
20
-137.3
11
176.4
21
-124.3
0
LINE
8
0
10
176.4
20
-124.3
11
162
21
-124.3
0
LINE
8
0
10
162
20
-124.3
11
162
21
-137.3
0
LINE
8
0
10
162
20
-118.1
11
176.4
21
-118.1
0
LINE
8
0
10
176.4
20
-118.1
11
176.4
21
-105.1
0
LINE
8
0
10
176.4
20
-105.1
11
162
21
-105.1
0
LINE
8
0
10
162
20
-105.1
11
162
21
-118.1
0
LINE
8
0
10
181.2
20
-149.7
11
195.6
21
-149.7
0
LINE
8
0
10
195.6
20
-149.7
11
195.6
21
-136.7
0
LINE
8
0
10
195.6
20
-136.7
11
181.2
21
-136.7
0
LINE
8
0
10
181.2
20
-136.7
11
181.2
21
-149.7
0
LINE
8
0
10
181.2
20
-130.5
11
195.6
21
-130.5
0
LINE
8
0
10
195.6
20
-130.5
11
195.6
21
-117.5
0
LINE
8
0
10
195.6
20
-117.5
11
181.2
21
-117.5
0
LINE
8
0
10
181.2
20
-117.5
11
181.2
21
-130.5
0
LINE
8
0
10
181.2
20
-111.3
11
195.6
21
-111.3
0
LINE
8
0
10
195.6
20
-111.3
11
195.6
21
-98.3
0
LINE
8
0
10
195.6
20
-98.3
11
181.2
21
-98.3
0
LINE
8
0
10
181.2
20
-98.3
11
181.2
21
-111.3
0
LINE
8
0
10
200.4
20
-146.81
11
214.8
21
-146.81
0
LINE
8
0
10
214.8
20
-146.81
11
214.8
21
-133.81
0
LINE
8
0
10
214.8
20
-133.81
11
200.4
21
-133.81
0
LINE
8
0
10
200.4
20
-133.81
11
200.4
21
-146.81
0
LINE
8
0
10
200.4
20
-127.61
11
214.8
21
-127.61
0
LINE
8
0
10
214.8
20
-127.61
11
214.8
21
-114.61
0
LINE
8
0
10
214.8
20
-114.61
11
200.4
21
-114.61
0
LINE
8
0
10
200.4
20
-114.61
11
200.4
21
-127.61
0
LINE
8
0
10
200.4
20
-108.41
11
214.8
21
-108.41
0
LINE
8
0
10
214.8
20
-108.41
11
214.8
21
-95.41
0
LINE
8
0
10
214.8
20
-95.41
11
200.4
21
-95.41
0
LINE
8
0
10
200.4
20
-95.41
11
200.4
21
-108.41
0
LINE
8
0
10
219.6
20
-149.7
11
234
21
-149.7
0
LINE
8
0
10
234
20
-149.7
11
234
21
-136.7
0
LINE
8
0
10
234
20
-136.7
11
219.6
21
-136.7
0
LINE
8
0
10
219.6
20
-136.7
11
219.6
21
-149.7
0
LINE
8
0
10
219.6
20
-130.5
11
234
21
-130.5
0
LINE
8
0
10
234
20
-130.5
11
234
21
-117.5
0
LINE
8
0
10
234
20
-117.5
11
219.6
21
-117.5
0
LINE
8
0
10
219.6
20
-117.5
11
219.6
21
-130.5
0
LINE
8
0
10
219.6
20
-111.3
11
234
21
-111.3
0
LINE
8
0
10
234
20
-111.3
11
234
21
-98.3
0
LINE
8
0
10
234
20
-98.3
11
219.6
21
-98.3
0
LINE
8
0
10
219.6
20
-98.3
11
219.6
21
-111.3
0
LINE
8
0
10
238.8
20
-152.59
11
253.2
21
-152.59
0
LINE
8
0
10
253.2
20
-152.59
11
253.2
21
-139.59
0
LINE
8
0
10
253.2
20
-139.59
11
238.8
21
-139.59
0
LINE
8
0
10
238.8
20
-139.59
11
238.8
21
-152.59
0
LINE
8
0
10
238.8
20
-133.39
11
253.2
21
-133.39
0
LINE
8
0
10
253.2
20
-133.39
11
253.2
21
-120.39
0
LINE
8
0
10
253.2
20
-120.39
11
238.8
21
-120.39
0
LINE
8
0
10
238.8
20
-120.39
11
238.8
21
-133.39
0
LINE
8
0
10
238.8
20
-114.19
11
253.2
21
-114.19
0
LINE
8
0
10
253.2
20
-114.19
11
253.2
21
-101.19
0
LINE
8
0
10
253.2
20
-101.19
11
238.8
21
-101.19
0
LINE
8
0
10
238.8
20
-101.19
11
238.8
21
-114.19
0
LINE
8
0
10
190.2
20
-169.7
11
204.6
21
-169.7
0
LINE
8
0
10
204.6
20
-169.7
11
204.6
21
-156.7
0
LINE
8
0
10
204.6
20
-156.7
11
190.2
21
-156.7
0
LINE
8
0
10
190.2
20
-156.7
11
190.2
21
-169.7
0
LINE
8
0
10
210.5699248
20
-170.1310946
11
224.9151285
21
-171.3861373
0
LINE
8
0
10
224.9151285
20
-171.3861373
11
226.0481532
21
-158.4356062
0
LINE
8
0
10
226.0481532
20
-158.4356062
11
211.7029495
21
-157.1805635
0
LINE
8
0
10
211.7029495
20
-157.1805635
11
210.5699248
21
-170.1310946
0
LINE
8
0
10
230.5975562
20
-172.2947392
11
244.7329877
21
-175.0423888
0
LINE
8
0
10
244.7329877
20
-175.0423888
11
247.2135046
21
-162.2812354
0
LINE
8
0
10
247.2135046
20
-162.2812354
11
233.0780731
21
-159.5335858
0
LINE
8
0
10
233.0780731
20
-159.5335858
11
230.5975562
21
-172.2947392
0
LINE
8
0
10
264.2742973
20
-182.2773911
11
269.1993874
21
-168.7458174
0
LINE
8
0
10
269.1993874
20
-168.7458174
11
256.9833833
21
-164.2995555
0
LINE
8
0
10
256.9833833
20
-164.2995555
11
252.0582932
21
-177.8311292
0
LINE
8
0
10
252.0582932
20
-177.8311292
11
264.2742973
21
-182.2773911
0
ENDSEC
0
EOF