0
SECTION
2
HEADER
9
$INSUNITS
70
4
0
ENDSEC
0
SECTION
2
TABLES
0
TABLE
2
LTYPE
0
LTYPE
72
65
70
64
2
CONTINUOUS
3
______
73
0
40
0
0
ENDTAB
0
TABLE
2
LAYER
0
ENDTAB
0
ENDSEC
0
SECTION
2
ENTITIES
0
LINE
8
0
10
140.1
20
-157.7858758
11
140.1
21
-104.0645198
0
LINE
8
0
10
142.6104063
20
-101.1047398
11
177.3943013
21
-95.3509426
0
LINE
8
0
10
177.4057127
20
-95.3490776
11
196.3624471
21
-92.2883549
0
LINE
8
0
10
196.8406294
20
-92.25
11
218.5001964
21
-92.25
0
LINE
8
0
10
218.6995833
20
-92.2566332
11
274.1993869
21
-95.9534523
0
LINE
8
0
10
277
20
-150.8446935
11
277
21
-98.9468191
0
LINE
8
0
10
274.8457699
20
-153.7230043
11
272.2960949
21
-154.4722072
0
LINE
8
0
10
271.6043838
20
-159.9265909
11
273.6327488
21
-161.1371829
0
LINE
8
0
10
266.2656435
20
-188.5014301
11
274.9143456
21
-164.7393162
0
LINE
8
0
10
262.3902856
20
-190.2832645
11
247.6830817
21
-184.750676
0
LINE
8
0
10
245.7393618
20
-181.941692
11
245.7398063
21
-180.7174073
0
LINE
8
0
10
243.3122335
20
-177.7714364
11
239.2628538
21
-176.9843167
0
LINE
8
0
10
239.260866
20
-176.9839311
11
226.4052891
21
-174.4940633
0
LINE
8
0
10
226.0963169
20
-174.4507464
11
208.8305831
21
-172.9401905
0
LINE
8
0
10
208.6068056
20
-172.9290114
11
186.7808016
21
-172.6547845
0
LINE
8
0
10
186.0324729
20
-172.55022
11
142.3139817
21
-160.6810745
0
ARC
8
0
10
143.1
20
-104.0645198
40
3
50
99.3925624
51
180
0
ARC
8
0
10
177.883895
20
-98.3107227
40
3
50
99.1717297
51
99.3925624
0
ARC
8
0
10
196.8406294
20
-95.25
40
3
50
90
51
99.1717297
0
ARC
8
0
10
218.5001964
20
-95.25
40
3
50
86.1891815
51
90
0
ARC
8
0
10
274
20
-98.9468191
40
3
50
0
51
86.1891815
0
ARC
8
0
10
274
20
-150.8446935
40
3
50
286.3750276
51
0
0
ARC
8
0
10
273.1418649
20
-157.350518
40
3
50
106.3750276
51
239.1699234
0
ARC
8
0
10
272.0952677
20
-163.7132558
40
3
50
340.0000019
51
59.1699234
0
ARC
8
0
10
263.4465655
20
-187.4753697
40
3
50
249.3845956
51
340.0000019
0
ARC
8
0
10
248.7393616
20
-181.9427813
40
3
50
179.9791959
51
249.3845956
0
ARC
8
0
10
242.7398065
20
-180.716318
40
3
50
359.9791959
51
78.9999999
0
ARC
8
0
10
238.6904268
20
-179.9291983
40
3
50
78.9999999
51
79.0386714
0
ARC
8
0
10
225.8348498
20
-177.4393305
40
3
50
79.0386714
51
85.0000024
0
ARC
8
0
10
208.569116
20
-175.9287746
40
3
50
85.0000024
51
89.2801627
0
ARC
8
0
10
186.8184912
20
-169.6550213
40
3
50
254.8108694
51
269.2801627
0
ARC
8
0
10
143.1
20
-157.7858758
40
3
50
180
51
254.8108694
0
LINE
8
0
10
143
20
-157
11
157
21
-157
0
LINE
8
0
10
157
20
-157
11
157
21
-143
0
LINE
8
0
10
157
20
-143
11
143
21
-143
0
LINE
8
0
10
143
20
-143
11
143
21
-157
0
LINE
8
0
10
143
20
-137.8
11
157
21
-137.8
0
LINE
8
0
10
157
20
-137.8
11
157
21
-123.8
0
LINE
8
0
10
157
20
-123.8
11
143
21
-123.8
0
LINE
8
0
10
143
20
-123.8
11
143
21
-137.8
0
LINE
8
0
10
143
20
-118.6
11
157
21
-118.6
0
LINE
8
0
10
157
20
-118.6
11
157
21
-104.6
0
LINE
8
0
10
157
20
-104.6
11
143
21
-104.6
0
LINE
8
0
10
143
20
-104.6
11
143
21
-118.6
0
LINE
8
0
10
162.2
20
-157
11
176.2
21
-157
0
LINE
8
0
10
176.2
20
-157
11
176.2
21
-143
0
LINE
8
0
10
176.2
20
-143
11
162.2
21
-143
0
LINE
8
0
10
162.2
20
-143
11
162.2
21
-157
0
LINE
8
0
10
162.2
20
-137.8
11
176.2
21
-137.8
0
LINE
8
0
10
176.2
20
-137.8
11
176.2
21
-123.8
0
LINE
8
0
10
176.2
20
-123.8
11
162.2
21
-123.8
0
LINE
8
0
10
162.2
20
-123.8
11
162.2
21
-137.8
0
LINE
8
0
10
162.2
20
-118.6
11
176.2
21
-118.6
0
LINE
8
0
10
176.2
20
-118.6
11
176.2
21
-104.6
0
LINE
8
0
10
176.2
20
-104.6
11
162.2
21
-104.6
0
LINE
8
0
10
162.2
20
-104.6
11
162.2
21
-118.6
0
LINE
8
0
10
181.4
20
-150.2
11
195.4
21
-150.2
0
LINE
8
0
10
195.4
20
-150.2
11
195.4
21
-136.2
0
LINE
8
0
10
195.4
20
-136.2
11
181.4
21
-136.2
0
LINE
8
0
10
181.4
20
-136.2
11
181.4
21
-150.2
0
LINE
8
0
10
181.4
20
-131
11
195.4
21
-131
0
LINE
8
0
10
195.4
20
-131
11
195.4
21
-117
0
LINE
8
0
10
195.4
20
-117
11
181.4
21
-117
0
LINE
8
0
10
181.4
20
-117
11
181.4
21
-131
0
LINE
8
0
10
181.4
20
-111.8
11
195.4
21
-111.8
0
LINE
8
0
10
195.4
20
-111.8
11
195.4
21
-97.8
0
LINE
8
0
10
195.4
20
-97.8
11
181.4
21
-97.8
0
LINE
8
0
10
181.4
20
-97.8
11
181.4
21
-111.8
0
LINE
8
0
10
200.6
20
-147.31
11
214.6
21
-147.31
0
LINE
8
0
10
214.6
20
-147.31
11
214.6
21
-133.31
0
LINE
8
0
10
214.6
20
-133.31
11
200.6
21
-133.31
0
LINE
8
0
10
200.6
20
-133.31
11
200.6
21
-147.31
0
LINE
8
0
10
200.6
20
-128.11
11
214.6
21
-128.11
0
LINE
8
0
10
214.6
20
-128.11
11
214.6
21
-114.11
0
LINE
8
0
10
214.6
20
-114.11
11
200.6
21
-114.11
0
LINE
8
0
10
200.6
20
-114.11
11
200.6
21
-128.11
0
LINE
8
0
10
200.6
20
-108.91
11
214.6
21
-108.91
0
LINE
8
0
10
214.6
20
-108.91
11
214.6
21
-94.91
0
LINE
8
0
10
214.6
20
-94.91
11
200.6
21
-94.91
0
LINE
8
0
10
200.6
20
-94.91
11
200.6
21
-108.91
0
LINE
8
0
10
219.8
20
-150.2
11
233.8
21
-150.2
0
LINE
8
0
10
233.8
20
-150.2
11
233.8
21
-136.2
0
LINE
8
0
10
233.8
20
-136.2
11
219.8
21
-136.2
0
LINE
8
0
10
219.8
20
-136.2
11
219.8
21
-150.2
0
LINE
8
0
10
219.8
20
-131
11
233.8
21
-131
0
LINE
8
0
10
233.8
20
-131
11
233.8
21
-117
0
LINE
8
0
10
233.8
20
-117
11
219.8
21
-117
0
LINE
8
0
10
219.8
20
-117
11
219.8
21
-131
0
LINE
8
0
10
219.8
20
-111.8
11
233.8
21
-111.8
0
LINE
8
0
10
233.8
20
-111.8
11
233.8
21
-97.8
0
LINE
8
0
10
233.8
20
-97.8
11
219.8
21
-97.8
0
LINE
8
0
10
219.8
20
-97.8
11
219.8
21
-111.8
0
LINE
8
0
10
239
20
-153.09
11
253
21
-153.09
0
LINE
8
0
10
253
20
-153.09
11
253
21
-139.09
0
LINE
8
0
10
253
20
-139.09
11
239
21
-139.09
0
LINE
8
0
10
239
20
-139.09
11
239
21
-153.09
0
LINE
8
0
10
239
20
-133.89
11
253
21
-133.89
0
LINE
8
0
10
253
20
-133.89
11
253
21
-119.89
0
LINE
8
0
10
253
20
-119.89
11
239
21
-119.89
0
LINE
8
0
10
239
20
-119.89
11
239
21
-133.89
0
LINE
8
0
10
239
20
-114.69
11
253
21
-114.69
0
LINE
8
0
10
253
20
-114.69
11
253
21
-100.69
0
LINE
8
0
10
253
20
-100.69
11
239
21
-100.69
0
LINE
8
0
10
239
20
-100.69
11
239
21
-114.69
0
LINE
8
0
10
190.4
20
-170.2
11
204.4
21
-170.2
0
LINE
8
0
10
204.4
20
-170.2
11
204.4
21
-156.2
0
LINE
8
0
10
204.4
20
-156.2
11
190.4
21
-156.2
0
LINE
8
0
10
190.4
20
-156.2
11
190.4
21
-170.2
0
LINE
8
0
10
210.7255859
20
-170.6466231
11
224.6723117
21
-171.8668035
0
LINE
8
0
10
224.6723117
20
-171.8668035
11
225.8924921
21
-157.9200777
0
LINE
8
0
10
225.8924921
20
-157.9200777
11
211.9457663
21
-156.6998973
0
LINE
8
0
10
211.9457663
20
-156.6998973
11
210.7255859
21
-170.6466231
0
LINE
8
0
10
230.6984771
20
-172.8237146
11
244.4412577
21
-175.4950406
0
LINE
8
0
10
244.4412577
20
-175.4950406
11
247.1125837
21
-161.75226
0
LINE
8
0
10
247.1125837
20
-161.75226
11
233.3698031
21
-159.080934
0
LINE
8
0
10
233.3698031
20
-159.080934
11
230.6984771
21
-172.8237146
0
LINE
8
0
10
264.8125476
20
-182.2604626
11
269.6008296
21
-169.104766
0
LINE
8
0
10
269.6008296
20
-169.104766
11
256.445133
21
-164.316484
0
LINE
8
0
10
256.445133
20
-164.316484
11
251.656851
21
-177.4721806
0
LINE
8
0
10
251.656851
20
-177.4721806
11
264.8125476
21
-182.2604626
0
ENDSEC
0
EOF