0
SECTION
2
HEADER
9
$INSUNITS
70
4
0
ENDSEC
0
SECTION
2
TABLES
0
TABLE
2
LTYPE
0
LTYPE
72
65
70
64
2
CONTINUOUS
3
______
73
0
40
0
0
ENDTAB
0
TABLE
2
LAYER
0
ENDTAB
0
ENDSEC
0
SECTION
2
ENTITIES
0
LINE
8
0
10
142.8
20
-156.5
11
157.2
21
-156.5
0
LINE
8
0
10
157.2
20
-156.5
11
157.2
21
-143.5
0
LINE
8
0
10
157.2
20
-143.5
11
142.8
21
-143.5
0
LINE
8
0
10
142.8
20
-143.5
11
142.8
21
-156.5
0
LINE
8
0
10
142.8
20
-137.3
11
157.2
21
-137.3
0
LINE
8
0
10
157.2
20
-137.3
11
157.2
21
-124.3
0
LINE
8
0
10
157.2
20
-124.3
11
142.8
21
-124.3
0
LINE
8
0
10
142.8
20
-124.3
11
142.8
21
-137.3
0
LINE
8
0
10
142.8
20
-118.1
11
157.2
21
-118.1
0
LINE
8
0
10
157.2
20
-118.1
11
157.2
21
-105.1
0
LINE
8
0
10
157.2
20
-105.1
11
142.8
21
-105.1
0
LINE
8
0
10
142.8
20
-105.1
11
142.8
21
-118.1
0
LINE
8
0
10
162
20
-156.5
11
176.4
21
-156.5
0
LINE
8
0
10
176.4
20
-156.5
11
176.4
21
-143.5
0
LINE
8
0
10
176.4
20
-143.5
11
162
21
-143.5
0
LINE
8
0
10
162
20
-143.5
11
162
21
-156.5
0
LINE
8
0
10
162
20
-137.3
11
176.4
21
-137.3
0
LINE
8
0
10
176.4
20
-137.3
11
176.4
21
-124.3
0
LINE
8
0
10
176.4
20
-124.3
11
162
21
-124.3
0
LINE
8
0
10
162
20
-124.3
11
162
21
-137.3
0
LINE
8
0
10
162
20
-118.1
11
176.4
21
-118.1
0
LINE
8
0
10
176.4
20
-118.1
11
176.4
21
-105.1
0
LINE
8
0
10
176.4
20
-105.1
11
162
21
-105.1
0
LINE
8
0
10
162
20
-105.1
11
162
21
-118.1
0
LINE
8
0
10
181.2
20
-149.7
11
195.6
21
-149.7
0
LINE
8
0
10
195.6
20
-149.7
11
195.6
21
-136.7
0
LINE
8
0
10
195.6
20
-136.7
11
181.2
21
-136.7
0
LINE
8
0
10
181.2
20
-136.7
11
181.2
21
-149.7
0
LINE
8
0
10
181.2
20
-130.5
11
195.6
21
-130.5
0
LINE
8
0
10
195.6
20
-130.5
11
195.6
21
-117.5
0
LINE
8
0
10
195.6
20
-117.5
11
181.2
21
-117.5
0
LINE
8
0
10
181.2
20
-117.5
11
181.2
21
-130.5
0
LINE
8
0
10
181.2
20
-111.3
11
195.6
21
-111.3
0
LINE
8
0
10
195.6
20
-111.3
11
195.6
21
-98.3
0
LINE
8
0
10
195.6
20
-98.3
11
181.2
21
-98.3
0
LINE
8
0
10
181.2
20
-98.3
11
181.2
21
-111.3
0
LINE
8
0
10
200.4
20
-146.81
11
214.8
21
-146.81
0
LINE
8
0
10
214.8
20
-146.81
11
214.8
21
-133.81
0
LINE
8
0
10
214.8
20
-133.81
11
200.4
21
-133.81
0
LINE
8
0
10
200.4
20
-133.81
11
200.4
21
-146.81
0
LINE
8
0
10
200.4
20
-127.61
11
214.8
21
-127.61
0
LINE
8
0
10
214.8
20
-127.61
11
214.8
21
-114.61
0
LINE
8
0
10
214.8
20
-114.61
11
200.4
21
-114.61
0
LINE
8
0
10
200.4
20
-114.61
11
200.4
21
-127.61
0
LINE
8
0
10
200.4
20
-108.41
11
214.8
21
-108.41
0
LINE
8
0
10
214.8
20
-108.41
11
214.8
21
-95.41
0
LINE
8
0
10
214.8
20
-95.41
11
200.4
21
-95.41
0
LINE
8
0
10
200.4
20
-95.41
11
200.4
21
-108.41
0
LINE
8
0
10
219.6
20
-149.7
11
234
21
-149.7
0
LINE
8
0
10
234
20
-149.7
11
234
21
-136.7
0
LINE
8
0
10
234
20
-136.7
11
219.6
21
-136.7
0
LINE
8
0
10
219.6
20
-136.7
11
219.6
21
-149.7
0
LINE
8
0
10
219.6
20
-130.5
11
234
21
-130.5
0
LINE
8
0
10
234
20
-130.5
11
234
21
-117.5
0
LINE
8
0
10
234
20
-117.5
11
219.6
21
-117.5
0
LINE
8
0
10
219.6
20
-117.5
11
219.6
21
-130.5
0
LINE
8
0
10
219.6
20
-111.3
11
234
21
-111.3
0
LINE
8
0
10
234
20
-111.3
11
234
21
-98.3
0
LINE
8
0
10
234
20
-98.3
11
219.6
21
-98.3
0
LINE
8
0
10
219.6
20
-98.3
11
219.6
21
-111.3
0
LINE
8
0
10
238.8
20
-152.59
11
253.2
21
-152.59
0
LINE
8
0
10
253.2
20
-152.59
11
253.2
21
-139.59
0
LINE
8
0
10
253.2
20
-139.59
11
238.8
21
-139.59
0
LINE
8
0
10
238.8
20
-139.59
11
238.8
21
-152.59
0
LINE
8
0
10
238.8
20
-133.39
11
253.2
21
-133.39
0
LINE
8
0
10
253.2
20
-133.39
11
253.2
21
-120.39
0
LINE
8
0
10
253.2
20
-120.39
11
238.8
21
-120.39
0
LINE
8
0
10
238.8
20
-120.39
11
238.8
21
-133.39
0
LINE
8
0
10
238.8
20
-114.19
11
253.2
21
-114.19
0
LINE
8
0
10
253.2
20
-114.19
11
253.2
21
-101.19
0
LINE
8
0
10
253.2
20
-101.19
11
238.8
21
-101.19
0
LINE
8
0
10
238.8
20
-101.19
11
238.8
21
-114.19
0
LINE
8
0
10
190.2
20
-169.7
11
204.6
21
-169.7
0
LINE
8
0
10
204.6
20
-169.7
11
204.6
21
-156.7
0
LINE
8
0
10
204.6
20
-156.7
11
190.2
21
-156.7
0
LINE
8
0
10
190.2
20
-156.7
11
190.2
21
-169.7
0
LINE
8
0
10
210.5699248
20
-170.1310946
11
224.9151285
21
-171.3861373
0
LINE
8
0
10
224.9151285
20
-171.3861373
11
226.0481532
21
-158.4356062
0
LINE
8
0
10
226.0481532
20
-158.4356062
11
211.7029495
21
-157.1805635
0
LINE
8
0
10
211.7029495
20
-157.1805635
11
210.5699248
21
-170.1310946
0
LINE
8
0
10
230.5975562
20
-172.2947392
11
244.7329877
21
-175.0423888
0
LINE
8
0
10
244.7329877
20
-175.0423888
11
247.2135046
21
-162.2812354
0
LINE
8
0
10
247.2135046
20
-162.2812354
11
233.0780731
21
-159.5335858
0
LINE
8
0
10
233.0780731
20
-159.5335858
11
230.5975562
21
-172.2947392
0
LINE
8
0
10
264.2742973
20
-182.2773911
11
269.1993874
21
-168.7458174
0
LINE
8
0
10
269.1993874
20
-168.7458174
11
256.9833833
21
-164.2995555
0
LINE
8
0
10
256.9833833
20
-164.2995555
11
252.0582932
21
-177.8311292
0
LINE
8
0
10
252.0582932
20
-177.8311292
11
264.2742973
21
-182.2773911
0
ENDSEC
0
EOF