0
SECTION
2
HEADER
9
$INSUNITS
70
4
0
ENDSEC
0
SECTION
2
TABLES
0
TABLE
2
LTYPE
0
LTYPE
72
65
70
64
2
CONTINUOUS
3
______
73
0
40
0
0
ENDTAB
0
TABLE
2
LAYER
0
ENDTAB
0
ENDSEC
0
SECTION
2
ENTITIES
0
LINE
8
0
10
143
20
-157
11
157
21
-157
0
LINE
8
0
10
157
20
-157
11
157
21
-143
0
LINE
8
0
10
157
20
-143
11
143
21
-143
0
LINE
8
0
10
143
20
-143
11
143
21
-157
0
LINE
8
0
10
143
20
-137.8
11
157
21
-137.8
0
LINE
8
0
10
157
20
-137.8
11
157
21
-123.8
0
LINE
8
0
10
157
20
-123.8
11
143
21
-123.8
0
LINE
8
0
10
143
20
-123.8
11
143
21
-137.8
0
LINE
8
0
10
143
20
-118.6
11
157
21
-118.6
0
LINE
8
0
10
157
20
-118.6
11
157
21
-104.6
0
LINE
8
0
10
157
20
-104.6
11
143
21
-104.6
0
LINE
8
0
10
143
20
-104.6
11
143
21
-118.6
0
LINE
8
0
10
162.2
20
-157
11
176.2
21
-157
0
LINE
8
0
10
176.2
20
-157
11
176.2
21
-143
0
LINE
8
0
10
176.2
20
-143
11
162.2
21
-143
0
LINE
8
0
10
162.2
20
-143
11
162.2
21
-157
0
LINE
8
0
10
162.2
20
-137.8
11
176.2
21
-137.8
0
LINE
8
0
10
176.2
20
-137.8
11
176.2
21
-123.8
0
LINE
8
0
10
176.2
20
-123.8
11
162.2
21
-123.8
0
LINE
8
0
10
162.2
20
-123.8
11
162.2
21
-137.8
0
LINE
8
0
10
162.2
20
-118.6
11
176.2
21
-118.6
0
LINE
8
0
10
176.2
20
-118.6
11
176.2
21
-104.6
0
LINE
8
0
10
176.2
20
-104.6
11
162.2
21
-104.6
0
LINE
8
0
10
162.2
20
-104.6
11
162.2
21
-118.6
0
LINE
8
0
10
181.4
20
-150.2
11
195.4
21
-150.2
0
LINE
8
0
10
195.4
20
-150.2
11
195.4
21
-136.2
0
LINE
8
0
10
195.4
20
-136.2
11
181.4
21
-136.2
0
LINE
8
0
10
181.4
20
-136.2
11
181.4
21
-150.2
0
LINE
8
0
10
181.4
20
-131
11
195.4
21
-131
0
LINE
8
0
10
195.4
20
-131
11
195.4
21
-117
0
LINE
8
0
10
195.4
20
-117
11
181.4
21
-117
0
LINE
8
0
10
181.4
20
-117
11
181.4
21
-131
0
LINE
8
0
10
181.4
20
-111.8
11
195.4
21
-111.8
0
LINE
8
0
10
195.4
20
-111.8
11
195.4
21
-97.8
0
LINE
8
0
10
195.4
20
-97.8
11
181.4
21
-97.8
0
LINE
8
0
10
181.4
20
-97.8
11
181.4
21
-111.8
0
LINE
8
0
10
200.6
20
-147.31
11
214.6
21
-147.31
0
LINE
8
0
10
214.6
20
-147.31
11
214.6
21
-133.31
0
LINE
8
0
10
214.6
20
-133.31
11
200.6
21
-133.31
0
LINE
8
0
10
200.6
20
-133.31
11
200.6
21
-147.31
0
LINE
8
0
10
200.6
20
-128.11
11
214.6
21
-128.11
0
LINE
8
0
10
214.6
20
-128.11
11
214.6
21
-114.11
0
LINE
8
0
10
214.6
20
-114.11
11
200.6
21
-114.11
0
LINE
8
0
10
200.6
20
-114.11
11
200.6
21
-128.11
0
LINE
8
0
10
200.6
20
-108.91
11
214.6
21
-108.91
0
LINE
8
0
10
214.6
20
-108.91
11
214.6
21
-94.91
0
LINE
8
0
10
214.6
20
-94.91
11
200.6
21
-94.91
0
LINE
8
0
10
200.6
20
-94.91
11
200.6
21
-108.91
0
LINE
8
0
10
219.8
20
-150.2
11
233.8
21
-150.2
0
LINE
8
0
10
233.8
20
-150.2
11
233.8
21
-136.2
0
LINE
8
0
10
233.8
20
-136.2
11
219.8
21
-136.2
0
LINE
8
0
10
219.8
20
-136.2
11
219.8
21
-150.2
0
LINE
8
0
10
219.8
20
-131
11
233.8
21
-131
0
LINE
8
0
10
233.8
20
-131
11
233.8
21
-117
0
LINE
8
0
10
233.8
20
-117
11
219.8
21
-117
0
LINE
8
0
10
219.8
20
-117
11
219.8
21
-131
0
LINE
8
0
10
219.8
20
-111.8
11
233.8
21
-111.8
0
LINE
8
0
10
233.8
20
-111.8
11
233.8
21
-97.8
0
LINE
8
0
10
233.8
20
-97.8
11
219.8
21
-97.8
0
LINE
8
0
10
219.8
20
-97.8
11
219.8
21
-111.8
0
LINE
8
0
10
239
20
-153.09
11
253
21
-153.09
0
LINE
8
0
10
253
20
-153.09
11
253
21
-139.09
0
LINE
8
0
10
253
20
-139.09
11
239
21
-139.09
0
LINE
8
0
10
239
20
-139.09
11
239
21
-153.09
0
LINE
8
0
10
239
20
-133.89
11
253
21
-133.89
0
LINE
8
0
10
253
20
-133.89
11
253
21
-119.89
0
LINE
8
0
10
253
20
-119.89
11
239
21
-119.89
0
LINE
8
0
10
239
20
-119.89
11
239
21
-133.89
0
LINE
8
0
10
239
20
-114.69
11
253
21
-114.69
0
LINE
8
0
10
253
20
-114.69
11
253
21
-100.69
0
LINE
8
0
10
253
20
-100.69
11
239
21
-100.69
0
LINE
8
0
10
239
20
-100.69
11
239
21
-114.69
0
LINE
8
0
10
190.4
20
-170.2
11
204.4
21
-170.2
0
LINE
8
0
10
204.4
20
-170.2
11
204.4
21
-156.2
0
LINE
8
0
10
204.4
20
-156.2
11
190.4
21
-156.2
0
LINE
8
0
10
190.4
20
-156.2
11
190.4
21
-170.2
0
LINE
8
0
10
210.7255859
20
-170.6466231
11
224.6723117
21
-171.8668035
0
LINE
8
0
10
224.6723117
20
-171.8668035
11
225.8924921
21
-157.9200777
0
LINE
8
0
10
225.8924921
20
-157.9200777
11
211.9457663
21
-156.6998973
0
LINE
8
0
10
211.9457663
20
-156.6998973
11
210.7255859
21
-170.6466231
0
LINE
8
0
10
230.6984771
20
-172.8237146
11
244.4412577
21
-175.4950406
0
LINE
8
0
10
244.4412577
20
-175.4950406
11
247.1125837
21
-161.75226
0
LINE
8
0
10
247.1125837
20
-161.75226
11
233.3698031
21
-159.080934
0
LINE
8
0
10
233.3698031
20
-159.080934
11
230.6984771
21
-172.8237146
0
LINE
8
0
10
264.8125476
20
-182.2604626
11
269.6008296
21
-169.104766
0
LINE
8
0
10
269.6008296
20
-169.104766
11
256.445133
21
-164.316484
0
LINE
8
0
10
256.445133
20
-164.316484
11
251.656851
21
-177.4721806
0
LINE
8
0
10
251.656851
20
-177.4721806
11
264.8125476
21
-182.2604626
0
ENDSEC
0
EOF