0
SECTION
2
HEADER
9
$INSUNITS
70
4
0
ENDSEC
0
SECTION
2
TABLES
0
TABLE
2
LTYPE
0
LTYPE
72
65
70
64
2
CONTINUOUS
3
______
73
0
40
0
0
ENDTAB
0
TABLE
2
LAYER
0
ENDTAB
0
ENDSEC
0
SECTION
2
ENTITIES
0
LINE
8
0
10
140.1
20
-157.7858758
11
140.1
21
-104.0645198
0
LINE
8
0
10
142.6104063
20
-101.1047398
11
177.3943013
21
-95.3509426
0
LINE
8
0
10
177.4057127
20
-95.3490776
11
196.3624471
21
-92.2883549
0
LINE
8
0
10
196.8406294
20
-92.25
11
218.5001964
21
-92.25
0
LINE
8
0
10
218.6995833
20
-92.2566332
11
274.1993869
21
-95.9534523
0
LINE
8
0
10
277
20
-150.8446935
11
277
21
-98.9468191
0
LINE
8
0
10
274.8457699
20
-153.7230043
11
272.2960949
21
-154.4722072
0
LINE
8
0
10
271.6043838
20
-159.9265909
11
273.6327488
21
-161.1371829
0
LINE
8
0
10
266.2656435
20
-188.5014301
11
274.9143456
21
-164.7393162
0
LINE
8
0
10
262.3902856
20
-190.2832645
11
247.6830817
21
-184.750676
0
LINE
8
0
10
245.7393618
20
-181.941692
11
245.7398063
21
-180.7174073
0
LINE
8
0
10
243.3122335
20
-177.7714364
11
239.2628538
21
-176.9843167
0
LINE
8
0
10
239.260866
20
-176.9839311
11
226.4052891
21
-174.4940633
0
LINE
8
0
10
226.0963169
20
-174.4507464
11
208.8305831
21
-172.9401905
0
LINE
8
0
10
208.6068056
20
-172.9290114
11
186.7808016
21
-172.6547845
0
LINE
8
0
10
186.0324729
20
-172.55022
11
142.3139817
21
-160.6810745
0
ARC
8
0
10
143.1
20
-104.0645198
40
3
50
99.3925624
51
180
0
ARC
8
0
10
177.883895
20
-98.3107227
40
3
50
99.1717297
51
99.3925624
0
ARC
8
0
10
196.8406294
20
-95.25
40
3
50
90
51
99.1717297
0
ARC
8
0
10
218.5001964
20
-95.25
40
3
50
86.1891815
51
90
0
ARC
8
0
10
274
20
-98.9468191
40
3
50
0
51
86.1891815
0
ARC
8
0
10
274
20
-150.8446935
40
3
50
286.3750276
51
0
0
ARC
8
0
10
273.1418649
20
-157.350518
40
3
50
106.3750276
51
239.1699234
0
ARC
8
0
10
272.0952677
20
-163.7132558
40
3
50
340.0000019
51
59.1699234
0
ARC
8
0
10
263.4465655
20
-187.4753697
40
3
50
249.3845956
51
340.0000019
0
ARC
8
0
10
248.7393616
20
-181.9427813
40
3
50
179.9791959
51
249.3845956
0
ARC
8
0
10
242.7398065
20
-180.716318
40
3
50
359.9791959
51
78.9999999
0
ARC
8
0
10
238.6904268
20
-179.9291983
40
3
50
78.9999999
51
79.0386714
0
ARC
8
0
10
225.8348498
20
-177.4393305
40
3
50
79.0386714
51
85.0000024
0
ARC
8
0
10
208.569116
20
-175.9287746
40
3
50
85.0000024
51
89.2801627
0
ARC
8
0
10
186.8184912
20
-169.6550213
40
3
50
254.8108694
51
269.2801627
0
ARC
8
0
10
143.1
20
-157.7858758
40
3
50
180
51
254.8108694
0
LINE
8
0
10
141
20
-158.5
11
159
21
-158.5
0
LINE
8
0
10
159
20
-158.5
11
159
21
-141.5
0
LINE
8
0
10
159
20
-141.5
11
141
21
-141.5
0
LINE
8
0
10
141
20
-141.5
11
141
21
-158.5
0
LINE
8
0
10
141
20
-139.3
11
159
21
-139.3
0
LINE
8
0
10
159
20
-139.3
11
159
21
-122.3
0
LINE
8
0
10
159
20
-122.3
11
141
21
-122.3
0
LINE
8
0
10
141
20
-122.3
11
141
21
-139.3
0
LINE
8
0
10
141
20
-120.1
11
159
21
-120.1
0
LINE
8
0
10
159
20
-120.1
11
159
21
-103.1
0
LINE
8
0
10
159
20
-103.1
11
141
21
-103.1
0
LINE
8
0
10
141
20
-103.1
11
141
21
-120.1
0
LINE
8
0
10
160.2
20
-158.5
11
178.2
21
-158.5
0
LINE
8
0
10
178.2
20
-158.5
11
178.2
21
-141.5
0
LINE
8
0
10
178.2
20
-141.5
11
160.2
21
-141.5
0
LINE
8
0
10
160.2
20
-141.5
11
160.2
21
-158.5
0
LINE
8
0
10
160.2
20
-139.3
11
178.2
21
-139.3
0
LINE
8
0
10
178.2
20
-139.3
11
178.2
21
-122.3
0
LINE
8
0
10
178.2
20
-122.3
11
160.2
21
-122.3
0
LINE
8
0
10
160.2
20
-122.3
11
160.2
21
-139.3
0
LINE
8
0
10
160.2
20
-120.1
11
178.2
21
-120.1
0
LINE
8
0
10
178.2
20
-120.1
11
178.2
21
-103.1
0
LINE
8
0
10
178.2
20
-103.1
11
160.2
21
-103.1
0
LINE
8
0
10
160.2
20
-103.1
11
160.2
21
-120.1
0
LINE
8
0
10
179.4
20
-151.7
11
197.4
21
-151.7
0
LINE
8
0
10
197.4
20
-151.7
11
197.4
21
-134.7
0
LINE
8
0
10
197.4
20
-134.7
11
179.4
21
-134.7
0
LINE
8
0
10
179.4
20
-134.7
11
179.4
21
-151.7
0
LINE
8
0
10
179.4
20
-132.5
11
197.4
21
-132.5
0
LINE
8
0
10
197.4
20
-132.5
11
197.4
21
-115.5
0
LINE
8
0
10
197.4
20
-115.5
11
179.4
21
-115.5
0
LINE
8
0
10
179.4
20
-115.5
11
179.4
21
-132.5
0
LINE
8
0
10
179.4
20
-113.3
11
197.4
21
-113.3
0
LINE
8
0
10
197.4
20
-113.3
11
197.4
21
-96.3
0
LINE
8
0
10
197.4
20
-96.3
11
179.4
21
-96.3
0
LINE
8
0
10
179.4
20
-96.3
11
179.4
21
-113.3
0
LINE
8
0
10
198.6
20
-148.81
11
216.6
21
-148.81
0
LINE
8
0
10
216.6
20
-148.81
11
216.6
21
-131.81
0
LINE
8
0
10
216.6
20
-131.81
11
198.6
21
-131.81
0
LINE
8
0
10
198.6
20
-131.81
11
198.6
21
-148.81
0
LINE
8
0
10
198.6
20
-129.61
11
216.6
21
-129.61
0
LINE
8
0
10
216.6
20
-129.61
11
216.6
21
-112.61
0
LINE
8
0
10
216.6
20
-112.61
11
198.6
21
-112.61
0
LINE
8
0
10
198.6
20
-112.61
11
198.6
21
-129.61
0
LINE
8
0
10
198.6
20
-110.41
11
216.6
21
-110.41
0
LINE
8
0
10
216.6
20
-110.41
11
216.6
21
-93.41
0
LINE
8
0
10
216.6
20
-93.41
11
198.6
21
-93.41
0
LINE
8
0
10
198.6
20
-93.41
11
198.6
21
-110.41
0
LINE
8
0
10
217.8
20
-151.7
11
235.8
21
-151.7
0
LINE
8
0
10
235.8
20
-151.7
11
235.8
21
-134.7
0
LINE
8
0
10
235.8
20
-134.7
11
217.8
21
-134.7
0
LINE
8
0
10
217.8
20
-134.7
11
217.8
21
-151.7
0
LINE
8
0
10
217.8
20
-132.5
11
235.8
21
-132.5
0
LINE
8
0
10
235.8
20
-132.5
11
235.8
21
-115.5
0
LINE
8
0
10
235.8
20
-115.5
11
217.8
21
-115.5
0
LINE
8
0
10
217.8
20
-115.5
11
217.8
21
-132.5
0
LINE
8
0
10
217.8
20
-113.3
11
235.8
21
-113.3
0
LINE
8
0
10
235.8
20
-113.3
11
235.8
21
-96.3
0
LINE
8
0
10
235.8
20
-96.3
11
217.8
21
-96.3
0
LINE
8
0
10
217.8
20
-96.3
11
217.8
21
-113.3
0
LINE
8
0
10
237
20
-154.59
11
255
21
-154.59
0
LINE
8
0
10
255
20
-154.59
11
255
21
-137.59
0
LINE
8
0
10
255
20
-137.59
11
237
21
-137.59
0
LINE
8
0
10
237
20
-137.59
11
237
21
-154.59
0
LINE
8
0
10
237
20
-135.39
11
255
21
-135.39
0
LINE
8
0
10
255
20
-135.39
11
255
21
-118.39
0
LINE
8
0
10
255
20
-118.39
11
237
21
-118.39
0
LINE
8
0
10
237
20
-118.39
11
237
21
-135.39
0
LINE
8
0
10
237
20
-116.19
11
255
21
-116.19
0
LINE
8
0
10
255
20
-116.19
11
255
21
-99.19
0
LINE
8
0
10
255
20
-99.19
11
237
21
-99.19
0
LINE
8
0
10
237
20
-99.19
11
237
21
-116.19
0
LINE
8
0
10
188.4
20
-171.7
11
206.4
21
-171.7
0
LINE
8
0
10
206.4
20
-171.7
11
206.4
21
-154.7
0
LINE
8
0
10
206.4
20
-154.7
11
188.4
21
-154.7
0
LINE
8
0
10
188.4
20
-154.7
11
188.4
21
-171.7
0
LINE
8
0
10
208.6024629
20
-171.9666036
11
226.5339675
21
-173.535407
0
LINE
8
0
10
226.5339675
20
-173.535407
11
228.0156151
21
-156.6000972
0
LINE
8
0
10
228.0156151
20
-156.6000972
11
210.0841105
21
-155.0312938
0
LINE
8
0
10
210.0841105
20
-155.0312938
11
208.6024629
21
-171.9666036
0
LINE
8
0
10
228.4490093
20
-173.9145374
11
246.1182986
21
-177.3490993
0
LINE
8
0
10
246.1182986
20
-177.3490993
11
249.3620515
21
-160.6614372
0
LINE
8
0
10
249.3620515
20
-160.6614372
11
231.6927622
21
-157.2268753
0
LINE
8
0
10
231.6927622
20
-157.2268753
11
228.4490093
21
-173.9145374
0
LINE
8
0
10
265.5380463
20
-184.6528781
11
271.6944089
21
-167.7384109
0
LINE
8
0
10
271.6944089
20
-167.7384109
11
255.7196343
21
-161.9240685
0
LINE
8
0
10
255.7196343
20
-161.9240685
11
249.5632717
21
-178.8385357
0
LINE
8
0
10
249.5632717
20
-178.8385357
11
265.5380463
21
-184.6528781
0
ENDSEC
0
EOF