0
SECTION
2
HEADER
9
$INSUNITS
70
4
0
ENDSEC
0
SECTION
2
TABLES
0
TABLE
2
LTYPE
0
LTYPE
72
65
70
64
2
CONTINUOUS
3
______
73
0
40
0
0
ENDTAB
0
TABLE
2
LAYER
0
ENDTAB
0
ENDSEC
0
SECTION
2
ENTITIES
0
LINE
8
0
10
139
20
-157.5849961
11
139
21
-104.4538996
0
LINE
8
0
10
142.3025184
20
-100.515179
11
177.3490552
21
-94.3090215
0
LINE
8
0
10
177.4511605
20
-94.2922993
11
196.3039793
21
-91.4545573
0
LINE
8
0
10
196.8993557
20
-91.41
11
218.4762132
21
-91.41
0
LINE
8
0
10
218.7235504
20
-91.4176543
11
274.2473372
21
-94.8575118
0
LINE
8
0
10
278
20
-148.6753888
11
278
21
-98.8498575
0
LINE
8
0
10
275.8633973
20
-152.2148451
11
274.9500023
21
-152.695715
0
LINE
8
0
10
275.4453192
20
-159.9939418
11
276.8229855
21
-160.4953713
0
LINE
8
0
10
276.8229855
20
-160.4953713
11
281.0360608
21
-173.1843808
0
LINE
8
0
10
283.4642004
20
-175.6827093
11
287.7538255
21
-177.2440052
0
LINE
8
0
10
290.1445156
20
-182.3708562
11
281.594012
21
-205.8631716
0
LINE
8
0
10
276.467161
20
-208.2538617
11
262.3107631
21
-203.1013542
0
LINE
8
0
10
259.8826235
20
-200.6030257
11
256.279311
21
-189.7505097
0
LINE
8
0
10
253.8511714
20
-187.2521812
11
246.0424853
21
-184.4100518
0
LINE
8
0
10
245.5760905
20
-184.2058137
11
237.2958644
21
-179.9324334
0
LINE
8
0
10
236.0400789
20
-179.5290473
11
217.523391
21
-176.8217119
0
LINE
8
0
10
217.079165
20
-176.781891
11
186.9585776
21
-175.7687877
0
LINE
8
0
10
185.8679643
20
-175.5788282
11
141.7749231
21
-161.3927759
0
ARC
8
0
10
143
20
-104.4538996
40
4
50
100.0420217
51
180
0
ARC
8
0
10
178.0465369
20
-98.247742
40
4
50
98.5599462
51
100.0420217
0
ARC
8
0
10
196.8993557
20
-95.41
40
4
50
90
51
98.5599462
0
ARC
8
0
10
218.4762132
20
-95.41
40
4
50
86.4548939
51
90
0
ARC
8
0
10
274
20
-98.8498575
40
4
50
0
51
86.4548939
0
ARC
8
0
10
274
20
-148.6753888
40
4
50
297.7652031
51
0
0
ARC
8
0
10
276.8133996
20
-156.2351712
40
4
50
117.7652031
51
250.0000019
0
ARC
8
0
10
284.8322808
20
-171.9239388
40
4
50
198.3674845
51
250.0000019
0
ARC
8
0
10
286.385745
20
-181.0027757
40
4
50
340.0000019
51
70.0000019
0
ARC
8
0
10
277.8352415
20
-204.4950911
40
4
50
250.0000019
51
340.0000019
0
ARC
8
0
10
263.6788435
20
-199.3425837
40
4
50
198.3674845
51
250.0000019
0
ARC
8
0
10
252.483091
20
-191.0109517
40
4
50
18.3674845
51
70.0000019
0
ARC
8
0
10
247.4105657
20
-180.6512813
40
4
50
242.7019828
51
250.0000019
0
ARC
8
0
10
235.4613892
20
-183.4869658
40
4
50
62.7019828
51
81.6816909
0
ARC
8
0
10
216.9447014
20
-180.7796303
40
4
50
81.6816909
51
88.0735878
0
ARC
8
0
10
187.0930412
20
-171.7710484
40
4
50
252.1654609
51
268.0735878
0
ARC
8
0
10
143
20
-157.5849961
40
4
50
180
51
252.1654609
0
LINE
8
0
10
141
20
-158.5
11
159
21
-158.5
0
LINE
8
0
10
159
20
-158.5
11
159
21
-141.5
0
LINE
8
0
10
159
20
-141.5
11
141
21
-141.5
0
LINE
8
0
10
141
20
-141.5
11
141
21
-158.5
0
LINE
8
0
10
141
20
-139.3
11
159
21
-139.3
0
LINE
8
0
10
159
20
-139.3
11
159
21
-122.3
0
LINE
8
0
10
159
20
-122.3
11
141
21
-122.3
0
LINE
8
0
10
141
20
-122.3
11
141
21
-139.3
0
LINE
8
0
10
141
20
-120.1
11
159
21
-120.1
0
LINE
8
0
10
159
20
-120.1
11
159
21
-103.1
0
LINE
8
0
10
159
20
-103.1
11
141
21
-103.1
0
LINE
8
0
10
141
20
-103.1
11
141
21
-120.1
0
LINE
8
0
10
160.2
20
-158.5
11
178.2
21
-158.5
0
LINE
8
0
10
178.2
20
-158.5
11
178.2
21
-141.5
0
LINE
8
0
10
178.2
20
-141.5
11
160.2
21
-141.5
0
LINE
8
0
10
160.2
20
-141.5
11
160.2
21
-158.5
0
LINE
8
0
10
160.2
20
-139.3
11
178.2
21
-139.3
0
LINE
8
0
10
178.2
20
-139.3
11
178.2
21
-122.3
0
LINE
8
0
10
178.2
20
-122.3
11
160.2
21
-122.3
0
LINE
8
0
10
160.2
20
-122.3
11
160.2
21
-139.3
0
LINE
8
0
10
160.2
20
-120.1
11
178.2
21
-120.1
0
LINE
8
0
10
178.2
20
-120.1
11
178.2
21
-103.1
0
LINE
8
0
10
178.2
20
-103.1
11
160.2
21
-103.1
0
LINE
8
0
10
160.2
20
-103.1
11
160.2
21
-120.1
0
LINE
8
0
10
179.4
20
-151.7
11
197.4
21
-151.7
0
LINE
8
0
10
197.4
20
-151.7
11
197.4
21
-134.7
0
LINE
8
0
10
197.4
20
-134.7
11
179.4
21
-134.7
0
LINE
8
0
10
179.4
20
-134.7
11
179.4
21
-151.7
0
LINE
8
0
10
179.4
20
-132.5
11
197.4
21
-132.5
0
LINE
8
0
10
197.4
20
-132.5
11
197.4
21
-115.5
0
LINE
8
0
10
197.4
20
-115.5
11
179.4
21
-115.5
0
LINE
8
0
10
179.4
20
-115.5
11
179.4
21
-132.5
0
LINE
8
0
10
179.4
20
-113.3
11
197.4
21
-113.3
0
LINE
8
0
10
197.4
20
-113.3
11
197.4
21
-96.3
0
LINE
8
0
10
197.4
20
-96.3
11
179.4
21
-96.3
0
LINE
8
0
10
179.4
20
-96.3
11
179.4
21
-113.3
0
LINE
8
0
10
198.6
20
-148.81
11
216.6
21
-148.81
0
LINE
8
0
10
216.6
20
-148.81
11
216.6
21
-131.81
0
LINE
8
0
10
216.6
20
-131.81
11
198.6
21
-131.81
0
LINE
8
0
10
198.6
20
-131.81
11
198.6
21
-148.81
0
LINE
8
0
10
198.6
20
-129.61
11
216.6
21
-129.61
0
LINE
8
0
10
216.6
20
-129.61
11
216.6
21
-112.61
0
LINE
8
0
10
216.6
20
-112.61
11
198.6
21
-112.61
0
LINE
8
0
10
198.6
20
-112.61
11
198.6
21
-129.61
0
LINE
8
0
10
198.6
20
-110.41
11
216.6
21
-110.41
0
LINE
8
0
10
216.6
20
-110.41
11
216.6
21
-93.41
0
LINE
8
0
10
216.6
20
-93.41
11
198.6
21
-93.41
0
LINE
8
0
10
198.6
20
-93.41
11
198.6
21
-110.41
0
LINE
8
0
10
217.8
20
-151.7
11
235.8
21
-151.7
0
LINE
8
0
10
235.8
20
-151.7
11
235.8
21
-134.7
0
LINE
8
0
10
235.8
20
-134.7
11
217.8
21
-134.7
0
LINE
8
0
10
217.8
20
-134.7
11
217.8
21
-151.7
0
LINE
8
0
10
217.8
20
-132.5
11
235.8
21
-132.5
0
LINE
8
0
10
235.8
20
-132.5
11
235.8
21
-115.5
0
LINE
8
0
10
235.8
20
-115.5
11
217.8
21
-115.5
0
LINE
8
0
10
217.8
20
-115.5
11
217.8
21
-132.5
0
LINE
8
0
10
217.8
20
-113.3
11
235.8
21
-113.3
0
LINE
8
0
10
235.8
20
-113.3
11
235.8
21
-96.3
0
LINE
8
0
10
235.8
20
-96.3
11
217.8
21
-96.3
0
LINE
8
0
10
217.8
20
-96.3
11
217.8
21
-113.3
0
LINE
8
0
10
237
20
-154.59
11
255
21
-154.59
0
LINE
8
0
10
255
20
-154.59
11
255
21
-137.59
0
LINE
8
0
10
255
20
-137.59
11
237
21
-137.59
0
LINE
8
0
10
237
20
-137.59
11
237
21
-154.59
0
LINE
8
0
10
237
20
-135.39
11
255
21
-135.39
0
LINE
8
0
10
255
20
-135.39
11
255
21
-118.39
0
LINE
8
0
10
255
20
-118.39
11
237
21
-118.39
0
LINE
8
0
10
237
20
-118.39
11
237
21
-135.39
0
LINE
8
0
10
237
20
-116.19
11
255
21
-116.19
0
LINE
8
0
10
255
20
-116.19
11
255
21
-99.19
0
LINE
8
0
10
255
20
-99.19
11
237
21
-99.19
0
LINE
8
0
10
237
20
-99.19
11
237
21
-116.19
0
LINE
8
0
10
188.4
20
-172.7
11
206.4
21
-172.7
0
LINE
8
0
10
206.4
20
-172.7
11
206.4
21
-155.7
0
LINE
8
0
10
206.4
20
-155.7
11
188.4
21
-155.7
0
LINE
8
0
10
188.4
20
-155.7
11
188.4
21
-172.7
0
LINE
8
0
10
208.6024629
20
-172.9666036
11
226.5339675
21
-174.535407
0
LINE
8
0
10
226.5339675
20
-174.535407
11
228.0156151
21
-157.6000972
0
LINE
8
0
10
228.0156151
20
-157.6000972
11
210.0841105
21
-156.0312938
0
LINE
8
0
10
210.0841105
20
-156.0312938
11
208.6024629
21
-172.9666036
0
LINE
8
0
10
228.4490093
20
-174.9145374
11
246.1182986
21
-178.3490993
0
LINE
8
0
10
246.1182986
20
-178.3490993
11
249.3620515
21
-161.6614372
0
LINE
8
0
10
249.3620515
20
-161.6614372
11
231.6927622
21
-158.2268753
0
LINE
8
0
10
231.6927622
20
-158.2268753
11
228.4490093
21
-174.9145374
0
LINE
8
0
10
266.2220866
20
-183.7734928
11
272.3784492
21
-166.8590256
0
LINE
8
0
10
272.3784492
20
-166.8590256
11
256.4036746
21
-161.0446832
0
LINE
8
0
10
256.4036746
20
-161.0446832
11
250.247312
21
-177.9591504
0
LINE
8
0
10
250.247312
20
-177.9591504
11
266.2220866
21
-183.7734928
0
LINE
8
0
10
280.9116972
20
-201.8902073
11
287.0680598
21
-184.9757401
0
LINE
8
0
10
287.0680598
20
-184.9757401
11
271.0932852
21
-179.1613977
0
LINE
8
0
10
271.0932852
20
-179.1613977
11
264.9369226
21
-196.0758649
0
LINE
8
0
10
264.9369226
20
-196.0758649
11
280.9116972
21
-201.8902073
0
ENDSEC
0
EOF