0
SECTION
2
HEADER
9
$INSUNITS
70
4
0
ENDSEC
0
SECTION
2
TABLES
0
TABLE
2
LTYPE
0
LTYPE
72
65
70
64
2
CONTINUOUS
3
______
73
0
40
0
0
ENDTAB
0
TABLE
2
LAYER
0
ENDTAB
0
ENDSEC
0
SECTION
2
ENTITIES
0
LINE
8
0
10
140.1
20
-156.3978531
11
140.1
21
-105.5332859
0
LINE
8
0
10
143.4364028
20
-101.5887151
11
177.3659379
21
-95.8807303
0
LINE
8
0
10
177.4341588
20
-95.8698584
11
196.3039793
21
-93.0295573
0
LINE
8
0
10
196.8993557
20
-92.985
11
218.4920302
21
-92.985
0
LINE
8
0
10
218.7078114
20
-92.9908244
11
273.2157812
21
-95.9355615
0
LINE
8
0
10
277
20
-148.8710195
11
277
21
-99.9297371
0
LINE
8
0
10
275.117414
20
-152.264625
11
271.1723417
21
-154.7261224
0
LINE
8
0
10
270.857636
20
-161.2953844
11
272.6795399
21
-162.6907142
0
LINE
8
0
10
267.3963534
20
-185.39483
11
274.0061908
21
-167.2344511
0
LINE
8
0
10
262.142514
20
-187.7368398
11
247.2992361
21
-181.7553888
0
LINE
8
0
10
247.2992361
20
-181.7553888
11
245.7407046
21
-178.2434833
0
LINE
8
0
10
245.7407046
20
-178.2434833
11
239.5967101
21
-176.5340536
0
LINE
8
0
10
239.1213873
20
-176.4324589
11
217.7609911
21
-173.2090686
0
LINE
8
0
10
217.2988867
20
-173.166558
11
186.8688984
21
-172.1408059
0
LINE
8
0
10
185.9474856
20
-172.0011205
11
143.0438292
21
-160.2558971
0
ARC
8
0
10
144.1
20
-105.5332859
40
4
50
99.5494806
51
180
0
ARC
8
0
10
178.0295351
20
-99.8253011
40
4
50
98.5599462
51
99.5494806
0
ARC
8
0
10
196.8993557
20
-96.985
40
4
50
90
51
98.5599462
0
ARC
8
0
10
218.4920302
20
-96.985
40
4
50
86.9076609
51
90
0
ARC
8
0
10
273
20
-99.9297371
40
4
50
0
51
86.9076609
0
ARC
8
0
10
273
20
-148.8710195
40
4
50
301.9617827
51
0
0
ARC
8
0
10
273.2897557
20
-158.119728
40
4
50
121.9617827
51
232.5528112
0
ARC
8
0
10
270.2474202
20
-165.8663707
40
4
50
340.0000019
51
52.5528112
0
ARC
8
0
10
263.6375828
20
-184.0267496
40
4
50
248.0518602
51
340.0000019
0
ARC
8
0
10
238.5245249
20
-180.3876777
40
4
50
74.4519562
51
81.418528
0
ARC
8
0
10
217.1641287
20
-177.1642874
40
4
50
81.418528
51
88.0693684
0
ARC
8
0
10
187.0036564
20
-168.1430765
40
4
50
254.6899225
51
268.0693684
0
ARC
8
0
10
144.1
20
-156.3978531
40
4
50
180
51
254.6899225
0
LINE
8
0
10
141
20
-158.5
11
159
21
-158.5
0
LINE
8
0
10
159
20
-158.5
11
159
21
-141.5
0
LINE
8
0
10
159
20
-141.5
11
141
21
-141.5
0
LINE
8
0
10
141
20
-141.5
11
141
21
-158.5
0
LINE
8
0
10
141
20
-139.3
11
159
21
-139.3
0
LINE
8
0
10
159
20
-139.3
11
159
21
-122.3
0
LINE
8
0
10
159
20
-122.3
11
141
21
-122.3
0
LINE
8
0
10
141
20
-122.3
11
141
21
-139.3
0
LINE
8
0
10
141
20
-120.1
11
159
21
-120.1
0
LINE
8
0
10
159
20
-120.1
11
159
21
-103.1
0
LINE
8
0
10
159
20
-103.1
11
141
21
-103.1
0
LINE
8
0
10
141
20
-103.1
11
141
21
-120.1
0
LINE
8
0
10
160.2
20
-158.5
11
178.2
21
-158.5
0
LINE
8
0
10
178.2
20
-158.5
11
178.2
21
-141.5
0
LINE
8
0
10
178.2
20
-141.5
11
160.2
21
-141.5
0
LINE
8
0
10
160.2
20
-141.5
11
160.2
21
-158.5
0
LINE
8
0
10
160.2
20
-139.3
11
178.2
21
-139.3
0
LINE
8
0
10
178.2
20
-139.3
11
178.2
21
-122.3
0
LINE
8
0
10
178.2
20
-122.3
11
160.2
21
-122.3
0
LINE
8
0
10
160.2
20
-122.3
11
160.2
21
-139.3
0
LINE
8
0
10
160.2
20
-120.1
11
178.2
21
-120.1
0
LINE
8
0
10
178.2
20
-120.1
11
178.2
21
-103.1
0
LINE
8
0
10
178.2
20
-103.1
11
160.2
21
-103.1
0
LINE
8
0
10
160.2
20
-103.1
11
160.2
21
-120.1
0
LINE
8
0
10
179.4
20
-151.7
11
197.4
21
-151.7
0
LINE
8
0
10
197.4
20
-151.7
11
197.4
21
-134.7
0
LINE
8
0
10
197.4
20
-134.7
11
179.4
21
-134.7
0
LINE
8
0
10
179.4
20
-134.7
11
179.4
21
-151.7
0
LINE
8
0
10
179.4
20
-132.5
11
197.4
21
-132.5
0
LINE
8
0
10
197.4
20
-132.5
11
197.4
21
-115.5
0
LINE
8
0
10
197.4
20
-115.5
11
179.4
21
-115.5
0
LINE
8
0
10
179.4
20
-115.5
11
179.4
21
-132.5
0
LINE
8
0
10
179.4
20
-113.3
11
197.4
21
-113.3
0
LINE
8
0
10
197.4
20
-113.3
11
197.4
21
-96.3
0
LINE
8
0
10
197.4
20
-96.3
11
179.4
21
-96.3
0
LINE
8
0
10
179.4
20
-96.3
11
179.4
21
-113.3
0
LINE
8
0
10
198.6
20
-148.81
11
216.6
21
-148.81
0
LINE
8
0
10
216.6
20
-148.81
11
216.6
21
-131.81
0
LINE
8
0
10
216.6
20
-131.81
11
198.6
21
-131.81
0
LINE
8
0
10
198.6
20
-131.81
11
198.6
21
-148.81
0
LINE
8
0
10
198.6
20
-129.61
11
216.6
21
-129.61
0
LINE
8
0
10
216.6
20
-129.61
11
216.6
21
-112.61
0
LINE
8
0
10
216.6
20
-112.61
11
198.6
21
-112.61
0
LINE
8
0
10
198.6
20
-112.61
11
198.6
21
-129.61
0
LINE
8
0
10
198.6
20
-110.41
11
216.6
21
-110.41
0
LINE
8
0
10
216.6
20
-110.41
11
216.6
21
-93.41
0
LINE
8
0
10
216.6
20
-93.41
11
198.6
21
-93.41
0
LINE
8
0
10
198.6
20
-93.41
11
198.6
21
-110.41
0
LINE
8
0
10
217.8
20
-151.7
11
235.8
21
-151.7
0
LINE
8
0
10
235.8
20
-151.7
11
235.8
21
-134.7
0
LINE
8
0
10
235.8
20
-134.7
11
217.8
21
-134.7
0
LINE
8
0
10
217.8
20
-134.7
11
217.8
21
-151.7
0
LINE
8
0
10
217.8
20
-132.5
11
235.8
21
-132.5
0
LINE
8
0
10
235.8
20
-132.5
11
235.8
21
-115.5
0
LINE
8
0
10
235.8
20
-115.5
11
217.8
21
-115.5
0
LINE
8
0
10
217.8
20
-115.5
11
217.8
21
-132.5
0
LINE
8
0
10
217.8
20
-113.3
11
235.8
21
-113.3
0
LINE
8
0
10
235.8
20
-113.3
11
235.8
21
-96.3
0
LINE
8
0
10
235.8
20
-96.3
11
217.8
21
-96.3
0
LINE
8
0
10
217.8
20
-96.3
11
217.8
21
-113.3
0
LINE
8
0
10
237
20
-154.59
11
255
21
-154.59
0
LINE
8
0
10
255
20
-154.59
11
255
21
-137.59
0
LINE
8
0
10
255
20
-137.59
11
237
21
-137.59
0
LINE
8
0
10
237
20
-137.59
11
237
21
-154.59
0
LINE
8
0
10
237
20
-135.39
11
255
21
-135.39
0
LINE
8
0
10
255
20
-135.39
11
255
21
-118.39
0
LINE
8
0
10
255
20
-118.39
11
237
21
-118.39
0
LINE
8
0
10
237
20
-118.39
11
237
21
-135.39
0
LINE
8
0
10
237
20
-116.19
11
255
21
-116.19
0
LINE
8
0
10
255
20
-116.19
11
255
21
-99.19
0
LINE
8
0
10
255
20
-99.19
11
237
21
-99.19
0
LINE
8
0
10
237
20
-99.19
11
237
21
-116.19
0
LINE
8
0
10
188.4
20
-171.7
11
206.4
21
-171.7
0
LINE
8
0
10
206.4
20
-171.7
11
206.4
21
-154.7
0
LINE
8
0
10
206.4
20
-154.7
11
188.4
21
-154.7
0
LINE
8
0
10
188.4
20
-154.7
11
188.4
21
-171.7
0
LINE
8
0
10
208.6024629
20
-171.9666036
11
226.5339675
21
-173.535407
0
LINE
8
0
10
226.5339675
20
-173.535407
11
228.0156151
21
-156.6000972
0
LINE
8
0
10
228.0156151
20
-156.6000972
11
210.0841105
21
-155.0312938
0
LINE
8
0
10
210.0841105
20
-155.0312938
11
208.6024629
21
-171.9666036
0
LINE
8
0
10
228.4490093
20
-173.9145374
11
246.1182986
21
-177.3490993
0
LINE
8
0
10
246.1182986
20
-177.3490993
11
249.3620515
21
-160.6614372
0
LINE
8
0
10
249.3620515
20
-160.6614372
11
231.6927622
21
-157.2268753
0
LINE
8
0
10
231.6927622
20
-157.2268753
11
228.4490093
21
-173.9145374
0
LINE
8
0
10
265.5380463
20
-184.6528781
11
271.6944089
21
-167.7384109
0
LINE
8
0
10
271.6944089
20
-167.7384109
11
255.7196343
21
-161.9240685
0
LINE
8
0
10
255.7196343
20
-161.9240685
11
249.5632717
21
-178.8385357
0
LINE
8
0
10
249.5632717
20
-178.8385357
11
265.5380463
21
-184.6528781
0
ENDSEC
0
EOF