0
SECTION
2
HEADER
9
$INSUNITS
70
4
0
ENDSEC
0
SECTION
2
TABLES
0
TABLE
2
LTYPE
0
LTYPE
72
65
70
64
2
CONTINUOUS
3
______
73
0
40
0
0
ENDTAB
0
TABLE
2
LAYER
0
ENDTAB
0
ENDSEC
0
SECTION
2
ENTITIES
0
LINE
8
0
10
141
20
-158.5
11
159
21
-158.5
0
LINE
8
0
10
159
20
-158.5
11
159
21
-141.5
0
LINE
8
0
10
159
20
-141.5
11
141
21
-141.5
0
LINE
8
0
10
141
20
-141.5
11
141
21
-158.5
0
LINE
8
0
10
141
20
-139.3
11
159
21
-139.3
0
LINE
8
0
10
159
20
-139.3
11
159
21
-122.3
0
LINE
8
0
10
159
20
-122.3
11
141
21
-122.3
0
LINE
8
0
10
141
20
-122.3
11
141
21
-139.3
0
LINE
8
0
10
141
20
-120.1
11
159
21
-120.1
0
LINE
8
0
10
159
20
-120.1
11
159
21
-103.1
0
LINE
8
0
10
159
20
-103.1
11
141
21
-103.1
0
LINE
8
0
10
141
20
-103.1
11
141
21
-120.1
0
LINE
8
0
10
160.2
20
-158.5
11
178.2
21
-158.5
0
LINE
8
0
10
178.2
20
-158.5
11
178.2
21
-141.5
0
LINE
8
0
10
178.2
20
-141.5
11
160.2
21
-141.5
0
LINE
8
0
10
160.2
20
-141.5
11
160.2
21
-158.5
0
LINE
8
0
10
160.2
20
-139.3
11
178.2
21
-139.3
0
LINE
8
0
10
178.2
20
-139.3
11
178.2
21
-122.3
0
LINE
8
0
10
178.2
20
-122.3
11
160.2
21
-122.3
0
LINE
8
0
10
160.2
20
-122.3
11
160.2
21
-139.3
0
LINE
8
0
10
160.2
20
-120.1
11
178.2
21
-120.1
0
LINE
8
0
10
178.2
20
-120.1
11
178.2
21
-103.1
0
LINE
8
0
10
178.2
20
-103.1
11
160.2
21
-103.1
0
LINE
8
0
10
160.2
20
-103.1
11
160.2
21
-120.1
0
LINE
8
0
10
179.4
20
-151.7
11
197.4
21
-151.7
0
LINE
8
0
10
197.4
20
-151.7
11
197.4
21
-134.7
0
LINE
8
0
10
197.4
20
-134.7
11
179.4
21
-134.7
0
LINE
8
0
10
179.4
20
-134.7
11
179.4
21
-151.7
0
LINE
8
0
10
179.4
20
-132.5
11
197.4
21
-132.5
0
LINE
8
0
10
197.4
20
-132.5
11
197.4
21
-115.5
0
LINE
8
0
10
197.4
20
-115.5
11
179.4
21
-115.5
0
LINE
8
0
10
179.4
20
-115.5
11
179.4
21
-132.5
0
LINE
8
0
10
179.4
20
-113.3
11
197.4
21
-113.3
0
LINE
8
0
10
197.4
20
-113.3
11
197.4
21
-96.3
0
LINE
8
0
10
197.4
20
-96.3
11
179.4
21
-96.3
0
LINE
8
0
10
179.4
20
-96.3
11
179.4
21
-113.3
0
LINE
8
0
10
198.6
20
-148.81
11
216.6
21
-148.81
0
LINE
8
0
10
216.6
20
-148.81
11
216.6
21
-131.81
0
LINE
8
0
10
216.6
20
-131.81
11
198.6
21
-131.81
0
LINE
8
0
10
198.6
20
-131.81
11
198.6
21
-148.81
0
LINE
8
0
10
198.6
20
-129.61
11
216.6
21
-129.61
0
LINE
8
0
10
216.6
20
-129.61
11
216.6
21
-112.61
0
LINE
8
0
10
216.6
20
-112.61
11
198.6
21
-112.61
0
LINE
8
0
10
198.6
20
-112.61
11
198.6
21
-129.61
0
LINE
8
0
10
198.6
20
-110.41
11
216.6
21
-110.41
0
LINE
8
0
10
216.6
20
-110.41
11
216.6
21
-93.41
0
LINE
8
0
10
216.6
20
-93.41
11
198.6
21
-93.41
0
LINE
8
0
10
198.6
20
-93.41
11
198.6
21
-110.41
0
LINE
8
0
10
217.8
20
-151.7
11
235.8
21
-151.7
0
LINE
8
0
10
235.8
20
-151.7
11
235.8
21
-134.7
0
LINE
8
0
10
235.8
20
-134.7
11
217.8
21
-134.7
0
LINE
8
0
10
217.8
20
-134.7
11
217.8
21
-151.7
0
LINE
8
0
10
217.8
20
-132.5
11
235.8
21
-132.5
0
LINE
8
0
10
235.8
20
-132.5
11
235.8
21
-115.5
0
LINE
8
0
10
235.8
20
-115.5
11
217.8
21
-115.5
0
LINE
8
0
10
217.8
20
-115.5
11
217.8
21
-132.5
0
LINE
8
0
10
217.8
20
-113.3
11
235.8
21
-113.3
0
LINE
8
0
10
235.8
20
-113.3
11
235.8
21
-96.3
0
LINE
8
0
10
235.8
20
-96.3
11
217.8
21
-96.3
0
LINE
8
0
10
217.8
20
-96.3
11
217.8
21
-113.3
0
LINE
8
0
10
237
20
-154.59
11
255
21
-154.59
0
LINE
8
0
10
255
20
-154.59
11
255
21
-137.59
0
LINE
8
0
10
255
20
-137.59
11
237
21
-137.59
0
LINE
8
0
10
237
20
-137.59
11
237
21
-154.59
0
LINE
8
0
10
237
20
-135.39
11
255
21
-135.39
0
LINE
8
0
10
255
20
-135.39
11
255
21
-118.39
0
LINE
8
0
10
255
20
-118.39
11
237
21
-118.39
0
LINE
8
0
10
237
20
-118.39
11
237
21
-135.39
0
LINE
8
0
10
237
20
-116.19
11
255
21
-116.19
0
LINE
8
0
10
255
20
-116.19
11
255
21
-99.19
0
LINE
8
0
10
255
20
-99.19
11
237
21
-99.19
0
LINE
8
0
10
237
20
-99.19
11
237
21
-116.19
0
LINE
8
0
10
188.4
20
-172.7
11
206.4
21
-172.7
0
LINE
8
0
10
206.4
20
-172.7
11
206.4
21
-155.7
0
LINE
8
0
10
206.4
20
-155.7
11
188.4
21
-155.7
0
LINE
8
0
10
188.4
20
-155.7
11
188.4
21
-172.7
0
LINE
8
0
10
208.6024629
20
-172.9666036
11
226.5339675
21
-174.535407
0
LINE
8
0
10
226.5339675
20
-174.535407
11
228.0156151
21
-157.6000972
0
LINE
8
0
10
228.0156151
20
-157.6000972
11
210.0841105
21
-156.0312938
0
LINE
8
0
10
210.0841105
20
-156.0312938
11
208.6024629
21
-172.9666036
0
LINE
8
0
10
228.4490093
20
-174.9145374
11
246.1182986
21
-178.3490993
0
LINE
8
0
10
246.1182986
20
-178.3490993
11
249.3620515
21
-161.6614372
0
LINE
8
0
10
249.3620515
20
-161.6614372
11
231.6927622
21
-158.2268753
0
LINE
8
0
10
231.6927622
20
-158.2268753
11
228.4490093
21
-174.9145374
0
LINE
8
0
10
266.2220866
20
-183.7734928
11
272.3784492
21
-166.8590256
0
LINE
8
0
10
272.3784492
20
-166.8590256
11
256.4036746
21
-161.0446832
0
LINE
8
0
10
256.4036746
20
-161.0446832
11
250.247312
21
-177.9591504
0
LINE
8
0
10
250.247312
20
-177.9591504
11
266.2220866
21
-183.7734928
0
LINE
8
0
10
280.9116972
20
-201.8902073
11
287.0680598
21
-184.9757401
0
LINE
8
0
10
287.0680598
20
-184.9757401
11
271.0932852
21
-179.1613977
0
LINE
8
0
10
271.0932852
20
-179.1613977
11
264.9369226
21
-196.0758649
0
LINE
8
0
10
264.9369226
20
-196.0758649
11
280.9116972
21
-201.8902073
0
ENDSEC
0
EOF