0
SECTION
2
HEADER
9
$INSUNITS
70
4
0
ENDSEC
0
SECTION
2
TABLES
0
TABLE
2
LTYPE
0
LTYPE
72
65
70
64
2
CONTINUOUS
3
______
73
0
40
0
0
ENDTAB
0
TABLE
2
LAYER
0
ENDTAB
0
ENDSEC
0
SECTION
2
ENTITIES
0
LINE
8
0
10
139
20
-157.5849961
11
139
21
-104.4538996
0
LINE
8
0
10
142.3025184
20
-100.515179
11
177.3490552
21
-94.3090215
0
LINE
8
0
10
177.4511605
20
-94.2922993
11
196.3039793
21
-91.4545573
0
LINE
8
0
10
196.8993557
20
-91.41
11
218.4058452
21
-91.41
0
LINE
8
0
10
218.7932412
20
-91.4288036
11
274.387396
21
-96.8384705
0
LINE
8
0
10
278
20
-148.6753888
11
278
21
-100.8196669
0
LINE
8
0
10
275.8633973
20
-152.2148451
11
274.9500023
21
-152.695715
0
LINE
8
0
10
275.4453192
20
-159.9939418
11
276.8229855
21
-160.4953713
0
LINE
8
0
10
276.8229855
20
-160.4953713
11
281.0360608
21
-173.1843808
0
LINE
8
0
10
283.4642004
20
-175.6827093
11
287.7538255
21
-177.2440052
0
LINE
8
0
10
290.1445156
20
-182.3708562
11
281.594012
21
-205.8631716
0
LINE
8
0
10
276.467161
20
-208.2538617
11
262.3107631
21
-203.1013542
0
LINE
8
0
10
259.8826235
20
-200.6030257
11
256.279311
21
-189.7505097
0
LINE
8
0
10
253.8511714
20
-187.2521812
11
246.0424853
21
-184.4100518
0
LINE
8
0
10
245.5760905
20
-184.2058137
11
237.2958644
21
-179.9324334
0
LINE
8
0
10
236.0400789
20
-179.5290473
11
217.523391
21
-176.8217119
0
LINE
8
0
10
217.079165
20
-176.781891
11
186.9585776
21
-175.7687877
0
LINE
8
0
10
185.8679643
20
-175.5788282
11
141.7749231
21
-161.3927759
0
ARC
8
0
10
143
20
-104.4538996
40
4
50
100.0420217
51
180
0
ARC
8
0
10
178.0465369
20
-98.247742
40
4
50
98.5599462
51
100.0420217
0
ARC
8
0
10
196.8993557
20
-95.41
40
4
50
90
51
98.5599462
0
ARC
8
0
10
218.4058452
20
-95.41
40
4
50
84.4422496
51
90
0
ARC
8
0
10
274
20
-100.8196669
40
4
50
0
51
84.4422496
0
ARC
8
0
10
274
20
-148.6753888
40
4
50
297.7652031
51
0
0
ARC
8
0
10
276.8133996
20
-156.2351712
40
4
50
117.7652031
51
250.0000019
0
ARC
8
0
10
284.8322808
20
-171.9239388
40
4
50
198.3674845
51
250.0000019
0
ARC
8
0
10
286.385745
20
-181.0027757
40
4
50
340.0000019
51
70.0000019
0
ARC
8
0
10
277.8352415
20
-204.4950911
40
4
50
250.0000019
51
340.0000019
0
ARC
8
0
10
263.6788435
20
-199.3425837
40
4
50
198.3674845
51
250.0000019
0
ARC
8
0
10
252.483091
20
-191.0109517
40
4
50
18.3674845
51
70.0000019
0
ARC
8
0
10
247.4105657
20
-180.6512813
40
4
50
242.7019828
51
250.0000019
0
ARC
8
0
10
235.4613892
20
-183.4869658
40
4
50
62.7019828
51
81.6816909
0
ARC
8
0
10
216.9447014
20
-180.7796303
40
4
50
81.6816909
51
88.0735878
0
ARC
8
0
10
187.0930412
20
-171.7710484
40
4
50
252.1654609
51
268.0735878
0
ARC
8
0
10
143
20
-157.5849961
40
4
50
180
51
252.1654609
0
ENDSEC
0
EOF