0
SECTION
2
HEADER
9
$INSUNITS
70
4
0
ENDSEC
0
SECTION
2
TABLES
0
TABLE
2
LTYPE
0
LTYPE
72
65
70
64
2
CONTINUOUS
3
______
73
0
40
0
0
ENDTAB
0
TABLE
2
LAYER
0
ENDTAB
0
ENDSEC
0
SECTION
2
ENTITIES
0
LINE
8
0
10
140.1
20
-157.7858758
11
140.1
21
-104.10014
0
LINE
8
0
10
142.6510902
20
-101.1339168
11
177.3988204
21
-95.8751785
0
LINE
8
0
10
177.4011979
20
-95.8748197
11
196.3779843
21
-93.018418
0
LINE
8
0
10
196.8245166
20
-92.985
11
218.5190226
21
-92.985
0
LINE
8
0
10
218.6808585
20
-92.9893683
11
274.1618359
21
-95.9866711
0
LINE
8
0
10
277
20
-150.8446935
11
277
21
-98.9823028
0
LINE
8
0
10
274.8457699
20
-153.7230043
11
272.2960949
21
-154.4722072
0
LINE
8
0
10
271.6043838
20
-159.9265909
11
273.6327488
21
-161.1371829
0
LINE
8
0
10
266.2656435
20
-188.5014301
11
274.9143456
21
-164.7393162
0
LINE
8
0
10
262.3902856
20
-190.2832645
11
247.6830817
21
-184.750676
0
LINE
8
0
10
245.7393618
20
-181.941692
11
245.7398063
21
-180.7174073
0
LINE
8
0
10
243.3122335
20
-177.7714364
11
239.2628538
21
-176.9843167
0
LINE
8
0
10
239.260866
20
-176.9839311
11
226.4052891
21
-174.4940633
0
LINE
8
0
10
226.0963169
20
-174.4507464
11
208.8305831
21
-172.9401905
0
LINE
8
0
10
208.6068056
20
-172.9290114
11
186.7808016
21
-172.6547845
0
LINE
8
0
10
186.0324729
20
-172.55022
11
142.3139817
21
-160.6810745
0
ARC
8
0
10
143.1
20
-104.10014
40
3
50
98.6058673
51
180
0
ARC
8
0
10
177.8477301
20
-98.8414017
40
3
50
98.5599462
51
98.6058673
0
ARC
8
0
10
196.8245166
20
-95.985
40
3
50
90
51
98.5599462
0
ARC
8
0
10
218.5190226
20
-95.985
40
3
50
86.9076609
51
90
0
ARC
8
0
10
274
20
-98.9823028
40
3
50
0
51
86.9076609
0
ARC
8
0
10
274
20
-150.8446935
40
3
50
286.3750276
51
0
0
ARC
8
0
10
273.1418649
20
-157.350518
40
3
50
106.3750276
51
239.1699234
0
ARC
8
0
10
272.0952677
20
-163.7132558
40
3
50
340.0000019
51
59.1699234
0
ARC
8
0
10
263.4465655
20
-187.4753697
40
3
50
249.3845956
51
340.0000019
0
ARC
8
0
10
248.7393616
20
-181.9427813
40
3
50
179.9791959
51
249.3845956
0
ARC
8
0
10
242.7398065
20
-180.716318
40
3
50
359.9791959
51
78.9999999
0
ARC
8
0
10
238.6904268
20
-179.9291983
40
3
50
78.9999999
51
79.0386714
0
ARC
8
0
10
225.8348498
20
-177.4393305
40
3
50
79.0386714
51
85.0000024
0
ARC
8
0
10
208.569116
20
-175.9287746
40
3
50
85.0000024
51
89.2801627
0
ARC
8
0
10
186.8184912
20
-169.6550213
40
3
50
254.8108694
51
269.2801627
0
ARC
8
0
10
143.1
20
-157.7858758
40
3
50
180
51
254.8108694
0
ENDSEC
0
EOF